<svg width="32" height="24" viewBox="0 0 32 24" fill="none" xmlns="http://www.w3.org/2000/svg">
<g clip-path="url(#clip0_440_1591)">
<rect width="32" height="24" rx="2" fill="#485CC2"/>
<path d="M2.49999 11.5L32 24V-6.67572e-06L2.49999 11.5Z" fill="#F9F9F9"/>
<path fill-rule="evenodd" clip-rule="evenodd" d="M33 25.5098L-0.154236 11.4614L33 -1.46313V25.5098ZM32 24V-6.67572e-06L2.49999 11.5L32 24Z" fill="#D74B4B"/>
<path d="M21.2758 12.353C21.1042 12.3464 20.9338 12.3842 20.781 12.4627L19.5397 13.1002C19.2119 13.4178 18.7656 13.7412 18.7656 13.7412L18.5671 13.5426C18.3328 13.3084 18.3328 12.9283 18.5671 12.6941L19.0642 12.1969C18.9586 11.9913 19.0397 11.7391 19.2453 11.6335L20.5512 10.9628C21.0305 10.7166 21.2286 10.1349 20.9992 9.64741L20.8887 9.41277C20.6283 8.85946 20.9211 8.2041 21.507 8.02888L28.4519 5.9519L27.2552 8.74406C27.1815 8.9162 27.0537 9.05964 26.8912 9.15271L26.8486 9.1771C26.4766 9.39009 26.6278 9.95811 27.0564 9.95811C27.1126 9.95811 27.1682 9.94676 27.22 9.92476L28.4519 9.40092L28.4685 9.43297C28.9119 10.2921 28.9141 11.3122 28.4744 12.1733L28.4519 12.2173L27.1416 11.7505H26.1817C25.7629 11.7505 25.3885 12.0114 25.2435 12.4043L24.054 15.6276L23.2557 15.3715V13.391C23.2557 12.8535 22.8309 12.4121 22.2938 12.3917L21.2758 12.353Z" fill="#962122"/>
<path fill-rule="evenodd" clip-rule="evenodd" d="M18.8443 13.7373L17.25 14.038L18.5126 15.0315L19.4996 14.7403L19.2407 15.5088L19.8393 15.6787L20.0968 14.9221L26.358 16.369L21.1056 15.9573L21.1477 15.7361H19.3583C19.2844 15.8786 19.1303 16.1795 19.105 16.2429L19.7226 17.003L20.9577 17.4147L22.7155 18.0481V17.4147L23.4756 17.9689H24.1565L25.0591 17.7314L24.1565 17.4147L25.0591 17.003H24.1565V16.7338L23.6973 17.003H22.7155L22.8738 16.7338H20.9577L21.0315 16.3464L26.9146 16.7817V16.4126L26.9059 16.4119V16.1068L20.2028 14.6038L20.415 13.9142L19.7608 13.7374L19.584 14.427L18.8443 13.7373Z" fill="#F8D74C"/>
</g>
<defs>
<clipPath id="clip0_440_1591">
<rect width="32" height="24" rx="2" fill="white"/>
</clipPath>
</defs>
</svg>
