<svg width="24" height="24" viewBox="0 0 24 24" fill="none" xmlns="http://www.w3.org/2000/svg">
<g clip-path="url(#clip0_440_1587)">
<rect width="24" height="24" rx="12" fill="#485CC2"/>
<path d="M2.49998 11.5L24 24V2.14577e-06L2.49998 11.5Z" fill="#F9F9F9"/>
<path fill-rule="evenodd" clip-rule="evenodd" d="M25 25.7381L0.447815 11.4636L25 -1.66895V25.7381ZM24 24V2.14577e-06L2.49998 11.5L24 24Z" fill="#D74B4B"/>
<path d="M15.2867 12.2855C15.1151 12.279 14.9447 12.3168 14.7919 12.3952L13.8401 12.884C13.5766 13.1393 13.218 13.3992 13.218 13.3992L13.0585 13.2396C12.8702 13.0513 12.8702 12.7459 13.0585 12.5577L13.458 12.1582C13.3731 11.9929 13.4383 11.7902 13.6035 11.7053L14.5688 11.2096C15.0009 10.9876 15.1795 10.4632 14.9727 10.0236C14.7379 9.52479 15.0019 8.93392 15.5301 8.77594L21.0023 7.1394L20.0406 9.38329C19.9813 9.52162 19.8786 9.6369 19.748 9.7117L19.7138 9.7313C19.4149 9.90247 19.5363 10.3589 19.8808 10.3589C19.926 10.3589 19.9707 10.3498 20.0123 10.3321L21.0023 9.91117C21.367 10.6178 21.3639 11.4664 21.0023 12.1745L19.9492 11.7994H19.3147C18.8959 11.7994 18.5215 12.0603 18.3765 12.4532L17.468 14.9152L16.8264 14.7094V13.3068C16.8264 12.7693 16.4016 12.3279 15.8645 12.3075L15.2867 12.2855Z" fill="#962122"/>
<path fill-rule="evenodd" clip-rule="evenodd" d="M13.2812 13.3962L12 13.6379L13.0147 14.4363L13.8078 14.2023L13.5998 14.8199L14.0809 14.9564L14.2878 14.3484L19.3195 15.5112L15.0985 15.1803L15.1324 15.0025H13.6944C13.635 15.117 13.5111 15.3588 13.4907 15.4097L13.9871 16.0206L14.9797 16.3515L16.3923 16.8605V16.3515L17.0031 16.7969H17.5504L18.2757 16.606L17.5504 16.3515L18.2757 16.0206H17.5504V15.8043L17.1813 16.0206H16.3923L16.5195 15.8043H14.9797L15.039 15.493L19.7669 15.8428V15.5462L19.7598 15.5457V15.3004L14.373 14.0926L14.5435 13.5384L14.0178 13.3963L13.8757 13.9505L13.2812 13.3962Z" fill="#F8D74C"/>
</g>
<defs>
<clipPath id="clip0_440_1587">
<rect width="24" height="24" rx="12" fill="white"/>
</clipPath>
</defs>
</svg>
