<svg width="32" height="24" viewBox="0 0 32 24" fill="none" xmlns="http://www.w3.org/2000/svg">
<rect width="32" height="24" rx="2" fill="#485CC2"/>
<g clip-path="url(#clip0_440_1616)">
<path fill-rule="evenodd" clip-rule="evenodd" d="M16.75 1L0.75 13L-0.75 11L15.25 -1L16.75 1Z" fill="#F9F9F9"/>
<path fill-rule="evenodd" clip-rule="evenodd" d="M-0.75 1L15.25 13L16.75 11L0.75 -1L-0.75 1Z" fill="#F9F9F9"/>
<path fill-rule="evenodd" clip-rule="evenodd" d="M15.775 12.8L-0.225 0.8L0.225 0.2L16.225 12.2L15.775 12.8Z" fill="#D74B4B"/>
<path fill-rule="evenodd" clip-rule="evenodd" d="M-0.277853 12.8021L16.7221 0.302119L16.2779 -0.302119L-0.722147 12.1979L-0.277853 12.8021Z" fill="#D74B4B"/>
<path d="M9.5 1.31134e-07L9.5 12H6.5L6.5 0L9.5 1.31134e-07Z" fill="#F9F9F9"/>
<path d="M0 4.5H16V7.5H0V4.5Z" fill="#F9F9F9"/>
<path d="M0 5H16V7H0V5Z" fill="#D74B4B"/>
<path d="M9 8.74229e-08L9 12H7L7 0L9 8.74229e-08Z" fill="#D74B4B"/>
</g>
<path d="M7.99998 15L8.58572 16.7837L10.3455 16.1295L9.31613 17.6996L10.9248 18.6676L9.05545 18.8417L9.30163 20.7029L7.99998 19.35L6.69833 20.7029L6.94451 18.8417L5.0752 18.6676L6.68383 17.6996L5.65448 16.1295L7.41424 16.7837L7.99998 15Z" fill="#F9F9F9"/>
<path d="M23.5 4L23.7929 4.89185L24.6727 4.56477L24.1581 5.3498L24.9624 5.83378L24.0277 5.92086L24.1508 6.85145L23.5 6.175L22.8492 6.85145L22.9722 5.92086L22.0376 5.83378L22.8419 5.3498L22.3272 4.56477L23.2071 4.89185L23.5 4Z" fill="#F9F9F9"/>
<path d="M19.5 10L19.7929 10.8918L20.6727 10.5648L20.1581 11.3498L20.9624 11.8338L20.0277 11.9209L20.1508 12.8515L19.5 12.175L18.8492 12.8515L18.9722 11.9209L18.0376 11.8338L18.8419 11.3498L18.3272 10.5648L19.2071 10.8918L19.5 10Z" fill="#F9F9F9"/>
<path d="M28.5 9L28.7929 9.89185L29.6727 9.56477L29.1581 10.3498L29.9624 10.8338L29.0277 10.9209L29.1508 11.8515L28.5 11.175L27.8492 11.8515L27.9722 10.9209L27.0376 10.8338L27.8419 10.3498L27.3272 9.56477L28.2071 9.89185L28.5 9Z" fill="#F9F9F9"/>
<path d="M24.5 17L24.7929 17.8918L25.6727 17.5648L25.1581 18.3498L25.9624 18.8338L25.0277 18.9209L25.1508 19.8515L24.5 19.175L23.8492 19.8515L23.9722 18.9209L23.0376 18.8338L23.8419 18.3498L23.3272 17.5648L24.2071 17.8918L24.5 17Z" fill="#F9F9F9"/>
<path d="M25 12L25.2645 12.6359L25.951 12.691L25.428 13.1391L25.5878 13.809L25 13.45L24.4122 13.809L24.572 13.1391L24.0489 12.691L24.7355 12.6359L25 12Z" fill="#F9F9F9"/>
<defs>
<clipPath id="clip0_440_1616">
<rect width="16" height="12" fill="white"/>
</clipPath>
</defs>
</svg>
