<svg width="32" height="24" viewBox="0 0 32 24" fill="none" xmlns="http://www.w3.org/2000/svg">
<rect width="32" height="24" rx="2" fill="#485CC2"/>
<g clip-path="url(#clip0_440_1611)">
<path fill-rule="evenodd" clip-rule="evenodd" d="M16.75 1L0.75 13L-0.75 11L15.25 -1L16.75 1Z" fill="#F9F9F9"/>
<path fill-rule="evenodd" clip-rule="evenodd" d="M-0.75 1L15.25 13L16.75 11L0.75 -1L-0.75 1Z" fill="#F9F9F9"/>
<path fill-rule="evenodd" clip-rule="evenodd" d="M15.775 12.8L-0.225 0.8L0.225 0.2L16.225 12.2L15.775 12.8Z" fill="#D74B4B"/>
<path fill-rule="evenodd" clip-rule="evenodd" d="M-0.277853 12.8021L16.7221 0.302119L16.2779 -0.302119L-0.722147 12.1979L-0.277853 12.8021Z" fill="#D74B4B"/>
<path d="M9.5 1.31134e-07L9.5 12H6.5L6.5 0L9.5 1.31134e-07Z" fill="#F9F9F9"/>
<path d="M0 4.5H16V7.5H0V4.5Z" fill="#F9F9F9"/>
<path d="M0 5H16V7H0V5Z" fill="#D74B4B"/>
<path d="M9 8.74229e-08L9 12H7L7 0L9 8.74229e-08Z" fill="#D74B4B"/>
</g>
<path d="M24.0247 6L24.2539 6.68448L24.9757 6.69098L24.3956 7.12052L24.6124 7.80902L24.0247 7.39L23.4369 7.80902L23.6537 7.12052L23.0736 6.69098L23.7954 6.68448L24.0247 6Z" fill="#F9F9F9"/>
<path d="M24.0247 16L24.2539 16.6845L24.9757 16.691L24.3956 17.1205L24.6124 17.809L24.0247 17.39L23.4369 17.809L23.6537 17.1205L23.0736 16.691L23.7954 16.6845L24.0247 16Z" fill="#F9F9F9"/>
<path d="M27.0247 6.80396L26.8809 7.51135L27.5028 7.87789L26.7856 7.95981L26.6292 8.6645L26.3297 8.00773L25.6111 8.07672L26.1432 7.58889L25.8555 6.92684L26.4839 7.28212L27.0247 6.80396Z" fill="#F9F9F9"/>
<path d="M22.0247 15.4642L21.8809 16.1716L22.5028 16.5381L21.7856 16.6201L21.6292 17.3248L21.3297 16.668L20.6111 16.737L21.1432 16.2491L20.8555 15.5871L21.4839 15.9424L22.0247 15.4642Z" fill="#F9F9F9"/>
<path d="M29.2208 9.00006L28.7426 9.54082L29.0979 10.1692L28.4359 9.88154L27.948 10.4136L28.017 9.69506L27.3602 9.39553L28.0649 9.2391L28.1469 8.52191L28.5134 9.14378L29.2208 9.00006Z" fill="#F9F9F9"/>
<path d="M20.5605 14.0001L20.0824 14.5408L20.4377 15.1692L19.7756 14.8815L19.2878 15.4136L19.3568 14.6951L18.7 14.3955L19.4047 14.2391L19.4866 13.5219L19.8531 14.1438L20.5605 14.0001Z" fill="#F9F9F9"/>
<path d="M30.0247 12L29.3402 12.2292L29.3337 12.9511L28.9041 12.3709L28.2156 12.5878L28.6347 12L28.2156 11.4122L28.9041 11.6291L29.3337 11.0489L29.3402 11.7708L30.0247 12Z" fill="#F9F9F9"/>
<path d="M20.0247 12L19.3402 12.2292L19.3337 12.9511L18.9041 12.3709L18.2156 12.5878L18.6347 12L18.2156 11.4122L18.9041 11.6291L19.3337 11.0489L19.3402 11.7708L20.0247 12Z" fill="#F9F9F9"/>
<path d="M29.2208 15.0001L28.5134 14.8563L28.1469 15.4782L28.065 14.761L27.3603 14.6046L28.017 14.3051L27.9481 13.5865L28.4359 14.1186L29.0979 13.8309L28.7427 14.4593L29.2208 15.0001Z" fill="#F9F9F9"/>
<path d="M20.5606 10.0001L19.8532 9.85634L19.4866 10.4782L19.4047 9.76102L18.7 9.60459L19.3568 9.30506L19.2878 8.58651L19.7756 9.11858L20.4377 8.83093L20.0824 9.45929L20.5606 10.0001Z" fill="#F9F9F9"/>
<path d="M27.0247 17.1963L26.4839 16.7181L25.8555 17.0734L26.1432 16.4113L25.6111 15.9235L26.3297 15.9925L26.6292 15.3357L26.7856 16.0404L27.5028 16.1224L26.8809 16.4889L27.0247 17.1963Z" fill="#F9F9F9"/>
<path d="M22.0247 8.53603L21.4839 8.05787L20.8555 8.41315L21.1432 7.75109L20.6111 7.26327L21.3297 7.33226L21.6292 6.67549L21.7856 7.38018L22.5028 7.4621L21.8809 7.82864L22.0247 8.53603Z" fill="#F9F9F9"/>
<defs>
<clipPath id="clip0_440_1611">
<rect width="16" height="12" fill="white"/>
</clipPath>
</defs>
</svg>
