<svg width="24" height="24" viewBox="0 0 24 24" fill="none" xmlns="http://www.w3.org/2000/svg">
<rect width="24" height="24" rx="2" fill="#485CC2"/>
<g clip-path="url(#clip0_440_1610)">
<path fill-rule="evenodd" clip-rule="evenodd" d="M13.6094 0.916585L0.609375 11.9166L-0.609375 10.0833L12.3906 -0.916748L13.6094 0.916585Z" fill="#F9F9F9"/>
<path fill-rule="evenodd" clip-rule="evenodd" d="M-0.609375 0.916585L12.3906 11.9166L13.6094 10.0833L0.609375 -0.916748L-0.609375 0.916585Z" fill="#F9F9F9"/>
<path fill-rule="evenodd" clip-rule="evenodd" d="M12.8172 11.7333L-0.182813 0.733252L0.182813 0.183252L13.1828 11.1833L12.8172 11.7333Z" fill="#D74B4B"/>
<path fill-rule="evenodd" clip-rule="evenodd" d="M-0.225756 11.7352L13.5867 0.276861L13.2258 -0.277024L-0.586744 11.1813L-0.225756 11.7352Z" fill="#D74B4B"/>
<path d="M7.71875 1.20206e-07L7.71875 11H5.28125L5.28125 0L7.71875 1.20206e-07Z" fill="#F9F9F9"/>
<path d="M0 4.125H13V6.875H0V4.125Z" fill="#F9F9F9"/>
<path d="M0 4.58333H13V6.41667H0V4.58333Z" fill="#D74B4B"/>
<path d="M7.3125 8.01377e-08L7.3125 11H5.6875L5.6875 0L7.3125 8.01377e-08Z" fill="#D74B4B"/>
</g>
<path d="M18.4991 6L18.671 6.51326L19.2122 6.51813L18.7772 6.84021L18.9398 7.35648L18.4991 7.04228L18.0583 7.35648L18.221 6.84021L17.7859 6.51813L18.3272 6.51326L18.4991 6Z" fill="#F9F9F9"/>
<path d="M18.4991 13.4984L18.671 14.0116L19.2122 14.0165L18.7772 14.3386L18.9398 14.8549L18.4991 14.5407L18.0583 14.8549L18.2209 14.3386L17.7859 14.0165L18.3272 14.0116L18.4991 13.4984Z" fill="#F9F9F9"/>
<path d="M20.7486 6.6028L20.6408 7.13323L21.1071 7.40808L20.5694 7.4695L20.4521 7.99791L20.2275 7.50544L19.6887 7.55717L20.0876 7.19138L19.8719 6.69494L20.3431 6.96134L20.7486 6.6028Z" fill="#F9F9F9"/>
<path d="M16.9994 13.0968L16.8916 13.6272L17.3579 13.9021L16.8201 13.9635L16.7028 14.4919L16.4782 13.9994L15.9394 14.0512L16.3384 13.6854L16.1227 13.1889L16.5939 13.4553L16.9994 13.0968Z" fill="#F9F9F9"/>
<path d="M22.3953 8.24948L22.0368 8.65497L22.3032 9.12615L21.8068 8.91045L21.441 9.30942L21.4927 8.77063L21.0002 8.54603L21.5286 8.42873L21.5901 7.89095L21.8649 8.35725L22.3953 8.24948Z" fill="#F9F9F9"/>
<path d="M15.9015 11.9987L15.543 12.4042L15.8094 12.8753L15.3129 12.6596L14.9471 13.0586L14.9989 12.5198L14.5064 12.2952L15.0348 12.1779L15.0962 11.6401L15.3711 12.1064L15.9015 11.9987Z" fill="#F9F9F9"/>
<path d="M22.9981 10.499L22.4849 10.6709L22.48 11.2122L22.1579 10.7772L21.6416 10.9398L21.9558 10.499L21.6416 10.0583L22.1579 10.2209L22.48 9.78589L22.4849 10.3271L22.9981 10.499Z" fill="#F9F9F9"/>
<path d="M15.4997 10.499L14.9864 10.6709L14.9816 11.2121L14.6595 10.7771L14.1432 10.9397L14.4574 10.499L14.1432 10.0582L14.6595 10.2208L14.9816 9.78582L14.9864 10.3271L15.4997 10.499Z" fill="#F9F9F9"/>
<path d="M22.3954 12.7486L21.8649 12.6408L21.5901 13.1072L21.5287 12.5694L21.0003 12.4521L21.4927 12.2275L21.441 11.6887L21.8068 12.0876L22.3032 11.8719L22.0368 12.3431L22.3954 12.7486Z" fill="#F9F9F9"/>
<path d="M15.9015 8.99953L15.3711 8.89177L15.0963 9.35807L15.0348 8.82029L14.5064 8.70299L14.9989 8.47839L14.9472 7.93959L15.313 8.33856L15.8094 8.12287L15.543 8.59404L15.9015 8.99953Z" fill="#F9F9F9"/>
<path d="M20.7486 14.3954L20.3431 14.0368L19.8719 14.3032L20.0876 13.8068L19.6887 13.441L20.2275 13.4927L20.4521 13.0003L20.5694 13.5287L21.1071 13.5901L20.6408 13.8649L20.7486 14.3954Z" fill="#F9F9F9"/>
<path d="M16.9994 7.90166L16.5939 7.54312L16.1227 7.80952L16.3384 7.31308L15.9394 6.94729L16.4782 6.99902L16.7028 6.50655L16.8201 7.03496L17.3579 7.09638L16.8916 7.37123L16.9994 7.90166Z" fill="#F9F9F9"/>
<defs>
<clipPath id="clip0_440_1610">
<rect width="13" height="11" fill="white"/>
</clipPath>
</defs>
</svg>
