<svg width="24" height="24" viewBox="0 0 24 24" fill="none" xmlns="http://www.w3.org/2000/svg">
<rect width="24" height="24" rx="12" fill="#64BEDB"/>
<g clip-path="url(#clip0_440_1606)">
<rect width="13" height="11" fill="#485CC2"/>
<path fill-rule="evenodd" clip-rule="evenodd" d="M13.6094 0.916585L0.609375 11.9166L-0.609375 10.0833L12.3906 -0.916748L13.6094 0.916585Z" fill="#F9F9F9"/>
<path fill-rule="evenodd" clip-rule="evenodd" d="M-0.609375 0.916585L12.3906 11.9166L13.6094 10.0833L0.609375 -0.916748L-0.609375 0.916585Z" fill="#F9F9F9"/>
<path fill-rule="evenodd" clip-rule="evenodd" d="M12.8172 11.7333L-0.182813 0.733252L0.182813 0.183252L13.1828 11.1833L12.8172 11.7333Z" fill="#D74B4B"/>
<path fill-rule="evenodd" clip-rule="evenodd" d="M-0.225756 11.7352L13.5867 0.276861L13.2258 -0.277024L-0.586744 11.1813L-0.225756 11.7352Z" fill="#D74B4B"/>
<path d="M7.71875 1.20206e-07L7.71875 11H5.28125L5.28125 0L7.71875 1.20206e-07Z" fill="#F9F9F9"/>
<path d="M0 4.125H13V6.875H0V4.125Z" fill="#F9F9F9"/>
<path d="M0 4.58333H13V6.41667H0V4.58333Z" fill="#D74B4B"/>
<path d="M7.3125 8.01377e-08L7.3125 11H5.6875L5.6875 0L7.3125 8.01377e-08Z" fill="#D74B4B"/>
</g>
<path d="M14 7H23V14.0504C23 15.2359 22.3018 16.3103 21.2184 16.7918L18.5 18L15.7816 16.7918C14.6982 16.3103 14 15.2359 14 14.0504V7Z" fill="#F9F9F9"/>
<mask id="mask0_440_1606" style="mask-type:alpha" maskUnits="userSpaceOnUse" x="14" y="7" width="9" height="11">
<path d="M14 7H23V14.0504C23 15.2359 22.3018 16.3103 21.2184 16.7918L18.5 18L15.7816 16.7918C14.6982 16.3103 14 15.2359 14 14.0504V7Z" fill="#F9F9F9"/>
</mask>
<g mask="url(#mask0_440_1606)">
<path d="M14 7H23V9H14V7Z" fill="#D74B4B"/>
<path d="M19 7L19 18H18L18 7L19 7Z" fill="#D74B4B"/>
<path d="M23 13.5L14 13.5L14 12.5L23 12.5V13.5Z" fill="#D74B4B"/>
<path fill-rule="evenodd" clip-rule="evenodd" d="M15.9871 10.6814C16.0424 10.6814 16.0871 10.7262 16.0871 10.7814V11.3917C16.0871 11.4469 16.0424 11.4917 15.9871 11.4917C15.9319 11.4917 15.8871 11.4469 15.8871 11.3917V10.7814C15.8871 10.7262 15.9319 10.6814 15.9871 10.6814Z" fill="#962122"/>
<path fill-rule="evenodd" clip-rule="evenodd" d="M17.0916 10.9119C17.1347 10.9465 17.1415 11.0095 17.1069 11.0525L16.7764 11.4636C16.7418 11.5066 16.6789 11.5134 16.6358 11.4788C16.5928 11.4442 16.5859 11.3813 16.6206 11.3382L16.951 10.9272C16.9856 10.8842 17.0486 10.8773 17.0916 10.9119Z" fill="#962122"/>
<path d="M17.0911 10.0017C17.1449 9.98906 17.1987 10.0224 17.2114 10.0762C17.2249 10.1335 17.2445 10.1906 17.266 10.2533L17.2723 10.2716C17.2876 10.3163 17.3036 10.3638 17.3169 10.4131C17.3416 10.4003 17.3665 10.3917 17.3883 10.3857C17.4365 10.3725 17.4881 10.3672 17.5224 10.3637L17.5366 10.3623C17.5915 10.3563 17.6409 10.396 17.6468 10.4509C17.6528 10.5058 17.6131 10.5551 17.5582 10.5611L17.5406 10.563C17.5053 10.5667 17.4721 10.5701 17.4412 10.5786C17.4043 10.5887 17.3945 10.6 17.3923 10.6038C17.3802 10.6253 17.3695 10.6487 17.3575 10.6761L17.3535 10.6852C17.3429 10.7092 17.3309 10.7367 17.3172 10.7631C17.3079 10.7809 17.294 10.7947 17.2778 10.8039C17.2598 10.8329 17.2382 10.8676 17.2172 10.9005C17.194 10.9368 17.1698 10.9736 17.15 11.0005C17.1407 11.0132 17.1295 11.0277 17.1182 11.0391C17.1139 11.0435 17.1021 11.0553 17.0851 11.0639C17.0768 11.0681 17.0567 11.0771 17.03 11.0751C16.9966 11.0726 16.9683 11.0542 16.9517 11.0285C16.9218 10.982 16.9352 10.9201 16.9816 10.8902L16.9838 10.8889L16.9888 10.8822C17.0003 10.8666 17.0147 10.8452 17.0307 10.8207C17.0288 10.8147 17.0275 10.8084 17.0268 10.8019C17.0205 10.744 16.9864 10.6976 16.9232 10.6521C16.8743 10.6169 16.8201 10.5901 16.762 10.5614C16.7402 10.5506 16.7179 10.5395 16.6951 10.5277C16.6461 10.5022 16.627 10.4418 16.6525 10.3928C16.678 10.3438 16.7384 10.3247 16.7874 10.3502C16.8026 10.3581 16.8198 10.3667 16.8385 10.3759C16.9001 10.4063 16.9765 10.4441 17.04 10.4898C17.0794 10.5182 17.1182 10.5524 17.1503 10.5942C17.1481 10.5779 17.145 10.5623 17.1419 10.5468L17.1382 10.5279C17.1268 10.4667 17.1066 10.4048 17.0831 10.3365L17.0766 10.3174C17.0555 10.2563 17.0326 10.1896 17.0167 10.1219C17.004 10.0682 17.0374 10.0143 17.0911 10.0017Z" fill="#3FB47C"/>
<path fill-rule="evenodd" clip-rule="evenodd" d="M14.8286 10.9548C14.8676 10.9158 14.931 10.9158 14.97 10.9548L15.326 11.3108C15.3651 11.3499 15.3651 11.4132 15.326 11.4522C15.2869 11.4913 15.2236 11.4913 15.1846 11.4522L14.8286 11.0962C14.7895 11.0572 14.7895 10.9939 14.8286 10.9548Z" fill="#962122"/>
<path fill-rule="evenodd" clip-rule="evenodd" d="M14.8881 10.0998C14.8343 10.0872 14.7805 10.1205 14.7678 10.1743C14.7543 10.2316 14.7347 10.2887 14.7132 10.3515C14.7111 10.3575 14.709 10.3636 14.7069 10.3698C14.6836 10.4376 14.6588 10.5121 14.6444 10.5893C14.6439 10.5919 14.6431 10.5955 14.6423 10.5998C14.6385 10.6187 14.6319 10.6515 14.6288 10.6826C14.6268 10.7023 14.6257 10.7259 14.6282 10.7497C14.6305 10.772 14.637 10.8046 14.6584 10.8341C14.6583 10.8341 14.6582 10.8338 14.6584 10.8341L14.6594 10.8356L14.6621 10.8397L14.6706 10.8528L14.6954 10.8925C14.6975 10.8958 14.6995 10.8991 14.7016 10.9025C14.7197 10.9315 14.741 10.9658 14.762 10.9987C14.7852 11.035 14.8094 11.0717 14.8292 11.0987C14.8385 11.1114 14.8497 11.1259 14.861 11.1373C14.8653 11.1416 14.8771 11.1534 14.8941 11.162C14.9024 11.1662 14.9225 11.1752 14.9492 11.1732C14.9826 11.1707 15.0109 11.1524 15.0275 11.1266C15.0574 11.0802 15.044 11.0183 14.9976 10.9884C14.9969 10.9879 14.9961 10.9875 14.9954 10.9871C14.9939 10.9851 14.9922 10.9828 14.9904 10.9803C14.9747 10.959 14.9535 10.9269 14.9306 10.891C14.9102 10.8592 14.8895 10.8259 14.8715 10.7968C14.8693 10.7934 14.8673 10.7901 14.8652 10.7869C14.851 10.7639 14.8366 10.7409 14.8269 10.7262C14.8266 10.721 14.8267 10.7132 14.8278 10.7024C14.8298 10.6824 14.8335 10.6636 14.8373 10.6449C14.8385 10.6386 14.8398 10.6323 14.841 10.626C14.8524 10.5649 14.8726 10.503 14.8961 10.4346C14.8982 10.4283 14.9004 10.4219 14.9026 10.4155C14.9237 10.3544 14.9466 10.2878 14.9625 10.2201C14.9752 10.1663 14.9418 10.1125 14.8881 10.0998Z" fill="#3FB47C"/>
<path fill-rule="evenodd" clip-rule="evenodd" d="M15.3267 10.4909C15.3012 10.4419 15.2408 10.4229 15.1918 10.4484C15.1766 10.4563 15.1594 10.4648 15.1407 10.474C15.0791 10.5045 15.0027 10.5422 14.9392 10.588C14.8524 10.6504 14.7685 10.7414 14.7536 10.8785C14.7476 10.9334 14.7873 10.9827 14.8422 10.9887C14.8971 10.9946 14.9465 10.955 14.9524 10.9001C14.9587 10.8421 14.9928 10.7958 15.0561 10.7503C15.1049 10.7151 15.1591 10.6882 15.2172 10.6595C15.239 10.6487 15.2613 10.6377 15.2841 10.6258C15.3331 10.6003 15.3522 10.5399 15.3267 10.4909Z" fill="#3FB47C"/>
<path fill-rule="evenodd" clip-rule="evenodd" d="M14.4569 10.4619C14.4517 10.4613 14.4469 10.4609 14.4426 10.4604C14.3877 10.4544 14.3383 10.4941 14.3324 10.549C14.3264 10.6039 14.3661 10.6533 14.421 10.6592C14.4269 10.6599 14.4328 10.6605 14.4386 10.6611C14.4739 10.6648 14.5071 10.6683 14.538 10.6767C14.5749 10.6868 14.5847 10.6982 14.5869 10.702C14.599 10.7234 14.6097 10.7468 14.6217 10.7742C14.623 10.7772 14.6244 10.7802 14.6257 10.7833C14.6363 10.8073 14.6483 10.8348 14.6621 10.8612C14.6875 10.9102 14.7479 10.9293 14.7969 10.9038C14.8459 10.8783 14.865 10.8179 14.8395 10.7689C14.829 10.7488 14.8198 10.7278 14.8089 10.703C14.8076 10.6999 14.8062 10.6968 14.8048 10.6937C14.7927 10.6661 14.7785 10.6345 14.7608 10.6033C14.7192 10.5298 14.6453 10.4988 14.5909 10.4838C14.5427 10.4706 14.4911 10.4654 14.4569 10.4619Z" fill="#3FB47C"/>
<path fill-rule="evenodd" clip-rule="evenodd" d="M15.3875 9.79563C15.427 9.757 15.4903 9.75767 15.529 9.79714C15.6228 9.89306 15.7619 10.0579 15.8781 10.245C15.9924 10.429 16.0946 10.6501 16.0946 10.8546C16.0946 10.9099 16.0498 10.9546 15.9946 10.9546C15.9393 10.9546 15.8946 10.9099 15.8946 10.8546C15.8946 10.7081 15.8177 10.5269 15.7082 10.3505C15.6007 10.1774 15.4712 10.024 15.386 9.93704C15.3474 9.89757 15.3481 9.83426 15.3875 9.79563Z" fill="#3FB47C"/>
<path fill-rule="evenodd" clip-rule="evenodd" d="M16.3371 9.97636C16.3629 10.0252 16.3442 10.0857 16.2954 10.1115C16.2784 10.1205 16.2364 10.1591 16.1921 10.2414C16.15 10.3197 16.1115 10.4272 16.0936 10.5582C16.0869 10.6071 16.0529 10.6339 16.0352 10.6447C16.0152 10.657 15.9938 10.6633 15.976 10.6663C15.958 10.6693 15.9361 10.6702 15.9138 10.6654C15.8943 10.6613 15.8549 10.6485 15.8313 10.6076C15.749 10.4646 15.5793 10.302 15.2727 10.302C15.2175 10.302 15.1727 10.2573 15.1727 10.202C15.1727 10.1468 15.2175 10.102 15.2727 10.102C15.5856 10.102 15.7949 10.2383 15.9227 10.3907C15.9466 10.2967 15.9794 10.2146 16.016 10.1466C16.0676 10.0508 16.1332 9.97103 16.2019 9.93469C16.2508 9.90888 16.3113 9.92754 16.3371 9.97636Z" fill="#3FB47C"/>
<path fill-rule="evenodd" clip-rule="evenodd" d="M16.7216 8.05579C16.7216 7.94534 16.8112 7.85579 16.9216 7.85579H20.3354C20.4459 7.85579 20.5354 7.94534 20.5354 8.05579C20.5354 8.16625 20.4459 8.25579 20.3354 8.25579H16.9216C16.8112 8.25579 16.7216 8.16625 16.7216 8.05579Z" fill="#F8D74C"/>
<path fill-rule="evenodd" clip-rule="evenodd" d="M19.1196 7.24829C19.4076 7.24828 19.7082 7.24826 19.9993 7.26983C20.1941 7.28426 20.3813 7.35666 20.5316 7.44258C20.6288 7.49809 20.6868 7.5902 20.6911 7.69804C20.6946 7.78694 20.6605 7.8645 20.6337 7.91421C20.6048 7.96786 20.5688 8.01681 20.5403 8.05348C20.5224 8.07649 20.5102 8.09147 20.5008 8.10309C20.4912 8.11479 20.4845 8.12308 20.4775 8.1327C20.4126 8.22203 20.2875 8.24178 20.1981 8.17681C20.1088 8.11184 20.0891 7.98676 20.154 7.89743C20.1649 7.88243 20.1781 7.86606 20.189 7.85251C20.1906 7.85048 20.1922 7.84847 20.1938 7.84646C20.2041 7.83371 20.2141 7.82125 20.2245 7.80796C20.2396 7.78851 20.2529 7.7703 20.264 7.75354C20.1679 7.70739 20.0656 7.67583 19.9698 7.66874C19.6936 7.64828 19.4058 7.64829 19.1131 7.64829C19.1082 7.64829 19.1032 7.64829 19.0983 7.64829C18.9878 7.64829 18.8983 7.55875 18.8983 7.44829C18.8983 7.33784 18.9878 7.24829 19.0983 7.24829C19.1054 7.24829 19.1125 7.24829 19.1196 7.24829Z" fill="#F8D74C"/>
<path fill-rule="evenodd" clip-rule="evenodd" d="M19.9631 7.98048C20.0054 7.87845 20.1224 7.83003 20.2244 7.87234C20.3461 7.92278 20.4636 7.9846 20.5732 8.04443C20.6022 8.06028 20.6305 8.07587 20.6581 8.09113C20.7378 8.13508 20.8127 8.1764 20.888 8.21406C20.9868 8.26346 21.0269 8.3836 20.9775 8.48239C20.9281 8.58119 20.8079 8.62123 20.7091 8.57183C20.6259 8.53021 20.5408 8.48325 20.4592 8.43823C20.4329 8.4237 20.4069 8.40937 20.3815 8.39549C20.2742 8.33691 20.1722 8.28369 20.0712 8.24183C19.9692 8.19953 19.9208 8.08251 19.9631 7.98048Z" fill="#F8D74C"/>
<path fill-rule="evenodd" clip-rule="evenodd" d="M19.0446 7.98493C19.0969 7.88765 19.2181 7.85118 19.3154 7.90348C19.4033 7.95072 19.4936 8.00456 19.5798 8.05596C19.6065 8.07189 19.6328 8.08758 19.6585 8.10278C19.7708 8.16905 19.8758 8.22819 19.9766 8.27263C20.0777 8.31719 20.1235 8.43525 20.079 8.53632C20.0344 8.63739 19.9163 8.6832 19.8153 8.63865C19.6914 8.58402 19.5692 8.51452 19.4552 8.44723C19.4258 8.42991 19.3972 8.41284 19.3691 8.39609C19.2848 8.3458 19.2053 8.29843 19.126 8.2558C19.0287 8.20349 18.9923 8.08222 19.0446 7.98493Z" fill="#F8D74C"/>
<path fill-rule="evenodd" clip-rule="evenodd" d="M16.5611 7.45867C16.6481 7.39067 16.7738 7.40611 16.8418 7.49315C16.928 7.60343 17.0212 7.69478 17.127 7.79847C17.1583 7.82919 17.1908 7.86099 17.2245 7.89469C17.3026 7.97279 17.3026 8.09943 17.2245 8.17753C17.1464 8.25564 17.0198 8.25564 16.9416 8.17753C16.9145 8.15043 16.8864 8.12288 16.8576 8.09471C16.7487 7.98809 16.6307 7.87268 16.5266 7.73941C16.4586 7.65236 16.4741 7.52668 16.5611 7.45867Z" fill="#F8D74C"/>
<path fill-rule="evenodd" clip-rule="evenodd" d="M17.0166 7.98204C17.058 8.08443 17.0086 8.20103 16.9062 8.24247C16.703 8.32472 16.4539 8.40402 16.2014 8.40402C16.091 8.40402 16.0014 8.31448 16.0014 8.20402C16.0014 8.09357 16.091 8.00402 16.2014 8.00402C16.3768 8.00402 16.5689 7.94748 16.7561 7.87169C16.8585 7.83025 16.9751 7.87966 17.0166 7.98204Z" fill="#F8D74C"/>
<path fill-rule="evenodd" clip-rule="evenodd" d="M16.9361 7.83603C17.0466 7.83603 17.1361 7.92557 17.1361 8.03603C17.1361 8.06703 17.1368 8.09789 17.1379 8.12889M16.9361 7.83603C16.8257 7.83603 16.7361 7.92557 16.7361 8.03603L16.9361 7.83603ZM16.7361 8.03603C16.7361 8.07084 16.7368 8.10581 16.7381 8.14066L16.7361 8.03603ZM16.7381 8.14066C16.7369 8.21147 16.7441 8.32517 16.7499 8.40072C16.7529 8.44073 16.756 8.47574 16.758 8.4943C16.7584 8.49769 16.7593 8.50586 16.7607 8.51384C16.761 8.51592 16.762 8.52142 16.7636 8.52821C16.7644 8.53136 16.7662 8.53836 16.7692 8.547C16.7691 8.54689 16.7692 8.54703 16.7692 8.547C16.7702 8.55002 16.7801 8.58012 16.8045 8.60945C16.8159 8.62318 16.858 8.67058 16.9337 8.67993C17.0248 8.69118 17.0858 8.64026 17.1108 8.61067C17.1336 8.58377 17.1434 8.55759 17.1465 8.54875C17.1508 8.5369 17.153 8.52708 17.1541 8.52171C17.1576 8.50471 17.1581 8.49046 17.1581 8.48872C17.1581 8.48875 17.1581 8.48865 17.1581 8.48872C17.1587 8.47451 17.1575 8.45514 17.1569 8.44532C17.1568 8.44463 17.1568 8.44398 17.1567 8.44339C17.1546 8.40967 17.1524 8.37689 17.1502 8.3448C17.1453 8.27237 17.1406 8.20344 17.1381 8.13522" fill="#F8D74C"/>
<path fill-rule="evenodd" clip-rule="evenodd" d="M17.0779 7.4163C17.0642 7.407 17.0488 7.39519 17.0278 7.37912C17.0218 7.37454 17.0154 7.36961 17.0084 7.36428C16.9792 7.34207 16.929 7.30382 16.876 7.28074C16.8483 7.26869 16.8031 7.25301 16.7485 7.25568C16.688 7.25865 16.6291 7.28376 16.5843 7.33117L16.5832 7.33224L16.5696 7.34462C16.5577 7.35521 16.5424 7.36844 16.5269 7.38106C16.5259 7.38184 16.525 7.38261 16.524 7.38336C16.4867 7.38559 16.4477 7.39114 16.4075 7.40148C16.3959 7.40449 16.3781 7.40923 16.3617 7.41563C16.3569 7.41748 16.349 7.42071 16.3399 7.42543C16.334 7.4285 16.3124 7.43965 16.2906 7.46091C16.2767 7.47453 16.1971 7.5588 16.244 7.67793C16.2633 7.7271 16.2965 7.75556 16.3164 7.76934C16.3367 7.7834 16.3552 7.79066 16.3654 7.79419C16.3884 7.80216 16.4098 7.80454 16.4208 7.80526C16.4413 7.81233 16.4632 7.81616 16.4861 7.81616C16.5599 7.81616 16.6342 7.82092 16.7161 7.82624L16.719 7.82642C16.7972 7.83151 16.8826 7.83705 16.9695 7.83715C16.9675 7.83717 16.9699 7.83735 16.9888 7.83866C17.0035 7.83968 17.0263 7.84112 17.0483 7.84108C17.059 7.84106 17.0743 7.84071 17.0906 7.83877C17.0903 7.83881 17.0909 7.83874 17.0906 7.83877C17.1 7.83769 17.1426 7.83281 17.184 7.80733C17.2086 7.79223 17.256 7.75553 17.2746 7.68642C17.2942 7.6139 17.2692 7.55487 17.2502 7.52458C17.2209 7.47784 17.1789 7.45382 17.169 7.44815C17.1686 7.44795 17.1683 7.44776 17.168 7.4476L17.1056 7.41159L17.0779 7.4163Z" fill="#F8D74C"/>
<path fill-rule="evenodd" clip-rule="evenodd" d="M22.1943 14.7761C21.8028 14.5804 21.2362 14.6409 20.9533 14.9946C20.7797 15.2116 20.5766 15.3945 20.3801 15.5715C20.3656 15.5846 20.3511 15.5976 20.3368 15.6105C20.1248 15.8018 19.9221 15.9898 19.7559 16.2184C19.7234 16.2631 19.6609 16.273 19.6162 16.2405C19.5715 16.208 19.5616 16.1454 19.5941 16.1008C19.7741 15.8533 19.9913 15.6529 20.2028 15.4621C20.2164 15.4497 20.23 15.4375 20.2436 15.4252C20.4427 15.2459 20.6341 15.0734 20.7971 14.8697C21.1522 14.4258 21.8283 14.3695 22.2837 14.5972C22.3331 14.6219 22.3531 14.682 22.3284 14.7314C22.3037 14.7808 22.2437 14.8008 22.1943 14.7761Z" fill="#962122"/>
<path d="M20.4356 15.7734C20.2696 15.9465 20.0322 15.9881 19.9051 15.8664C19.7781 15.7447 19.8097 15.5056 19.9756 15.3325C20.1415 15.1594 20.379 15.1177 20.506 15.2395C20.633 15.3612 20.6015 15.6002 20.4356 15.7734Z" fill="#3FB47C"/>
<path d="M21.325 15.1539C21.0496 15.3241 20.7294 15.3051 20.6098 15.1116C20.4903 14.9181 20.6166 14.6232 20.892 14.4531C21.1674 14.2829 21.4876 14.3019 21.6071 14.4954C21.7267 14.689 21.6004 14.9838 21.325 15.1539Z" fill="#F8D74C"/>
<path d="M20.9769 15.4975C20.7066 15.725 20.3519 15.7482 20.1846 15.5494C20.0173 15.3506 20.1007 15.0051 20.371 14.7776C20.6412 14.5501 20.996 14.5269 21.1633 14.7257C21.3306 14.9245 21.2472 15.27 20.9769 15.4975Z" fill="#3FB47C"/>
<path d="M15.1254 14.4811C15.191 14.4529 15.2783 14.4138 15.3197 14.4038C15.3252 14.4025 15.33 14.3993 15.3331 14.3946L15.3937 14.3025C15.4 14.2929 15.4131 14.2906 15.4223 14.2974L16.0101 14.731L17.1596 14.3589C17.1752 14.3539 17.1899 14.3688 17.1847 14.3844L16.8551 15.3545L17.058 15.5195C17.0677 15.5274 17.0678 15.5422 17.0583 15.5503L16.8624 15.7165C16.8578 15.7204 16.8517 15.722 16.8458 15.7209L16.8279 15.7176L17.2992 16.0342C17.3113 16.0424 17.311 16.0602 17.2986 16.0679L16.8026 16.3741C16.7917 16.3808 16.7773 16.3757 16.7732 16.3636L16.5307 15.6621L16.2476 15.6092C16.2454 15.6088 16.2433 15.608 16.2414 15.6069L15.6134 15.2499C15.6091 15.2475 15.6058 15.2435 15.6043 15.2387L15.4085 14.6318C15.4065 14.6256 15.4016 14.6207 15.3954 14.6188L15.1274 14.5362C15.1073 14.53 15.106 14.4894 15.1254 14.4811Z" fill="#E6E6E6"/>
<path fill-rule="evenodd" clip-rule="evenodd" d="M20.8425 10.2C20.8977 10.2 20.9425 10.2448 20.9425 10.3V11.6189C20.9425 11.6742 20.8977 11.7189 20.8425 11.7189C20.7872 11.7189 20.7425 11.6742 20.7425 11.6189V10.3C20.7425 10.2448 20.7872 10.2 20.8425 10.2Z" fill="#962122"/>
<path d="M20.9313 9.64492C20.9313 9.58969 20.8865 9.54492 20.8313 9.54492C20.7761 9.54492 20.7313 9.58969 20.7313 9.64492V10.0894C20.7211 10.072 20.7108 10.0548 20.7003 10.038C20.584 9.85082 20.445 9.68603 20.3511 9.59011C20.3125 9.55064 20.2492 9.54996 20.2097 9.5886C20.1703 9.62723 20.1696 9.69054 20.2082 9.73001C20.2934 9.81698 20.4229 9.97041 20.5304 10.1435C20.5704 10.208 20.6061 10.2731 20.6352 10.3369C20.5627 10.2836 20.4847 10.2364 20.408 10.1953C20.2137 10.0914 20.011 10.0182 19.8817 9.98204C19.8285 9.96718 19.7733 9.99825 19.7585 10.0514C19.7436 10.1046 19.7747 10.1598 19.8279 10.1747C19.9451 10.2074 20.134 10.2755 20.3136 10.3717C20.371 10.4024 20.4258 10.4351 20.4763 10.4695C20.4007 10.4632 20.3245 10.4622 20.2513 10.4646C20.0311 10.4717 19.8189 10.5097 19.6888 10.543C19.6353 10.5568 19.6031 10.6113 19.6168 10.6648C19.6305 10.7183 19.685 10.7505 19.7385 10.7368C19.8564 10.7065 20.0541 10.6711 20.2577 10.6645C20.4399 10.6586 20.6127 10.6765 20.738 10.7305C20.7511 10.7456 20.768 10.7561 20.7865 10.7613C20.8004 10.7669 20.8156 10.7694 20.8307 10.7684C20.8458 10.7694 20.861 10.7669 20.8749 10.7613C20.8934 10.7561 20.9104 10.7456 20.9234 10.7305C21.0487 10.6765 21.2215 10.6586 21.4037 10.6645C21.6073 10.6711 21.805 10.7065 21.9229 10.7368C21.9764 10.7505 22.0309 10.7183 22.0446 10.6648C22.0583 10.6113 22.0261 10.5568 21.9726 10.543C21.8425 10.5097 21.6303 10.4717 21.4101 10.4646C21.3369 10.4622 21.2607 10.4632 21.1851 10.4695C21.2356 10.4351 21.2904 10.4024 21.3478 10.3717C21.5275 10.2755 21.7163 10.2074 21.8336 10.1747C21.8867 10.1598 21.9178 10.1046 21.903 10.0514C21.8881 9.99825 21.8329 9.96718 21.7797 9.98204C21.6505 10.0182 21.4477 10.0914 21.2534 10.1953C21.1805 10.2344 21.1063 10.279 21.0369 10.3291C21.0653 10.2678 21.0997 10.2053 21.1381 10.1435C21.2456 9.97041 21.3752 9.81698 21.4603 9.73001C21.4989 9.69054 21.4983 9.62723 21.4588 9.5886C21.4193 9.54996 21.356 9.55064 21.3174 9.59011C21.2235 9.68603 21.0845 9.85082 20.9682 10.038C20.9557 10.0581 20.9434 10.0787 20.9313 10.0996V9.64492Z" fill="#3FB47C"/>
</g>
<defs>
<clipPath id="clip0_440_1606">
<rect width="13" height="11" fill="white"/>
</clipPath>
</defs>
</svg>
