<svg width="32" height="24" viewBox="0 0 32 24" fill="none" xmlns="http://www.w3.org/2000/svg">
<rect width="32" height="24" rx="2" fill="#64BEDB"/>
<g clip-path="url(#clip0_440_1608)">
<rect width="16" height="12" fill="#485CC2"/>
<path fill-rule="evenodd" clip-rule="evenodd" d="M16.75 1L0.75 13L-0.75 11L15.25 -1L16.75 1Z" fill="#F9F9F9"/>
<path fill-rule="evenodd" clip-rule="evenodd" d="M-0.75 1L15.25 13L16.75 11L0.75 -1L-0.75 1Z" fill="#F9F9F9"/>
<path fill-rule="evenodd" clip-rule="evenodd" d="M15.775 12.8L-0.225 0.8L0.225 0.2L16.225 12.2L15.775 12.8Z" fill="#D74B4B"/>
<path fill-rule="evenodd" clip-rule="evenodd" d="M-0.277853 12.8021L16.7221 0.302119L16.2779 -0.302119L-0.722147 12.1979L-0.277853 12.8021Z" fill="#D74B4B"/>
<path d="M9.5 1.31134e-07L9.5 12H6.5L6.5 0L9.5 1.31134e-07Z" fill="#F9F9F9"/>
<path d="M0 4.5H16V7.5H0V4.5Z" fill="#F9F9F9"/>
<path d="M0 5H16V7H0V5Z" fill="#D74B4B"/>
<path d="M9 8.74229e-08L9 12H7L7 0L9 8.74229e-08Z" fill="#D74B4B"/>
</g>
<path d="M19 7H28V14.0504C28 15.2359 27.3018 16.3103 26.2184 16.7918L23.5 18L20.7816 16.7918C19.6982 16.3103 19 15.2359 19 14.0504V7Z" fill="#F9F9F9"/>
<mask id="mask0_440_1608" style="mask-type:alpha" maskUnits="userSpaceOnUse" x="19" y="7" width="9" height="11">
<path d="M19 7H28V14.0504C28 15.2359 27.3018 16.3103 26.2184 16.7918L23.5 18L20.7816 16.7918C19.6982 16.3103 19 15.2359 19 14.0504V7Z" fill="#F9F9F9"/>
</mask>
<g mask="url(#mask0_440_1608)">
<path d="M19 7H28V9H19V7Z" fill="#D74B4B"/>
<path d="M24 7L24 18H23L23 7L24 7Z" fill="#D74B4B"/>
<path d="M28 13.5L19 13.5L19 12.5L28 12.5V13.5Z" fill="#D74B4B"/>
<path fill-rule="evenodd" clip-rule="evenodd" d="M20.9871 10.6814C21.0424 10.6814 21.0871 10.7262 21.0871 10.7814V11.3917C21.0871 11.4469 21.0424 11.4917 20.9871 11.4917C20.9319 11.4917 20.8871 11.4469 20.8871 11.3917V10.7814C20.8871 10.7262 20.9319 10.6814 20.9871 10.6814Z" fill="#962122"/>
<path fill-rule="evenodd" clip-rule="evenodd" d="M22.0916 10.9119C22.1347 10.9465 22.1415 11.0095 22.1069 11.0525L21.7764 11.4636C21.7418 11.5066 21.6789 11.5134 21.6358 11.4788C21.5928 11.4442 21.5859 11.3813 21.6206 11.3382L21.951 10.9272C21.9856 10.8842 22.0486 10.8773 22.0916 10.9119Z" fill="#962122"/>
<path d="M22.0911 10.0017C22.1449 9.98906 22.1987 10.0224 22.2114 10.0762C22.2249 10.1335 22.2445 10.1906 22.266 10.2533L22.2723 10.2716C22.2876 10.3163 22.3036 10.3638 22.3169 10.4131C22.3416 10.4003 22.3665 10.3917 22.3883 10.3857C22.4365 10.3725 22.4881 10.3672 22.5224 10.3637L22.5366 10.3623C22.5915 10.3563 22.6409 10.396 22.6468 10.4509C22.6528 10.5058 22.6131 10.5551 22.5582 10.5611L22.5406 10.563C22.5053 10.5667 22.4721 10.5701 22.4412 10.5786C22.4043 10.5887 22.3945 10.6 22.3923 10.6038C22.3802 10.6253 22.3695 10.6487 22.3575 10.6761L22.3535 10.6852C22.3429 10.7092 22.3309 10.7367 22.3172 10.7631C22.3079 10.7809 22.294 10.7947 22.2778 10.8039C22.2598 10.8329 22.2382 10.8676 22.2172 10.9005C22.194 10.9368 22.1698 10.9736 22.15 11.0005C22.1407 11.0132 22.1295 11.0277 22.1182 11.0391C22.1139 11.0435 22.1021 11.0553 22.0851 11.0639C22.0768 11.0681 22.0567 11.0771 22.03 11.0751C21.9966 11.0726 21.9683 11.0542 21.9517 11.0285C21.9218 10.982 21.9352 10.9201 21.9816 10.8902L21.9838 10.8889L21.9888 10.8822C22.0003 10.8666 22.0147 10.8452 22.0307 10.8207C22.0288 10.8147 22.0275 10.8084 22.0268 10.8019C22.0205 10.744 21.9864 10.6976 21.9232 10.6521C21.8743 10.6169 21.8201 10.5901 21.762 10.5614C21.7402 10.5506 21.7179 10.5395 21.6951 10.5277C21.6461 10.5022 21.627 10.4418 21.6525 10.3928C21.678 10.3438 21.7384 10.3247 21.7874 10.3502C21.8026 10.3581 21.8198 10.3667 21.8385 10.3759C21.9001 10.4063 21.9765 10.4441 22.04 10.4898C22.0794 10.5182 22.1182 10.5524 22.1503 10.5942C22.1481 10.5779 22.145 10.5623 22.1419 10.5468L22.1382 10.5279C22.1268 10.4667 22.1066 10.4048 22.0831 10.3365L22.0766 10.3174C22.0555 10.2563 22.0326 10.1896 22.0167 10.1219C22.004 10.0682 22.0374 10.0143 22.0911 10.0017Z" fill="#3FB47C"/>
<path fill-rule="evenodd" clip-rule="evenodd" d="M19.8286 10.9548C19.8676 10.9158 19.931 10.9158 19.97 10.9548L20.326 11.3108C20.3651 11.3499 20.3651 11.4132 20.326 11.4522C20.2869 11.4913 20.2236 11.4913 20.1846 11.4522L19.8286 11.0962C19.7895 11.0572 19.7895 10.9939 19.8286 10.9548Z" fill="#962122"/>
<path fill-rule="evenodd" clip-rule="evenodd" d="M19.8881 10.0998C19.8343 10.0872 19.7805 10.1205 19.7678 10.1743C19.7543 10.2316 19.7347 10.2887 19.7132 10.3515C19.7111 10.3575 19.709 10.3636 19.7069 10.3698C19.6836 10.4376 19.6588 10.5121 19.6444 10.5893C19.6439 10.5919 19.6431 10.5955 19.6423 10.5998C19.6385 10.6187 19.6319 10.6515 19.6288 10.6826C19.6268 10.7023 19.6257 10.7259 19.6282 10.7497C19.6305 10.772 19.637 10.8046 19.6584 10.8341C19.6583 10.8341 19.6582 10.8338 19.6584 10.8341L19.6594 10.8356L19.6621 10.8397L19.6706 10.8528L19.6954 10.8925C19.6975 10.8958 19.6995 10.8991 19.7016 10.9025C19.7197 10.9315 19.741 10.9658 19.762 10.9987C19.7852 11.035 19.8094 11.0717 19.8292 11.0987C19.8385 11.1114 19.8497 11.1259 19.861 11.1373C19.8653 11.1416 19.8771 11.1534 19.8941 11.162C19.9024 11.1662 19.9225 11.1752 19.9492 11.1732C19.9826 11.1707 20.0109 11.1524 20.0275 11.1266C20.0574 11.0802 20.044 11.0183 19.9976 10.9884C19.9969 10.9879 19.9961 10.9875 19.9954 10.9871C19.9939 10.9851 19.9922 10.9828 19.9904 10.9803C19.9747 10.959 19.9535 10.9269 19.9306 10.891C19.9102 10.8592 19.8895 10.8259 19.8715 10.7968C19.8693 10.7934 19.8673 10.7901 19.8652 10.7869C19.851 10.7639 19.8366 10.7409 19.8269 10.7262C19.8266 10.721 19.8267 10.7132 19.8278 10.7024C19.8298 10.6824 19.8335 10.6636 19.8373 10.6449C19.8385 10.6386 19.8398 10.6323 19.841 10.626C19.8524 10.5649 19.8726 10.503 19.8961 10.4346C19.8982 10.4283 19.9004 10.4219 19.9026 10.4155C19.9237 10.3544 19.9466 10.2878 19.9625 10.2201C19.9752 10.1663 19.9418 10.1125 19.8881 10.0998Z" fill="#3FB47C"/>
<path fill-rule="evenodd" clip-rule="evenodd" d="M20.3267 10.4909C20.3012 10.4419 20.2408 10.4229 20.1918 10.4484C20.1766 10.4563 20.1594 10.4648 20.1407 10.474C20.0791 10.5045 20.0027 10.5422 19.9392 10.588C19.8524 10.6504 19.7685 10.7414 19.7536 10.8785C19.7476 10.9334 19.7873 10.9827 19.8422 10.9887C19.8971 10.9946 19.9465 10.955 19.9524 10.9001C19.9587 10.8421 19.9928 10.7958 20.0561 10.7503C20.1049 10.7151 20.1591 10.6882 20.2172 10.6595C20.239 10.6487 20.2613 10.6377 20.2841 10.6258C20.3331 10.6003 20.3522 10.5399 20.3267 10.4909Z" fill="#3FB47C"/>
<path fill-rule="evenodd" clip-rule="evenodd" d="M19.4569 10.4619C19.4517 10.4613 19.4469 10.4609 19.4426 10.4604C19.3877 10.4544 19.3383 10.4941 19.3324 10.549C19.3264 10.6039 19.3661 10.6533 19.421 10.6592C19.4269 10.6599 19.4328 10.6605 19.4386 10.6611C19.4739 10.6648 19.5071 10.6683 19.538 10.6767C19.5749 10.6868 19.5847 10.6982 19.5869 10.702C19.599 10.7234 19.6097 10.7468 19.6217 10.7742C19.623 10.7772 19.6244 10.7802 19.6257 10.7833C19.6363 10.8073 19.6483 10.8348 19.6621 10.8612C19.6875 10.9102 19.7479 10.9293 19.7969 10.9038C19.8459 10.8783 19.865 10.8179 19.8395 10.7689C19.829 10.7488 19.8198 10.7278 19.8089 10.703C19.8076 10.6999 19.8062 10.6968 19.8048 10.6937C19.7927 10.6661 19.7785 10.6345 19.7608 10.6033C19.7192 10.5298 19.6453 10.4988 19.5909 10.4838C19.5427 10.4706 19.4911 10.4654 19.4569 10.4619Z" fill="#3FB47C"/>
<path fill-rule="evenodd" clip-rule="evenodd" d="M20.3875 9.79563C20.427 9.757 20.4903 9.75767 20.529 9.79714C20.6228 9.89306 20.7619 10.0579 20.8781 10.245C20.9924 10.429 21.0946 10.6501 21.0946 10.8546C21.0946 10.9099 21.0498 10.9546 20.9946 10.9546C20.9393 10.9546 20.8946 10.9099 20.8946 10.8546C20.8946 10.7081 20.8177 10.5269 20.7082 10.3505C20.6007 10.1774 20.4712 10.024 20.386 9.93704C20.3474 9.89757 20.3481 9.83426 20.3875 9.79563Z" fill="#3FB47C"/>
<path fill-rule="evenodd" clip-rule="evenodd" d="M21.3371 9.97636C21.3629 10.0252 21.3442 10.0857 21.2954 10.1115C21.2784 10.1205 21.2364 10.1591 21.1921 10.2414C21.15 10.3197 21.1115 10.4272 21.0936 10.5582C21.0869 10.6071 21.0529 10.6339 21.0352 10.6447C21.0152 10.657 20.9938 10.6633 20.976 10.6663C20.958 10.6693 20.9361 10.6702 20.9138 10.6654C20.8943 10.6613 20.8549 10.6485 20.8313 10.6076C20.749 10.4646 20.5793 10.302 20.2727 10.302C20.2175 10.302 20.1727 10.2573 20.1727 10.202C20.1727 10.1468 20.2175 10.102 20.2727 10.102C20.5856 10.102 20.7949 10.2383 20.9227 10.3907C20.9466 10.2967 20.9794 10.2146 21.016 10.1466C21.0676 10.0508 21.1332 9.97103 21.2019 9.93469C21.2508 9.90888 21.3113 9.92754 21.3371 9.97636Z" fill="#3FB47C"/>
<path fill-rule="evenodd" clip-rule="evenodd" d="M21.7216 8.05579C21.7216 7.94534 21.8112 7.85579 21.9216 7.85579H25.3354C25.4459 7.85579 25.5354 7.94534 25.5354 8.05579C25.5354 8.16625 25.4459 8.25579 25.3354 8.25579H21.9216C21.8112 8.25579 21.7216 8.16625 21.7216 8.05579Z" fill="#F8D74C"/>
<path fill-rule="evenodd" clip-rule="evenodd" d="M24.1196 7.24829C24.4076 7.24828 24.7082 7.24826 24.9993 7.26983C25.1941 7.28426 25.3813 7.35666 25.5316 7.44258C25.6288 7.49809 25.6867 7.5902 25.6911 7.69804C25.6946 7.78694 25.6605 7.8645 25.6337 7.91421C25.6048 7.96786 25.5688 8.01681 25.5402 8.05348C25.5224 8.07649 25.5102 8.09147 25.5007 8.10309C25.4912 8.11479 25.4845 8.12308 25.4775 8.1327C25.4125 8.22203 25.2875 8.24178 25.1981 8.17681C25.1088 8.11184 25.0891 7.98676 25.154 7.89743C25.1649 7.88243 25.1781 7.86606 25.189 7.85251C25.1906 7.85048 25.1922 7.84847 25.1938 7.84646C25.2041 7.83371 25.2141 7.82125 25.2245 7.80796C25.2396 7.78851 25.2529 7.7703 25.264 7.75354C25.1679 7.70739 25.0656 7.67583 24.9698 7.66874C24.6936 7.64828 24.4058 7.64829 24.1131 7.64829C24.1081 7.64829 24.1032 7.64829 24.0983 7.64829C23.9878 7.64829 23.8983 7.55875 23.8983 7.44829C23.8983 7.33784 23.9878 7.24829 24.0983 7.24829C24.1054 7.24829 24.1125 7.24829 24.1196 7.24829Z" fill="#F8D74C"/>
<path fill-rule="evenodd" clip-rule="evenodd" d="M24.9631 7.98048C25.0054 7.87845 25.1224 7.83003 25.2244 7.87234C25.3461 7.92278 25.4636 7.9846 25.5732 8.04443C25.6022 8.06028 25.6305 8.07587 25.6581 8.09113C25.7378 8.13508 25.8127 8.1764 25.888 8.21406C25.9868 8.26346 26.0268 8.3836 25.9774 8.48239C25.9281 8.58119 25.8079 8.62123 25.7091 8.57183C25.6259 8.53021 25.5408 8.48325 25.4592 8.43823C25.4329 8.4237 25.4069 8.40937 25.3815 8.39549C25.2742 8.33691 25.1722 8.28369 25.0712 8.24183C24.9692 8.19953 24.9208 8.08251 24.9631 7.98048Z" fill="#F8D74C"/>
<path fill-rule="evenodd" clip-rule="evenodd" d="M24.0446 7.98493C24.0969 7.88765 24.2181 7.85118 24.3154 7.90348C24.4033 7.95072 24.4936 8.00456 24.5798 8.05596C24.6065 8.07189 24.6328 8.08758 24.6585 8.10278C24.7708 8.16905 24.8758 8.22819 24.9766 8.27263C25.0777 8.31719 25.1235 8.43525 25.0789 8.53632C25.0344 8.63739 24.9163 8.6832 24.8153 8.63865C24.6914 8.58402 24.5692 8.51452 24.4552 8.44723C24.4258 8.42991 24.3972 8.41284 24.3691 8.39609C24.2848 8.3458 24.2053 8.29843 24.126 8.2558C24.0287 8.20349 23.9923 8.08222 24.0446 7.98493Z" fill="#F8D74C"/>
<path fill-rule="evenodd" clip-rule="evenodd" d="M21.5611 7.45867C21.6481 7.39067 21.7738 7.40611 21.8418 7.49315C21.928 7.60343 22.0212 7.69478 22.127 7.79847C22.1583 7.82919 22.1908 7.86099 22.2245 7.89469C22.3026 7.97279 22.3026 8.09943 22.2245 8.17753C22.1464 8.25564 22.0197 8.25564 21.9416 8.17753C21.9145 8.15043 21.8864 8.12288 21.8576 8.09471C21.7487 7.98809 21.6307 7.87268 21.5266 7.73941C21.4586 7.65236 21.474 7.52668 21.5611 7.45867Z" fill="#F8D74C"/>
<path fill-rule="evenodd" clip-rule="evenodd" d="M22.0166 7.98204C22.058 8.08443 22.0086 8.20103 21.9062 8.24247C21.703 8.32472 21.4539 8.40402 21.2014 8.40402C21.091 8.40402 21.0014 8.31448 21.0014 8.20402C21.0014 8.09357 21.091 8.00402 21.2014 8.00402C21.3767 8.00402 21.5689 7.94748 21.7561 7.87169C21.8585 7.83025 21.9751 7.87966 22.0166 7.98204Z" fill="#F8D74C"/>
<path fill-rule="evenodd" clip-rule="evenodd" d="M21.9361 7.83603C22.0466 7.83603 22.1361 7.92557 22.1361 8.03603C22.1361 8.06703 22.1368 8.09789 22.1378 8.12889M21.9361 7.83603C21.8257 7.83603 21.7361 7.92557 21.7361 8.03603L21.9361 7.83603ZM21.7361 8.03603C21.7361 8.07084 21.7368 8.10581 21.7381 8.14066L21.7361 8.03603ZM21.7381 8.14066C21.7369 8.21147 21.7441 8.32517 21.7499 8.40072C21.7529 8.44073 21.756 8.47574 21.758 8.4943C21.7584 8.49769 21.7593 8.50586 21.7607 8.51384C21.761 8.51592 21.762 8.52142 21.7636 8.52821C21.7644 8.53136 21.7662 8.53836 21.7692 8.547C21.7691 8.54689 21.7692 8.54703 21.7692 8.547C21.7702 8.55002 21.78 8.58012 21.8045 8.60945C21.8159 8.62318 21.858 8.67058 21.9336 8.67993C22.0248 8.69118 22.0858 8.64026 22.1108 8.61067C22.1336 8.58377 22.1434 8.55759 22.1465 8.54875C22.1508 8.5369 22.153 8.52708 22.1541 8.52171C22.1576 8.50471 22.1581 8.49046 22.1581 8.48872C22.1581 8.48875 22.1581 8.48865 22.1581 8.48872C22.1587 8.47451 22.1575 8.45514 22.1568 8.44532C22.1568 8.44463 22.1568 8.44398 22.1567 8.44339C22.1546 8.40967 22.1524 8.37689 22.1502 8.3448C22.1453 8.27237 22.1406 8.20344 22.1381 8.13522" fill="#F8D74C"/>
<path fill-rule="evenodd" clip-rule="evenodd" d="M22.0779 7.4163C22.0642 7.407 22.0488 7.39519 22.0278 7.37912C22.0218 7.37454 22.0154 7.36961 22.0084 7.36428C21.9792 7.34207 21.929 7.30382 21.876 7.28074C21.8483 7.26869 21.8031 7.25301 21.7485 7.25568C21.688 7.25865 21.6291 7.28376 21.5843 7.33117L21.5832 7.33224L21.5696 7.34462C21.5577 7.35521 21.5424 7.36844 21.5269 7.38106C21.5259 7.38184 21.5249 7.38261 21.524 7.38336C21.4866 7.38559 21.4477 7.39114 21.4075 7.40148C21.3959 7.40449 21.3781 7.40923 21.3616 7.41563C21.3569 7.41748 21.349 7.42071 21.3399 7.42543C21.334 7.4285 21.3124 7.43965 21.2906 7.46091C21.2767 7.47453 21.1971 7.5588 21.244 7.67793C21.2633 7.7271 21.2965 7.75556 21.3164 7.76934C21.3367 7.7834 21.3552 7.79066 21.3654 7.79419C21.3884 7.80216 21.4098 7.80454 21.4208 7.80526C21.4413 7.81233 21.4632 7.81616 21.4861 7.81616C21.5599 7.81616 21.6342 7.82092 21.7161 7.82624L21.719 7.82642C21.7972 7.83151 21.8826 7.83705 21.9695 7.83715C21.9675 7.83717 21.9699 7.83735 21.9888 7.83866C22.0035 7.83968 22.0263 7.84112 22.0483 7.84108C22.059 7.84106 22.0743 7.84071 22.0906 7.83877C22.0903 7.83881 22.0909 7.83874 22.0906 7.83877C22.1 7.83769 22.1426 7.83281 22.184 7.80733C22.2086 7.79223 22.256 7.75553 22.2746 7.68642C22.2942 7.6139 22.2692 7.55487 22.2502 7.52458C22.2209 7.47784 22.1789 7.45382 22.169 7.44815C22.1686 7.44795 22.1683 7.44776 22.168 7.4476L22.1056 7.41159L22.0779 7.4163Z" fill="#F8D74C"/>
<path fill-rule="evenodd" clip-rule="evenodd" d="M27.1943 14.7761C26.8028 14.5804 26.2362 14.6409 25.9533 14.9946C25.7797 15.2116 25.5766 15.3945 25.3801 15.5715C25.3656 15.5846 25.3511 15.5976 25.3368 15.6105C25.1248 15.8018 24.9221 15.9898 24.7559 16.2184C24.7234 16.2631 24.6609 16.273 24.6162 16.2405C24.5715 16.208 24.5616 16.1454 24.5941 16.1008C24.7741 15.8533 24.9913 15.6529 25.2028 15.4621C25.2164 15.4497 25.23 15.4375 25.2436 15.4252C25.4427 15.2459 25.6341 15.0734 25.7971 14.8697C26.1522 14.4258 26.8283 14.3695 27.2837 14.5972C27.3331 14.6219 27.3531 14.682 27.3284 14.7314C27.3037 14.7808 27.2437 14.8008 27.1943 14.7761Z" fill="#962122"/>
<path d="M25.4356 15.7734C25.2696 15.9465 25.0322 15.9881 24.9051 15.8664C24.7781 15.7447 24.8097 15.5056 24.9756 15.3325C25.1415 15.1594 25.379 15.1177 25.506 15.2395C25.633 15.3612 25.6015 15.6002 25.4356 15.7734Z" fill="#3FB47C"/>
<path d="M26.325 15.1539C26.0496 15.3241 25.7294 15.3051 25.6098 15.1116C25.4903 14.9181 25.6166 14.6232 25.892 14.4531C26.1674 14.2829 26.4876 14.3019 26.6071 14.4954C26.7267 14.689 26.6004 14.9838 26.325 15.1539Z" fill="#F8D74C"/>
<path d="M25.9769 15.4975C25.7066 15.725 25.3519 15.7482 25.1846 15.5494C25.0173 15.3506 25.1007 15.0051 25.371 14.7776C25.6412 14.5501 25.996 14.5269 26.1633 14.7257C26.3306 14.9245 26.2472 15.27 25.9769 15.4975Z" fill="#3FB47C"/>
<path d="M20.1254 14.4811C20.191 14.4529 20.2783 14.4138 20.3197 14.4038C20.3252 14.4025 20.33 14.3993 20.3331 14.3946L20.3937 14.3025C20.4 14.2929 20.4131 14.2906 20.4223 14.2974L21.01 14.731L22.1595 14.3589C22.1752 14.3539 22.1899 14.3688 22.1846 14.3844L21.8551 15.3545L22.058 15.5195C22.0677 15.5274 22.0678 15.5422 22.0583 15.5503L21.8624 15.7165C21.8578 15.7204 21.8517 15.722 21.8458 15.7209L21.8279 15.7176L22.2992 16.0342C22.3113 16.0424 22.311 16.0602 22.2986 16.0679L21.8026 16.3741C21.7917 16.3808 21.7773 16.3757 21.7731 16.3636L21.5307 15.6621L21.2476 15.6092C21.2454 15.6088 21.2433 15.608 21.2414 15.6069L20.6134 15.2499C20.6091 15.2475 20.6058 15.2435 20.6043 15.2387L20.4085 14.6318C20.4065 14.6256 20.4016 14.6207 20.3953 14.6188L20.1274 14.5362C20.1073 14.53 20.106 14.4894 20.1254 14.4811Z" fill="#E6E6E6"/>
<path fill-rule="evenodd" clip-rule="evenodd" d="M25.8425 10.2C25.8977 10.2 25.9425 10.2448 25.9425 10.3V11.6189C25.9425 11.6742 25.8977 11.7189 25.8425 11.7189C25.7872 11.7189 25.7425 11.6742 25.7425 11.6189V10.3C25.7425 10.2448 25.7872 10.2 25.8425 10.2Z" fill="#962122"/>
<path d="M25.9313 9.64492C25.9313 9.58969 25.8865 9.54492 25.8313 9.54492C25.7761 9.54492 25.7313 9.58969 25.7313 9.64492V10.0894C25.7211 10.072 25.7108 10.0548 25.7003 10.038C25.584 9.85082 25.445 9.68603 25.3511 9.59011C25.3125 9.55064 25.2492 9.54996 25.2097 9.5886C25.1703 9.62723 25.1696 9.69054 25.2082 9.73001C25.2934 9.81698 25.4229 9.97041 25.5304 10.1435C25.5704 10.208 25.6061 10.2731 25.6352 10.3369C25.5627 10.2836 25.4847 10.2364 25.408 10.1953C25.2137 10.0914 25.011 10.0182 24.8817 9.98204C24.8285 9.96718 24.7733 9.99825 24.7585 10.0514C24.7436 10.1046 24.7747 10.1598 24.8279 10.1747C24.9451 10.2074 25.134 10.2755 25.3136 10.3717C25.371 10.4024 25.4258 10.4351 25.4763 10.4695C25.4007 10.4632 25.3245 10.4622 25.2513 10.4646C25.0311 10.4717 24.8189 10.5097 24.6888 10.543C24.6353 10.5568 24.6031 10.6113 24.6168 10.6648C24.6305 10.7183 24.685 10.7505 24.7385 10.7368C24.8564 10.7065 25.0541 10.6711 25.2577 10.6645C25.4399 10.6586 25.6127 10.6765 25.738 10.7305C25.7511 10.7456 25.768 10.7561 25.7865 10.7613C25.8004 10.7669 25.8156 10.7694 25.8307 10.7684C25.8458 10.7694 25.861 10.7669 25.8749 10.7613C25.8934 10.7561 25.9104 10.7456 25.9234 10.7305C26.0487 10.6765 26.2215 10.6586 26.4037 10.6645C26.6073 10.6711 26.805 10.7065 26.9229 10.7368C26.9764 10.7505 27.0309 10.7183 27.0446 10.6648C27.0583 10.6113 27.0261 10.5568 26.9726 10.543C26.8425 10.5097 26.6303 10.4717 26.4101 10.4646C26.3369 10.4622 26.2607 10.4632 26.1851 10.4695C26.2356 10.4351 26.2904 10.4024 26.3478 10.3717C26.5275 10.2755 26.7163 10.2074 26.8336 10.1747C26.8867 10.1598 26.9178 10.1046 26.903 10.0514C26.8881 9.99825 26.8329 9.96718 26.7797 9.98204C26.6505 10.0182 26.4477 10.0914 26.2534 10.1953C26.1805 10.2344 26.1063 10.279 26.0369 10.3291C26.0653 10.2678 26.0997 10.2053 26.1381 10.1435C26.2456 9.97041 26.3752 9.81698 26.4603 9.73001C26.4989 9.69054 26.4983 9.62723 26.4588 9.5886C26.4193 9.54996 26.356 9.55064 26.3174 9.59011C26.2235 9.68603 26.0845 9.85082 25.9682 10.038C25.9557 10.0581 25.9434 10.0787 25.9313 10.0996V9.64492Z" fill="#3FB47C"/>
</g>
<defs>
<clipPath id="clip0_440_1608">
<rect width="16" height="12" fill="white"/>
</clipPath>
</defs>
</svg>
