<svg width="32" height="24" viewBox="0 0 32 24" fill="none" xmlns="http://www.w3.org/2000/svg">
<g clip-path="url(#clip0_440_1605)">
<rect width="32" height="24" rx="2" fill="#F9F9F9"/>
<path d="M0 16H32V24H0V16Z" fill="#D74B4B"/>
<path d="M0 0H32V8H0V0Z" fill="#D74B4B"/>
<mask id="mask0_440_1605" style="mask-type:alpha" maskUnits="userSpaceOnUse" x="12" y="8" width="8" height="8">
<path d="M20 12C20 14.2091 18.2091 16 16 16C13.7909 16 12 14.2091 12 12C12 9.79086 13.7909 8 16 8C18.2091 8 20 9.79086 20 12Z" fill="#333333"/>
</mask>
<g mask="url(#mask0_440_1605)">
<path fill-rule="evenodd" clip-rule="evenodd" d="M13.3865 13.9171C12.9589 13.7159 12.4638 13.7159 12.0362 13.9171L11.2119 14.305L10.9139 13.6716L11.7381 13.2837C12.3545 12.9936 13.0682 12.9936 13.6846 13.2837C14.1122 13.485 14.6074 13.485 15.035 13.2837C15.6514 12.9936 16.3651 12.9936 16.9815 13.2837C17.4091 13.485 17.9043 13.485 18.3319 13.2837C18.9483 12.9936 19.662 12.9936 20.2784 13.2837L21.1026 13.6716L20.8046 14.305L19.9803 13.9171C19.5527 13.7159 19.0576 13.7159 18.63 13.9171C18.0135 14.2072 17.2999 14.2072 16.6834 13.9171C16.2558 13.7159 15.7607 13.7159 15.3331 13.9171C14.7166 14.2072 14.003 14.2072 13.3865 13.9171Z" fill="#485CC2"/>
<path fill-rule="evenodd" clip-rule="evenodd" d="M13.3865 15.0937C12.9589 14.8925 12.4638 14.8925 12.0362 15.0937L11.2119 15.4816L10.9139 14.8482L11.7381 14.4604C12.3545 14.1703 13.0682 14.1703 13.6846 14.4604C14.1122 14.6616 14.6074 14.6616 15.035 14.4604C15.6514 14.1703 16.3651 14.1703 16.9815 14.4604C17.4091 14.6616 17.9043 14.6616 18.3319 14.4604C18.9483 14.1703 19.662 14.1703 20.2784 14.4604L21.1026 14.8482L20.8046 15.4816L19.9803 15.0937C19.5527 14.8925 19.0576 14.8925 18.63 15.0937C18.0135 15.3838 17.2999 15.3838 16.6834 15.0937C16.2558 14.8925 15.7607 14.8925 15.3331 15.0937C14.7166 15.3838 14.003 15.3838 13.3865 15.0937Z" fill="#485CC2"/>
<path fill-rule="evenodd" clip-rule="evenodd" d="M13.3865 16.3168C12.9589 16.1156 12.4638 16.1156 12.0362 16.3168L11.2119 16.7047L10.9139 16.0713L11.7381 15.6835C12.3545 15.3934 13.0682 15.3934 13.6846 15.6835C14.1122 15.8847 14.6074 15.8847 15.035 15.6835C15.6514 15.3934 16.3651 15.3934 16.9815 15.6835C17.4091 15.8847 17.9043 15.8847 18.3319 15.6835C18.9483 15.3934 19.662 15.3934 20.2784 15.6835L21.1026 16.0713L20.8046 16.7047L19.9803 16.3168C19.5527 16.1156 19.0576 16.1156 18.63 16.3168C18.0135 16.6069 17.2999 16.6069 16.6834 16.3168C16.2558 16.1156 15.7607 16.1156 15.3331 16.3168C14.7166 16.6069 14.003 16.6069 13.3865 16.3168Z" fill="#485CC2"/>
<path fill-rule="evenodd" clip-rule="evenodd" d="M15.2363 11.1808V8.79033C15.2234 8.52689 15.3635 8 16.0266 8H16.7013V8.13104C16.6746 8.12777 16.6473 8.12609 16.6196 8.12609C16.2512 8.12609 15.9526 8.42474 15.9526 8.79315C15.9526 9.16156 16.2512 9.46022 16.6196 9.46022C16.6473 9.46022 16.6746 9.45853 16.7013 9.45526V11.5855L15.2363 11.1808Z" fill="#962122"/>
<path d="M13.6305 13.1471V9.84076L14.1432 9.84071V12.8581C14.1432 13.5402 14.8897 13.413 15.0978 13.413C15.2643 13.413 15.4909 13.1818 15.5834 13.0662C15.5564 13.413 15.3267 14.1067 14.6238 14.1067C13.9209 14.1067 13.6575 13.467 13.6305 13.1471Z" fill="#962122"/>
<path d="M18.3188 13.1471V9.84076L17.8061 9.84071V12.8581C17.8061 13.5402 17.0596 13.413 16.8515 13.413C16.685 13.413 16.4584 13.1818 16.3659 13.0662C16.3929 13.413 16.6226 14.1067 17.3255 14.1067C18.0284 14.1067 18.2918 13.467 18.3188 13.1471Z" fill="#962122"/>
<path fill-rule="evenodd" clip-rule="evenodd" d="M17.1855 12.0242V11.8165C17.1855 11.7846 17.2114 11.7587 17.2434 11.7587C17.2753 11.7587 17.3012 11.7846 17.3012 11.8165V12.0242L17.4479 11.8775C17.4705 11.8549 17.5072 11.8549 17.5298 11.8775C17.5524 11.9001 17.5524 11.9367 17.5298 11.9593L17.3252 12.1639L17.5298 12.3685C17.5524 12.3911 17.5524 12.4277 17.5298 12.4503C17.5072 12.4729 17.4705 12.4729 17.4479 12.4503L17.2433 12.2457L17.0388 12.4503C17.0162 12.4729 16.9795 12.4729 16.9569 12.4503C16.9343 12.4277 16.9343 12.391 16.9569 12.3685L17.1615 12.1639L16.9569 11.9593C16.9344 11.9367 16.9344 11.9001 16.9569 11.8775C16.9795 11.8549 17.0162 11.8549 17.0388 11.8775L17.1855 12.0242Z" fill="#962122"/>
<path fill-rule="evenodd" clip-rule="evenodd" d="M16.6526 12.0242L16.7993 11.8775C16.8219 11.8549 16.8586 11.8549 16.8811 11.8775C16.9037 11.9001 16.9037 11.9367 16.8811 11.9593L16.6766 12.1639L16.8812 12.3685C16.9037 12.3911 16.9037 12.4277 16.8812 12.4503C16.8586 12.4729 16.8219 12.4729 16.7993 12.4503L16.5947 12.2457L16.3902 12.4503C16.3676 12.4729 16.3309 12.4729 16.3083 12.4503C16.2857 12.4277 16.2857 12.391 16.3083 12.3685L16.5129 12.1639L16.3083 11.9593C16.2857 11.9367 16.2857 11.9001 16.3083 11.8775C16.3309 11.8549 16.3676 11.8549 16.3902 11.8775L16.5369 12.0242V11.8165C16.5369 11.7846 16.5628 11.7587 16.5947 11.7587C16.6267 11.7587 16.6526 11.7846 16.6526 11.8165V12.0242Z" fill="#962122"/>
<path fill-rule="evenodd" clip-rule="evenodd" d="M15.9953 12.0242L16.142 11.8775C16.1646 11.8549 16.2012 11.8549 16.2238 11.8775C16.2464 11.9001 16.2464 11.9367 16.2238 11.9593L16.0192 12.1639L16.2238 12.3685C16.2464 12.3911 16.2464 12.4277 16.2238 12.4503C16.2012 12.4729 16.1646 12.4729 16.142 12.4503L15.9374 12.2457L15.7328 12.4503C15.7102 12.4729 15.6736 12.4729 15.651 12.4503C15.6284 12.4277 15.6284 12.391 15.651 12.3685L15.8556 12.1639L15.651 11.9593C15.6284 11.9367 15.6284 11.9001 15.651 11.8775C15.6736 11.8549 15.7102 11.8549 15.7328 11.8775L15.8795 12.0242V11.8165C15.8795 11.7846 15.9054 11.7587 15.9374 11.7587C15.9694 11.7587 15.9953 11.7846 15.9953 11.8165V12.0242Z" fill="#962122"/>
<path fill-rule="evenodd" clip-rule="evenodd" d="M15.3379 12.0242L15.4846 11.8775C15.5072 11.8549 15.5439 11.8549 15.5664 11.8775C15.589 11.9001 15.589 11.9367 15.5664 11.9593L15.3619 12.1639L15.5665 12.3685C15.589 12.3911 15.589 12.4277 15.5665 12.4503C15.5439 12.4729 15.5072 12.4729 15.4846 12.4503L15.28 12.2457L15.0755 12.4503C15.0529 12.4729 15.0162 12.4729 14.9936 12.4503C14.971 12.4277 14.971 12.391 14.9936 12.3685L15.1982 12.1639L14.9936 11.9593C14.971 11.9367 14.971 11.9001 14.9936 11.8775C15.0162 11.8549 15.0529 11.8549 15.0755 11.8775L15.2222 12.0242V11.8165C15.2222 11.7846 15.2481 11.7587 15.2801 11.7587C15.312 11.7587 15.3379 11.7846 15.3379 11.8165V12.0242Z" fill="#962122"/>
<path fill-rule="evenodd" clip-rule="evenodd" d="M14.5736 12.0242V11.8165C14.5736 11.7846 14.5995 11.7587 14.6315 11.7587C14.6634 11.7587 14.6893 11.7846 14.6893 11.8165V12.0242L14.836 11.8775C14.8586 11.8549 14.8953 11.8549 14.9179 11.8775C14.9405 11.9001 14.9405 11.9367 14.9179 11.9593L14.7133 12.1639L14.9179 12.3685C14.9405 12.3911 14.9405 12.4277 14.9179 12.4503C14.8953 12.4729 14.8586 12.4729 14.836 12.4503L14.6314 12.2457L14.4269 12.4503C14.4043 12.4729 14.3676 12.4729 14.345 12.4503C14.3225 12.4277 14.3225 12.391 14.345 12.3685L14.5496 12.1639L14.3451 11.9593C14.3225 11.9367 14.3225 11.9001 14.3451 11.8775C14.3676 11.8549 14.4043 11.8549 14.4269 11.8775L14.5736 12.0242Z" fill="#962122"/>
<path d="M14.2452 12.6817C14.2452 12.6495 14.2713 12.6235 14.3034 12.6235H17.6017C17.6339 12.6235 17.6599 12.6495 17.6599 12.6817C17.6599 12.7138 17.6339 12.7398 17.6017 12.7398H14.3034C14.2713 12.7398 14.2452 12.7138 14.2452 12.6817Z" fill="#962122"/>
<path d="M15.1823 13.2125H14.5229L14.9628 12.8142H15.5749C15.5662 12.8204 15.534 12.8594 15.4754 12.9659C15.4168 13.0725 15.2556 13.1747 15.1823 13.2125Z" fill="#962122"/>
<path d="M16.7081 13.2125H17.3675L16.9276 12.8142H16.3155C16.3242 12.8204 16.3564 12.8594 16.415 12.9659C16.4736 13.0725 16.6348 13.1747 16.7081 13.2125Z" fill="#962122"/>
<path fill-rule="evenodd" clip-rule="evenodd" d="M20 12.008C20 12.2646 19.9758 12.5156 19.9297 12.7588H18.4551V11.8827L19.9935 11.7783C19.9978 11.8543 20 11.9309 20 12.008ZM19.7153 10.523C19.839 10.8323 19.9253 11.1607 19.9684 11.5025L18.4551 11.6926V11.0773L19.7153 10.523ZM19.0225 9.38789C19.2419 9.64084 19.4302 9.92161 19.5812 10.2242C19.3968 10.3302 18.8014 10.6715 18.4551 10.8572V9.95995L19.057 9.47159L19.0225 9.38789ZM18.1003 8.60315C18.3786 8.77521 18.6343 8.98044 18.8618 9.21334L18.3067 9.6977H17.6364V10.3951L16.921 11.0773V10.3951L18.1003 8.60315ZM16.921 8.11458C17.2531 8.19284 17.5692 8.31248 17.8636 8.46777L16.921 10.1231V9.2665H16.5809L16.921 8.11792V8.11458ZM14.9835 8.13833C14.6822 8.21726 14.3947 8.33047 14.1255 8.47352L14.9835 10.1103V8.13833ZM14.9835 10.4215V11.0586L14.3183 10.4389V9.67176H13.6147L13.1109 9.24158C13.3287 9.01417 13.5731 8.81243 13.8391 8.64134L14.9835 10.4215ZM12.8968 9.48386L13.4481 9.94631V10.8165L12.3775 10.3096C12.517 10.0126 12.6919 9.73551 12.8968 9.48386ZM12.2624 10.58L13.4481 11.0165V11.6534L12.0269 11.5417C12.0658 11.2068 12.146 10.8845 12.2624 10.58ZM12.004 11.8278H13.4329V12.7231H12.0637C12.0219 12.4911 12 12.2521 12 12.008C12 11.9476 12.0013 11.8876 12.004 11.8278ZM14.9835 11.2488L14.3183 10.6908V11.2352L14.9835 11.5447V11.2488ZM14.9835 11.6492L14.3183 11.3685V11.6277L14.9835 11.6709V11.6492Z" fill="#E77D42"/>
</g>
</g>
<defs>
<clipPath id="clip0_440_1605">
<rect width="32" height="24" rx="2" fill="white"/>
</clipPath>
</defs>
</svg>
