<svg width="24" height="24" viewBox="0 0 24 24" fill="none" xmlns="http://www.w3.org/2000/svg">
<g clip-path="url(#clip0_440_1623)">
<rect width="24" height="24" rx="2" fill="#F9F9F9"/>
<path d="M0 16H24V24H0V16Z" fill="#D74B4B"/>
<path d="M0 0H24V8H0V0Z" fill="#D74B4B"/>
<mask id="mask0_440_1623" style="mask-type:alpha" maskUnits="userSpaceOnUse" x="8" y="8" width="8" height="8">
<path d="M16 12C16 14.2091 14.2091 16 12 16C9.79086 16 8 14.2091 8 12C8 9.79086 9.79086 8 12 8C14.2091 8 16 9.79086 16 12Z" fill="#333333"/>
</mask>
<g mask="url(#mask0_440_1623)">
<path fill-rule="evenodd" clip-rule="evenodd" d="M9.38655 13.9171C8.95891 13.7159 8.46379 13.7159 8.03615 13.9171L7.21193 14.305L6.91387 13.6716L7.7381 13.2837C8.35451 12.9936 9.06819 12.9936 9.6846 13.2837C10.1122 13.485 10.6074 13.485 11.035 13.2837C11.6514 12.9936 12.3651 12.9936 12.9815 13.2837C13.4091 13.485 13.9043 13.485 14.3319 13.2837C14.9483 12.9936 15.662 12.9936 16.2784 13.2837L17.1026 13.6716L16.8046 14.305L15.9803 13.9171C15.5527 13.7159 15.0576 13.7159 14.63 13.9171C14.0135 14.2072 13.2999 14.2072 12.6834 13.9171C12.2558 13.7159 11.7607 13.7159 11.3331 13.9171C10.7166 14.2072 10.003 14.2072 9.38655 13.9171Z" fill="#485CC2"/>
<path fill-rule="evenodd" clip-rule="evenodd" d="M9.38655 15.0937C8.95891 14.8925 8.46379 14.8925 8.03615 15.0937L7.21193 15.4816L6.91387 14.8482L7.7381 14.4604C8.35451 14.1703 9.06819 14.1703 9.6846 14.4604C10.1122 14.6616 10.6074 14.6616 11.035 14.4604C11.6514 14.1703 12.3651 14.1703 12.9815 14.4604C13.4091 14.6616 13.9043 14.6616 14.3319 14.4604C14.9483 14.1703 15.662 14.1703 16.2784 14.4604L17.1026 14.8482L16.8046 15.4816L15.9803 15.0937C15.5527 14.8925 15.0576 14.8925 14.63 15.0937C14.0135 15.3838 13.2999 15.3838 12.6834 15.0937C12.2558 14.8925 11.7607 14.8925 11.3331 15.0937C10.7166 15.3838 10.003 15.3838 9.38655 15.0937Z" fill="#485CC2"/>
<path fill-rule="evenodd" clip-rule="evenodd" d="M9.38655 16.3168C8.95891 16.1156 8.46379 16.1156 8.03615 16.3168L7.21193 16.7047L6.91387 16.0713L7.7381 15.6835C8.35451 15.3934 9.06819 15.3934 9.6846 15.6835C10.1122 15.8847 10.6074 15.8847 11.035 15.6835C11.6514 15.3934 12.3651 15.3934 12.9815 15.6835C13.4091 15.8847 13.9043 15.8847 14.3319 15.6835C14.9483 15.3934 15.662 15.3934 16.2784 15.6835L17.1026 16.0713L16.8046 16.7047L15.9803 16.3168C15.5527 16.1156 15.0576 16.1156 14.63 16.3168C14.0135 16.6069 13.2999 16.6069 12.6834 16.3168C12.2558 16.1156 11.7607 16.1156 11.3331 16.3168C10.7166 16.6069 10.003 16.6069 9.38655 16.3168Z" fill="#485CC2"/>
<path fill-rule="evenodd" clip-rule="evenodd" d="M11.2363 11.1808V8.79033C11.2234 8.52689 11.3635 8 12.0266 8H12.7013V8.13104C12.6746 8.12777 12.6473 8.12609 12.6196 8.12609C12.2512 8.12609 11.9526 8.42474 11.9526 8.79315C11.9526 9.16156 12.2512 9.46022 12.6196 9.46022C12.6473 9.46022 12.6746 9.45853 12.7013 9.45526V11.5855L11.2363 11.1808Z" fill="#962122"/>
<path d="M9.63051 13.1471V9.84076L10.1432 9.84071V12.8581C10.1432 13.5402 10.8897 13.413 11.0978 13.413C11.2643 13.413 11.4909 13.1818 11.5834 13.0662C11.5564 13.413 11.3267 14.1067 10.6238 14.1067C9.92091 14.1067 9.65749 13.467 9.63051 13.1471Z" fill="#962122"/>
<path d="M14.3188 13.1471V9.84076L13.8061 9.84071V12.8581C13.8061 13.5402 13.0596 13.413 12.8515 13.413C12.685 13.413 12.4584 13.1818 12.3659 13.0662C12.3929 13.413 12.6226 14.1067 13.3255 14.1067C14.0284 14.1067 14.2918 13.467 14.3188 13.1471Z" fill="#962122"/>
<path fill-rule="evenodd" clip-rule="evenodd" d="M13.1855 12.0242V11.8165C13.1855 11.7846 13.2114 11.7587 13.2434 11.7587C13.2753 11.7587 13.3012 11.7846 13.3012 11.8165V12.0242L13.4479 11.8775C13.4705 11.8549 13.5072 11.8549 13.5298 11.8775C13.5524 11.9001 13.5524 11.9367 13.5298 11.9593L13.3252 12.1639L13.5298 12.3685C13.5524 12.3911 13.5524 12.4277 13.5298 12.4503C13.5072 12.4729 13.4705 12.4729 13.4479 12.4503L13.2433 12.2457L13.0388 12.4503C13.0162 12.4729 12.9795 12.4729 12.9569 12.4503C12.9343 12.4277 12.9343 12.391 12.9569 12.3685L13.1615 12.1639L12.9569 11.9593C12.9344 11.9367 12.9344 11.9001 12.9569 11.8775C12.9795 11.8549 13.0162 11.8549 13.0388 11.8775L13.1855 12.0242Z" fill="#962122"/>
<path fill-rule="evenodd" clip-rule="evenodd" d="M12.6526 12.0242L12.7993 11.8775C12.8219 11.8549 12.8586 11.8549 12.8811 11.8775C12.9037 11.9001 12.9037 11.9367 12.8811 11.9593L12.6766 12.1639L12.8812 12.3685C12.9037 12.3911 12.9037 12.4277 12.8812 12.4503C12.8586 12.4729 12.8219 12.4729 12.7993 12.4503L12.5947 12.2457L12.3902 12.4503C12.3676 12.4729 12.3309 12.4729 12.3083 12.4503C12.2857 12.4277 12.2857 12.391 12.3083 12.3685L12.5129 12.1639L12.3083 11.9593C12.2857 11.9367 12.2857 11.9001 12.3083 11.8775C12.3309 11.8549 12.3676 11.8549 12.3902 11.8775L12.5369 12.0242V11.8165C12.5369 11.7846 12.5628 11.7587 12.5947 11.7587C12.6267 11.7587 12.6526 11.7846 12.6526 11.8165V12.0242Z" fill="#962122"/>
<path fill-rule="evenodd" clip-rule="evenodd" d="M11.9953 12.0242L12.142 11.8775C12.1646 11.8549 12.2012 11.8549 12.2238 11.8775C12.2464 11.9001 12.2464 11.9367 12.2238 11.9593L12.0192 12.1639L12.2238 12.3685C12.2464 12.3911 12.2464 12.4277 12.2238 12.4503C12.2012 12.4729 12.1646 12.4729 12.142 12.4503L11.9374 12.2457L11.7328 12.4503C11.7102 12.4729 11.6736 12.4729 11.651 12.4503C11.6284 12.4277 11.6284 12.391 11.651 12.3685L11.8556 12.1639L11.651 11.9593C11.6284 11.9367 11.6284 11.9001 11.651 11.8775C11.6736 11.8549 11.7102 11.8549 11.7328 11.8775L11.8795 12.0242V11.8165C11.8795 11.7846 11.9054 11.7587 11.9374 11.7587C11.9694 11.7587 11.9953 11.7846 11.9953 11.8165V12.0242Z" fill="#962122"/>
<path fill-rule="evenodd" clip-rule="evenodd" d="M11.3379 12.0242L11.4846 11.8775C11.5072 11.8549 11.5439 11.8549 11.5664 11.8775C11.589 11.9001 11.589 11.9367 11.5664 11.9593L11.3619 12.1639L11.5665 12.3685C11.589 12.3911 11.589 12.4277 11.5665 12.4503C11.5439 12.4729 11.5072 12.4729 11.4846 12.4503L11.28 12.2457L11.0755 12.4503C11.0529 12.4729 11.0162 12.4729 10.9936 12.4503C10.971 12.4277 10.971 12.391 10.9936 12.3685L11.1982 12.1639L10.9936 11.9593C10.971 11.9367 10.971 11.9001 10.9936 11.8775C11.0162 11.8549 11.0529 11.8549 11.0755 11.8775L11.2222 12.0242V11.8165C11.2222 11.7846 11.2481 11.7587 11.2801 11.7587C11.312 11.7587 11.3379 11.7846 11.3379 11.8165V12.0242Z" fill="#962122"/>
<path fill-rule="evenodd" clip-rule="evenodd" d="M10.5736 12.0242V11.8165C10.5736 11.7846 10.5995 11.7587 10.6315 11.7587C10.6634 11.7587 10.6893 11.7846 10.6893 11.8165V12.0242L10.836 11.8775C10.8586 11.8549 10.8953 11.8549 10.9179 11.8775C10.9405 11.9001 10.9405 11.9367 10.9179 11.9593L10.7133 12.1639L10.9179 12.3685C10.9405 12.3911 10.9405 12.4277 10.9179 12.4503C10.8953 12.4729 10.8586 12.4729 10.836 12.4503L10.6314 12.2457L10.4269 12.4503C10.4043 12.4729 10.3676 12.4729 10.345 12.4503C10.3225 12.4277 10.3225 12.391 10.345 12.3685L10.5496 12.1639L10.3451 11.9593C10.3225 11.9367 10.3225 11.9001 10.3451 11.8775C10.3676 11.8549 10.4043 11.8549 10.4269 11.8775L10.5736 12.0242Z" fill="#962122"/>
<path d="M10.2452 12.6817C10.2452 12.6495 10.2713 12.6235 10.3034 12.6235H13.6017C13.6339 12.6235 13.6599 12.6495 13.6599 12.6817C13.6599 12.7138 13.6339 12.7398 13.6017 12.7398H10.3034C10.2713 12.7398 10.2452 12.7138 10.2452 12.6817Z" fill="#962122"/>
<path d="M11.1823 13.2125H10.5229L10.9628 12.8142H11.5749C11.5662 12.8204 11.534 12.8594 11.4754 12.9659C11.4168 13.0725 11.2556 13.1747 11.1823 13.2125Z" fill="#962122"/>
<path d="M12.7081 13.2125H13.3675L12.9276 12.8142H12.3155C12.3242 12.8204 12.3564 12.8594 12.415 12.9659C12.4736 13.0725 12.6348 13.1747 12.7081 13.2125Z" fill="#962122"/>
<path fill-rule="evenodd" clip-rule="evenodd" d="M16 12.008C16 12.2646 15.9758 12.5156 15.9297 12.7588H14.4551V11.8827L15.9935 11.7783C15.9978 11.8543 16 11.9309 16 12.008ZM15.7153 10.523C15.839 10.8323 15.9253 11.1607 15.9684 11.5025L14.4551 11.6926V11.0773L15.7153 10.523ZM15.0225 9.38789C15.2419 9.64084 15.4302 9.92161 15.5812 10.2242C15.3968 10.3302 14.8014 10.6715 14.4551 10.8572V9.95995L15.057 9.47159L15.0225 9.38789ZM14.1003 8.60315C14.3786 8.77521 14.6343 8.98044 14.8618 9.21334L14.3067 9.6977H13.6364V10.3951L12.921 11.0773V10.3951L14.1003 8.60315ZM12.921 8.11458C13.2531 8.19284 13.5692 8.31248 13.8636 8.46777L12.921 10.1231V9.2665H12.5809L12.921 8.11792V8.11458ZM10.9835 8.13833C10.6822 8.21726 10.3947 8.33047 10.1255 8.47352L10.9835 10.1103V8.13833ZM10.9835 10.4215V11.0586L10.3183 10.4389V9.67176H9.61471L9.11091 9.24158C9.32873 9.01417 9.57314 8.81243 9.83914 8.64134L10.9835 10.4215ZM8.89684 9.48386L9.44808 9.94631V10.8165L8.37746 10.3096C8.51695 10.0126 8.6919 9.73551 8.89684 9.48386ZM8.26242 10.58L9.44808 11.0165V11.6534L8.0269 11.5417C8.06578 11.2068 8.14604 10.8845 8.26242 10.58ZM8.00399 11.8278H9.43295V12.7231H8.06373C8.02186 12.4911 8 12.2521 8 12.008C8 11.9476 8.00134 11.8876 8.00399 11.8278ZM10.9835 11.2488L10.3183 10.6908V11.2352L10.9835 11.5447V11.2488ZM10.9835 11.6492L10.3183 11.3685V11.6277L10.9835 11.6709V11.6492Z" fill="#E77D42"/>
</g>
</g>
<defs>
<clipPath id="clip0_440_1623">
<rect width="24" height="24" rx="2" fill="white"/>
</clipPath>
</defs>
</svg>
