<svg width="32" height="24" viewBox="0 0 32 24" fill="none" xmlns="http://www.w3.org/2000/svg">
<g clip-path="url(#clip0_440_1619)">
<rect width="32" height="24" rx="2" fill="#485CC2"/>
<path fill-rule="evenodd" clip-rule="evenodd" d="M10.9177 12C10.9177 8.49486 12.9848 5.47248 15.9665 4.08545C18.9482 5.47248 21.0153 8.49486 21.0153 12C21.0153 15.5052 18.9482 18.5276 15.9665 19.9146C12.9848 18.5276 10.9177 15.5052 10.9177 12Z" fill="#CCEFFA"/>
<path fill-rule="evenodd" clip-rule="evenodd" d="M15.9665 3.20312L16.3039 3.36009C19.5572 4.87346 21.8153 8.17223 21.8153 12C21.8153 15.8279 19.5572 19.1266 16.3039 20.64L15.9665 20.797L15.6291 20.64C12.3758 19.1266 10.1177 15.8279 10.1177 12C10.1177 8.17223 12.3758 4.87346 15.6291 3.36009L15.9665 3.20312ZM15.9665 4.08545C12.9848 5.47248 10.9177 8.49486 10.9177 12C10.9177 15.5052 12.9848 18.5276 15.9665 19.9146C18.9482 18.5276 21.0153 15.5052 21.0153 12C21.0153 8.49486 18.9482 5.47248 15.9665 4.08545Z" fill="#D74B4B"/>
<mask id="mask0_440_1619" style="mask-type:alpha" maskUnits="userSpaceOnUse" x="10" y="4" width="12" height="16">
<path fill-rule="evenodd" clip-rule="evenodd" d="M10.9177 12.0001C10.9177 8.49486 12.9848 5.47248 15.9665 4.08545C18.9482 5.47248 21.0154 8.49486 21.0154 12.0001C21.0154 15.5052 18.9482 18.5276 15.9665 19.9147C12.9848 18.5276 10.9177 15.5052 10.9177 12.0001Z" fill="#CCEFFA"/>
</mask>
<g mask="url(#mask0_440_1619)">
<path d="M10 14H22V19H10V14Z" fill="#64BEDB"/>
<path d="M15.5 13.5L15 14.5H21L21.5 13L15.5 13.5Z" fill="#E77D42"/>
<path fill-rule="evenodd" clip-rule="evenodd" d="M16.2163 9H13C13.395 8.58824 13.9692 8.3291 14.6082 8.3291C15.2472 8.3291 15.8213 8.58824 16.2163 9Z" fill="#3FB47C"/>
<path fill-rule="evenodd" clip-rule="evenodd" d="M15.7653 9.20496L13.1672 7.70496C13.6922 7.53266 14.2855 7.57602 14.8017 7.87403C15.3178 8.17203 15.652 8.66417 15.7653 9.20496Z" fill="#3FB47C"/>
<path fill-rule="evenodd" clip-rule="evenodd" d="M15.4595 9.26527L13.9595 6.6672C14.5003 6.78046 14.9925 7.11467 15.2905 7.63083C15.5885 8.14699 15.6318 8.7403 15.4595 9.26527Z" fill="#3FB47C"/>
<path fill-rule="evenodd" clip-rule="evenodd" d="M15.1646 6.16455L15.1646 8.99613C15.5763 8.64833 15.8354 8.14289 15.8354 7.58034C15.8354 7.01779 15.5763 6.51235 15.1646 6.16455Z" fill="#3FB47C"/>
<path fill-rule="evenodd" clip-rule="evenodd" d="M14.9595 8.92991L16.4595 6.33184C16.6318 6.85681 16.5885 7.45012 16.2905 7.96628C15.9925 8.48244 15.5003 8.81665 14.9595 8.92991Z" fill="#3FB47C"/>
<path fill-rule="evenodd" clip-rule="evenodd" d="M14.8993 8.62414L17.4974 7.12414C17.3841 7.66494 17.0499 8.15707 16.5337 8.45508C16.0176 8.75309 15.4243 8.79645 14.8993 8.62414Z" fill="#3FB47C"/>
<path fill-rule="evenodd" clip-rule="evenodd" d="M14.5951 8.3291L17.9989 8.3291C17.5809 8.74086 16.9733 9 16.297 9C15.6208 9 15.0132 8.74086 14.5951 8.3291Z" fill="#3FB47C"/>
<path fill-rule="evenodd" clip-rule="evenodd" d="M15.2 12.2574V9H15.8V12.2574C15.8 12.9734 16.0845 13.6602 16.5908 14.1665L18.2121 15.7879L17.7879 16.2121L16.1665 14.5908C15.5477 13.9719 15.2 13.1326 15.2 12.2574Z" fill="#962122"/>
<path d="M16 16.5L10.5 15L12.5 18L16 16.5Z" fill="#F8D74C"/>
<path d="M16 15.5L21 15L24 19L16.3081 20.3954L13.5 19L18.5 16.5L16 15.5Z" fill="#F8D74C"/>
<path d="M13.0549 14.9756H15.656C15.656 15.1107 15.5598 15.2268 15.427 15.2518L15.1545 15.3032C14.6265 15.4029 14.0845 15.4029 13.5564 15.3032L13.2839 15.2518C13.1511 15.2268 13.0549 15.1107 13.0549 14.9756Z" fill="#962122"/>
<path d="M13.7543 14.8896V13.0615C14.7736 13.6021 15.0166 14.4234 15.1434 14.8896H13.7543Z" fill="#F9F9F9"/>
</g>
<path fill-rule="evenodd" clip-rule="evenodd" d="M30 1H2C1.44771 1 1 1.44772 1 2V22C1 22.5523 1.44772 23 2 23H30C30.5523 23 31 22.5523 31 22V2C31 1.44772 30.5523 1 30 1ZM2 0C0.895431 0 0 0.89543 0 2V22C0 23.1046 0.895431 24 2 24H30C31.1046 24 32 23.1046 32 22V2C32 0.895431 31.1046 0 30 0H2Z" fill="#D74B4B"/>
</g>
<defs>
<clipPath id="clip0_440_1619">
<rect width="32" height="24" rx="2" fill="white"/>
</clipPath>
</defs>
</svg>
