<svg width="24" height="24" viewBox="0 0 24 24" fill="none" xmlns="http://www.w3.org/2000/svg">
<g clip-path="url(#clip0_440_1613)">
<rect width="24" height="24" rx="2" fill="#485CC2"/>
<path fill-rule="evenodd" clip-rule="evenodd" d="M22 1H2C1.44772 1 1 1.44772 1 2V22C1 22.5523 1.44772 23 2 23H22C22.5523 23 23 22.5523 23 22V2C23 1.44772 22.5523 1 22 1ZM2 0C0.895431 0 0 0.89543 0 2V22C0 23.1046 0.89543 24 2 24H22C23.1046 24 24 23.1046 24 22V2C24 0.895431 23.1046 0 22 0H2Z" fill="#D74B4B"/>
<path fill-rule="evenodd" clip-rule="evenodd" d="M6.91768 12C6.91768 8.49486 8.9848 5.47248 11.9665 4.08545C14.9482 5.47248 17.0153 8.49486 17.0153 12C17.0153 15.5052 14.9482 18.5276 11.9665 19.9146C8.9848 18.5276 6.91768 15.5052 6.91768 12Z" fill="#CCEFFA"/>
<path fill-rule="evenodd" clip-rule="evenodd" d="M11.9665 3.20312L12.3039 3.36009C15.5572 4.87346 17.8153 8.17223 17.8153 12C17.8153 15.8279 15.5572 19.1266 12.3039 20.64L11.9665 20.797L11.6291 20.64C8.37578 19.1266 6.11768 15.8279 6.11768 12C6.11768 8.17223 8.37578 4.87346 11.6291 3.36009L11.9665 3.20312ZM11.9665 4.08545C8.9848 5.47248 6.91768 8.49486 6.91768 12C6.91768 15.5052 8.9848 18.5276 11.9665 19.9146C14.9482 18.5276 17.0153 15.5052 17.0153 12C17.0153 8.49486 14.9482 5.47248 11.9665 4.08545Z" fill="#D74B4B"/>
<mask id="mask0_440_1613" style="mask-type:alpha" maskUnits="userSpaceOnUse" x="6" y="4" width="12" height="16">
<path fill-rule="evenodd" clip-rule="evenodd" d="M6.91769 12.0001C6.91769 8.49486 8.98482 5.47248 11.9665 4.08545C14.9482 5.47248 17.0154 8.49486 17.0154 12.0001C17.0154 15.5052 14.9482 18.5276 11.9665 19.9147C8.98482 18.5276 6.91769 15.5052 6.91769 12.0001Z" fill="#CCEFFA"/>
</mask>
<g mask="url(#mask0_440_1613)">
<path d="M6 14H18V19H6V14Z" fill="#64BEDB"/>
<path d="M11.5 13.5L11 14.5H17L17.5 13L11.5 13.5Z" fill="#E77D42"/>
<path fill-rule="evenodd" clip-rule="evenodd" d="M12.2163 9H9C9.39504 8.58824 9.96917 8.3291 10.6082 8.3291C11.2472 8.3291 11.8213 8.58824 12.2163 9Z" fill="#3FB47C"/>
<path fill-rule="evenodd" clip-rule="evenodd" d="M11.7653 9.20496L9.16724 7.70496C9.69222 7.53266 10.2855 7.57602 10.8017 7.87403C11.3178 8.17203 11.652 8.66417 11.7653 9.20496Z" fill="#3FB47C"/>
<path fill-rule="evenodd" clip-rule="evenodd" d="M11.4595 9.26527L9.95953 6.6672C10.5003 6.78046 10.9925 7.11467 11.2905 7.63083C11.5885 8.14699 11.6318 8.7403 11.4595 9.26527Z" fill="#3FB47C"/>
<path fill-rule="evenodd" clip-rule="evenodd" d="M11.1646 6.16455L11.1646 8.99613C11.5763 8.64833 11.8354 8.14289 11.8354 7.58034C11.8354 7.01779 11.5763 6.51235 11.1646 6.16455Z" fill="#3FB47C"/>
<path fill-rule="evenodd" clip-rule="evenodd" d="M10.9595 8.92991L12.4595 6.33184C12.6318 6.85681 12.5885 7.45012 12.2905 7.96628C11.9925 8.48244 11.5003 8.81665 10.9595 8.92991Z" fill="#3FB47C"/>
<path fill-rule="evenodd" clip-rule="evenodd" d="M10.8993 8.62414L13.4974 7.12414C13.3841 7.66494 13.0499 8.15707 12.5337 8.45508C12.0176 8.75309 11.4243 8.79645 10.8993 8.62414Z" fill="#3FB47C"/>
<path fill-rule="evenodd" clip-rule="evenodd" d="M10.5951 8.3291L13.9989 8.3291C13.5809 8.74086 12.9733 9 12.297 9C11.6208 9 11.0132 8.74086 10.5951 8.3291Z" fill="#3FB47C"/>
<path fill-rule="evenodd" clip-rule="evenodd" d="M11.2 12.2574V9H11.8V12.2574C11.8 12.9734 12.0845 13.6602 12.5908 14.1665L14.2121 15.7879L13.7879 16.2121L12.1666 14.5908C11.5477 13.9719 11.2 13.1326 11.2 12.2574Z" fill="#962122"/>
<path d="M12 16.5L6.5 15L8.5 18L12 16.5Z" fill="#F8D74C"/>
<path d="M12 15.5L17 15L20 19L12.3081 20.3954L9.5 19L14.5 16.5L12 15.5Z" fill="#F8D74C"/>
<path d="M9.05493 14.9756H11.656C11.656 15.1107 11.5598 15.2268 11.427 15.2518L11.1545 15.3032C10.6265 15.4029 10.0845 15.4029 9.55644 15.3032L9.28393 15.2518C9.15111 15.2268 9.05493 15.1107 9.05493 14.9756Z" fill="#962122"/>
<path d="M9.75429 14.8896V13.0615C10.7736 13.6021 11.0166 14.4234 11.1434 14.8896H9.75429Z" fill="#F9F9F9"/>
</g>
</g>
<defs>
<clipPath id="clip0_440_1613">
<rect width="24" height="24" rx="2" fill="white"/>
</clipPath>
</defs>
</svg>
