<svg width="24" height="24" viewBox="0 0 24 24" fill="none" xmlns="http://www.w3.org/2000/svg">
<g clip-path="url(#clip0_440_1601)">
<rect width="24" height="24" rx="2" fill="#D74B4B"/>
<path fill-rule="evenodd" clip-rule="evenodd" d="M9.71253 5.01976H10.0223V5.03458C12.6218 5.03458 14.7465 4.0667 15.484 3.58275H13.1564L14.1243 2.40746L16.7745 1.76221H13.9861C12.9122 1.76221 12.6546 2.05486 12.206 2.56461C12.1059 2.67836 11.9962 2.80297 11.8659 2.9375C11.7687 3.0378 11.6622 3.13286 11.5504 3.22221C10.9635 2.9309 9.89894 2.55478 8.65952 2.55478H7.34579V2.72745C8.53035 2.91371 9.86818 3.26014 10.5259 3.843H9.19088L8.6701 4.18262H7.51667C7.35584 4.18262 7.22547 4.313 7.22547 4.47383H8.98728L9.71253 5.01976Z" fill="#F8D74C"/>
<path d="M12 5.90137L12.6163 8.50447L14.0858 6.26915L13.7747 8.92606L15.92 7.32815L14.7189 9.71841L17.2815 8.95062L15.3353 10.7859L18.0059 10.9409L15.5493 11.9999L18.0059 13.0589L15.3353 13.2138L17.2815 15.0491L14.7189 14.2813L15.92 16.6716L13.7747 15.0737L14.0858 17.7306L12.6163 15.4953L12 18.0984L11.3837 15.4953L9.91419 17.7306L10.2253 15.0737L8.07995 16.6716L9.28105 14.2813L6.71854 15.0491L8.66472 13.2138L5.99414 13.0589L8.45067 11.9999L5.99414 10.9409L8.66472 10.7859L6.71854 8.95062L9.28105 9.71841L8.07995 7.32815L10.2253 8.92606L9.91419 6.26915L11.3837 8.50447L12 5.90137Z" fill="#F8D74C"/>
<path d="M14.6262 7.45117L13.9649 9.65818L16.0236 8.62372L14.6474 10.4715L16.9357 10.2035L15.0105 11.4691L17.2524 11.9999L15.0105 12.5308L16.9357 13.7964L14.6474 13.5284L16.0236 15.3761L13.9649 14.3417L14.6262 16.5487L13.0455 14.8725L12.9121 17.1726L12 15.0568L11.0879 17.1726L10.9545 14.8725L9.37376 16.5487L10.035 14.3417L7.97638 15.3761L9.35261 13.5284L7.0643 13.7964L8.9895 12.5308L6.74754 11.9999L8.9895 11.4691L7.0643 10.2035L9.35261 10.4715L7.97638 8.62372L10.035 9.65818L9.37376 7.45117L10.9545 9.12735L11.0879 6.82728L12 8.943L12.9121 6.82727L13.0455 9.12735L14.6262 7.45117Z" fill="#F8D74C"/>
<path fill-rule="evenodd" clip-rule="evenodd" d="M-3.93948 15.0517L-5.21289 14.4524L-4.78709 13.5476L-3.51369 14.1469C-3.10917 14.3372 -2.64082 14.3372 -2.2363 14.1469L-1.81448 13.9484C-1.14028 13.6311 -0.3597 13.6311 0.314501 13.9484L0.736312 14.1469C1.14083 14.3372 1.60918 14.3372 2.0137 14.1469L2.43552 13.9484C3.10972 13.6311 3.8903 13.6311 4.5645 13.9484L4.98631 14.1469C5.39083 14.3372 5.85918 14.3372 6.2637 14.1469L6.68551 13.9484C7.35972 13.6311 8.1403 13.6311 8.8145 13.9484L9.23631 14.1469C9.64083 14.3372 10.1092 14.3372 10.5137 14.1469L10.9355 13.9484C11.6097 13.6311 12.3903 13.6311 13.0645 13.9484L13.4863 14.1469C13.8908 14.3372 14.3592 14.3372 14.7637 14.1469L15.1855 13.9484C15.8597 13.6311 16.6403 13.6311 17.3145 13.9484L17.7363 14.1469C18.1408 14.3372 18.6092 14.3372 19.0137 14.1469L19.4355 13.9484C20.1097 13.6311 20.8903 13.6311 21.5645 13.9484L21.9863 14.1469C22.3908 14.3372 22.8592 14.3372 23.2637 14.1469L23.6855 13.9484C24.3597 13.6311 25.1403 13.6311 25.8145 13.9484L26.2363 14.1469C26.6408 14.3372 27.1092 14.3372 27.5137 14.1469L28.7871 13.5476L29.2129 14.4524L27.9395 15.0517C27.2653 15.3689 26.4847 15.3689 25.8105 15.0517L25.3887 14.8532C24.9842 14.6628 24.5158 14.6628 24.1113 14.8532L23.6895 15.0517C23.0153 15.3689 22.2347 15.3689 21.5605 15.0517L21.1387 14.8532C20.7342 14.6628 20.2658 14.6628 19.8613 14.8532L19.4395 15.0517C18.7653 15.3689 17.9847 15.3689 17.3105 15.0517L16.8887 14.8532C16.4842 14.6628 16.0158 14.6628 15.6113 14.8532L15.1895 15.0517C14.5153 15.3689 13.7347 15.3689 13.0605 15.0517L12.6387 14.8532C12.2342 14.6628 11.7658 14.6628 11.3613 14.8532L10.9395 15.0517C10.2653 15.3689 9.48472 15.3689 8.81051 15.0517L8.3887 14.8532C7.98418 14.6628 7.51583 14.6628 7.11131 14.8532L6.6895 15.0517C6.0153 15.3689 5.23472 15.3689 4.56051 15.0517L4.1387 14.8532C3.73418 14.6628 3.26583 14.6628 2.86131 14.8532L2.4395 15.0517C1.7653 15.3689 0.984716 15.3689 0.310515 15.0517L-0.111297 14.8532C-0.515817 14.6628 -0.984167 14.6628 -1.38869 14.8532L-1.8105 15.0517C-2.4847 15.3689 -3.26528 15.3689 -3.93948 15.0517Z" fill="#F9F9F9"/>
<path fill-rule="evenodd" clip-rule="evenodd" d="M-3.93948 16.0517L-5.21289 15.4524L-4.78709 14.5476L-3.51369 15.1469C-3.10917 15.3372 -2.64082 15.3372 -2.2363 15.1469L-1.81448 14.9484C-1.14028 14.6311 -0.3597 14.6311 0.314501 14.9484L0.736312 15.1469C1.14083 15.3372 1.60918 15.3372 2.0137 15.1469L2.43552 14.9484C3.10972 14.6311 3.8903 14.6311 4.5645 14.9484L4.98631 15.1469C5.39083 15.3372 5.85918 15.3372 6.2637 15.1469L6.68551 14.9484C7.35972 14.6311 8.1403 14.6311 8.8145 14.9484L9.23631 15.1469C9.64083 15.3372 10.1092 15.3372 10.5137 15.1469L10.9355 14.9484C11.6097 14.6311 12.3903 14.6311 13.0645 14.9484L13.4863 15.1469C13.8908 15.3372 14.3592 15.3372 14.7637 15.1469L15.1855 14.9484C15.8597 14.6311 16.6403 14.6311 17.3145 14.9484L17.7363 15.1469C18.1408 15.3372 18.6092 15.3372 19.0137 15.1469L19.4355 14.9484C20.1097 14.6311 20.8903 14.6311 21.5645 14.9484L21.9863 15.1469C22.3908 15.3372 22.8592 15.3372 23.2637 15.1469L23.6855 14.9484C24.3597 14.6311 25.1403 14.6311 25.8145 14.9484L26.2363 15.1469C26.6408 15.3372 27.1092 15.3372 27.5137 15.1469L28.7871 14.5476L29.2129 15.4524L27.9395 16.0517C27.2653 16.3689 26.4847 16.3689 25.8105 16.0517L25.3887 15.8532C24.9842 15.6628 24.5158 15.6628 24.1113 15.8532L23.6895 16.0517C23.0153 16.3689 22.2347 16.3689 21.5605 16.0517L21.1387 15.8532C20.7342 15.6628 20.2658 15.6628 19.8613 15.8532L19.4395 16.0517C18.7653 16.3689 17.9847 16.3689 17.3105 16.0517L16.8887 15.8532C16.4842 15.6628 16.0158 15.6628 15.6113 15.8532L15.1895 16.0517C14.5153 16.3689 13.7347 16.3689 13.0605 16.0517L12.6387 15.8532C12.2342 15.6628 11.7658 15.6628 11.3613 15.8532L10.9395 16.0517C10.2653 16.3689 9.48472 16.3689 8.81051 16.0517L8.3887 15.8532C7.98418 15.6628 7.51583 15.6628 7.11131 15.8532L6.6895 16.0517C6.0153 16.3689 5.23472 16.3689 4.56051 16.0517L4.1387 15.8532C3.73418 15.6628 3.26583 15.6628 2.86131 15.8532L2.4395 16.0517C1.7653 16.3689 0.984716 16.3689 0.310515 16.0517L-0.111297 15.8532C-0.515817 15.6628 -0.984167 15.6628 -1.38869 15.8532L-1.8105 16.0517C-2.4847 16.3689 -3.26528 16.3689 -3.93948 16.0517Z" fill="#485CC2"/>
<path fill-rule="evenodd" clip-rule="evenodd" d="M-3.93948 17.0517L-5.21289 16.4524L-4.78709 15.5476L-3.51369 16.1469C-3.10917 16.3372 -2.64082 16.3372 -2.2363 16.1469L-1.81448 15.9484C-1.14028 15.6311 -0.3597 15.6311 0.314501 15.9484L0.736312 16.1469C1.14083 16.3372 1.60918 16.3372 2.0137 16.1469L2.43552 15.9484C3.10972 15.6311 3.8903 15.6311 4.5645 15.9484L4.98631 16.1469C5.39083 16.3372 5.85918 16.3372 6.2637 16.1469L6.68551 15.9484C7.35972 15.6311 8.1403 15.6311 8.8145 15.9484L9.23631 16.1469C9.64083 16.3372 10.1092 16.3372 10.5137 16.1469L10.9355 15.9484C11.6097 15.6311 12.3903 15.6311 13.0645 15.9484L13.4863 16.1469C13.8908 16.3372 14.3592 16.3372 14.7637 16.1469L15.1855 15.9484C15.8597 15.6311 16.6403 15.6311 17.3145 15.9484L17.7363 16.1469C18.1408 16.3372 18.6092 16.3372 19.0137 16.1469L19.4355 15.9484C20.1097 15.6311 20.8903 15.6311 21.5645 15.9484L21.9863 16.1469C22.3908 16.3372 22.8592 16.3372 23.2637 16.1469L23.6855 15.9484C24.3597 15.6311 25.1403 15.6311 25.8145 15.9484L26.2363 16.1469C26.6408 16.3372 27.1092 16.3372 27.5137 16.1469L28.7871 15.5476L29.2129 16.4524L27.9395 17.0517C27.2653 17.3689 26.4847 17.3689 25.8105 17.0517L25.3887 16.8532C24.9842 16.6628 24.5158 16.6628 24.1113 16.8532L23.6895 17.0517C23.0153 17.3689 22.2347 17.3689 21.5605 17.0517L21.1387 16.8532C20.7342 16.6628 20.2658 16.6628 19.8613 16.8532L19.4395 17.0517C18.7653 17.3689 17.9847 17.3689 17.3105 17.0517L16.8887 16.8532C16.4842 16.6628 16.0158 16.6628 15.6113 16.8532L15.1895 17.0517C14.5153 17.3689 13.7347 17.3689 13.0605 17.0517L12.6387 16.8532C12.2342 16.6628 11.7658 16.6628 11.3613 16.8532L10.9395 17.0517C10.2653 17.3689 9.48472 17.3689 8.81051 17.0517L8.3887 16.8532C7.98418 16.6628 7.51583 16.6628 7.11131 16.8532L6.6895 17.0517C6.0153 17.3689 5.23472 17.3689 4.56051 17.0517L4.1387 16.8532C3.73418 16.6628 3.26583 16.6628 2.86131 16.8532L2.4395 17.0517C1.7653 17.3689 0.984716 17.3689 0.310515 17.0517L-0.111297 16.8532C-0.515817 16.6628 -0.984167 16.6628 -1.38869 16.8532L-1.8105 17.0517C-2.4847 17.3689 -3.26528 17.3689 -3.93948 17.0517Z" fill="#F9F9F9"/>
<path fill-rule="evenodd" clip-rule="evenodd" d="M-3.93948 18.0517L-5.21289 17.4524L-4.78709 16.5476L-3.51369 17.1469C-3.10917 17.3372 -2.64082 17.3372 -2.2363 17.1469L-1.81448 16.9484C-1.14028 16.6311 -0.3597 16.6311 0.314501 16.9484L0.736312 17.1469C1.14083 17.3372 1.60918 17.3372 2.0137 17.1469L2.43552 16.9484C3.10972 16.6311 3.8903 16.6311 4.5645 16.9484L4.98631 17.1469C5.39083 17.3372 5.85918 17.3372 6.2637 17.1469L6.68551 16.9484C7.35972 16.6311 8.1403 16.6311 8.8145 16.9484L9.23631 17.1469C9.64083 17.3372 10.1092 17.3372 10.5137 17.1469L10.9355 16.9484C11.6097 16.6311 12.3903 16.6311 13.0645 16.9484L13.4863 17.1469C13.8908 17.3372 14.3592 17.3372 14.7637 17.1469L15.1855 16.9484C15.8597 16.6311 16.6403 16.6311 17.3145 16.9484L17.7363 17.1469C18.1408 17.3372 18.6092 17.3372 19.0137 17.1469L19.4355 16.9484C20.1097 16.6311 20.8903 16.6311 21.5645 16.9484L21.9863 17.1469C22.3908 17.3372 22.8592 17.3372 23.2637 17.1469L23.6855 16.9484C24.3597 16.6311 25.1403 16.6311 25.8145 16.9484L26.2363 17.1469C26.6408 17.3372 27.1092 17.3372 27.5137 17.1469L28.7871 16.5476L29.2129 17.4524L27.9395 18.0517C27.2653 18.3689 26.4847 18.3689 25.8105 18.0517L25.3887 17.8532C24.9842 17.6628 24.5158 17.6628 24.1113 17.8532L23.6895 18.0517C23.0153 18.3689 22.2347 18.3689 21.5605 18.0517L21.1387 17.8532C20.7342 17.6628 20.2658 17.6628 19.8613 17.8532L19.4395 18.0517C18.7653 18.3689 17.9847 18.3689 17.3105 18.0517L16.8887 17.8532C16.4842 17.6628 16.0158 17.6628 15.6113 17.8532L15.1895 18.0517C14.5153 18.3689 13.7347 18.3689 13.0605 18.0517L12.6387 17.8532C12.2342 17.6628 11.7658 17.6628 11.3613 17.8532L10.9395 18.0517C10.2653 18.3689 9.48472 18.3689 8.81051 18.0517L8.3887 17.8532C7.98418 17.6628 7.51583 17.6628 7.11131 17.8532L6.6895 18.0517C6.0153 18.3689 5.23472 18.3689 4.56051 18.0517L4.1387 17.8532C3.73418 17.6628 3.26583 17.6628 2.86131 17.8532L2.4395 18.0517C1.7653 18.3689 0.984716 18.3689 0.310515 18.0517L-0.111297 17.8532C-0.515817 17.6628 -0.984167 17.6628 -1.38869 17.8532L-1.8105 18.0517C-2.4847 18.3689 -3.26528 18.3689 -3.93948 18.0517Z" fill="#485CC2"/>
<path fill-rule="evenodd" clip-rule="evenodd" d="M-3.93948 19.0517L-5.21289 18.4524L-4.78709 17.5476L-3.51369 18.1469C-3.10917 18.3372 -2.64082 18.3372 -2.2363 18.1469L-1.81448 17.9484C-1.14028 17.6311 -0.3597 17.6311 0.314501 17.9484L0.736312 18.1469C1.14083 18.3372 1.60918 18.3372 2.0137 18.1469L2.43552 17.9484C3.10972 17.6311 3.8903 17.6311 4.5645 17.9484L4.98631 18.1469C5.39083 18.3372 5.85918 18.3372 6.2637 18.1469L6.68551 17.9484C7.35972 17.6311 8.1403 17.6311 8.8145 17.9484L9.23631 18.1469C9.64083 18.3372 10.1092 18.3372 10.5137 18.1469L10.9355 17.9484C11.6097 17.6311 12.3903 17.6311 13.0645 17.9484L13.4863 18.1469C13.8908 18.3372 14.3592 18.3372 14.7637 18.1469L15.1855 17.9484C15.8597 17.6311 16.6403 17.6311 17.3145 17.9484L17.7363 18.1469C18.1408 18.3372 18.6092 18.3372 19.0137 18.1469L19.4355 17.9484C20.1097 17.6311 20.8903 17.6311 21.5645 17.9484L21.9863 18.1469C22.3908 18.3372 22.8592 18.3372 23.2637 18.1469L23.6855 17.9484C24.3597 17.6311 25.1403 17.6311 25.8145 17.9484L26.2363 18.1469C26.6408 18.3372 27.1092 18.3372 27.5137 18.1469L28.7871 17.5476L29.2129 18.4524L27.9395 19.0517C27.2653 19.3689 26.4847 19.3689 25.8105 19.0517L25.3887 18.8532C24.9842 18.6628 24.5158 18.6628 24.1113 18.8532L23.6895 19.0517C23.0153 19.3689 22.2347 19.3689 21.5605 19.0517L21.1387 18.8532C20.7342 18.6628 20.2658 18.6628 19.8613 18.8532L19.4395 19.0517C18.7653 19.3689 17.9847 19.3689 17.3105 19.0517L16.8887 18.8532C16.4842 18.6628 16.0158 18.6628 15.6113 18.8532L15.1895 19.0517C14.5153 19.3689 13.7347 19.3689 13.0605 19.0517L12.6387 18.8532C12.2342 18.6628 11.7658 18.6628 11.3613 18.8532L10.9395 19.0517C10.2653 19.3689 9.48472 19.3689 8.81051 19.0517L8.3887 18.8532C7.98418 18.6628 7.51583 18.6628 7.11131 18.8532L6.6895 19.0517C6.0153 19.3689 5.23472 19.3689 4.56051 19.0517L4.1387 18.8532C3.73418 18.6628 3.26583 18.6628 2.86131 18.8532L2.4395 19.0517C1.7653 19.3689 0.984716 19.3689 0.310515 19.0517L-0.111297 18.8532C-0.515817 18.6628 -0.984167 18.6628 -1.38869 18.8532L-1.8105 19.0517C-2.4847 19.3689 -3.26528 19.3689 -3.93948 19.0517Z" fill="#F9F9F9"/>
<path fill-rule="evenodd" clip-rule="evenodd" d="M-3.93948 20.0517L-5.21289 19.4524L-4.78709 18.5476L-3.51369 19.1469C-3.10917 19.3372 -2.64082 19.3372 -2.2363 19.1469L-1.81448 18.9484C-1.14028 18.6311 -0.3597 18.6311 0.314501 18.9484L0.736312 19.1469C1.14083 19.3372 1.60918 19.3372 2.0137 19.1469L2.43552 18.9484C3.10972 18.6311 3.8903 18.6311 4.5645 18.9484L4.98631 19.1469C5.39083 19.3372 5.85918 19.3372 6.2637 19.1469L6.68551 18.9484C7.35972 18.6311 8.1403 18.6311 8.8145 18.9484L9.23631 19.1469C9.64083 19.3372 10.1092 19.3372 10.5137 19.1469L10.9355 18.9484C11.6097 18.6311 12.3903 18.6311 13.0645 18.9484L13.4863 19.1469C13.8908 19.3372 14.3592 19.3372 14.7637 19.1469L15.1855 18.9484C15.8597 18.6311 16.6403 18.6311 17.3145 18.9484L17.7363 19.1469C18.1408 19.3372 18.6092 19.3372 19.0137 19.1469L19.4355 18.9484C20.1097 18.6311 20.8903 18.6311 21.5645 18.9484L21.9863 19.1469C22.3908 19.3372 22.8592 19.3372 23.2637 19.1469L23.6855 18.9484C24.3597 18.6311 25.1403 18.6311 25.8145 18.9484L26.2363 19.1469C26.6408 19.3372 27.1092 19.3372 27.5137 19.1469L28.7871 18.5476L29.2129 19.4524L27.9395 20.0517C27.2653 20.3689 26.4847 20.3689 25.8105 20.0517L25.3887 19.8532C24.9842 19.6628 24.5158 19.6628 24.1113 19.8532L23.6895 20.0517C23.0153 20.3689 22.2347 20.3689 21.5605 20.0517L21.1387 19.8532C20.7342 19.6628 20.2658 19.6628 19.8613 19.8532L19.4395 20.0517C18.7653 20.3689 17.9847 20.3689 17.3105 20.0517L16.8887 19.8532C16.4842 19.6628 16.0158 19.6628 15.6113 19.8532L15.1895 20.0517C14.5153 20.3689 13.7347 20.3689 13.0605 20.0517L12.6387 19.8532C12.2342 19.6628 11.7658 19.6628 11.3613 19.8532L10.9395 20.0517C10.2653 20.3689 9.48472 20.3689 8.81051 20.0517L8.3887 19.8532C7.98418 19.6628 7.51583 19.6628 7.11131 19.8532L6.6895 20.0517C6.0153 20.3689 5.23472 20.3689 4.56051 20.0517L4.1387 19.8532C3.73418 19.6628 3.26583 19.6628 2.86131 19.8532L2.4395 20.0517C1.7653 20.3689 0.984716 20.3689 0.310515 20.0517L-0.111297 19.8532C-0.515817 19.6628 -0.984167 19.6628 -1.38869 19.8532L-1.8105 20.0517C-2.4847 20.3689 -3.26528 20.3689 -3.93948 20.0517Z" fill="#485CC2"/>
<path fill-rule="evenodd" clip-rule="evenodd" d="M-3.93948 21.0517L-5.21289 20.4524L-4.78709 19.5476L-3.51369 20.1469C-3.10917 20.3372 -2.64082 20.3372 -2.2363 20.1469L-1.81448 19.9484C-1.14028 19.6311 -0.3597 19.6311 0.314501 19.9484L0.736312 20.1469C1.14083 20.3372 1.60918 20.3372 2.0137 20.1469L2.43552 19.9484C3.10972 19.6311 3.8903 19.6311 4.5645 19.9484L4.98631 20.1469C5.39083 20.3372 5.85918 20.3372 6.2637 20.1469L6.68551 19.9484C7.35972 19.6311 8.1403 19.6311 8.8145 19.9484L9.23631 20.1469C9.64083 20.3372 10.1092 20.3372 10.5137 20.1469L10.9355 19.9484C11.6097 19.6311 12.3903 19.6311 13.0645 19.9484L13.4863 20.1469C13.8908 20.3372 14.3592 20.3372 14.7637 20.1469L15.1855 19.9484C15.8597 19.6311 16.6403 19.6311 17.3145 19.9484L17.7363 20.1469C18.1408 20.3372 18.6092 20.3372 19.0137 20.1469L19.4355 19.9484C20.1097 19.6311 20.8903 19.6311 21.5645 19.9484L21.9863 20.1469C22.3908 20.3372 22.8592 20.3372 23.2637 20.1469L23.6855 19.9484C24.3597 19.6311 25.1403 19.6311 25.8145 19.9484L26.2363 20.1469C26.6408 20.3372 27.1092 20.3372 27.5137 20.1469L28.7871 19.5476L29.2129 20.4524L27.9395 21.0517C27.2653 21.3689 26.4847 21.3689 25.8105 21.0517L25.3887 20.8532C24.9842 20.6628 24.5158 20.6628 24.1113 20.8532L23.6895 21.0517C23.0153 21.3689 22.2347 21.3689 21.5605 21.0517L21.1387 20.8532C20.7342 20.6628 20.2658 20.6628 19.8613 20.8532L19.4395 21.0517C18.7653 21.3689 17.9847 21.3689 17.3105 21.0517L16.8887 20.8532C16.4842 20.6628 16.0158 20.6628 15.6113 20.8532L15.1895 21.0517C14.5153 21.3689 13.7347 21.3689 13.0605 21.0517L12.6387 20.8532C12.2342 20.6628 11.7658 20.6628 11.3613 20.8532L10.9395 21.0517C10.2653 21.3689 9.48472 21.3689 8.81051 21.0517L8.3887 20.8532C7.98418 20.6628 7.51583 20.6628 7.11131 20.8532L6.6895 21.0517C6.0153 21.3689 5.23472 21.3689 4.56051 21.0517L4.1387 20.8532C3.73418 20.6628 3.26583 20.6628 2.86131 20.8532L2.4395 21.0517C1.7653 21.3689 0.984716 21.3689 0.310515 21.0517L-0.111297 20.8532C-0.515817 20.6628 -0.984167 20.6628 -1.38869 20.8532L-1.8105 21.0517C-2.4847 21.3689 -3.26528 21.3689 -3.93948 21.0517Z" fill="#F9F9F9"/>
<path fill-rule="evenodd" clip-rule="evenodd" d="M-3.93948 22.0517L-5.21289 21.4524L-4.78709 20.5476L-3.51369 21.1469C-3.10917 21.3372 -2.64082 21.3372 -2.2363 21.1469L-1.81448 20.9484C-1.14028 20.6311 -0.3597 20.6311 0.314501 20.9484L0.736312 21.1469C1.14083 21.3372 1.60918 21.3372 2.0137 21.1469L2.43552 20.9484C3.10972 20.6311 3.8903 20.6311 4.5645 20.9484L4.98631 21.1469C5.39083 21.3372 5.85918 21.3372 6.2637 21.1469L6.68551 20.9484C7.35972 20.6311 8.1403 20.6311 8.8145 20.9484L9.23631 21.1469C9.64083 21.3372 10.1092 21.3372 10.5137 21.1469L10.9355 20.9484C11.6097 20.6311 12.3903 20.6311 13.0645 20.9484L13.4863 21.1469C13.8908 21.3372 14.3592 21.3372 14.7637 21.1469L15.1855 20.9484C15.8597 20.6311 16.6403 20.6311 17.3145 20.9484L17.7363 21.1469C18.1408 21.3372 18.6092 21.3372 19.0137 21.1469L19.4355 20.9484C20.1097 20.6311 20.8903 20.6311 21.5645 20.9484L21.9863 21.1469C22.3908 21.3372 22.8592 21.3372 23.2637 21.1469L23.6855 20.9484C24.3597 20.6311 25.1403 20.6311 25.8145 20.9484L26.2363 21.1469C26.6408 21.3372 27.1092 21.3372 27.5137 21.1469L28.7871 20.5476L29.2129 21.4524L27.9395 22.0517C27.2653 22.3689 26.4847 22.3689 25.8105 22.0517L25.3887 21.8532C24.9842 21.6628 24.5158 21.6628 24.1113 21.8532L23.6895 22.0517C23.0153 22.3689 22.2347 22.3689 21.5605 22.0517L21.1387 21.8532C20.7342 21.6628 20.2658 21.6628 19.8613 21.8532L19.4395 22.0517C18.7653 22.3689 17.9847 22.3689 17.3105 22.0517L16.8887 21.8532C16.4842 21.6628 16.0158 21.6628 15.6113 21.8532L15.1895 22.0517C14.5153 22.3689 13.7347 22.3689 13.0605 22.0517L12.6387 21.8532C12.2342 21.6628 11.7658 21.6628 11.3613 21.8532L10.9395 22.0517C10.2653 22.3689 9.48472 22.3689 8.81051 22.0517L8.3887 21.8532C7.98418 21.6628 7.51583 21.6628 7.11131 21.8532L6.6895 22.0517C6.0153 22.3689 5.23472 22.3689 4.56051 22.0517L4.1387 21.8532C3.73418 21.6628 3.26583 21.6628 2.86131 21.8532L2.4395 22.0517C1.7653 22.3689 0.984716 22.3689 0.310515 22.0517L-0.111297 21.8532C-0.515817 21.6628 -0.984167 21.6628 -1.38869 21.8532L-1.8105 22.0517C-2.4847 22.3689 -3.26528 22.3689 -3.93948 22.0517Z" fill="#485CC2"/>
<path fill-rule="evenodd" clip-rule="evenodd" d="M-3.93948 23.0517L-5.21289 22.4524L-4.78709 21.5476L-3.51369 22.1469C-3.10917 22.3372 -2.64082 22.3372 -2.2363 22.1469L-1.81448 21.9484C-1.14028 21.6311 -0.3597 21.6311 0.314501 21.9484L0.736312 22.1469C1.14083 22.3372 1.60918 22.3372 2.0137 22.1469L2.43552 21.9484C3.10972 21.6311 3.8903 21.6311 4.5645 21.9484L4.98631 22.1469C5.39083 22.3372 5.85918 22.3372 6.2637 22.1469L6.68551 21.9484C7.35972 21.6311 8.1403 21.6311 8.8145 21.9484L9.23631 22.1469C9.64083 22.3372 10.1092 22.3372 10.5137 22.1469L10.9355 21.9484C11.6097 21.6311 12.3903 21.6311 13.0645 21.9484L13.4863 22.1469C13.8908 22.3372 14.3592 22.3372 14.7637 22.1469L15.1855 21.9484C15.8597 21.6311 16.6403 21.6311 17.3145 21.9484L17.7363 22.1469C18.1408 22.3372 18.6092 22.3372 19.0137 22.1469L19.4355 21.9484C20.1097 21.6311 20.8903 21.6311 21.5645 21.9484L21.9863 22.1469C22.3908 22.3372 22.8592 22.3372 23.2637 22.1469L23.6855 21.9484C24.3597 21.6311 25.1403 21.6311 25.8145 21.9484L26.2363 22.1469C26.6408 22.3372 27.1092 22.3372 27.5137 22.1469L28.7871 21.5476L29.2129 22.4524L27.9395 23.0517C27.2653 23.3689 26.4847 23.3689 25.8105 23.0517L25.3887 22.8532C24.9842 22.6628 24.5158 22.6628 24.1113 22.8532L23.6895 23.0517C23.0153 23.3689 22.2347 23.3689 21.5605 23.0517L21.1387 22.8532C20.7342 22.6628 20.2658 22.6628 19.8613 22.8532L19.4395 23.0517C18.7653 23.3689 17.9847 23.3689 17.3105 23.0517L16.8887 22.8532C16.4842 22.6628 16.0158 22.6628 15.6113 22.8532L15.1895 23.0517C14.5153 23.3689 13.7347 23.3689 13.0605 23.0517L12.6387 22.8532C12.2342 22.6628 11.7658 22.6628 11.3613 22.8532L10.9395 23.0517C10.2653 23.3689 9.48472 23.3689 8.81051 23.0517L8.3887 22.8532C7.98418 22.6628 7.51583 22.6628 7.11131 22.8532L6.6895 23.0517C6.0153 23.3689 5.23472 23.3689 4.56051 23.0517L4.1387 22.8532C3.73418 22.6628 3.26583 22.6628 2.86131 22.8532L2.4395 23.0517C1.7653 23.3689 0.984716 23.3689 0.310515 23.0517L-0.111297 22.8532C-0.515817 22.6628 -0.984167 22.6628 -1.38869 22.8532L-1.8105 23.0517C-2.4847 23.3689 -3.26528 23.3689 -3.93948 23.0517Z" fill="#F9F9F9"/>
<path fill-rule="evenodd" clip-rule="evenodd" d="M-3.93948 24.0517L-5.21289 23.4524L-4.78709 22.5476L-3.51369 23.1469C-3.10917 23.3372 -2.64082 23.3372 -2.2363 23.1469L-1.81448 22.9484C-1.14028 22.6311 -0.3597 22.6311 0.314501 22.9484L0.736312 23.1469C1.14083 23.3372 1.60918 23.3372 2.0137 23.1469L2.43552 22.9484C3.10972 22.6311 3.8903 22.6311 4.5645 22.9484L4.98631 23.1469C5.39083 23.3372 5.85918 23.3372 6.2637 23.1469L6.68551 22.9484C7.35972 22.6311 8.1403 22.6311 8.8145 22.9484L9.23631 23.1469C9.64083 23.3372 10.1092 23.3372 10.5137 23.1469L10.9355 22.9484C11.6097 22.6311 12.3903 22.6311 13.0645 22.9484L13.4863 23.1469C13.8908 23.3372 14.3592 23.3372 14.7637 23.1469L15.1855 22.9484C15.8597 22.6311 16.6403 22.6311 17.3145 22.9484L17.7363 23.1469C18.1408 23.3372 18.6092 23.3372 19.0137 23.1469L19.4355 22.9484C20.1097 22.6311 20.8903 22.6311 21.5645 22.9484L21.9863 23.1469C22.3908 23.3372 22.8592 23.3372 23.2637 23.1469L23.6855 22.9484C24.3597 22.6311 25.1403 22.6311 25.8145 22.9484L26.2363 23.1469C26.6408 23.3372 27.1092 23.3372 27.5137 23.1469L28.7871 22.5476L29.2129 23.4524L27.9395 24.0517C27.2653 24.3689 26.4847 24.3689 25.8105 24.0517L25.3887 23.8532C24.9842 23.6628 24.5158 23.6628 24.1113 23.8532L23.6895 24.0517C23.0153 24.3689 22.2347 24.3689 21.5605 24.0517L21.1387 23.8532C20.7342 23.6628 20.2658 23.6628 19.8613 23.8532L19.4395 24.0517C18.7653 24.3689 17.9847 24.3689 17.3105 24.0517L16.8887 23.8532C16.4842 23.6628 16.0158 23.6628 15.6113 23.8532L15.1895 24.0517C14.5153 24.3689 13.7347 24.3689 13.0605 24.0517L12.6387 23.8532C12.2342 23.6628 11.7658 23.6628 11.3613 23.8532L10.9395 24.0517C10.2653 24.3689 9.48472 24.3689 8.81051 24.0517L8.3887 23.8532C7.98418 23.6628 7.51583 23.6628 7.11131 23.8532L6.6895 24.0517C6.0153 24.3689 5.23472 24.3689 4.56051 24.0517L4.1387 23.8532C3.73418 23.6628 3.26583 23.6628 2.86131 23.8532L2.4395 24.0517C1.7653 24.3689 0.984716 24.3689 0.310515 24.0517L-0.111297 23.8532C-0.515817 23.6628 -0.984167 23.6628 -1.38869 23.8532L-1.8105 24.0517C-2.4847 24.3689 -3.26528 24.3689 -3.93948 24.0517Z" fill="#485CC2"/>
<path d="M-2 23.501H26V23.9999H-2V23.501Z" fill="#485CC2"/>
</g>
<defs>
<clipPath id="clip0_440_1601">
<rect width="24" height="24" rx="2" fill="white"/>
</clipPath>
</defs>
</svg>
