<svg width="32" height="24" viewBox="0 0 32 24" fill="none" xmlns="http://www.w3.org/2000/svg">
<g clip-path="url(#clip0_440_1602)">
<rect width="32" height="24" rx="2" fill="#D74B4B"/>
<path fill-rule="evenodd" clip-rule="evenodd" d="M13.7125 5.01976H14.0223V5.03458C16.6218 5.03458 18.7465 4.0667 19.484 3.58275H17.1564L18.1243 2.40746L20.7745 1.76221H17.9861C16.9122 1.76221 16.6546 2.05486 16.206 2.56461C16.1059 2.67836 15.9962 2.80297 15.8659 2.9375C15.7687 3.0378 15.6622 3.13286 15.5504 3.22221C14.9635 2.9309 13.8989 2.55478 12.6595 2.55478H11.3458V2.72745C12.5304 2.91371 13.8682 3.26014 14.5259 3.843H13.1909L12.6701 4.18262H11.5167C11.3558 4.18262 11.2255 4.313 11.2255 4.47383H12.9873L13.7125 5.01976Z" fill="#F8D74C"/>
<path d="M16 5.90136L16.6163 8.50446L18.0858 6.26915L17.7747 8.92606L19.92 7.32814L18.7189 9.7184L21.2815 8.95061L19.3353 10.7859L22.0059 10.9409L19.5493 11.9999L22.0059 13.0589L19.3353 13.2138L21.2815 15.0491L18.7189 14.2813L19.92 16.6716L17.7747 15.0737L18.0858 17.7306L16.6163 15.4953L16 18.0984L15.3837 15.4953L13.9142 17.7306L14.2253 15.0737L12.08 16.6716L13.2811 14.2813L10.7185 15.0491L12.6647 13.2138L9.99414 13.0589L12.4507 11.9999L9.99414 10.9409L12.6647 10.7859L10.7185 8.95061L13.2811 9.7184L12.08 7.32814L14.2253 8.92606L13.9142 6.26915L15.3837 8.50446L16 5.90136Z" fill="#F8D74C"/>
<path d="M18.6262 7.45115L17.9649 9.65816L20.0236 8.62369L18.6473 10.4714L20.9357 10.2035L19.0105 11.4691L21.2524 11.9999L19.0105 12.5307L20.9357 13.7963L18.6473 13.5284L20.0236 15.3761L17.9649 14.3416L18.6262 16.5486L17.0455 14.8725L16.912 17.1725L16 15.0568L15.0879 17.1725L14.9544 14.8725L13.3738 16.5486L14.035 14.3416L11.9764 15.3761L13.3526 13.5284L11.0643 13.7963L12.9895 12.5307L10.7475 11.9999L12.9895 11.4691L11.0643 10.2035L13.3526 10.4714L11.9764 8.62369L14.035 9.65816L13.3738 7.45115L14.9544 9.12733L15.0879 6.82725L16 8.94298L16.912 6.82725L17.0455 9.12733L18.6262 7.45115Z" fill="#F8D74C"/>
<path fill-rule="evenodd" clip-rule="evenodd" d="M0.0605152 15.0517L-1.21289 14.4524L-0.787094 13.5476L0.486312 14.1469C0.890833 14.3372 1.35918 14.3372 1.7637 14.1469L2.18552 13.9484C2.85972 13.6311 3.6403 13.6311 4.3145 13.9484L4.73631 14.1469C5.14083 14.3372 5.60918 14.3372 6.0137 14.1469L6.43552 13.9484C7.10972 13.6311 7.8903 13.6311 8.5645 13.9484L8.98631 14.1469C9.39083 14.3372 9.85918 14.3372 10.2637 14.1469L10.6855 13.9484C11.3597 13.6311 12.1403 13.6311 12.8145 13.9484L13.2363 14.1469C13.6408 14.3372 14.1092 14.3372 14.5137 14.1469L14.9355 13.9484C15.6097 13.6311 16.3903 13.6311 17.0645 13.9484L17.4863 14.1469C17.8908 14.3372 18.3592 14.3372 18.7637 14.1469L19.1855 13.9484C19.8597 13.6311 20.6403 13.6311 21.3145 13.9484L21.7363 14.1469C22.1408 14.3372 22.6092 14.3372 23.0137 14.1469L23.4355 13.9484C24.1097 13.6311 24.8903 13.6311 25.5645 13.9484L25.9863 14.1469C26.3908 14.3372 26.8592 14.3372 27.2637 14.1469L27.6855 13.9484C28.3597 13.6311 29.1403 13.6311 29.8145 13.9484L30.2363 14.1469C30.6408 14.3372 31.1092 14.3372 31.5137 14.1469L32.7871 13.5476L33.2129 14.4524L31.9395 15.0517C31.2653 15.3689 30.4847 15.3689 29.8105 15.0517L29.3887 14.8532C28.9842 14.6628 28.5158 14.6628 28.1113 14.8532L27.6895 15.0517C27.0153 15.3689 26.2347 15.3689 25.5605 15.0517L25.1387 14.8532C24.7342 14.6628 24.2658 14.6628 23.8613 14.8532L23.4395 15.0517C22.7653 15.3689 21.9847 15.3689 21.3105 15.0517L20.8887 14.8532C20.4842 14.6628 20.0158 14.6628 19.6113 14.8532L19.1895 15.0517C18.5153 15.3689 17.7347 15.3689 17.0605 15.0517L16.6387 14.8532C16.2342 14.6628 15.7658 14.6628 15.3613 14.8532L14.9395 15.0517C14.2653 15.3689 13.4847 15.3689 12.8105 15.0517L12.3887 14.8532C11.9842 14.6628 11.5158 14.6628 11.1113 14.8532L10.6895 15.0517C10.0153 15.3689 9.23472 15.3689 8.56051 15.0517L8.1387 14.8532C7.73418 14.6628 7.26583 14.6628 6.86131 14.8532L6.4395 15.0517C5.7653 15.3689 4.98472 15.3689 4.31052 15.0517L3.8887 14.8532C3.48418 14.6628 3.01583 14.6628 2.61131 14.8532L2.1895 15.0517C1.5153 15.3689 0.734716 15.3689 0.0605152 15.0517Z" fill="#F9F9F9"/>
<path fill-rule="evenodd" clip-rule="evenodd" d="M0.0605152 16.0517L-1.21289 15.4524L-0.787094 14.5476L0.486312 15.1469C0.890833 15.3372 1.35918 15.3372 1.7637 15.1469L2.18552 14.9484C2.85972 14.6311 3.6403 14.6311 4.3145 14.9484L4.73631 15.1469C5.14083 15.3372 5.60918 15.3372 6.0137 15.1469L6.43552 14.9484C7.10972 14.6311 7.8903 14.6311 8.5645 14.9484L8.98631 15.1469C9.39083 15.3372 9.85918 15.3372 10.2637 15.1469L10.6855 14.9484C11.3597 14.6311 12.1403 14.6311 12.8145 14.9484L13.2363 15.1469C13.6408 15.3372 14.1092 15.3372 14.5137 15.1469L14.9355 14.9484C15.6097 14.6311 16.3903 14.6311 17.0645 14.9484L17.4863 15.1469C17.8908 15.3372 18.3592 15.3372 18.7637 15.1469L19.1855 14.9484C19.8597 14.6311 20.6403 14.6311 21.3145 14.9484L21.7363 15.1469C22.1408 15.3372 22.6092 15.3372 23.0137 15.1469L23.4355 14.9484C24.1097 14.6311 24.8903 14.6311 25.5645 14.9484L25.9863 15.1469C26.3908 15.3372 26.8592 15.3372 27.2637 15.1469L27.6855 14.9484C28.3597 14.6311 29.1403 14.6311 29.8145 14.9484L30.2363 15.1469C30.6408 15.3372 31.1092 15.3372 31.5137 15.1469L32.7871 14.5476L33.2129 15.4524L31.9395 16.0517C31.2653 16.3689 30.4847 16.3689 29.8105 16.0517L29.3887 15.8532C28.9842 15.6628 28.5158 15.6628 28.1113 15.8532L27.6895 16.0517C27.0153 16.3689 26.2347 16.3689 25.5605 16.0517L25.1387 15.8532C24.7342 15.6628 24.2658 15.6628 23.8613 15.8532L23.4395 16.0517C22.7653 16.3689 21.9847 16.3689 21.3105 16.0517L20.8887 15.8532C20.4842 15.6628 20.0158 15.6628 19.6113 15.8532L19.1895 16.0517C18.5153 16.3689 17.7347 16.3689 17.0605 16.0517L16.6387 15.8532C16.2342 15.6628 15.7658 15.6628 15.3613 15.8532L14.9395 16.0517C14.2653 16.3689 13.4847 16.3689 12.8105 16.0517L12.3887 15.8532C11.9842 15.6628 11.5158 15.6628 11.1113 15.8532L10.6895 16.0517C10.0153 16.3689 9.23472 16.3689 8.56051 16.0517L8.1387 15.8532C7.73418 15.6628 7.26583 15.6628 6.86131 15.8532L6.4395 16.0517C5.7653 16.3689 4.98472 16.3689 4.31052 16.0517L3.8887 15.8532C3.48418 15.6628 3.01583 15.6628 2.61131 15.8532L2.1895 16.0517C1.5153 16.3689 0.734716 16.3689 0.0605152 16.0517Z" fill="#485CC2"/>
<path fill-rule="evenodd" clip-rule="evenodd" d="M0.0605152 17.0517L-1.21289 16.4524L-0.787094 15.5476L0.486312 16.1469C0.890833 16.3372 1.35918 16.3372 1.7637 16.1469L2.18552 15.9484C2.85972 15.6311 3.6403 15.6311 4.3145 15.9484L4.73631 16.1469C5.14083 16.3372 5.60918 16.3372 6.0137 16.1469L6.43552 15.9484C7.10972 15.6311 7.8903 15.6311 8.5645 15.9484L8.98631 16.1469C9.39083 16.3372 9.85918 16.3372 10.2637 16.1469L10.6855 15.9484C11.3597 15.6311 12.1403 15.6311 12.8145 15.9484L13.2363 16.1469C13.6408 16.3372 14.1092 16.3372 14.5137 16.1469L14.9355 15.9484C15.6097 15.6311 16.3903 15.6311 17.0645 15.9484L17.4863 16.1469C17.8908 16.3372 18.3592 16.3372 18.7637 16.1469L19.1855 15.9484C19.8597 15.6311 20.6403 15.6311 21.3145 15.9484L21.7363 16.1469C22.1408 16.3372 22.6092 16.3372 23.0137 16.1469L23.4355 15.9484C24.1097 15.6311 24.8903 15.6311 25.5645 15.9484L25.9863 16.1469C26.3908 16.3372 26.8592 16.3372 27.2637 16.1469L27.6855 15.9484C28.3597 15.6311 29.1403 15.6311 29.8145 15.9484L30.2363 16.1469C30.6408 16.3372 31.1092 16.3372 31.5137 16.1469L32.7871 15.5476L33.2129 16.4524L31.9395 17.0517C31.2653 17.3689 30.4847 17.3689 29.8105 17.0517L29.3887 16.8532C28.9842 16.6628 28.5158 16.6628 28.1113 16.8532L27.6895 17.0517C27.0153 17.3689 26.2347 17.3689 25.5605 17.0517L25.1387 16.8532C24.7342 16.6628 24.2658 16.6628 23.8613 16.8532L23.4395 17.0517C22.7653 17.3689 21.9847 17.3689 21.3105 17.0517L20.8887 16.8532C20.4842 16.6628 20.0158 16.6628 19.6113 16.8532L19.1895 17.0517C18.5153 17.3689 17.7347 17.3689 17.0605 17.0517L16.6387 16.8532C16.2342 16.6628 15.7658 16.6628 15.3613 16.8532L14.9395 17.0517C14.2653 17.3689 13.4847 17.3689 12.8105 17.0517L12.3887 16.8532C11.9842 16.6628 11.5158 16.6628 11.1113 16.8532L10.6895 17.0517C10.0153 17.3689 9.23472 17.3689 8.56051 17.0517L8.1387 16.8532C7.73418 16.6628 7.26583 16.6628 6.86131 16.8532L6.4395 17.0517C5.7653 17.3689 4.98472 17.3689 4.31052 17.0517L3.8887 16.8532C3.48418 16.6628 3.01583 16.6628 2.61131 16.8532L2.1895 17.0517C1.5153 17.3689 0.734716 17.3689 0.0605152 17.0517Z" fill="#F9F9F9"/>
<path fill-rule="evenodd" clip-rule="evenodd" d="M0.0605152 18.0517L-1.21289 17.4524L-0.787094 16.5476L0.486312 17.1469C0.890833 17.3372 1.35918 17.3372 1.7637 17.1469L2.18552 16.9484C2.85972 16.6311 3.6403 16.6311 4.3145 16.9484L4.73631 17.1469C5.14083 17.3372 5.60918 17.3372 6.0137 17.1469L6.43552 16.9484C7.10972 16.6311 7.8903 16.6311 8.5645 16.9484L8.98631 17.1469C9.39083 17.3372 9.85918 17.3372 10.2637 17.1469L10.6855 16.9484C11.3597 16.6311 12.1403 16.6311 12.8145 16.9484L13.2363 17.1469C13.6408 17.3372 14.1092 17.3372 14.5137 17.1469L14.9355 16.9484C15.6097 16.6311 16.3903 16.6311 17.0645 16.9484L17.4863 17.1469C17.8908 17.3372 18.3592 17.3372 18.7637 17.1469L19.1855 16.9484C19.8597 16.6311 20.6403 16.6311 21.3145 16.9484L21.7363 17.1469C22.1408 17.3372 22.6092 17.3372 23.0137 17.1469L23.4355 16.9484C24.1097 16.6311 24.8903 16.6311 25.5645 16.9484L25.9863 17.1469C26.3908 17.3372 26.8592 17.3372 27.2637 17.1469L27.6855 16.9484C28.3597 16.6311 29.1403 16.6311 29.8145 16.9484L30.2363 17.1469C30.6408 17.3372 31.1092 17.3372 31.5137 17.1469L32.7871 16.5476L33.2129 17.4524L31.9395 18.0517C31.2653 18.3689 30.4847 18.3689 29.8105 18.0517L29.3887 17.8532C28.9842 17.6628 28.5158 17.6628 28.1113 17.8532L27.6895 18.0517C27.0153 18.3689 26.2347 18.3689 25.5605 18.0517L25.1387 17.8532C24.7342 17.6628 24.2658 17.6628 23.8613 17.8532L23.4395 18.0517C22.7653 18.3689 21.9847 18.3689 21.3105 18.0517L20.8887 17.8532C20.4842 17.6628 20.0158 17.6628 19.6113 17.8532L19.1895 18.0517C18.5153 18.3689 17.7347 18.3689 17.0605 18.0517L16.6387 17.8532C16.2342 17.6628 15.7658 17.6628 15.3613 17.8532L14.9395 18.0517C14.2653 18.3689 13.4847 18.3689 12.8105 18.0517L12.3887 17.8532C11.9842 17.6628 11.5158 17.6628 11.1113 17.8532L10.6895 18.0517C10.0153 18.3689 9.23472 18.3689 8.56051 18.0517L8.1387 17.8532C7.73418 17.6628 7.26583 17.6628 6.86131 17.8532L6.4395 18.0517C5.7653 18.3689 4.98472 18.3689 4.31052 18.0517L3.8887 17.8532C3.48418 17.6628 3.01583 17.6628 2.61131 17.8532L2.1895 18.0517C1.5153 18.3689 0.734716 18.3689 0.0605152 18.0517Z" fill="#485CC2"/>
<path fill-rule="evenodd" clip-rule="evenodd" d="M0.0605152 19.0517L-1.21289 18.4524L-0.787094 17.5476L0.486312 18.1469C0.890833 18.3372 1.35918 18.3372 1.7637 18.1469L2.18552 17.9484C2.85972 17.6311 3.6403 17.6311 4.3145 17.9484L4.73631 18.1469C5.14083 18.3372 5.60918 18.3372 6.0137 18.1469L6.43552 17.9484C7.10972 17.6311 7.8903 17.6311 8.5645 17.9484L8.98631 18.1469C9.39083 18.3372 9.85918 18.3372 10.2637 18.1469L10.6855 17.9484C11.3597 17.6311 12.1403 17.6311 12.8145 17.9484L13.2363 18.1469C13.6408 18.3372 14.1092 18.3372 14.5137 18.1469L14.9355 17.9484C15.6097 17.6311 16.3903 17.6311 17.0645 17.9484L17.4863 18.1469C17.8908 18.3372 18.3592 18.3372 18.7637 18.1469L19.1855 17.9484C19.8597 17.6311 20.6403 17.6311 21.3145 17.9484L21.7363 18.1469C22.1408 18.3372 22.6092 18.3372 23.0137 18.1469L23.4355 17.9484C24.1097 17.6311 24.8903 17.6311 25.5645 17.9484L25.9863 18.1469C26.3908 18.3372 26.8592 18.3372 27.2637 18.1469L27.6855 17.9484C28.3597 17.6311 29.1403 17.6311 29.8145 17.9484L30.2363 18.1469C30.6408 18.3372 31.1092 18.3372 31.5137 18.1469L32.7871 17.5476L33.2129 18.4524L31.9395 19.0517C31.2653 19.3689 30.4847 19.3689 29.8105 19.0517L29.3887 18.8532C28.9842 18.6628 28.5158 18.6628 28.1113 18.8532L27.6895 19.0517C27.0153 19.3689 26.2347 19.3689 25.5605 19.0517L25.1387 18.8532C24.7342 18.6628 24.2658 18.6628 23.8613 18.8532L23.4395 19.0517C22.7653 19.3689 21.9847 19.3689 21.3105 19.0517L20.8887 18.8532C20.4842 18.6628 20.0158 18.6628 19.6113 18.8532L19.1895 19.0517C18.5153 19.3689 17.7347 19.3689 17.0605 19.0517L16.6387 18.8532C16.2342 18.6628 15.7658 18.6628 15.3613 18.8532L14.9395 19.0517C14.2653 19.3689 13.4847 19.3689 12.8105 19.0517L12.3887 18.8532C11.9842 18.6628 11.5158 18.6628 11.1113 18.8532L10.6895 19.0517C10.0153 19.3689 9.23472 19.3689 8.56051 19.0517L8.1387 18.8532C7.73418 18.6628 7.26583 18.6628 6.86131 18.8532L6.4395 19.0517C5.7653 19.3689 4.98472 19.3689 4.31052 19.0517L3.8887 18.8532C3.48418 18.6628 3.01583 18.6628 2.61131 18.8532L2.1895 19.0517C1.5153 19.3689 0.734716 19.3689 0.0605152 19.0517Z" fill="#F9F9F9"/>
<path fill-rule="evenodd" clip-rule="evenodd" d="M0.0605152 20.0517L-1.21289 19.4524L-0.787094 18.5476L0.486312 19.1469C0.890833 19.3372 1.35918 19.3372 1.7637 19.1469L2.18552 18.9484C2.85972 18.6311 3.6403 18.6311 4.3145 18.9484L4.73631 19.1469C5.14083 19.3372 5.60918 19.3372 6.0137 19.1469L6.43552 18.9484C7.10972 18.6311 7.8903 18.6311 8.5645 18.9484L8.98631 19.1469C9.39083 19.3372 9.85918 19.3372 10.2637 19.1469L10.6855 18.9484C11.3597 18.6311 12.1403 18.6311 12.8145 18.9484L13.2363 19.1469C13.6408 19.3372 14.1092 19.3372 14.5137 19.1469L14.9355 18.9484C15.6097 18.6311 16.3903 18.6311 17.0645 18.9484L17.4863 19.1469C17.8908 19.3372 18.3592 19.3372 18.7637 19.1469L19.1855 18.9484C19.8597 18.6311 20.6403 18.6311 21.3145 18.9484L21.7363 19.1469C22.1408 19.3372 22.6092 19.3372 23.0137 19.1469L23.4355 18.9484C24.1097 18.6311 24.8903 18.6311 25.5645 18.9484L25.9863 19.1469C26.3908 19.3372 26.8592 19.3372 27.2637 19.1469L27.6855 18.9484C28.3597 18.6311 29.1403 18.6311 29.8145 18.9484L30.2363 19.1469C30.6408 19.3372 31.1092 19.3372 31.5137 19.1469L32.7871 18.5476L33.2129 19.4524L31.9395 20.0517C31.2653 20.3689 30.4847 20.3689 29.8105 20.0517L29.3887 19.8532C28.9842 19.6628 28.5158 19.6628 28.1113 19.8532L27.6895 20.0517C27.0153 20.3689 26.2347 20.3689 25.5605 20.0517L25.1387 19.8532C24.7342 19.6628 24.2658 19.6628 23.8613 19.8532L23.4395 20.0517C22.7653 20.3689 21.9847 20.3689 21.3105 20.0517L20.8887 19.8532C20.4842 19.6628 20.0158 19.6628 19.6113 19.8532L19.1895 20.0517C18.5153 20.3689 17.7347 20.3689 17.0605 20.0517L16.6387 19.8532C16.2342 19.6628 15.7658 19.6628 15.3613 19.8532L14.9395 20.0517C14.2653 20.3689 13.4847 20.3689 12.8105 20.0517L12.3887 19.8532C11.9842 19.6628 11.5158 19.6628 11.1113 19.8532L10.6895 20.0517C10.0153 20.3689 9.23472 20.3689 8.56051 20.0517L8.1387 19.8532C7.73418 19.6628 7.26583 19.6628 6.86131 19.8532L6.4395 20.0517C5.7653 20.3689 4.98472 20.3689 4.31052 20.0517L3.8887 19.8532C3.48418 19.6628 3.01583 19.6628 2.61131 19.8532L2.1895 20.0517C1.5153 20.3689 0.734716 20.3689 0.0605152 20.0517Z" fill="#485CC2"/>
<path fill-rule="evenodd" clip-rule="evenodd" d="M0.0605152 21.0517L-1.21289 20.4524L-0.787094 19.5476L0.486312 20.1469C0.890833 20.3372 1.35918 20.3372 1.7637 20.1469L2.18552 19.9484C2.85972 19.6311 3.6403 19.6311 4.3145 19.9484L4.73631 20.1469C5.14083 20.3372 5.60918 20.3372 6.0137 20.1469L6.43552 19.9484C7.10972 19.6311 7.8903 19.6311 8.5645 19.9484L8.98631 20.1469C9.39083 20.3372 9.85918 20.3372 10.2637 20.1469L10.6855 19.9484C11.3597 19.6311 12.1403 19.6311 12.8145 19.9484L13.2363 20.1469C13.6408 20.3372 14.1092 20.3372 14.5137 20.1469L14.9355 19.9484C15.6097 19.6311 16.3903 19.6311 17.0645 19.9484L17.4863 20.1469C17.8908 20.3372 18.3592 20.3372 18.7637 20.1469L19.1855 19.9484C19.8597 19.6311 20.6403 19.6311 21.3145 19.9484L21.7363 20.1469C22.1408 20.3372 22.6092 20.3372 23.0137 20.1469L23.4355 19.9484C24.1097 19.6311 24.8903 19.6311 25.5645 19.9484L25.9863 20.1469C26.3908 20.3372 26.8592 20.3372 27.2637 20.1469L27.6855 19.9484C28.3597 19.6311 29.1403 19.6311 29.8145 19.9484L30.2363 20.1469C30.6408 20.3372 31.1092 20.3372 31.5137 20.1469L32.7871 19.5476L33.2129 20.4524L31.9395 21.0517C31.2653 21.3689 30.4847 21.3689 29.8105 21.0517L29.3887 20.8532C28.9842 20.6628 28.5158 20.6628 28.1113 20.8532L27.6895 21.0517C27.0153 21.3689 26.2347 21.3689 25.5605 21.0517L25.1387 20.8532C24.7342 20.6628 24.2658 20.6628 23.8613 20.8532L23.4395 21.0517C22.7653 21.3689 21.9847 21.3689 21.3105 21.0517L20.8887 20.8532C20.4842 20.6628 20.0158 20.6628 19.6113 20.8532L19.1895 21.0517C18.5153 21.3689 17.7347 21.3689 17.0605 21.0517L16.6387 20.8532C16.2342 20.6628 15.7658 20.6628 15.3613 20.8532L14.9395 21.0517C14.2653 21.3689 13.4847 21.3689 12.8105 21.0517L12.3887 20.8532C11.9842 20.6628 11.5158 20.6628 11.1113 20.8532L10.6895 21.0517C10.0153 21.3689 9.23472 21.3689 8.56051 21.0517L8.1387 20.8532C7.73418 20.6628 7.26583 20.6628 6.86131 20.8532L6.4395 21.0517C5.7653 21.3689 4.98472 21.3689 4.31052 21.0517L3.8887 20.8532C3.48418 20.6628 3.01583 20.6628 2.61131 20.8532L2.1895 21.0517C1.5153 21.3689 0.734716 21.3689 0.0605152 21.0517Z" fill="#F9F9F9"/>
<path fill-rule="evenodd" clip-rule="evenodd" d="M0.0605152 22.0517L-1.21289 21.4524L-0.787094 20.5476L0.486312 21.1469C0.890833 21.3372 1.35918 21.3372 1.7637 21.1469L2.18552 20.9484C2.85972 20.6311 3.6403 20.6311 4.3145 20.9484L4.73631 21.1469C5.14083 21.3372 5.60918 21.3372 6.0137 21.1469L6.43552 20.9484C7.10972 20.6311 7.8903 20.6311 8.5645 20.9484L8.98631 21.1469C9.39083 21.3372 9.85918 21.3372 10.2637 21.1469L10.6855 20.9484C11.3597 20.6311 12.1403 20.6311 12.8145 20.9484L13.2363 21.1469C13.6408 21.3372 14.1092 21.3372 14.5137 21.1469L14.9355 20.9484C15.6097 20.6311 16.3903 20.6311 17.0645 20.9484L17.4863 21.1469C17.8908 21.3372 18.3592 21.3372 18.7637 21.1469L19.1855 20.9484C19.8597 20.6311 20.6403 20.6311 21.3145 20.9484L21.7363 21.1469C22.1408 21.3372 22.6092 21.3372 23.0137 21.1469L23.4355 20.9484C24.1097 20.6311 24.8903 20.6311 25.5645 20.9484L25.9863 21.1469C26.3908 21.3372 26.8592 21.3372 27.2637 21.1469L27.6855 20.9484C28.3597 20.6311 29.1403 20.6311 29.8145 20.9484L30.2363 21.1469C30.6408 21.3372 31.1092 21.3372 31.5137 21.1469L32.7871 20.5476L33.2129 21.4524L31.9395 22.0517C31.2653 22.3689 30.4847 22.3689 29.8105 22.0517L29.3887 21.8532C28.9842 21.6628 28.5158 21.6628 28.1113 21.8532L27.6895 22.0517C27.0153 22.3689 26.2347 22.3689 25.5605 22.0517L25.1387 21.8532C24.7342 21.6628 24.2658 21.6628 23.8613 21.8532L23.4395 22.0517C22.7653 22.3689 21.9847 22.3689 21.3105 22.0517L20.8887 21.8532C20.4842 21.6628 20.0158 21.6628 19.6113 21.8532L19.1895 22.0517C18.5153 22.3689 17.7347 22.3689 17.0605 22.0517L16.6387 21.8532C16.2342 21.6628 15.7658 21.6628 15.3613 21.8532L14.9395 22.0517C14.2653 22.3689 13.4847 22.3689 12.8105 22.0517L12.3887 21.8532C11.9842 21.6628 11.5158 21.6628 11.1113 21.8532L10.6895 22.0517C10.0153 22.3689 9.23472 22.3689 8.56051 22.0517L8.1387 21.8532C7.73418 21.6628 7.26583 21.6628 6.86131 21.8532L6.4395 22.0517C5.7653 22.3689 4.98472 22.3689 4.31052 22.0517L3.8887 21.8532C3.48418 21.6628 3.01583 21.6628 2.61131 21.8532L2.1895 22.0517C1.5153 22.3689 0.734716 22.3689 0.0605152 22.0517Z" fill="#485CC2"/>
<path fill-rule="evenodd" clip-rule="evenodd" d="M0.0605152 23.0517L-1.21289 22.4524L-0.787094 21.5476L0.486312 22.1469C0.890833 22.3372 1.35918 22.3372 1.7637 22.1469L2.18552 21.9484C2.85972 21.6311 3.6403 21.6311 4.3145 21.9484L4.73631 22.1469C5.14083 22.3372 5.60918 22.3372 6.0137 22.1469L6.43552 21.9484C7.10972 21.6311 7.8903 21.6311 8.5645 21.9484L8.98631 22.1469C9.39083 22.3372 9.85918 22.3372 10.2637 22.1469L10.6855 21.9484C11.3597 21.6311 12.1403 21.6311 12.8145 21.9484L13.2363 22.1469C13.6408 22.3372 14.1092 22.3372 14.5137 22.1469L14.9355 21.9484C15.6097 21.6311 16.3903 21.6311 17.0645 21.9484L17.4863 22.1469C17.8908 22.3372 18.3592 22.3372 18.7637 22.1469L19.1855 21.9484C19.8597 21.6311 20.6403 21.6311 21.3145 21.9484L21.7363 22.1469C22.1408 22.3372 22.6092 22.3372 23.0137 22.1469L23.4355 21.9484C24.1097 21.6311 24.8903 21.6311 25.5645 21.9484L25.9863 22.1469C26.3908 22.3372 26.8592 22.3372 27.2637 22.1469L27.6855 21.9484C28.3597 21.6311 29.1403 21.6311 29.8145 21.9484L30.2363 22.1469C30.6408 22.3372 31.1092 22.3372 31.5137 22.1469L32.7871 21.5476L33.2129 22.4524L31.9395 23.0517C31.2653 23.3689 30.4847 23.3689 29.8105 23.0517L29.3887 22.8532C28.9842 22.6628 28.5158 22.6628 28.1113 22.8532L27.6895 23.0517C27.0153 23.3689 26.2347 23.3689 25.5605 23.0517L25.1387 22.8532C24.7342 22.6628 24.2658 22.6628 23.8613 22.8532L23.4395 23.0517C22.7653 23.3689 21.9847 23.3689 21.3105 23.0517L20.8887 22.8532C20.4842 22.6628 20.0158 22.6628 19.6113 22.8532L19.1895 23.0517C18.5153 23.3689 17.7347 23.3689 17.0605 23.0517L16.6387 22.8532C16.2342 22.6628 15.7658 22.6628 15.3613 22.8532L14.9395 23.0517C14.2653 23.3689 13.4847 23.3689 12.8105 23.0517L12.3887 22.8532C11.9842 22.6628 11.5158 22.6628 11.1113 22.8532L10.6895 23.0517C10.0153 23.3689 9.23472 23.3689 8.56051 23.0517L8.1387 22.8532C7.73418 22.6628 7.26583 22.6628 6.86131 22.8532L6.4395 23.0517C5.7653 23.3689 4.98472 23.3689 4.31052 23.0517L3.8887 22.8532C3.48418 22.6628 3.01583 22.6628 2.61131 22.8532L2.1895 23.0517C1.5153 23.3689 0.734716 23.3689 0.0605152 23.0517Z" fill="#F9F9F9"/>
<path fill-rule="evenodd" clip-rule="evenodd" d="M0.0605152 24.0517L-1.21289 23.4524L-0.787094 22.5476L0.486312 23.1469C0.890833 23.3372 1.35918 23.3372 1.7637 23.1469L2.18552 22.9484C2.85972 22.6311 3.6403 22.6311 4.3145 22.9484L4.73631 23.1469C5.14083 23.3372 5.60918 23.3372 6.0137 23.1469L6.43552 22.9484C7.10972 22.6311 7.8903 22.6311 8.5645 22.9484L8.98631 23.1469C9.39083 23.3372 9.85918 23.3372 10.2637 23.1469L10.6855 22.9484C11.3597 22.6311 12.1403 22.6311 12.8145 22.9484L13.2363 23.1469C13.6408 23.3372 14.1092 23.3372 14.5137 23.1469L14.9355 22.9484C15.6097 22.6311 16.3903 22.6311 17.0645 22.9484L17.4863 23.1469C17.8908 23.3372 18.3592 23.3372 18.7637 23.1469L19.1855 22.9484C19.8597 22.6311 20.6403 22.6311 21.3145 22.9484L21.7363 23.1469C22.1408 23.3372 22.6092 23.3372 23.0137 23.1469L23.4355 22.9484C24.1097 22.6311 24.8903 22.6311 25.5645 22.9484L25.9863 23.1469C26.3908 23.3372 26.8592 23.3372 27.2637 23.1469L27.6855 22.9484C28.3597 22.6311 29.1403 22.6311 29.8145 22.9484L30.2363 23.1469C30.6408 23.3372 31.1092 23.3372 31.5137 23.1469L32.7871 22.5476L33.2129 23.4524L31.9395 24.0517C31.2653 24.3689 30.4847 24.3689 29.8105 24.0517L29.3887 23.8532C28.9842 23.6628 28.5158 23.6628 28.1113 23.8532L27.6895 24.0517C27.0153 24.3689 26.2347 24.3689 25.5605 24.0517L25.1387 23.8532C24.7342 23.6628 24.2658 23.6628 23.8613 23.8532L23.4395 24.0517C22.7653 24.3689 21.9847 24.3689 21.3105 24.0517L20.8887 23.8532C20.4842 23.6628 20.0158 23.6628 19.6113 23.8532L19.1895 24.0517C18.5153 24.3689 17.7347 24.3689 17.0605 24.0517L16.6387 23.8532C16.2342 23.6628 15.7658 23.6628 15.3613 23.8532L14.9395 24.0517C14.2653 24.3689 13.4847 24.3689 12.8105 24.0517L12.3887 23.8532C11.9842 23.6628 11.5158 23.6628 11.1113 23.8532L10.6895 24.0517C10.0153 24.3689 9.23472 24.3689 8.56051 24.0517L8.1387 23.8532C7.73418 23.6628 7.26583 23.6628 6.86131 23.8532L6.4395 24.0517C5.7653 24.3689 4.98472 24.3689 4.31052 24.0517L3.8887 23.8532C3.48418 23.6628 3.01583 23.6628 2.61131 23.8532L2.1895 24.0517C1.5153 24.3689 0.734716 24.3689 0.0605152 24.0517Z" fill="#485CC2"/>
<path d="M2 23.501H30V23.9999H2V23.501Z" fill="#485CC2"/>
</g>
<defs>
<clipPath id="clip0_440_1602">
<rect width="32" height="24" rx="2" fill="white"/>
</clipPath>
</defs>
</svg>
