<svg width="32" height="24" viewBox="0 0 32 24" fill="none" xmlns="http://www.w3.org/2000/svg">
<g clip-path="url(#clip0_440_1614)">
<rect width="32" height="24" rx="2" fill="#485CC2"/>
<path d="M32 0L1.90735e-06 22.2155V23.1066L32 3.89112V0Z" fill="#E77D42"/>
<path d="M32 0L1.90735e-06 22.2155V23.1066L32 3.89112V0Z" fill="#E77D42"/>
<path d="M32 3.88818L1.90735e-06 23.11V24.0011L32 7.7793V3.88818Z" fill="#F9F9F9"/>
<path d="M32 3.88818L1.90735e-06 23.11V24.0011L32 7.7793V3.88818Z" fill="#F9F9F9"/>
<path fill-rule="evenodd" clip-rule="evenodd" d="M8.12274 6.72284L8 4L7.87723 6.72346L7.75376 7.60331L6.92213 6.03847L7.29093 7.77177L5.97425 6.58573L6.91363 8.08836L5.2707 7.42419L6.66736 8.51491L4.89635 8.4527L6.14527 8.85822L3 9L6.14508 9.14177L4.89635 9.54723L6.66736 9.48502L5.2707 10.5757L6.91363 9.91157L5.97425 11.4142L7.29093 10.2282L6.92213 11.9615L7.75376 10.3966L7.87723 11.2764L8 14L8.12274 11.2771L8.2463 10.3966L9.07793 11.9615L8.70913 10.2282L10.0258 11.4142L9.08643 9.91157L10.7294 10.5757L9.3327 9.48502L11.1037 9.54723L9.85497 9.14177L13 9L9.85478 8.85822L11.1037 8.4527L9.3327 8.51491L10.7294 7.42419L9.08643 8.08836L10.0258 6.58573L8.70913 7.77177L9.07793 6.03847L8.2463 7.60331L8.12274 6.72284Z" fill="#F9F9F9"/>
</g>
<defs>
<clipPath id="clip0_440_1614">
<rect width="32" height="24" rx="2" fill="white"/>
</clipPath>
</defs>
</svg>
