<svg width="24" height="24" viewBox="0 0 24 24" fill="none" xmlns="http://www.w3.org/2000/svg">
<rect width="24" height="24" rx="12" fill="#64BEDB"/>
<path d="M6.99999 9.5L7.52899 11.2719L9.37763 11.2275L7.85594 12.2781L8.46945 14.0225L6.99999 12.9L5.53052 14.0225L6.14404 12.2781L4.62234 11.2275L6.47098 11.2719L6.99999 9.5Z" fill="#F9F9F9"/>
<path d="M17 9.5L17.529 11.2719L19.3776 11.2275L17.8559 12.2781L18.4694 14.0225L17 12.9L15.5305 14.0225L16.144 12.2781L14.6223 11.2275L16.471 11.2719L17 9.5Z" fill="#F9F9F9"/>
<path d="M12 4.5L12.529 6.27188L14.3776 6.22746L12.8559 7.27812L13.4694 9.02254L12 7.9L10.5305 9.02254L11.144 7.27812L9.62234 6.22746L11.471 6.27188L12 4.5Z" fill="#F9F9F9"/>
<path d="M12 14.5L12.529 16.2719L14.3776 16.2275L12.8559 17.2781L13.4694 19.0225L12 17.9L10.5305 19.0225L11.144 17.2781L9.62234 16.2275L11.471 16.2719L12 14.5Z" fill="#F9F9F9"/>
</svg>
