<svg width="32" height="24" viewBox="0 0 32 24" fill="none" xmlns="http://www.w3.org/2000/svg">
<rect width="32" height="24" rx="2" fill="#64BEDB"/>
<path d="M11 9.5L11.529 11.2719L13.3776 11.2275L11.8559 12.2781L12.4694 14.0225L11 12.9L9.53052 14.0225L10.144 12.2781L8.62234 11.2275L10.471 11.2719L11 9.5Z" fill="#F9F9F9"/>
<path d="M21 9.5L21.529 11.2719L23.3776 11.2275L21.8559 12.2781L22.4694 14.0225L21 12.9L19.5305 14.0225L20.144 12.2781L18.6223 11.2275L20.471 11.2719L21 9.5Z" fill="#F9F9F9"/>
<path d="M16 4.5L16.529 6.27188L18.3776 6.22746L16.8559 7.27812L17.4694 9.02254L16 7.9L14.5305 9.02254L15.144 7.27812L13.6223 6.22746L15.471 6.27188L16 4.5Z" fill="#F9F9F9"/>
<path d="M16 14.5L16.529 16.2719L18.3776 16.2275L16.8559 17.2781L17.4694 19.0225L16 17.9L14.5305 19.0225L15.144 17.2781L13.6223 16.2275L15.471 16.2719L16 14.5Z" fill="#F9F9F9"/>
</svg>
