<svg width="24" height="24" viewBox="0 0 24 24" fill="none" xmlns="http://www.w3.org/2000/svg">
<g clip-path="url(#clip0_440_1594)">
<rect width="24" height="24" rx="12" fill="#485CC2"/>
<path d="M24 10L24 14L-1.74846e-07 14L0 10L24 10Z" fill="#F8D74C"/>
<path d="M8 16L8.34941 17.696L9.5 16.4019L8.95459 18.0454L10.5981 17.5L9.304 18.6506L11 19L9.304 19.3494L10.5981 20.5L8.95459 19.9546L9.5 21.5981L8.34941 20.304L8 22L7.65059 20.304L6.5 21.5981L7.04541 19.9546L5.40192 20.5L6.696 19.3494L5 19L6.696 18.6506L5.40192 17.5L7.04541 18.0454L6.5 16.4019L7.65059 17.696L8 16Z" fill="#F9F9F9"/>
</g>
<defs>
<clipPath id="clip0_440_1594">
<rect width="24" height="24" rx="12" fill="white"/>
</clipPath>
</defs>
</svg>
