<svg width="24" height="24" viewBox="0 0 24 24" fill="none" xmlns="http://www.w3.org/2000/svg">
<rect width="24" height="24" rx="2" fill="#485CC2"/>
<g clip-path="url(#clip0_440_1615)">
<rect width="13" height="11" fill="#485CC2"/>
<path fill-rule="evenodd" clip-rule="evenodd" d="M13.6094 0.916585L0.609375 11.9166L-0.609375 10.0833L12.3906 -0.916748L13.6094 0.916585Z" fill="#F9F9F9"/>
<path fill-rule="evenodd" clip-rule="evenodd" d="M-0.609375 0.916585L12.3906 11.9166L13.6094 10.0833L0.609375 -0.916748L-0.609375 0.916585Z" fill="#F9F9F9"/>
<path fill-rule="evenodd" clip-rule="evenodd" d="M12.8172 11.7333L-0.182813 0.733252L0.182813 0.183252L13.1828 11.1833L12.8172 11.7333Z" fill="#D74B4B"/>
<path fill-rule="evenodd" clip-rule="evenodd" d="M-0.225756 11.7352L13.5867 0.276861L13.2258 -0.277024L-0.586744 11.1813L-0.225756 11.7352Z" fill="#D74B4B"/>
<path d="M7.71875 1.20206e-07L7.71875 11H5.28125L5.28125 0L7.71875 1.20206e-07Z" fill="#F9F9F9"/>
<path d="M0 4.125H13V6.875H0V4.125Z" fill="#F9F9F9"/>
<path d="M0 4.58333H13V6.41667H0V4.58333Z" fill="#D74B4B"/>
<path d="M7.3125 8.01377e-08L7.3125 11H5.6875L5.6875 0L7.3125 8.01377e-08Z" fill="#D74B4B"/>
</g>
<path d="M15.8629 8L16.198 9.03886L17.2895 9.03647L16.405 9.67614L16.7446 10.7135L15.8629 10.07L14.9812 10.7135L15.3208 9.67614L14.4363 9.03647L15.5279 9.03886L15.8629 8Z" fill="#D74B4B"/>
<path d="M19.0102 3.22656L19.3452 4.26542L20.4368 4.26304L19.5523 4.9027L19.8919 5.94009L19.0102 5.29656L18.1285 5.94009L18.4681 4.9027L17.5836 4.26304L18.6752 4.26542L19.0102 3.22656Z" fill="#D74B4B"/>
<path d="M19.0102 16.071L19.3452 17.1099L20.4368 17.1075L19.5523 17.7472L19.8919 18.7846L19.0102 18.141L18.1285 18.7846L18.4681 17.7472L17.5836 17.1075L18.6752 17.1099L19.0102 16.071Z" fill="#D74B4B"/>
<path d="M21.2783 8L21.6133 9.03886L22.7049 9.03647L21.8204 9.67614L22.1599 10.7135L21.2783 10.07L20.3966 10.7135L20.7362 9.67614L19.8517 9.03647L20.9432 9.03886L21.2783 8Z" fill="#D74B4B"/>
<defs>
<clipPath id="clip0_440_1615">
<rect width="13" height="11" fill="white"/>
</clipPath>
</defs>
</svg>
