<svg width="24" height="24" viewBox="0 0 24 24" fill="none" xmlns="http://www.w3.org/2000/svg">
<g clip-path="url(#clip0_440_1590)">
<rect width="24" height="24" rx="12" fill="#D74B4B"/>
<path d="M0 16H24V24H0V16Z" fill="#3FB47C"/>
<path d="M0 0H24V8H0V0Z" fill="#485CC2"/>
<mask id="mask0_440_1590" style="mask-type:alpha" maskUnits="userSpaceOnUse" x="2" y="4" width="16" height="16">
<path d="M18 12C18 16.4183 14.4183 20 10 20C5.58172 20 2 16.4183 2 12C2 7.58172 5.58172 4 10 4C14.4183 4 18 7.58172 18 12Z" fill="#F8D74C"/>
</mask>
<g mask="url(#mask0_440_1590)">
<path d="M18 12C18 16.4183 14.4183 20 10 20C5.58172 20 2 16.4183 2 12C2 7.58172 5.58172 4 10 4C14.4183 4 18 7.58172 18 12Z" fill="#F8D74C"/>
<path fill-rule="evenodd" clip-rule="evenodd" d="M10.1651 4.03101H9.87559V6.12077C9.70724 6.19907 9.53619 6.26989 9.36916 6.32866C8.64916 6.582 8.65805 7.43422 8.75249 7.82866C8.83834 7.68559 9.20256 7.4934 9.64211 7.26145C9.71804 7.22138 9.79621 7.18013 9.87559 7.13773V8.30786C9.36435 8.38675 8.97292 8.82866 8.97292 9.362C8.97292 9.89533 9.36435 10.3372 9.87559 10.4161V10.6951C9.49613 10.6868 9.14885 10.4773 8.96493 10.1439L8.20248 8.762V10.1453C8.20248 10.7344 8.68004 11.212 9.26915 11.212H9.87559V11.5599H8.50503V11.8494H9.87559V12.0204C9.36435 12.0734 8.97292 12.3703 8.97292 12.7287C8.97292 13.087 9.36435 13.3839 9.87559 13.4369V13.6076H8.50503V13.897H9.87559V14.1453H9.26915C8.68004 14.1453 8.20248 14.6229 8.20248 15.212L8.20248 16.5953L8.96493 15.2134C9.14885 14.88 9.49613 14.6705 9.87559 14.6622V15.0438C9.36435 15.1424 8.97292 15.6949 8.97292 16.3617C8.97292 17.0285 9.36435 17.581 9.87559 17.6797V18.2919H9.73214C8.50618 18.2919 7.38798 18.9924 6.85295 20.0954L6.75346 20.3005L8.35611 20.7508H9.91819H11.5092L13.2466 20.3005L13.1734 20.1432C12.6487 19.0141 11.5166 18.2919 10.2715 18.2919H10.1651V17.6862C10.695 17.6086 11.1063 17.0452 11.1063 16.3617C11.1063 15.6783 10.695 15.1149 10.1651 15.0373V14.6694C10.5038 14.7095 10.8061 14.9103 10.9734 15.2134L11.7358 16.5953V15.212C11.7358 14.6229 11.2583 14.1453 10.6691 14.1453H10.1651V13.897H11.5819V13.6076H10.1651V13.4404C10.695 13.3987 11.1063 13.0959 11.1063 12.7287C11.1063 12.3614 10.695 12.0586 10.1651 12.0169V11.8494H11.5819V11.5599H10.1651V11.212H10.6691C11.2583 11.212 11.7358 10.7344 11.7358 10.1453V8.762L10.9734 10.1439C10.8061 10.4471 10.5038 10.6478 10.1651 10.6879V10.4214C10.695 10.3593 11.1063 9.90865 11.1063 9.362C11.1063 8.81534 10.695 8.36473 10.1651 8.30263V6.98011C10.3367 6.88435 10.5081 6.78371 10.6691 6.67866C11.2825 6.27866 11.3914 5.42311 11.3691 5.04533C11.3103 5.2573 10.7854 5.65231 10.1651 5.97759V4.03101Z" fill="#333333"/>
</g>
</g>
<defs>
<clipPath id="clip0_440_1590">
<rect width="24" height="24" rx="12" fill="white"/>
</clipPath>
</defs>
</svg>
