<svg width="32" height="24" viewBox="0 0 32 24" fill="none" xmlns="http://www.w3.org/2000/svg">
<g clip-path="url(#clip0_440_1593)">
<rect width="32" height="24" rx="2" fill="#D74B4B"/>
<path d="M0 16H32V24H0V16Z" fill="#3FB47C"/>
<path d="M0 0H32V8H0V0Z" fill="#485CC2"/>
<mask id="mask0_440_1593" style="mask-type:alpha" maskUnits="userSpaceOnUse" x="6" y="4" width="16" height="16">
<path d="M22 12C22 16.4183 18.4183 20 14 20C9.58172 20 6 16.4183 6 12C6 7.58172 9.58172 4 14 4C18.4183 4 22 7.58172 22 12Z" fill="#F8D74C"/>
</mask>
<g mask="url(#mask0_440_1593)">
<path d="M22 12C22 16.4183 18.4183 20 14 20C9.58172 20 6 16.4183 6 12C6 7.58172 9.58172 4 14 4C18.4183 4 22 7.58172 22 12Z" fill="#F8D74C"/>
<path fill-rule="evenodd" clip-rule="evenodd" d="M14.165 4.03101H13.8756V6.12077C13.7072 6.19907 13.5362 6.26989 13.3692 6.32866C12.6492 6.582 12.658 7.43422 12.7525 7.82866C12.8383 7.68559 13.2026 7.4934 13.6421 7.26145C13.718 7.22138 13.7962 7.18013 13.8756 7.13773V8.30786C13.3643 8.38675 12.9729 8.82866 12.9729 9.362C12.9729 9.89533 13.3643 10.3372 13.8756 10.4161V10.6951C13.4961 10.6868 13.1488 10.4773 12.9649 10.1439L12.2025 8.762V10.1453C12.2025 10.7344 12.68 11.212 13.2691 11.212H13.8756V11.5599H12.505V11.8494H13.8756V12.0204C13.3643 12.0734 12.9729 12.3703 12.9729 12.7287C12.9729 13.087 13.3643 13.3839 13.8756 13.4369V13.6076H12.505V13.897H13.8756V14.1453H13.2691C12.68 14.1453 12.2025 14.6229 12.2025 15.212L12.2025 16.5953L12.9649 15.2134C13.1488 14.88 13.4961 14.6705 13.8756 14.6622V15.0438C13.3643 15.1424 12.9729 15.6949 12.9729 16.3617C12.9729 17.0285 13.3643 17.581 13.8756 17.6797V18.2919H13.7321C12.5062 18.2919 11.388 18.9924 10.8529 20.0954L10.7535 20.3005L12.3561 20.7508H13.9182H15.5092L17.2465 20.3005L17.1734 20.1432C16.6487 19.0141 15.5166 18.2919 14.2715 18.2919H14.165V17.6862C14.695 17.6086 15.1063 17.0452 15.1063 16.3617C15.1063 15.6783 14.695 15.1149 14.165 15.0373V14.6694C14.5038 14.7095 14.8061 14.9103 14.9734 15.2134L15.7358 16.5953V15.212C15.7358 14.6229 15.2582 14.1453 14.6691 14.1453H14.165V13.897H15.5819V13.6076H14.165V13.4404C14.695 13.3987 15.1063 13.0959 15.1063 12.7287C15.1063 12.3614 14.695 12.0586 14.165 12.0169V11.8494H15.5819V11.5599H14.165V11.212H14.6691C15.2582 11.212 15.7358 10.7344 15.7358 10.1453V8.762L14.9734 10.1439C14.8061 10.4471 14.5038 10.6478 14.165 10.6879V10.4214C14.695 10.3593 15.1063 9.90865 15.1063 9.362C15.1063 8.81534 14.695 8.36473 14.165 8.30263V6.98011C14.3367 6.88435 14.5081 6.78371 14.6691 6.67866C15.2825 6.27866 15.3914 5.42311 15.3691 5.04533C15.3103 5.2573 14.7854 5.65231 14.165 5.97759V4.03101Z" fill="#333333"/>
</g>
</g>
<defs>
<clipPath id="clip0_440_1593">
<rect width="32" height="24" rx="2" fill="white"/>
</clipPath>
</defs>
</svg>
