<svg width="32" height="24" viewBox="0 0 32 24" fill="none" xmlns="http://www.w3.org/2000/svg">
<rect width="32" height="24" rx="2" fill="#F8D74C"/>
<g clip-path="url(#clip0_440_1586)">
<rect width="16" height="12" fill="#485CC2"/>
<path fill-rule="evenodd" clip-rule="evenodd" d="M16.75 1L0.75 13L-0.75 11L15.25 -1L16.75 1Z" fill="#F9F9F9"/>
<path fill-rule="evenodd" clip-rule="evenodd" d="M-0.75 1L15.25 13L16.75 11L0.75 -1L-0.75 1Z" fill="#F9F9F9"/>
<path fill-rule="evenodd" clip-rule="evenodd" d="M15.775 12.8L-0.225 0.8L0.225 0.2L16.225 12.2L15.775 12.8Z" fill="#D74B4B"/>
<path fill-rule="evenodd" clip-rule="evenodd" d="M-0.277853 12.8021L16.7221 0.302119L16.2779 -0.302119L-0.722147 12.1979L-0.277853 12.8021Z" fill="#D74B4B"/>
<path d="M9.5 1.31134e-07L9.5 12H6.5L6.5 0L9.5 1.31134e-07Z" fill="#F9F9F9"/>
<path d="M0 4.5H16V7.5H0V4.5Z" fill="#F9F9F9"/>
<path d="M0 5H16V7H0V5Z" fill="#D74B4B"/>
<path d="M9 8.74229e-08L9 12H7L7 0L9 8.74229e-08Z" fill="#D74B4B"/>
<path d="M8.00001 2L8.21161 2.70875L8.95106 2.69098L8.34239 3.11125L8.58779 3.80902L8.00001 3.36L7.41222 3.80902L7.65763 3.11125L7.04895 2.69098L7.7884 2.70875L8.00001 2Z" fill="#F8D74C"/>
<path d="M8.00001 8L8.21161 8.70875L8.95106 8.69098L8.34239 9.11125L8.58779 9.80902L8.00001 9.36L7.41222 9.80902L7.65763 9.11125L7.04895 8.69098L7.7884 8.70875L8.00001 8Z" fill="#F8D74C"/>
<path d="M5.00001 5L5.21161 5.70875L5.95106 5.69098L5.34239 6.11125L5.58779 6.80902L5.00001 6.36L4.41222 6.80902L4.65763 6.11125L4.04895 5.69098L4.7884 5.70875L5.00001 5Z" fill="#F8D74C"/>
<path d="M11 5L11.2116 5.70875L11.9511 5.69098L11.3424 6.11125L11.5878 6.80902L11 6.36L10.4122 6.80902L10.6576 6.11125L10.049 5.69098L10.7884 5.70875L11 5Z" fill="#F8D74C"/>
<rect x="6.5" y="4.5" width="3" height="3" rx="1.5" fill="#485CC2"/>
<path d="M8.00001 5L8.21161 5.70875L8.95106 5.69098L8.34239 6.11125L8.58779 6.80902L8.00001 6.36L7.41222 6.80902L7.65763 6.11125L7.04895 5.69098L7.7884 5.70875L8.00001 5Z" fill="#F8D74C"/>
</g>
<defs>
<clipPath id="clip0_440_1586">
<rect width="16" height="12" fill="white"/>
</clipPath>
</defs>
</svg>
