<svg width="24" height="24" viewBox="0 0 24 24" fill="none" xmlns="http://www.w3.org/2000/svg">
<rect width="24" height="24" rx="12" fill="#F8D74C"/>
<g clip-path="url(#clip0_440_1584)">
<rect width="13" height="11" fill="#485CC2"/>
<path fill-rule="evenodd" clip-rule="evenodd" d="M13.6094 0.916585L0.609375 11.9166L-0.609375 10.0833L12.3906 -0.916748L13.6094 0.916585Z" fill="#F9F9F9"/>
<path fill-rule="evenodd" clip-rule="evenodd" d="M-0.609375 0.916585L12.3906 11.9166L13.6094 10.0833L0.609375 -0.916748L-0.609375 0.916585Z" fill="#F9F9F9"/>
<path fill-rule="evenodd" clip-rule="evenodd" d="M12.8172 11.7333L-0.182813 0.733252L0.182813 0.183252L13.1828 11.1833L12.8172 11.7333Z" fill="#D74B4B"/>
<path fill-rule="evenodd" clip-rule="evenodd" d="M-0.225756 11.7352L13.5867 0.276861L13.2258 -0.277024L-0.586744 11.1813L-0.225756 11.7352Z" fill="#D74B4B"/>
<path d="M7.71875 1.20206e-07L7.71875 11H5.28125L5.28125 0L7.71875 1.20206e-07Z" fill="#F9F9F9"/>
<path d="M0 4.125H13V6.875H0V4.125Z" fill="#F9F9F9"/>
<path d="M0 4.58333H13V6.41667H0V4.58333Z" fill="#D74B4B"/>
<path d="M7.3125 8.01377e-08L7.3125 11H5.6875L5.6875 0L7.3125 8.01377e-08Z" fill="#D74B4B"/>
<path d="M6.50001 1.59546L6.71161 2.30421L7.45106 2.28644L6.84239 2.70671L7.08779 3.40448L6.50001 2.95546L5.91222 3.40448L6.15763 2.70671L5.54895 2.28644L6.2884 2.30421L6.50001 1.59546Z" fill="#F8D74C"/>
<path d="M6.50001 7.59546L6.71161 8.30421L7.45106 8.28644L6.84239 8.70671L7.08779 9.40448L6.50001 8.95546L5.91222 9.40448L6.15763 8.70671L5.54895 8.28644L6.2884 8.30421L6.50001 7.59546Z" fill="#F8D74C"/>
<path d="M3.50001 4.59546L3.71161 5.30421L4.45106 5.28644L3.84239 5.70671L4.08779 6.40448L3.50001 5.95546L2.91222 6.40448L3.15763 5.70671L2.54895 5.28644L3.2884 5.30421L3.50001 4.59546Z" fill="#F8D74C"/>
<path d="M9.50001 4.59546L9.71161 5.30421L10.4511 5.28644L9.84239 5.70671L10.0878 6.40448L9.50001 5.95546L8.91222 6.40448L9.15763 5.70671L8.54895 5.28644L9.2884 5.30421L9.50001 4.59546Z" fill="#F8D74C"/>
<rect x="5" y="4.09546" width="3" height="3" rx="1.5" fill="#485CC2"/>
<path d="M6.50001 4.59546L6.71161 5.30421L7.45106 5.28644L6.84239 5.70671L7.08779 6.40448L6.50001 5.95546L5.91222 6.40448L6.15763 5.70671L5.54895 5.28644L6.2884 5.30421L6.50001 4.59546Z" fill="#F8D74C"/>
</g>
<defs>
<clipPath id="clip0_440_1584">
<rect width="13" height="11" fill="white"/>
</clipPath>
</defs>
</svg>
