<svg width="24" height="24" viewBox="0 0 24 24" fill="none" xmlns="http://www.w3.org/2000/svg">
<rect width="24" height="24" rx="12" fill="#485CC2"/>
<path d="M11.2554 2.68683C11.2554 2.27555 11.5888 1.94214 12.0001 1.94214C12.4113 1.94214 12.7447 2.27555 12.7447 2.68683V4.38153C12.7447 4.79281 12.4113 5.12621 12.0001 5.12621C11.5888 5.12621 11.2554 4.79281 11.2554 4.38153V2.68683Z" fill="#F9F9F9"/>
<path d="M11.2554 19.2239C11.2554 18.8127 11.5888 18.4792 12.0001 18.4792C12.4113 18.4792 12.7447 18.8127 12.7447 19.2239V20.9186C12.7447 21.3299 12.4113 21.6633 12.0001 21.6633C11.5888 21.6633 11.2554 21.3299 11.2554 20.9186V19.2239Z" fill="#F9F9F9"/>
<path d="M11.2554 2.68683C11.2554 2.27555 11.5888 1.94214 12 1.94214C12.4113 1.94214 12.7447 2.27555 12.7447 2.68683V4.38153C12.7447 4.79281 12.4113 5.12621 12 5.12621C11.5888 5.12621 11.2554 4.79281 11.2554 4.38153V2.68683Z" fill="#F9F9F9"/>
<path d="M11.2554 19.2239C11.2554 18.8127 11.5888 18.4792 12 18.4792C12.4113 18.4792 12.7447 18.8127 12.7447 19.2239V20.9186C12.7447 21.3299 12.4113 21.6633 12 21.6633C11.5888 21.6633 11.2554 21.3299 11.2554 20.9186V19.2239Z" fill="#F9F9F9"/>
<path d="M12.7447 20.0713C12.7447 20.4826 12.4113 20.816 12 20.816C11.5888 20.816 11.2554 20.4826 11.2554 20.0713C11.2554 19.66 11.5888 19.3266 12 19.3266C12.4113 19.3266 12.7447 19.66 12.7447 20.0713Z" fill="#F8D74C"/>
<path d="M12.7447 3.53424C12.7447 3.94552 12.4113 4.27893 12 4.27893C11.5888 4.27893 11.2554 3.94552 11.2554 3.53424C11.2554 3.12296 11.5888 2.78955 12 2.78955C12.4113 2.78955 12.7447 3.12296 12.7447 3.53424Z" fill="#D74B4B"/>
<path d="M13.6401 2.80476C13.7465 2.4075 14.1549 2.17174 14.5521 2.27819C14.9494 2.38464 15.1851 2.79298 15.0787 3.19024L14.6401 4.82719C14.5336 5.22446 14.1253 5.46022 13.728 5.35377C13.3308 5.24732 13.095 4.83898 13.2015 4.44172L13.6401 2.80476Z" fill="#F9F9F9"/>
<path d="M9.35995 18.7784C9.4664 18.3811 9.87474 18.1454 10.272 18.2518C10.6693 18.3583 10.905 18.7666 10.7986 19.1639L10.36 20.8008C10.2535 21.1981 9.84517 21.4338 9.44791 21.3274C9.05064 21.2209 8.81489 20.8126 8.92133 20.4153L9.35995 18.7784Z" fill="#F9F9F9"/>
<path d="M10.5793 19.9823C10.4728 20.3796 10.0645 20.6154 9.66722 20.5089C9.26995 20.4025 9.0342 19.9941 9.14064 19.5969C9.24709 19.1996 9.65543 18.9638 10.0527 19.0703C10.45 19.1767 10.6857 19.5851 10.5793 19.9823Z" fill="#D74B4B"/>
<path d="M14.8594 4.00878C14.7529 4.40605 14.3446 4.6418 13.9473 4.53536C13.5501 4.42891 13.3143 4.02057 13.4207 3.6233C13.5272 3.22603 13.9355 2.99028 14.3328 3.09673C14.7301 3.20317 14.9658 3.61151 14.8594 4.00878Z" fill="#F8D74C"/>
<path d="M15.913 3.53579C16.1187 3.17961 16.5741 3.05757 16.9303 3.26321C17.2865 3.46885 17.4085 3.9243 17.2029 4.28048L16.3555 5.74813C16.1499 6.10431 15.6944 6.22634 15.3383 6.0207C14.9821 5.81506 14.8601 5.35962 15.0657 5.00344L15.913 3.53579Z" fill="#F9F9F9"/>
<path d="M7.64449 17.8573C7.85013 17.5012 8.30557 17.3791 8.66175 17.5848C9.01793 17.7904 9.13997 18.2459 8.93433 18.602L8.08698 20.0697C7.88134 20.4259 7.42589 20.5479 7.06971 20.3423C6.71354 20.1366 6.5915 19.6812 6.79714 19.325L7.64449 17.8573Z" fill="#F9F9F9"/>
<path d="M8.51065 19.3359C8.30501 19.692 7.84957 19.8141 7.49339 19.6084C7.13721 19.4028 7.01517 18.9474 7.22081 18.5912C7.42645 18.235 7.8819 18.113 8.23808 18.3186C8.59426 18.5242 8.71629 18.9797 8.51065 19.3359Z" fill="#F8D74C"/>
<path d="M16.7792 5.01436C16.5735 5.37054 16.1181 5.49258 15.7619 5.28694C15.4057 5.08129 15.2837 4.62585 15.4893 4.26967C15.695 3.91349 16.1504 3.79145 16.5066 3.99709C16.8628 4.20274 16.9848 4.65818 16.7792 5.01436Z" fill="#D74B4B"/>
<path d="M17.9193 4.83029C18.2102 4.53947 18.6817 4.53947 18.9725 4.83028C19.2633 5.1211 19.2633 5.59261 18.9725 5.88343L17.7742 7.08177C17.4833 7.37258 17.0118 7.37258 16.721 7.08177C16.4302 6.79095 16.4302 6.31944 16.721 6.02862L17.9193 4.83029Z" fill="#F9F9F9"/>
<path d="M6.22583 16.5238C6.51665 16.233 6.98816 16.233 7.27898 16.5238C7.5698 16.8146 7.5698 17.2861 7.27898 17.5769L6.08065 18.7753C5.78983 19.0661 5.31832 19.0661 5.0275 18.7753C4.73668 18.4844 4.73668 18.0129 5.0275 17.7221L6.22583 16.5238Z" fill="#F9F9F9"/>
<path d="M6.67982 18.1761C6.389 18.4669 5.91749 18.4669 5.62667 18.1761C5.33585 17.8853 5.33585 17.4138 5.62667 17.123C5.91749 16.8321 6.389 16.8321 6.67982 17.123C6.97064 17.4138 6.97064 17.8853 6.67982 18.1761Z" fill="#D74B4B"/>
<path d="M18.3733 6.48265C18.0825 6.77347 17.6109 6.77347 17.3201 6.48265C17.0293 6.19183 17.0293 5.72032 17.3201 5.4295C17.6109 5.13868 18.0825 5.13868 18.3733 5.4295C18.6641 5.72032 18.6641 6.19183 18.3733 6.48265Z" fill="#F8D74C"/>
<path d="M19.5223 6.60014C19.8785 6.3945 20.3339 6.51653 20.5395 6.87271C20.7452 7.22889 20.6231 7.68434 20.267 7.88997L18.7993 8.73732C18.4431 8.94296 17.9877 8.82093 17.7821 8.46475C17.5764 8.10857 17.6984 7.65313 18.0546 7.44749L19.5223 6.60014Z" fill="#F9F9F9"/>
<path d="M5.20072 14.8687C5.5569 14.6631 6.01235 14.7851 6.21799 15.1413C6.42363 15.4974 6.30159 15.9529 5.94541 16.1585L4.47776 17.0059C4.12158 17.2115 3.66614 17.0895 3.4605 16.7333C3.25486 16.3771 3.37689 15.9217 3.73307 15.716L5.20072 14.8687Z" fill="#F9F9F9"/>
<path d="M5.21158 16.5822C4.8554 16.7879 4.39996 16.6658 4.19432 16.3096C3.98868 15.9535 4.11071 15.498 4.46689 15.2924C4.82307 15.0867 5.27852 15.2088 5.48416 15.5649C5.6898 15.9211 5.56776 16.3766 5.21158 16.5822Z" fill="#F8D74C"/>
<path d="M19.5331 8.31369C19.1769 8.51933 18.7215 8.39729 18.5158 8.04111C18.3102 7.68493 18.4322 7.22949 18.7884 7.02384C19.1446 6.8182 19.6 6.94024 19.8057 7.29642C20.0113 7.6526 19.8893 8.10805 19.5331 8.31369Z" fill="#D74B4B"/>
<path d="M20.6125 8.72433C21.0098 8.61788 21.4181 8.85364 21.5246 9.2509C21.631 9.64817 21.3952 10.0565 20.998 10.163L19.361 10.6016C18.9638 10.708 18.5554 10.4723 18.449 10.075C18.3425 9.67774 18.5783 9.2694 18.9755 9.16295L20.6125 8.72433Z" fill="#F9F9F9"/>
<path d="M4.63888 13.0044C5.03615 12.898 5.44449 13.1338 5.55093 13.531C5.65738 13.9283 5.42163 14.3366 5.02436 14.4431L3.38741 14.8817C2.99014 14.9881 2.5818 14.7524 2.47535 14.3551C2.36891 13.9579 2.60466 13.5495 3.00193 13.4431L4.63888 13.0044Z" fill="#F9F9F9"/>
<path d="M4.20588 14.6624C3.80861 14.7688 3.40027 14.5331 3.29383 14.1358C3.18738 13.7385 3.42313 13.3302 3.8204 13.2238C4.21767 13.1173 4.62601 13.3531 4.73246 13.7503C4.8389 14.1476 4.60315 14.5559 4.20588 14.6624Z" fill="#D74B4B"/>
<path d="M20.1794 10.3823C19.7822 10.4887 19.3738 10.253 19.2674 9.85571C19.1609 9.45844 19.3967 9.0501 19.794 8.94366C20.1912 8.83721 20.5996 9.07296 20.706 9.47023C20.8125 9.8675 20.5767 10.2758 20.1794 10.3823Z" fill="#F8D74C"/>
<path d="M21.1159 11.0583C21.5272 11.0583 21.8606 11.3917 21.8606 11.803C21.8606 12.2143 21.5272 12.5477 21.1159 12.5477H19.4212C19.0099 12.5477 18.6765 12.2143 18.6765 11.803C18.6765 11.3917 19.0099 11.0583 19.4212 11.0583L21.1159 11.0583Z" fill="#F9F9F9"/>
<path d="M4.57879 11.0583C4.99007 11.0583 5.32348 11.3917 5.32348 11.803C5.32348 12.2143 4.99007 12.5477 4.57879 12.5477H2.88409C2.47281 12.5477 2.1394 12.2143 2.1394 11.803C2.1394 11.3917 2.47281 11.0583 2.88409 11.0583L4.57879 11.0583Z" fill="#F9F9F9"/>
<path d="M3.73144 12.5477C3.32016 12.5477 2.98675 12.2143 2.98675 11.803C2.98675 11.3917 3.32016 11.0583 3.73144 11.0583C4.14272 11.0583 4.47613 11.3917 4.47613 11.803C4.47613 12.2143 4.14272 12.5477 3.73144 12.5477Z" fill="#F8D74C"/>
<path d="M20.2685 12.5477C19.8572 12.5477 19.5238 12.2143 19.5238 11.803C19.5238 11.3917 19.8572 11.0583 20.2685 11.0583C20.6798 11.0583 21.0132 11.3917 21.0132 11.803C21.0132 12.2143 20.6798 12.5477 20.2685 12.5477Z" fill="#D74B4B"/>
<path d="M20.998 13.443C21.3952 13.5495 21.631 13.9578 21.5246 14.3551C21.4181 14.7524 21.0098 14.9881 20.6125 14.8817L18.9755 14.443C18.5783 14.3366 18.3425 13.9283 18.449 13.531C18.5554 13.1337 18.9638 12.898 19.361 13.0044L20.998 13.443Z" fill="#F9F9F9"/>
<path d="M5.02436 9.16292C5.42162 9.26937 5.65738 9.67771 5.55093 10.075C5.44449 10.4722 5.03615 10.708 4.63888 10.6015L3.00193 10.1629C2.60466 10.0565 2.36891 9.64814 2.47535 9.25087C2.5818 8.85361 2.99014 8.61785 3.38741 8.7243L5.02436 9.16292Z" fill="#F9F9F9"/>
<path d="M3.8204 10.3822C3.42313 10.2758 3.18738 9.86745 3.29382 9.47019C3.40027 9.07292 3.80861 8.83716 4.20588 8.94361C4.60315 9.05006 4.8389 9.4584 4.73245 9.85567C4.62601 10.2529 4.21767 10.4887 3.8204 10.3822Z" fill="#3FB47C"/>
<path d="M19.794 14.6623C19.3967 14.5559 19.1609 14.1476 19.2674 13.7503C19.3738 13.353 19.7822 13.1173 20.1794 13.2237C20.5767 13.3302 20.8125 13.7385 20.706 14.1358C20.5996 14.533 20.1912 14.7688 19.794 14.6623Z" fill="#F8D74C"/>
<path d="M20.267 15.7159C20.6231 15.9216 20.7452 16.377 20.5395 16.7332C20.3339 17.0894 19.8785 17.2114 19.5223 17.0058L18.0546 16.1584C17.6984 15.9528 17.5764 15.4974 17.782 15.1412C17.9877 14.785 18.4431 14.663 18.7993 14.8686L20.267 15.7159Z" fill="#F9F9F9"/>
<path d="M5.9454 7.44739C6.30158 7.65303 6.42362 8.10848 6.21798 8.46466C6.01234 8.82084 5.5569 8.94287 5.20072 8.73723L3.73306 7.88988C3.37689 7.68424 3.25485 7.2288 3.46049 6.87262C3.66613 6.51644 4.12157 6.3944 4.47775 6.60004L5.9454 7.44739Z" fill="#F9F9F9"/>
<path d="M4.46689 8.31356C4.11071 8.10792 3.98867 7.65247 4.19431 7.29629C4.39995 6.94011 4.8554 6.81808 5.21158 7.02372C5.56776 7.22936 5.68979 7.6848 5.48415 8.04098C5.27851 8.39716 4.82307 8.5192 4.46689 8.31356Z" fill="#F8D74C"/>
<path d="M18.7884 16.5821C18.4322 16.3764 18.3102 15.921 18.5158 15.5648C18.7215 15.2086 19.1769 15.0866 19.5331 15.2922C19.8893 15.4979 20.0113 15.9533 19.8057 16.3095C19.6 16.6657 19.1446 16.7877 18.7884 16.5821Z" fill="#3FB47C"/>
<path d="M18.9725 17.7222C19.2633 18.013 19.2633 18.4845 18.9725 18.7754C18.6816 19.0662 18.2101 19.0662 17.9193 18.7754L16.721 17.577C16.4302 17.2862 16.4302 16.8147 16.721 16.5239C17.0118 16.2331 17.4833 16.2331 17.7741 16.5239L18.9725 17.7222Z" fill="#F9F9F9"/>
<path d="M7.27897 6.0287C7.56979 6.31952 7.56979 6.79103 7.27897 7.08185C6.98815 7.37267 6.51664 7.37267 6.22582 7.08185L5.02749 5.88352C4.73667 5.5927 4.73667 5.12119 5.02749 4.83037C5.3183 4.53955 5.78981 4.53955 6.08063 4.83037L7.27897 6.0287Z" fill="#F9F9F9"/>
<path d="M5.62665 6.48268C5.33583 6.19186 5.33583 5.72035 5.62665 5.42953C5.91747 5.13871 6.38898 5.13871 6.6798 5.42953C6.97062 5.72035 6.97062 6.19186 6.6798 6.48268C6.38898 6.7735 5.91747 6.7735 5.62665 6.48268Z" fill="#D74B4B"/>
<path d="M17.3201 18.1761C17.0293 17.8853 17.0293 17.4138 17.3201 17.123C17.6109 16.8322 18.0824 16.8322 18.3733 17.123C18.6641 17.4138 18.6641 17.8853 18.3733 18.1761C18.0824 18.467 17.6109 18.467 17.3201 18.1761Z" fill="#F8D74C"/>
<path d="M17.2029 19.3251C17.4085 19.6813 17.2865 20.1368 16.9303 20.3424C16.5741 20.548 16.1187 20.426 15.9131 20.0698L15.0657 18.6022C14.8601 18.246 14.9821 17.7906 15.3383 17.5849C15.6945 17.3793 16.1499 17.5013 16.3555 17.8575L17.2029 19.3251Z" fill="#F9F9F9"/>
<path d="M8.93434 5.00358C9.13998 5.35976 9.01795 5.81521 8.66177 6.02085C8.30559 6.22649 7.85015 6.10445 7.64451 5.74827L6.79716 4.28062C6.59152 3.92444 6.71355 3.469 7.06973 3.26336C7.42591 3.05772 7.88135 3.17975 8.08699 3.53593L8.93434 5.00358Z" fill="#F9F9F9"/>
<path d="M7.22083 5.01445C7.01518 4.65827 7.13722 4.20282 7.4934 3.99718C7.84958 3.79154 8.30503 3.91358 8.51067 4.26976C8.71631 4.62594 8.59427 5.08138 8.23809 5.28702C7.88191 5.49266 7.42647 5.37063 7.22083 5.01445Z" fill="#F8D74C"/>
<path d="M15.4893 19.336C15.2837 18.9798 15.4057 18.5243 15.7619 18.3187C16.1181 18.113 16.5735 18.2351 16.7792 18.5913C16.9848 18.9474 16.8628 19.4029 16.5066 19.6085C16.1504 19.8142 15.695 19.6921 15.4893 19.336Z" fill="#D74B4B"/>
<path d="M15.0787 20.4154C15.1851 20.8127 14.9494 21.221 14.5521 21.3274C14.1548 21.4339 13.7465 21.1981 13.6401 20.8009L13.2014 19.1639C13.095 18.7667 13.3307 18.3583 13.728 18.2519C14.1253 18.1454 14.5336 18.3812 14.6401 18.7784L15.0787 20.4154Z" fill="#F9F9F9"/>
<path d="M10.7986 4.44177C10.905 4.83904 10.6693 5.24738 10.272 5.35383C9.87472 5.46027 9.46639 5.22452 9.35994 4.82725L8.92132 3.1903C8.81487 2.79303 9.05063 2.38469 9.44789 2.27824C9.84516 2.1718 10.2535 2.40755 10.3599 2.80482L10.7986 4.44177Z" fill="#F9F9F9"/>
<path d="M9.14062 4.00877C9.03418 3.61151 9.26993 3.20316 9.6672 3.09672C10.0645 2.99027 10.4728 3.22603 10.5793 3.62329C10.6857 4.02056 10.4499 4.4289 10.0527 4.53535C9.65541 4.6418 9.24707 4.40604 9.14062 4.00877Z" fill="#3FB47C"/>
<path d="M13.4207 19.9823C13.3143 19.5851 13.55 19.1767 13.9473 19.0703C14.3446 18.9638 14.7529 19.1996 14.8594 19.5969C14.9658 19.9941 14.73 20.4025 14.3328 20.5089C13.9355 20.6154 13.5272 20.3796 13.4207 19.9823Z" fill="#3FB47C"/>
<path fill-rule="evenodd" clip-rule="evenodd" d="M9.65782 5.42383C9.54736 5.42383 9.45782 5.51337 9.45782 5.62383V8.1824C9.45782 8.29286 9.54736 8.3824 9.65782 8.3824H10.3855L8.65058 20.6904C8.54878 21.4127 9.10947 22.0579 9.83883 22.0579H13.6353C14.3647 22.0579 14.9254 21.4127 14.8236 20.6904L13.0887 8.3824H13.8163C13.9268 8.3824 14.0163 8.29286 14.0163 8.1824V5.62383C14.0163 5.51337 13.9268 5.42383 13.8163 5.42383H9.65782Z" fill="#E6E6E6"/>
<path d="M11.7371 5.42383L13.0326 9.76311L17.5598 9.65431L13.8333 12.2273L15.3357 16.4994L11.7371 13.7503L8.1384 16.4994L9.64087 12.2273L5.91431 9.65431L10.4415 9.76311L11.7371 5.42383Z" fill="#F9F9F9"/>
</svg>
