<svg width="32" height="24" viewBox="0 0 32 24" fill="none" xmlns="http://www.w3.org/2000/svg">
<rect width="32" height="24" rx="2" fill="#485CC2"/>
<path d="M15.2554 2.68683C15.2554 2.27555 15.5888 1.94214 16.0001 1.94214C16.4113 1.94214 16.7447 2.27555 16.7447 2.68683V4.38153C16.7447 4.79281 16.4113 5.12621 16.0001 5.12621C15.5888 5.12621 15.2554 4.79281 15.2554 4.38153V2.68683Z" fill="#F9F9F9"/>
<path d="M15.2554 19.2239C15.2554 18.8127 15.5888 18.4792 16.0001 18.4792C16.4113 18.4792 16.7447 18.8127 16.7447 19.2239V20.9186C16.7447 21.3299 16.4113 21.6633 16.0001 21.6633C15.5888 21.6633 15.2554 21.3299 15.2554 20.9186V19.2239Z" fill="#F9F9F9"/>
<path d="M15.2554 2.68683C15.2554 2.27555 15.5888 1.94214 16 1.94214C16.4113 1.94214 16.7447 2.27555 16.7447 2.68683V4.38153C16.7447 4.79281 16.4113 5.12621 16 5.12621C15.5888 5.12621 15.2554 4.79281 15.2554 4.38153V2.68683Z" fill="#F9F9F9"/>
<path d="M15.2554 19.2239C15.2554 18.8127 15.5888 18.4792 16 18.4792C16.4113 18.4792 16.7447 18.8127 16.7447 19.2239V20.9186C16.7447 21.3299 16.4113 21.6633 16 21.6633C15.5888 21.6633 15.2554 21.3299 15.2554 20.9186V19.2239Z" fill="#F9F9F9"/>
<path d="M16.7447 20.0713C16.7447 20.4826 16.4113 20.816 16 20.816C15.5888 20.816 15.2554 20.4826 15.2554 20.0713C15.2554 19.66 15.5888 19.3266 16 19.3266C16.4113 19.3266 16.7447 19.66 16.7447 20.0713Z" fill="#F8D74C"/>
<path d="M16.7447 3.53424C16.7447 3.94552 16.4113 4.27893 16 4.27893C15.5888 4.27893 15.2554 3.94552 15.2554 3.53424C15.2554 3.12296 15.5888 2.78955 16 2.78955C16.4113 2.78955 16.7447 3.12296 16.7447 3.53424Z" fill="#D74B4B"/>
<path d="M17.6401 2.80476C17.7465 2.4075 18.1549 2.17174 18.5521 2.27819C18.9494 2.38464 19.1851 2.79298 19.0787 3.19024L18.6401 4.82719C18.5336 5.22446 18.1253 5.46022 17.728 5.35377C17.3308 5.24732 17.095 4.83898 17.2015 4.44172L17.6401 2.80476Z" fill="#F9F9F9"/>
<path d="M13.36 18.7784C13.4664 18.3811 13.8747 18.1454 14.272 18.2518C14.6693 18.3583 14.905 18.7666 14.7986 19.1639L14.36 20.8008C14.2535 21.1981 13.8452 21.4338 13.4479 21.3274C13.0506 21.2209 12.8149 20.8126 12.9213 20.4153L13.36 18.7784Z" fill="#F9F9F9"/>
<path d="M14.5793 19.9823C14.4728 20.3796 14.0645 20.6154 13.6672 20.5089C13.27 20.4025 13.0342 19.9941 13.1406 19.5969C13.2471 19.1996 13.6554 18.9638 14.0527 19.0703C14.45 19.1767 14.6857 19.5851 14.5793 19.9823Z" fill="#D74B4B"/>
<path d="M18.8594 4.00878C18.7529 4.40605 18.3446 4.6418 17.9473 4.53536C17.5501 4.42891 17.3143 4.02057 17.4207 3.6233C17.5272 3.22603 17.9355 2.99028 18.3328 3.09673C18.7301 3.20317 18.9658 3.61151 18.8594 4.00878Z" fill="#F8D74C"/>
<path d="M19.913 3.53579C20.1187 3.17961 20.5741 3.05757 20.9303 3.26321C21.2865 3.46885 21.4085 3.9243 21.2029 4.28048L20.3555 5.74813C20.1499 6.10431 19.6944 6.22634 19.3383 6.0207C18.9821 5.81506 18.8601 5.35962 19.0657 5.00344L19.913 3.53579Z" fill="#F9F9F9"/>
<path d="M11.6445 17.8573C11.8501 17.5012 12.3056 17.3791 12.6618 17.5848C13.0179 17.7904 13.14 18.2459 12.9343 18.602L12.087 20.0697C11.8813 20.4259 11.4259 20.5479 11.0697 20.3423C10.7135 20.1366 10.5915 19.6812 10.7971 19.325L11.6445 17.8573Z" fill="#F9F9F9"/>
<path d="M12.5107 19.3359C12.305 19.692 11.8496 19.8141 11.4934 19.6084C11.1372 19.4028 11.0152 18.9474 11.2208 18.5912C11.4265 18.235 11.8819 18.113 12.2381 18.3186C12.5943 18.5242 12.7163 18.9797 12.5107 19.3359Z" fill="#F8D74C"/>
<path d="M20.7792 5.01436C20.5735 5.37054 20.1181 5.49258 19.7619 5.28694C19.4057 5.08129 19.2837 4.62585 19.4893 4.26967C19.695 3.91349 20.1504 3.79145 20.5066 3.99709C20.8628 4.20274 20.9848 4.65818 20.7792 5.01436Z" fill="#D74B4B"/>
<path d="M21.9193 4.83029C22.2102 4.53947 22.6817 4.53947 22.9725 4.83028C23.2633 5.1211 23.2633 5.59261 22.9725 5.88343L21.7742 7.08177C21.4833 7.37258 21.0118 7.37258 20.721 7.08177C20.4302 6.79095 20.4302 6.31944 20.721 6.02862L21.9193 4.83029Z" fill="#F9F9F9"/>
<path d="M10.2258 16.5238C10.5167 16.233 10.9882 16.233 11.279 16.5238C11.5698 16.8146 11.5698 17.2861 11.279 17.5769L10.0806 18.7753C9.78983 19.0661 9.31832 19.0661 9.0275 18.7753C8.73668 18.4844 8.73668 18.0129 9.0275 17.7221L10.2258 16.5238Z" fill="#F9F9F9"/>
<path d="M10.6798 18.1761C10.389 18.4669 9.91749 18.4669 9.62667 18.1761C9.33585 17.8853 9.33585 17.4138 9.62667 17.123C9.91749 16.8321 10.389 16.8321 10.6798 17.123C10.9706 17.4138 10.9706 17.8853 10.6798 18.1761Z" fill="#D74B4B"/>
<path d="M22.3733 6.48265C22.0825 6.77347 21.6109 6.77347 21.3201 6.48265C21.0293 6.19183 21.0293 5.72032 21.3201 5.4295C21.6109 5.13868 22.0825 5.13868 22.3733 5.4295C22.6641 5.72032 22.6641 6.19183 22.3733 6.48265Z" fill="#F8D74C"/>
<path d="M23.5223 6.60014C23.8785 6.3945 24.3339 6.51653 24.5395 6.87271C24.7452 7.22889 24.6231 7.68434 24.267 7.88997L22.7993 8.73732C22.4431 8.94296 21.9877 8.82093 21.7821 8.46475C21.5764 8.10857 21.6984 7.65313 22.0546 7.44749L23.5223 6.60014Z" fill="#F9F9F9"/>
<path d="M9.20072 14.8687C9.5569 14.6631 10.0123 14.7851 10.218 15.1413C10.4236 15.4974 10.3016 15.9529 9.94541 16.1585L8.47776 17.0059C8.12158 17.2115 7.66614 17.0895 7.4605 16.7333C7.25486 16.3771 7.37689 15.9217 7.73307 15.716L9.20072 14.8687Z" fill="#F9F9F9"/>
<path d="M9.21158 16.5822C8.8554 16.7879 8.39996 16.6658 8.19432 16.3096C7.98868 15.9535 8.11071 15.498 8.46689 15.2924C8.82307 15.0867 9.27852 15.2088 9.48416 15.5649C9.6898 15.9211 9.56776 16.3766 9.21158 16.5822Z" fill="#F8D74C"/>
<path d="M23.5331 8.31369C23.1769 8.51933 22.7215 8.39729 22.5158 8.04111C22.3102 7.68493 22.4322 7.22949 22.7884 7.02384C23.1446 6.8182 23.6 6.94024 23.8057 7.29642C24.0113 7.6526 23.8893 8.10805 23.5331 8.31369Z" fill="#D74B4B"/>
<path d="M24.6125 8.72433C25.0098 8.61788 25.4181 8.85364 25.5246 9.2509C25.631 9.64817 25.3952 10.0565 24.998 10.163L23.361 10.6016C22.9638 10.708 22.5554 10.4723 22.449 10.075C22.3425 9.67774 22.5783 9.2694 22.9755 9.16295L24.6125 8.72433Z" fill="#F9F9F9"/>
<path d="M8.63888 13.0044C9.03615 12.898 9.44449 13.1338 9.55093 13.531C9.65738 13.9283 9.42163 14.3366 9.02436 14.4431L7.38741 14.8817C6.99014 14.9881 6.5818 14.7524 6.47535 14.3551C6.36891 13.9579 6.60466 13.5495 7.00193 13.4431L8.63888 13.0044Z" fill="#F9F9F9"/>
<path d="M8.20588 14.6624C7.80861 14.7688 7.40027 14.5331 7.29383 14.1358C7.18738 13.7385 7.42313 13.3302 7.8204 13.2238C8.21767 13.1173 8.62601 13.3531 8.73246 13.7503C8.8389 14.1476 8.60315 14.5559 8.20588 14.6624Z" fill="#D74B4B"/>
<path d="M24.1794 10.3823C23.7822 10.4887 23.3738 10.253 23.2674 9.85571C23.1609 9.45844 23.3967 9.0501 23.794 8.94366C24.1912 8.83721 24.5996 9.07296 24.706 9.47023C24.8125 9.8675 24.5767 10.2758 24.1794 10.3823Z" fill="#F8D74C"/>
<path d="M25.1159 11.0583C25.5272 11.0583 25.8606 11.3917 25.8606 11.803C25.8606 12.2143 25.5272 12.5477 25.1159 12.5477H23.4212C23.0099 12.5477 22.6765 12.2143 22.6765 11.803C22.6765 11.3917 23.0099 11.0583 23.4212 11.0583L25.1159 11.0583Z" fill="#F9F9F9"/>
<path d="M8.57879 11.0583C8.99007 11.0583 9.32348 11.3917 9.32348 11.803C9.32348 12.2143 8.99007 12.5477 8.57879 12.5477H6.88409C6.47281 12.5477 6.1394 12.2143 6.1394 11.803C6.1394 11.3917 6.47281 11.0583 6.88409 11.0583L8.57879 11.0583Z" fill="#F9F9F9"/>
<path d="M7.73144 12.5477C7.32016 12.5477 6.98675 12.2143 6.98675 11.803C6.98675 11.3917 7.32016 11.0583 7.73144 11.0583C8.14272 11.0583 8.47613 11.3917 8.47613 11.803C8.47613 12.2143 8.14272 12.5477 7.73144 12.5477Z" fill="#F8D74C"/>
<path d="M24.2685 12.5477C23.8572 12.5477 23.5238 12.2143 23.5238 11.803C23.5238 11.3917 23.8572 11.0583 24.2685 11.0583C24.6798 11.0583 25.0132 11.3917 25.0132 11.803C25.0132 12.2143 24.6798 12.5477 24.2685 12.5477Z" fill="#D74B4B"/>
<path d="M24.998 13.443C25.3952 13.5495 25.631 13.9578 25.5246 14.3551C25.4181 14.7524 25.0098 14.9881 24.6125 14.8817L22.9755 14.443C22.5783 14.3366 22.3425 13.9283 22.449 13.531C22.5554 13.1337 22.9638 12.898 23.361 13.0044L24.998 13.443Z" fill="#F9F9F9"/>
<path d="M9.02436 9.16292C9.42162 9.26937 9.65738 9.67771 9.55093 10.075C9.44449 10.4722 9.03615 10.708 8.63888 10.6015L7.00193 10.1629C6.60466 10.0565 6.36891 9.64814 6.47535 9.25087C6.5818 8.85361 6.99014 8.61785 7.38741 8.7243L9.02436 9.16292Z" fill="#F9F9F9"/>
<path d="M7.8204 10.3822C7.42313 10.2758 7.18738 9.86745 7.29382 9.47019C7.40027 9.07292 7.80861 8.83716 8.20588 8.94361C8.60315 9.05006 8.8389 9.4584 8.73245 9.85567C8.62601 10.2529 8.21767 10.4887 7.8204 10.3822Z" fill="#3FB47C"/>
<path d="M23.794 14.6623C23.3967 14.5559 23.1609 14.1476 23.2674 13.7503C23.3738 13.353 23.7822 13.1173 24.1794 13.2237C24.5767 13.3302 24.8125 13.7385 24.706 14.1358C24.5996 14.533 24.1912 14.7688 23.794 14.6623Z" fill="#F8D74C"/>
<path d="M24.267 15.7159C24.6231 15.9216 24.7452 16.377 24.5395 16.7332C24.3339 17.0894 23.8785 17.2114 23.5223 17.0058L22.0546 16.1584C21.6984 15.9528 21.5764 15.4974 21.782 15.1412C21.9877 14.785 22.4431 14.663 22.7993 14.8686L24.267 15.7159Z" fill="#F9F9F9"/>
<path d="M9.9454 7.44739C10.3016 7.65303 10.4236 8.10848 10.218 8.46466C10.0123 8.82084 9.5569 8.94287 9.20072 8.73723L7.73306 7.88988C7.37689 7.68424 7.25485 7.2288 7.46049 6.87262C7.66613 6.51644 8.12157 6.3944 8.47775 6.60004L9.9454 7.44739Z" fill="#F9F9F9"/>
<path d="M8.46689 8.31356C8.11071 8.10792 7.98867 7.65247 8.19431 7.29629C8.39995 6.94011 8.8554 6.81808 9.21158 7.02372C9.56776 7.22936 9.68979 7.6848 9.48415 8.04098C9.27851 8.39716 8.82307 8.5192 8.46689 8.31356Z" fill="#F8D74C"/>
<path d="M22.7884 16.5821C22.4322 16.3764 22.3102 15.921 22.5158 15.5648C22.7215 15.2086 23.1769 15.0866 23.5331 15.2922C23.8893 15.4979 24.0113 15.9533 23.8057 16.3095C23.6 16.6657 23.1446 16.7877 22.7884 16.5821Z" fill="#3FB47C"/>
<path d="M22.9725 17.7222C23.2633 18.013 23.2633 18.4845 22.9725 18.7754C22.6816 19.0662 22.2101 19.0662 21.9193 18.7754L20.721 17.577C20.4302 17.2862 20.4302 16.8147 20.721 16.5239C21.0118 16.2331 21.4833 16.2331 21.7741 16.5239L22.9725 17.7222Z" fill="#F9F9F9"/>
<path d="M11.279 6.0287C11.5698 6.31952 11.5698 6.79103 11.279 7.08185C10.9881 7.37267 10.5166 7.37267 10.2258 7.08185L9.02749 5.88352C8.73667 5.5927 8.73667 5.12119 9.02749 4.83037C9.3183 4.53955 9.78981 4.53955 10.0806 4.83037L11.279 6.0287Z" fill="#F9F9F9"/>
<path d="M9.62665 6.48268C9.33583 6.19186 9.33583 5.72035 9.62665 5.42953C9.91747 5.13871 10.389 5.13871 10.6798 5.42953C10.9706 5.72035 10.9706 6.19186 10.6798 6.48268C10.389 6.7735 9.91747 6.7735 9.62665 6.48268Z" fill="#D74B4B"/>
<path d="M21.3201 18.1761C21.0293 17.8853 21.0293 17.4138 21.3201 17.123C21.6109 16.8322 22.0824 16.8322 22.3733 17.123C22.6641 17.4138 22.6641 17.8853 22.3733 18.1761C22.0824 18.467 21.6109 18.467 21.3201 18.1761Z" fill="#F8D74C"/>
<path d="M21.2029 19.3251C21.4085 19.6813 21.2865 20.1368 20.9303 20.3424C20.5741 20.548 20.1187 20.426 19.9131 20.0698L19.0657 18.6022C18.8601 18.246 18.9821 17.7906 19.3383 17.5849C19.6945 17.3793 20.1499 17.5013 20.3555 17.8575L21.2029 19.3251Z" fill="#F9F9F9"/>
<path d="M12.9343 5.00358C13.14 5.35976 13.0179 5.81521 12.6618 6.02085C12.3056 6.22649 11.8501 6.10445 11.6445 5.74827L10.7972 4.28062C10.5915 3.92444 10.7136 3.469 11.0697 3.26336C11.4259 3.05772 11.8814 3.17975 12.087 3.53593L12.9343 5.00358Z" fill="#F9F9F9"/>
<path d="M11.2208 5.01445C11.0152 4.65827 11.1372 4.20282 11.4934 3.99718C11.8496 3.79154 12.305 3.91358 12.5107 4.26976C12.7163 4.62594 12.5943 5.08138 12.2381 5.28702C11.8819 5.49266 11.4265 5.37063 11.2208 5.01445Z" fill="#F8D74C"/>
<path d="M19.4893 19.336C19.2837 18.9798 19.4057 18.5243 19.7619 18.3187C20.1181 18.113 20.5735 18.2351 20.7792 18.5913C20.9848 18.9474 20.8628 19.4029 20.5066 19.6085C20.1504 19.8142 19.695 19.6921 19.4893 19.336Z" fill="#D74B4B"/>
<path d="M19.0787 20.4154C19.1851 20.8127 18.9494 21.221 18.5521 21.3274C18.1548 21.4339 17.7465 21.1981 17.6401 20.8009L17.2014 19.1639C17.095 18.7667 17.3307 18.3583 17.728 18.2519C18.1253 18.1454 18.5336 18.3812 18.6401 18.7784L19.0787 20.4154Z" fill="#F9F9F9"/>
<path d="M14.7986 4.44177C14.905 4.83904 14.6693 5.24738 14.272 5.35383C13.8747 5.46027 13.4664 5.22452 13.3599 4.82725L12.9213 3.1903C12.8149 2.79303 13.0506 2.38469 13.4479 2.27824C13.8452 2.1718 14.2535 2.40755 14.3599 2.80482L14.7986 4.44177Z" fill="#F9F9F9"/>
<path d="M13.1406 4.00877C13.0342 3.61151 13.2699 3.20316 13.6672 3.09672C14.0645 2.99027 14.4728 3.22603 14.5793 3.62329C14.6857 4.02056 14.4499 4.4289 14.0527 4.53535C13.6554 4.6418 13.2471 4.40604 13.1406 4.00877Z" fill="#3FB47C"/>
<path d="M17.4207 19.9823C17.3143 19.5851 17.55 19.1767 17.9473 19.0703C18.3446 18.9638 18.7529 19.1996 18.8594 19.5969C18.9658 19.9941 18.73 20.4025 18.3328 20.5089C17.9355 20.6154 17.5272 20.3796 17.4207 19.9823Z" fill="#3FB47C"/>
<path fill-rule="evenodd" clip-rule="evenodd" d="M13.6578 5.42383C13.5474 5.42383 13.4578 5.51337 13.4578 5.62383V8.1824C13.4578 8.29286 13.5474 8.3824 13.6578 8.3824H14.3855L12.6506 20.6904C12.5488 21.4127 13.1095 22.0579 13.8388 22.0579H17.6353C18.3647 22.0579 18.9254 21.4127 18.8236 20.6904L17.0887 8.3824H17.8163C17.9268 8.3824 18.0163 8.29286 18.0163 8.1824V5.62383C18.0163 5.51337 17.9268 5.42383 17.8163 5.42383H13.6578Z" fill="#E6E6E6"/>
<path d="M15.7371 5.42383L17.0326 9.76311L21.5598 9.65431L17.8333 12.2273L19.3357 16.4994L15.7371 13.7503L12.1384 16.4994L13.6409 12.2273L9.91431 9.65431L14.4415 9.76311L15.7371 5.42383Z" fill="#F9F9F9"/>
</svg>
