<svg width="24" height="24" viewBox="0 0 24 24" fill="none" xmlns="http://www.w3.org/2000/svg">
<g clip-path="url(#clip0_440_1571)">
<rect width="24" height="24" rx="2" fill="#D74B4B"/>
<path d="M24 24L0 0V24H24Z" fill="#333333"/>
<path d="M7.12059 8L7.5142 9.31838L8.88969 9.28533L7.75746 10.0671L8.21395 11.365L7.12059 10.5298L6.02722 11.365L6.48371 10.0671L5.35149 9.28533L6.72698 9.31838L7.12059 8Z" fill="#F9F9F9"/>
<path d="M3.86014 12.4594L4.25375 13.7778L5.62924 13.7447L4.49702 14.5265L4.95351 15.8244L3.86014 14.9892L2.76678 15.8244L3.22327 14.5265L2.09104 13.7447L3.46653 13.7778L3.86014 12.4594Z" fill="#F9F9F9"/>
<path d="M10.1496 11.8284L10.5432 13.1468L11.9187 13.1137L10.7865 13.8954L11.243 15.1934L10.1496 14.3582L9.05626 15.1934L9.51274 13.8954L8.38052 13.1137L9.75601 13.1468L10.1496 11.8284Z" fill="#F9F9F9"/>
<path d="M7.12059 18.1811L7.5142 19.4994L8.88969 19.4664L7.75746 20.2481L8.21395 21.5461L7.12059 20.7109L6.02722 21.5461L6.48371 20.2481L5.35149 19.4664L6.72698 19.4994L7.12059 18.1811Z" fill="#F9F9F9"/>
<path d="M8.60956 15.9349L8.80636 16.5941L9.49411 16.5776L8.928 16.9684L9.15624 17.6174L8.60956 17.1998L8.06288 17.6174L8.29112 16.9684L7.72501 16.5776L8.41275 16.5941L8.60956 15.9349Z" fill="#F9F9F9"/>
<path fill-rule="evenodd" clip-rule="evenodd" d="M14.1582 4.51866L14.1583 4.51866C14.2623 4.5586 14.3465 4.59091 14.3758 4.59328C14.4606 4.60017 14.9176 4.5034 15.0049 4.48468C15.0145 4.48262 15.0244 4.48195 15.0342 4.48292C15.2177 4.50105 15.2668 4.56996 15.402 4.75958C15.4363 4.8076 15.476 4.86335 15.5248 4.92798C15.7398 5.21242 16.036 5.34597 16.2071 5.31995C16.2209 5.31785 16.2335 5.3116 16.2442 5.30259C16.3809 5.18773 16.6084 4.88942 16.5389 4.50665C16.4484 4.00847 16.5051 3.30941 17.0727 2.76645C17.5268 2.33207 18.0671 2.0727 18.2805 1.9973L18.3529 1.9699C18.4392 1.93727 18.5199 2.02892 18.4766 2.11038L18.3057 2.43181C18.272 2.49531 18.3142 2.57261 18.3859 2.57842L18.3949 2.57915C18.4657 2.5849 18.5081 2.66053 18.4761 2.72392L18.3958 2.88281C18.3638 2.94619 18.4062 3.02183 18.477 3.02757L18.5045 3.02981C18.5864 3.03645 18.6258 3.13355 18.5717 3.19537L18.4102 3.37975C18.3596 3.43751 18.3964 3.52825 18.4729 3.53446C18.5501 3.54072 18.5866 3.6328 18.5347 3.69026L18.3411 3.90442C18.2954 3.95498 18.3126 4.03544 18.3749 4.06296L18.4674 4.1038C18.5345 4.1334 18.5479 4.22272 18.4926 4.27079L17.7843 4.88583C18.1119 4.62193 19.0157 4.27648 20.1099 4.8886C20.1813 4.92855 20.1719 5.03176 20.0956 5.06137L19.8897 5.14127C19.8165 5.16967 19.8031 5.26747 19.866 5.31453L20.7177 5.95251C20.791 6.00744 20.7469 6.12409 20.6556 6.11668C20.5767 6.11028 20.5275 6.20034 20.5756 6.26321L21.3625 7.29292C21.4153 7.36201 21.3487 7.45826 21.2655 7.43323C21.1929 7.41141 21.1277 7.48388 21.157 7.55377L21.4581 8.27195C21.5012 8.37475 21.3692 8.46034 21.2929 8.37901L21.2747 8.35956C21.2052 8.28539 21.0822 8.35026 21.1041 8.44954L21.1128 8.48866C21.1325 8.57819 21.0315 8.64493 20.9569 8.59155L20.791 8.4728C20.7854 8.46873 20.7793 8.46527 20.7729 8.46248L20.3341 8.2707C20.2991 8.25539 20.2584 8.26138 20.2293 8.28613L20.1324 8.3685C20.1026 8.39378 20.0609 8.39944 20.0255 8.38299L19.7754 8.26682C19.9342 8.52272 20.0831 8.79792 20.2119 9.08859C20.3253 9.34448 20.411 9.64151 20.4674 9.95182C20.4718 9.95787 20.4762 9.96392 20.4806 9.96999C21.1184 10.8513 21.4765 12.4275 21.1191 13.1185C20.7616 13.8095 20.2136 14.0955 18.903 13.9048C19.4828 13.881 20.6758 13.638 20.8093 12.8564C20.921 12.2018 20.8988 11.6228 20.5465 10.9141C20.5367 11.4896 20.4188 12.0122 20.1821 12.301C19.6888 12.9027 19.0933 13.0685 17.8509 12.6096C18.4231 12.7068 19.6405 12.717 19.9335 11.9803C20.1575 11.4169 20.2592 10.892 20.1251 10.2216C20.0182 10.0709 19.8977 9.91346 19.7624 9.74801L19.1585 9.21386L19.235 9.32369C19.2573 9.35573 19.259 9.39782 19.2392 9.43149L19.1748 9.54116C19.1555 9.57412 19.1566 9.61522 19.1777 9.64706L19.4423 10.0462C19.4462 10.052 19.4507 10.0574 19.4556 10.0623L19.6012 10.2052C19.6667 10.2694 19.6184 10.3805 19.5268 10.3764L19.4868 10.3747C19.3852 10.3702 19.3425 10.5025 19.4276 10.5582L19.4499 10.5728C19.5432 10.6339 19.4817 10.7787 19.3729 10.754L18.6136 10.5813C18.5397 10.5645 18.4795 10.6413 18.5136 10.709C18.5526 10.7867 18.4693 10.8689 18.3921 10.8289L17.242 10.2315C17.1718 10.195 17.0916 10.259 17.1115 10.3355C17.1346 10.4242 17.0273 10.4878 16.9605 10.4251L16.1851 9.69624C16.1279 9.64248 16.0339 9.67257 16.0185 9.74956L15.9754 9.96616C15.9594 10.0464 15.8593 10.0735 15.8077 10.0101C15.0159 9.03788 15.2001 8.08802 15.4035 7.71985L14.92 8.52365C14.8822 8.58647 14.7919 8.58862 14.7511 8.52767L14.6949 8.44359C14.6571 8.38693 14.5749 8.38392 14.5329 8.43767L14.3554 8.66533C14.3078 8.72641 14.2108 8.70635 14.1913 8.63139C14.172 8.55708 14.0762 8.53649 14.0281 8.59629L13.8743 8.78717C13.8228 8.85116 13.7204 8.82913 13.6997 8.74961L13.6927 8.72285C13.6748 8.65412 13.593 8.6254 13.5361 8.66789L13.3935 8.77438C13.3366 8.81687 13.2547 8.78815 13.2369 8.71942L13.2346 8.71069C13.2165 8.6411 13.1331 8.61278 13.0763 8.65699L12.7892 8.88078C12.7165 8.93749 12.6123 8.87383 12.6295 8.78321L12.644 8.70712C12.6814 8.48394 12.8437 7.90703 13.1931 7.38477C13.63 6.73195 14.3087 6.55543 14.8151 6.55855C15.2041 6.56095 15.4587 6.2854 15.5482 6.13093C15.5552 6.11883 15.5591 6.10524 15.5593 6.09125C15.5615 5.94567 15.4821 5.81735 15.2485 5.60999L14.9544 5.36438C14.9502 5.36089 14.9457 5.35774 14.941 5.35498L14.4328 5.05554L14.0948 4.81539C14.0911 4.81281 14.0876 4.81059 14.0836 4.8085C14.0226 4.77594 13.4918 4.48871 13.5555 4.38263C13.602 4.30518 13.9285 4.4305 14.1582 4.51866ZM19.7504 9.12233C19.6921 8.99441 19.6273 8.86123 19.5555 8.72218L19.3303 8.41787L19.3266 8.46264C19.3234 8.50208 19.2983 8.53322 19.2652 8.54696C19.2573 8.58161 19.2312 8.61154 19.1932 8.62154C19.3766 8.77116 19.5648 8.93846 19.7504 9.12233Z" fill="#F8D74C"/>
</g>
<defs>
<clipPath id="clip0_440_1571">
<rect width="24" height="24" rx="2" fill="white"/>
</clipPath>
</defs>
</svg>
