<svg width="32" height="24" viewBox="0 0 32 24" fill="none" xmlns="http://www.w3.org/2000/svg">
<g clip-path="url(#clip0_440_1572)">
<rect width="32" height="24" rx="2" fill="#D74B4B"/>
<path d="M32 24L0 0V24H32Z" fill="#333333"/>
<path d="M7.14568 8L7.54122 9.32484L8.92345 9.29163L7.78568 10.0772L8.24441 11.3815L7.14568 10.5422L6.04696 11.3815L6.50569 10.0772L5.36791 9.29163L6.75014 9.32484L7.14568 8Z" fill="#F9F9F9"/>
<path d="M3.86926 12.4812L4.2648 13.8061L5.64703 13.7729L4.50926 14.5585L4.96798 15.8628L3.86926 15.0234L2.77054 15.8628L3.22926 14.5585L2.09149 13.7729L3.47372 13.8061L3.86926 12.4812Z" fill="#F9F9F9"/>
<path d="M10.1896 11.8471L10.5851 13.172L11.9673 13.1388L10.8296 13.9243L11.2883 15.2287L10.1896 14.3893L9.09084 15.2287L9.54956 13.9243L8.41179 13.1388L9.79402 13.172L10.1896 11.8471Z" fill="#F9F9F9"/>
<path d="M7.14568 18.231L7.54122 19.5558L8.92345 19.5226L7.78568 20.3082L8.24441 21.6125L7.14568 20.7731L6.04696 21.6125L6.50569 20.3082L5.36791 19.5226L6.75014 19.5558L7.14568 18.231Z" fill="#F9F9F9"/>
<path d="M8.64195 15.9738L8.83972 16.6362L9.53084 16.6196L8.96195 17.0124L9.19131 17.6645L8.64195 17.2449L8.09259 17.6645L8.32195 17.0124L7.75307 16.6196L8.44418 16.6362L8.64195 15.9738Z" fill="#F9F9F9"/>
<path fill-rule="evenodd" clip-rule="evenodd" d="M20.0193 4.53467C20.124 4.57486 20.2088 4.60737 20.2382 4.60976C20.3236 4.61669 20.7837 4.51926 20.8713 4.50047C20.881 4.4984 20.8909 4.49773 20.9007 4.4987C21.0854 4.51693 21.1348 4.58626 21.2709 4.7771C21.3053 4.82542 21.3453 4.88152 21.3945 4.94655C21.6108 5.23284 21.909 5.36721 22.0811 5.34095C22.0949 5.33884 22.1075 5.33259 22.1182 5.32359C22.2558 5.20807 22.4848 4.90785 22.4148 4.52259C22.3238 4.0213 22.3809 3.31788 22.952 2.77152C23.409 2.33443 23.9526 2.07344 24.1673 1.99757L24.2417 1.96941C24.328 1.93678 24.4087 2.02843 24.3654 2.10989L24.1922 2.43564C24.1585 2.49913 24.2008 2.57643 24.2725 2.58225L24.2834 2.58313C24.3542 2.58888 24.3966 2.66451 24.3645 2.7279L24.2829 2.88944C24.2509 2.95282 24.2933 3.02846 24.3641 3.0342L24.394 3.03663C24.4759 3.04327 24.5153 3.14037 24.4611 3.20218L24.2978 3.38865C24.2469 3.44677 24.284 3.53808 24.361 3.54432C24.4387 3.55063 24.4754 3.64329 24.4231 3.70111L24.2277 3.91724C24.182 3.9678 24.1992 4.04826 24.2615 4.07578L24.3563 4.11762C24.4234 4.14722 24.4368 4.23654 24.3815 4.28461L23.6681 4.90414C23.9977 4.6385 24.9077 4.29076 26.0092 4.90753C26.0806 4.9475 26.0712 5.05072 25.9949 5.08033L25.7856 5.16158C25.7124 5.18998 25.699 5.28778 25.7618 5.33484L26.6198 5.97748C26.6935 6.03275 26.6491 6.15013 26.5572 6.14267C26.4779 6.13624 26.4284 6.22686 26.4767 6.29011L27.2686 7.32625C27.3217 7.39578 27.2547 7.49264 27.1709 7.46744C27.0979 7.44549 27.0323 7.51841 27.0618 7.58874L27.3661 8.3146C27.4092 8.41741 27.2772 8.50299 27.2009 8.42167L27.1787 8.3979C27.1091 8.32373 26.9861 8.3886 27.0081 8.48788L27.0176 8.53106C27.0374 8.62059 26.9363 8.68733 26.8618 8.63395L26.6935 8.51347C26.6878 8.5094 26.6817 8.50594 26.6753 8.50315L26.2334 8.30998C26.1984 8.29468 26.1577 8.30067 26.1286 8.32542L26.0304 8.40881C26.0007 8.43409 25.9589 8.43975 25.9235 8.4233L25.6715 8.30622C25.8313 8.56371 25.9811 8.84063 26.1107 9.1331C26.2248 9.39059 26.3111 9.68948 26.3678 10.0017C26.3722 10.0078 26.3767 10.0139 26.3811 10.02C27.0228 10.9068 27.3832 12.4928 27.0235 13.1882C26.6639 13.8835 26.1124 14.1713 24.7936 13.9794C25.3771 13.9555 26.5776 13.7109 26.7118 12.9244C26.8243 12.2658 26.8019 11.6832 26.4475 10.9701C26.4376 11.5491 26.319 12.075 26.0807 12.3656C25.5844 12.971 24.9851 13.1379 23.735 12.6761C24.3107 12.7739 25.5358 12.7842 25.8306 12.0428C26.056 11.4759 26.1583 10.9477 26.0233 10.2732C25.9158 10.1215 25.7946 9.96313 25.6584 9.79664L25.0509 9.25932L25.128 9.36999C25.1504 9.40203 25.152 9.44412 25.1322 9.47779L25.067 9.58883C25.0477 9.62178 25.0488 9.66288 25.0699 9.69473L25.3365 10.0967C25.3403 10.1025 25.3448 10.1079 25.3498 10.1128L25.4975 10.2578C25.5629 10.322 25.5146 10.4331 25.423 10.429L25.3789 10.4271C25.2773 10.4226 25.2346 10.555 25.3197 10.6107L25.3469 10.6285C25.4402 10.6896 25.3787 10.8344 25.27 10.8097L24.5025 10.6352C24.4281 10.6183 24.3676 10.6955 24.4018 10.7637C24.4411 10.8418 24.3573 10.9246 24.2796 10.8842L23.1224 10.2831C23.0517 10.2464 22.971 10.3108 22.991 10.3878C23.0142 10.477 22.9063 10.5411 22.8391 10.4779L22.058 9.74377C22.0008 9.69 21.9068 9.7201 21.8915 9.79709L21.8476 10.0174C21.8316 10.0976 21.7315 10.1247 21.6798 10.0613C20.8822 9.08268 21.0676 8.1264 21.2724 7.75581L20.7853 8.56547C20.7475 8.62829 20.6572 8.63044 20.6165 8.56949L20.5589 8.48335C20.521 8.42669 20.4388 8.42368 20.3969 8.47743L20.2177 8.70719C20.1698 8.76866 20.0722 8.74847 20.0526 8.67304C20.0331 8.59826 19.9368 8.57755 19.8883 8.63772L19.7329 8.83076C19.6813 8.89475 19.5789 8.87272 19.5582 8.7932L19.5507 8.76417C19.5328 8.69544 19.451 8.66672 19.3941 8.70921L19.249 8.81748C19.1921 8.85997 19.1103 8.83125 19.0924 8.76252L19.0897 8.75192C19.0716 8.68232 18.9881 8.65401 18.9314 8.69821L18.6404 8.92501C18.5677 8.98172 18.4635 8.91806 18.4807 8.82744L18.4956 8.74924C18.5333 8.52467 18.6965 7.94416 19.0482 7.41864C19.4877 6.76174 20.1708 6.58411 20.6802 6.58726C21.0718 6.58967 21.328 6.31226 21.418 6.15685C21.425 6.14474 21.4289 6.13116 21.4291 6.11717C21.4314 5.97081 21.3517 5.84181 21.1172 5.63355L20.8204 5.38564C20.8162 5.38215 20.8118 5.37901 20.8071 5.37624L20.2956 5.07491L19.9554 4.83323C19.9518 4.83065 19.9482 4.82844 19.9443 4.82635C19.8831 4.7937 19.3487 4.50456 19.4128 4.39779C19.4596 4.31986 19.7882 4.44597 20.0193 4.53467ZM25.6463 9.16706C25.5877 9.03834 25.5224 8.90433 25.4503 8.76441L25.2237 8.45827L25.2199 8.5041C25.2167 8.54354 25.1916 8.57467 25.1585 8.58842C25.1506 8.62313 25.1243 8.65309 25.0862 8.663L25.0856 8.66315C25.2702 8.81369 25.4596 8.98204 25.6463 9.16706Z" fill="#F8D74C"/>
</g>
<defs>
<clipPath id="clip0_440_1572">
<rect width="32" height="24" rx="2" fill="white"/>
</clipPath>
</defs>
</svg>
