<svg width="32" height="24" viewBox="0 0 32 24" fill="none" xmlns="http://www.w3.org/2000/svg">
<rect width="32" height="24" rx="2" fill="#485CC2"/>
<g clip-path="url(#clip0_440_1580)">
<rect width="16" height="12" fill="#485CC2"/>
<path fill-rule="evenodd" clip-rule="evenodd" d="M16.75 1L0.75 13L-0.75 11L15.25 -1L16.75 1Z" fill="#F9F9F9"/>
<path fill-rule="evenodd" clip-rule="evenodd" d="M-0.75 1L15.25 13L16.75 11L0.75 -1L-0.75 1Z" fill="#F9F9F9"/>
<path fill-rule="evenodd" clip-rule="evenodd" d="M15.775 12.8L-0.225 0.8L0.225 0.2L16.225 12.2L15.775 12.8Z" fill="#D74B4B"/>
<path fill-rule="evenodd" clip-rule="evenodd" d="M-0.277853 12.8021L16.7221 0.302119L16.2779 -0.302119L-0.722147 12.1979L-0.277853 12.8021Z" fill="#D74B4B"/>
<path d="M9.5 1.31134e-07L9.5 12H6.5L6.5 0L9.5 1.31134e-07Z" fill="#F9F9F9"/>
<path d="M0 4.5H16V7.5H0V4.5Z" fill="#F9F9F9"/>
<path d="M0 5H16V7H0V5Z" fill="#D74B4B"/>
<path d="M9 8.74229e-08L9 12H7L7 0L9 8.74229e-08Z" fill="#D74B4B"/>
</g>
<path fill-rule="evenodd" clip-rule="evenodd" d="M25.2095 8.15782L24.5674 8.57404L24.4651 8.41622L25.1072 8L25.2095 8.15782Z" fill="#E6E6E6"/>
<path fill-rule="evenodd" clip-rule="evenodd" d="M25.6843 8.40897L25.0421 8.82519L24.9399 8.66737L25.582 8.25115L25.6843 8.40897Z" fill="#E6E6E6"/>
<path d="M23.0162 10.1395L23.6655 11.4244H25.3121L24.7994 9.28772L25.1495 8.76664L24.5313 8.33008H23.8008L23.3408 8.671L23.6655 9.09057V9.53635L23.0162 10.1395Z" fill="#E6E6E6"/>
<path fill-rule="evenodd" clip-rule="evenodd" d="M23.321 9.36003C23.3459 9.2326 23.4693 9.14945 23.5968 9.17432C23.6665 9.18793 23.7354 9.20245 23.8031 9.21673C23.9993 9.25809 24.186 9.29745 24.3573 9.30697C24.4305 9.31104 24.5001 9.32858 24.5457 9.34008C24.5499 9.34115 24.554 9.34217 24.5578 9.34312C24.6113 9.35645 24.6374 9.36127 24.6586 9.36127C24.7264 9.36127 24.8273 9.36688 24.9262 9.38138C24.9758 9.38865 25.029 9.39875 25.0795 9.41295C25.1267 9.42626 25.1866 9.44723 25.2399 9.48274C25.3479 9.55476 25.3771 9.70071 25.3051 9.80874C25.2331 9.91677 25.0871 9.94596 24.9791 9.87394C24.9807 9.87502 24.9816 9.87553 24.9816 9.87557C24.9815 9.87569 24.9732 9.87147 24.952 9.86553C24.9271 9.85851 24.895 9.852 24.858 9.84658C24.7835 9.83566 24.7056 9.83144 24.6586 9.83144C24.573 9.83144 24.4953 9.8121 24.445 9.79957C24.386 9.78487 24.3573 9.77787 24.3312 9.77642C24.1204 9.76471 23.8815 9.71419 23.6776 9.67107C23.617 9.65825 23.5595 9.64608 23.5067 9.63579C23.3793 9.61092 23.2962 9.48746 23.321 9.36003Z" fill="#3FB47C"/>
<path fill-rule="evenodd" clip-rule="evenodd" d="M25.4587 11.6334L25.6591 11.7564C25.9514 11.9358 26.2726 12.1812 26.4685 12.5141C26.5392 12.6344 26.603 12.7545 26.6631 12.8747C26.692 12.9325 26.7275 13.0084 26.7561 13.0897C26.7837 13.1679 26.8108 13.2671 26.8108 13.3676V13.5813C26.8108 13.6469 26.7989 13.7091 26.7913 13.7481L26.7911 13.7493C26.782 13.7962 26.7783 13.8167 26.7776 13.8341C26.7772 13.8435 26.7769 13.8533 26.7765 13.8632C26.7716 13.9969 26.7651 14.1725 26.7192 14.3333C26.6956 14.4158 26.6688 14.4949 26.6383 14.574C26.6307 14.594 26.6254 14.6186 26.618 14.6653C26.6174 14.6692 26.6167 14.6733 26.6161 14.6777C26.6098 14.718 26.6003 14.7784 26.5813 14.8375C26.58 14.8417 26.5783 14.847 26.5764 14.8531C26.5695 14.8752 26.5592 14.9082 26.5484 14.937C26.5338 14.9757 26.5105 15.0294 26.4716 15.0795C26.4528 15.1037 26.4282 15.1256 26.4185 15.1342C26.4038 15.1472 26.385 15.1628 26.3661 15.1764C26.3572 15.1828 26.3432 15.1925 26.3268 15.2014C26.3188 15.2058 26.305 15.2129 26.2872 15.2192C26.2757 15.2233 26.2325 15.2384 26.1766 15.2317C26.1446 15.2278 26.1001 15.2156 26.0578 15.1821C26.0137 15.1472 25.9885 15.102 25.9768 15.0603C25.9572 14.9905 25.9757 14.9336 25.9799 14.9204C25.9917 14.8841 26.0105 14.8558 26.017 14.8461L26.1425 14.6578C26.1456 14.642 26.1487 14.6225 26.153 14.5958L26.1537 14.5913C26.1611 14.5449 26.1723 14.4761 26.1995 14.4053C26.2255 14.3378 26.2477 14.272 26.2671 14.2041C26.2969 14.1001 26.3016 13.9774 26.3074 13.8267C26.3075 13.8232 26.3076 13.8196 26.3078 13.816C26.3099 13.76 26.3207 13.7049 26.3276 13.6695C26.3283 13.6662 26.3289 13.663 26.3295 13.66C26.3377 13.6176 26.3406 13.5974 26.3406 13.5821V13.3684C26.3406 13.3457 26.3331 13.304 26.3127 13.2459C26.2933 13.1909 26.2673 13.1345 26.2426 13.085C26.186 12.9717 26.1273 12.8614 26.0632 12.7525C25.9259 12.519 25.6832 12.3228 25.4132 12.1571L25.2128 12.0342L25.4587 11.6334Z" fill="#3FB47C"/>
<path fill-rule="evenodd" clip-rule="evenodd" d="M23.0187 11.6334L22.8183 11.7564C22.526 11.9358 22.2048 12.1812 22.0089 12.5141C21.9381 12.6344 21.8743 12.7545 21.8143 12.8747C21.7854 12.9325 21.7499 13.0084 21.7212 13.0897C21.6937 13.1679 21.6666 13.2671 21.6666 13.3676V13.5813C21.6666 13.6469 21.6785 13.7091 21.686 13.7481L21.6862 13.7493C21.6953 13.7962 21.6991 13.8167 21.6998 13.8341C21.7001 13.8435 21.7005 13.8533 21.7009 13.8632C21.7058 13.9969 21.7122 14.1725 21.7581 14.3333C21.7817 14.4158 21.8086 14.4949 21.839 14.574C21.8467 14.594 21.8519 14.6186 21.8594 14.6653C21.86 14.6692 21.8606 14.6733 21.8613 14.6777C21.8676 14.718 21.877 14.7784 21.8961 14.8375C21.8974 14.8417 21.899 14.847 21.901 14.8531C21.9079 14.8752 21.9181 14.9082 21.929 14.937C21.9435 14.9757 21.9668 15.0294 22.0058 15.0795C22.0246 15.1037 22.0492 15.1256 22.0589 15.1342C22.0736 15.1472 22.0924 15.1628 22.1113 15.1764C22.1202 15.1828 22.1341 15.1925 22.1505 15.2014C22.1585 15.2058 22.1724 15.2129 22.1901 15.2192C22.2017 15.2233 22.2448 15.2384 22.3008 15.2317C22.3327 15.2278 22.3772 15.2156 22.4195 15.1821C22.4637 15.1472 22.4889 15.102 22.5006 15.0603C22.5202 14.9905 22.5017 14.9336 22.4974 14.9204C22.4856 14.8841 22.4668 14.8558 22.4604 14.8461L22.3348 14.6578C22.3317 14.642 22.3286 14.6225 22.3244 14.5958L22.3237 14.5913C22.3163 14.5449 22.3051 14.4761 22.2779 14.4053C22.2519 14.3378 22.2296 14.272 22.2102 14.2041C22.1805 14.1001 22.1758 13.9774 22.17 13.8267C22.1699 13.8232 22.1697 13.8196 22.1696 13.816C22.1674 13.76 22.1566 13.7049 22.1497 13.6695C22.1491 13.6662 22.1484 13.663 22.1479 13.66C22.1397 13.6176 22.1368 13.5974 22.1368 13.5821V13.3684C22.1368 13.3457 22.1442 13.304 22.1647 13.2459C22.1841 13.1909 22.21 13.1345 22.2348 13.085C22.2914 12.9717 22.3501 12.8614 22.4142 12.7525C22.5515 12.519 22.7941 12.3228 23.0642 12.1571L23.2646 12.0342L23.0187 11.6334Z" fill="#3FB47C"/>
<path fill-rule="evenodd" clip-rule="evenodd" d="M25.0454 9.23104L25.1308 9.45004C25.2025 9.63378 25.2801 9.78039 25.3768 9.96336C25.3901 9.98849 25.4038 10.0143 25.4178 10.041C25.4328 10.0694 25.4469 10.094 25.463 10.1222C25.4743 10.1419 25.4866 10.1633 25.5009 10.1891C25.5309 10.2431 25.5646 10.3074 25.5904 10.3774C25.5911 10.3785 25.5944 10.3849 25.6023 10.3972C25.6133 10.4141 25.628 10.4346 25.6445 10.4553C25.6611 10.4761 25.6773 10.4944 25.6905 10.5077C25.696 10.5133 25.7002 10.5171 25.7027 10.5193C25.7393 10.5416 25.7652 10.5676 25.7822 10.5872C25.7934 10.6001 25.8036 10.6137 25.8103 10.6229C25.8472 10.6447 25.8769 10.6697 25.8946 10.6851C25.9086 10.6972 25.9217 10.7092 25.9319 10.7187C25.934 10.7206 25.9359 10.7224 25.9377 10.7241C25.9458 10.7316 25.9513 10.7367 25.9563 10.7412C25.966 10.7497 25.9934 10.7661 26.0498 10.7825C26.1034 10.798 26.1629 10.8081 26.2237 10.8174C26.3416 10.8356 26.4166 10.8302 26.5239 10.7957C26.5439 10.7893 26.5638 10.7805 26.5952 10.7665C26.608 10.7608 26.6228 10.7543 26.6403 10.7467C26.6796 10.7296 26.7396 10.7042 26.8055 10.6907L26.8831 10.5355L27.3036 10.7457L27.1985 10.956C27.1727 11.0076 27.135 11.0404 27.1168 11.0552C27.0942 11.0734 27.0708 11.0881 27.0504 11.0993C27.0161 11.1181 26.9602 11.1436 26.9009 11.151C26.9007 11.1511 26.8946 11.152 26.8804 11.1569C26.8663 11.1617 26.8493 11.1685 26.8275 11.178C26.8208 11.1809 26.8128 11.1845 26.8039 11.1884C26.7669 11.2049 26.7142 11.2284 26.6678 11.2433C26.4866 11.3016 26.3376 11.3107 26.1522 11.2821C26.0912 11.2728 26.0047 11.259 25.9188 11.234C25.8358 11.2099 25.7302 11.1692 25.644 11.0926C25.6347 11.0844 25.6247 11.075 25.6166 11.0675C25.6151 11.0661 25.6136 11.0647 25.6123 11.0635C25.6025 11.0544 25.5944 11.047 25.5868 11.0404C25.5802 11.0347 25.5756 11.0311 25.5727 11.0289C25.5307 11.0088 25.5001 10.9825 25.4789 10.9604C25.4585 10.9392 25.443 10.9176 25.436 10.9078L25.4354 10.907C25.4351 10.9066 25.4348 10.9061 25.4345 10.9057C25.4025 10.8835 25.3755 10.8578 25.3566 10.8387C25.3289 10.8108 25.3015 10.7793 25.2769 10.7484C25.2346 10.6954 25.1762 10.6141 25.1502 10.5425C25.137 10.5062 25.117 10.4662 25.0899 10.4175C25.0821 10.4033 25.0724 10.3863 25.0619 10.368C25.0421 10.3332 25.0195 10.2938 25.0017 10.26C24.9883 10.2343 24.9749 10.209 24.9616 10.1839C24.8655 10.0024 24.775 9.83139 24.6928 9.62097L24.6074 9.40197L25.0454 9.23104Z" fill="#3FB47C"/>
<path fill-rule="evenodd" clip-rule="evenodd" d="M27.2893 9.07358C27.2453 9.05899 27.2042 9.05715 27.1296 9.07206C27.0464 9.0887 26.9736 9.16334 26.9588 9.24121C26.9425 9.32665 26.9789 9.44006 27.066 9.56577C27.1348 9.66512 27.1764 9.7842 27.1977 9.88249C27.2341 10.0497 27.2715 10.2237 27.3022 10.3976C27.3248 10.5255 27.2394 10.6474 27.1116 10.67C26.9837 10.6925 26.8618 10.6072 26.8392 10.4793C26.8103 10.3157 26.7748 10.1501 26.7383 9.98237C26.7255 9.92327 26.7027 9.86708 26.6794 9.8334C26.5684 9.67305 26.445 9.4259 26.4969 9.15323C26.5483 8.88358 26.7703 8.66444 27.0374 8.61102C27.1616 8.58618 27.2914 8.57868 27.4384 8.62768C27.5045 8.64973 27.558 8.68636 27.5849 8.70478C27.5865 8.7059 27.5881 8.70695 27.5895 8.70793C27.6171 8.72671 27.6242 8.73041 27.6244 8.73065" fill="#3FB47C"/>
<path fill-rule="evenodd" clip-rule="evenodd" d="M25.1563 9.36009C25.1315 9.23266 25.008 9.14951 24.8806 9.17437C24.8108 9.18799 24.742 9.20251 24.6742 9.21679C24.4781 9.25814 24.2914 9.29751 24.12 9.30703C24.0468 9.3111 23.9773 9.32864 23.9317 9.34014C23.9274 9.34121 23.9234 9.34223 23.9196 9.34318C23.866 9.35651 23.84 9.36132 23.8188 9.36132C23.7509 9.36132 23.6501 9.36693 23.5512 9.38143C23.5015 9.38871 23.4483 9.39881 23.3979 9.41301C23.3506 9.42632 23.2907 9.44729 23.2375 9.48279C23.1294 9.55481 23.1003 9.70077 23.1723 9.8088C23.2443 9.91683 23.3902 9.94602 23.4983 9.874C23.4967 9.87508 23.4958 9.87559 23.4958 9.87563C23.4959 9.87575 23.5042 9.87153 23.5253 9.86558C23.5502 9.85857 23.5824 9.85206 23.6194 9.84663C23.6939 9.83572 23.7718 9.8315 23.8188 9.8315C23.9044 9.8315 23.982 9.81216 24.0323 9.79963C24.0913 9.78493 24.12 9.77793 24.1461 9.77648C24.357 9.76476 24.5958 9.71425 24.7997 9.67113C24.8603 9.65831 24.9179 9.64614 24.9706 9.63584C25.0981 9.61098 25.1812 9.48752 25.1563 9.36009Z" fill="#3FB47C"/>
<path fill-rule="evenodd" clip-rule="evenodd" d="M23.4327 9.22735L23.3472 9.44635C23.2729 9.63669 23.1916 9.79088 23.0903 9.98272C23.0803 10.0018 23.07 10.0212 23.0596 10.0411C23.0446 10.0695 23.0305 10.0941 23.0144 10.1223C23.0031 10.142 22.9908 10.1634 22.9764 10.1892C22.9464 10.2432 22.9128 10.3075 22.8869 10.3775C22.8863 10.3787 22.883 10.385 22.875 10.3973C22.8641 10.4142 22.8494 10.4347 22.8329 10.4554C22.8163 10.4762 22.8001 10.4945 22.7869 10.5078C22.7813 10.5134 22.7772 10.5172 22.7746 10.5195C22.7381 10.5418 22.7122 10.5677 22.6952 10.5873C22.684 10.6002 22.6738 10.6138 22.6671 10.623C22.6302 10.6448 22.6005 10.6698 22.5827 10.6852C22.5687 10.6973 22.5557 10.7093 22.5454 10.7188C22.5434 10.7207 22.5415 10.7225 22.5397 10.7242C22.5316 10.7317 22.5261 10.7368 22.521 10.7413C22.5114 10.7498 22.484 10.7662 22.4275 10.7826C22.374 10.7981 22.3145 10.8082 22.2537 10.8175C22.1358 10.8357 22.0608 10.8303 21.9535 10.7958C21.9335 10.7894 21.9136 10.7806 21.8822 10.7667C21.8694 10.761 21.8546 10.7544 21.8371 10.7468C21.7978 10.7297 21.7378 10.7043 21.6719 10.6908L21.5943 10.5356L21.1738 10.7458L21.2789 10.9561C21.3047 11.0077 21.3424 11.0405 21.3606 11.0553C21.3832 11.0735 21.4066 11.0882 21.4269 11.0994C21.4613 11.1182 21.5171 11.1437 21.5764 11.1512C21.5764 11.1512 21.5825 11.152 21.597 11.157C21.6111 11.1618 21.6281 11.1686 21.6499 11.1781C21.6566 11.181 21.6646 11.1846 21.6735 11.1885C21.7105 11.205 21.7632 11.2285 21.8096 11.2435C21.9908 11.3017 22.1398 11.3108 22.3252 11.2822C22.3862 11.2729 22.4727 11.2591 22.5586 11.2341C22.6416 11.2101 22.7472 11.1693 22.8334 11.0927C22.8426 11.0845 22.8527 11.0751 22.8608 11.0676C22.8623 11.0662 22.8638 11.0649 22.8651 11.0636C22.8749 11.0545 22.883 11.0471 22.8906 11.0405C22.8972 11.0348 22.9017 11.0312 22.9047 11.029C22.9466 11.0089 22.9772 10.9826 22.9984 10.9605C23.0189 10.9393 23.0343 10.9177 23.0414 10.9079L23.0419 10.9071C23.0423 10.9067 23.0426 10.9062 23.0429 10.9058C23.0748 10.8836 23.1019 10.8579 23.1208 10.8388C23.1485 10.8109 23.1759 10.7794 23.2005 10.7485C23.2427 10.6955 23.3011 10.6143 23.3272 10.5426C23.3404 10.5063 23.3604 10.4663 23.3874 10.4176C23.3953 10.4034 23.405 10.3864 23.4154 10.3681C23.4353 10.3334 23.4578 10.2939 23.4756 10.2601C23.4863 10.2399 23.4968 10.2199 23.5073 10.2C23.6071 10.0111 23.7007 9.83375 23.7852 9.61728L23.8707 9.39827L23.4327 9.22735Z" fill="#3FB47C"/>
<path fill-rule="evenodd" clip-rule="evenodd" d="M21.1881 9.07358C21.2321 9.05899 21.2732 9.05715 21.3477 9.07206C21.431 9.0887 21.5038 9.16334 21.5186 9.24121C21.5349 9.32665 21.4984 9.44006 21.4114 9.56577C21.3426 9.66512 21.301 9.7842 21.2796 9.88249C21.2433 10.0497 21.2059 10.2237 21.1752 10.3976C21.1526 10.5255 21.238 10.6474 21.3658 10.67C21.4937 10.6925 21.6156 10.6072 21.6382 10.4793C21.6671 10.3157 21.7026 10.1501 21.7391 9.98237C21.7519 9.92327 21.7747 9.86708 21.798 9.8334C21.909 9.67305 22.0324 9.4259 21.9805 9.15323C21.9291 8.88358 21.7071 8.66444 21.44 8.61102C21.3158 8.58618 21.186 8.57868 21.039 8.62768C20.9729 8.64973 20.9194 8.68636 20.8925 8.70478C20.8909 8.7059 20.8893 8.70695 20.8879 8.70793C20.8603 8.72671 20.8532 8.73041 20.8529 8.73065" fill="#3FB47C"/>
<path fill-rule="evenodd" clip-rule="evenodd" d="M23.5428 10.3202C23.4229 10.2705 23.2853 10.3274 23.2356 10.4474C23.2015 10.5296 23.1636 10.6147 23.1297 10.6679C23.1149 10.6911 23.0978 10.713 23.0725 10.7451C23.067 10.7521 23.0611 10.7596 23.0547 10.7678C23.0239 10.8071 22.9815 10.8625 22.9491 10.9273C22.9392 10.9472 22.9114 10.9791 22.8432 11.0289C22.8172 11.0478 22.7909 11.0656 22.7612 11.0857C22.7536 11.0908 22.7458 11.0961 22.7378 11.1016C22.7008 11.1267 22.6578 11.1564 22.6182 11.1887C22.5784 11.2213 22.5196 11.2486 22.4283 11.2799C22.409 11.2866 22.3866 11.2938 22.3624 11.3017C22.2902 11.3251 22.2015 11.3539 22.1271 11.3877C21.9337 11.4756 21.7323 11.5476 21.5221 11.6128C21.3777 11.6576 21.1945 11.7192 21.0484 11.8318C20.8874 11.9559 20.7755 12.1385 20.7755 12.3928C20.7755 12.3986 20.7754 12.4059 20.7752 12.4144C20.7743 12.466 20.7724 12.5629 20.7955 12.6447C20.8118 12.7022 20.8419 12.7647 20.8966 12.8191C20.9453 12.8673 21.0032 12.8992 21.0642 12.9194C21.0692 12.9232 21.0762 12.9288 21.0867 12.9373C21.0883 12.9387 21.0901 12.9401 21.092 12.9417C21.1047 12.9521 21.1226 12.9668 21.1404 12.98C21.1603 12.9948 21.1912 13.0164 21.2287 13.033C21.2667 13.0499 21.2938 13.0609 21.317 13.0704C21.3464 13.0824 21.3695 13.0918 21.4005 13.1073C21.5166 13.1654 21.6578 13.1183 21.7159 13.0022C21.774 12.886 21.7269 12.7448 21.6108 12.6868C21.569 12.6658 21.5128 12.6425 21.4692 12.6243C21.4521 12.6172 21.4369 12.6109 21.4253 12.6059C21.4243 12.6051 21.4228 12.6041 21.4209 12.6027C21.4127 12.5966 21.4042 12.5896 21.3907 12.5786C21.3886 12.5769 21.3864 12.5751 21.3841 12.5732C21.3694 12.5612 21.3474 12.5433 21.3237 12.5271C21.3068 12.5155 21.2797 12.4982 21.2454 12.4845C21.2451 12.4734 21.2451 12.4609 21.2453 12.4455C21.2453 12.4416 21.2454 12.4374 21.2454 12.433C21.2455 12.4206 21.2457 12.4064 21.2457 12.3928C21.2457 12.2979 21.2787 12.2479 21.3354 12.2042C21.4071 12.149 21.5145 12.1075 21.6615 12.0618C21.8834 11.9929 22.1047 11.9143 22.3216 11.8157C22.3703 11.7936 22.419 11.7778 22.4805 11.7579C22.5105 11.7482 22.5435 11.7375 22.581 11.7246C22.6812 11.6903 22.8077 11.6412 22.9159 11.5526C22.9376 11.5349 22.9652 11.5155 23.0018 11.4906C23.0081 11.4864 23.0146 11.4819 23.0214 11.4774C23.0517 11.4569 23.0869 11.4331 23.1204 11.4086C23.1994 11.3509 23.3065 11.2638 23.3697 11.1376C23.379 11.119 23.3949 11.096 23.4251 11.0574C23.429 11.0524 23.4332 11.0471 23.4377 11.0414C23.4631 11.0092 23.4977 10.9654 23.5264 10.9203C23.5852 10.828 23.6371 10.7067 23.6699 10.6274C23.7196 10.5075 23.6627 10.37 23.5428 10.3202Z" fill="#F8D74C"/>
<path d="M22.6243 11.4243H25.9155V14.5919C25.9155 15.2217 25.4981 15.7751 24.8925 15.9482L24.2699 16.126L23.6473 15.9482C23.0418 15.7751 22.6243 15.2217 22.6243 14.5919V11.4243Z" fill="#64BEDB"/>
<mask id="mask0_440_1580" style="mask-type:alpha" maskUnits="userSpaceOnUse" x="22" y="11" width="4" height="6">
<path d="M22.6243 11.4243H25.9155V14.5919C25.9155 15.2217 25.4981 15.7751 24.8925 15.9482L24.2699 16.126L23.6473 15.9482C23.0418 15.7751 22.6243 15.2217 22.6243 14.5919V11.4243Z" fill="#64BEDB"/>
</mask>
<g mask="url(#mask0_440_1580)">
<path d="M24.2907 11.6147L22.6387 14.2416C22.5621 14.4509 22.4076 14.9039 22.403 15.0412C22.3973 15.2128 22.8664 16.0365 23.1352 16.1738C23.3503 16.2836 23.8922 16.3683 24.1363 16.3969L25.5835 16.0365L26.0926 14.7094L25.921 14.2416L24.2907 11.6147Z" fill="#3FB47C"/>
<path fill-rule="evenodd" clip-rule="evenodd" d="M24.2912 11.4373L26.006 14.2002L26.1931 14.7101L25.6538 16.1159L24.1424 16.4923L24.1253 16.4903C24.0012 16.4757 23.8022 16.447 23.6065 16.408C23.4143 16.3697 23.213 16.3191 23.0925 16.2575C23.0068 16.2138 22.9168 16.1233 22.834 16.0228C22.7488 15.9193 22.6627 15.7944 22.586 15.6695C22.5093 15.5447 22.4409 15.4179 22.3917 15.3103C22.3671 15.2566 22.3467 15.2064 22.3324 15.1626C22.3191 15.1218 22.3077 15.0769 22.309 15.038C22.3105 14.9926 22.3235 14.9299 22.3398 14.8648C22.3567 14.7974 22.3794 14.7195 22.4041 14.6404C22.4534 14.482 22.5117 14.315 22.5504 14.2092L22.5539 14.1999L24.2912 11.4373ZM22.7236 14.2832C22.6857 14.3872 22.6304 14.5461 22.5836 14.6963C22.5595 14.7738 22.5379 14.848 22.5222 14.9106C22.5059 14.9757 22.4978 15.021 22.497 15.0443C22.497 15.0442 22.497 15.0456 22.4973 15.0488C22.4977 15.052 22.4983 15.0562 22.4994 15.0617C22.5017 15.0728 22.5055 15.0869 22.5112 15.1043C22.5225 15.139 22.5399 15.1823 22.5627 15.2321C22.6082 15.3315 22.6728 15.4515 22.7463 15.5711C22.8198 15.6909 22.901 15.8083 22.9792 15.9032C23.0598 16.0011 23.1292 16.0651 23.178 16.09C23.2725 16.1383 23.4497 16.185 23.6433 16.2236C23.8246 16.2597 24.0095 16.2868 24.1303 16.3015L25.5133 15.9571L25.9922 14.7086L25.836 14.283L24.2902 11.7922L22.7236 14.2832Z" fill="#F8D74C"/>
<path fill-rule="evenodd" clip-rule="evenodd" d="M24.1841 13.8542V13.2468H24.3721V13.8542H24.9258C24.9777 13.8542 25.0198 13.8963 25.0198 13.9482C25.0198 14.0002 24.9777 14.0423 24.9258 14.0423H24.3721V15.4444L25.1556 15.0911V14.6756C25.1556 14.6236 25.1977 14.5815 25.2496 14.5815C25.3016 14.5815 25.3437 14.6236 25.3437 14.6756V15.1518C25.3437 15.1888 25.322 15.2223 25.2883 15.2375L24.3168 15.6757C24.292 15.6869 24.2635 15.6868 24.2388 15.6754L23.2863 15.2372C23.253 15.2219 23.2316 15.1885 23.2316 15.1518V14.6756C23.2316 14.6236 23.2737 14.5815 23.3256 14.5815C23.3776 14.5815 23.4197 14.6236 23.4197 14.6756V15.0916L24.1841 15.4432V14.0423H23.6876C23.6356 14.0423 23.5935 14.0002 23.5935 13.9482C23.5935 13.8963 23.6356 13.8542 23.6876 13.8542H24.1841Z" fill="#F8D74C"/>
</g>
<path fill-rule="evenodd" clip-rule="evenodd" d="M25.2999 9.56259C25.3461 9.44126 25.482 9.38038 25.6033 9.4266C25.7252 9.47302 25.9062 9.48755 26.0765 9.49386C26.157 9.49684 26.2324 9.52348 26.2777 9.54044C26.3044 9.5504 26.3232 9.55794 26.3385 9.56401C26.3588 9.57213 26.3726 9.57763 26.3895 9.5828C26.4757 9.60914 26.5764 9.66025 26.6432 9.7028C26.6548 9.7102 26.6675 9.71813 26.681 9.72657C26.7636 9.77822 26.8769 9.8491 26.9686 9.93562C27.052 10.0143 27.1323 10.1189 27.1692 10.2539C27.2939 10.1516 27.4424 10.0491 27.5857 9.98468C27.7997 9.88837 28.0373 9.88912 28.2069 9.88965C28.219 9.88969 28.2308 9.88972 28.2423 9.88972C28.3721 9.88972 28.4773 9.99497 28.4773 10.1248C28.4773 10.2546 28.3721 10.3599 28.2423 10.3599C28.0405 10.3599 27.8971 10.3601 27.7786 10.4134C27.6481 10.4722 27.485 10.5941 27.3641 10.7082C27.333 10.7376 27.3003 10.7637 27.2753 10.7835L27.2714 10.7866C27.2555 10.7992 27.2424 10.8095 27.2309 10.8191C27.2291 10.8228 27.2269 10.8272 27.2244 10.8323C27.2243 10.8325 27.2245 10.832 27.2244 10.8323C27.2203 10.8406 27.2017 10.8786 27.1653 10.9114C27.1431 10.9314 27.1071 10.9564 27.0568 10.9678C27.0041 10.9798 26.9549 10.9726 26.9155 10.9572C26.8509 10.9319 26.8153 10.8857 26.8063 10.874C26.7923 10.8559 26.7814 10.8373 26.7744 10.8248C26.7498 10.7804 26.7401 10.7371 26.7358 10.7058C26.7314 10.6739 26.7313 10.6447 26.732 10.6232C26.7325 10.6039 26.734 10.5847 26.7349 10.572C26.735 10.5707 26.7351 10.5695 26.7352 10.5684L26.7364 10.5518L26.7366 10.5472C26.7366 10.5465 26.7366 10.546 26.7366 10.5458C26.7365 10.5448 26.7358 10.5399 26.7328 10.5242C26.7325 10.5231 26.7323 10.5219 26.7321 10.5207C26.7281 10.5007 26.7201 10.4604 26.7201 10.4136C26.7201 10.3725 26.7038 10.3322 26.6459 10.2776C26.5909 10.2257 26.523 10.1829 26.4385 10.1296C26.4232 10.12 26.4073 10.1099 26.3908 10.0995C26.3493 10.0731 26.2875 10.0432 26.2521 10.0324C26.2242 10.0239 26.1969 10.0135 26.1749 10.005C26.1663 10.0016 26.1586 9.99853 26.1513 9.99568C26.1378 9.99035 26.1261 9.9857 26.113 9.98081C26.0781 9.96774 26.0629 9.96456 26.0596 9.96388C26.0589 9.96373 26.0592 9.96386 26.0596 9.96388C25.8963 9.95783 25.6401 9.94376 25.4359 9.86597C25.3146 9.81975 25.2537 9.68392 25.2999 9.56259Z" fill="#F8D74C"/>
<path fill-rule="evenodd" clip-rule="evenodd" d="M24.9346 10.3203C25.0545 10.2706 25.192 10.3275 25.2418 10.4475C25.2759 10.5297 25.3138 10.6148 25.3476 10.668C25.3624 10.6912 25.3796 10.7131 25.4049 10.7452C25.4104 10.7522 25.4163 10.7597 25.4226 10.7679C25.4534 10.8072 25.4958 10.8626 25.5282 10.9274C25.5382 10.9473 25.566 10.9792 25.6342 11.029C25.6601 11.0479 25.6864 11.0657 25.7162 11.0858C25.7237 11.0909 25.7315 11.0962 25.7396 11.1017C25.7766 11.1268 25.8196 11.1565 25.8592 11.1888C25.8989 11.2214 25.9578 11.2487 26.049 11.28C26.0683 11.2867 26.0907 11.2939 26.115 11.3018C26.1871 11.3252 26.2759 11.354 26.3503 11.3878C26.5437 11.4757 26.7451 11.5477 26.9552 11.6129C27.0996 11.6577 27.2828 11.7193 27.4289 11.8319C27.59 11.956 27.7018 12.1386 27.7018 12.3929C27.7018 12.3987 27.702 12.406 27.7021 12.4145C27.7031 12.4661 27.7049 12.563 27.6818 12.6448C27.6656 12.7023 27.6354 12.7648 27.5807 12.8192C27.5321 12.8674 27.4741 12.8993 27.4132 12.9195C27.4082 12.9233 27.4012 12.9289 27.3907 12.9374C27.389 12.9388 27.3873 12.9402 27.3854 12.9418C27.3727 12.9522 27.3548 12.9669 27.337 12.9801C27.3171 12.9949 27.2861 13.0165 27.2487 13.0331C27.2107 13.05 27.1836 13.0611 27.1604 13.0705C27.131 13.0825 27.1078 13.0919 27.0768 13.1074C26.9607 13.1655 26.8195 13.1184 26.7614 13.0023C26.7034 12.8861 26.7504 12.7449 26.8666 12.6869C26.9084 12.666 26.9646 12.6426 27.0081 12.6244C27.0253 12.6173 27.0404 12.611 27.052 12.606C27.0531 12.6052 27.0546 12.6042 27.0565 12.6028C27.0647 12.5967 27.0731 12.5897 27.0867 12.5787C27.0887 12.577 27.0909 12.5752 27.0933 12.5733C27.108 12.5613 27.13 12.5434 27.1536 12.5272C27.1706 12.5156 27.1976 12.4983 27.232 12.4846C27.2322 12.4735 27.2322 12.461 27.2321 12.4456C27.232 12.4417 27.232 12.4375 27.2319 12.4331C27.2318 12.4207 27.2316 12.4065 27.2316 12.3929C27.2316 12.298 27.1986 12.248 27.1419 12.2043C27.0703 12.1491 26.9629 12.1076 26.8159 12.0619C26.5939 11.993 26.3727 11.9144 26.1557 11.8158C26.107 11.7937 26.0583 11.7779 25.9968 11.758C25.9669 11.7483 25.9339 11.7376 25.8963 11.7247C25.7962 11.6904 25.6697 11.6413 25.5614 11.5527C25.5397 11.535 25.5122 11.5156 25.4755 11.4907C25.4693 11.4865 25.4628 11.482 25.456 11.4775C25.4257 11.457 25.3905 11.4332 25.3569 11.4087C25.2779 11.351 25.1708 11.2639 25.1077 11.1377C25.0984 11.1191 25.0824 11.0961 25.0522 11.0575C25.0484 11.0525 25.0442 11.0472 25.0396 11.0415C25.0143 11.0093 24.9797 10.9655 24.9509 10.9204C24.8922 10.8281 24.8403 10.7068 24.8074 10.6275C24.7577 10.5076 24.8146 10.3701 24.9346 10.3203Z" fill="#F8D74C"/>
<path fill-rule="evenodd" clip-rule="evenodd" d="M23.1774 9.56259C23.1312 9.44126 22.9954 9.38038 22.874 9.4266C22.7522 9.47302 22.5712 9.48755 22.4008 9.49386C22.3204 9.49684 22.245 9.52348 22.1996 9.54044C22.173 9.5504 22.1541 9.55794 22.1389 9.56401C22.1185 9.57213 22.1047 9.57763 22.0878 9.5828C22.0016 9.60914 21.901 9.66025 21.8341 9.7028C21.8225 9.7102 21.8098 9.71813 21.7963 9.72657C21.7137 9.77822 21.6004 9.8491 21.5087 9.93562C21.4253 10.0143 21.3451 10.1189 21.3082 10.2539C21.1835 10.1516 21.0349 10.0491 20.8917 9.98468C20.6776 9.88837 20.44 9.88912 20.2705 9.88965C20.2583 9.88969 20.2465 9.88972 20.2351 9.88972C20.1053 9.88972 20 9.99497 20 10.1248C20 10.2546 20.1053 10.3599 20.2351 10.3599C20.4368 10.3599 20.5802 10.3601 20.6987 10.4134C20.8293 10.4722 20.9923 10.5941 21.1132 10.7082C21.1443 10.7376 21.1771 10.7637 21.2021 10.7835L21.2059 10.7866C21.2219 10.7992 21.2349 10.8095 21.2464 10.8191C21.2483 10.8228 21.2505 10.8272 21.253 10.8323C21.2531 10.8325 21.2528 10.832 21.253 10.8323C21.257 10.8406 21.2757 10.8786 21.3121 10.9114C21.3343 10.9314 21.3703 10.9564 21.4206 10.9678C21.4733 10.9798 21.5225 10.9726 21.5618 10.9572C21.6264 10.9319 21.662 10.8857 21.671 10.874C21.685 10.8559 21.6959 10.8373 21.7029 10.8248C21.7275 10.7804 21.7373 10.7371 21.7416 10.7058C21.746 10.6739 21.746 10.6447 21.7454 10.6232C21.7448 10.6039 21.7434 10.5847 21.7424 10.572C21.7423 10.5707 21.7422 10.5695 21.7421 10.5684L21.741 10.5518L21.7408 10.5472C21.7408 10.5465 21.7407 10.546 21.7407 10.5458C21.7409 10.5448 21.7415 10.5399 21.7446 10.5242C21.7448 10.5231 21.745 10.5219 21.7453 10.5207C21.7492 10.5007 21.7572 10.4604 21.7572 10.4136C21.7572 10.3725 21.7735 10.3322 21.8314 10.2776C21.8864 10.2257 21.9544 10.1829 22.0388 10.1296C22.0542 10.12 22.0701 10.1099 22.0866 10.0995C22.128 10.0731 22.1899 10.0432 22.2252 10.0324C22.2531 10.0239 22.2805 10.0135 22.3024 10.005C22.3111 10.0016 22.3188 9.99853 22.326 9.99568C22.3395 9.99035 22.3513 9.9857 22.3644 9.98081C22.3993 9.96774 22.4145 9.96456 22.4177 9.96388C22.4185 9.96373 22.4181 9.96386 22.4177 9.96388C22.581 9.95783 22.8372 9.94376 23.0414 9.86597C23.1628 9.81975 23.2236 9.68392 23.1774 9.56259Z" fill="#F8D74C"/>
<path fill-rule="evenodd" clip-rule="evenodd" d="M27.1256 12.9935C27.1262 12.9918 27.126 12.9921 27.1256 12.9935ZM26.86 13.4153C26.8312 13.4398 26.7991 13.462 26.7638 13.4797C26.6537 13.5347 26.5474 13.5676 26.4308 13.5713C26.3185 13.5748 26.2142 13.5505 26.113 13.5203C25.9886 13.4832 25.9178 13.3523 25.9549 13.2279C25.992 13.1034 26.123 13.0327 26.2474 13.0698C26.3334 13.0954 26.3799 13.1025 26.4159 13.1013C26.4473 13.1003 26.4863 13.0926 26.5519 13.06C26.5528 13.0593 26.5581 13.0555 26.5671 13.0459C26.5795 13.0327 26.5942 13.0137 26.6097 12.9894C26.6413 12.9399 26.6666 12.8838 26.6795 12.8449C26.6836 12.8325 26.6921 12.8084 26.7065 12.7836C26.7129 12.7724 26.7295 12.7452 26.7595 12.7195C26.7902 12.6931 26.8655 12.6444 26.9676 12.6679C27.0592 12.689 27.1038 12.7537 27.1174 12.7759C27.1338 12.8028 27.1414 12.827 27.1445 12.8379C27.1512 12.8613 27.1536 12.8821 27.1545 12.8914C27.1578 12.9228 27.1579 12.9836 27.1577 12.9765C27.1579 12.9847 27.159 12.9906 27.1611 12.9979C27.164 13.0078 27.1688 13.0204 27.1801 13.0466C27.1967 13.0856 27.2062 13.097 27.2523 13.1507C27.26 13.1527 27.2722 13.1551 27.29 13.1569C27.314 13.1594 27.3416 13.1602 27.3727 13.1601C27.3881 13.1601 27.4032 13.1598 27.4192 13.1595L27.4208 13.1595C27.4356 13.1593 27.4519 13.159 27.4673 13.159C27.5971 13.159 27.7023 13.2642 27.7023 13.3941C27.7023 13.5239 27.5971 13.6291 27.4673 13.6291C27.4601 13.6291 27.4503 13.6293 27.4385 13.6295C27.3913 13.6304 27.3123 13.6318 27.2421 13.6247C27.1612 13.6164 27.0107 13.5913 26.9083 13.4719C26.9038 13.4666 26.8993 13.4614 26.8947 13.4561C26.8833 13.4429 26.8717 13.4295 26.86 13.4153Z" fill="#F8D74C"/>
<path fill-rule="evenodd" clip-rule="evenodd" d="M21.2698 12.9935C21.2692 12.9918 21.2693 12.9921 21.2698 12.9935ZM21.5354 13.4153C21.5642 13.4398 21.5963 13.462 21.6315 13.4797C21.7417 13.5347 21.848 13.5676 21.9646 13.5713C22.0769 13.5748 22.1812 13.5505 22.2824 13.5203C22.4068 13.4832 22.4776 13.3523 22.4405 13.2279C22.4034 13.1034 22.2724 13.0327 22.148 13.0698C22.062 13.0954 22.0155 13.1025 21.9795 13.1013C21.948 13.1003 21.9091 13.0926 21.8435 13.06C21.8426 13.0593 21.8373 13.0555 21.8283 13.0459C21.8158 13.0327 21.8012 13.0137 21.7857 12.9894C21.754 12.9399 21.7288 12.8838 21.7159 12.8449C21.7117 12.8325 21.7033 12.8084 21.6889 12.7836C21.6824 12.7724 21.6658 12.7452 21.6359 12.7195C21.6052 12.6931 21.5299 12.6444 21.4277 12.6679C21.3362 12.689 21.2916 12.7537 21.278 12.7759C21.2615 12.8028 21.254 12.827 21.2509 12.8379C21.2442 12.8613 21.2418 12.8821 21.2409 12.8914C21.2376 12.9228 21.2375 12.9836 21.2377 12.9765C21.2374 12.9847 21.2364 12.9906 21.2343 12.9979C21.2314 13.0078 21.2266 13.0204 21.2153 13.0466C21.1986 13.0856 21.1892 13.097 21.1431 13.1507C21.1354 13.1527 21.1232 13.1551 21.1054 13.1569C21.0813 13.1594 21.0538 13.1602 21.0227 13.1601C21.0073 13.1601 20.9921 13.1598 20.9762 13.1595L20.9746 13.1595C20.9598 13.1593 20.9434 13.159 20.9281 13.159C20.7983 13.159 20.6931 13.2642 20.6931 13.3941C20.6931 13.5239 20.7983 13.6291 20.9281 13.6291C20.9353 13.6291 20.9451 13.6293 20.9569 13.6295C21.0041 13.6304 21.0831 13.6318 21.1533 13.6247C21.2342 13.6164 21.3847 13.5913 21.4871 13.4719C21.4916 13.4666 21.4961 13.4614 21.5007 13.4561C21.512 13.4429 21.5237 13.4295 21.5354 13.4153Z" fill="#F8D74C"/>
<path fill-rule="evenodd" clip-rule="evenodd" d="M22.4351 15.0348C22.4057 15.0083 22.3707 14.9999 22.3435 14.9985C22.3159 14.997 22.2891 15.0022 22.266 15.0105C22.2429 15.0189 22.2192 15.0319 22.199 15.05C22.1792 15.0678 22.1576 15.0954 22.1504 15.1331C22.1348 15.2158 22.1127 15.3074 22.097 15.3723L22.0897 15.4029L22.0812 15.4303C22.076 15.4472 22.0692 15.4689 22.063 15.4902C22.0569 15.5109 22.0507 15.5334 22.0468 15.5513C22.045 15.5592 22.0425 15.5718 22.0419 15.584C22.0417 15.5881 22.0407 15.6052 22.0475 15.6242C22.0512 15.6347 22.0614 15.6579 22.0875 15.6739C22.1174 15.6923 22.1481 15.6896 22.1676 15.6831C22.1984 15.6729 22.2324 15.6666 22.2715 15.6614C22.2846 15.6596 22.2999 15.6578 22.3161 15.6559C22.333 15.6539 22.3509 15.6518 22.3681 15.6496C22.3733 15.6641 22.3791 15.6796 22.3854 15.6952C22.401 15.734 22.4247 15.7857 22.4622 15.8231C22.4989 15.8598 22.5584 15.8598 22.5951 15.8231C22.6319 15.7864 22.6319 15.7269 22.5951 15.6901C22.5867 15.6817 22.5745 15.6614 22.5598 15.6248C22.5599 15.6251 22.5597 15.6246 22.5598 15.6248C22.6177 15.6156 22.6841 15.6001 22.7414 15.5698C22.7613 15.5592 22.7796 15.5421 22.7907 15.518C22.8013 15.4952 22.8022 15.4732 22.8005 15.4567C22.7973 15.4267 22.7838 15.4007 22.7738 15.384C22.7522 15.3478 22.7175 15.3074 22.6816 15.2693C22.6082 15.1913 22.5086 15.1012 22.4351 15.0348Z" fill="#F8D74C"/>
<path fill-rule="evenodd" clip-rule="evenodd" d="M26.1312 14.8881C26.1605 14.8616 26.1955 14.8532 26.2227 14.8518C26.2503 14.8504 26.2771 14.8555 26.3002 14.8638C26.3234 14.8722 26.3471 14.8852 26.3673 14.9033C26.387 14.9211 26.4087 14.9487 26.4158 14.9864C26.4315 15.0691 26.4536 15.1607 26.4692 15.2256L26.4766 15.2562L26.4851 15.2836C26.4903 15.3005 26.497 15.3223 26.5032 15.3435C26.5093 15.3642 26.5156 15.3868 26.5195 15.4047C26.5212 15.4125 26.5237 15.4251 26.5244 15.4373C26.5246 15.4414 26.5255 15.4585 26.5188 15.4775C26.5151 15.488 26.5049 15.5112 26.4787 15.5273C26.4489 15.5456 26.4181 15.5429 26.3987 15.5364C26.3679 15.5262 26.3338 15.5199 26.2947 15.5147C26.2817 15.5129 26.2664 15.5111 26.2502 15.5092C26.2333 15.5073 26.2154 15.5052 26.1982 15.5029C26.1929 15.5174 26.1872 15.533 26.1809 15.5485C26.1652 15.5874 26.1416 15.639 26.1041 15.6765C26.0674 15.7132 26.0079 15.7132 25.9711 15.6765C25.9344 15.6398 25.9344 15.5802 25.9711 15.5435C25.9796 15.535 25.9917 15.5148 26.0065 15.4782C26.0064 15.4785 26.0066 15.4779 26.0065 15.4782C25.9486 15.4689 25.8822 15.4534 25.8249 15.4231C25.8049 15.4125 25.7867 15.3954 25.7756 15.3714C25.765 15.3486 25.7641 15.3265 25.7658 15.3101C25.7689 15.28 25.7825 15.254 25.7925 15.2373C25.8141 15.2011 25.8487 15.1608 25.8846 15.1226C25.9581 15.0446 26.0576 14.9545 26.1312 14.8881Z" fill="#F8D74C"/>
<defs>
<clipPath id="clip0_440_1580">
<rect width="16" height="12" fill="white"/>
</clipPath>
</defs>
</svg>
