<svg width="24" height="24" viewBox="0 0 24 24" fill="none" xmlns="http://www.w3.org/2000/svg">
<rect width="24" height="24" rx="2" fill="#485CC2"/>
<g clip-path="url(#clip0_440_1604)">
<rect width="13" height="11" fill="#485CC2"/>
<path fill-rule="evenodd" clip-rule="evenodd" d="M13.6094 0.916585L0.609375 11.9166L-0.609375 10.0833L12.3906 -0.916748L13.6094 0.916585Z" fill="#F9F9F9"/>
<path fill-rule="evenodd" clip-rule="evenodd" d="M-0.609375 0.916585L12.3906 11.9166L13.6094 10.0833L0.609375 -0.916748L-0.609375 0.916585Z" fill="#F9F9F9"/>
<path fill-rule="evenodd" clip-rule="evenodd" d="M12.8172 11.7333L-0.182813 0.733252L0.182813 0.183252L13.1828 11.1833L12.8172 11.7333Z" fill="#D74B4B"/>
<path fill-rule="evenodd" clip-rule="evenodd" d="M-0.225756 11.7352L13.5867 0.276861L13.2258 -0.277024L-0.586744 11.1813L-0.225756 11.7352Z" fill="#D74B4B"/>
<path d="M7.71875 1.20206e-07L7.71875 11H5.28125L5.28125 0L7.71875 1.20206e-07Z" fill="#F9F9F9"/>
<path d="M0 4.125H13V6.875H0V4.125Z" fill="#F9F9F9"/>
<path d="M0 4.58333H13V6.41667H0V4.58333Z" fill="#D74B4B"/>
<path d="M7.3125 8.01377e-08L7.3125 11H5.6875L5.6875 0L7.3125 8.01377e-08Z" fill="#D74B4B"/>
</g>
<path fill-rule="evenodd" clip-rule="evenodd" d="M19.2095 8.15782L18.5674 8.57404L18.4651 8.41622L19.1072 8L19.2095 8.15782Z" fill="#E6E6E6"/>
<path fill-rule="evenodd" clip-rule="evenodd" d="M19.6843 8.40897L19.0421 8.82519L18.9399 8.66737L19.582 8.25115L19.6843 8.40897Z" fill="#E6E6E6"/>
<path d="M17.0162 10.1395L17.6655 11.4244H19.3121L18.7994 9.28772L19.1495 8.76664L18.5313 8.33008H17.8008L17.3408 8.671L17.6655 9.09057V9.53635L17.0162 10.1395Z" fill="#E6E6E6"/>
<path fill-rule="evenodd" clip-rule="evenodd" d="M17.321 9.36003C17.3459 9.2326 17.4693 9.14945 17.5968 9.17432C17.6665 9.18793 17.7354 9.20245 17.8031 9.21673C17.9993 9.25809 18.186 9.29745 18.3573 9.30697C18.4305 9.31104 18.5001 9.32858 18.5457 9.34008C18.5499 9.34115 18.554 9.34217 18.5578 9.34312C18.6113 9.35645 18.6374 9.36127 18.6586 9.36127C18.7264 9.36127 18.8273 9.36688 18.9262 9.38138C18.9758 9.38865 19.029 9.39875 19.0795 9.41295C19.1267 9.42626 19.1866 9.44723 19.2399 9.48274C19.3479 9.55476 19.3771 9.70071 19.3051 9.80874C19.2331 9.91677 19.0871 9.94596 18.9791 9.87394C18.9807 9.87502 18.9816 9.87553 18.9816 9.87557C18.9815 9.87569 18.9732 9.87147 18.952 9.86553C18.9271 9.85851 18.895 9.852 18.858 9.84658C18.7835 9.83566 18.7056 9.83144 18.6586 9.83144C18.573 9.83144 18.4953 9.8121 18.445 9.79957C18.386 9.78487 18.3573 9.77787 18.3312 9.77642C18.1204 9.76471 17.8815 9.71419 17.6776 9.67107C17.617 9.65825 17.5595 9.64608 17.5067 9.63579C17.3793 9.61092 17.2962 9.48746 17.321 9.36003Z" fill="#3FB47C"/>
<path fill-rule="evenodd" clip-rule="evenodd" d="M19.4587 11.6334L19.6591 11.7564C19.9514 11.9358 20.2726 12.1812 20.4685 12.5141C20.5392 12.6344 20.603 12.7545 20.6631 12.8747C20.692 12.9325 20.7275 13.0084 20.7561 13.0897C20.7837 13.1679 20.8108 13.2671 20.8108 13.3676V13.5813C20.8108 13.6469 20.7989 13.7091 20.7913 13.7481L20.7911 13.7493C20.782 13.7962 20.7783 13.8167 20.7776 13.8341C20.7772 13.8435 20.7769 13.8533 20.7765 13.8632C20.7716 13.9969 20.7651 14.1725 20.7192 14.3333C20.6956 14.4158 20.6688 14.4949 20.6383 14.574C20.6307 14.594 20.6254 14.6186 20.618 14.6653C20.6174 14.6692 20.6167 14.6733 20.6161 14.6777C20.6098 14.718 20.6003 14.7784 20.5813 14.8375C20.58 14.8417 20.5783 14.847 20.5764 14.8531C20.5695 14.8752 20.5592 14.9082 20.5484 14.937C20.5338 14.9757 20.5105 15.0294 20.4716 15.0795C20.4528 15.1037 20.4282 15.1256 20.4185 15.1342C20.4038 15.1472 20.385 15.1628 20.3661 15.1764C20.3572 15.1828 20.3432 15.1925 20.3268 15.2014C20.3188 15.2058 20.305 15.2129 20.2872 15.2192C20.2757 15.2233 20.2325 15.2384 20.1766 15.2317C20.1446 15.2278 20.1001 15.2156 20.0578 15.1821C20.0137 15.1472 19.9885 15.102 19.9768 15.0603C19.9572 14.9905 19.9757 14.9336 19.9799 14.9204C19.9917 14.8841 20.0105 14.8558 20.017 14.8461L20.1425 14.6578C20.1456 14.642 20.1487 14.6225 20.153 14.5958L20.1537 14.5913C20.1611 14.5449 20.1723 14.4761 20.1995 14.4053C20.2255 14.3378 20.2477 14.272 20.2671 14.2041C20.2969 14.1001 20.3016 13.9774 20.3074 13.8267C20.3075 13.8232 20.3076 13.8196 20.3078 13.816C20.3099 13.76 20.3207 13.7049 20.3276 13.6695C20.3283 13.6662 20.3289 13.663 20.3295 13.66C20.3377 13.6176 20.3406 13.5974 20.3406 13.5821V13.3684C20.3406 13.3457 20.3331 13.304 20.3127 13.2459C20.2933 13.1909 20.2673 13.1345 20.2426 13.085C20.186 12.9717 20.1273 12.8614 20.0632 12.7525C19.9259 12.519 19.6832 12.3228 19.4132 12.1571L19.2128 12.0342L19.4587 11.6334Z" fill="#3FB47C"/>
<path fill-rule="evenodd" clip-rule="evenodd" d="M17.0187 11.6334L16.8183 11.7564C16.526 11.9358 16.2048 12.1812 16.0089 12.5141C15.9381 12.6344 15.8743 12.7545 15.8143 12.8747C15.7854 12.9325 15.7499 13.0084 15.7212 13.0897C15.6937 13.1679 15.6666 13.2671 15.6666 13.3676V13.5813C15.6666 13.6469 15.6785 13.7091 15.686 13.7481L15.6862 13.7493C15.6953 13.7962 15.6991 13.8167 15.6998 13.8341C15.7001 13.8435 15.7005 13.8533 15.7009 13.8632C15.7058 13.9969 15.7122 14.1725 15.7581 14.3333C15.7817 14.4158 15.8086 14.4949 15.839 14.574C15.8467 14.594 15.8519 14.6186 15.8594 14.6653C15.86 14.6692 15.8606 14.6733 15.8613 14.6777C15.8676 14.718 15.877 14.7784 15.8961 14.8375C15.8974 14.8417 15.899 14.847 15.901 14.8531C15.9079 14.8752 15.9181 14.9082 15.929 14.937C15.9435 14.9757 15.9668 15.0294 16.0058 15.0795C16.0246 15.1037 16.0492 15.1256 16.0589 15.1342C16.0736 15.1472 16.0924 15.1628 16.1113 15.1764C16.1202 15.1828 16.1341 15.1925 16.1505 15.2014C16.1585 15.2058 16.1724 15.2129 16.1901 15.2192C16.2017 15.2233 16.2448 15.2384 16.3008 15.2317C16.3327 15.2278 16.3772 15.2156 16.4195 15.1821C16.4637 15.1472 16.4889 15.102 16.5006 15.0603C16.5202 14.9905 16.5017 14.9336 16.4974 14.9204C16.4856 14.8841 16.4668 14.8558 16.4604 14.8461L16.3348 14.6578C16.3317 14.642 16.3286 14.6225 16.3244 14.5958L16.3237 14.5913C16.3163 14.5449 16.3051 14.4761 16.2779 14.4053C16.2519 14.3378 16.2296 14.272 16.2102 14.2041C16.1805 14.1001 16.1758 13.9774 16.17 13.8267C16.1699 13.8232 16.1697 13.8196 16.1696 13.816C16.1674 13.76 16.1566 13.7049 16.1497 13.6695C16.1491 13.6662 16.1484 13.663 16.1479 13.66C16.1397 13.6176 16.1368 13.5974 16.1368 13.5821V13.3684C16.1368 13.3457 16.1442 13.304 16.1647 13.2459C16.1841 13.1909 16.21 13.1345 16.2348 13.085C16.2914 12.9717 16.3501 12.8614 16.4142 12.7525C16.5515 12.519 16.7941 12.3228 17.0642 12.1571L17.2646 12.0342L17.0187 11.6334Z" fill="#3FB47C"/>
<path fill-rule="evenodd" clip-rule="evenodd" d="M19.0454 9.23104L19.1308 9.45004C19.2025 9.63378 19.2801 9.78039 19.3768 9.96336C19.3901 9.98849 19.4038 10.0143 19.4178 10.041C19.4328 10.0694 19.4469 10.094 19.463 10.1222C19.4743 10.1419 19.4866 10.1633 19.5009 10.1891C19.5309 10.2431 19.5646 10.3074 19.5904 10.3774C19.5911 10.3785 19.5944 10.3849 19.6023 10.3972C19.6133 10.4141 19.628 10.4346 19.6445 10.4553C19.6611 10.4761 19.6773 10.4944 19.6905 10.5077C19.696 10.5133 19.7002 10.5171 19.7027 10.5193C19.7393 10.5416 19.7652 10.5676 19.7822 10.5872C19.7934 10.6001 19.8036 10.6137 19.8103 10.6229C19.8472 10.6447 19.8769 10.6697 19.8946 10.6851C19.9086 10.6972 19.9217 10.7092 19.9319 10.7187C19.934 10.7206 19.9359 10.7224 19.9377 10.7241C19.9458 10.7316 19.9513 10.7367 19.9563 10.7412C19.966 10.7497 19.9934 10.7661 20.0498 10.7825C20.1034 10.798 20.1629 10.8081 20.2237 10.8174C20.3416 10.8356 20.4166 10.8302 20.5239 10.7957C20.5439 10.7893 20.5638 10.7805 20.5952 10.7665C20.608 10.7608 20.6228 10.7543 20.6403 10.7467C20.6796 10.7296 20.7396 10.7042 20.8055 10.6907L20.8831 10.5355L21.3036 10.7457L21.1985 10.956C21.1727 11.0076 21.135 11.0404 21.1168 11.0552C21.0942 11.0734 21.0708 11.0881 21.0504 11.0993C21.0161 11.1181 20.9602 11.1436 20.9009 11.151C20.9007 11.1511 20.8946 11.152 20.8804 11.1569C20.8663 11.1617 20.8493 11.1685 20.8275 11.178C20.8208 11.1809 20.8128 11.1845 20.8039 11.1884C20.7669 11.2049 20.7142 11.2284 20.6678 11.2433C20.4866 11.3016 20.3376 11.3107 20.1522 11.2821C20.0912 11.2728 20.0047 11.259 19.9188 11.234C19.8358 11.2099 19.7302 11.1692 19.644 11.0926C19.6347 11.0844 19.6247 11.075 19.6166 11.0675C19.6151 11.0661 19.6136 11.0647 19.6123 11.0635C19.6025 11.0544 19.5944 11.047 19.5868 11.0404C19.5802 11.0347 19.5756 11.0311 19.5727 11.0289C19.5307 11.0088 19.5001 10.9825 19.4789 10.9604C19.4585 10.9392 19.443 10.9176 19.436 10.9078L19.4354 10.907C19.4351 10.9066 19.4348 10.9061 19.4345 10.9057C19.4025 10.8835 19.3755 10.8578 19.3566 10.8387C19.3289 10.8108 19.3015 10.7793 19.2769 10.7484C19.2346 10.6954 19.1762 10.6141 19.1502 10.5425C19.137 10.5062 19.117 10.4662 19.0899 10.4175C19.0821 10.4033 19.0724 10.3863 19.0619 10.368C19.0421 10.3332 19.0195 10.2938 19.0017 10.26C18.9883 10.2343 18.9749 10.209 18.9616 10.1839C18.8655 10.0024 18.775 9.83139 18.6928 9.62097L18.6074 9.40197L19.0454 9.23104Z" fill="#3FB47C"/>
<path fill-rule="evenodd" clip-rule="evenodd" d="M21.2893 9.07358C21.2453 9.05899 21.2042 9.05715 21.1296 9.07206C21.0464 9.0887 20.9736 9.16334 20.9588 9.24121C20.9425 9.32665 20.9789 9.44006 21.066 9.56577C21.1348 9.66512 21.1764 9.7842 21.1977 9.88249C21.2341 10.0497 21.2715 10.2237 21.3022 10.3976C21.3248 10.5255 21.2394 10.6474 21.1116 10.67C20.9837 10.6925 20.8618 10.6072 20.8392 10.4793C20.8103 10.3157 20.7748 10.1501 20.7383 9.98237C20.7255 9.92327 20.7027 9.86708 20.6794 9.8334C20.5684 9.67305 20.445 9.4259 20.4969 9.15323C20.5483 8.88358 20.7703 8.66444 21.0374 8.61102C21.1616 8.58618 21.2914 8.57868 21.4384 8.62768C21.5045 8.64973 21.558 8.68636 21.5849 8.70478C21.5865 8.7059 21.5881 8.70695 21.5895 8.70793C21.6171 8.72671 21.6242 8.73041 21.6244 8.73065" fill="#3FB47C"/>
<path fill-rule="evenodd" clip-rule="evenodd" d="M19.1563 9.36009C19.1315 9.23266 19.008 9.14951 18.8806 9.17437C18.8108 9.18799 18.742 9.20251 18.6742 9.21679C18.4781 9.25814 18.2914 9.29751 18.12 9.30703C18.0468 9.3111 17.9773 9.32864 17.9317 9.34014C17.9274 9.34121 17.9234 9.34223 17.9196 9.34318C17.866 9.35651 17.84 9.36132 17.8188 9.36132C17.7509 9.36132 17.6501 9.36693 17.5512 9.38143C17.5015 9.38871 17.4483 9.39881 17.3979 9.41301C17.3506 9.42632 17.2907 9.44729 17.2375 9.48279C17.1294 9.55481 17.1003 9.70077 17.1723 9.8088C17.2443 9.91683 17.3902 9.94602 17.4983 9.874C17.4967 9.87508 17.4958 9.87559 17.4958 9.87563C17.4959 9.87575 17.5042 9.87153 17.5253 9.86558C17.5502 9.85857 17.5824 9.85206 17.6194 9.84663C17.6939 9.83572 17.7718 9.8315 17.8188 9.8315C17.9044 9.8315 17.982 9.81216 18.0323 9.79963C18.0913 9.78493 18.12 9.77793 18.1461 9.77648C18.357 9.76476 18.5958 9.71425 18.7997 9.67113C18.8603 9.65831 18.9179 9.64614 18.9706 9.63584C19.0981 9.61098 19.1812 9.48752 19.1563 9.36009Z" fill="#3FB47C"/>
<path fill-rule="evenodd" clip-rule="evenodd" d="M17.4327 9.22735L17.3472 9.44635C17.2729 9.63669 17.1916 9.79088 17.0903 9.98272C17.0803 10.0018 17.07 10.0212 17.0596 10.0411C17.0446 10.0695 17.0305 10.0941 17.0144 10.1223C17.0031 10.142 16.9908 10.1634 16.9764 10.1892C16.9464 10.2432 16.9128 10.3075 16.8869 10.3775C16.8863 10.3787 16.883 10.385 16.875 10.3973C16.8641 10.4142 16.8494 10.4347 16.8329 10.4554C16.8163 10.4762 16.8001 10.4945 16.7869 10.5078C16.7813 10.5134 16.7772 10.5172 16.7746 10.5195C16.7381 10.5418 16.7122 10.5677 16.6952 10.5873C16.684 10.6002 16.6738 10.6138 16.6671 10.623C16.6302 10.6448 16.6005 10.6698 16.5827 10.6852C16.5687 10.6973 16.5557 10.7093 16.5454 10.7188C16.5434 10.7207 16.5415 10.7225 16.5397 10.7242C16.5316 10.7317 16.5261 10.7368 16.521 10.7413C16.5114 10.7498 16.484 10.7662 16.4275 10.7826C16.374 10.7981 16.3145 10.8082 16.2537 10.8175C16.1358 10.8357 16.0608 10.8303 15.9535 10.7958C15.9335 10.7894 15.9136 10.7806 15.8822 10.7667C15.8694 10.761 15.8546 10.7544 15.8371 10.7468C15.7978 10.7297 15.7378 10.7043 15.6719 10.6908L15.5943 10.5356L15.1738 10.7458L15.2789 10.9561C15.3047 11.0077 15.3424 11.0405 15.3606 11.0553C15.3832 11.0735 15.4066 11.0882 15.4269 11.0994C15.4613 11.1182 15.5171 11.1437 15.5764 11.1512C15.5764 11.1512 15.5825 11.152 15.597 11.157C15.6111 11.1618 15.6281 11.1686 15.6499 11.1781C15.6566 11.181 15.6646 11.1846 15.6735 11.1885C15.7105 11.205 15.7632 11.2285 15.8096 11.2435C15.9908 11.3017 16.1398 11.3108 16.3252 11.2822C16.3862 11.2729 16.4727 11.2591 16.5586 11.2341C16.6416 11.2101 16.7472 11.1693 16.8334 11.0927C16.8426 11.0845 16.8527 11.0751 16.8608 11.0676C16.8623 11.0662 16.8638 11.0649 16.8651 11.0636C16.8749 11.0545 16.883 11.0471 16.8906 11.0405C16.8972 11.0348 16.9017 11.0312 16.9047 11.029C16.9466 11.0089 16.9772 10.9826 16.9984 10.9605C17.0189 10.9393 17.0343 10.9177 17.0414 10.9079L17.0419 10.9071C17.0423 10.9067 17.0426 10.9062 17.0429 10.9058C17.0748 10.8836 17.1019 10.8579 17.1208 10.8388C17.1485 10.8109 17.1759 10.7794 17.2005 10.7485C17.2427 10.6955 17.3011 10.6143 17.3272 10.5426C17.3404 10.5063 17.3604 10.4663 17.3874 10.4176C17.3953 10.4034 17.405 10.3864 17.4154 10.3681C17.4353 10.3334 17.4578 10.2939 17.4756 10.2601C17.4863 10.2399 17.4968 10.2199 17.5073 10.2C17.6071 10.0111 17.7007 9.83375 17.7852 9.61728L17.8707 9.39827L17.4327 9.22735Z" fill="#3FB47C"/>
<path fill-rule="evenodd" clip-rule="evenodd" d="M15.1881 9.07358C15.2321 9.05899 15.2732 9.05715 15.3477 9.07206C15.431 9.0887 15.5038 9.16334 15.5186 9.24121C15.5349 9.32665 15.4984 9.44006 15.4114 9.56577C15.3426 9.66512 15.301 9.7842 15.2796 9.88249C15.2433 10.0497 15.2059 10.2237 15.1752 10.3976C15.1526 10.5255 15.238 10.6474 15.3658 10.67C15.4937 10.6925 15.6156 10.6072 15.6382 10.4793C15.6671 10.3157 15.7026 10.1501 15.7391 9.98237C15.7519 9.92327 15.7747 9.86708 15.798 9.8334C15.909 9.67305 16.0324 9.4259 15.9805 9.15323C15.9291 8.88358 15.7071 8.66444 15.44 8.61102C15.3158 8.58618 15.186 8.57868 15.039 8.62768C14.9729 8.64973 14.9194 8.68636 14.8925 8.70478C14.8909 8.7059 14.8893 8.70695 14.8879 8.70793C14.8603 8.72671 14.8532 8.73041 14.8529 8.73065" fill="#3FB47C"/>
<path fill-rule="evenodd" clip-rule="evenodd" d="M17.5428 10.3202C17.4229 10.2705 17.2853 10.3274 17.2356 10.4474C17.2015 10.5296 17.1636 10.6147 17.1297 10.6679C17.1149 10.6911 17.0978 10.713 17.0725 10.7451C17.067 10.7521 17.0611 10.7596 17.0547 10.7678C17.0239 10.8071 16.9815 10.8625 16.9491 10.9273C16.9392 10.9472 16.9114 10.9791 16.8432 11.0289C16.8172 11.0478 16.7909 11.0656 16.7612 11.0857C16.7536 11.0908 16.7458 11.0961 16.7378 11.1016C16.7008 11.1267 16.6578 11.1564 16.6182 11.1887C16.5784 11.2213 16.5196 11.2486 16.4283 11.2799C16.409 11.2866 16.3866 11.2938 16.3624 11.3017C16.2902 11.3251 16.2015 11.3539 16.1271 11.3877C15.9337 11.4756 15.7323 11.5476 15.5221 11.6128C15.3777 11.6576 15.1945 11.7192 15.0484 11.8318C14.8874 11.9559 14.7755 12.1385 14.7755 12.3928C14.7755 12.3986 14.7754 12.4059 14.7752 12.4144C14.7743 12.466 14.7724 12.5629 14.7955 12.6447C14.8118 12.7022 14.8419 12.7647 14.8966 12.8191C14.9453 12.8673 15.0032 12.8992 15.0642 12.9194C15.0692 12.9232 15.0762 12.9288 15.0867 12.9373C15.0883 12.9387 15.0901 12.9401 15.092 12.9417C15.1047 12.9521 15.1226 12.9668 15.1404 12.98C15.1603 12.9948 15.1912 13.0164 15.2287 13.033C15.2667 13.0499 15.2938 13.0609 15.317 13.0704C15.3464 13.0824 15.3695 13.0918 15.4005 13.1073C15.5166 13.1654 15.6578 13.1183 15.7159 13.0022C15.774 12.886 15.7269 12.7448 15.6108 12.6868C15.569 12.6658 15.5128 12.6425 15.4692 12.6243C15.4521 12.6172 15.4369 12.6109 15.4253 12.6059C15.4243 12.6051 15.4228 12.6041 15.4209 12.6027C15.4127 12.5966 15.4042 12.5896 15.3907 12.5786C15.3886 12.5769 15.3864 12.5751 15.3841 12.5732C15.3694 12.5612 15.3474 12.5433 15.3237 12.5271C15.3068 12.5155 15.2797 12.4982 15.2454 12.4845C15.2451 12.4734 15.2451 12.4609 15.2453 12.4455C15.2453 12.4416 15.2454 12.4374 15.2454 12.433C15.2455 12.4206 15.2457 12.4064 15.2457 12.3928C15.2457 12.2979 15.2787 12.2479 15.3354 12.2042C15.4071 12.149 15.5145 12.1075 15.6615 12.0618C15.8834 11.9929 16.1047 11.9143 16.3216 11.8157C16.3703 11.7936 16.419 11.7778 16.4805 11.7579C16.5105 11.7482 16.5435 11.7375 16.581 11.7246C16.6812 11.6903 16.8077 11.6412 16.9159 11.5526C16.9376 11.5349 16.9652 11.5155 17.0018 11.4906C17.0081 11.4864 17.0146 11.4819 17.0214 11.4774C17.0517 11.4569 17.0869 11.4331 17.1204 11.4086C17.1994 11.3509 17.3065 11.2638 17.3697 11.1376C17.379 11.119 17.3949 11.096 17.4251 11.0574C17.429 11.0524 17.4332 11.0471 17.4377 11.0414C17.4631 11.0092 17.4977 10.9654 17.5264 10.9203C17.5852 10.828 17.6371 10.7067 17.6699 10.6274C17.7196 10.5075 17.6627 10.37 17.5428 10.3202Z" fill="#F8D74C"/>
<path d="M16.6243 11.4243H19.9155V14.5919C19.9155 15.2217 19.4981 15.7751 18.8925 15.9482L18.2699 16.126L17.6473 15.9482C17.0418 15.7751 16.6243 15.2217 16.6243 14.5919V11.4243Z" fill="#64BEDB"/>
<mask id="mask0_440_1604" style="mask-type:alpha" maskUnits="userSpaceOnUse" x="16" y="11" width="4" height="6">
<path d="M16.6243 11.4243H19.9155V14.5919C19.9155 15.2217 19.4981 15.7751 18.8925 15.9482L18.2699 16.126L17.6473 15.9482C17.0418 15.7751 16.6243 15.2217 16.6243 14.5919V11.4243Z" fill="#64BEDB"/>
</mask>
<g mask="url(#mask0_440_1604)">
<path d="M18.2907 11.6147L16.6387 14.2416C16.5621 14.4509 16.4076 14.9039 16.403 15.0412C16.3973 15.2128 16.8664 16.0365 17.1352 16.1738C17.3503 16.2836 17.8922 16.3683 18.1363 16.3969L19.5835 16.0365L20.0926 14.7094L19.921 14.2416L18.2907 11.6147Z" fill="#3FB47C"/>
<path fill-rule="evenodd" clip-rule="evenodd" d="M18.2912 11.4373L20.006 14.2002L20.1931 14.7101L19.6538 16.1159L18.1424 16.4923L18.1253 16.4903C18.0012 16.4757 17.8022 16.447 17.6065 16.408C17.4143 16.3697 17.213 16.3191 17.0925 16.2575C17.0068 16.2138 16.9168 16.1233 16.834 16.0228C16.7488 15.9193 16.6627 15.7944 16.586 15.6695C16.5093 15.5447 16.4409 15.4179 16.3917 15.3103C16.3671 15.2566 16.3467 15.2064 16.3324 15.1626C16.3191 15.1218 16.3077 15.0769 16.309 15.038C16.3105 14.9926 16.3235 14.9299 16.3398 14.8648C16.3567 14.7974 16.3794 14.7195 16.4041 14.6404C16.4534 14.482 16.5117 14.315 16.5504 14.2092L16.5539 14.1999L18.2912 11.4373ZM16.7236 14.2832C16.6857 14.3872 16.6304 14.5461 16.5836 14.6963C16.5595 14.7738 16.5379 14.848 16.5222 14.9106C16.5059 14.9757 16.4978 15.021 16.497 15.0443C16.497 15.0442 16.497 15.0456 16.4973 15.0488C16.4977 15.052 16.4983 15.0562 16.4994 15.0617C16.5017 15.0728 16.5055 15.0869 16.5112 15.1043C16.5225 15.139 16.5399 15.1823 16.5627 15.2321C16.6082 15.3315 16.6728 15.4515 16.7463 15.5711C16.8198 15.6909 16.901 15.8083 16.9792 15.9032C17.0598 16.0011 17.1292 16.0651 17.178 16.09C17.2725 16.1383 17.4497 16.185 17.6433 16.2236C17.8246 16.2597 18.0095 16.2868 18.1303 16.3015L19.5133 15.9571L19.9922 14.7086L19.836 14.283L18.2902 11.7922L16.7236 14.2832Z" fill="#F8D74C"/>
<path fill-rule="evenodd" clip-rule="evenodd" d="M18.1841 13.8542V13.2468H18.3721V13.8542H18.9258C18.9777 13.8542 19.0198 13.8963 19.0198 13.9482C19.0198 14.0002 18.9777 14.0423 18.9258 14.0423H18.3721V15.4444L19.1556 15.0911V14.6756C19.1556 14.6236 19.1977 14.5815 19.2496 14.5815C19.3016 14.5815 19.3437 14.6236 19.3437 14.6756V15.1518C19.3437 15.1888 19.322 15.2223 19.2883 15.2375L18.3168 15.6757C18.292 15.6869 18.2635 15.6868 18.2388 15.6754L17.2863 15.2372C17.253 15.2219 17.2316 15.1885 17.2316 15.1518V14.6756C17.2316 14.6236 17.2737 14.5815 17.3256 14.5815C17.3776 14.5815 17.4197 14.6236 17.4197 14.6756V15.0916L18.1841 15.4432V14.0423H17.6876C17.6356 14.0423 17.5935 14.0002 17.5935 13.9482C17.5935 13.8963 17.6356 13.8542 17.6876 13.8542H18.1841Z" fill="#F8D74C"/>
</g>
<path fill-rule="evenodd" clip-rule="evenodd" d="M19.2999 9.56259C19.3461 9.44126 19.482 9.38038 19.6033 9.4266C19.7252 9.47302 19.9062 9.48755 20.0765 9.49386C20.157 9.49684 20.2324 9.52348 20.2777 9.54044C20.3044 9.5504 20.3232 9.55794 20.3385 9.56401C20.3588 9.57213 20.3726 9.57763 20.3895 9.5828C20.4757 9.60914 20.5764 9.66025 20.6432 9.7028C20.6548 9.7102 20.6675 9.71813 20.681 9.72657C20.7636 9.77822 20.8769 9.8491 20.9686 9.93562C21.052 10.0143 21.1323 10.1189 21.1692 10.2539C21.2939 10.1516 21.4424 10.0491 21.5857 9.98468C21.7997 9.88837 22.0373 9.88912 22.2069 9.88965C22.219 9.88969 22.2308 9.88972 22.2423 9.88972C22.3721 9.88972 22.4773 9.99497 22.4773 10.1248C22.4773 10.2546 22.3721 10.3599 22.2423 10.3599C22.0405 10.3599 21.8971 10.3601 21.7786 10.4134C21.6481 10.4722 21.485 10.5941 21.3641 10.7082C21.333 10.7376 21.3003 10.7637 21.2753 10.7835L21.2714 10.7866C21.2555 10.7992 21.2424 10.8095 21.2309 10.8191C21.2291 10.8228 21.2269 10.8272 21.2244 10.8323C21.2243 10.8325 21.2245 10.832 21.2244 10.8323C21.2203 10.8406 21.2017 10.8786 21.1653 10.9114C21.1431 10.9314 21.1071 10.9564 21.0568 10.9678C21.0041 10.9798 20.9549 10.9726 20.9155 10.9572C20.8509 10.9319 20.8153 10.8857 20.8063 10.874C20.7923 10.8559 20.7814 10.8373 20.7744 10.8248C20.7498 10.7804 20.7401 10.7371 20.7358 10.7058C20.7314 10.6739 20.7313 10.6447 20.732 10.6232C20.7325 10.6039 20.734 10.5847 20.7349 10.572C20.735 10.5707 20.7351 10.5695 20.7352 10.5684L20.7364 10.5518L20.7366 10.5472C20.7366 10.5465 20.7366 10.546 20.7366 10.5458C20.7365 10.5448 20.7358 10.5399 20.7328 10.5242C20.7325 10.5231 20.7323 10.5219 20.7321 10.5207C20.7281 10.5007 20.7201 10.4604 20.7201 10.4136C20.7201 10.3725 20.7038 10.3322 20.6459 10.2776C20.5909 10.2257 20.523 10.1829 20.4385 10.1296C20.4232 10.12 20.4073 10.1099 20.3908 10.0995C20.3493 10.0731 20.2875 10.0432 20.2521 10.0324C20.2242 10.0239 20.1969 10.0135 20.1749 10.005C20.1663 10.0016 20.1586 9.99853 20.1513 9.99568C20.1378 9.99035 20.1261 9.9857 20.113 9.98081C20.0781 9.96774 20.0629 9.96456 20.0596 9.96388C20.0589 9.96373 20.0592 9.96386 20.0596 9.96388C19.8963 9.95783 19.6401 9.94376 19.4359 9.86597C19.3146 9.81975 19.2537 9.68392 19.2999 9.56259Z" fill="#F8D74C"/>
<path fill-rule="evenodd" clip-rule="evenodd" d="M18.9346 10.3203C19.0545 10.2706 19.192 10.3275 19.2418 10.4475C19.2759 10.5297 19.3138 10.6148 19.3476 10.668C19.3624 10.6912 19.3796 10.7131 19.4049 10.7452C19.4104 10.7522 19.4163 10.7597 19.4226 10.7679C19.4534 10.8072 19.4958 10.8626 19.5282 10.9274C19.5382 10.9473 19.566 10.9792 19.6342 11.029C19.6601 11.0479 19.6864 11.0657 19.7162 11.0858C19.7237 11.0909 19.7315 11.0962 19.7396 11.1017C19.7766 11.1268 19.8196 11.1565 19.8592 11.1888C19.8989 11.2214 19.9578 11.2487 20.049 11.28C20.0683 11.2867 20.0907 11.2939 20.115 11.3018C20.1871 11.3252 20.2759 11.354 20.3503 11.3878C20.5437 11.4757 20.7451 11.5477 20.9552 11.6129C21.0996 11.6577 21.2828 11.7193 21.4289 11.8319C21.59 11.956 21.7018 12.1386 21.7018 12.3929C21.7018 12.3987 21.702 12.406 21.7021 12.4145C21.7031 12.4661 21.7049 12.563 21.6818 12.6448C21.6656 12.7023 21.6354 12.7648 21.5807 12.8192C21.5321 12.8674 21.4741 12.8993 21.4132 12.9195C21.4082 12.9233 21.4012 12.9289 21.3907 12.9374C21.389 12.9388 21.3873 12.9402 21.3854 12.9418C21.3727 12.9522 21.3548 12.9669 21.337 12.9801C21.3171 12.9949 21.2861 13.0165 21.2487 13.0331C21.2107 13.05 21.1836 13.0611 21.1604 13.0705C21.131 13.0825 21.1078 13.0919 21.0768 13.1074C20.9607 13.1655 20.8195 13.1184 20.7614 13.0023C20.7034 12.8861 20.7504 12.7449 20.8666 12.6869C20.9084 12.666 20.9646 12.6426 21.0081 12.6244C21.0253 12.6173 21.0404 12.611 21.052 12.606C21.0531 12.6052 21.0546 12.6042 21.0565 12.6028C21.0647 12.5967 21.0731 12.5897 21.0867 12.5787C21.0887 12.577 21.0909 12.5752 21.0933 12.5733C21.108 12.5613 21.13 12.5434 21.1536 12.5272C21.1706 12.5156 21.1976 12.4983 21.232 12.4846C21.2322 12.4735 21.2322 12.461 21.2321 12.4456C21.232 12.4417 21.232 12.4375 21.2319 12.4331C21.2318 12.4207 21.2316 12.4065 21.2316 12.3929C21.2316 12.298 21.1986 12.248 21.1419 12.2043C21.0703 12.1491 20.9629 12.1076 20.8159 12.0619C20.5939 11.993 20.3727 11.9144 20.1557 11.8158C20.107 11.7937 20.0583 11.7779 19.9968 11.758C19.9669 11.7483 19.9339 11.7376 19.8963 11.7247C19.7962 11.6904 19.6697 11.6413 19.5614 11.5527C19.5397 11.535 19.5122 11.5156 19.4755 11.4907C19.4693 11.4865 19.4628 11.482 19.456 11.4775C19.4257 11.457 19.3905 11.4332 19.3569 11.4087C19.2779 11.351 19.1708 11.2639 19.1077 11.1377C19.0984 11.1191 19.0824 11.0961 19.0522 11.0575C19.0484 11.0525 19.0442 11.0472 19.0396 11.0415C19.0143 11.0093 18.9797 10.9655 18.9509 10.9204C18.8922 10.8281 18.8403 10.7068 18.8074 10.6275C18.7577 10.5076 18.8146 10.3701 18.9346 10.3203Z" fill="#F8D74C"/>
<path fill-rule="evenodd" clip-rule="evenodd" d="M17.1774 9.56259C17.1312 9.44126 16.9954 9.38038 16.874 9.4266C16.7522 9.47302 16.5712 9.48755 16.4008 9.49386C16.3204 9.49684 16.245 9.52348 16.1996 9.54044C16.173 9.5504 16.1541 9.55794 16.1389 9.56401C16.1185 9.57213 16.1047 9.57763 16.0878 9.5828C16.0016 9.60914 15.901 9.66025 15.8341 9.7028C15.8225 9.7102 15.8098 9.71813 15.7963 9.72657C15.7137 9.77822 15.6004 9.8491 15.5087 9.93562C15.4253 10.0143 15.3451 10.1189 15.3082 10.2539C15.1835 10.1516 15.0349 10.0491 14.8917 9.98468C14.6776 9.88837 14.44 9.88912 14.2705 9.88965C14.2583 9.88969 14.2465 9.88972 14.2351 9.88972C14.1053 9.88972 14 9.99497 14 10.1248C14 10.2546 14.1053 10.3599 14.2351 10.3599C14.4368 10.3599 14.5802 10.3601 14.6987 10.4134C14.8293 10.4722 14.9923 10.5941 15.1132 10.7082C15.1443 10.7376 15.1771 10.7637 15.2021 10.7835L15.2059 10.7866C15.2219 10.7992 15.2349 10.8095 15.2464 10.8191C15.2483 10.8228 15.2505 10.8272 15.253 10.8323C15.2531 10.8325 15.2528 10.832 15.253 10.8323C15.257 10.8406 15.2757 10.8786 15.3121 10.9114C15.3343 10.9314 15.3703 10.9564 15.4206 10.9678C15.4733 10.9798 15.5225 10.9726 15.5618 10.9572C15.6264 10.9319 15.662 10.8857 15.671 10.874C15.685 10.8559 15.6959 10.8373 15.7029 10.8248C15.7275 10.7804 15.7373 10.7371 15.7416 10.7058C15.746 10.6739 15.746 10.6447 15.7454 10.6232C15.7448 10.6039 15.7434 10.5847 15.7424 10.572C15.7423 10.5707 15.7422 10.5695 15.7421 10.5684L15.741 10.5518L15.7408 10.5472C15.7408 10.5465 15.7407 10.546 15.7407 10.5458C15.7409 10.5448 15.7415 10.5399 15.7446 10.5242C15.7448 10.5231 15.745 10.5219 15.7453 10.5207C15.7492 10.5007 15.7572 10.4604 15.7572 10.4136C15.7572 10.3725 15.7735 10.3322 15.8314 10.2776C15.8864 10.2257 15.9544 10.1829 16.0388 10.1296C16.0542 10.12 16.0701 10.1099 16.0866 10.0995C16.128 10.0731 16.1899 10.0432 16.2252 10.0324C16.2531 10.0239 16.2805 10.0135 16.3024 10.005C16.3111 10.0016 16.3188 9.99853 16.326 9.99568C16.3395 9.99035 16.3513 9.9857 16.3644 9.98081C16.3993 9.96774 16.4145 9.96456 16.4177 9.96388C16.4185 9.96373 16.4181 9.96386 16.4177 9.96388C16.581 9.95783 16.8372 9.94376 17.0414 9.86597C17.1628 9.81975 17.2236 9.68392 17.1774 9.56259Z" fill="#F8D74C"/>
<path fill-rule="evenodd" clip-rule="evenodd" d="M21.1256 12.9935C21.1262 12.9918 21.126 12.9921 21.1256 12.9935ZM20.86 13.4153C20.8312 13.4398 20.7991 13.462 20.7638 13.4797C20.6537 13.5347 20.5474 13.5676 20.4308 13.5713C20.3185 13.5748 20.2142 13.5505 20.113 13.5203C19.9886 13.4832 19.9178 13.3523 19.9549 13.2279C19.992 13.1034 20.123 13.0327 20.2474 13.0698C20.3334 13.0954 20.3799 13.1025 20.4159 13.1013C20.4473 13.1003 20.4863 13.0926 20.5519 13.06C20.5528 13.0593 20.5581 13.0555 20.5671 13.0459C20.5795 13.0327 20.5942 13.0137 20.6097 12.9894C20.6413 12.9399 20.6666 12.8838 20.6795 12.8449C20.6836 12.8325 20.6921 12.8084 20.7065 12.7836C20.7129 12.7724 20.7295 12.7452 20.7595 12.7195C20.7902 12.6931 20.8655 12.6444 20.9676 12.6679C21.0592 12.689 21.1038 12.7537 21.1174 12.7759C21.1338 12.8028 21.1414 12.827 21.1445 12.8379C21.1512 12.8613 21.1536 12.8821 21.1545 12.8914C21.1578 12.9228 21.1579 12.9836 21.1577 12.9765C21.1579 12.9847 21.159 12.9906 21.1611 12.9979C21.164 13.0078 21.1688 13.0204 21.1801 13.0466C21.1967 13.0856 21.2062 13.097 21.2523 13.1507C21.26 13.1527 21.2722 13.1551 21.29 13.1569C21.314 13.1594 21.3416 13.1602 21.3727 13.1601C21.3881 13.1601 21.4032 13.1598 21.4192 13.1595L21.4208 13.1595C21.4356 13.1593 21.4519 13.159 21.4673 13.159C21.5971 13.159 21.7023 13.2642 21.7023 13.3941C21.7023 13.5239 21.5971 13.6291 21.4673 13.6291C21.4601 13.6291 21.4503 13.6293 21.4385 13.6295C21.3913 13.6304 21.3123 13.6318 21.2421 13.6247C21.1612 13.6164 21.0107 13.5913 20.9083 13.4719C20.9038 13.4666 20.8993 13.4614 20.8947 13.4561C20.8833 13.4429 20.8717 13.4295 20.86 13.4153Z" fill="#F8D74C"/>
<path fill-rule="evenodd" clip-rule="evenodd" d="M15.2698 12.9935C15.2692 12.9918 15.2693 12.9921 15.2698 12.9935ZM15.5354 13.4153C15.5642 13.4398 15.5963 13.462 15.6315 13.4797C15.7417 13.5347 15.848 13.5676 15.9646 13.5713C16.0769 13.5748 16.1812 13.5505 16.2824 13.5203C16.4068 13.4832 16.4776 13.3523 16.4405 13.2279C16.4034 13.1034 16.2724 13.0327 16.148 13.0698C16.062 13.0954 16.0155 13.1025 15.9795 13.1013C15.948 13.1003 15.9091 13.0926 15.8435 13.06C15.8426 13.0593 15.8373 13.0555 15.8283 13.0459C15.8158 13.0327 15.8012 13.0137 15.7857 12.9894C15.754 12.9399 15.7288 12.8838 15.7159 12.8449C15.7117 12.8325 15.7033 12.8084 15.6889 12.7836C15.6824 12.7724 15.6658 12.7452 15.6359 12.7195C15.6052 12.6931 15.5299 12.6444 15.4277 12.6679C15.3362 12.689 15.2916 12.7537 15.278 12.7759C15.2615 12.8028 15.254 12.827 15.2509 12.8379C15.2442 12.8613 15.2418 12.8821 15.2409 12.8914C15.2376 12.9228 15.2375 12.9836 15.2377 12.9765C15.2374 12.9847 15.2364 12.9906 15.2343 12.9979C15.2314 13.0078 15.2266 13.0204 15.2153 13.0466C15.1986 13.0856 15.1892 13.097 15.1431 13.1507C15.1354 13.1527 15.1232 13.1551 15.1054 13.1569C15.0813 13.1594 15.0538 13.1602 15.0227 13.1601C15.0073 13.1601 14.9921 13.1598 14.9762 13.1595L14.9746 13.1595C14.9598 13.1593 14.9434 13.159 14.9281 13.159C14.7983 13.159 14.6931 13.2642 14.6931 13.3941C14.6931 13.5239 14.7983 13.6291 14.9281 13.6291C14.9353 13.6291 14.9451 13.6293 14.9569 13.6295C15.0041 13.6304 15.0831 13.6318 15.1533 13.6247C15.2342 13.6164 15.3847 13.5913 15.4871 13.4719C15.4916 13.4666 15.4961 13.4614 15.5007 13.4561C15.512 13.4429 15.5237 13.4295 15.5354 13.4153Z" fill="#F8D74C"/>
<path fill-rule="evenodd" clip-rule="evenodd" d="M16.4351 15.0348C16.4057 15.0083 16.3707 14.9999 16.3435 14.9985C16.3159 14.997 16.2891 15.0022 16.266 15.0105C16.2429 15.0189 16.2192 15.0319 16.199 15.05C16.1792 15.0678 16.1576 15.0954 16.1504 15.1331C16.1348 15.2158 16.1127 15.3074 16.097 15.3723L16.0897 15.4029L16.0812 15.4303C16.076 15.4472 16.0692 15.4689 16.063 15.4902C16.0569 15.5109 16.0507 15.5334 16.0468 15.5513C16.045 15.5592 16.0425 15.5718 16.0419 15.584C16.0417 15.5881 16.0407 15.6052 16.0475 15.6242C16.0512 15.6347 16.0614 15.6579 16.0875 15.6739C16.1174 15.6923 16.1481 15.6896 16.1676 15.6831C16.1984 15.6729 16.2324 15.6666 16.2715 15.6614C16.2846 15.6596 16.2999 15.6578 16.3161 15.6559C16.333 15.6539 16.3509 15.6518 16.3681 15.6496C16.3733 15.6641 16.3791 15.6796 16.3854 15.6952C16.401 15.734 16.4247 15.7857 16.4622 15.8231C16.4989 15.8598 16.5584 15.8598 16.5951 15.8231C16.6319 15.7864 16.6319 15.7269 16.5951 15.6901C16.5867 15.6817 16.5745 15.6614 16.5598 15.6248C16.5599 15.6251 16.5597 15.6246 16.5598 15.6248C16.6177 15.6156 16.6841 15.6001 16.7414 15.5698C16.7613 15.5592 16.7796 15.5421 16.7907 15.518C16.8013 15.4952 16.8022 15.4732 16.8005 15.4567C16.7973 15.4267 16.7838 15.4007 16.7738 15.384C16.7522 15.3478 16.7175 15.3074 16.6816 15.2693C16.6082 15.1913 16.5086 15.1012 16.4351 15.0348Z" fill="#F8D74C"/>
<path fill-rule="evenodd" clip-rule="evenodd" d="M20.1312 14.8881C20.1605 14.8616 20.1955 14.8532 20.2227 14.8518C20.2503 14.8504 20.2771 14.8555 20.3002 14.8638C20.3234 14.8722 20.3471 14.8852 20.3673 14.9033C20.387 14.9211 20.4087 14.9487 20.4158 14.9864C20.4315 15.0691 20.4536 15.1607 20.4692 15.2256L20.4766 15.2562L20.4851 15.2836C20.4903 15.3005 20.497 15.3223 20.5032 15.3435C20.5093 15.3642 20.5156 15.3868 20.5195 15.4047C20.5212 15.4125 20.5237 15.4251 20.5244 15.4373C20.5246 15.4414 20.5255 15.4585 20.5188 15.4775C20.5151 15.488 20.5049 15.5112 20.4787 15.5273C20.4489 15.5456 20.4181 15.5429 20.3987 15.5364C20.3679 15.5262 20.3338 15.5199 20.2947 15.5147C20.2817 15.5129 20.2664 15.5111 20.2502 15.5092C20.2333 15.5073 20.2154 15.5052 20.1982 15.5029C20.1929 15.5174 20.1872 15.533 20.1809 15.5485C20.1652 15.5874 20.1416 15.639 20.1041 15.6765C20.0674 15.7132 20.0079 15.7132 19.9711 15.6765C19.9344 15.6398 19.9344 15.5802 19.9711 15.5435C19.9796 15.535 19.9917 15.5148 20.0065 15.4782C20.0064 15.4785 20.0066 15.4779 20.0065 15.4782C19.9486 15.4689 19.8822 15.4534 19.8249 15.4231C19.8049 15.4125 19.7867 15.3954 19.7756 15.3714C19.765 15.3486 19.7641 15.3265 19.7658 15.3101C19.7689 15.28 19.7825 15.254 19.7925 15.2373C19.8141 15.2011 19.8487 15.1608 19.8846 15.1226C19.9581 15.0446 20.0576 14.9545 20.1312 14.8881Z" fill="#F8D74C"/>
<defs>
<clipPath id="clip0_440_1604">
<rect width="13" height="11" fill="white"/>
</clipPath>
</defs>
</svg>
