<svg width="24" height="24" viewBox="0 0 24 24" fill="none" xmlns="http://www.w3.org/2000/svg">
<rect width="24" height="24" rx="2" fill="#D74B4B"/>
<path d="M0 0H12V12H0V0Z" fill="#485CC2"/>
<path d="M3.11707 4.31079L3.34662 5.02257L4.0945 5.02093L3.48849 5.4592L3.72115 6.16996L3.11707 5.72905L2.51299 6.16996L2.74565 5.4592L2.13965 5.02093L2.88752 5.02257L3.11707 4.31079Z" fill="#F9F9F9"/>
<path d="M5.95863 1.04028L6.18818 1.75206L6.93605 1.75042L6.33005 2.18869L6.56271 2.89945L5.95863 2.45854L5.35454 2.89945L5.5872 2.18869L4.9812 1.75042L5.72907 1.75206L5.95863 1.04028Z" fill="#F9F9F9"/>
<path d="M5.95863 8.9043L6.18818 9.61607L6.93605 9.61444L6.33005 10.0527L6.56271 10.7635L5.95863 10.3226L5.35454 10.7635L5.5872 10.0527L4.9812 9.61444L5.72907 9.61607L5.95863 8.9043Z" fill="#F9F9F9"/>
<path d="M7.52914 7.0188L7.68217 7.49332L8.18075 7.49223L7.77675 7.7844L7.93186 8.25825L7.52914 7.96431L7.12642 8.25825L7.28152 7.7844L6.87752 7.49223L7.3761 7.49332L7.52914 7.0188Z" fill="#F9F9F9"/>
<path d="M8.88294 4.31079L9.11249 5.02257L9.86037 5.02093L9.25436 5.4592L9.48702 6.16996L8.88294 5.72905L8.27886 6.16996L8.51152 5.4592L7.90552 5.02093L8.65339 5.02257L8.88294 4.31079Z" fill="#F9F9F9"/>
</svg>
