<svg width="32" height="24" viewBox="0 0 32 24" fill="none" xmlns="http://www.w3.org/2000/svg">
<rect width="32" height="24" rx="2" fill="#D74B4B"/>
<path d="M0 0H16V12H0V0Z" fill="#485CC2"/>
<path d="M5.11707 4.31079L5.34662 5.02257L6.0945 5.02093L5.48849 5.4592L5.72115 6.16996L5.11707 5.72905L4.51299 6.16996L4.74565 5.4592L4.13965 5.02093L4.88752 5.02257L5.11707 4.31079Z" fill="#F9F9F9"/>
<path d="M7.95863 1.04028L8.18818 1.75206L8.93605 1.75042L8.33005 2.18869L8.56271 2.89945L7.95863 2.45854L7.35454 2.89945L7.5872 2.18869L6.9812 1.75042L7.72907 1.75206L7.95863 1.04028Z" fill="#F9F9F9"/>
<path d="M7.95863 8.9043L8.18818 9.61607L8.93605 9.61444L8.33005 10.0527L8.56271 10.7635L7.95863 10.3226L7.35454 10.7635L7.5872 10.0527L6.9812 9.61444L7.72907 9.61607L7.95863 8.9043Z" fill="#F9F9F9"/>
<path d="M9.52914 7.0188L9.68217 7.49332L10.1808 7.49223L9.77675 7.7844L9.93186 8.25825L9.52914 7.96431L9.12642 8.25825L9.28152 7.7844L8.87752 7.49223L9.3761 7.49332L9.52914 7.0188Z" fill="#F9F9F9"/>
<path d="M10.8829 4.31079L11.1125 5.02257L11.8604 5.02093L11.2544 5.4592L11.487 6.16996L10.8829 5.72905L10.2789 6.16996L10.5115 5.4592L9.90552 5.02093L10.6534 5.02257L10.8829 4.31079Z" fill="#F9F9F9"/>
</svg>
