<svg width="24" height="24" viewBox="0 0 24 24" fill="none" xmlns="http://www.w3.org/2000/svg">
<g clip-path="url(#clip0_440_1564)">
<rect width="24" height="24" rx="12" fill="#485CC2"/>
<path d="M3.4286 2L3.73089 3.01251L4.78725 2.98712L3.91771 3.58749L4.26829 4.58431L3.4286 3.94286L2.58891 4.58431L2.93948 3.58749L2.06995 2.98712L3.12631 3.01251L3.4286 2Z" fill="#F9F9F9"/>
<path d="M3.4286 8.42847L3.73089 9.44097L4.78725 9.41559L3.91771 10.016L4.26829 11.0128L3.4286 10.3713L2.58891 11.0128L2.93948 10.016L2.06995 9.41559L3.12631 9.44097L3.4286 8.42847Z" fill="#F9F9F9"/>
<path d="M7.00007 5.57135L7.30236 6.58386L8.35872 6.55847L7.48919 7.15885L7.83976 8.15566L7.00007 7.51421L6.16038 8.15566L6.51096 7.15885L5.64142 6.55847L6.69778 6.58386L7.00007 5.57135Z" fill="#F9F9F9"/>
<path d="M10 2L10.3023 3.01251L11.3587 2.98712L10.4891 3.58749L10.8397 4.58431L10 3.94286L9.16032 4.58431L9.5109 3.58749L8.64136 2.98712L9.69772 3.01251L10 2Z" fill="#F9F9F9"/>
<path d="M10 8.42847L10.3023 9.44097L11.3587 9.41559L10.4891 10.016L10.8397 11.0128L10 10.3713L9.16032 11.0128L9.5109 10.016L8.64136 9.41559L9.69772 9.44097L10 8.42847Z" fill="#F9F9F9"/>
<path d="M24.3653 0.260986L0.0431519 23.9893H32.1751L24.3653 0.260986Z" fill="#377649"/>
<path d="M24.2018 -0.824707L25.2018 0.907344L0.250027 24.4329L-0.749974 22.7009L24.2018 -0.824707Z" fill="#F8D74C"/>
</g>
<defs>
<clipPath id="clip0_440_1564">
<rect width="24" height="24" rx="12" fill="white"/>
</clipPath>
</defs>
</svg>
