<svg width="32" height="24" viewBox="0 0 32 24" fill="none" xmlns="http://www.w3.org/2000/svg">
<g clip-path="url(#clip0_440_1566)">
<rect width="32" height="24" rx="2" fill="#485CC2"/>
<path d="M32.3653 0.260986L0.0431519 23.9893H32.1751L32.3653 0.260986Z" fill="#377649"/>
<path d="M32.2018 -0.824707L33.2018 0.907344L0.250033 24.4329L-0.749968 22.7009L32.2018 -0.824707Z" fill="#F8D74C"/>
<path d="M3.4286 2L3.73089 3.01251L4.78725 2.98712L3.91771 3.58749L4.26829 4.58431L3.4286 3.94286L2.58891 4.58431L2.93948 3.58749L2.06995 2.98712L3.12631 3.01251L3.4286 2Z" fill="#F9F9F9"/>
<path d="M3.4286 9.14286L3.73089 10.1554L4.78725 10.13L3.91771 10.7304L4.26829 11.7272L3.4286 11.0857L2.58891 11.7272L2.93948 10.7304L2.06995 10.13L3.12631 10.1554L3.4286 9.14286Z" fill="#F9F9F9"/>
<path d="M7.71431 5.57143L8.0166 6.58393L9.07297 6.55855L8.20343 7.15892L8.55401 8.15574L7.71431 7.51429L6.87462 8.15574L7.2252 7.15892L6.35566 6.55855L7.41202 6.58393L7.71431 5.57143Z" fill="#F9F9F9"/>
<path d="M12 2L12.3023 3.01251L13.3587 2.98712L12.4891 3.58749L12.8397 4.58431L12 3.94286L11.1603 4.58431L11.5109 3.58749L10.6414 2.98712L11.6977 3.01251L12 2Z" fill="#F9F9F9"/>
<path d="M12 9.14286L12.3023 10.1554L13.3587 10.13L12.4891 10.7304L12.8397 11.7272L12 11.0857L11.1603 11.7272L11.5109 10.7304L10.6414 10.13L11.6977 10.1554L12 9.14286Z" fill="#F9F9F9"/>
</g>
<defs>
<clipPath id="clip0_440_1566">
<rect width="32" height="24" rx="2" fill="white"/>
</clipPath>
</defs>
</svg>
