<svg width="32" height="24" viewBox="0 0 32 24" fill="none" xmlns="http://www.w3.org/2000/svg">
<rect width="32" height="24" rx="2" fill="#64BEDB"/>
<g clip-path="url(#clip0_440_1560)">
<rect width="16" height="12" fill="#485CC2"/>
<path fill-rule="evenodd" clip-rule="evenodd" d="M16.75 1L0.75 13L-0.75 11L15.25 -1L16.75 1Z" fill="#F9F9F9"/>
<path fill-rule="evenodd" clip-rule="evenodd" d="M-0.75 1L15.25 13L16.75 11L0.75 -1L-0.75 1Z" fill="#F9F9F9"/>
<path fill-rule="evenodd" clip-rule="evenodd" d="M15.775 12.8L-0.225 0.8L0.225 0.2L16.225 12.2L15.775 12.8Z" fill="#D74B4B"/>
<path fill-rule="evenodd" clip-rule="evenodd" d="M-0.277853 12.8021L16.7221 0.302119L16.2779 -0.302119L-0.722147 12.1979L-0.277853 12.8021Z" fill="#D74B4B"/>
<path d="M9.5 1.31134e-07L9.5 12H6.5L6.5 0L9.5 1.31134e-07Z" fill="#F9F9F9"/>
<path d="M0 4.5H16V7.5H0V4.5Z" fill="#F9F9F9"/>
<path d="M0 5H16V7H0V5Z" fill="#D74B4B"/>
<path d="M9 8.74229e-08L9 12H7L7 0L9 8.74229e-08Z" fill="#D74B4B"/>
</g>
<path d="M29.5583 3.0957L29.8634 4.1175L30.9294 4.09188L30.0519 4.69777L30.4057 5.70373L29.5583 5.05639L28.7109 5.70373L29.0647 4.69777L28.1872 4.09188L29.2533 4.1175L29.5583 3.0957Z" fill="#F8D74C"/>
<path d="M29.5583 10.8138L29.8634 11.8356L30.9294 11.8099L30.0519 12.4158L30.4057 13.4218L29.5583 12.7745L28.7109 13.4218L29.0647 12.4158L28.1872 11.8099L29.2533 11.8356L29.5583 10.8138Z" fill="#F8D74C"/>
<path d="M25.983 12.92L26.2881 13.9418L27.3541 13.9162L26.4766 14.522L26.8304 15.528L25.983 14.8807L25.1356 15.528L25.4894 14.522L24.6119 13.9162L25.678 13.9418L25.983 12.92Z" fill="#F8D74C"/>
<path d="M14.4165 18.0212L14.7216 19.043L15.7877 19.0174L14.9101 19.6232L15.2639 20.6292L14.4165 19.9819L13.5691 20.6292L13.9229 19.6232L13.0454 19.0174L14.1115 19.043L14.4165 18.0212Z" fill="#F8D74C"/>
<path d="M18.2875 17.2124L19.1304 17.8656L19.9823 17.2241L19.6216 18.2276L20.4949 18.8395L19.429 18.8066L19.1169 19.8262L18.8189 18.8024L17.7527 18.8206L18.6344 18.2208L18.2875 17.2124Z" fill="#F8D74C"/>
<path d="M18.2875 13.1895L19.1304 13.8426L19.9823 13.2012L19.6216 14.2047L20.4949 14.8166L19.429 14.7836L19.1169 15.8033L18.8189 14.7794L17.7527 14.7977L18.6344 14.1978L18.2875 13.1895Z" fill="#F8D74C"/>
<path d="M22.3105 7.34409L23.1534 7.99727L24.0053 7.35579L23.6446 8.35929L24.5179 8.97121L23.452 8.93824L23.1399 9.95791L22.8419 8.93403L21.7757 8.95229L22.6574 8.35248L22.3105 7.34409Z" fill="#F8D74C"/>
<path d="M25.9993 6.20913L26.8422 6.8623L27.6941 6.22083L27.3333 7.22433L28.2067 7.83625L27.1408 7.80328L26.8287 8.82294L26.5307 7.79907L25.4645 7.81733L26.3462 7.21751L25.9993 6.20913Z" fill="#F8D74C"/>
<path d="M22.6433 15.9135L23.4863 16.5667L24.3381 15.9252L23.9774 16.9287L24.8507 17.5407L23.7848 17.5077L23.4727 18.5273L23.1747 17.5035L22.1085 17.5217L22.9902 16.9219L22.6433 15.9135Z" fill="#F8D74C"/>
<defs>
<clipPath id="clip0_440_1560">
<rect width="16" height="12" fill="white"/>
</clipPath>
</defs>
</svg>
