<svg width="24" height="24" viewBox="0 0 24 24" fill="none" xmlns="http://www.w3.org/2000/svg">
<rect width="24" height="24" rx="2" fill="#64BEDB"/>
<g clip-path="url(#clip0_440_1559)">
<rect width="13" height="11" fill="#485CC2"/>
<path fill-rule="evenodd" clip-rule="evenodd" d="M13.6094 0.916585L0.609375 11.9166L-0.609375 10.0833L12.3906 -0.916748L13.6094 0.916585Z" fill="#F9F9F9"/>
<path fill-rule="evenodd" clip-rule="evenodd" d="M-0.609375 0.916585L12.3906 11.9166L13.6094 10.0833L0.609375 -0.916748L-0.609375 0.916585Z" fill="#F9F9F9"/>
<path fill-rule="evenodd" clip-rule="evenodd" d="M12.8172 11.7333L-0.182813 0.733252L0.182813 0.183252L13.1828 11.1833L12.8172 11.7333Z" fill="#D74B4B"/>
<path fill-rule="evenodd" clip-rule="evenodd" d="M-0.225756 11.7352L13.5867 0.276861L13.2258 -0.277024L-0.586744 11.1813L-0.225756 11.7352Z" fill="#D74B4B"/>
<path d="M7.71875 1.20206e-07L7.71875 11H5.28125L5.28125 0L7.71875 1.20206e-07Z" fill="#F9F9F9"/>
<path d="M0 4.125H13V6.875H0V4.125Z" fill="#F9F9F9"/>
<path d="M0 4.58333H13V6.41667H0V4.58333Z" fill="#D74B4B"/>
<path d="M7.3125 8.01377e-08L7.3125 11H5.6875L5.6875 0L7.3125 8.01377e-08Z" fill="#D74B4B"/>
</g>
<path d="M21.8205 3.86523L22.0992 4.79871L23.0731 4.7753L22.2715 5.32881L22.5947 6.24782L21.8205 5.65644L21.0464 6.24782L21.3696 5.32881L20.5679 4.7753L21.5418 4.79871L21.8205 3.86523Z" fill="#F8D74C"/>
<path d="M21.8205 10.9161L22.0992 11.8496L23.0731 11.8262L22.2715 12.3797L22.5947 13.2987L21.8205 12.7073L21.0464 13.2987L21.3696 12.3797L20.5679 11.8262L21.5418 11.8496L21.8205 10.9161Z" fill="#F8D74C"/>
<path d="M18.5543 12.8402L18.833 13.7737L19.8069 13.7503L19.0052 14.3038L19.3284 15.2228L18.5543 14.6314L17.7801 15.2228L18.1034 14.3038L17.3017 13.7503L18.2756 13.7737L18.5543 12.8402Z" fill="#F8D74C"/>
<path d="M7.98762 17.5006L8.26631 18.4341L9.24022 18.4107L8.43855 18.9642L8.76177 19.8832L7.98762 19.2918L7.21347 19.8832L7.53668 18.9642L6.73502 18.4107L7.70892 18.4341L7.98762 17.5006Z" fill="#F8D74C"/>
<path d="M11.524 16.7617L12.294 17.3584L13.0723 16.7724L12.7427 17.6891L13.5405 18.2482L12.5668 18.218L12.2817 19.1496L12.0094 18.2142L11.0354 18.2309L11.8409 17.6829L11.524 16.7617Z" fill="#F8D74C"/>
<path d="M11.524 13.0865L12.294 13.6832L13.0723 13.0972L12.7427 14.0139L13.5405 14.573L12.5668 14.5428L12.2817 15.4744L12.0094 14.539L11.0354 14.5557L11.8409 14.0077L11.524 13.0865Z" fill="#F8D74C"/>
<path d="M15.1992 7.74632L15.9693 8.34303L16.7475 7.757L16.418 8.67376L17.2158 9.23279L16.2421 9.20267L15.9569 10.1342L15.6847 9.19882L14.7106 9.2155L15.5161 8.66754L15.1992 7.74632Z" fill="#F8D74C"/>
<path d="M18.5692 6.70965L19.3392 7.30636L20.1174 6.72033L19.7879 7.63708L20.5857 8.19612L19.612 8.16599L19.3269 9.09752L19.0546 8.16214L18.0806 8.17883L18.886 7.63086L18.5692 6.70965Z" fill="#F8D74C"/>
<path d="M15.5033 15.5751L16.2734 16.1718L17.0516 15.5858L16.722 16.5026L17.5198 17.0616L16.5461 17.0315L16.261 17.963L15.9887 17.0276L15.0147 17.0443L15.8202 16.4964L15.5033 15.5751Z" fill="#F8D74C"/>
<defs>
<clipPath id="clip0_440_1559">
<rect width="13" height="11" fill="white"/>
</clipPath>
</defs>
</svg>
