<svg width="32" height="24" viewBox="0 0 32 24" fill="none" xmlns="http://www.w3.org/2000/svg">
<g clip-path="url(#clip0_440_1557)">
<rect width="32" height="24" rx="2" fill="#D74B4B"/>
<path d="M0 12H32V24H0V12Z" fill="#3FB47C"/>
<path d="M0 0L15.5 12L0 24V0Z" fill="#333333"/>
<path d="M14 11.0001H32V13.0001H14V11.0001Z" fill="#333333"/>
<path fill-rule="evenodd" clip-rule="evenodd" d="M13.0179 12.004L-0.461075 1.89473L0.138925 1.09473L14.0056 11.4947H32V12.4947H14.0119L0.147836 23.3879L-0.469986 22.6016L13.0179 12.004Z" fill="#F8D74C"/>
<path fill-rule="evenodd" clip-rule="evenodd" d="M4.99162 14.4C6.31711 14.4 7.39162 13.3255 7.39162 12C7.39162 10.6745 6.31711 9.6 4.99162 9.6C3.66614 9.6 2.59162 10.6745 2.59162 12C2.59162 13.3255 3.66614 14.4 4.99162 14.4ZM4.99162 15C6.64848 15 7.99162 13.6569 7.99162 12C7.99162 10.3431 6.64848 9 4.99162 9C3.33477 9 1.99162 10.3431 1.99162 12C1.99162 13.6569 3.33477 15 4.99162 15Z" fill="#F8D74C"/>
<path d="M4.35677 11L5.00849 11.8529L5.66021 11H6.00088L5.18787 12L6.00088 13H5.66021L5.00849 12.1745L4.35677 13H4.01774L4.82087 12L4.01774 11H4.35677Z" fill="#F8D74C"/>
</g>
<defs>
<clipPath id="clip0_440_1557">
<rect width="32" height="24" rx="2" fill="white"/>
</clipPath>
</defs>
</svg>
