<svg width="32" height="24" viewBox="0 0 32 24" fill="none" xmlns="http://www.w3.org/2000/svg">
<g clip-path="url(#clip0_440_1376)">
<rect width="32" height="24" rx="2" fill="#D74B4B"/>
<path d="M0 24L-1.04907e-06 0L10.6667 -4.66255e-07L10.6667 24L0 24Z" fill="#333333"/>
<path d="M21.3333 24L21.3333 0L32 -4.66255e-07L32 24L21.3333 24Z" fill="#3FB47C"/>
<path fill-rule="evenodd" clip-rule="evenodd" d="M16.4004 6.91555C16.4004 6.97874 16.3833 7.0382 16.3532 7.09012C16.8389 7.26017 17.1873 7.72258 17.1873 8.26637C17.1873 8.46392 17.1413 8.65073 17.0595 8.81668C17.3636 8.96174 17.6307 9.17175 17.843 9.42877V8.02315C17.7614 7.93068 17.7119 7.80922 17.7119 7.6762C17.7119 7.38648 18.2365 6.88932 18.2365 6.88932C18.2365 6.88932 18.761 7.38648 18.761 7.6762C18.761 7.80926 18.7115 7.93076 18.6299 8.02324V9.61975H19.5639L18.9082 10.5056H18.6299V14.7494H18.9082L19.5639 15.6352L12.4361 15.6352L13.0918 14.7494H13.5155V10.5056H13.0918L12.4361 9.61975H13.5155V8.02356C13.4337 7.93104 13.384 7.80942 13.384 7.6762C13.384 7.38648 13.9086 6.88932 13.9086 6.88932C13.9086 6.88932 14.4332 7.38648 14.4332 7.6762C14.4332 7.80907 14.3838 7.9304 14.3023 8.02283V9.42843C14.4663 9.23004 14.6629 9.05967 14.884 8.92558C14.7645 8.73437 14.6955 8.50843 14.6955 8.26637C14.6955 7.68096 15.0992 7.18985 15.6434 7.05631C15.6242 7.01296 15.6135 6.96541 15.6135 6.91555C15.6135 6.71274 16.0069 6.36473 16.0069 6.36473C16.0069 6.36473 16.4004 6.71274 16.4004 6.91555ZM14.3024 14.7494V12.276C14.3024 11.2983 15.095 10.5057 16.0727 10.5057C17.0504 10.5057 17.843 11.2983 17.843 12.276V14.7494L14.3024 14.7494ZM14.6955 14.3647H17.4496V14.4959H14.6955V14.3647ZM17.1873 14.1024H14.9578V14.2336H17.1873V14.1024ZM15.2201 13.8401H16.925V13.9713H15.2201V13.8401Z" fill="#F9F9F9"/>
<path d="M9.67049 6.96883C9.67049 6.96883 10.0492 6.44588 10.4098 6.40981C10.7344 6.37375 11.041 6.48194 11.041 6.48194C11.041 6.48194 10.3738 6.96883 10.0492 7.05899C9.79672 7.13112 9.67049 6.96883 9.67049 6.96883Z" fill="#F9F9F9"/>
<path d="M8.62458 13.0459C8.62458 13.0459 8.46229 13.1541 8.24589 12.9738C7.9754 12.7213 7.61475 11.7295 7.61475 11.7295C7.61475 11.7295 7.9213 11.9098 8.17376 12.1442C8.46229 12.4147 8.62458 13.0459 8.62458 13.0459Z" fill="#F9F9F9"/>
<path d="M9.00326 14.1278C8.62458 13.3164 8.42622 12.4508 8.37212 11.5131C8.33605 11.5311 8.17376 11.5672 8.01146 11.3508C7.79507 11.0262 7.63277 9.98031 7.63277 9.98031C7.63277 9.98031 7.90326 10.2328 8.10162 10.5213C8.28195 10.7738 8.35408 11.2426 8.37212 11.4229C8.37212 11.3328 8.37212 11.2246 8.37212 11.1344C8.37212 10.7197 8.40818 10.3049 8.46228 9.89014C8.40818 9.87211 8.28195 9.83605 8.19179 9.61965C8.04753 9.259 8.13769 8.19506 8.13769 8.19506C8.13769 8.19506 8.33605 8.50162 8.46228 8.84424C8.53441 9.02457 8.53441 9.259 8.53441 9.45736C8.62458 9.07867 8.73277 8.69998 8.859 8.33932C8.8049 8.32129 8.67867 8.24916 8.62458 8.01473C8.55244 7.63605 8.82294 6.60818 8.82294 6.60818C8.82294 6.60818 8.9672 6.9508 9.0213 7.32949C9.05736 7.58195 9.00326 7.8885 8.94917 8.1049C9.12949 7.69014 9.32785 7.29342 9.58031 6.91473C9.54425 6.8967 9.39999 6.80654 9.39999 6.53605C9.39999 6.13932 9.86884 5.20162 9.86884 5.20162C9.86884 5.20162 9.94097 5.58031 9.92294 5.94096C9.92294 6.24752 9.72458 6.64424 9.63441 6.80654C9.79671 6.57211 9.959 6.33768 10.1574 6.12129C10.1934 5.97703 10.3377 5.65244 10.7344 5.38195C11.2033 5.07539 11.9606 4.78687 11.9606 4.78687C11.9606 4.78687 11.1311 5.58031 10.7164 5.88687C10.4639 6.08523 10.2475 6.15736 10.1754 6.17539C9.67048 6.75244 9.27376 7.41965 8.98523 8.12293C9.09343 7.9426 9.27376 7.70818 9.47212 7.63605C9.77867 7.52785 10.1033 7.56391 10.1033 7.56391C10.1033 7.56391 9.54425 8.17703 9.25572 8.33932C9.0754 8.42949 8.94917 8.39342 8.89507 8.35736C8.73277 8.80818 8.58851 9.27703 8.51638 9.76391C8.57048 9.56555 8.71474 9.16883 8.94917 9.02457C9.21966 8.86228 9.54425 8.82621 9.54425 8.82621C9.54425 8.82621 9.11146 9.54752 8.859 9.78195C8.69671 9.92621 8.53441 9.89014 8.49835 9.87211C8.44425 10.2688 8.40818 10.6836 8.40818 11.0803C8.40818 11.2065 8.40818 11.3147 8.40818 11.441C8.40818 11.3508 8.48031 10.7557 8.73277 10.5213C8.9672 10.3049 9.29179 10.1967 9.29179 10.1967C9.29179 10.1967 8.98523 11.0082 8.76884 11.2787C8.60654 11.477 8.44425 11.459 8.42622 11.441C8.44425 11.9639 8.53441 12.4688 8.66064 12.9377C8.64261 12.8115 8.62458 12.2524 8.82294 12C9.0213 11.7295 9.30982 11.5492 9.30982 11.5492C9.30982 11.5492 9.14753 12.4147 8.98523 12.7213C8.859 12.9557 8.69671 12.9557 8.67867 12.9557C8.8049 13.4065 8.9672 13.8393 9.18359 14.2541C9.14753 14.0557 9.0754 13.641 9.20162 13.3885C9.34589 13.0819 9.59835 12.8475 9.59835 12.8475C9.59835 12.8475 9.58031 13.7311 9.47212 14.0738C9.41802 14.2721 9.29179 14.3442 9.23769 14.3623C9.49015 14.8311 9.79671 15.2639 10.1754 15.6787C10.1033 15.4983 9.94097 15.0836 10.0311 14.7951C10.1213 14.4524 10.3377 14.1639 10.3377 14.1639C10.3377 14.1639 10.482 15.0295 10.4279 15.3901C10.4098 15.6065 10.3016 15.6967 10.2475 15.7328C10.3016 15.7869 10.3377 15.841 10.3918 15.8951C10.6442 16.1475 10.9147 16.3819 11.2033 16.5983C11.077 16.418 10.8967 16.1475 10.8967 15.8951C10.8967 15.5344 11.0229 15.2098 11.0229 15.2098C11.0229 15.2098 11.3836 16.0033 11.4377 16.3639C11.4738 16.5623 11.4016 16.6705 11.3656 16.7246C11.6901 16.959 12.0147 17.1574 12.3754 17.3377C12.2311 17.2295 11.8705 16.941 11.7983 16.6164C11.7262 16.2738 11.7983 15.9131 11.7983 15.9131C11.7983 15.9131 12.3213 16.5983 12.4475 16.941C12.5377 17.1754 12.4475 17.3197 12.4295 17.3557C12.7901 17.536 13.1688 17.6983 13.5475 17.8426C13.3672 17.7524 12.9705 17.518 12.8623 17.2475C12.7361 16.9229 12.7361 16.5623 12.7361 16.5623C12.7361 16.5623 13.3852 17.1574 13.5836 17.4819C13.7098 17.6983 13.6557 17.8606 13.6377 17.8967C14.0885 18.059 14.5574 18.1852 15.0442 18.2754C15.9459 18.4377 16.4688 18.7983 16.7754 19.0869C16.7574 19.0869 16.7393 19.1049 16.7213 19.1049C16.4328 18.8164 15.9098 18.4918 15.0442 18.3295C14.5574 18.2393 14.0885 18.1131 13.6377 17.9508C13.6377 18.0049 13.5836 18.1672 13.3311 18.2393C12.9524 18.3475 11.9246 18.059 11.9246 18.059C11.9246 18.059 12.2492 17.8967 12.5918 17.8065C12.8442 17.7524 13.2049 17.8246 13.4213 17.8787C13.0606 17.7524 12.718 17.5901 12.3934 17.4278C12.3934 17.4459 12.3393 17.6442 12.0688 17.6623C11.6901 17.6983 10.7885 17.2836 10.7885 17.2836C10.7885 17.2836 11.1131 17.1754 11.4557 17.1393C11.7082 17.1213 12.0508 17.2475 12.2492 17.3377C11.9065 17.1574 11.582 16.959 11.2934 16.7426C11.2754 16.7967 11.1852 16.9229 10.9508 16.9049C10.6082 17.0131 9.77867 16.436 9.77867 16.436C9.77867 16.436 10.1213 16.3819 10.4459 16.4C10.6082 16.418 10.7885 16.4901 10.9508 16.5803C10.7344 16.4 10.5361 16.2197 10.3557 16.0393C10.3016 15.9852 10.2475 15.9311 10.2115 15.877C10.1754 15.9131 10.0672 16.0393 9.85081 15.9852C9.50818 15.8951 8.78687 15.1738 8.78687 15.1738C8.78687 15.1738 9.12949 15.1738 9.45408 15.2639C9.63441 15.318 9.81474 15.4442 9.959 15.5705C9.67048 15.2278 9.41802 14.8492 9.21966 14.4705C9.18359 14.5065 9.03933 14.5787 8.859 14.4705C8.55244 14.2901 8.02949 13.3885 8.02949 13.3885C8.02949 13.3885 8.35408 13.4967 8.64261 13.659C8.76884 13.7852 8.89507 13.9656 9.00326 14.1278Z" fill="#F9F9F9"/>
<path d="M22.3115 6.96887C22.3115 6.96887 21.9328 6.44592 21.5721 6.40986C21.2475 6.37379 20.941 6.48199 20.941 6.48199C20.941 6.48199 21.6082 6.96887 21.9328 7.05904C22.1853 7.13117 22.3115 6.96887 22.3115 6.96887Z" fill="#F9F9F9"/>
<path d="M23.3754 13.0459C23.3754 13.0459 23.5377 13.1541 23.7541 12.9738C24.0246 12.7213 24.3853 11.7295 24.3853 11.7295C24.3853 11.7295 24.0787 11.9098 23.8262 12.1443C23.5377 12.4147 23.3754 13.0459 23.3754 13.0459Z" fill="#F9F9F9"/>
<path d="M22.9787 14.1279C23.3574 13.3164 23.5557 12.4508 23.6098 11.5131C23.6459 11.5312 23.8082 11.5672 23.9705 11.3508C24.1869 11.0443 24.3672 9.99837 24.3672 9.99837C24.3672 9.99837 24.0967 10.2508 23.8984 10.5394C23.718 10.7918 23.6459 11.2607 23.6279 11.441C23.6279 11.3508 23.6279 11.2426 23.6279 11.1525C23.6279 10.7377 23.5918 10.323 23.5377 9.9082C23.5918 9.89017 23.718 9.8541 23.8082 9.63771C23.9525 9.27705 23.8623 8.21312 23.8623 8.21312C23.8623 8.21312 23.6639 8.51968 23.5377 8.8623C23.4656 9.04263 23.4656 9.27706 23.4656 9.47542C23.3754 9.09673 23.2672 8.71804 23.141 8.35738C23.1951 8.33935 23.3213 8.26722 23.3754 8.03279C23.4475 7.6541 23.177 6.62624 23.177 6.62624C23.177 6.62624 23.0328 6.96886 22.9787 7.34755C22.9426 7.60001 22.9967 7.90656 23.0508 8.12296C22.8705 7.7082 22.6721 7.31148 22.4197 6.93279C22.4557 6.91476 22.6 6.8246 22.6 6.5541C22.6 6.15738 22.1311 5.21968 22.1311 5.21968C22.1311 5.21968 22.059 5.59837 22.077 5.95902C22.077 6.26558 22.2754 6.6623 22.3656 6.8246C22.2033 6.59017 22.041 6.35574 21.8426 6.13935C21.8066 5.99509 21.6623 5.6705 21.2656 5.40001C20.7967 5.09345 20.0393 4.80492 20.0393 4.80492C20.0393 4.80492 20.8688 5.59837 21.2836 5.90492C21.5361 6.10328 21.7525 6.17542 21.8246 6.19345C22.3295 6.7705 22.7262 7.43771 23.0147 8.14099C22.9066 7.96066 22.7262 7.72623 22.5279 7.6541C22.1852 7.56394 21.8607 7.60001 21.8607 7.60001C21.8607 7.60001 22.4197 8.21312 22.7082 8.37542C22.8885 8.46558 23.0147 8.42951 23.0688 8.39345C23.2311 8.84427 23.3754 9.31312 23.4475 9.80001C23.3934 9.60164 23.2492 9.20492 23.0147 9.06066C22.7443 8.89837 22.4197 8.8623 22.4197 8.8623C22.4197 8.8623 22.8525 9.58361 23.1049 9.81804C23.2672 9.9623 23.4295 9.92624 23.4656 9.9082C23.5197 10.3049 23.5557 10.7197 23.5557 11.1164C23.5557 11.2426 23.5557 11.3508 23.5557 11.4771C23.5557 11.3869 23.4836 10.7918 23.2311 10.5574C22.9967 10.341 22.6721 10.2328 22.6721 10.2328C22.6721 10.2328 22.9787 11.0443 23.1951 11.3148C23.3574 11.5131 23.5197 11.4951 23.5377 11.4771C23.5197 12 23.4295 12.5049 23.3033 12.9738C23.3213 12.8475 23.3393 12.2885 23.141 12.0361C22.9426 11.7656 22.6541 11.5853 22.6541 11.5853C22.6541 11.5853 22.8164 12.4508 22.9787 12.7574C23.1049 12.9918 23.2672 12.9918 23.2852 12.9918C23.159 13.4426 22.9967 13.8754 22.7803 14.2902C22.8164 14.0918 22.8885 13.6771 22.7623 13.4246C22.618 13.118 22.3656 12.8836 22.3656 12.8836C22.3656 12.8836 22.3836 13.7672 22.4918 14.1098C22.5459 14.3082 22.6721 14.3803 22.7262 14.3984C22.4738 14.8672 22.1672 15.3 21.7885 15.7148C21.8607 15.5344 22.0229 15.1197 21.9328 14.8312C21.8607 14.5607 21.6623 14.2721 21.6623 14.2721C21.6623 14.2721 21.518 15.1377 21.5721 15.4984C21.5902 15.7148 21.6984 15.8049 21.7525 15.841C21.6984 15.8951 21.6623 15.9492 21.6082 16.0033C21.3557 16.2557 21.0852 16.4902 20.7967 16.7066C20.9229 16.5262 21.1033 16.2557 21.1033 16.0033C21.1033 15.6426 20.977 15.318 20.977 15.318C20.977 15.318 20.6164 16.1115 20.5623 16.4721C20.5262 16.6705 20.5984 16.7787 20.6344 16.8328C20.3098 17.0672 19.9852 17.2656 19.6246 17.4459C19.7688 17.3377 20.1295 17.0492 20.2016 16.7246C20.2738 16.382 20.2016 16.0213 20.2016 16.0213C20.2016 16.0213 19.6787 16.7066 19.5525 17.0492C19.4623 17.2836 19.5525 17.4279 19.5705 17.4639C19.2098 17.6443 18.8311 17.8066 18.4525 17.9508C18.6328 17.8607 19.0295 17.6262 19.1377 17.3557C19.2639 17.0312 19.2639 16.6705 19.2639 16.6705C19.2639 16.6705 18.6147 17.2656 18.4164 17.5902C18.2902 17.8066 18.3443 17.9689 18.3623 18.0049C17.9115 18.1672 17.4426 18.2934 16.9557 18.3836C16.0541 18.5459 15.5311 18.9066 15.2246 19.1951C15.2426 19.1951 15.2607 19.2131 15.2787 19.2131C15.5672 18.9246 16.0902 18.6 16.9557 18.4377C17.4426 18.3475 17.9115 18.2213 18.3623 18.059C18.3623 18.1131 18.4164 18.2754 18.6688 18.3475C19.0475 18.4557 20.0754 18.1672 20.0754 18.1672C20.0754 18.1672 19.7508 18.0049 19.4082 17.9148C19.1557 17.8607 18.7951 17.9328 18.5787 17.9869C18.9393 17.8607 19.282 17.6984 19.6066 17.5361C19.6066 17.5541 19.6607 17.7525 19.9311 17.7705C20.3098 17.8066 21.2115 17.3918 21.2115 17.3918C21.2115 17.3918 20.8869 17.2836 20.5443 17.2475C20.2918 17.2295 19.9492 17.3557 19.7508 17.4459C20.0934 17.2656 20.418 17.0672 20.7066 16.8508C20.7246 16.9049 20.8147 17.0312 21.0492 17.0131C21.4098 16.9951 22.2213 16.418 22.2213 16.418C22.2213 16.418 21.8787 16.3639 21.5541 16.382C21.3918 16.4 21.2115 16.4721 21.0492 16.5623C21.2656 16.382 21.4639 16.2016 21.6443 16.0213C21.6984 15.9672 21.7525 15.9131 21.7885 15.859C21.8246 15.8951 21.9328 16.0213 22.1492 15.9672C22.4918 15.8771 23.2131 15.1557 23.2131 15.1557C23.2131 15.1557 22.8705 15.1557 22.5459 15.2459C22.3656 15.3 22.1852 15.4262 22.041 15.5525C22.3295 15.2098 22.582 14.8312 22.7803 14.4525C22.8164 14.4885 22.9606 14.5607 23.141 14.4525C23.4475 14.2721 23.9705 13.3705 23.9705 13.3705C23.9705 13.3705 23.6459 13.4787 23.3574 13.641C23.2311 13.7853 23.0869 13.9656 22.9787 14.1279Z" fill="#F9F9F9"/>
</g>
<defs>
<clipPath id="clip0_440_1376">
<rect width="32" height="24" rx="2" fill="white"/>
</clipPath>
</defs>
</svg>
