<svg width="24" height="24" viewBox="0 0 24 24" fill="none" xmlns="http://www.w3.org/2000/svg">
<g clip-path="url(#clip0_440_1372)">
<rect width="24" height="24" rx="2" fill="#D74B4B"/>
<path d="M0 24L-1.04907e-06 0L8 -3.49691e-07L8 24L0 24Z" fill="#333333"/>
<path d="M16 24L16 0L24 -3.49691e-07L24 24L16 24Z" fill="#3FB47C"/>
<path fill-rule="evenodd" clip-rule="evenodd" d="M12.3387 7.6982C12.3387 7.75167 12.3242 7.80199 12.2988 7.84592C12.7097 7.98979 13.0045 8.38104 13.0045 8.84113C13.0045 9.00826 12.9656 9.16631 12.8964 9.30672C13.1537 9.42946 13.3797 9.60715 13.5593 9.82462V8.6354C13.4903 8.55716 13.4484 8.45439 13.4484 8.34184C13.4484 8.09671 13.8922 7.67606 13.8922 7.67606C13.8922 7.67606 14.3361 8.09671 14.3361 8.34184C14.3361 8.45442 14.2941 8.55721 14.2251 8.63545V9.98628H15.0154L14.4606 10.7358H14.2251V14.3263H13.5593L13.5593 12.2335C13.5593 11.4063 12.8887 10.7357 12.0614 10.7357C11.2342 10.7357 10.5636 11.4063 10.5636 12.2335V14.3263H9.89784V10.7358H9.53938L8.98457 9.98628H9.89784V8.63575C9.82862 8.55746 9.7866 8.45456 9.7866 8.34184C9.7866 8.09671 10.2304 7.67606 10.2304 7.67606C10.2304 7.67606 10.6743 8.09671 10.6743 8.34184C10.6743 8.45425 10.6325 8.5569 10.5636 8.6351V9.82429C10.7023 9.65645 10.8686 9.51231 11.0557 9.39886C10.9546 9.23709 10.8962 9.04593 10.8962 8.84113C10.8962 8.34582 11.2378 7.9303 11.6983 7.81732C11.682 7.78063 11.6729 7.7404 11.6729 7.6982C11.6729 7.52661 12.0058 7.23216 12.0058 7.23216C12.0058 7.23216 12.3387 7.52661 12.3387 7.6982ZM8.98456 15.0758L15.0154 15.0758L14.4606 14.3263L9.53937 14.3263L8.98456 15.0758ZM10.8962 14.0009H13.2264V14.1118H10.8962V14.0009ZM13.0045 13.779H11.1182V13.89H13.0045V13.779ZM11.3401 13.5572H12.7826V13.6681H11.3401V13.5572Z" fill="#F9F9F9"/>
<path d="M6.64466 7.74346C6.64466 7.74346 6.96506 7.301 7.27021 7.27049C7.54484 7.23997 7.80421 7.33152 7.80421 7.33152C7.80421 7.33152 7.23969 7.74346 6.96506 7.81975C6.75146 7.88078 6.64466 7.74346 6.64466 7.74346Z" fill="#F9F9F9"/>
<path d="M5.75974 12.8851C5.75974 12.8851 5.62243 12.9766 5.43934 12.824C5.21048 12.6104 4.90533 11.7713 4.90533 11.7713C4.90533 11.7713 5.16471 11.9239 5.37831 12.1222C5.62243 12.3511 5.75974 12.8851 5.75974 12.8851Z" fill="#F9F9F9"/>
<path d="M6.08012 13.8005C5.75972 13.1139 5.59189 12.3816 5.54612 11.5882C5.5156 11.6035 5.37829 11.634 5.24097 11.4509C5.05788 11.1762 4.92057 10.2913 4.92057 10.2913C4.92057 10.2913 5.14943 10.5049 5.31726 10.749C5.46983 10.9626 5.53086 11.3593 5.54612 11.5119C5.54612 11.4356 5.54612 11.3441 5.54612 11.2678C5.54612 10.9169 5.57663 10.566 5.6224 10.215C5.57663 10.1998 5.46983 10.1693 5.39355 9.98618C5.27149 9.68103 5.34777 8.78085 5.34777 8.78085C5.34777 8.78085 5.5156 9.04022 5.6224 9.33011C5.68343 9.48269 5.68343 9.68103 5.68343 9.84886C5.75972 9.52846 5.85126 9.20805 5.95807 8.90291C5.91229 8.88765 5.80549 8.82662 5.75972 8.62828C5.69869 8.30787 5.92755 7.43821 5.92755 7.43821C5.92755 7.43821 6.04961 7.72809 6.09538 8.0485C6.1259 8.2621 6.08012 8.52148 6.03435 8.70456C6.18693 8.35364 6.35476 8.01798 6.56836 7.69758C6.53784 7.68232 6.41579 7.60604 6.41579 7.37718C6.41579 7.04152 6.81248 6.24814 6.81248 6.24814C6.81248 6.24814 6.8735 6.56854 6.85825 6.87368C6.85825 7.13306 6.69042 7.46872 6.61413 7.60604C6.75145 7.40769 6.88876 7.20935 7.05659 7.02626C7.08711 6.9042 7.20917 6.62957 7.54483 6.40071C7.94152 6.14133 8.58232 5.89722 8.58232 5.89722C8.58232 5.89722 7.88049 6.56854 7.52957 6.82791C7.31597 6.99574 7.13288 7.05677 7.07185 7.07203C6.64465 7.56026 6.30898 8.12478 6.06487 8.71982C6.15641 8.56725 6.30898 8.3689 6.47681 8.30787C6.73619 8.21633 7.01082 8.24684 7.01082 8.24684C7.01082 8.24684 6.53784 8.76559 6.29373 8.90291C6.14115 8.97919 6.03435 8.94868 5.98858 8.91817C5.85126 9.2996 5.72921 9.69629 5.66818 10.1082C5.71395 9.94041 5.83601 9.60474 6.03435 9.48269C6.26321 9.34537 6.53784 9.31486 6.53784 9.31486C6.53784 9.31486 6.17167 9.92515 5.95807 10.1235C5.82075 10.2456 5.68343 10.215 5.65292 10.1998C5.60715 10.5354 5.57663 10.8864 5.57663 11.222C5.57663 11.3288 5.57663 11.4204 5.57663 11.5272C5.57663 11.4509 5.63766 10.9474 5.85126 10.749C6.04961 10.566 6.32424 10.4744 6.32424 10.4744C6.32424 10.4744 6.06487 11.161 5.88178 11.3899C5.74446 11.5577 5.60715 11.5424 5.59189 11.5272C5.60715 11.9696 5.68343 12.3968 5.79024 12.7935C5.77498 12.6867 5.75972 12.2137 5.92755 12.0001C6.09538 11.7713 6.3395 11.6187 6.3395 11.6187C6.3395 11.6187 6.20218 12.3511 6.06487 12.6104C5.95807 12.8088 5.82075 12.8088 5.80549 12.8088C5.91229 13.1902 6.04961 13.5564 6.2327 13.9073C6.20218 13.7395 6.14115 13.3886 6.24795 13.175C6.37001 12.9156 6.58362 12.7172 6.58362 12.7172C6.58362 12.7172 6.56836 13.4648 6.47681 13.7547C6.43104 13.9226 6.32424 13.9836 6.27847 13.9989C6.49207 14.3955 6.75145 14.7617 7.07185 15.1126C7.01082 14.9601 6.8735 14.6091 6.94979 14.365C7.02608 14.0751 7.20917 13.831 7.20917 13.831C7.20917 13.831 7.33122 14.5634 7.28545 14.8685C7.2702 15.0516 7.17865 15.1279 7.13288 15.1584C7.17865 15.2042 7.20917 15.25 7.25494 15.2957C7.46854 15.5093 7.6974 15.7077 7.94152 15.8908C7.83472 15.7382 7.68214 15.5093 7.68214 15.2957C7.68214 14.9906 7.78894 14.7159 7.78894 14.7159C7.78894 14.7159 8.09409 15.3873 8.13986 15.6924C8.17038 15.8602 8.10935 15.9518 8.07883 15.9976C8.35346 16.1959 8.6281 16.3637 8.93324 16.5163C8.81118 16.4248 8.50604 16.1806 8.44501 15.906C8.38398 15.6161 8.44501 15.311 8.44501 15.311C8.44501 15.311 8.88747 15.8908 8.99427 16.1806C9.07056 16.379 8.99427 16.5011 8.97901 16.5316C9.28416 16.6841 9.60456 16.8215 9.92497 16.9435C9.77239 16.8672 9.43673 16.6689 9.34519 16.44C9.23839 16.1654 9.23839 15.8602 9.23839 15.8602C9.23839 15.8602 9.78765 16.3637 9.95548 16.6384C10.0623 16.8215 10.0165 16.9588 10.0013 16.9893C10.3827 17.1266 10.7794 17.2334 11.1913 17.3097C11.9542 17.447 12.3967 17.7522 12.656 17.9963C12.6408 17.9963 12.6255 18.0115 12.6103 18.0115C12.3661 17.7674 11.9237 17.4928 11.1913 17.3555C10.7794 17.2792 10.3827 17.1724 10.0013 17.0351C10.0013 17.0808 9.95548 17.2181 9.74188 17.2792C9.42148 17.3707 8.55181 17.1266 8.55181 17.1266C8.55181 17.1266 8.82644 16.9893 9.11633 16.913C9.32993 16.8672 9.63508 16.9283 9.81817 16.974C9.51302 16.8672 9.22313 16.7299 8.9485 16.5926C8.9485 16.6079 8.90273 16.7757 8.67387 16.7909C8.35346 16.8215 7.5906 16.4705 7.5906 16.4705C7.5906 16.4705 7.86523 16.379 8.15512 16.3485C8.36872 16.3332 8.65861 16.44 8.82644 16.5163C8.53655 16.3637 8.26192 16.1959 8.0178 16.0128C8.00255 16.0586 7.92626 16.1654 7.72791 16.1501C7.43803 16.2417 6.73619 15.7534 6.73619 15.7534C6.73619 15.7534 7.02608 15.7077 7.30071 15.7229C7.43803 15.7382 7.5906 15.7992 7.72791 15.8755C7.54483 15.7229 7.377 15.5704 7.22442 15.4178C7.17865 15.372 7.13288 15.3262 7.10236 15.2805C7.07185 15.311 6.98031 15.4178 6.79722 15.372C6.50733 15.2957 5.89704 14.6854 5.89704 14.6854C5.89704 14.6854 6.18693 14.6854 6.46156 14.7617C6.61413 14.8075 6.7667 14.9143 6.88876 15.0211C6.64464 14.7312 6.43104 14.4108 6.26321 14.0904C6.2327 14.1209 6.11064 14.1819 5.95807 14.0904C5.69869 13.9378 5.25623 13.175 5.25623 13.175C5.25623 13.175 5.53086 13.2665 5.77498 13.4038C5.88178 13.5106 5.98858 13.6632 6.08012 13.8005Z" fill="#F9F9F9"/>
<path d="M17.3401 7.74345C17.3401 7.74345 17.0197 7.30099 16.7145 7.27048C16.4399 7.23996 16.1805 7.33151 16.1805 7.33151C16.1805 7.33151 16.745 7.74345 17.0197 7.81974C17.2333 7.88077 17.3401 7.74345 17.3401 7.74345Z" fill="#F9F9F9"/>
<path d="M18.2402 12.8851C18.2402 12.8851 18.3775 12.9766 18.5606 12.824C18.7895 12.6104 19.0946 11.7713 19.0946 11.7713C19.0946 11.7713 18.8353 11.9238 18.6217 12.1222C18.3775 12.3511 18.2402 12.8851 18.2402 12.8851Z" fill="#F9F9F9"/>
<path d="M17.9045 13.8005C18.2249 13.114 18.3928 12.3816 18.4385 11.5882C18.4691 11.6035 18.6064 11.634 18.7437 11.4509C18.9268 11.1915 19.0794 10.3066 19.0794 10.3066C19.0794 10.3066 18.8505 10.5202 18.6827 10.7643C18.5301 10.9779 18.4691 11.3746 18.4538 11.5272C18.4538 11.4509 18.4538 11.3594 18.4538 11.2831C18.4538 10.9322 18.4233 10.5812 18.3775 10.2303C18.4233 10.2151 18.5301 10.1846 18.6064 10.0015C18.7284 9.69632 18.6521 8.79613 18.6521 8.79613C18.6521 8.79613 18.4843 9.05551 18.3775 9.3454C18.3165 9.49797 18.3165 9.69632 18.3165 9.86415C18.2402 9.54374 18.1487 9.22334 18.0419 8.91819C18.0876 8.90294 18.1944 8.84191 18.2402 8.64356C18.3012 8.32316 18.0724 7.45349 18.0724 7.45349C18.0724 7.45349 17.9503 7.74338 17.9045 8.06378C17.874 8.27739 17.9198 8.53676 17.9656 8.71985C17.813 8.36893 17.6452 8.03327 17.4316 7.71287C17.4621 7.69761 17.5841 7.62132 17.5841 7.39246C17.5841 7.0568 17.1874 6.26342 17.1874 6.26342C17.1874 6.26342 17.1264 6.58382 17.1417 6.88897C17.1417 7.14834 17.3095 7.48401 17.3858 7.62132C17.2485 7.42298 17.1112 7.22463 16.9433 7.04154C16.9128 6.91949 16.7908 6.64485 16.4551 6.41599C16.0584 6.15662 15.4176 5.9125 15.4176 5.9125C15.4176 5.9125 16.1194 6.58382 16.4704 6.8432C16.684 7.01103 16.867 7.07206 16.9281 7.08732C17.3553 7.57555 17.6909 8.14007 17.9351 8.73511C17.8435 8.58253 17.6909 8.38419 17.5231 8.32316C17.2332 8.24687 16.9586 8.27739 16.9586 8.27739C16.9586 8.27739 17.4316 8.79613 17.6757 8.93345C17.8283 9.00974 17.9351 8.97922 17.9808 8.94871C18.1181 9.33014 18.2402 9.72683 18.3012 10.1388C18.2555 9.97095 18.1334 9.63529 17.9351 9.51323C17.7062 9.37591 17.4316 9.3454 17.4316 9.3454C17.4316 9.3454 17.7977 9.95569 18.0113 10.154C18.1487 10.2761 18.286 10.2456 18.3165 10.2303C18.3623 10.566 18.3928 10.9169 18.3928 11.2526C18.3928 11.3594 18.3928 11.4509 18.3928 11.5577C18.3928 11.4814 18.3317 10.9779 18.1181 10.7796C17.9198 10.5965 17.6452 10.505 17.6452 10.505C17.6452 10.505 17.9045 11.1915 18.0876 11.4204C18.2249 11.5882 18.3623 11.573 18.3775 11.5577C18.3623 12.0002 18.286 12.4274 18.1792 12.8241C18.1944 12.7173 18.2097 12.2443 18.0419 12.0307C17.874 11.8018 17.6299 11.6493 17.6299 11.6493C17.6299 11.6493 17.7672 12.3816 17.9045 12.641C18.0113 12.8393 18.1487 12.8393 18.1639 12.8393C18.0571 13.2208 17.9198 13.5869 17.7367 13.9378C17.7672 13.77 17.8283 13.4191 17.7214 13.2055C17.5994 12.9461 17.3858 12.7478 17.3858 12.7478C17.3858 12.7478 17.401 13.4954 17.4926 13.7853C17.5384 13.9531 17.6452 14.0141 17.6909 14.0294C17.4773 14.4261 17.218 14.7923 16.8976 15.1432C16.9586 14.9906 17.0959 14.6397 17.0196 14.3956C16.9586 14.1667 16.7908 13.9226 16.7908 13.9226C16.7908 13.9226 16.6687 14.6549 16.7145 14.9601C16.7297 15.1432 16.8213 15.2195 16.867 15.25C16.8213 15.2958 16.7908 15.3415 16.745 15.3873C16.5314 15.6009 16.3025 15.7992 16.0584 15.9823C16.1652 15.8298 16.3178 15.6009 16.3178 15.3873C16.3178 15.0821 16.211 14.8075 16.211 14.8075C16.211 14.8075 15.9058 15.4788 15.8601 15.784C15.8295 15.9518 15.8906 16.0434 15.9211 16.0891C15.6465 16.2875 15.3718 16.4553 15.0667 16.6079C15.1887 16.5163 15.4939 16.2722 15.5549 15.9976C15.6159 15.7077 15.5549 15.4026 15.5549 15.4026C15.5549 15.4026 15.1124 15.9823 15.0056 16.2722C14.9294 16.4706 15.0056 16.5926 15.0209 16.6231C14.7158 16.7757 14.3954 16.913 14.075 17.0351C14.2275 16.9588 14.5632 16.7605 14.6547 16.5316C14.7615 16.257 14.7615 15.9518 14.7615 15.9518C14.7615 15.9518 14.2123 16.4553 14.0444 16.7299C13.9376 16.913 13.9834 17.0503 13.9987 17.0809C13.6172 17.2182 13.2205 17.325 12.8086 17.4013C12.0457 17.5386 11.6033 17.8437 11.3439 18.0878C11.3591 18.0878 11.3744 18.1031 11.3897 18.1031C11.6338 17.859 12.0762 17.5843 12.8086 17.447C13.2205 17.3707 13.6172 17.2639 13.9987 17.1266C13.9987 17.1724 14.0444 17.3097 14.258 17.3707C14.5784 17.4623 15.4481 17.2182 15.4481 17.2182C15.4481 17.2182 15.1735 17.0809 14.8836 17.0046C14.67 16.9588 14.3648 17.0198 14.1818 17.0656C14.4869 16.9588 14.7768 16.8215 15.0514 16.6842C15.0514 16.6994 15.0972 16.8673 15.3261 16.8825C15.6465 16.913 16.4093 16.5621 16.4093 16.5621C16.4093 16.5621 16.1347 16.4706 15.8448 16.4401C15.6312 16.4248 15.3413 16.5316 15.1735 16.6079C15.4634 16.4553 15.738 16.2875 15.9821 16.1044C15.9974 16.1502 16.0737 16.257 16.272 16.2417C16.5772 16.2264 17.2637 15.7382 17.2637 15.7382C17.2637 15.7382 16.9738 15.6924 16.6992 15.7077C16.5619 15.723 16.4093 15.784 16.272 15.8603C16.4551 15.7077 16.6229 15.5551 16.7755 15.4026C16.8213 15.3568 16.867 15.311 16.8976 15.2652C16.9281 15.2958 17.0196 15.4026 17.2027 15.3568C17.4926 15.2805 18.1029 14.6702 18.1029 14.6702C18.1029 14.6702 17.813 14.6702 17.5384 14.7465C17.3858 14.7923 17.2332 14.8991 17.1112 15.0059C17.3553 14.716 17.5689 14.3956 17.7367 14.0752C17.7672 14.1057 17.8893 14.1667 18.0419 14.0752C18.3012 13.9226 18.7437 13.1597 18.7437 13.1597C18.7437 13.1597 18.4691 13.2513 18.2249 13.3886C18.1181 13.5106 17.9961 13.6632 17.9045 13.8005Z" fill="#F9F9F9"/>
</g>
<defs>
<clipPath id="clip0_440_1372">
<rect width="24" height="24" rx="2" fill="white"/>
</clipPath>
</defs>
</svg>
