<svg width="24" height="24" viewBox="0 0 24 24" fill="none" xmlns="http://www.w3.org/2000/svg">
<g clip-path="url(#clip0_440_1355)">
<rect width="24" height="24" rx="12" fill="#D74B4B"/>
<path d="M0 24L-1.04907e-06 0L8 -3.49691e-07L8 24L0 24Z" fill="#333333"/>
<path d="M16 24L16 0L24 -3.49691e-07L24 24L16 24Z" fill="#3FB47C"/>
<path fill-rule="evenodd" clip-rule="evenodd" d="M12.3387 7.69813C12.3387 7.75161 12.3242 7.80192 12.2987 7.84586C12.7097 7.98973 13.0045 8.38097 13.0045 8.84107C13.0045 9.0082 12.9656 9.16625 12.8964 9.30665C13.1537 9.42939 13.3797 9.60709 13.5593 9.82455V8.63533C13.4902 8.55709 13.4484 8.45433 13.4484 8.34177C13.4484 8.09664 13.8922 7.676 13.8922 7.676C13.8922 7.676 14.3361 8.09664 14.3361 8.34177C14.3361 8.45435 14.2941 8.55714 14.2251 8.63539V9.98622H15.0154L14.4606 10.7357H14.2251V14.3262H13.5593L13.5593 12.2335C13.5593 11.4062 12.8887 10.7356 12.0614 10.7356C11.2342 10.7356 10.5636 11.4062 10.5636 12.2335V14.3262H9.89784V10.7357H9.53937L8.98456 9.98622H9.89784V8.63568C9.82861 8.5574 9.78659 8.45449 9.78659 8.34177C9.78659 8.09664 10.2304 7.676 10.2304 7.676C10.2304 7.676 10.6743 8.09664 10.6743 8.34177C10.6743 8.45418 10.6325 8.55683 10.5636 8.63504V9.82422C10.7023 9.65638 10.8686 9.51224 11.0557 9.3988C10.9546 9.23703 10.8962 9.04587 10.8962 8.84107C10.8962 8.34576 11.2378 7.93024 11.6983 7.81725C11.6819 7.78057 11.6729 7.74033 11.6729 7.69813C11.6729 7.52654 12.0058 7.23209 12.0058 7.23209C12.0058 7.23209 12.3387 7.52654 12.3387 7.69813ZM8.98455 15.0758H15.0154L14.4606 14.3263H9.53936L8.98455 15.0758ZM10.8962 14.0008H13.2264V14.1118H10.8962V14.0008ZM13.0045 13.7789H11.1182V13.8899H13.0045V13.7789ZM11.3401 13.5571H12.7826V13.6681H11.3401V13.5571Z" fill="#F9F9F9"/>
<path d="M6.64466 7.74322C6.64466 7.74322 6.96506 7.30076 7.27021 7.27024C7.54484 7.23973 7.80421 7.33127 7.80421 7.33127C7.80421 7.33127 7.23969 7.74322 6.96506 7.81951C6.75146 7.88054 6.64466 7.74322 6.64466 7.74322Z" fill="#F9F9F9"/>
<path d="M5.75974 12.8848C5.75974 12.8848 5.62243 12.9764 5.43934 12.8238C5.21048 12.6102 4.90533 11.771 4.90533 11.771C4.90533 11.771 5.16471 11.9236 5.37831 12.122C5.62243 12.3508 5.75974 12.8848 5.75974 12.8848Z" fill="#F9F9F9"/>
<path d="M6.08012 13.8003C5.75972 13.1137 5.59189 12.3813 5.54612 11.588C5.5156 11.6032 5.37829 11.6337 5.24097 11.4506C5.05788 11.176 4.92057 10.2911 4.92057 10.2911C4.92057 10.2911 5.14943 10.5047 5.31726 10.7488C5.46983 10.9624 5.53086 11.3591 5.54612 11.5117C5.54612 11.4354 5.54612 11.3438 5.54612 11.2675C5.54612 10.9166 5.57663 10.5657 5.6224 10.2148C5.57663 10.1995 5.46983 10.169 5.39355 9.98593C5.27149 9.68079 5.34777 8.78061 5.34777 8.78061C5.34777 8.78061 5.5156 9.03998 5.6224 9.32987C5.68343 9.48244 5.68343 9.68079 5.68343 9.84862C5.75972 9.52821 5.85126 9.20781 5.95807 8.90266C5.91229 8.88741 5.80549 8.82638 5.75972 8.62803C5.69869 8.30763 5.92755 7.43796 5.92755 7.43796C5.92755 7.43796 6.04961 7.72785 6.09538 8.04825C6.1259 8.26186 6.08012 8.52123 6.03435 8.70432C6.18693 8.3534 6.35476 8.01774 6.56836 7.69734C6.53784 7.68208 6.41579 7.60579 6.41579 7.37693C6.41579 7.04127 6.81248 6.24789 6.81248 6.24789C6.81248 6.24789 6.8735 6.56829 6.85825 6.87344C6.85825 7.13282 6.69042 7.46848 6.61413 7.60579C6.75145 7.40745 6.88876 7.2091 7.05659 7.02601C7.08711 6.90396 7.20917 6.62932 7.54483 6.40046C7.94152 6.14109 8.58232 5.89697 8.58232 5.89697C8.58232 5.89697 7.88049 6.56829 7.52957 6.82767C7.31597 6.9955 7.13288 7.05653 7.07185 7.07179C6.64465 7.56002 6.30898 8.12454 6.06487 8.71958C6.15641 8.567 6.30898 8.36866 6.47681 8.30763C6.73619 8.21608 7.01082 8.2466 7.01082 8.2466C7.01082 8.2466 6.53784 8.76535 6.29373 8.90266C6.14115 8.97895 6.03435 8.94844 5.98858 8.91792C5.85126 9.29935 5.72921 9.69604 5.66818 10.108C5.71395 9.94016 5.83601 9.6045 6.03435 9.48244C6.26321 9.34513 6.53784 9.31461 6.53784 9.31461C6.53784 9.31461 6.17167 9.9249 5.95807 10.1232C5.82075 10.2453 5.68343 10.2148 5.65292 10.1995C5.60715 10.5352 5.57663 10.8861 5.57663 11.2218C5.57663 11.3286 5.57663 11.4201 5.57663 11.5269C5.57663 11.4506 5.63766 10.9471 5.85126 10.7488C6.04961 10.5657 6.32424 10.4742 6.32424 10.4742C6.32424 10.4742 6.06487 11.1607 5.88178 11.3896C5.74446 11.5574 5.60715 11.5422 5.59189 11.5269C5.60715 11.9694 5.68343 12.3966 5.79024 12.7933C5.77498 12.6865 5.75972 12.2135 5.92755 11.9999C6.09538 11.771 6.3395 11.6185 6.3395 11.6185C6.3395 11.6185 6.20218 12.3508 6.06487 12.6102C5.95807 12.8085 5.82075 12.8085 5.80549 12.8085C5.91229 13.19 6.04961 13.5561 6.2327 13.9071C6.20218 13.7392 6.14115 13.3883 6.24795 13.1747C6.37001 12.9153 6.58362 12.717 6.58362 12.717C6.58362 12.717 6.56836 13.4646 6.47681 13.7545C6.43104 13.9223 6.32424 13.9833 6.27847 13.9986C6.49207 14.3953 6.75145 14.7615 7.07185 15.1124C7.01082 14.9598 6.8735 14.6089 6.94979 14.3648C7.02608 14.0749 7.20917 13.8308 7.20917 13.8308C7.20917 13.8308 7.33122 14.5631 7.28545 14.8683C7.2702 15.0514 7.17865 15.1276 7.13288 15.1582C7.17865 15.2039 7.20917 15.2497 7.25494 15.2955C7.46854 15.5091 7.6974 15.7074 7.94152 15.8905C7.83472 15.7379 7.68214 15.5091 7.68214 15.2955C7.68214 14.9903 7.78894 14.7157 7.78894 14.7157C7.78894 14.7157 8.09409 15.387 8.13986 15.6922C8.17038 15.86 8.10935 15.9515 8.07883 15.9973C8.35346 16.1957 8.6281 16.3635 8.93324 16.5161C8.81118 16.4245 8.50604 16.1804 8.44501 15.9058C8.38398 15.6159 8.44501 15.3107 8.44501 15.3107C8.44501 15.3107 8.88747 15.8905 8.99427 16.1804C9.07056 16.3787 8.99427 16.5008 8.97901 16.5313C9.28416 16.6839 9.60456 16.8212 9.92497 16.9433C9.77239 16.867 9.43673 16.6686 9.34519 16.4398C9.23839 16.1651 9.23839 15.86 9.23839 15.86C9.23839 15.86 9.78765 16.3635 9.95548 16.6381C10.0623 16.8212 10.0165 16.9585 10.0013 16.989C10.3827 17.1264 10.7794 17.2332 11.1913 17.3094C11.9542 17.4468 12.3967 17.7519 12.656 17.996C12.6408 17.996 12.6255 18.0113 12.6103 18.0113C12.3661 17.7672 11.9237 17.4925 11.1913 17.3552C10.7794 17.2789 10.3827 17.1721 10.0013 17.0348C10.0013 17.0806 9.95548 17.2179 9.74188 17.2789C9.42148 17.3705 8.55181 17.1264 8.55181 17.1264C8.55181 17.1264 8.82644 16.989 9.11633 16.9128C9.32993 16.867 9.63508 16.928 9.81817 16.9738C9.51302 16.867 9.22313 16.7297 8.9485 16.5924C8.9485 16.6076 8.90273 16.7754 8.67387 16.7907C8.35346 16.8212 7.5906 16.4703 7.5906 16.4703C7.5906 16.4703 7.86523 16.3787 8.15512 16.3482C8.36872 16.333 8.65861 16.4398 8.82644 16.5161C8.53655 16.3635 8.26192 16.1957 8.0178 16.0126C8.00255 16.0583 7.92626 16.1651 7.72791 16.1499C7.43803 16.2414 6.73619 15.7532 6.73619 15.7532C6.73619 15.7532 7.02608 15.7074 7.30071 15.7227C7.43803 15.7379 7.5906 15.799 7.72791 15.8753C7.54483 15.7227 7.377 15.5701 7.22442 15.4175C7.17865 15.3718 7.13288 15.326 7.10236 15.2802C7.07185 15.3107 6.98031 15.4175 6.79722 15.3718C6.50733 15.2955 5.89704 14.6852 5.89704 14.6852C5.89704 14.6852 6.18693 14.6852 6.46156 14.7615C6.61413 14.8072 6.7667 14.914 6.88876 15.0208C6.64464 14.731 6.43104 14.4106 6.26321 14.0902C6.2327 14.1207 6.11064 14.1817 5.95807 14.0902C5.69869 13.9376 5.25623 13.1747 5.25623 13.1747C5.25623 13.1747 5.53086 13.2663 5.77498 13.4036C5.88178 13.5104 5.98858 13.6629 6.08012 13.8003Z" fill="#F9F9F9"/>
<path d="M17.3401 7.74321C17.3401 7.74321 17.0197 7.30075 16.7145 7.27023C16.4399 7.23972 16.1805 7.33126 16.1805 7.33126C16.1805 7.33126 16.745 7.74321 17.0197 7.8195C17.2333 7.88052 17.3401 7.74321 17.3401 7.74321Z" fill="#F9F9F9"/>
<path d="M18.2402 12.8848C18.2402 12.8848 18.3775 12.9764 18.5606 12.8238C18.7895 12.6102 19.0946 11.771 19.0946 11.771C19.0946 11.771 18.8353 11.9236 18.6217 12.1219C18.3775 12.3508 18.2402 12.8848 18.2402 12.8848Z" fill="#F9F9F9"/>
<path d="M17.9045 13.8003C18.2249 13.1137 18.3928 12.3814 18.4385 11.588C18.4691 11.6032 18.6064 11.6338 18.7437 11.4507C18.9268 11.1913 19.0794 10.3064 19.0794 10.3064C19.0794 10.3064 18.8505 10.52 18.6827 10.7641C18.5301 10.9777 18.4691 11.3744 18.4538 11.527C18.4538 11.4507 18.4538 11.3591 18.4538 11.2828C18.4538 10.9319 18.4233 10.581 18.3775 10.2301C18.4233 10.2148 18.5301 10.1843 18.6064 10.0012C18.7284 9.69607 18.6521 8.79589 18.6521 8.79589C18.6521 8.79589 18.4843 9.05527 18.3775 9.34515C18.3165 9.49773 18.3165 9.69607 18.3165 9.8639C18.2402 9.5435 18.1487 9.2231 18.0419 8.91795C18.0876 8.90269 18.1944 8.84166 18.2402 8.64332C18.3012 8.32291 18.0724 7.45325 18.0724 7.45325C18.0724 7.45325 17.9503 7.74314 17.9045 8.06354C17.874 8.27714 17.9198 8.53652 17.9656 8.7196C17.813 8.36869 17.6452 8.03303 17.4316 7.71262C17.4621 7.69736 17.5841 7.62108 17.5841 7.39222C17.5841 7.05656 17.1874 6.26318 17.1874 6.26318C17.1874 6.26318 17.1264 6.58358 17.1417 6.88873C17.1417 7.1481 17.3095 7.48376 17.3858 7.62108C17.2485 7.42273 17.1112 7.22439 16.9433 7.0413C16.9128 6.91924 16.7908 6.64461 16.4551 6.41575C16.0584 6.15638 15.4176 5.91226 15.4176 5.91226C15.4176 5.91226 16.1194 6.58358 16.4704 6.84295C16.684 7.01079 16.867 7.07181 16.9281 7.08707C17.3553 7.57531 17.6909 8.13983 17.9351 8.73486C17.8435 8.58229 17.6909 8.38394 17.5231 8.32291C17.2332 8.24663 16.9586 8.27714 16.9586 8.27714C16.9586 8.27714 17.4316 8.79589 17.6757 8.93321C17.8283 9.00949 17.9351 8.97898 17.9808 8.94846C18.1181 9.3299 18.2402 9.72659 18.3012 10.1385C18.2555 9.9707 18.1334 9.63504 17.9351 9.51298C17.7062 9.37567 17.4316 9.34515 17.4316 9.34515C17.4316 9.34515 17.7977 9.95545 18.0113 10.1538C18.1487 10.2759 18.286 10.2453 18.3165 10.2301C18.3623 10.5657 18.3928 10.9167 18.3928 11.2523C18.3928 11.3591 18.3928 11.4507 18.3928 11.5575C18.3928 11.4812 18.3317 10.9777 18.1181 10.7793C17.9198 10.5963 17.6452 10.5047 17.6452 10.5047C17.6452 10.5047 17.9045 11.1913 18.0876 11.4201C18.2249 11.588 18.3623 11.5727 18.3775 11.5575C18.3623 11.9999 18.286 12.4271 18.1792 12.8238C18.1944 12.717 18.2097 12.244 18.0419 12.0304C17.874 11.8016 17.6299 11.649 17.6299 11.649C17.6299 11.649 17.7672 12.3814 17.9045 12.6407C18.0113 12.8391 18.1487 12.8391 18.1639 12.8391C18.0571 13.2205 17.9198 13.5867 17.7367 13.9376C17.7672 13.7698 17.8283 13.4189 17.7214 13.2053C17.5994 12.9459 17.3858 12.7475 17.3858 12.7475C17.3858 12.7475 17.401 13.4951 17.4926 13.785C17.5384 13.9529 17.6452 14.0139 17.6909 14.0291C17.4773 14.4258 17.218 14.792 16.8976 15.1429C16.9586 14.9904 17.0959 14.6394 17.0196 14.3953C16.9586 14.1665 16.7908 13.9223 16.7908 13.9223C16.7908 13.9223 16.6687 14.6547 16.7145 14.9598C16.7297 15.1429 16.8213 15.2192 16.867 15.2497C16.8213 15.2955 16.7908 15.3413 16.745 15.3871C16.5314 15.6007 16.3025 15.799 16.0584 15.9821C16.1652 15.8295 16.3178 15.6007 16.3178 15.3871C16.3178 15.0819 16.211 14.8073 16.211 14.8073C16.211 14.8073 15.9058 15.4786 15.8601 15.7837C15.8295 15.9516 15.8906 16.0431 15.9211 16.0889C15.6465 16.2872 15.3718 16.4551 15.0667 16.6076C15.1887 16.5161 15.4939 16.272 15.5549 15.9973C15.6159 15.7075 15.5549 15.4023 15.5549 15.4023C15.5549 15.4023 15.1124 15.9821 15.0056 16.272C14.9294 16.4703 15.0056 16.5924 15.0209 16.6229C14.7158 16.7755 14.3954 16.9128 14.075 17.0348C14.2275 16.9586 14.5632 16.7602 14.6547 16.5313C14.7615 16.2567 14.7615 15.9516 14.7615 15.9516C14.7615 15.9516 14.2123 16.4551 14.0444 16.7297C13.9376 16.9128 13.9834 17.0501 13.9987 17.0806C13.6172 17.2179 13.2205 17.3247 12.8086 17.401C12.0457 17.5383 11.6033 17.8435 11.3439 18.0876C11.3591 18.0876 11.3744 18.1029 11.3897 18.1029C11.6338 17.8587 12.0762 17.5841 12.8086 17.4468C13.2205 17.3705 13.6172 17.2637 13.9987 17.1264C13.9987 17.1722 14.0444 17.3095 14.258 17.3705C14.5784 17.462 15.4481 17.2179 15.4481 17.2179C15.4481 17.2179 15.1735 17.0806 14.8836 17.0043C14.67 16.9586 14.3648 17.0196 14.1818 17.0654C14.4869 16.9586 14.7768 16.8212 15.0514 16.6839C15.0514 16.6992 15.0972 16.867 15.3261 16.8823C15.6465 16.9128 16.4093 16.5619 16.4093 16.5619C16.4093 16.5619 16.1347 16.4703 15.8448 16.4398C15.6312 16.4245 15.3413 16.5313 15.1735 16.6076C15.4634 16.4551 15.738 16.2872 15.9821 16.1041C15.9974 16.1499 16.0737 16.2567 16.272 16.2415C16.5772 16.2262 17.2637 15.738 17.2637 15.738C17.2637 15.738 16.9738 15.6922 16.6992 15.7075C16.5619 15.7227 16.4093 15.7837 16.272 15.86C16.4551 15.7075 16.6229 15.5549 16.7755 15.4023C16.8213 15.3565 16.867 15.3108 16.8976 15.265C16.9281 15.2955 17.0196 15.4023 17.2027 15.3565C17.4926 15.2802 18.1029 14.67 18.1029 14.67C18.1029 14.67 17.813 14.67 17.5384 14.7462C17.3858 14.792 17.2332 14.8988 17.1112 15.0056C17.3553 14.7157 17.5689 14.3953 17.7367 14.0749C17.7672 14.1054 17.8893 14.1665 18.0419 14.0749C18.3012 13.9223 18.7437 13.1595 18.7437 13.1595C18.7437 13.1595 18.4691 13.251 18.2249 13.3883C18.1181 13.5104 17.9961 13.663 17.9045 13.8003Z" fill="#F9F9F9"/>
</g>
<defs>
<clipPath id="clip0_440_1355">
<rect width="24" height="24" rx="12" fill="white"/>
</clipPath>
</defs>
</svg>
