<svg width="24" height="24" viewBox="0 0 24 24" fill="none" xmlns="http://www.w3.org/2000/svg">
<g clip-path="url(#clip0_440_1368)">
<rect width="24" height="24" rx="2" fill="#D74B4B"/>
<path d="M0 16H24V24H0V16Z" fill="#3FB47C"/>
<path d="M0 0H24V8H0V0Z" fill="#64BEDB"/>
<path fill-rule="evenodd" clip-rule="evenodd" d="M12.086 8.75722C12.8957 8.75722 13.636 9.05394 14.2042 9.54456C13.4723 8.6046 12.3299 8 11.0464 8C8.83722 8 7.04636 9.79086 7.04636 12C7.04636 14.2091 8.83722 16 11.0464 16C12.3297 16 13.472 15.3956 14.2039 14.4559C13.6357 14.9463 12.8955 15.2429 12.086 15.2429C10.295 15.2429 8.84316 13.7911 8.84316 12.0001C8.84316 10.2091 10.295 8.75722 12.086 8.75722ZM15.9655 11.9063L16.9252 11.1022L15.6828 11.2572L15.7928 10.0099L15.0239 10.9981L14.2197 10.0384L14.3748 11.2808L13.1275 11.1708L14.1157 11.9397L13.1559 12.7439L14.3984 12.5888L14.2884 13.8361L15.0573 12.8479L15.8614 13.8077L15.7064 12.5652L16.9536 12.6752L15.9655 11.9063Z" fill="#F9F9F9"/>
</g>
<defs>
<clipPath id="clip0_440_1368">
<rect width="24" height="24" rx="2" fill="white"/>
</clipPath>
</defs>
</svg>
