<svg width="32" height="24" viewBox="0 0 32 24" fill="none" xmlns="http://www.w3.org/2000/svg">
<g clip-path="url(#clip0_440_1387)">
<rect width="32" height="24" rx="2" fill="#D74B4B"/>
<path d="M0 16H32V24H0V16Z" fill="#3FB47C"/>
<path d="M0 0H32V8H0V0Z" fill="#64BEDB"/>
<path fill-rule="evenodd" clip-rule="evenodd" d="M16.086 8.75722C16.8957 8.75722 17.636 9.05394 18.2042 9.54456C17.4723 8.6046 16.3299 8 15.0464 8C12.8372 8 11.0464 9.79086 11.0464 12C11.0464 14.2091 12.8372 16 15.0464 16C16.3297 16 17.472 15.3956 18.2039 14.4559C17.6357 14.9463 16.8955 15.2429 16.086 15.2429C14.295 15.2429 12.8432 13.7911 12.8432 12.0001C12.8432 10.2091 14.295 8.75722 16.086 8.75722ZM19.9655 11.9063L20.9252 11.1022L19.6828 11.2572L19.7928 10.0099L19.0239 10.9981L18.2197 10.0384L18.3748 11.2808L17.1275 11.1708L18.1157 11.9397L17.1559 12.7439L18.3984 12.5888L18.2884 13.8361L19.0573 12.8479L19.8614 13.8077L19.7064 12.5652L20.9536 12.6752L19.9655 11.9063Z" fill="#F9F9F9"/>
</g>
<defs>
<clipPath id="clip0_440_1387">
<rect width="32" height="24" rx="2" fill="white"/>
</clipPath>
</defs>
</svg>
