<svg width="24" height="24" viewBox="0 0 24 24" fill="none" xmlns="http://www.w3.org/2000/svg">
<g clip-path="url(#clip0_440_1397)">
<rect width="24" height="24" rx="2" fill="#E77D42"/>
<path d="M24 0H0V24L24 0Z" fill="#F8D74C"/>
<path fill-rule="evenodd" clip-rule="evenodd" d="M12.5593 4.80664L13.8593 6.17521L12.1346 5.46635L13.2984 6.69151L11.6515 7.37897L13.2992 7.4213L11.6515 8.1091L13.1629 8.14792L11.6515 8.77884L13.3208 8.82171L11.6515 9.51855L13.457 9.56493V11.0865H9.20775C8.70823 11.0865 8.2495 11.3623 8.01515 11.8034L6.01609 15.5663H4V18.2672H6.82785C7.32737 18.2672 7.7861 17.9915 8.02045 17.5503L8.69622 16.2783L9.45202 16.8348L11.0535 14.6599L9.97707 13.8673L10.0195 13.7874H12.8131V14.4248C12.8131 14.7914 12.9622 15.1423 13.2261 15.3969L14.7941 16.9088L16.6688 14.9646L15.514 13.8509V13.5881C15.9003 13.3505 16.158 12.9238 16.158 12.437V12.1913H16.3531L18.0376 13.7392L19.8651 11.7505L17.7931 9.84651C17.5439 9.61751 17.2178 9.49043 16.8794 9.49043H16.158V8.7197H18.0035L19.0063 9.51778L20.6882 7.40447L19.3163 6.31259C19.0773 6.12236 18.7808 6.01879 18.4753 6.01879H16.9018L13.9525 4.80664L14.8449 5.74601L12.5593 4.80664Z" fill="#F9F9F9"/>
</g>
<defs>
<clipPath id="clip0_440_1397">
<rect width="24" height="24" rx="2" fill="white"/>
</clipPath>
</defs>
</svg>
