<svg width="32" height="24" viewBox="0 0 32 24" fill="none" xmlns="http://www.w3.org/2000/svg">
<g clip-path="url(#clip0_440_1400)">
<rect width="32" height="24" rx="2" fill="#E77D42"/>
<path d="M32 0H0V24L32 0Z" fill="#F8D74C"/>
<path fill-rule="evenodd" clip-rule="evenodd" d="M16.5851 4.50928L18.0408 6.04178L16.1094 5.24799L17.4127 6.61996L15.5685 7.3898L17.4136 7.4372L15.5685 8.20742L17.2612 8.2509L15.5685 8.95748L17.4382 9.00551L15.5685 9.786L17.5904 9.83794V11.5417H12.8319C12.2725 11.5417 11.7588 11.8505 11.4963 12.3445L9.2577 16.5583H7V19.5829H10.1667C10.7261 19.5829 11.2398 19.2742 11.5023 18.7802L12.259 17.3558L13.1054 17.9791L14.8988 15.5435L13.6933 14.6559L13.7409 14.5663H16.8693V15.2801C16.8693 15.6907 17.0363 16.0837 17.3318 16.3687L19.0877 18.0619L21.1872 15.8846L19.8939 14.6375V14.3431C20.3265 14.077 20.615 13.5992 20.615 13.054V12.779H20.8336L22.7199 14.5124L24.7664 12.2853L22.4462 10.1532C22.1671 9.89674 21.8019 9.75443 21.4229 9.75443H20.615V8.89121H22.6818L23.8048 9.78494L25.6882 7.41836L24.1519 6.19562C23.8842 5.98259 23.5522 5.86661 23.2101 5.86661H21.4476L18.1453 4.50938L19.1444 5.56114L16.5851 4.50928Z" fill="#F9F9F9"/>
</g>
<defs>
<clipPath id="clip0_440_1400">
<rect width="32" height="24" rx="2" fill="white"/>
</clipPath>
</defs>
</svg>
