<svg width="32" height="24" viewBox="0 0 32 24" fill="none" xmlns="http://www.w3.org/2000/svg">
<rect width="32" height="24" rx="2" fill="#F8D74C"/>
<path d="M0 3.07495L32 11.075V15.9661L0 7.96607V3.07495Z" fill="#F9F9F9"/>
<path d="M0 3.07495L32 11.075V15.9661L0 7.96607V3.07495Z" fill="#F9F9F9"/>
<path d="M0 7.9646L32 15.9646V20.8557L0 12.8557V7.9646Z" fill="#333333"/>
<path d="M0 7.9646L32 15.9646V20.8557L0 12.8557V7.9646Z" fill="#333333"/>
<path fill-rule="evenodd" clip-rule="evenodd" d="M15.875 4.99536C15.875 4.92633 15.931 4.87036 16 4.87036C16.069 4.87036 16.125 4.92633 16.125 4.99536V5.06665H17.229L16.7492 5.55103L17.2382 6.0354H16.125V6.771H16.7668L17.4993 7.73975H17.1245C17.1245 7.73975 16.896 7.5509 16.7497 7.5509C16.6033 7.5509 16.3748 7.73975 16.3748 7.73975C16.3748 7.73975 16.2495 7.63613 16.125 7.5824V8.89714C16.5694 8.44611 17.4407 7.93962 18.1875 8.75426C19.0125 9.65426 20.0104 9.42093 20.4062 9.19176C19.5611 10.7343 17.7485 11.2245 16.5724 11.3079V15.905C18.6468 15.6217 20.25 13.7314 20.25 11.4417C20.25 11.1566 20.2252 10.8778 20.1776 10.6074C20.5231 11.3042 20.7188 12.0986 20.7188 12.9417C20.7188 15.2319 19.2752 17.1624 17.3057 17.7546H20.6094V19.1296H11.4531V17.7546H14.7568C12.7873 17.1624 11.3438 15.2319 11.3438 12.9417C11.3438 12.0986 11.5394 11.3042 11.8849 10.6074C11.8373 10.8778 11.8125 11.1566 11.8125 11.4417C11.8125 13.7314 13.4157 15.6217 15.4901 15.905V11.3119C14.3166 11.2417 12.4541 10.7619 11.5938 9.19176C11.9896 9.42093 12.9875 9.65426 13.8125 8.75426C14.5593 7.93962 15.4306 8.44611 15.875 8.89714V7.5824C15.7505 7.63613 15.6252 7.73975 15.6252 7.73975L15.2503 7.5509L14.8755 7.73975H14.5007L15.2332 6.771H15.875V4.99536ZM8.84375 12.5443V16.4417H10.2188V11.9417L10.2188 11.9416L8.32765 10.1274L6.21875 10.1274L8.84375 12.5443ZM21.7812 11.9416L21.7812 11.9417V16.4417H23.1562V12.5443L25.7812 10.1274L23.6723 10.1274L21.7812 11.9416Z" fill="#D74B4B"/>
</svg>
