<svg width="24" height="24" viewBox="0 0 24 24" fill="none" xmlns="http://www.w3.org/2000/svg">
<rect width="24" height="24" rx="12" fill="#F8D74C"/>
<path d="M0 3.07495L24 11.075V15.9661L0 7.96607V3.07495Z" fill="#F9F9F9"/>
<path d="M0 3.07495L24 11.075V15.9661L0 7.96607V3.07495Z" fill="#F9F9F9"/>
<path d="M0 7.9646L24 15.9646V20.8557L0 12.8557V7.9646Z" fill="#333333"/>
<path d="M0 7.9646L24 15.9646V20.8557L0 12.8557V7.9646Z" fill="#333333"/>
<path fill-rule="evenodd" clip-rule="evenodd" d="M11.9052 6.6871C11.9052 6.63473 11.9477 6.59229 12 6.59229C12.0524 6.59229 12.0949 6.63473 12.0949 6.6871V6.74117H12.9321L12.5683 7.10853L12.9393 7.47597H12.0949V8.03392H12.5817L13.1373 8.76872H12.853C12.853 8.76872 12.6797 8.62548 12.5687 8.62548C12.4576 8.62548 12.2844 8.76872 12.2844 8.76872C12.2844 8.76872 12.1893 8.69013 12.0949 8.64937V9.64661C12.4319 9.3045 13.0928 8.92033 13.6593 9.53823C14.285 10.2209 15.042 10.0439 15.3422 9.87008C14.7011 11.0401 13.3263 11.4119 12.4342 11.4751V14.9621C14.0076 14.7472 15.2237 13.3134 15.2237 11.5766C15.2237 11.3604 15.2048 11.1489 15.1688 10.9439C15.4308 11.4724 15.5792 12.0749 15.5792 12.7144C15.5792 14.4515 14.4843 15.9159 12.9904 16.365H15.4963V17.408H8.55122V16.365H11.057C9.56318 15.9159 8.46826 14.4515 8.46826 12.7144C8.46826 12.0749 8.61664 11.4724 8.87869 10.9439C8.84265 11.1489 8.82381 11.3604 8.82381 11.5766C8.82381 13.3134 10.0399 14.7472 11.6133 14.9621V11.4782C10.7232 11.425 9.31043 11.061 8.65789 9.87008C8.95813 10.0439 9.71505 10.2209 10.3408 9.53823C10.9072 8.92033 11.5682 9.3045 11.9052 9.64661V8.64938C11.8108 8.69013 11.7157 8.76872 11.7157 8.76872L11.4314 8.62548L11.1471 8.76872H10.8628L11.4184 8.03392H11.9052V6.6871ZM6.572 12.413V15.3691H7.61494V11.9559L7.61495 11.9559L6.18054 10.5798L4.58093 10.5798L6.572 12.413ZM16.3851 11.9559L16.3851 11.9559V15.3691H17.4281V12.413L19.4191 10.5798L17.8195 10.5798L16.3851 11.9559Z" fill="#D74B4B"/>
</svg>
