<svg width="24" height="24" viewBox="0 0 24 24" fill="none" xmlns="http://www.w3.org/2000/svg">
<g clip-path="url(#clip0_440_1367)">
<rect width="24" height="24" rx="12" fill="#D74B4B"/>
<path d="M0 0H24V6H0V0Z" fill="#485CC2"/>
<path d="M0 18H24V24H0V18Z" fill="#485CC2"/>
<path fill-rule="evenodd" clip-rule="evenodd" d="M13.2168 11.0775H13.5704V11.7492H15.0718V11.0775H16.7985V11.7492H17.1354V13.952H7.04561V11.7492H7.41461V11.0775H9.14127V11.7492H10.774V11.0775H11.0485L12.1505 8.49658L13.2168 11.0775ZM8.24037 9.38837L7.65855 11.0774H8.8034L8.24037 9.38837ZM18.7877 15.0401L18.3187 15.0401V14.4962L17.9058 14.4962V13.9522H6.28853V14.4962H5.86219V15.0401H5.54315V15.5841H18.7877V15.0401ZM15.3628 11.0774L15.9446 9.38837L16.5076 11.0774H15.3628Z" fill="#F9F9F9"/>
</g>
<defs>
<clipPath id="clip0_440_1367">
<rect width="24" height="24" rx="12" fill="white"/>
</clipPath>
</defs>
</svg>
