<svg width="32" height="24" viewBox="0 0 32 24" fill="none" xmlns="http://www.w3.org/2000/svg">
<rect width="32" height="24" rx="2" fill="#D74B4B"/>
<path d="M6.5 5L7.32624 7.67376H10L7.83688 9.32624L8.66312 12L6.5 10.3475L4.33688 12L5.16312 9.32624L3 7.67376H5.67376L6.5 5Z" fill="#F8D74C"/>
<path d="M13.5518 3.84683L13.5197 3L13.0685 3.71732L12.2864 3.50776L12.7896 4.16065L12.3383 4.87797L13.1006 4.56415L13.6038 5.21704L13.5717 4.37021L14.3339 4.05639L13.5518 3.84683Z" fill="#F8D74C"/>
<path d="M13.5872 13.9944L14.1633 13.3729L13.337 13.561L12.9321 12.8598L12.8263 13.6773L12 13.8654L12.7609 14.1825L12.655 15L13.2311 14.3785L13.992 14.6956L13.5872 13.9944Z" fill="#F8D74C"/>
<path d="M14.8352 6.28535L15.4567 6.86144L16.1579 6.45661L15.8408 7.21749L16.4623 7.79358L15.6449 7.68774L15.3278 8.44861L15.1396 7.62232L14.3222 7.51648L15.0233 7.11164L14.8352 6.28535Z" fill="#F8D74C"/>
<path d="M15.719 10.383L16.1146 9.63357L15.3651 10.0292L14.7926 9.45665L14.902 10.2737L14.1525 10.6693L14.9695 10.7786L15.0789 11.5956L15.4745 10.8462L16.2915 10.9555L15.719 10.383Z" fill="#F8D74C"/>
</svg>
