<svg width="32" height="24" viewBox="0 0 32 24" fill="none" xmlns="http://www.w3.org/2000/svg">
<rect width="32" height="24" rx="2" fill="#F9F9F9"/>
<path d="M10.5802 13.8325C8.51556 13.8325 7.99939 11.4992 7.99939 10.3325L8.51556 9.83252V8.83252H11.6126V6.83252H12.6449L13.6772 7.83252H16.7742L22.9683 4.83252H24.0006V5.83252L18.8389 8.33252L20.3874 9.83252V10.8325H17.8066C17.8066 12.4325 15.0537 12.8325 13.6772 12.8325V14.8325H12.6449L12.1287 13.8325H10.5802Z" fill="#E77D42"/>
<path d="M9.34926 14.1577L8.95845 14.1091L8.90177 14.4988C8.8217 15.0494 9.20639 15.5595 9.75776 15.6338L10.1624 15.6884L10.217 15.2837C10.2914 14.7323 9.90137 14.2263 9.34926 14.1577Z" fill="#3FB47C"/>
<path d="M11.1873 14.9257L10.7965 14.8772L10.7398 15.2669C10.6597 15.8175 11.0444 16.3275 11.5958 16.4019L12.0005 16.4564L12.0551 16.0517C12.1294 15.5004 11.7394 14.9943 11.1873 14.9257Z" fill="#3FB47C"/>
<path d="M13.0254 15.6938L12.6345 15.6452L12.5779 16.0349C12.4978 16.5855 12.8825 17.0955 13.4339 17.1699L13.8385 17.2244L13.8931 16.8197C13.9674 16.2684 13.5775 15.7623 13.0254 15.6938Z" fill="#3FB47C"/>
<path d="M14.8634 16.4618L14.4726 16.4133L14.4159 16.803C14.3358 17.3535 14.7205 17.8636 15.2719 17.9379L15.6766 17.9925L15.7312 17.5878C15.8055 17.0364 15.4155 16.5304 14.8634 16.4618Z" fill="#3FB47C"/>
<path d="M8.23684 16.0902L7.99939 16.4044L8.30855 16.6483C8.74532 16.993 9.37939 16.9149 9.71945 16.4745L9.96904 16.1513L9.64585 15.9017C9.20552 15.5617 8.57229 15.6464 8.23684 16.0902Z" fill="#3FB47C"/>
<path d="M10.0749 16.8583L9.83744 17.1725L10.1466 17.4164C10.5834 17.761 11.2174 17.6829 11.5575 17.2426L11.8071 16.9194L11.4839 16.6698C11.0436 16.3297 10.4103 16.4144 10.0749 16.8583Z" fill="#3FB47C"/>
<path d="M11.9129 17.6263L11.6755 17.9405L11.9846 18.1844C12.4214 18.529 13.0555 18.4509 13.3955 18.0106L13.6451 17.6874L13.3219 17.4378C12.8816 17.0977 12.2484 17.1824 11.9129 17.6263Z" fill="#3FB47C"/>
<path d="M13.751 18.3944L13.5135 18.7085L13.8227 18.9525C14.2595 19.2971 14.8935 19.219 15.2336 18.7787L15.4832 18.4555L15.16 18.2059C14.7197 17.8658 14.0864 17.9505 13.751 18.3944Z" fill="#3FB47C"/>
<path d="M22.6416 14.1577L23.0324 14.1091L23.0891 14.4988C23.1692 15.0494 22.7845 15.5595 22.2331 15.6338L21.8284 15.6884L21.7738 15.2837C21.6995 14.7323 22.0895 14.2263 22.6416 14.1577Z" fill="#3FB47C"/>
<path d="M20.8036 14.9257L21.1944 14.8772L21.251 15.2669C21.3311 15.8175 20.9464 16.3275 20.3951 16.4019L19.9904 16.4564L19.9358 16.0517C19.8615 15.5004 20.2514 14.9943 20.8036 14.9257Z" fill="#3FB47C"/>
<path d="M18.9655 15.6938L19.3563 15.6452L19.413 16.0349C19.4931 16.5855 19.1084 17.0955 18.557 17.1699L18.1523 17.2244L18.0977 16.8197C18.0234 16.2684 18.4134 15.7623 18.9655 15.6938Z" fill="#3FB47C"/>
<path d="M17.1275 16.4618L17.5183 16.4133L17.5749 16.803C17.655 17.3535 17.2703 17.8636 16.7189 17.9379L16.3143 17.9925L16.2597 17.5878C16.1854 17.0364 16.5753 16.5304 17.1275 16.4618Z" fill="#3FB47C"/>
<path d="M23.754 16.0902L23.9915 16.4044L23.6823 16.6483C23.2455 16.993 22.6115 16.9149 22.2714 16.4745L22.0218 16.1513L22.345 15.9017C22.7853 15.5617 23.4186 15.6464 23.754 16.0902Z" fill="#3FB47C"/>
<path d="M21.916 16.8583L22.1534 17.1725L21.8443 17.4164C21.4075 17.761 20.7734 17.6829 20.4334 17.2426L20.1838 16.9194L20.507 16.6698C20.9473 16.3297 21.5805 16.4144 21.916 16.8583Z" fill="#3FB47C"/>
<path d="M20.0779 17.6263L20.3154 17.9405L20.0062 18.1844C19.5694 18.529 18.9354 18.4509 18.5953 18.0106L18.3457 17.6874L18.6689 17.4378C19.1092 17.0977 19.7425 17.1824 20.0779 17.6263Z" fill="#3FB47C"/>
<path d="M18.2399 18.3944L18.4773 18.7085L18.1682 18.9525C17.7314 19.2971 17.0973 19.219 16.7573 18.7787L16.5077 18.4555L16.8309 18.2059C17.2712 17.8658 17.9044 17.9505 18.2399 18.3944Z" fill="#3FB47C"/>
</svg>
