<svg width="24" height="24" viewBox="0 0 24 24" fill="none" xmlns="http://www.w3.org/2000/svg">
<rect width="24" height="24" rx="12" fill="#F9F9F9"/>
<path d="M6.58023 13.8325C4.51556 13.8325 3.99939 11.4992 3.99939 10.3325L4.51556 9.83252V8.83252H7.61257V6.83252H8.6449L9.67724 7.83252H12.7742L18.9683 4.83252H20.0006V5.83252L14.8389 8.33252L16.3874 9.83252V10.8325H13.8066C13.8066 12.4325 11.0537 12.8325 9.67724 12.8325V14.8325H8.6449L8.12873 13.8325H6.58023Z" fill="#E77D42"/>
<path d="M5.34926 14.1577L4.95845 14.1091L4.90177 14.4988C4.8217 15.0494 5.20639 15.5595 5.75776 15.6338L6.16245 15.6884L6.21701 15.2837C6.29135 14.7323 5.90137 14.2263 5.34926 14.1577Z" fill="#3FB47C"/>
<path d="M7.1873 14.9257L6.79649 14.8772L6.73981 15.2669C6.65974 15.8175 7.04443 16.3275 7.5958 16.4019L8.00049 16.4564L8.05505 16.0517C8.12939 15.5004 7.73942 14.9943 7.1873 14.9257Z" fill="#3FB47C"/>
<path d="M9.02535 15.6938L8.63454 15.6452L8.57787 16.0349C8.49779 16.5855 8.88248 17.0955 9.43385 17.1699L9.83854 17.2244L9.8931 16.8197C9.96744 16.2684 9.57747 15.7623 9.02535 15.6938Z" fill="#3FB47C"/>
<path d="M10.8634 16.4618L10.4726 16.4133L10.4159 16.803C10.3358 17.3535 10.7205 17.8636 11.2719 17.9379L11.6766 17.9925L11.7312 17.5878C11.8055 17.0364 11.4155 16.5304 10.8634 16.4618Z" fill="#3FB47C"/>
<path d="M4.23684 16.0902L3.99939 16.4044L4.30855 16.6483C4.74532 16.993 5.37939 16.9149 5.71945 16.4745L5.96904 16.1513L5.64585 15.9017C5.20552 15.5617 4.57229 15.6464 4.23684 16.0902Z" fill="#3FB47C"/>
<path d="M6.07489 16.8583L5.83744 17.1725L6.1466 17.4164C6.58337 17.761 7.21744 17.6829 7.5575 17.2426L7.80709 16.9194L7.4839 16.6698C7.04357 16.3297 6.41034 16.4144 6.07489 16.8583Z" fill="#3FB47C"/>
<path d="M7.91293 17.6263L7.67548 17.9405L7.98464 18.1844C8.42141 18.529 9.05548 18.4509 9.39554 18.0106L9.64513 17.6874L9.32195 17.4378C8.88161 17.0977 8.24839 17.1824 7.91293 17.6263Z" fill="#3FB47C"/>
<path d="M9.75098 18.3944L9.51353 18.7085L9.82269 18.9525C10.2595 19.2971 10.8935 19.219 11.2336 18.7787L11.4832 18.4555L11.16 18.2059C10.7197 17.8658 10.0864 17.9505 9.75098 18.3944Z" fill="#3FB47C"/>
<path d="M18.6416 14.1577L19.0324 14.1091L19.0891 14.4988C19.1692 15.0494 18.7845 15.5595 18.2331 15.6338L17.8284 15.6884L17.7738 15.2837C17.6995 14.7323 18.0895 14.2263 18.6416 14.1577Z" fill="#3FB47C"/>
<path d="M16.8036 14.9257L17.1944 14.8772L17.251 15.2669C17.3311 15.8175 16.9464 16.3275 16.3951 16.4019L15.9904 16.4564L15.9358 16.0517C15.8615 15.5004 16.2514 14.9943 16.8036 14.9257Z" fill="#3FB47C"/>
<path d="M14.9655 15.6938L15.3563 15.6452L15.413 16.0349C15.4931 16.5855 15.1084 17.0955 14.557 17.1699L14.1523 17.2244L14.0977 16.8197C14.0234 16.2684 14.4134 15.7623 14.9655 15.6938Z" fill="#3FB47C"/>
<path d="M13.1275 16.4618L13.5183 16.4133L13.5749 16.803C13.655 17.3535 13.2703 17.8636 12.7189 17.9379L12.3143 17.9925L12.2597 17.5878C12.1854 17.0364 12.5753 16.5304 13.1275 16.4618Z" fill="#3FB47C"/>
<path d="M19.754 16.0902L19.9915 16.4044L19.6823 16.6483C19.2455 16.993 18.6115 16.9149 18.2714 16.4745L18.0218 16.1513L18.345 15.9017C18.7853 15.5617 19.4186 15.6464 19.754 16.0902Z" fill="#3FB47C"/>
<path d="M17.916 16.8583L18.1534 17.1725L17.8443 17.4164C17.4075 17.761 16.7734 17.6829 16.4334 17.2426L16.1838 16.9194L16.507 16.6698C16.9473 16.3297 17.5805 16.4144 17.916 16.8583Z" fill="#3FB47C"/>
<path d="M16.0779 17.6263L16.3154 17.9405L16.0062 18.1844C15.5694 18.529 14.9354 18.4509 14.5953 18.0106L14.3457 17.6874L14.6689 17.4378C15.1092 17.0977 15.7425 17.1824 16.0779 17.6263Z" fill="#3FB47C"/>
<path d="M14.2399 18.3944L14.4773 18.7085L14.1682 18.9525C13.7314 19.2971 13.0973 19.219 12.7573 18.7787L12.5077 18.4555L12.8309 18.2059C13.2712 17.8658 13.9044 17.9505 14.2399 18.3944Z" fill="#3FB47C"/>
</svg>
