<svg width="32" height="24" viewBox="0 0 32 24" fill="none" xmlns="http://www.w3.org/2000/svg">
<g clip-path="url(#clip0_440_1356)">
<rect width="32" height="24" rx="2" fill="#F9F9F9"/>
<path d="M0 16H32V24H0V16Z" fill="#3FB47C"/>
<path d="M0 0H32V8H0V0Z" fill="#E77D42"/>
<path d="M16 10L16.0893 11.3219L16.5176 10.0681L16.2618 11.3681L17 10.2679L16.4164 11.4573L17.4142 10.5858L16.5427 11.5836L17.7321 11L16.6319 11.7382L17.9319 11.4824L16.6781 11.9107L18 12L16.6781 12.0893L17.9319 12.5176L16.6319 12.2618L17.7321 13L16.5427 12.4164L17.4142 13.4142L16.4164 12.5427L17 13.7321L16.2618 12.6319L16.5176 13.9319L16.0893 12.6781L16 14L15.9107 12.6781L15.4824 13.9319L15.7382 12.6319L15 13.7321L15.5836 12.5427L14.5858 13.4142L15.4573 12.4164L14.2679 13L15.3681 12.2618L14.0681 12.5176L15.3219 12.0893L14 12L15.3219 11.9107L14.0681 11.4824L15.3681 11.7382L14.2679 11L15.4573 11.5836L14.5858 10.5858L15.5836 11.4573L15 10.2679L15.7382 11.3681L15.4824 10.0681L15.9107 11.3219L16 10Z" fill="#485CC2"/>
<path fill-rule="evenodd" clip-rule="evenodd" d="M16 14.6C17.4359 14.6 18.6 13.4359 18.6 12C18.6 10.5641 17.4359 9.4 16 9.4C14.5641 9.4 13.4 10.5641 13.4 12C13.4 13.4359 14.5641 14.6 16 14.6ZM16 15C17.6569 15 19 13.6569 19 12C19 10.3431 17.6569 9 16 9C14.3431 9 13 10.3431 13 12C13 13.6569 14.3431 15 16 15Z" fill="#485CC2"/>
</g>
<defs>
<clipPath id="clip0_440_1356">
<rect width="32" height="24" rx="2" fill="white"/>
</clipPath>
</defs>
</svg>
