<svg width="24" height="24" viewBox="0 0 24 24" fill="none" xmlns="http://www.w3.org/2000/svg">
<g clip-path="url(#clip0_440_1398)">
<rect width="24" height="24" rx="2" fill="#F9F9F9"/>
<path d="M0 16H24V24H0V16Z" fill="#3FB47C"/>
<path d="M0 0H24V8H0V0Z" fill="#E77D42"/>
<path d="M12 10L12.0893 11.3219L12.5176 10.0681L12.2618 11.3681L13 10.2679L12.4164 11.4573L13.4142 10.5858L12.5427 11.5836L13.7321 11L12.6319 11.7382L13.9319 11.4824L12.6781 11.9107L14 12L12.6781 12.0893L13.9319 12.5176L12.6319 12.2618L13.7321 13L12.5427 12.4164L13.4142 13.4142L12.4164 12.5427L13 13.7321L12.2618 12.6319L12.5176 13.9319L12.0893 12.6781L12 14L11.9107 12.6781L11.4824 13.9319L11.7382 12.6319L11 13.7321L11.5836 12.5427L10.5858 13.4142L11.4573 12.4164L10.2679 13L11.3681 12.2618L10.0681 12.5176L11.3219 12.0893L10 12L11.3219 11.9107L10.0681 11.4824L11.3681 11.7382L10.2679 11L11.4573 11.5836L10.5858 10.5858L11.5836 11.4573L11 10.2679L11.7382 11.3681L11.4824 10.0681L11.9107 11.3219L12 10Z" fill="#485CC2"/>
<path fill-rule="evenodd" clip-rule="evenodd" d="M12 14.6C13.4359 14.6 14.6 13.4359 14.6 12C14.6 10.5641 13.4359 9.4 12 9.4C10.5641 9.4 9.4 10.5641 9.4 12C9.4 13.4359 10.5641 14.6 12 14.6ZM12 15C13.6569 15 15 13.6569 15 12C15 10.3431 13.6569 9 12 9C10.3431 9 9 10.3431 9 12C9 13.6569 10.3431 15 12 15Z" fill="#485CC2"/>
</g>
<defs>
<clipPath id="clip0_440_1398">
<rect width="24" height="24" rx="2" fill="white"/>
</clipPath>
</defs>
</svg>
