<svg width="24" height="24" viewBox="0 0 24 24" fill="none" xmlns="http://www.w3.org/2000/svg">
<g clip-path="url(#clip0_440_1388)">
<rect width="24" height="24" rx="12" fill="#F9F9F9"/>
<path d="M0 16H24V24H0V16Z" fill="#D74B4B"/>
<path d="M0 0H24V8H0V0Z" fill="#3FB47C"/>
<path fill-rule="evenodd" clip-rule="evenodd" d="M11.8226 9.10086C11.8491 9.15043 11.884 9.19484 11.9254 9.23221C11.9667 9.19484 12.0016 9.15043 12.0281 9.10087C12.0302 9.11922 12.0313 9.13789 12.0313 9.1568C12.0313 9.2046 12.0244 9.25077 12.0115 9.29438C12.0819 9.33427 12.1632 9.35703 12.2499 9.35703C12.4984 9.35703 12.7032 9.16981 12.7309 8.92871C12.7673 8.99668 12.7879 9.07433 12.7879 9.1568C12.7879 9.42425 12.5711 9.64106 12.3037 9.64106C12.1506 9.64106 12.0141 9.57003 11.9254 9.45914C11.8366 9.57003 11.7001 9.64106 11.547 9.64106C11.2796 9.64106 11.0628 9.42425 11.0628 9.1568C11.0628 9.07434 11.0834 8.99668 11.1198 8.92872C11.1475 9.16982 11.3523 9.35704 11.6008 9.35704C11.6875 9.35704 11.7688 9.33427 11.8392 9.29439C11.8263 9.25077 11.8194 9.20459 11.8194 9.1568C11.8194 9.13788 11.8205 9.11922 11.8226 9.10086ZM13.4692 14.5527C13.6563 14.5527 13.8395 14.5357 14.0172 14.5031C13.6591 14.6644 13.2618 14.7542 12.8436 14.7542C12.6758 14.7542 12.5114 14.7397 12.3515 14.712V14.7542L11.9845 15.0711L11.6008 14.7542V14.7198C11.456 14.7424 11.3075 14.7542 11.1563 14.7542C10.7381 14.7542 10.3408 14.6644 9.9827 14.5031C10.1604 14.5357 10.3436 14.5527 10.5308 14.5527C10.8588 14.5527 11.1747 14.5004 11.4704 14.4037C10.5838 13.9177 9.9827 12.9757 9.9827 11.8933C9.9827 10.9348 10.4541 10.0864 11.1776 9.56722C10.7239 10.0955 10.4498 10.7824 10.4498 11.5334C10.4498 12.4955 10.8998 13.3525 11.6008 13.9054V9.93317V9.89981H11.6412L11.9845 9.61622L12.3129 9.89981H12.3515V9.93317V13.9422C13.0797 13.391 13.5501 12.5171 13.5501 11.5334C13.5501 10.7824 13.276 10.0955 12.8223 9.56722C13.5459 10.0864 14.0172 10.9348 14.0172 11.8933C14.0172 12.9757 13.4161 13.9177 12.5295 14.4037C12.8253 14.5004 13.1411 14.5527 13.4692 14.5527ZM8.83167 12.0249C8.83167 10.8125 9.7274 9.80936 10.8932 9.64106C10.0224 10.1437 9.43629 11.0845 9.43629 12.1622C9.43629 12.9826 9.7759 13.7237 10.3222 14.2525C9.44736 13.8915 8.83167 13.0301 8.83167 12.0249ZM13.1067 9.64106C14.2725 9.80936 15.1683 10.8125 15.1683 12.0249C15.1683 13.0301 14.5526 13.8915 13.6777 14.2525C14.224 13.7237 14.5636 12.9826 14.5636 12.1622C14.5636 11.0845 13.9776 10.1437 13.1067 9.64106Z" fill="#D74B4B"/>
<path fill-rule="evenodd" clip-rule="evenodd" d="M2.11183 6.46436H0V6.78098H2.11183V6.46436ZM0 7.07381V7.99989H0.239076L0.239076 7.39043H0.998489L0.998488 7.9999H2.11183L2.11183 7.07381H1.42136V7.39043H1.87276V7.68327H1.23756V7.07381H0ZM0.738321 7.9999V7.68327H0.499247V7.9999H0.738321Z" fill="#F9F9F9"/>
<path fill-rule="evenodd" clip-rule="evenodd" d="M2.11183 15.9999H0V16.3165H2.11183V15.9999ZM0 16.6093V17.5354H0.239076L0.239076 16.926H0.998489L0.998488 17.5354H2.11183L2.11183 16.6093H1.42136V16.926H1.87276V17.2188H1.23756V16.6093H0ZM0.738321 17.5354V17.2188H0.499247V17.5354H0.738321Z" fill="#F9F9F9"/>
<path fill-rule="evenodd" clip-rule="evenodd" d="M4.54406 6.46436H2.43223V6.78098H4.54406V6.46436ZM2.43223 7.07381V7.99989H2.6713V7.39043H3.43072L3.43071 7.9999H4.54405V7.07381H3.85358V7.39043H4.30498V7.68327H3.66979V7.07381H2.43223ZM3.17054 7.9999V7.68327H2.93147V7.9999H3.17054Z" fill="#F9F9F9"/>
<path fill-rule="evenodd" clip-rule="evenodd" d="M4.54406 15.9999H2.43223V16.3165H4.54406V15.9999ZM2.43223 16.6093V17.5354H2.6713V16.926H3.43072L3.43071 17.5354H4.54405V16.6093H3.85358V16.926H4.30498V17.2188H3.66979V16.6093H2.43223ZM3.17054 17.5354V17.2188H2.93147V17.5354H3.17054Z" fill="#F9F9F9"/>
<path fill-rule="evenodd" clip-rule="evenodd" d="M6.97604 6.46436H4.86421V6.78098H6.97604V6.46436ZM4.86421 7.07381L4.86421 7.99989H5.10328V7.39043H5.8627L5.8627 7.9999H6.97604V7.07381H6.28556V7.39043H6.73696V7.68327H6.10177V7.07381H4.86421ZM5.60253 7.9999V7.68327H5.36345V7.9999H5.60253Z" fill="#F9F9F9"/>
<path fill-rule="evenodd" clip-rule="evenodd" d="M6.97604 15.9999H4.86421V16.3165H6.97604V15.9999ZM4.86421 16.6093L4.86421 17.5354H5.10328V16.926H5.8627L5.8627 17.5354H6.97604V16.6093H6.28556V16.926H6.73696V17.2188H6.10177V16.6093H4.86421ZM5.60253 17.5354V17.2188H5.36345V17.5354H5.60253Z" fill="#F9F9F9"/>
<path fill-rule="evenodd" clip-rule="evenodd" d="M9.40802 6.46436H7.29619V6.78098H9.40802V6.46436ZM7.29619 7.07381V7.99989H7.53526V7.39043H8.29467L8.29467 7.9999H9.40801V7.07381H8.71754V7.39043H9.16894V7.68327H8.53375V7.07381H7.29619ZM8.03451 7.9999V7.68327H7.79543V7.9999H8.03451Z" fill="#F9F9F9"/>
<path fill-rule="evenodd" clip-rule="evenodd" d="M9.40802 15.9999H7.29619V16.3165H9.40802V15.9999ZM7.29619 16.6093V17.5354H7.53526V16.926H8.29467L8.29467 17.5354H9.40801V16.6093H8.71754V16.926H9.16894V17.2188H8.53375V16.6093H7.29619ZM8.03451 17.5354V17.2188H7.79543V17.5354H8.03451Z" fill="#F9F9F9"/>
<path fill-rule="evenodd" clip-rule="evenodd" d="M11.84 6.46436H9.72816V6.78098H11.84V6.46436ZM9.72816 7.07381V7.99989H9.96724V7.39043H10.7267L10.7267 7.9999H11.84V7.07381H11.1495V7.39043H11.6009V7.68327H10.9657V7.07381H9.72816ZM10.4665 7.9999V7.68327H10.2274V7.9999H10.4665Z" fill="#F9F9F9"/>
<path fill-rule="evenodd" clip-rule="evenodd" d="M11.84 15.9999H9.72816V16.3165H11.84V15.9999ZM9.72816 16.6093V17.5354H9.96724V16.926H10.7267L10.7267 17.5354H11.84V16.6093H11.1495V16.926H11.6009V17.2188H10.9657V16.6093H9.72816ZM10.4665 17.5354V17.2188H10.2274V17.5354H10.4665Z" fill="#F9F9F9"/>
<path fill-rule="evenodd" clip-rule="evenodd" d="M14.2721 6.46436H12.1602V6.78098H14.2721V6.46436ZM12.1602 7.07381V7.99989H12.3993V7.39043H13.1587L13.1587 7.9999H14.2721V7.07381H13.5816V7.39043H14.033V7.68327H13.3978V7.07381H12.1602ZM12.8986 7.9999V7.68327H12.6595V7.9999H12.8986Z" fill="#F9F9F9"/>
<path fill-rule="evenodd" clip-rule="evenodd" d="M14.2721 15.9999H12.1602V16.3165H14.2721V15.9999ZM12.1602 16.6093V17.5354H12.3993V16.926H13.1587L13.1587 17.5354H14.2721V16.6093H13.5816V16.926H14.033V17.2188H13.3978V16.6093H12.1602ZM12.8986 17.5354V17.2188H12.6595V17.5354H12.8986Z" fill="#F9F9F9"/>
<path fill-rule="evenodd" clip-rule="evenodd" d="M16.7041 6.46436H14.5922V6.78098H16.7041V6.46436ZM14.5922 7.07381L14.5922 7.99989H14.8313V7.39043H15.5907L15.5907 7.9999H16.7041V7.07381H16.0136V7.39043H16.465V7.68327H15.8298V7.07381H14.5922ZM15.3305 7.9999V7.68327H15.0915V7.9999H15.3305Z" fill="#F9F9F9"/>
<path fill-rule="evenodd" clip-rule="evenodd" d="M16.7041 15.9999H14.5922V16.3165H16.7041V15.9999ZM14.5922 16.6093L14.5922 17.5354H14.8313V16.926H15.5907L15.5907 17.5354H16.7041V16.6093H16.0136V16.926H16.465V17.2188H15.8298V16.6093H14.5922ZM15.3305 17.5354V17.2188H15.0915V17.5354H15.3305Z" fill="#F9F9F9"/>
<path fill-rule="evenodd" clip-rule="evenodd" d="M19.136 6.46436H17.0242V6.78098H19.136V6.46436ZM17.0242 7.07381V7.99989H17.2633V7.39043H18.0227V7.9999H19.136V7.07381H18.4456V7.39043H18.897V7.68327H18.2618V7.07381H17.0242ZM17.7625 7.9999V7.68327H17.5235V7.9999H17.7625Z" fill="#F9F9F9"/>
<path fill-rule="evenodd" clip-rule="evenodd" d="M19.136 15.9999H17.0242V16.3165H19.136V15.9999ZM17.0242 16.6093V17.5354H17.2633V16.926H18.0227V17.5354H19.136V16.6093H18.4456V16.926H18.897V17.2188H18.2618V16.6093H17.0242ZM17.7625 17.5354V17.2188H17.5235V17.5354H17.7625Z" fill="#F9F9F9"/>
<path fill-rule="evenodd" clip-rule="evenodd" d="M21.568 6.46436H19.4562V6.78098H21.568V6.46436ZM19.4562 7.07381L19.4562 7.99989H19.6953V7.39043H20.4547V7.9999H21.568V7.07381H20.8775V7.39043H21.3289V7.68327H20.6938V7.07381H19.4562ZM20.1945 7.9999V7.68327H19.9554V7.9999H20.1945Z" fill="#F9F9F9"/>
<path fill-rule="evenodd" clip-rule="evenodd" d="M21.568 15.9999H19.4562V16.3165H21.568V15.9999ZM19.4562 16.6093L19.4562 17.5354H19.6953V16.926H20.4547V17.5354H21.568V16.6093H20.8775V16.926H21.3289V17.2188H20.6938V16.6093H19.4562ZM20.1945 17.5354V17.2188H19.9554V17.5354H20.1945Z" fill="#F9F9F9"/>
<path fill-rule="evenodd" clip-rule="evenodd" d="M24 6.46436H21.8882V6.78098H24V6.46436ZM21.8882 7.07381V7.99989H22.1272V7.39043H22.8867V7.9999L24 7.9999V7.07381H23.3095V7.39043H23.7609V7.68327H23.1257V7.07381H21.8882ZM22.6265 7.9999V7.68327H22.3874V7.9999H22.6265Z" fill="#F9F9F9"/>
<path fill-rule="evenodd" clip-rule="evenodd" d="M24 15.9999H21.8882V16.3165H24V15.9999ZM21.8882 16.6093V17.5354H22.1272V16.926H22.8867V17.5354L24 17.5354V16.6093H23.3095V16.926H23.7609V17.2188H23.1257V16.6093H21.8882ZM22.6265 17.5354V17.2188H22.3874V17.5354H22.6265Z" fill="#F9F9F9"/>
</g>
<defs>
<clipPath id="clip0_440_1388">
<rect width="24" height="24" rx="12" fill="white"/>
</clipPath>
</defs>
</svg>
