<svg width="32" height="24" viewBox="0 0 32 24" fill="none" xmlns="http://www.w3.org/2000/svg">
<g clip-path="url(#clip0_440_1354)">
<rect width="32" height="24" rx="2" fill="#F9F9F9"/>
<path d="M0 16H32V24H0V16Z" fill="#D74B4B"/>
<path d="M0 0H32V8H0V0Z" fill="#3FB47C"/>
<path fill-rule="evenodd" clip-rule="evenodd" d="M2.81577 6.46436H0V6.78098H2.81577V6.46436ZM0 7.07381V7.99989H0.318766L0.318766 7.39043H1.33132L1.33132 7.9999H2.81577L2.81577 7.07381H1.89514V7.39043H2.497V7.68327H1.65009V7.07381H0ZM0.984428 7.9999V7.68327H0.665662L0.665662 7.9999H0.984428Z" fill="#F9F9F9"/>
<path fill-rule="evenodd" clip-rule="evenodd" d="M2.81577 15.9999H0V16.3165H2.81577V15.9999ZM0 16.6093V17.5354H0.318766L0.318766 16.926H1.33132L1.33132 17.5354H2.81577L2.81577 16.6093H1.89514V16.926H2.497V17.2188H1.65009V16.6093H0ZM0.984428 17.5354V17.2188H0.665662L0.665662 17.5354H0.984428Z" fill="#F9F9F9"/>
<path fill-rule="evenodd" clip-rule="evenodd" d="M6.05874 6.46436H3.24297V6.78098H6.05874V6.46436ZM3.24297 7.07381V7.99989H3.56174V7.39043H4.57429L4.57429 7.9999L6.05874 7.9999L6.05874 7.07381H5.13811V7.39043H5.73997V7.68327H4.89305V7.07381H3.24297ZM4.2274 7.9999V7.68327H3.90863V7.9999H4.2274Z" fill="#F9F9F9"/>
<path fill-rule="evenodd" clip-rule="evenodd" d="M6.05874 15.9999H3.24297V16.3165H6.05874V15.9999ZM3.24297 16.6093V17.5354H3.56174V16.926H4.57429L4.57429 17.5354L6.05874 17.5354L6.05874 16.6093H5.13811V16.926H5.73997V17.2188H4.89305V16.6093H3.24297ZM4.2274 17.5354V17.2188H3.90863V17.5354H4.2274Z" fill="#F9F9F9"/>
<path fill-rule="evenodd" clip-rule="evenodd" d="M9.30138 6.46436H6.48561V6.78098H9.30138V6.46436ZM6.48561 7.07381V7.99989H6.80437V7.39043H7.81693V7.9999H9.30138L9.30138 7.07381H8.38075V7.39043H8.98261V7.68327H8.13569V7.07381H6.48561ZM7.47004 7.9999V7.68327H7.15127V7.9999H7.47004Z" fill="#F9F9F9"/>
<path fill-rule="evenodd" clip-rule="evenodd" d="M9.30138 15.9999H6.48561V16.3165H9.30138V15.9999ZM6.48561 16.6093V17.5354H6.80437V16.926H7.81693V17.5354H9.30138L9.30138 16.6093H8.38075V16.926H8.98261V17.2188H8.13569V16.6093H6.48561ZM7.47004 17.5354V17.2188H7.15127V17.5354H7.47004Z" fill="#F9F9F9"/>
<path fill-rule="evenodd" clip-rule="evenodd" d="M12.544 6.46436H9.72825V6.78098H12.544V6.46436ZM9.72825 7.07381V7.99989H10.047V7.39043H11.0596V7.9999L12.544 7.9999L12.544 7.07381H11.6234V7.39043H12.2253V7.68327H11.3783V7.07381H9.72825ZM10.7127 7.9999V7.68327H10.3939V7.9999H10.7127Z" fill="#F9F9F9"/>
<path fill-rule="evenodd" clip-rule="evenodd" d="M12.544 15.9999H9.72825V16.3165H12.544V15.9999ZM9.72825 16.6093V17.5354H10.047V16.926H11.0596V17.5354L12.544 17.5354L12.544 16.6093H11.6234V16.926H12.2253V17.2188H11.3783V16.6093H9.72825ZM10.7127 17.5354V17.2188H10.3939V17.5354H10.7127Z" fill="#F9F9F9"/>
<path fill-rule="evenodd" clip-rule="evenodd" d="M15.7867 6.46436H12.9709V6.78098H15.7867V6.46436ZM12.9709 7.07381V7.99989H13.2897V7.39043H14.3022L14.3022 7.9999H15.7867V7.07381H14.866V7.39043H15.4679V7.68327H14.621V7.07381H12.9709ZM13.9553 7.9999V7.68327H13.6365V7.9999H13.9553Z" fill="#F9F9F9"/>
<path fill-rule="evenodd" clip-rule="evenodd" d="M15.7867 15.9999H12.9709V16.3165H15.7867V15.9999ZM12.9709 16.6093V17.5354H13.2897V16.926H14.3022L14.3022 17.5354H15.7867V16.6093H14.866V16.926H15.4679V17.2188H14.621V16.6093H12.9709ZM13.9553 17.5354V17.2188H13.6365V17.5354H13.9553Z" fill="#F9F9F9"/>
<path fill-rule="evenodd" clip-rule="evenodd" d="M19.0294 6.46436H16.2137V6.78098H19.0294V6.46436ZM16.2137 7.07381V7.99989H16.5324V7.39043H17.545L17.545 7.9999H19.0294V7.07381H18.1088V7.39043H18.7107V7.68327H17.8638V7.07381H16.2137ZM17.1981 7.9999V7.68327H16.8793V7.9999H17.1981Z" fill="#F9F9F9"/>
<path fill-rule="evenodd" clip-rule="evenodd" d="M19.0294 15.9999H16.2137V16.3165H19.0294V15.9999ZM16.2137 16.6093V17.5354H16.5324V16.926H17.545L17.545 17.5354H19.0294V16.6093H18.1088V16.926H18.7107V17.2188H17.8638V16.6093H16.2137ZM17.1981 17.5354V17.2188H16.8793V17.5354H17.1981Z" fill="#F9F9F9"/>
<path fill-rule="evenodd" clip-rule="evenodd" d="M22.2721 6.46436H19.4563V6.78098H22.2721V6.46436ZM19.4563 7.07381V7.99989H19.7751V7.39043H20.7876V7.9999H22.2721V7.07381H21.3514V7.39043H21.9533V7.68327H21.1064V7.07381H19.4563ZM20.4407 7.9999V7.68327H20.122V7.9999H20.4407Z" fill="#F9F9F9"/>
<path fill-rule="evenodd" clip-rule="evenodd" d="M22.2721 15.9999H19.4563V16.3165H22.2721V15.9999ZM19.4563 16.6093V17.5354H19.7751V16.926H20.7876V17.5354H22.2721V16.6093H21.3514V16.926H21.9533V17.2188H21.1064V16.6093H19.4563ZM20.4407 17.5354V17.2188H20.122V17.5354H20.4407Z" fill="#F9F9F9"/>
<path fill-rule="evenodd" clip-rule="evenodd" d="M25.5147 6.46436H22.6989V6.78098H25.5147V6.46436ZM22.6989 7.07381V7.99989H23.0177V7.39043H24.0303L24.0303 7.9999H25.5147V7.07381H24.5941V7.39043H25.196V7.68327H24.349V7.07381H22.6989ZM23.6834 7.9999V7.68327H23.3646V7.9999H23.6834Z" fill="#F9F9F9"/>
<path fill-rule="evenodd" clip-rule="evenodd" d="M25.5147 15.9999H22.6989V16.3165H25.5147V15.9999ZM22.6989 16.6093V17.5354H23.0177V16.926H24.0303L24.0303 17.5354H25.5147V16.6093H24.5941V16.926H25.196V17.2188H24.349V16.6093H22.6989ZM23.6834 17.5354V17.2188H23.3646V17.5354H23.6834Z" fill="#F9F9F9"/>
<path fill-rule="evenodd" clip-rule="evenodd" d="M28.7574 6.46436H25.9416V6.78098H28.7574V6.46436ZM25.9416 7.07381V7.99989H26.2604V7.39043H27.2729L27.2729 7.9999H28.7574V7.07381H27.8367V7.39043H28.4386V7.68327H27.5917V7.07381H25.9416ZM26.926 7.9999V7.68327H26.6072V7.9999H26.926Z" fill="#F9F9F9"/>
<path fill-rule="evenodd" clip-rule="evenodd" d="M28.7574 15.9999H25.9416V16.3165H28.7574V15.9999ZM25.9416 16.6093V17.5354H26.2604V16.926H27.2729L27.2729 17.5354H28.7574V16.6093H27.8367V16.926H28.4386V17.2188H27.5917V16.6093H25.9416ZM26.926 17.5354V17.2188H26.6072V17.5354H26.926Z" fill="#F9F9F9"/>
<path fill-rule="evenodd" clip-rule="evenodd" d="M32 6.46436H29.1842V6.78098H32V6.46436ZM29.1842 7.07381V7.99989H29.503V7.39043H30.5155V7.9999H32V7.07381H31.0794V7.39043H31.6812V7.68327H30.8343V7.07381H29.1842ZM30.1687 7.9999V7.68327H29.8499V7.9999H30.1687Z" fill="#F9F9F9"/>
<path fill-rule="evenodd" clip-rule="evenodd" d="M32 15.9999H29.1842V16.3165H32V15.9999ZM29.1842 16.6093V17.5354H29.503V16.926H30.5155V17.5354H32V16.6093H31.0794V16.926H31.6812V17.2188H30.8343V16.6093H29.1842ZM30.1687 17.5354V17.2188H29.8499V17.5354H30.1687Z" fill="#F9F9F9"/>
<path fill-rule="evenodd" clip-rule="evenodd" d="M15.8226 9.10086C15.8491 9.15043 15.884 9.19484 15.9254 9.23221C15.9667 9.19484 16.0016 9.15043 16.0281 9.10087C16.0302 9.11922 16.0313 9.13789 16.0313 9.1568C16.0313 9.2046 16.0244 9.25077 16.0115 9.29438C16.0819 9.33427 16.1632 9.35703 16.2499 9.35703C16.4984 9.35703 16.7032 9.16981 16.7309 8.92871C16.7673 8.99668 16.7879 9.07433 16.7879 9.1568C16.7879 9.42425 16.5711 9.64106 16.3037 9.64106C16.1506 9.64106 16.0141 9.57003 15.9254 9.45914C15.8366 9.57003 15.7001 9.64106 15.547 9.64106C15.2796 9.64106 15.0628 9.42425 15.0628 9.1568C15.0628 9.07434 15.0834 8.99668 15.1198 8.92872C15.1475 9.16982 15.3523 9.35704 15.6008 9.35704C15.6875 9.35704 15.7688 9.33427 15.8392 9.29439C15.8263 9.25077 15.8194 9.20459 15.8194 9.1568C15.8194 9.13788 15.8205 9.11922 15.8226 9.10086ZM17.4692 14.5527C17.6563 14.5527 17.8395 14.5357 18.0172 14.5031C17.6591 14.6644 17.2618 14.7542 16.8436 14.7542C16.6758 14.7542 16.5114 14.7397 16.3515 14.712V14.7542L15.9845 15.0711L15.6008 14.7542V14.7198C15.456 14.7424 15.3075 14.7542 15.1563 14.7542C14.7381 14.7542 14.3408 14.6644 13.9827 14.5031C14.1604 14.5357 14.3436 14.5527 14.5308 14.5527C14.8588 14.5527 15.1747 14.5004 15.4704 14.4037C14.5838 13.9177 13.9827 12.9757 13.9827 11.8933C13.9827 10.9348 14.4541 10.0864 15.1776 9.56722C14.7239 10.0955 14.4498 10.7824 14.4498 11.5334C14.4498 12.4955 14.8998 13.3525 15.6008 13.9054V9.93317V9.89981H15.6412L15.9845 9.61622L16.3129 9.89981H16.3515V9.93317V13.9422C17.0797 13.391 17.5501 12.5171 17.5501 11.5334C17.5501 10.7824 17.276 10.0955 16.8223 9.56722C17.5459 10.0864 18.0172 10.9348 18.0172 11.8933C18.0172 12.9757 17.4161 13.9177 16.5295 14.4037C16.8253 14.5004 17.1411 14.5527 17.4692 14.5527ZM12.8317 12.0249C12.8317 10.8125 13.7274 9.80936 14.8932 9.64106C14.0224 10.1437 13.4363 11.0845 13.4363 12.1622C13.4363 12.9826 13.7759 13.7237 14.3222 14.2525C13.4474 13.8915 12.8317 13.0301 12.8317 12.0249ZM17.1067 9.64106C18.2725 9.80936 19.1683 10.8125 19.1683 12.0249C19.1683 13.0301 18.5526 13.8915 17.6777 14.2525C18.224 13.7237 18.5636 12.9826 18.5636 12.1622C18.5636 11.0845 17.9776 10.1437 17.1067 9.64106Z" fill="#D74B4B"/>
</g>
<defs>
<clipPath id="clip0_440_1354">
<rect width="32" height="24" rx="2" fill="white"/>
</clipPath>
</defs>
</svg>
