<svg width="24" height="24" viewBox="0 0 24 24" fill="none" xmlns="http://www.w3.org/2000/svg">
<g clip-path="url(#clip0_440_1381)">
<rect width="24" height="24" rx="2" fill="#F9F9F9"/>
<path d="M0 16H24V24H0V16Z" fill="#333333"/>
<path d="M0 0H24V8H0V0Z" fill="#D74B4B"/>
<path fill-rule="evenodd" clip-rule="evenodd" d="M10.4569 9.56921L8.17941 11.9411H10.4155V11.3776V10.9751H10.8019H11.8068H12.1932V11.3776V13.4705V13.873H11.8068H5.4686V14.5975V15H5.08213H4V14.195H4.69565V13.4705V12.3435H5.4686V13.068H6.24155V11.9411H7.01449V13.068H11.4203V11.7801H11.1884V12.3435V12.746H10.8019H7.78744H7.40097V12.3435V11.7801V11.6133L7.51416 11.4955L9.9103 9L10.4569 9.56921ZM12.4251 9.5261H13.1981V13.068H13.8164V13.873H13.1981H12.5797H12.4251V9.5261ZM15.6715 12.585H14.8986V13.068V13.873H15.6715H16.2899H17.0628H17.5266H18.1449H18.2995V9.5261H17.5266V13.068H17.0628V11.2971H16.2899V13.068H15.6715V12.585ZM6.08696 14.034H6.8599V14.839H6.08696V14.034ZM19.3816 9.5261H18.6087V13.873H18.7633H19.3816H20V13.068H19.3816V9.5261Z" fill="#3FB47C"/>
</g>
<defs>
<clipPath id="clip0_440_1381">
<rect width="24" height="24" rx="2" fill="white"/>
</clipPath>
</defs>
</svg>
