<svg width="32" height="24" viewBox="0 0 32 24" fill="none" xmlns="http://www.w3.org/2000/svg">
<g clip-path="url(#clip0_440_1383)">
<rect width="32" height="24" rx="2" fill="#F9F9F9"/>
<path d="M0 16H32V24H0V16Z" fill="#333333"/>
<path d="M0 0H32V8H0V0Z" fill="#D74B4B"/>
<path fill-rule="evenodd" clip-rule="evenodd" d="M13.4569 9.56921L11.1794 11.9411H13.4155V11.3776V10.9751H13.8019H14.8068H15.1932V11.3776V13.4705V13.873H14.8068H8.4686V14.5975V15H8.08213H7V14.195H7.69565V13.4705V12.3435H8.4686V13.068H9.24155V11.9411H10.0145V13.068H14.4203V11.7801H14.1884V12.3435V12.746H13.8019H10.7874H10.401V12.3435V11.7801V11.6133L10.5142 11.4955L12.9103 9L13.4569 9.56921ZM15.4251 9.5261H16.1981V13.068H16.8164V13.873H16.1981H15.5797H15.4251V9.5261ZM18.6715 12.585H17.8986V13.068V13.873H18.6715H19.2899H20.0628H20.5266H21.1449H21.2995V9.5261H20.5266V13.068H20.0628V11.2971H19.2899V13.068H18.6715V12.585ZM9.08696 14.034H9.8599V14.839H9.08696V14.034ZM22.3816 9.5261H21.6087V13.873H21.7633H22.3816H23V13.068H22.3816V9.5261Z" fill="#3FB47C"/>
</g>
<defs>
<clipPath id="clip0_440_1383">
<rect width="32" height="24" rx="2" fill="white"/>
</clipPath>
</defs>
</svg>
