<svg width="32" height="24" viewBox="0 0 32 24" fill="none" xmlns="http://www.w3.org/2000/svg">
<rect width="32" height="24" rx="2" fill="#F9F9F9"/>
<path d="M0 17H32V22H0V17Z" fill="#485CC2"/>
<path d="M0 2H32V7H0V2Z" fill="#485CC2"/>
<path fill-rule="evenodd" clip-rule="evenodd" d="M13.1764 13.9354H12.4645L12.8477 13.3354L13.7006 12.0001L12.8477 10.6648L12.4645 10.0648H13.1764L14.9367 10.0648L15.644 8.95724L16 8.3999L16.356 8.95724L17.0634 10.0648L18.8236 10.0648L19.5356 10.0648L19.1523 10.6648L18.2995 12.0001L19.1523 13.3354L19.5355 13.9354H18.8236L17.0634 13.9354L16.356 15.043L16 15.6003L15.644 15.043L14.9367 13.9354L13.1764 13.9354ZM15.6486 13.9354L16 14.4857L16.3514 13.9354H15.6486ZM16.7347 13.3354H15.2654L14.4125 12.0001L15.2654 10.6648H16.7347L17.5875 12.0001L16.7347 13.3354ZM17.4466 13.3354H18.4404L17.9435 12.5575L17.4466 13.3354ZM17.9435 11.4428L18.4404 10.6648H17.4466L17.9435 11.4428ZM16.3514 10.0648L16 9.51457L15.6486 10.0648H16.3514ZM14.5534 10.6648H13.5596L14.0565 11.4428L14.5534 10.6648ZM14.0565 12.5574L14.5534 13.3354H13.5596L14.0565 12.5574Z" fill="#485CC2"/>
</svg>
