<svg width="24" height="24" viewBox="0 0 24 24" fill="none" xmlns="http://www.w3.org/2000/svg">
<rect width="24" height="24" rx="12" fill="#F9F9F9"/>
<path d="M0 17H24V22H0V17Z" fill="#485CC2"/>
<path d="M0 2H24V7H0V2Z" fill="#485CC2"/>
<path fill-rule="evenodd" clip-rule="evenodd" d="M9.17642 13.9354H8.46448L8.8477 13.3354L9.70057 12.0001L8.8477 10.6648L8.46449 10.0648H9.17642L10.9367 10.0648L11.644 8.95724L12 8.3999L12.356 8.95724L13.0634 10.0648L14.8236 10.0648L15.5356 10.0648L15.1523 10.6648L14.2995 12.0001L15.1523 13.3354L15.5355 13.9354H14.8236L13.0634 13.9354L12.356 15.043L12 15.6003L11.644 15.043L10.9367 13.9354L9.17642 13.9354ZM11.6486 13.9354L12 14.4857L12.3514 13.9354H11.6486ZM12.7347 13.3354H11.2654L10.4125 12.0001L11.2654 10.6648H12.7347L13.5875 12.0001L12.7347 13.3354ZM13.4466 13.3354H14.4404L13.9435 12.5575L13.4466 13.3354ZM13.9435 11.4428L14.4404 10.6648H13.4466L13.9435 11.4428ZM12.3514 10.0648L12 9.51457L11.6486 10.0648H12.3514ZM10.5534 10.6648H9.55964L10.0565 11.4428L10.5534 10.6648ZM10.0565 12.5574L10.5534 13.3354H9.55964L10.0565 12.5574Z" fill="#485CC2"/>
</svg>
