<svg width="32" height="24" viewBox="0 0 32 24" fill="none" xmlns="http://www.w3.org/2000/svg">
<rect width="32" height="24" rx="2" fill="#64BEDB"/>
<path fill-rule="evenodd" clip-rule="evenodd" d="M16 7L16.2002 7.39168L16.4579 7.03516L16.5961 7.45281L16.9052 7.13981L16.9779 7.57365L17.3312 7.3115L17.3368 7.75137L17.726 7.54621L17.6644 7.98178L18.0803 7.83844L17.953 8.25951L18.3859 8.18132L18.1958 8.57803L18.6355 8.56684L18.3871 8.92988L18.8234 8.98595L18.5225 9.30681L18.9451 9.42883L18.5987 9.69999L18.9978 9.88509L18.6141 10.1002L18.9802 10.3441L18.5681 10.4981L18.8928 10.7949L18.462 10.8843L18.7375 11.2272L18.2982 11.2497L18.5181 11.6307L18.0805 11.5859L18.2397 11.996L17.814 11.8849L17.9087 12.3145L17.505 12.1397L17.5331 12.5787L17.1608 12.3444L17.1214 12.7825L16.7893 12.4941L16.6836 12.9211L16.3993 12.5853L16.2296 12.9912L16 12.616L15.7703 12.9912L15.6007 12.5853L15.3164 12.9211L15.2107 12.4941L14.8785 12.7825L14.8392 12.3444L14.4669 12.5787L14.495 12.1397L14.0913 12.3145L14.186 11.8849L13.7603 11.996L13.9195 11.5859L13.4819 11.6307L13.7018 11.2497L13.2625 11.2272L13.538 10.8843L13.1072 10.7949L13.4318 10.4981L13.0198 10.3441L13.3859 10.1002L13.0022 9.88509L13.4013 9.69999L13.0549 9.42883L13.4775 9.30681L13.1766 8.98595L13.6129 8.92988L13.3645 8.56684L13.8042 8.57803L13.6141 8.18132L14.047 8.25951L13.9197 7.83844L14.3356 7.98178L14.274 7.54621L14.6632 7.75137L14.6688 7.3115L15.0221 7.57365L15.0948 7.13981L15.4039 7.45281L15.542 7.03516L15.7997 7.39168L16 7ZM16 7.98081C14.8847 7.98081 13.9807 8.88488 13.9807 10.0001C13.9807 11.1153 14.8847 12.0194 16 12.0194C17.1152 12.0194 18.0193 11.1153 18.0193 10.0001C18.0193 8.88488 17.1152 7.98081 16 7.98081ZM13.5807 10.0001C13.5807 8.66396 14.6638 7.58081 16 7.58081C17.3361 7.58081 18.4193 8.66396 18.4193 10.0001C18.4193 11.3362 17.3361 12.4194 16 12.4194C14.6638 12.4194 13.5807 11.3362 13.5807 10.0001ZM8 11H12.126C12.5701 12.7252 14.1362 14 16 14C17.8638 14 19.4299 12.7252 19.874 11H24C24 12.1046 23.1046 13 22 13H21C21 14.1046 20.1046 15 19 15C19 16.1046 18.1046 17 17 17H15C13.8954 17 13 16.1046 13 15C11.8954 15 11 14.1046 11 13H10C8.89543 13 8 12.1046 8 11Z" fill="#F8D74C"/>
</svg>
