<svg width="24" height="24" viewBox="0 0 24 24" fill="none" xmlns="http://www.w3.org/2000/svg">
<rect width="24" height="24" rx="12" fill="#64BEDB"/>
<path fill-rule="evenodd" clip-rule="evenodd" d="M12 8.39282L12.1445 8.6754L12.3304 8.41819L12.43 8.7195L12.653 8.49369L12.7055 8.80668L12.9604 8.61756L12.9645 8.93489L13.2452 8.78688L13.2008 9.10113L13.5008 8.99771L13.409 9.30149L13.7213 9.24508L13.5842 9.53128L13.9014 9.52321L13.7222 9.78512L14.037 9.82558L13.8199 10.0571L14.1248 10.1451L13.8749 10.3407L14.1628 10.4743L13.8859 10.6294L14.1501 10.8054L13.8528 10.9165L14.087 11.1307L13.7762 11.1951L13.975 11.4425L13.658 11.4588L13.8167 11.7336L13.501 11.7013L13.6158 11.9971L13.3087 11.917L13.3771 12.2269L13.0858 12.1008L13.106 12.4176L12.8375 12.2485L12.8091 12.5646L12.5695 12.3565L12.4932 12.6646L12.2881 12.4223L12.1657 12.7151L12 12.4445L11.8343 12.7151L11.7119 12.4223L11.5069 12.6646L11.4306 12.3565L11.191 12.5646L11.1626 12.2485L10.894 12.4176L10.9142 12.1008L10.623 12.2269L10.6913 11.917L10.3842 11.9971L10.4991 11.7013L10.1833 11.7336L10.342 11.4588L10.0251 11.4425L10.2238 11.1951L9.91305 11.1307L10.1472 10.9165L9.84996 10.8054L10.1141 10.6294L9.83727 10.4743L10.1252 10.3407L9.87527 10.1451L10.1802 10.0571L9.96307 9.82558L10.2778 9.78512L10.0986 9.52321L10.4159 9.53128L10.2787 9.24508L10.591 9.30149L10.4992 8.99771L10.7992 9.10113L10.7548 8.78688L11.0356 8.93489L11.0397 8.61756L11.2945 8.80668L11.347 8.49369L11.57 8.7195L11.6696 8.41819L11.8555 8.6754L12 8.39282ZM12.0001 9.10033C11.1955 9.10033 10.5433 9.75256 10.5433 10.5571C10.5433 11.3617 11.1955 12.0139 12.0001 12.0139C12.8047 12.0139 13.4569 11.3617 13.4569 10.5571C13.4569 9.75256 12.8047 9.10033 12.0001 9.10033ZM10.2547 10.5571C10.2547 9.59319 11.0362 8.81175 12.0001 8.81175C12.9641 8.81175 13.7455 9.59319 13.7455 10.5571C13.7455 11.5211 12.9641 12.3025 12.0001 12.3025C11.0362 12.3025 10.2547 11.5211 10.2547 10.5571ZM6.22845 11.2786H9.20513C9.52549 12.5233 10.6553 13.4429 12 13.4429C13.3447 13.4429 14.4745 12.5233 14.7949 11.2786H17.7716C17.7716 12.0755 17.1256 12.7215 16.3287 12.7215H15.6072C15.6072 13.5184 14.9612 14.1644 14.1643 14.1644C14.1643 14.9613 13.5183 15.6073 12.7214 15.6073H11.2786C10.4817 15.6073 9.83566 14.9613 9.83566 14.1644C9.03878 14.1644 8.39278 13.5184 8.39277 12.7215H7.67135C6.87446 12.7215 6.22845 12.0755 6.22845 11.2786Z" fill="#F8D74C"/>
</svg>
