<svg width="32" height="24" viewBox="0 0 32 24" fill="none" xmlns="http://www.w3.org/2000/svg">
<rect width="32" height="24" rx="2" fill="#D74B4B"/>
<path d="M16 5.5L16.2846 8.29291L16.9922 5.57618L16.8472 8.3798L17.9612 5.80292L17.3898 8.55155L18.8842 6.17492L17.9 8.80412L19.7396 6.68346L18.3655 9.1316L20.5073 7.31661L18.7757 9.52632L21.1694 8.05953L19.1208 9.97902L21.7103 8.89482L19.3927 10.4791L22.1174 9.80289L19.5851 11.0148L22.3811 10.7625L19.6935 11.5736L22.4952 11.751L19.7153 12.1424L22.4571 12.7454L19.65 12.7079L22.2676 13.7224L19.4991 13.2567L21.9313 14.6589L19.2663 13.7762L21.4559 15.5332L18.9569 14.2539L20.8526 16.3246L18.5782 14.6789L20.1356 17.0147L18.139 15.0411L19.3216 17.5872L17.6497 15.3319L18.4298 18.0288L17.1218 15.5447L17.481 18.329L16.5675 15.6744L16.4976 18.4809L16 15.718L15.5024 18.4809L15.4324 15.6744L14.5189 18.329L14.8782 15.5447L13.5702 18.0288L14.3502 15.3319L12.6784 17.5872L13.861 15.0411L11.8644 17.0147L13.4218 14.6789L11.1474 16.3246L13.0431 14.2539L10.5441 15.5332L12.7337 13.7762L10.0687 14.6589L12.5008 13.2567L9.73234 13.7224L12.35 12.7079L9.54288 12.7454L12.2847 12.1424L9.50476 11.751L12.3065 11.5736L9.61889 10.7625L12.4149 11.0148L9.88258 9.80289L12.6073 10.4791L10.2897 8.89482L12.8792 9.97902L10.8306 8.05953L13.2243 9.52632L11.4927 7.31661L13.6344 9.1316L12.2604 6.68346L14.1 8.80412L13.1158 6.17492L14.6101 8.55155L14.0388 5.80292L15.1528 8.3798L15.0078 5.57618L15.7154 8.29291L16 5.5Z" fill="#F8D74C"/>
<path fill-rule="evenodd" clip-rule="evenodd" d="M16 14.7401C17.5132 14.7401 18.74 13.5133 18.74 12.0001C18.74 10.4868 17.5132 9.26011 16 9.26011C14.4867 9.26011 13.26 10.4868 13.26 12.0001C13.26 13.5133 14.4867 14.7401 16 14.7401ZM16 15.1401C17.7341 15.1401 19.14 13.7342 19.14 12.0001C19.14 10.2659 17.7341 8.86011 16 8.86011C14.2658 8.86011 12.86 10.2659 12.86 12.0001C12.86 13.7342 14.2658 15.1401 16 15.1401Z" fill="#D74B4B"/>
<path d="M19.0327 12.6031L18.2007 14.1167C18.1708 13.9296 17.8856 14.5788 17.7875 14.3341C17.3255 13.1819 16.0392 11.5423 13.2857 10.8413C13.0758 10.7878 13.4457 10.8242 13.2186 10.7823L13.5363 10.1465C13.6922 10.1487 13.4714 10.1301 13.6607 10.1464C15.1209 10.2725 17.4618 10.8526 18.8928 12.4222C18.9436 12.4779 18.9728 12.5054 18.9883 12.5161C19.0446 12.5552 18.9203 12.3738 18.9883 12.5161C18.9984 12.5373 19.0128 12.5657 19.0327 12.6031Z" fill="#D74B4B"/>
<path d="M14.3116 14.5878L12.9484 12.7051C13.0784 12.4606 12.9098 12.9164 13.0753 12.7051C14.4224 10.9838 16.8259 10.3262 18.3806 10.1624C18.6345 10.1357 18.3145 10.1652 18.5148 10.1624L18.8711 10.8809C18.5891 10.9329 19.0265 10.8114 18.7711 10.881C16.0136 11.6317 14.7744 13.3343 14.3685 14.4692C14.2999 14.661 14.3359 14.4358 14.3116 14.5878Z" fill="#D74B4B"/>
</svg>
