<svg width="24" height="24" viewBox="0 0 24 24" fill="none" xmlns="http://www.w3.org/2000/svg">
<rect width="24" height="24" rx="12" fill="#D74B4B"/>
<path d="M12 5.5L12.2846 8.29291L12.9922 5.57618L12.8472 8.3798L13.9612 5.80292L13.3898 8.55155L14.8842 6.17492L13.9 8.80412L15.7396 6.68346L14.3655 9.1316L16.5073 7.31661L14.7757 9.52632L17.1694 8.05953L15.1208 9.97902L17.7103 8.89482L15.3927 10.4791L18.1174 9.80289L15.5851 11.0148L18.3811 10.7625L15.6935 11.5736L18.4952 11.751L15.7153 12.1424L18.4571 12.7454L15.65 12.7079L18.2676 13.7224L15.4991 13.2567L17.9313 14.6589L15.2663 13.7762L17.4559 15.5332L14.9569 14.2539L16.8526 16.3246L14.5782 14.6789L16.1356 17.0147L14.139 15.0411L15.3216 17.5872L13.6497 15.3319L14.4298 18.0288L13.1218 15.5447L13.481 18.329L12.5675 15.6744L12.4976 18.4809L12 15.718L11.5024 18.4809L11.4324 15.6744L10.5189 18.329L10.8782 15.5447L9.57018 18.0288L10.3502 15.3319L8.67837 17.5872L9.86096 15.0411L7.86442 17.0147L9.42181 14.6789L7.1474 16.3246L9.04309 14.2539L6.54412 15.5332L8.73368 13.7762L6.06872 14.6589L8.50083 13.2567L5.73234 13.7224L8.35 12.7079L5.54288 12.7454L8.28472 12.1424L5.50476 11.751L8.30652 11.5736L5.61889 10.7625L8.4149 11.0148L5.88258 9.80289L8.6073 10.4791L6.28966 8.89482L8.87923 9.97902L6.83059 8.05953L9.22431 9.52632L7.49268 7.31661L9.63444 9.1316L8.26042 6.68346L10.1 8.80412L9.11581 6.17492L10.6101 8.55155L10.0388 5.80292L11.1528 8.3798L11.0078 5.57618L11.7154 8.29291L12 5.5Z" fill="#F8D74C"/>
<path fill-rule="evenodd" clip-rule="evenodd" d="M12 14.7401C13.5132 14.7401 14.74 13.5133 14.74 12.0001C14.74 10.4868 13.5132 9.26011 12 9.26011C10.4867 9.26011 9.26001 10.4868 9.26001 12.0001C9.26001 13.5133 10.4867 14.7401 12 14.7401ZM12 15.1401C13.7341 15.1401 15.14 13.7342 15.14 12.0001C15.14 10.2659 13.7341 8.86011 12 8.86011C10.2658 8.86011 8.86001 10.2659 8.86001 12.0001C8.86001 13.7342 10.2658 15.1401 12 15.1401Z" fill="#D74B4B"/>
<path d="M15.0327 12.6031L14.2007 14.1167C14.1708 13.9296 13.8856 14.5788 13.7875 14.3341C13.3255 13.1819 12.0392 11.5423 9.28567 10.8413C9.07583 10.7878 9.44574 10.8242 9.21857 10.7823L9.53635 10.1465C9.69216 10.1487 9.4714 10.1301 9.66073 10.1464C11.1209 10.2725 13.4618 10.8526 14.8928 12.4222C14.9436 12.4779 14.9728 12.5054 14.9883 12.5161C15.0446 12.5552 14.9203 12.3738 14.9883 12.5161C14.9984 12.5373 15.0128 12.5657 15.0327 12.6031Z" fill="#D74B4B"/>
<path d="M10.3116 14.5878L8.9484 12.7051C9.07843 12.4606 8.90984 12.9164 9.07525 12.7051C10.4224 10.9838 12.8259 10.3262 14.3806 10.1624C14.6345 10.1357 14.3145 10.1652 14.5148 10.1624L14.8711 10.8809C14.5891 10.9329 15.0265 10.8114 14.7711 10.881C12.0136 11.6317 10.7744 13.3343 10.3685 14.4692C10.2999 14.661 10.3359 14.4358 10.3116 14.5878Z" fill="#D74B4B"/>
</svg>
