<svg width="24" height="24" viewBox="0 0 24 24" fill="none" xmlns="http://www.w3.org/2000/svg">
<rect width="24" height="24" rx="2" fill="#377649"/>
<path d="M12.0011 5L12.3827 6.1189H13.6173L12.6185 6.81042L13 7.92932L12.0011 7.2378L11.0023 7.92932L11.3838 6.81042L10.3849 6.1189H11.6196L12.0011 5Z" fill="#F8D74C"/>
<path d="M6.04775 8.72223L6.29509 9.44759H7.0955L6.44796 9.89589L6.6953 10.6213L6.04775 10.173L5.40021 10.6213L5.64755 9.89589L5 9.44759H5.80041L6.04775 8.72223Z" fill="#F8D74C"/>
<path d="M7.90838 6.83586L8.60529 7.25719L9.22627 6.79952L9.036 7.51759L9.73291 7.93892L8.91841 7.96137L8.72814 8.67944L8.41502 7.97525L7.60052 7.99771L8.2215 7.54004L7.90838 6.83586Z" fill="#F8D74C"/>
<path d="M14.7695 6.83586L15.4664 7.25719L16.0873 6.79952L15.8971 7.51759L16.594 7.93892L15.7795 7.96137L15.5892 8.67944L15.2761 7.97525L14.4616 7.99771L15.0826 7.54004L14.7695 6.83586Z" fill="#F8D74C"/>
<path d="M17.9522 8.72223L18.1996 9.44759H19L18.3525 9.89589L18.5998 10.6213L17.9522 10.173L17.3047 10.6213L17.552 9.89589L16.9045 9.44759H17.7049L17.9522 8.72223Z" fill="#F8D74C"/>
<path d="M6.90877 16.5311C6.80979 16.3966 6.71714 16.2579 6.6312 16.1153H17.3582C17.2722 16.2579 17.1796 16.3966 17.0806 16.5311H6.90877Z" fill="#F9F9F9"/>
<path d="M7.43566 17.1485C7.30473 17.0155 7.18077 16.8768 7.06432 16.7327H16.9251C16.8086 16.8768 16.6847 17.0155 16.5537 17.1485H7.43566Z" fill="#F9F9F9"/>
<path d="M8.14974 17.7659C7.97281 17.6359 7.80407 17.497 7.64431 17.3501H16.3451C16.1853 17.497 16.0166 17.6359 15.8396 17.7659H8.14974Z" fill="#F9F9F9"/>
<path d="M9.19012 18.3833C8.92899 18.2608 8.67887 18.1217 8.44144 17.9675H15.5479C15.3105 18.1217 15.0604 18.2608 14.7993 18.3833H9.19012Z" fill="#F9F9F9"/>
<path d="M14.3196 18.5849C13.603 18.8524 12.8178 19 11.9947 19C11.1715 19 10.3864 18.8524 9.66977 18.5849H14.3196Z" fill="#F9F9F9"/>
<path fill-rule="evenodd" clip-rule="evenodd" d="M10.0225 11.3986C10.0225 9.94682 10.7984 8.6592 11.9948 7.85769C13.1912 8.6592 13.967 9.94685 13.967 11.3987C13.967 11.7954 13.9091 12.1799 13.8004 12.5455C14.0159 12.4601 14.2409 12.3879 14.4745 12.3302C16.0201 11.9483 17.595 12.2879 18.763 13.1231C18.2244 14.38 17.0576 15.397 15.512 15.7789C14.2879 16.0814 13.0454 15.9313 12.0012 15.4408C10.957 15.9313 9.71449 16.0814 8.49033 15.7789C6.94472 15.397 5.778 14.38 5.23943 13.1231C6.40743 12.2879 7.98225 11.9483 9.52787 12.3302C9.75626 12.3866 9.97637 12.4569 10.1874 12.5398C10.0799 12.1759 10.0225 11.7933 10.0225 11.3986Z" fill="#F9F9F9"/>
</svg>
