<svg width="32" height="24" viewBox="0 0 32 24" fill="none" xmlns="http://www.w3.org/2000/svg">
<rect width="32" height="24" rx="2" fill="#377649"/>
<path d="M16.0011 5L16.3827 6.1189H17.6173L16.6185 6.81042L17 7.92932L16.0011 7.2378L15.0023 7.92932L15.3838 6.81042L14.3849 6.1189H15.6196L16.0011 5Z" fill="#F8D74C"/>
<path d="M10.0478 8.72223L10.2951 9.44759H11.0955L10.448 9.89589L10.6953 10.6213L10.0478 10.173L9.40021 10.6213L9.64755 9.89589L9 9.44759H9.80041L10.0478 8.72223Z" fill="#F8D74C"/>
<path d="M11.9084 6.83586L12.6053 7.25719L13.2263 6.79952L13.036 7.51759L13.7329 7.93892L12.9184 7.96137L12.7281 8.67944L12.415 7.97525L11.6005 7.99771L12.2215 7.54004L11.9084 6.83586Z" fill="#F8D74C"/>
<path d="M18.7695 6.83586L19.4664 7.25719L20.0873 6.79952L19.8971 7.51759L20.594 7.93892L19.7795 7.96137L19.5892 8.67944L19.2761 7.97525L18.4616 7.99771L19.0826 7.54004L18.7695 6.83586Z" fill="#F8D74C"/>
<path d="M21.9522 8.72223L22.1996 9.44759H23L22.3525 9.89589L22.5998 10.6213L21.9522 10.173L21.3047 10.6213L21.552 9.89589L20.9045 9.44759H21.7049L21.9522 8.72223Z" fill="#F8D74C"/>
<path d="M10.9088 16.5311C10.8098 16.3966 10.7171 16.2579 10.6312 16.1153H21.3582C21.2722 16.2579 21.1796 16.3966 21.0806 16.5311H10.9088Z" fill="#F9F9F9"/>
<path d="M11.4357 17.1485C11.3047 17.0155 11.1808 16.8768 11.0643 16.7327H20.9251C20.8086 16.8768 20.6847 17.0155 20.5537 17.1485H11.4357Z" fill="#F9F9F9"/>
<path d="M12.1497 17.7659C11.9728 17.6359 11.8041 17.497 11.6443 17.3501H20.3451C20.1853 17.497 20.0166 17.6359 19.8396 17.7659H12.1497Z" fill="#F9F9F9"/>
<path d="M13.1901 18.3833C12.929 18.2608 12.6789 18.1217 12.4414 17.9675H19.5479C19.3105 18.1217 19.0604 18.2608 18.7993 18.3833H13.1901Z" fill="#F9F9F9"/>
<path d="M18.3196 18.5849C17.603 18.8524 16.8178 19 15.9947 19C15.1715 19 14.3864 18.8524 13.6698 18.5849H18.3196Z" fill="#F9F9F9"/>
<path fill-rule="evenodd" clip-rule="evenodd" d="M14.0225 11.3986C14.0225 9.94682 14.7984 8.6592 15.9948 7.85769C17.1912 8.6592 17.967 9.94685 17.967 11.3987C17.967 11.7954 17.9091 12.1799 17.8004 12.5455C18.0159 12.4601 18.2409 12.3879 18.4745 12.3302C20.0201 11.9483 21.595 12.2879 22.763 13.1231C22.2244 14.38 21.0576 15.397 19.512 15.7789C18.2879 16.0814 17.0454 15.9313 16.0012 15.4408C14.957 15.9313 13.7145 16.0814 12.4903 15.7789C10.9447 15.397 9.778 14.38 9.23943 13.1231C10.4074 12.2879 11.9823 11.9483 13.5279 12.3302C13.7563 12.3866 13.9764 12.4569 14.1874 12.5398C14.0799 12.1759 14.0225 11.7933 14.0225 11.3986Z" fill="#F9F9F9"/>
</svg>
