<svg width="24" height="24" viewBox="0 0 24 24" fill="none" xmlns="http://www.w3.org/2000/svg">
<rect width="24" height="24" rx="12" fill="#F9F9F9"/>
<path fill-rule="evenodd" clip-rule="evenodd" d="M24 0H0V2H24V0ZM24 4H0V6H24V4ZM0 8H24V10H0V8ZM24 12H0V14H24V12ZM0 16H24V18H0V16ZM24 20H0V22H24V20Z" fill="#D74B4B"/>
<path d="M0 0H12V12H0V0Z" fill="#485CC2"/>
<path fill-rule="evenodd" clip-rule="evenodd" d="M7.40453 4.40368C7.72086 4.40368 8.0243 4.45749 8.30577 4.55624C7.83204 4.25111 7.2644 4.07349 6.65422 4.07349C4.9968 4.07349 3.6532 5.38404 3.6532 7.0007C3.6532 8.61735 4.9968 9.9279 6.65422 9.9279C7.26465 9.9279 7.83252 9.75013 8.30637 9.44477C8.02473 9.54365 7.72108 9.59754 7.40453 9.59754C5.93411 9.59754 4.74211 8.43485 4.74211 7.00061C4.74211 5.56636 5.93411 4.40368 7.40453 4.40368ZM9.56158 6.80826L10.7939 6.10651L9.42779 6.50863L10.2259 5.35485L9.17396 6.29529L9.37979 4.91801L8.85037 6.21051L8.42317 4.88251L8.52111 6.27106L7.54549 5.25537L8.2514 6.46497L6.92059 5.96275L8.09465 6.75382L6.67224 6.86455L8.08191 7.0804L6.84962 7.78215L8.2157 7.38003L7.4176 8.5338L8.46953 7.59337L8.26369 8.97065L8.79312 7.67815L9.22031 9.00615L9.12237 7.6176L10.098 8.63329L9.39209 7.42369L10.7229 7.9259L9.54884 7.13484L10.9713 7.02411L9.56158 6.80826Z" fill="#F8D74C"/>
</svg>
