<svg width="32" height="24" viewBox="0 0 32 24" fill="none" xmlns="http://www.w3.org/2000/svg">
<rect width="32" height="24" rx="2" fill="#F9F9F9"/>
<path fill-rule="evenodd" clip-rule="evenodd" d="M32 0H0V2H32V0ZM32 4H0V6H32V4ZM0 8H32V10H0V8ZM32 12H0V14H32V12ZM0 16H32V18H0V16ZM32 20H0V22H32V20Z" fill="#D74B4B"/>
<path d="M0 0H16V14H0V0Z" fill="#485CC2"/>
<path fill-rule="evenodd" clip-rule="evenodd" d="M8.12606 3.45142C8.55867 3.45142 8.97364 3.52507 9.35852 3.66021C8.71101 3.24293 7.93502 3 7.10087 3C4.83602 3 3 4.79086 3 7C3 9.20914 4.83602 11 7.10087 11C7.93475 11 8.7105 10.7572 9.35788 10.3402C8.97318 10.4752 8.55843 10.5488 8.12606 10.5488C6.11676 10.5488 4.4879 8.95997 4.4879 7.00009C4.4879 5.04021 6.11676 3.45142 8.12606 3.45142ZM11.0737 6.7372L12.7576 5.77826L10.8909 6.32775L11.9815 4.75113L10.544 6.03623L10.8253 4.15419L10.1019 5.92037L9.51811 4.10567L9.65194 6.00312L8.31877 4.61519L9.28338 6.26809L7.46485 5.58182L9.06918 6.6628L7.12547 6.81412L9.05177 7.10907L7.36786 8.068L9.2346 7.51851L8.14401 9.09513L9.58145 7.81003L9.30018 9.69207L10.0236 7.92589L10.6074 9.74059L10.4736 7.84314L11.8067 9.23108L10.8421 7.57818L12.6607 8.26444L11.0563 7.18347L13 7.03215L11.0737 6.7372Z" fill="#F8D74C"/>
</svg>
