<svg width="24" height="24" viewBox="0 0 24 24" fill="none" xmlns="http://www.w3.org/2000/svg">
<rect width="24" height="24" rx="12" fill="#D74B4B"/>
<path d="M4 12C4 7.58172 7.58172 4 12 4C16.4183 4 20 7.58172 20 12C20 16.4183 16.4183 20 12 20C7.58172 20 4 16.4183 4 12Z" fill="#3FB47C"/>
<path d="M14 9.06001C12.4785 9.33797 11.3333 10.5486 11.3333 12C11.3333 13.4514 12.4785 14.662 14 14.94C13.7846 14.9793 13.5616 15 13.3333 15C11.4924 15 10 13.6569 10 12C10 10.3431 11.4924 9 13.3333 9C13.5616 9 13.7846 9.02066 14 9.06001Z" fill="#F9F9F9"/>
</svg>
