<svg width="24" height="24" viewBox="0 0 24 24" fill="none" xmlns="http://www.w3.org/2000/svg">
<rect width="24" height="24" rx="12" fill="#485CC2"/>
<path d="M0 24L-1.04907e-06 0L8 -3.49691e-07L8 24L0 24Z" fill="#D74B4B"/>
<path d="M16 24L16 0L24 -3.49691e-07L24 24L16 24Z" fill="#D74B4B"/>
<path fill-rule="evenodd" clip-rule="evenodd" d="M3.94358 7.24438L4.02597 7.5727H4.31973L4.01489 8.23043L3.62983 7.5727H3.89929L3.94358 7.24438ZM2.55517 9.75953H1.534V16.7556H2.55517V9.75953ZM5.44481 9.75953H6.46598V16.7556H5.44481V9.75953ZM5.16239 11.654V10.6328H2.805V11.654L5.16239 11.654ZM5.16239 14.2613V15.2825H2.805V14.2613H5.16239ZM3.99753 16.7435L5.16239 15.5431H2.805L3.99753 16.7435ZM4.64133 8.90487C4.64133 9.26819 4.3468 9.56273 3.98347 9.56273C3.62014 9.56273 3.32561 9.26819 3.32561 8.90487C3.32561 8.54154 3.62014 8.247 3.98347 8.247C4.3468 8.247 4.64133 8.54154 4.64133 8.90487ZM3.9837 9.97828C4.5436 9.97828 5.01231 9.5879 5.1325 9.06447C5.15205 9.14961 5.16238 9.23827 5.16238 9.32934C5.16238 9.98031 4.63467 10.508 3.9837 10.508C3.33274 10.508 2.80502 9.98031 2.80502 9.32934C2.80502 9.23827 2.81535 9.14961 2.8349 9.06447C2.95509 9.5879 3.42381 9.97828 3.9837 9.97828ZM4.41844 12.5416C4.41844 12.4529 4.38976 12.3581 4.3515 12.2693C4.31248 12.1787 4.2595 12.0854 4.20218 11.997C4.15311 11.9214 4.09971 11.8477 4.04711 11.7805C4.66859 11.8135 5.16238 12.3279 5.16238 12.9575C5.16238 13.5623 4.70691 14.0607 4.12029 14.1284L4.12396 14.1242C4.05417 14.0631 3.95622 13.9351 3.90021 13.7712C3.84585 13.6121 3.83292 13.4257 3.91645 13.2352C3.9945 13.1192 4.07954 13.0446 4.1632 12.9712L4.1632 12.9712L4.16321 12.9712C4.18092 12.9556 4.19857 12.9401 4.21608 12.9243C4.31605 12.834 4.41844 12.7255 4.41844 12.5416ZM4.00893 12.1224C3.93022 12.0011 3.83953 11.8855 3.76347 11.7994C3.21776 11.9025 2.80502 12.3818 2.80502 12.9575C2.80502 13.554 3.248 14.0469 3.82289 14.1253C3.7687 14.0463 3.71836 13.9515 3.68222 13.8457C3.61239 13.6413 3.59357 13.3896 3.71029 13.1319L3.71406 13.1235L3.71909 13.1159C3.8171 12.9675 3.92982 12.869 4.01607 12.7936L4.0161 12.7936C4.03231 12.7794 4.04759 12.7661 4.06165 12.7534C4.15261 12.6712 4.18808 12.6216 4.18808 12.5416C4.18808 12.4984 4.17298 12.4371 4.13993 12.3604C4.10764 12.2855 4.06177 12.2039 4.00893 12.1224ZM3.98385 12.496C3.98385 12.6514 3.85788 12.7774 3.70249 12.7774C3.5471 12.7774 3.42113 12.6514 3.42113 12.496C3.42113 12.3406 3.5471 12.2146 3.70249 12.2146C3.85788 12.2146 3.98385 12.3406 3.98385 12.496ZM4.62227 13.4855C4.62227 13.6409 4.4963 13.7668 4.34091 13.7668C4.18552 13.7668 4.05955 13.6409 4.05955 13.4855C4.05955 13.3301 4.18552 13.2041 4.34091 13.2041C4.4963 13.2041 4.62227 13.3301 4.62227 13.4855Z" fill="#F8D74C"/>
</svg>
