<svg width="32" height="24" viewBox="0 0 32 24" fill="none" xmlns="http://www.w3.org/2000/svg">
<g clip-path="url(#clip0_440_1343)">
<rect width="32" height="24" rx="2" fill="#485CC2"/>
<path d="M0 24L-1.04907e-06 0L10.6667 -4.66255e-07L10.6667 24L0 24Z" fill="#D74B4B"/>
<path d="M21.3333 24L21.3333 0L32 -4.66255e-07L32 24L21.3333 24Z" fill="#D74B4B"/>
<path fill-rule="evenodd" clip-rule="evenodd" d="M5.42395 7.51074L5.54097 7.97709H5.95755L5.52527 8.90978L4.97924 7.97709H5.36104L5.42395 7.51074ZM3.45588 11.0766H2.00833V20.9938H3.45588V11.0766ZM7.55207 11.0766H8.99962V20.9938H7.55207V11.0766ZM7.1517 13.7624V12.3148H3.81003L3.81003 13.7624L7.1517 13.7624ZM7.1517 17.4581V18.9056H3.81003L3.81003 17.4581H7.1517ZM5.50047 20.9768L7.1517 19.2753H3.81003L5.50047 20.9768ZM6.41374 9.86505C6.41374 10.3803 5.99607 10.7979 5.48086 10.7979C4.96565 10.7979 4.54798 10.3803 4.54798 9.86505C4.54798 9.34983 4.96565 8.93217 5.48086 8.93217C5.99607 8.93217 6.41374 9.34983 6.41374 9.86505ZM5.48086 11.3866C6.27453 11.3866 6.93894 10.8333 7.10932 10.0913C7.13704 10.212 7.15168 10.3377 7.15168 10.4668C7.15168 11.3896 6.40363 12.1376 5.48086 12.1376C4.5581 12.1376 3.81005 11.3896 3.81005 10.4668C3.81005 10.3377 3.82469 10.212 3.8524 10.0913C4.02279 10.8333 4.6872 11.3866 5.48086 11.3866ZM6.09728 15.0206C6.09728 14.8949 6.05663 14.7605 6.00239 14.6346C5.94708 14.5062 5.87197 14.3739 5.79073 14.2487C5.72109 14.1413 5.64531 14.0367 5.57067 13.9415C6.45168 13.9881 7.15168 14.7173 7.15168 15.6099C7.15168 16.467 6.50628 17.1734 5.67495 17.2696L5.67985 17.264C5.58091 17.1774 5.44207 16.996 5.36267 16.7636C5.28562 16.5381 5.26729 16.2738 5.3857 16.0038C5.49633 15.8394 5.61687 15.7336 5.73546 15.6295L5.73547 15.6295L5.7355 15.6295C5.7606 15.6075 5.78561 15.5855 5.81043 15.5631C5.95215 15.4351 6.09728 15.2814 6.09728 15.0206ZM5.51679 14.4264C5.40513 14.2543 5.27645 14.0903 5.16859 13.9682C4.39507 14.1145 3.81005 14.7939 3.81005 15.6099C3.81005 16.4553 4.43795 17.1541 5.25285 17.2653C5.17612 17.1534 5.10484 17.019 5.05366 16.8692C4.95468 16.5795 4.928 16.2227 5.09345 15.8573L5.09879 15.8455L5.10593 15.8347C5.24486 15.6243 5.40465 15.4847 5.52691 15.3778L5.52693 15.3778L5.52695 15.3778C5.54993 15.3577 5.57158 15.3388 5.59152 15.3208C5.72046 15.2043 5.77073 15.134 5.77073 15.0206C5.77073 14.9593 5.74934 14.8725 5.70249 14.7638C5.65671 14.6575 5.5917 14.5419 5.51679 14.4264ZM5.48129 14.9557C5.48129 15.1761 5.30268 15.3547 5.08234 15.3547C4.862 15.3547 4.68339 15.1761 4.68339 14.9557C4.68339 14.7354 4.862 14.5568 5.08234 14.5568C5.30268 14.5568 5.48129 14.7354 5.48129 14.9557ZM6.38632 16.3587C6.38632 16.579 6.2077 16.7576 5.98737 16.7576C5.76703 16.7576 5.58841 16.579 5.58841 16.3587C5.58841 16.1383 5.76703 15.9597 5.98737 15.9597C6.2077 15.9597 6.38632 16.1383 6.38632 16.3587Z" fill="#F8D74C"/>
</g>
<defs>
<clipPath id="clip0_440_1343">
<rect width="32" height="24" rx="2" fill="white"/>
</clipPath>
</defs>
</svg>
