<svg width="24" height="24" viewBox="0 0 24 24" fill="none" xmlns="http://www.w3.org/2000/svg">
<g clip-path="url(#clip0_440_1341)">
<rect width="24" height="24" rx="2" fill="#485CC2"/>
<path d="M0 24L-1.04907e-06 0L8 -3.49691e-07L8 24L0 24Z" fill="#D74B4B"/>
<path fill-rule="evenodd" clip-rule="evenodd" d="M3.95869 9.51318L4.05813 9.90949H4.41254L4.04473 10.7031L3.58013 9.90949H3.90523L3.95869 9.51318ZM2.2835 12.5477H1.05139V20.9889H2.2835V12.5477ZM5.77003 12.5477H7.00214V20.9889H5.77003V12.5477ZM5.42926 14.8337V13.6016H2.58493V14.8337L5.42926 14.8337ZM5.42926 17.9795V19.2116H2.58493V17.9795H5.42926ZM4.02378 20.9744L5.42926 19.5261H2.58493L4.02378 20.9744ZM4.80057 11.5166C4.80057 11.955 4.44519 12.3104 4.00681 12.3104C3.56844 12.3104 3.21306 11.955 3.21306 11.5166C3.21306 11.0782 3.56844 10.7229 4.00681 10.7229C4.44519 10.7229 4.80057 11.0782 4.80057 11.5166ZM4.00709 12.8119C4.68266 12.8119 5.24821 12.3409 5.3932 11.7093C5.41678 11.812 5.42924 11.919 5.42924 12.0288C5.42924 12.8142 4.79252 13.451 4.00709 13.451C3.22166 13.451 2.58495 12.8142 2.58495 12.0288C2.58495 11.919 2.59741 11.812 2.62098 11.7093C2.76598 12.3409 3.33152 12.8119 4.00709 12.8119ZM4.53164 15.905C4.53164 15.7979 4.49703 15.6835 4.45087 15.5764C4.4038 15.4671 4.33986 15.3545 4.27072 15.2479C4.21144 15.1565 4.14694 15.0675 4.08341 14.9864C4.83336 15.0261 5.42924 15.6468 5.42924 16.4066C5.42924 17.1362 4.87981 17.7375 4.17213 17.8193L4.17634 17.8144C4.09212 17.7408 3.97395 17.5863 3.90636 17.3886C3.84078 17.1966 3.82518 16.9717 3.92596 16.7418C4.02013 16.6019 4.12273 16.5118 4.22367 16.4233L4.22367 16.4232C4.24505 16.4045 4.26635 16.3858 4.28748 16.3667C4.4081 16.2577 4.53164 16.1269 4.53164 15.905ZM4.03754 15.3992C3.94252 15.2527 3.83301 15.1131 3.7412 15.0092C3.08285 15.1338 2.58495 15.712 2.58495 16.4066C2.58495 17.1261 3.11934 17.7209 3.81289 17.8156C3.74757 17.7203 3.68691 17.6059 3.64335 17.4784C3.5591 17.2319 3.53639 16.9281 3.67721 16.6171L3.68176 16.6071L3.68783 16.5979C3.80609 16.4188 3.94209 16.2999 4.04616 16.209C4.06573 16.1919 4.08417 16.1758 4.10115 16.1605C4.2109 16.0613 4.25369 16.0014 4.25369 15.905C4.25369 15.8528 4.23548 15.7789 4.19561 15.6864C4.15664 15.5959 4.1013 15.4975 4.03754 15.3992ZM4.00727 15.85C4.00727 16.0375 3.85528 16.1894 3.66779 16.1894C3.48031 16.1894 3.32832 16.0375 3.32832 15.85C3.32832 15.6625 3.48031 15.5105 3.66779 15.5105C3.85528 15.5105 4.00727 15.6625 4.00727 15.85ZM4.77758 17.0438C4.77758 17.2313 4.62559 17.3833 4.43811 17.3833C4.25062 17.3833 4.09863 17.2313 4.09863 17.0438C4.09863 16.8564 4.25062 16.7044 4.43811 16.7044C4.62559 16.7044 4.77758 16.8564 4.77758 17.0438Z" fill="#F8D74C"/>
<path d="M16 24L16 0L24 -3.49691e-07L24 24L16 24Z" fill="#D74B4B"/>
</g>
<defs>
<clipPath id="clip0_440_1341">
<rect width="24" height="24" rx="2" fill="white"/>
</clipPath>
</defs>
</svg>
