<svg width="24" height="24" viewBox="0 0 24 24" fill="none" xmlns="http://www.w3.org/2000/svg">
<rect width="24" height="24" rx="2" fill="#F9F9F9"/>
<path fill-rule="evenodd" clip-rule="evenodd" d="M14 13L0 0V24H14L5.67568 13H14Z" fill="#D74B4B"/>
<path fill-rule="evenodd" clip-rule="evenodd" d="M14 13L0 0V24H14L5.67568 13H14ZM11.587 22.8L3.26269 11.8H10.9442L1.2 2.75186V22.8H11.587Z" fill="#485CC2"/>
<path fill-rule="evenodd" clip-rule="evenodd" d="M2.07246 8.10764C2.14686 9.17653 3.03754 10.0205 4.12534 10.0205C5.21315 10.0205 6.10382 9.17653 6.17822 8.10764C6.20864 8.24988 6.22465 8.39747 6.22465 8.54879C6.22465 9.70821 5.28476 10.6481 4.12534 10.6481C2.96592 10.6481 2.02603 9.70821 2.02603 8.54879C2.02603 8.39747 2.04204 8.24988 2.07246 8.10764Z" fill="#F9F9F9"/>
<path d="M4.11325 8.00244L4.37635 8.50554L4.84311 8.18233L4.84226 8.75007L5.40576 8.6808L5.14117 9.18312L5.67232 9.38365L5.26042 9.75435L5.50191 9.99436L5.01801 10.1975L4.84311 10.4364L4.62415 10.5464H3.60236L3.3834 10.3344L3.2085 10.1975L2.82075 10.1299L3.02191 9.70547L2.55419 9.38365L3.08533 9.18312L2.82075 8.6808L3.38424 8.75007L3.3834 8.18233L3.85016 8.50554L4.11325 8.00244Z" fill="#F9F9F9"/>
<path d="M4.12534 15.383L4.37654 16.4631L5.10094 15.6234L4.82139 16.6966L5.85304 16.2897L5.10679 17.1101L6.20935 17.2292L5.16734 17.6088L6.08823 18.2267L4.98919 18.0786L5.51744 19.0536L4.61314 18.4117L4.62774 19.5206L4.12534 18.5319L3.62294 19.5206L3.63754 18.4117L2.73324 19.0536L3.26149 18.0786L2.16245 18.2267L3.08334 17.6088L2.04134 17.2292L3.1439 17.1101L2.39764 16.2897L3.42929 16.6966L3.14974 15.6234L3.87414 16.4631L4.12534 15.383Z" fill="#F9F9F9"/>
</svg>
