<svg width="32" height="24" viewBox="0 0 32 24" fill="none" xmlns="http://www.w3.org/2000/svg">
<rect width="32" height="24" rx="2" fill="#F9F9F9"/>
<path fill-rule="evenodd" clip-rule="evenodd" d="M18 13L0 0V24H18L7.2973 13H18Z" fill="#D74B4B"/>
<path fill-rule="evenodd" clip-rule="evenodd" d="M18 13L0 0V24H18L7.2973 13H18ZM15.1582 22.8L4.45545 11.8H14.2889L1.2 2.34691V22.8H15.1582Z" fill="#485CC2"/>
<path fill-rule="evenodd" clip-rule="evenodd" d="M2.08094 7.88536C2.16888 9.14965 3.22235 10.148 4.50899 10.148C5.79562 10.148 6.84909 9.14965 6.93703 7.88536C6.97301 8.05359 6.99194 8.22813 6.99194 8.4071C6.99194 9.7784 5.88029 10.8901 4.50899 10.8901C3.13769 10.8901 2.02603 9.7784 2.02603 8.4071C2.02603 8.22814 2.04496 8.05359 2.08094 7.88536Z" fill="#F9F9F9"/>
<path d="M4.49469 15.0138L4.79009 16.284L5.64194 15.2965L5.3132 16.5585L6.52636 16.0801L5.64881 17.0447L6.94535 17.1849L5.72002 17.6312L6.80293 18.3578L5.51053 18.1836L6.13172 19.3303L5.06831 18.5754L5.08548 19.8794L4.49469 18.7168L3.9039 19.8794L3.92107 18.5754L2.85767 19.3303L3.47886 18.1836L2.18645 18.3578L3.26936 17.6312L2.04403 17.1849L3.34057 17.0447L2.46302 16.0801L3.67618 16.5585L3.34745 15.2965L4.1993 16.284L4.49469 15.0138Z" fill="#F9F9F9"/>
<path d="M4.49469 7.76074L4.80587 8.35578L5.35793 7.97351L5.35693 8.645L6.0234 8.56307L5.71046 9.15718L6.33867 9.39437L5.90857 9.8456L6.13712 10.1167L5.56479 10.3569L5.35793 10.6395L5.09896 10.7696H3.89043L3.63146 10.5188L3.42459 10.3569L2.96598 10.277L3.20391 9.775L2.65071 9.39437L3.27892 9.15718L2.96598 8.56307L3.63246 8.645L3.63146 7.97351L4.18352 8.35578L4.49469 7.76074Z" fill="#F9F9F9"/>
</svg>
