<svg width="24" height="24" viewBox="0 0 24 24" fill="none" xmlns="http://www.w3.org/2000/svg">
<g clip-path="url(#clip0_440_1323)">
<rect width="24" height="24" rx="12" fill="#F9F9F9"/>
<path fill-rule="evenodd" clip-rule="evenodd" d="M4.74983 0L0 6.44922e-05V5.50006L-3 9.75006L2 26.0001H18L6.58537 13.0001H16L4.74983 0Z" fill="#D74B4B"/>
<path fill-rule="evenodd" clip-rule="evenodd" d="M16 13.0001L4.74983 0L0 6.44922e-05V5.50006L-3 9.75006L2 26.0001H18L6.58537 13.0001H16ZM15.3494 24.8001L3.93477 11.8001H13.3746L4.20136 1.20001L1.2 1.20005V5.88093L-1.67972 9.96053L2.88629 24.8001H15.3494Z" fill="#485CC2"/>
<path fill-rule="evenodd" clip-rule="evenodd" d="M6.21812 2.64028C3.08519 4.57992 1 8.04667 1 12C1 18.0736 5.92234 22.9975 11.9953 23C12.3645 22.993 12.944 22.9675 13.4823 22.9142C13.7529 22.8873 14.0053 22.8542 14.2117 22.8146C14.4345 22.772 14.5506 22.7312 14.5865 22.7112L15.0722 23.5854C14.8853 23.6892 14.631 23.7525 14.3999 23.7968C14.1524 23.8442 13.8673 23.8809 13.581 23.9093C13.0076 23.9661 12.3978 23.9927 12.0093 23.9999L12 24.0001V24C5.37258 24 0 18.6274 0 12C0 7.68609 2.2767 3.90432 5.69172 1.79004L6.21812 2.64028Z" fill="#485CC2"/>
<path fill-rule="evenodd" clip-rule="evenodd" d="M3.34781 6.99518C3.42221 8.06407 4.31288 8.90809 5.40069 8.90809C6.48849 8.90809 7.37916 8.06407 7.45357 6.99518C7.48399 7.13742 7.5 7.28501 7.5 7.43633C7.5 8.59575 6.5601 9.53564 5.40069 9.53564C4.24127 9.53564 3.30138 8.59575 3.30138 7.43633C3.30138 7.28501 3.31739 7.13742 3.34781 6.99518Z" fill="#F9F9F9"/>
<path d="M5.3886 6.88989L5.65169 7.39299L6.11845 7.06979L6.11761 7.63752L6.68111 7.56825L6.41652 8.07057L6.94766 8.2711L6.53576 8.6418L6.77726 8.88181L6.29336 9.08491L6.11845 9.32384L5.8995 9.43384H4.8777L4.65875 9.22183L4.48384 9.08491L4.09609 9.01732L4.29726 8.59292L3.82954 8.2711L4.36068 8.07057L4.09609 7.56825L4.65959 7.63752L4.65875 7.06979L5.12551 7.39299L5.3886 6.88989Z" fill="#F9F9F9"/>
<path d="M5.40069 15.6101L5.62982 16.5953L6.29057 15.8294L6.03558 16.8083L6.97659 16.4372L6.2959 17.1854L7.30159 17.2941L6.35114 17.6403L7.19111 18.204L6.18864 18.0688L6.67048 18.9582L5.84563 18.3727L5.85894 19.3842L5.40069 18.4824L4.94243 19.3842L4.95575 18.3727L4.1309 18.9582L4.61274 18.0688L3.61026 18.204L4.45024 17.6403L3.49979 17.2941L4.50547 17.1854L3.82479 16.4372L4.76579 16.8083L4.51081 15.8294L5.17156 16.5953L5.40069 15.6101Z" fill="#F9F9F9"/>
</g>
<defs>
<clipPath id="clip0_440_1323">
<rect width="24" height="24" rx="12" fill="white"/>
</clipPath>
</defs>
</svg>
