<svg width="32" height="24" viewBox="0 0 32 24" fill="none" xmlns="http://www.w3.org/2000/svg">
<g clip-path="url(#clip0_440_1321)">
<rect width="32" height="24" rx="2" fill="#D74B4B"/>
<path d="M0 20H32V24H0V20Z" fill="#485CC2"/>
<path d="M0 0H32V4H0V0Z" fill="#485CC2"/>
<path fill-rule="evenodd" clip-rule="evenodd" d="M14.976 16.0183C16.2041 15.1073 17 13.6466 17 12C17 11.4829 16.9215 10.9841 16.7758 10.515L13.8762 12.6263L14.976 16.0183ZM14.9314 16.051L12.0522 13.9544L9.12118 16.0886C9.93513 16.6628 10.9282 17 12 17C13.095 17 14.1078 16.648 14.9314 16.051ZM9.10848 16.0796C7.83254 15.1736 7 13.684 7 12C7 9.23858 9.23858 7 12 7C12.0174 7 12.0347 7.00009 12.0521 7.00027L10.9248 10.4772H7.27667L10.2281 12.6263L9.10848 16.0796ZM12.0522 7.00027L13.1795 10.4772H16.7639C16.1248 8.4762 14.2599 7.02287 12.0522 7.00027Z" fill="#F9F9F9"/>
<path d="M0 4H32V5H0V4Z" fill="#F9F9F9"/>
<path d="M0 19H32V20H0V19Z" fill="#F9F9F9"/>
</g>
<defs>
<clipPath id="clip0_440_1321">
<rect width="32" height="24" rx="2" fill="white"/>
</clipPath>
</defs>
</svg>
