<svg width="24" height="24" viewBox="0 0 24 24" fill="none" xmlns="http://www.w3.org/2000/svg">
<g clip-path="url(#clip0_440_1319)">
<rect width="24" height="24" rx="2" fill="#D74B4B"/>
<path d="M0 20H24V24H0V20Z" fill="#485CC2"/>
<path d="M0 0H24V4H0V0Z" fill="#485CC2"/>
<path d="M0 4H24V5H0V4Z" fill="#F9F9F9"/>
<path d="M0 19H24V20H0V19Z" fill="#F9F9F9"/>
<path fill-rule="evenodd" clip-rule="evenodd" d="M11.976 16.0183C13.2041 15.1073 14 13.6466 14 12C14 11.4829 13.9215 10.9841 13.7758 10.515L10.8762 12.6263L11.976 16.0183ZM11.9314 16.051L9.05215 13.9544L6.12118 16.0886C6.93513 16.6628 7.92818 17 9 17C10.095 17 11.1078 16.648 11.9314 16.051ZM6.10848 16.0796C4.83254 15.1736 4 13.684 4 12C4 9.23858 6.23858 7 9 7C9.01738 7 9.03473 7.00009 9.05207 7.00027L7.92482 10.4772H4.27667L7.22808 12.6263L6.10848 16.0796ZM9.05224 7.00027L10.1795 10.4772H13.7639C13.1248 8.4762 11.2599 7.02287 9.05224 7.00027Z" fill="#F9F9F9"/>
</g>
<defs>
<clipPath id="clip0_440_1319">
<rect width="24" height="24" rx="2" fill="white"/>
</clipPath>
</defs>
</svg>
