<svg width="24" height="24" viewBox="0 0 24 24" fill="none" xmlns="http://www.w3.org/2000/svg">
<g clip-path="url(#clip0_440_1302)">
<rect width="24" height="24" rx="12" fill="#F9F9F9"/>
<path d="M0 16H24V24H0V16Z" fill="#3FB47C"/>
<path d="M0 24H10.0039V16H24V8H10.0039V0H0V24Z" fill="#D74B4B"/>
<path d="M5.99998 2L6.22988 4.21705L7.6219 2.47624L6.61667 4.46563L8.72888 3.75375L6.80768 4.88387L8.96945 5.42694L6.74224 5.33898L8.26723 6.96458L6.44114 5.68646L6.84518 7.87848L5.99998 5.816L5.15478 7.87848L5.55882 5.68646L3.73273 6.96458L5.25772 5.33898L3.03052 5.42694L5.19229 4.88387L3.27109 3.75375L5.38329 4.46563L4.37806 2.47624L5.77009 4.21705L5.99998 2Z" fill="#F9F9F9"/>
</g>
<defs>
<clipPath id="clip0_440_1302">
<rect width="24" height="24" rx="12" fill="white"/>
</clipPath>
</defs>
</svg>
