<svg width="32" height="24" viewBox="0 0 32 24" fill="none" xmlns="http://www.w3.org/2000/svg">
<g clip-path="url(#clip0_440_1315)">
<rect width="32" height="24" rx="2" fill="#F9F9F9"/>
<path d="M0 16H32V24H0V16Z" fill="#3FB47C"/>
<path d="M0 24H8V16H32V8H8V0H0V24Z" fill="#D74B4B"/>
<path d="M3.99998 1L4.22988 3.21705L5.6219 1.47624L4.61667 3.46563L6.72888 2.75375L4.80768 3.88387L6.96945 4.42694L4.74224 4.33898L6.26723 5.96458L4.44114 4.68646L4.84518 6.87848L3.99998 4.816L3.15478 6.87848L3.55882 4.68646L1.73273 5.96458L3.25772 4.33898L1.03052 4.42694L3.19229 3.88387L1.27109 2.75375L3.38329 3.46563L2.37806 1.47624L3.77009 3.21705L3.99998 1Z" fill="#F9F9F9"/>
</g>
<defs>
<clipPath id="clip0_440_1315">
<rect width="32" height="24" rx="2" fill="white"/>
</clipPath>
</defs>
</svg>
