<svg width="32" height="24" viewBox="0 0 32 24" fill="none" xmlns="http://www.w3.org/2000/svg">
<rect width="32" height="24" rx="2" fill="#F9F9F9"/>
<path d="M8 0H32V24H8V0Z" fill="#377649"/>
<path d="M16.4472 8.75693C17.3059 7.89823 18.4058 7.42769 19.5288 7.34532C17.7556 7.12477 15.9028 7.69518 14.5414 9.05656C12.1983 11.3997 12.1983 15.1987 14.5414 17.5418C16.8846 19.885 20.6836 19.885 23.0267 17.5418C24.388 16.1805 24.9584 14.3278 24.738 12.5546C24.6556 13.6776 24.185 14.7774 23.3264 15.6361C21.4267 17.5357 18.3468 17.5357 16.4472 15.6361C14.5476 13.7364 14.5476 10.6566 16.4472 8.75693Z" fill="#F9F9F9"/>
<path d="M23.634 6.70028L21.4202 6.35694L23.0094 7.93595L21.9987 9.9353L23.9915 8.91183L25.5807 10.4908L25.2232 8.27929L27.216 7.25582L25.0022 6.91248L24.6446 4.70093L23.634 6.70028Z" fill="#F9F9F9"/>
</svg>
