<svg width="24" height="24" viewBox="0 0 24 24" fill="none" xmlns="http://www.w3.org/2000/svg">
<rect width="24" height="24" rx="2" fill="#F9F9F9"/>
<path d="M6 0H24V24H6V0Z" fill="#377649"/>
<path d="M12.3625 9.59233C13 8.95486 13.8165 8.60555 14.6502 8.5444C13.3338 8.38067 11.9584 8.80412 10.9477 9.81476C9.20826 11.5542 9.20826 14.3745 10.9477 16.1139C12.6872 17.8534 15.5074 17.8534 17.2469 16.1139C18.2575 15.1033 18.681 13.7279 18.5173 12.4116C18.4561 13.2452 18.1068 14.0617 17.4694 14.6991C16.0591 16.1094 13.7727 16.1094 12.3625 14.6992C10.9523 13.2889 10.9523 11.0025 12.3625 9.59233Z" fill="#F9F9F9"/>
<path d="M17.6977 8.06555L16.0543 7.81066L17.234 8.98286L16.4838 10.4671L17.9632 9.70732L19.1429 10.8795L18.8775 9.23775L20.3569 8.47796L18.7134 8.22307L18.448 6.5813L17.6977 8.06555Z" fill="#F9F9F9"/>
</svg>
