<svg width="24" height="24" viewBox="0 0 24 24" fill="none" xmlns="http://www.w3.org/2000/svg">
<g clip-path="url(#clip0_440_1294)">
<rect width="24" height="24" rx="2" fill="#D74B4B"/>
<path d="M0 0H24V12H0V0Z" fill="#485CC2"/>
<path d="M0 24L2.86197e-07 0L14 12L0 24Z" fill="#F9F9F9"/>
<path fill-rule="evenodd" clip-rule="evenodd" d="M4.59957 10.4249L4.59957 9.39019L4.80905 9.18072L4.80905 10.3677C4.85191 10.3573 4.89543 10.3486 4.93954 10.3416V9.05023L5.25203 8.73774L5.57396 9.05967V10.3656C5.61818 10.3761 5.6617 10.3884 5.70445 10.4024V9.19016L5.90448 9.39019V10.4249L6.63607 9.69327H6.91911L6.04979 10.5626C6.08761 10.5859 6.1244 10.6106 6.16009 10.6368L7.10365 9.69327H7.55878V10.1353L6.58953 11.1045C6.61305 11.1431 6.63502 11.1827 6.65534 11.2233L7.55878 10.3198V10.616L6.82721 11.3476H7.8618L8.07116 11.5569H6.77878C6.78946 11.5998 6.79845 11.6433 6.80566 11.6874H8.20165L8.51426 12L8.19244 12.3218H6.78519C6.77496 12.366 6.76293 12.4096 6.74919 12.4523H8.06195L7.8618 12.6525H6.82717L7.55874 13.384V13.6802L6.62262 12.7441C6.60083 12.7833 6.57747 12.8215 6.55262 12.8586L7.55874 13.8648V14.3067H7.10361L6.10448 13.3076C6.06741 13.3325 6.02926 13.3559 5.99012 13.3778L6.91906 14.3067H6.63603L5.90448 13.5752V14.6098L5.70445 14.8099L5.70445 13.503C5.6617 13.517 5.61818 13.5293 5.57396 13.5398L5.57396 14.9403L5.25203 15.2623L4.93954 14.9498L4.93954 13.5638C4.89543 13.5568 4.85191 13.5481 4.80905 13.5377L4.80905 14.8193L4.59957 14.6098L4.59957 13.5752L3.86796 14.3068H3.57179L4.46655 13.412C4.42598 13.3917 4.38637 13.3698 4.34781 13.3462L3.38725 14.3068H2.94525L2.94525 13.8517L3.88014 12.9168C3.85395 12.8811 3.82917 12.8443 3.80589 12.8065L2.94525 13.6671V13.3841L3.67689 12.6525H2.64217L2.44203 12.4523H3.6428C3.62906 12.4096 3.61703 12.366 3.60681 12.3218H2.31154L1.98972 12L2.30232 11.6874H3.58633C3.59354 11.6433 3.60253 11.5998 3.61321 11.5569H2.43282L2.64217 11.3476H3.67685L2.94521 10.6159V10.3329L3.77089 11.1586C3.79275 11.1194 3.81617 11.0813 3.84108 11.0442L2.94521 10.1484V9.69321H3.3872L4.29006 10.5961C4.32719 10.5712 4.3654 10.5479 4.4046 10.5261L3.57174 9.69321H3.86792L4.59957 10.4249Z" fill="#F8D74C"/>
<path d="M1.28261 3.29608L1.98972 3.66933L2.5299 3.12915L2.42673 3.90002L3.13384 4.27327L2.36297 4.37644L2.25981 5.14731L1.88655 4.4402L1.11569 4.54336L1.65587 4.00318L1.28261 3.29608Z" fill="#F8D74C"/>
<path d="M2.6968 19.2899L2.32354 19.997L2.86372 20.5372L2.09285 20.434L1.7196 21.1411L1.61643 20.3702L0.845566 20.2671L1.55267 19.8938L1.44951 19.123L1.98969 19.6631L2.6968 19.2899Z" fill="#F8D74C"/>
<path d="M11 11L11.2361 11.7639H12L11.382 12.2361L11.618 13L11 12.5279L10.382 13L10.618 12.2361L10 11.7639H10.7639L11 11Z" fill="#F8D74C"/>
</g>
<defs>
<clipPath id="clip0_440_1294">
<rect width="24" height="24" rx="2" fill="white"/>
</clipPath>
</defs>
</svg>
