<svg width="32" height="24" viewBox="0 0 32 24" fill="none" xmlns="http://www.w3.org/2000/svg">
<g clip-path="url(#clip0_440_1295)">
<rect width="32" height="24" rx="2" fill="#D74B4B"/>
<path d="M0 0H32V12H0V0Z" fill="#485CC2"/>
<path d="M0 24L2.86197e-07 0L18 12L0 24Z" fill="#F9F9F9"/>
<path fill-rule="evenodd" clip-rule="evenodd" d="M4.98975 9.58582L4.98975 8.00001L5.31079 7.67896L5.31079 9.49827C5.37648 9.48229 5.44319 9.4689 5.51079 9.45822V7.47896L5.98975 7.00001L6.48316 7.49342L6.48316 9.49495C6.55093 9.51103 6.61764 9.52987 6.68316 9.55135V7.69342L6.98975 8.00001L6.98975 9.58583L8.11104 8.46453H8.54463L7.21232 9.79684C7.27029 9.83251 7.32668 9.87048 7.38139 9.91062L8.82747 8.46453H9.52526V9.14188L8.03968 10.6275C8.07573 10.6865 8.10939 10.7473 8.14054 10.8094L9.52526 9.42472V9.87875L8.40399 11H9.98969L10.3107 11.3211H8.32981C8.34618 11.3867 8.35994 11.4534 8.371 11.5211H10.5107L10.9897 12L10.4963 12.4934H8.33955C8.32387 12.5612 8.30543 12.6279 8.28436 12.6934H10.2963L9.98969 13H8.40393L9.5252 14.1213V14.5753L8.0904 13.1405C8.057 13.2006 8.02119 13.2591 7.98311 13.3161L9.5252 14.8581V15.5355H8.82741L7.29616 14.0042C7.23934 14.0424 7.18087 14.0783 7.12088 14.1118L8.54457 15.5355H8.11098L6.98975 14.4143L6.98975 16L6.68316 16.3066V14.3036C6.61764 14.3251 6.55093 14.344 6.48316 14.36L6.48316 16.5066L5.98975 17L5.51079 16.5211L5.51079 14.3968C5.44319 14.3861 5.37648 14.3727 5.31079 14.3567L5.31079 16.3211L4.98975 16L4.98975 14.4143L3.86843 15.5356H3.4144L4.78581 14.1642C4.72363 14.133 4.66292 14.0994 4.60383 14.0633L3.13156 15.5356H2.45421V14.8378L3.88699 13.405C3.84685 13.3503 3.80888 13.2939 3.77321 13.236L2.45421 14.5549V14.1214L3.57557 13H1.98969L1.6831 12.6934H3.52338C3.50232 12.6279 3.48388 12.5612 3.4682 12.4934H1.4831L0.989689 12L1.46864 11.5211H3.43675C3.4478 11.4534 3.46157 11.3867 3.47793 11.3211H1.66864L1.98969 11H3.57551L2.45415 9.87865V9.44507L3.71958 10.7105C3.75307 10.6505 3.78897 10.592 3.82714 10.5352L2.45415 9.16222V8.46444H3.1315L4.51532 9.84826C4.57223 9.81018 4.63079 9.77437 4.69087 9.74097L3.41434 8.46444H3.86837L4.98975 9.58582Z" fill="#F8D74C"/>
<path d="M1.28261 3.29608L1.98972 3.66933L2.5299 3.12915L2.42673 3.90002L3.13384 4.27327L2.36297 4.37644L2.25981 5.14731L1.88655 4.4402L1.11569 4.54336L1.65587 4.00318L1.28261 3.29608Z" fill="#F8D74C"/>
<path d="M2.6968 19.2899L2.32354 19.997L2.86372 20.5372L2.09285 20.434L1.7196 21.1411L1.61643 20.3702L0.845566 20.2671L1.55267 19.8938L1.44951 19.123L1.98969 19.6631L2.6968 19.2899Z" fill="#F8D74C"/>
<path d="M15 11L15.2361 11.7639H16L15.382 12.2361L15.618 13L15 12.5279L14.382 13L14.618 12.2361L14 11.7639H14.7639L15 11Z" fill="#F8D74C"/>
</g>
<defs>
<clipPath id="clip0_440_1295">
<rect width="32" height="24" rx="2" fill="white"/>
</clipPath>
</defs>
</svg>
