<svg width="24" height="24" viewBox="0 0 24 24" fill="none" xmlns="http://www.w3.org/2000/svg">
<g clip-path="url(#clip0_440_1293)">
<rect width="24" height="24" rx="12" fill="#D74B4B"/>
<path d="M0 0H24V12H0V0Z" fill="#485CC2"/>
<path d="M0 24L2.86197e-07 0L14 12L0 24Z" fill="#F9F9F9"/>
<path fill-rule="evenodd" clip-rule="evenodd" d="M4.59957 10.4249L4.59957 9.39019L4.80904 9.18072L4.80904 10.3677C4.8519 10.3573 4.89542 10.3486 4.93953 10.3416L4.93953 9.05023L5.25202 8.73774L5.57396 9.05967L5.57396 10.3656C5.61818 10.3761 5.6617 10.3884 5.70445 10.4024L5.70445 9.19016L5.90448 9.39019V10.4249L6.63607 9.69327H6.91911L6.04979 10.5626C6.0876 10.5859 6.1244 10.6106 6.16008 10.6368L7.10365 9.69327H7.55878V10.1353L6.58953 11.1045C6.61305 11.1431 6.63501 11.1827 6.65533 11.2233L7.55878 10.3198V10.616L6.82721 11.3476H7.8618L8.07116 11.5569H6.77878C6.78946 11.5998 6.79844 11.6433 6.80566 11.6874H8.20165L8.51425 12L8.19244 12.3218H6.78518C6.77496 12.366 6.76293 12.4096 6.74919 12.4523H8.06194L7.8618 12.6525H6.82717L7.55874 13.384V13.6802L6.62262 12.7441C6.60082 12.7833 6.57746 12.8215 6.55262 12.8586L7.55874 13.8648V14.3067H7.1036L6.10448 13.3076C6.06741 13.3325 6.02926 13.3559 5.99012 13.3778L6.91906 14.3067H6.63603L5.90448 13.5752V14.6098L5.70445 14.8099L5.70445 13.503C5.6617 13.517 5.61818 13.5293 5.57396 13.5398L5.57396 14.9403L5.25202 15.2623L4.93953 14.9498L4.93953 13.5638C4.89542 13.5568 4.8519 13.5481 4.80904 13.5377L4.80904 14.8193L4.59957 14.6098L4.59957 13.5752L3.86796 14.3068H3.57178L4.46655 13.412C4.42597 13.3917 4.38636 13.3698 4.34781 13.3462L3.38724 14.3068H2.94525L2.94525 13.8517L3.88013 12.9168C3.85394 12.8811 3.82917 12.8443 3.80589 12.8065L2.94525 13.6671V13.3841L3.67688 12.6525H2.64217L2.44202 12.4523H3.6428C3.62906 12.4096 3.61703 12.366 3.6068 12.3218H2.31153L1.98972 12L2.30232 11.6874H3.58633C3.59354 11.6433 3.60253 11.5998 3.61321 11.5569H2.43281L2.64217 11.3476H3.67684L2.94521 10.6159V10.3329L3.77089 11.1586C3.79275 11.1194 3.81617 11.0813 3.84107 11.0442L2.94521 10.1484V9.69321H3.38719L4.29005 10.5961C4.32719 10.5712 4.36539 10.5479 4.4046 10.5261L3.57173 9.69321H3.86792L4.59957 10.4249Z" fill="#F8D74C"/>
<path d="M3.28261 5.29608L3.98971 5.66933L4.5299 5.12915L4.42673 5.90002L5.13384 6.27327L4.36297 6.37644L4.2598 7.14731L3.88655 6.4402L3.11568 6.54336L3.65586 6.00318L3.28261 5.29608Z" fill="#F8D74C"/>
<path d="M4.69679 17.2899L4.32354 17.997L4.86372 18.5372L4.09285 18.434L3.71959 19.1411L3.61643 18.3702L2.84556 18.2671L3.55267 17.8938L3.4495 17.123L3.98969 17.6631L4.69679 17.2899Z" fill="#F8D74C"/>
<path d="M11 11L11.2361 11.7639H12L11.382 12.2361L11.618 13L11 12.5279L10.382 13L10.618 12.2361L10 11.7639H10.7639L11 11Z" fill="#F8D74C"/>
</g>
<defs>
<clipPath id="clip0_440_1293">
<rect width="24" height="24" rx="12" fill="white"/>
</clipPath>
</defs>
</svg>
