<svg width="24" height="24" viewBox="0 0 24 24" fill="none" xmlns="http://www.w3.org/2000/svg">
<rect width="24" height="24" rx="2" fill="#3FB47C"/>
<path fill-rule="evenodd" clip-rule="evenodd" d="M15.3526 14.0867H16.1894V15.3419H17.0333V15.3357H17.6455C18.2249 15.3357 18.6946 15.8054 18.6946 16.3849C18.6946 16.9643 18.2249 17.434 17.6455 17.434H17.2706C17.1395 17.434 17.0333 17.3277 17.0333 17.1967V16.1787H16.1894V17.434H15.3526V16.1787H6.14219C5.68002 16.1787 5.30536 15.8041 5.30536 15.3419H15.3526V14.0867Z" fill="#F9F9F9"/>
<path fill-rule="evenodd" clip-rule="evenodd" d="M12.8422 10.4934C13.0965 10.6872 13.4141 10.8022 13.7585 10.8022C14.5945 10.8022 15.2722 10.1245 15.2722 9.28855V6.59072H14.0975V9.28855C14.0975 9.47574 13.9457 9.62749 13.7585 9.62749C13.6077 9.62749 13.4799 9.52901 13.4359 9.39286C13.4383 9.3584 13.4395 9.32361 13.4395 9.28855V6.59072H13.4196V6.56592H12.2448V9.28855C12.2448 9.32361 12.246 9.3584 12.2484 9.39286C12.2044 9.52901 12.0766 9.62749 11.9258 9.62749C11.7386 9.62749 11.5869 9.47574 11.5869 9.28855V6.56592H10.4121L10.4121 11.056L10.4134 11.0755C10.4387 11.4574 10.5672 12.0234 10.8911 12.5125C11.2303 13.0248 11.8 13.4666 12.6465 13.4666V12.2918C12.2731 12.2918 12.0397 12.1194 11.8706 11.8639C11.6907 11.5922 11.6053 11.2477 11.5869 11.0154V10.7641C11.6958 10.7891 11.8093 10.8022 11.9258 10.8022C12.2702 10.8022 12.5878 10.6872 12.8422 10.4934ZM6.68691 6.59071V11.0154C6.66848 11.2477 6.58312 11.5922 6.40321 11.8639C6.23405 12.1194 6.00067 12.2918 5.62728 12.2918C4.84708 12.2918 4.65859 12.0535 4.61891 11.9927L3.44415 11.9927C3.44415 12.7199 4.23937 13.4666 5.62728 13.4666C6.40321 13.4666 7.04352 13.0248 7.38271 12.5125C7.54184 12.2722 7.6538 12.0133 7.72954 11.7668H9.56552V10.592H7.86167V6.59071H6.68691ZM4.75428 11.0366V6.59071H5.92903V11.0366H4.75428ZM15.8351 11.0366V6.59071H17.0098V11.0366H15.8351ZM17.5727 6.59071V9.07867H18.7474V6.59071H17.5727ZM15.3401 12.2918H13.1132V13.4666H15.3401V12.2918ZM8.54862 9.07867V6.59071H9.72337V9.07867H8.54862ZM19.3812 11.0154V6.59071H20.5559V11.056L20.5546 11.0755C20.5293 11.4574 20.4008 12.0234 20.077 12.5125C19.7378 13.0248 19.168 13.4666 18.3215 13.4666C16.9336 13.4666 16.1384 12.7199 16.1384 11.9927L17.3132 11.9927C17.3525 12.0401 17.5413 12.2918 18.3215 12.2918C18.6949 12.2918 18.9283 12.1194 19.0975 11.8639C19.2774 11.5922 19.3627 11.2477 19.3812 11.0154Z" fill="#F9F9F9"/>
</svg>
