<svg width="32" height="24" viewBox="0 0 32 24" fill="none" xmlns="http://www.w3.org/2000/svg">
<rect width="32" height="24" rx="2" fill="#3FB47C"/>
<path fill-rule="evenodd" clip-rule="evenodd" d="M20.0063 14.4937H21.0063V15.9937H22.0147V15.9863H22.7463C23.4387 15.9863 24 16.5476 24 17.24C24 17.9324 23.4387 18.4937 22.7463 18.4937H22.2983C22.1416 18.4937 22.0147 18.3667 22.0147 18.21V16.9937H21.0063V18.4937H20.0063V16.9937H9C8.44772 16.9937 8 16.5459 8 15.9937H20.0063V14.4937Z" fill="#F9F9F9"/>
<path fill-rule="evenodd" clip-rule="evenodd" d="M17.0063 10.1997C17.3103 10.4312 17.6898 10.5687 18.1014 10.5687C19.1004 10.5687 19.9102 9.75884 19.9102 8.75985V5.53598H18.5064V8.75985C18.5064 8.98354 18.3251 9.16487 18.1014 9.16487C17.9212 9.16487 17.7685 9.0472 17.7159 8.8845C17.7187 8.84331 17.7201 8.80175 17.7201 8.75985V5.53598H17.6964V5.50635H16.2926V8.75985C16.2926 8.80175 16.294 8.84331 16.2968 8.8845C16.2442 9.04719 16.0915 9.16487 15.9113 9.16487C15.6876 9.16487 15.5063 8.98354 15.5063 8.75985V5.50635H14.1025V10.872L14.104 10.8952C14.1343 11.3516 14.2878 12.028 14.6748 12.6124C15.0801 13.2246 15.761 13.7525 16.7725 13.7525V12.3487C16.3263 12.3487 16.0475 12.1427 15.8453 11.8374C15.6303 11.5127 15.5283 11.101 15.5063 10.8234V10.5232C15.6365 10.5529 15.7721 10.5687 15.9113 10.5687C16.3229 10.5687 16.7024 10.4312 17.0063 10.1997ZM9.65092 5.53598V10.8234C9.6289 11.101 9.52689 11.5127 9.31191 11.8374C9.10975 12.1427 8.83088 12.3487 8.38468 12.3487C7.45235 12.3487 7.22711 12.0639 7.17969 11.9912L5.77588 11.9912C5.77587 12.8602 6.72615 13.7525 8.38468 13.7525C9.31191 13.7525 10.0771 13.2246 10.4824 12.6124C10.6725 12.3252 10.8063 12.0158 10.8968 11.7213H13.0908V10.3175H11.0547V5.53598H9.65092ZM7.34146 10.8487V5.53598H8.74527V10.8487H7.34146ZM20.5828 10.8487V5.53598H21.9866V10.8487H20.5828ZM22.6592 5.53598V8.50904H24.063V5.53598H22.6592ZM19.9913 12.3487H17.3302V13.7525H19.9913V12.3487ZM11.8756 8.50904V5.53598H13.2794V8.50904H11.8756ZM24.8203 10.8234V5.53598H26.2242V10.872L26.2226 10.8952C26.1924 11.3516 26.0388 12.028 25.6518 12.6124C25.2465 13.2246 24.5656 13.7525 23.5541 13.7525C21.8956 13.7525 20.9453 12.8602 20.9453 11.9912L22.3491 11.9912C22.3961 12.0479 22.6218 12.3487 23.5541 12.3487C24.0003 12.3487 24.2792 12.1427 24.4813 11.8374C24.6963 11.5127 24.7983 11.101 24.8203 10.8234Z" fill="#F9F9F9"/>
</svg>
