<svg width="24" height="24" viewBox="0 0 24 24" fill="none" xmlns="http://www.w3.org/2000/svg">
<rect width="24" height="24" rx="2" fill="#F9F9F9"/>
<path d="M0 0H24V12H0V0Z" fill="#D74B4B"/>
<path d="M7 2.08001C5.09813 2.45063 3.66667 4.06483 3.66667 6C3.66667 7.93517 5.09813 9.54937 7 9.91999C6.73074 9.97246 6.45205 10 6.16667 10C3.86548 10 2 8.20914 2 6C2 3.79086 3.86548 2 6.16667 2C6.45205 2 6.73074 2.02754 7 2.08001Z" fill="#F9F9F9"/>
<path fill-rule="evenodd" clip-rule="evenodd" d="M10.5786 2.58545L10.8593 3.44918H11.7674L11.0327 3.98299L11.3133 4.84672L10.5786 4.31291L9.84388 4.84672L10.1245 3.98299L9.38979 3.44918H10.298L10.5786 2.58545ZM8.18884 4.37378L8.46949 5.23751H9.37766L8.64293 5.77132L8.92357 6.63505L8.18884 6.10124L7.45411 6.63505L7.73475 5.77132L7.00002 5.23751H7.9082L8.18884 4.37378ZM13.2652 5.23751L12.9846 4.37378L12.7039 5.23751H11.7957L12.5305 5.77132L12.2498 6.63505L12.9846 6.10124L13.7193 6.63505L13.4386 5.77132L14.1734 5.23751H13.2652ZM12.0905 7.15356L12.3711 8.01729H13.2793L12.5445 8.55111L12.8252 9.41484L12.0905 8.88102L11.3557 9.41484L11.6364 8.55111L10.9016 8.01729H11.8098L12.0905 7.15356ZM9.37989 8.01729L9.09924 7.15356L8.8186 8.01729H7.91042L8.64515 8.55111L8.36451 9.41484L9.09924 8.88102L9.83397 9.41484L9.55333 8.55111L10.2881 8.01729H9.37989Z" fill="#F9F9F9"/>
</svg>
