<svg width="24" height="24" viewBox="0 0 24 24" fill="none" xmlns="http://www.w3.org/2000/svg">
<rect width="24" height="24" rx="12" fill="#F9F9F9"/>
<path d="M0 0H24V12H0V0Z" fill="#D74B4B"/>
<path d="M8.1119 2.79396C6.55646 3.09706 5.38573 4.41724 5.38573 5.99992C5.38573 7.5826 6.55646 8.90278 8.1119 9.20588C7.89169 9.2488 7.66376 9.27133 7.43036 9.27133C5.54833 9.27133 4.02264 7.80667 4.02264 5.99992C4.02264 4.19317 5.54833 2.72852 7.43036 2.72852C7.66376 2.72852 7.89169 2.75104 8.1119 2.79396Z" fill="#F9F9F9"/>
<path fill-rule="evenodd" clip-rule="evenodd" d="M11.0387 3.20724L11.2682 3.91364H12.011L11.4101 4.35022L11.6396 5.05662L11.0387 4.62004L10.4378 5.05662L10.6673 4.35022L10.0664 3.91364H10.8091L11.0387 3.20724ZM9.0842 4.66983L9.31372 5.37623H10.0565L9.45557 5.81281L9.6851 6.51921L9.0842 6.08263L8.4833 6.51921L8.71282 5.81281L8.11192 5.37623H8.85467L9.0842 4.66983ZM13.2359 5.37623L13.0064 4.66983L12.7769 5.37623H12.0341L12.635 5.81281L12.4055 6.51921L13.0064 6.08263L13.6073 6.51921L13.3778 5.81281L13.9787 5.37623H13.2359ZM12.2751 6.94328L12.5047 7.64968H13.2474L12.6465 8.08626L12.876 8.79266L12.2751 8.35608L11.6742 8.79266L11.9038 8.08626L11.3029 7.64968H12.0456L12.2751 6.94328ZM10.0583 7.64968L9.82877 6.94328L9.59925 7.64968H8.85649L9.45739 8.08626L9.22787 8.79266L9.82877 8.35608L10.4297 8.79266L10.2001 8.08626L10.801 7.64968H10.0583Z" fill="#F9F9F9"/>
</svg>
