<svg width="24" height="24" viewBox="0 0 24 24" fill="none" xmlns="http://www.w3.org/2000/svg">
<rect width="24" height="24" rx="12" fill="#F9F9F9"/>
<path d="M16.1558 11.9997C16.1558 14.3473 14.2528 16.2504 11.9052 16.2504C9.5576 16.2504 7.65452 14.3473 7.65452 11.9997C7.65452 9.65214 9.5576 7.74905 11.9052 7.74905C14.2528 7.74905 16.1558 9.65214 16.1558 11.9997Z" fill="#485CC2"/>
<path fill-rule="evenodd" clip-rule="evenodd" d="M8.18969 9.93333C7.97963 10.7117 7.92582 12.3114 9.32811 12.8035C10.7556 13.3044 11.6759 12.4488 11.9576 11.9584C12.2811 11.5201 13.2098 10.7438 14.3367 11.1445C15.4637 11.5452 15.7454 12.4174 15.7454 12.8035V13.8243C16.0086 13.2714 16.1558 12.6528 16.1558 11.9997C16.1558 9.65214 14.2528 7.74905 11.9052 7.74905C10.3076 7.74905 8.9159 8.63037 8.18969 9.93333Z" fill="#D74B4B"/>
<path fill-rule="evenodd" clip-rule="evenodd" d="M2.99997 8.66305L5.46458 5.14331L6.01204 5.52666L3.54743 9.0464L2.99997 8.66305ZM3.95853 9.23549L6.42314 5.71575L6.9706 6.0991L4.50599 9.61884L3.95853 9.23549ZM7.2967 6.27289L4.83209 9.79263L5.37955 10.176L7.84416 6.65624L7.2967 6.27289Z" fill="#333333"/>
<path fill-rule="evenodd" clip-rule="evenodd" d="M21 8.66307L19.9322 7.13813L19.3806 7.51553L20.4526 9.04642L21 8.66307ZM18.5354 5.14333L19.5489 6.59064L18.9972 6.96804L17.988 5.52668L18.5354 5.14333ZM20.0415 9.23551L17.5769 5.71577L17.0294 6.09912L19.494 9.61886L20.0415 9.23551ZM17.6071 8.72887L18.6205 10.176L19.1679 9.79265L18.1588 8.35147L17.6071 8.72887ZM17.7754 7.80398L17.2238 8.18138L16.1558 6.65625L16.7033 6.27291L17.7754 7.80398Z" fill="#333333"/>
<path fill-rule="evenodd" clip-rule="evenodd" d="M19.9322 16.8622L21 15.3373L20.4526 14.9539L19.3806 16.4848L19.9322 16.8622ZM19.5489 17.4097L18.5354 18.857L17.988 18.4737L18.9972 17.0323L19.5489 17.4097ZM17.6071 15.2715L18.6205 13.8243L19.1679 14.2077L18.1588 15.6489L17.6071 15.2715ZM17.7754 16.1964L17.2238 15.819L16.1558 17.3441L16.7033 17.7274L17.7754 16.1964ZM20.0415 14.7648L19.0131 16.2334L18.4615 15.856L19.494 14.3815L20.0415 14.7648ZM17.5769 18.2846L18.6298 16.7809L18.0781 16.4035L17.0294 17.9012L17.5769 18.2846Z" fill="#333333"/>
<path fill-rule="evenodd" clip-rule="evenodd" d="M2.99998 15.3373L5.46459 18.857L6.01206 18.4737L3.54744 14.9539L2.99998 15.3373ZM4.8321 14.2077L7.29671 17.7274L7.84417 17.3441L5.37956 13.8243L4.8321 14.2077ZM3.95854 14.7648L4.98688 16.2334L5.5385 15.856L4.50601 14.3815L3.95854 14.7648ZM6.42316 18.2846L5.37025 16.7809L5.92187 16.4035L6.97062 17.9012L6.42316 18.2846Z" fill="#333333"/>
</svg>
