<svg width="32" height="24" viewBox="0 0 32 24" fill="none" xmlns="http://www.w3.org/2000/svg">
<rect width="32" height="24" rx="2" fill="#F9F9F9"/>
<path d="M22.0416 12C22.0416 15.3137 19.3553 18 16.0416 18C12.7279 18 10.0416 15.3137 10.0416 12C10.0416 8.68629 12.7279 6 16.0416 6C19.3553 6 22.0416 8.68629 22.0416 12Z" fill="#485CC2"/>
<path fill-rule="evenodd" clip-rule="evenodd" d="M10.7969 9.08343C10.5005 10.1823 10.4249 12.4398 12.404 13.1344C14.4189 13.8414 15.718 12.6337 16.1157 11.9414C16.5723 11.3228 17.8831 10.227 19.4739 10.7926C21.0646 11.3582 21.4623 12.5894 21.4623 13.1344V14.5755C21.8337 13.7951 22.0416 12.9218 22.0416 12C22.0416 8.68629 19.3553 6 16.0416 6C13.7865 6 11.822 7.24412 10.7969 9.08343Z" fill="#D74B4B"/>
<path fill-rule="evenodd" clip-rule="evenodd" d="M3.47156 7.29005L6.95046 2.32178L7.72323 2.86289L4.24432 7.83116L3.47156 7.29005ZM4.82458 8.09791L8.30349 3.12964L9.07626 3.67075L5.59735 8.63902L4.82458 8.09791ZM9.53658 3.91626L6.05768 8.88453L6.83044 9.42564L10.3094 4.45737L9.53658 3.91626Z" fill="#333333"/>
<path fill-rule="evenodd" clip-rule="evenodd" d="M28.8794 7.29005L27.3721 5.13741L26.5934 5.67013L28.1067 7.83116L28.8794 7.29005ZM25.4005 2.32178L26.8309 4.3646L26.0523 4.89731L24.6277 2.86289L25.4005 2.32178ZM27.5264 8.09791L24.0475 3.12964L23.2747 3.67075L26.7536 8.63902L27.5264 8.09791ZM24.0901 7.38282L25.5205 9.42564L26.2933 8.88453L24.8687 6.8501L24.0901 7.38282ZM24.3276 6.07729L23.549 6.61001L22.0416 4.45737L22.8144 3.91626L24.3276 6.07729Z" fill="#333333"/>
<path fill-rule="evenodd" clip-rule="evenodd" d="M27.3721 18.8636L28.8794 16.7109L28.1067 16.1698L26.5934 18.3308L27.3721 18.8636ZM26.8309 19.6364L25.4005 21.6792L24.6277 21.1381L26.0523 19.1037L26.8309 19.6364ZM24.0901 16.6182L25.5205 14.5753L26.2933 15.1164L24.8687 17.1509L24.0901 16.6182ZM24.3276 17.9237L23.549 17.391L22.0416 19.5436L22.8144 20.0847L24.3276 17.9237ZM27.5264 15.9031L26.0748 17.9761L25.2962 17.4433L26.7536 15.362L27.5264 15.9031ZM24.0475 20.8713L25.5337 18.7489L24.755 18.2161L23.2747 20.3302L24.0475 20.8713Z" fill="#333333"/>
<path fill-rule="evenodd" clip-rule="evenodd" d="M3.47153 16.7109L6.95044 21.6792L7.7232 21.1381L4.2443 16.1698L3.47153 16.7109ZM6.05765 15.1164L9.53656 20.0847L10.3093 19.5436L6.83042 14.5753L6.05765 15.1164ZM4.82458 15.9031L6.27613 17.9761L7.05478 17.4433L5.59735 15.362L4.82458 15.9031ZM8.30349 20.8713L6.81728 18.7489L7.59592 18.2161L9.07626 20.3302L8.30349 20.8713Z" fill="#333333"/>
</svg>
