<svg width="24" height="24" viewBox="0 0 24 24" fill="none" xmlns="http://www.w3.org/2000/svg">
<rect width="24" height="24" rx="2" fill="#F9F9F9"/>
<path d="M16.6402 11.9995C16.6402 14.6207 14.5153 16.7456 11.8941 16.7456C9.27294 16.7456 7.14805 14.6207 7.14805 11.9995C7.14805 9.37831 9.27294 7.25342 11.8941 7.25342C14.5153 7.25342 16.6402 9.37831 16.6402 11.9995Z" fill="#485CC2"/>
<path fill-rule="evenodd" clip-rule="evenodd" d="M7.74549 9.69249C7.51103 10.5617 7.4512 12.3474 9.01669 12.8968C10.6105 13.4561 11.6381 12.5008 11.9527 11.9532C12.3139 11.4638 13.3508 10.597 14.6091 11.0444C15.8674 11.4918 16.1819 12.4657 16.1819 12.8968V14.0368C16.4758 13.4195 16.6402 12.7287 16.6402 11.9995C16.6402 9.37831 14.5153 7.25342 11.8941 7.25342C10.1103 7.25342 8.5563 8.23755 7.74549 9.69249Z" fill="#D74B4B"/>
<path fill-rule="evenodd" clip-rule="evenodd" d="M1.95102 8.27396L4.70289 4.34399L5.31416 4.77202L2.56229 8.70199L1.95102 8.27396ZM3.02129 8.91299L5.77315 4.98302L6.38442 5.41105L3.63256 9.34102L3.02129 8.91299ZM6.74854 5.60525L3.99668 9.53522L4.60795 9.96325L7.35981 6.03328L6.74854 5.60525Z" fill="#333333"/>
<path fill-rule="evenodd" clip-rule="evenodd" d="M22.049 8.27396L20.8567 6.5712L20.2408 6.99258L21.4377 8.70199L22.049 8.27396ZM19.2971 4.34399L20.4286 5.95989L19.8127 6.38128L18.6859 4.77202L19.2971 4.34399ZM20.9787 8.91299L18.2268 4.98302L17.6156 5.41105L20.3674 9.34102L20.9787 8.91299ZM18.2606 8.34735L19.3921 9.96325L20.0033 9.53522L18.8765 7.92596L18.2606 8.34735ZM18.4484 7.31465L17.8325 7.73604L16.6402 6.03328L17.2515 5.60525L18.4484 7.31465Z" fill="#333333"/>
<path fill-rule="evenodd" clip-rule="evenodd" d="M20.8567 17.4288L22.049 15.726L21.4377 15.298L20.2408 17.0074L20.8567 17.4288ZM20.4286 18.0401L19.2971 19.656L18.6859 19.228L19.8127 17.6187L20.4286 18.0401ZM18.2606 15.6527L19.3921 14.0368L20.0033 14.4648L18.8765 16.074L18.2606 15.6527ZM18.4484 16.6853L17.8325 16.264L16.6402 17.9667L17.2515 18.3947L18.4484 16.6853ZM20.9787 15.087L19.8305 16.7268L19.2146 16.3054L20.3674 14.659L20.9787 15.087ZM18.2268 19.017L19.4025 17.3381L18.7865 16.9167L17.6156 18.589L18.2268 19.017Z" fill="#333333"/>
<path fill-rule="evenodd" clip-rule="evenodd" d="M1.95102 15.726L4.70288 19.656L5.31415 19.228L2.56229 15.298L1.95102 15.726ZM3.99668 14.4648L6.74854 18.3947L7.35981 17.9667L4.60795 14.0368L3.99668 14.4648ZM3.02131 15.087L4.1695 16.7268L4.78542 16.3054L3.63258 14.659L3.02131 15.087ZM5.77317 19.017L4.59755 17.3381L5.21347 16.9167L6.38444 18.589L5.77317 19.017Z" fill="#333333"/>
</svg>
