<svg width="32" height="24" viewBox="0 0 32 24" fill="none" xmlns="http://www.w3.org/2000/svg">
<g clip-path="url(#clip0_440_1277)">
<rect width="32" height="24" rx="2" fill="#962122"/>
<path d="M1 0H5V24H1V0Z" fill="#3FB47C"/>
<path d="M5 0H9V24H5V0Z" fill="#E77D42"/>
<path fill-rule="evenodd" clip-rule="evenodd" d="M30 1H2C1.44771 1 1 1.44772 1 2V22C1 22.5523 1.44772 23 2 23H30C30.5523 23 31 22.5523 31 22V2C31 1.44772 30.5523 1 30 1ZM2 0C0.895431 0 0 0.89543 0 2V22C0 23.1046 0.895431 24 2 24H30C31.1046 24 32 23.1046 32 22V2C32 0.895431 31.1046 0 30 0H2Z" fill="#F8D74C"/>
<path fill-rule="evenodd" clip-rule="evenodd" d="M13.32 6.76722C13.32 5.83166 14.0784 5.07324 15.014 5.07324L15.014 14.7864H17.1791L17.8698 14.2019L17.6336 13.5361V11.6258H16.1257V9.50244C16.1257 8.95016 16.5734 8.50244 17.1257 8.50244H19.2108C19.2581 8.2248 19.4571 7.7137 19.9743 7.41602C20.2391 7.55203 20.7688 7.97439 20.7688 8.57568H20.7478V11.5986H25.9526C25.953 11.4211 25.9879 11.2374 26.0329 11.0727H21.2781V8.63403H27.6393V9.63403H22.2781V10.0727H27.5773L27.2055 10.7998L27.2039 10.803L27.1964 10.8182C27.1896 10.8322 27.1793 10.8537 27.1667 10.8812C27.1414 10.9366 27.1077 11.0144 27.0742 11.1032C27.0012 11.2967 26.9526 11.4829 26.9526 11.6016H26.9479L27.6766 13.0086L26.9464 15.8164L25.8174 16.9091V18.0018H25.8085V18.927H23.6232V17.897H24.7874V15.8164H21.7592L20.7379 16.8044L20.737 18.927H18.5516V17.897H19.7078L19.7078 15.8164H15.014V17.0255H13.6896V14.0609H13.32V6.76722Z" fill="#F8D74C"/>
<path d="M9 1H10V23H9V1Z" fill="#F8D74C"/>
<path d="M12.0587 3.04713C12.1891 2.56319 11.9734 2.1474 11.8493 2L11 2.8493C11.3258 3.17507 11.8416 3.11692 12.0587 3.04713Z" fill="#F8D74C"/>
<path d="M29.0405 3.04713C28.9101 2.56319 29.1258 2.1474 29.2499 2L30.0992 2.8493C29.7734 3.17507 29.2576 3.11692 29.0405 3.04713Z" fill="#F8D74C"/>
<path d="M29.0405 21.0544C28.9101 21.5384 29.1258 21.9542 29.2499 22.1016L30.0992 21.2523C29.7734 20.9265 29.2576 20.9846 29.0405 21.0544Z" fill="#F8D74C"/>
<path d="M12.0587 21.0544C12.1891 21.5384 11.9734 21.9542 11.8493 22.1016L11 21.2523C11.3258 20.9265 11.8416 20.9846 12.0587 21.0544Z" fill="#F8D74C"/>
</g>
<defs>
<clipPath id="clip0_440_1277">
<rect width="32" height="24" rx="2" fill="white"/>
</clipPath>
</defs>
</svg>
