<svg width="24" height="24" viewBox="0 0 24 24" fill="none" xmlns="http://www.w3.org/2000/svg">
<g clip-path="url(#clip0_440_1276)">
<rect width="24" height="24" rx="2" fill="#962122"/>
<path d="M1 0H4V24H1V0Z" fill="#3FB47C"/>
<path d="M4 0H7V24H4V0Z" fill="#E77D42"/>
<path d="M7 1H8V23H7V1Z" fill="#F8D74C"/>
<path fill-rule="evenodd" clip-rule="evenodd" d="M22 1H2C1.44772 1 1 1.44772 1 2V22C1 22.5523 1.44772 23 2 23H22C22.5523 23 23 22.5523 23 22V2C23 1.44772 22.5523 1 22 1ZM2 0C0.895431 0 0 0.89543 0 2V22C0 23.1046 0.89543 24 2 24H22C23.1046 24 24 23.1046 24 22V2C24 0.895431 23.1046 0 22 0H2Z" fill="#F8D74C"/>
<path fill-rule="evenodd" clip-rule="evenodd" d="M10 8.29794C10 7.58111 10.5811 7.00001 11.2979 7.00001L11.2979 14.4421H12.9568L13.4861 13.9943L13.3051 13.4842V12.0207H12.1497V10.6276C12.1497 10.0753 12.5974 9.62757 13.1497 9.62757H14.5135C14.5496 9.41489 14.7021 9.0231 15.0985 8.79494C15.3014 8.89915 15.7073 9.22276 15.7073 9.68347H15.6912V11.9997H19.6791C19.6794 11.8637 19.7061 11.7229 19.7406 11.5967H16.0974V9.72819H20.9714V10.4944H16.8636V10.8305H20.9239L20.639 11.3876L20.6378 11.3901L20.6321 11.4017C20.6268 11.4124 20.619 11.4289 20.6093 11.45C20.5899 11.4924 20.5641 11.552 20.5384 11.6201C20.4825 11.7683 20.4453 11.911 20.4453 12.0019H20.4417L21 13.08L20.4405 15.2314H16.4661L15.6836 15.9883L15.6829 17.6146H14.0085V16.8254H14.8943V15.2314H11.2979V16.1578H10.2832V13.8864H10V8.29794ZM20.4405 15.2314L19.5755 16.0687V16.9059H19.5687V17.6146H17.8943V16.8254H18.7863V15.2315L20.4405 15.2314Z" fill="#F8D74C"/>
<path d="M10.0587 3.04713C10.1891 2.56319 9.97342 2.1474 9.8493 2L9 2.8493C9.32577 3.17507 9.84157 3.11692 10.0587 3.04713Z" fill="#F8D74C"/>
<path d="M10.0587 21.0544C10.1891 21.5384 9.97342 21.9542 9.8493 22.1016L9 21.2523C9.32577 20.9265 9.84157 20.9846 10.0587 21.0544Z" fill="#F8D74C"/>
<path d="M21.0404 3.04713C20.9101 2.56319 21.1258 2.1474 21.2499 2L22.0992 2.8493C21.7734 3.17507 21.2576 3.11692 21.0404 3.04713Z" fill="#F8D74C"/>
<path d="M21.0404 21.0544C20.9101 21.5384 21.1258 21.9542 21.2499 22.1016L22.0992 21.2523C21.7734 20.9265 21.2576 20.9846 21.0404 21.0544Z" fill="#F8D74C"/>
</g>
<defs>
<clipPath id="clip0_440_1276">
<rect width="24" height="24" rx="2" fill="white"/>
</clipPath>
</defs>
</svg>
