<svg width="24" height="24" viewBox="0 0 24 24" fill="none" xmlns="http://www.w3.org/2000/svg">
<g clip-path="url(#clip0_440_1275)">
<rect width="24" height="24" rx="12" fill="#962122"/>
<path d="M1 0H4V24H1V0Z" fill="#3FB47C"/>
<path d="M4 0H7V24H4V0Z" fill="#E77D42"/>
<path d="M7 1H8V23H7V1Z" fill="#F8D74C"/>
<path fill-rule="evenodd" clip-rule="evenodd" d="M1 12C1 18.0751 5.92487 23 12 23C18.0751 23 23 18.0751 23 12C23 5.92487 18.0751 1 12 1C5.92487 1 1 5.92487 1 12ZM12 0C5.37258 0 0 5.37258 0 12C0 18.6274 5.37258 24 12 24C18.6274 24 24 18.6274 24 12C24 5.37258 18.6274 0 12 0Z" fill="#F8D74C"/>
<path fill-rule="evenodd" clip-rule="evenodd" d="M10 8.29792C10 7.5811 10.5811 7 11.2979 7L11.2979 14.4421H12.9568L13.4861 13.9943L13.3051 13.4842V12.0207H12.1497V10.6276C12.1497 10.0753 12.5974 9.62756 13.1497 9.62756H14.5135C14.5496 9.41488 14.7021 9.02309 15.0985 8.79492C15.3014 8.89914 15.7073 9.22275 15.7073 9.68346H15.6912V11.9997H19.6791C19.6794 11.8637 19.7061 11.7229 19.7406 11.5967H16.0974V9.72817H20.9714V10.4944H16.8636V10.8305H20.9239L20.639 11.3876L20.6378 11.3901L20.6321 11.4017C20.6268 11.4124 20.619 11.4289 20.6093 11.45C20.5899 11.4924 20.5641 11.552 20.5384 11.6201C20.4825 11.7683 20.4453 11.911 20.4453 12.0019H20.4417L21 13.08L20.4405 15.2314H16.4661L15.6836 15.9883L15.6829 17.6146H14.0085V16.8254H14.8943V15.2313H11.2979V16.1578H10.2832V13.8863H10V8.29792ZM20.4405 15.2314L19.5755 16.0687V16.9059H19.5687V17.6146H17.8943V16.8254H18.7863V15.2314L20.4405 15.2314Z" fill="#F8D74C"/>
<path d="M10.0587 3.04713C10.1891 2.56319 9.97342 2.1474 9.8493 2L9 2.8493C9.32577 3.17507 9.84157 3.11692 10.0587 3.04713Z" fill="#F8D74C"/>
<path d="M10.0587 21.0544C10.1891 21.5384 9.97342 21.9542 9.8493 22.1016L9 21.2523C9.32577 20.9265 9.84157 20.9846 10.0587 21.0544Z" fill="#F8D74C"/>
</g>
<defs>
<clipPath id="clip0_440_1275">
<rect width="24" height="24" rx="12" fill="white"/>
</clipPath>
</defs>
</svg>
