<svg width="24" height="24" viewBox="0 0 24 24" fill="none" xmlns="http://www.w3.org/2000/svg">
<rect width="24" height="24" rx="12" fill="#D74B4B"/>
<path d="M0 0H13V13H0V0Z" fill="#485CC2"/>
<path d="M7.44227 5.06973L7 4L6.55773 5.06972C6.70007 5.03761 6.84807 5.02067 6.99999 5.02067C7.15191 5.02067 7.29993 5.03761 7.44227 5.06973Z" fill="#F9F9F9"/>
<path d="M7.6942 5.14435C7.97718 5.24894 8.23055 5.41563 8.43812 5.6281L8.6386 4.48608L7.6942 5.14435Z" fill="#F9F9F9"/>
<path d="M8.60967 5.82796C8.78723 6.06399 8.9151 6.34027 8.9775 6.64086L9.75696 5.79001L8.60967 5.82796Z" fill="#F9F9F9"/>
<path d="M9.01452 6.90306C9.01852 6.95551 9.02055 7.00853 9.02055 7.06202C9.02055 7.31764 8.97405 7.56228 8.88912 7.78779L10 7.49779L9.01452 6.90306Z" fill="#F9F9F9"/>
<path d="M8.77995 8.02895C8.63804 8.29502 8.43939 8.52563 8.20036 8.70425L9.29056 9.06721L8.77995 8.02895Z" fill="#F9F9F9"/>
<path d="M7.97995 8.84764C7.72561 8.99041 7.43758 9.07932 7.13095 9.09914L7.85389 10L7.97995 8.84764Z" fill="#F9F9F9"/>
<path d="M6.86905 9.09914C6.56242 9.07933 6.27439 8.99042 6.02006 8.84765L6.14611 10L6.86905 9.09914Z" fill="#F9F9F9"/>
<path d="M5.79962 8.70426C5.5606 8.52564 5.36195 8.29504 5.22004 8.02897L4.70944 9.06721L5.79962 8.70426Z" fill="#F9F9F9"/>
<path d="M5.11085 7.78778C5.02593 7.56228 4.97942 7.31763 4.97942 7.06202C4.97942 7.00853 4.98146 6.95553 4.98546 6.90308L4 7.49779L5.11085 7.78778Z" fill="#F9F9F9"/>
<path d="M5.02248 6.64084C5.08489 6.34025 5.21275 6.06399 5.3903 5.82796L4.24304 5.79001L5.02248 6.64084Z" fill="#F9F9F9"/>
<path d="M5.56188 5.62808L5.3614 4.48608L6.30579 5.14434C6.02281 5.24893 5.76945 5.41562 5.56188 5.62808Z" fill="#F9F9F9"/>
<path d="M8.63034 7.062C8.63034 7.97168 7.9004 8.70912 6.99999 8.70912C6.09957 8.70912 5.36964 7.97168 5.36964 7.062C5.36964 6.15232 6.09957 5.41489 6.99999 5.41489C7.9004 5.41489 8.63034 6.15232 8.63034 7.062Z" fill="#F9F9F9"/>
</svg>
