<svg width="32" height="24" viewBox="0 0 32 24" fill="none" xmlns="http://www.w3.org/2000/svg">
<rect width="32" height="24" rx="2" fill="#D74B4B"/>
<path d="M0 0H16V12H0V0Z" fill="#485CC2"/>
<path d="M8.44227 4.06973L8 3L7.55773 4.06972C7.70007 4.03761 7.84807 4.02067 7.99999 4.02067C8.15191 4.02067 8.29993 4.03761 8.44227 4.06973Z" fill="#F9F9F9"/>
<path d="M8.6942 4.14435C8.97718 4.24894 9.23055 4.41563 9.43812 4.6281L9.6386 3.48608L8.6942 4.14435Z" fill="#F9F9F9"/>
<path d="M9.60967 4.82796C9.78723 5.06399 9.9151 5.34027 9.9775 5.64086L10.757 4.79001L9.60967 4.82796Z" fill="#F9F9F9"/>
<path d="M10.0145 5.90306C10.0185 5.95551 10.0206 6.00853 10.0206 6.06202C10.0206 6.31764 9.97405 6.56228 9.88912 6.78779L11 6.49779L10.0145 5.90306Z" fill="#F9F9F9"/>
<path d="M9.77995 7.02895C9.63804 7.29502 9.43939 7.52563 9.20036 7.70425L10.2906 8.06721L9.77995 7.02895Z" fill="#F9F9F9"/>
<path d="M8.97995 7.84764C8.72561 7.99041 8.43758 8.07932 8.13095 8.09914L8.85389 9L8.97995 7.84764Z" fill="#F9F9F9"/>
<path d="M7.86905 8.09914C7.56242 8.07933 7.27439 7.99042 7.02006 7.84765L7.14611 9L7.86905 8.09914Z" fill="#F9F9F9"/>
<path d="M6.79962 7.70426C6.5606 7.52564 6.36195 7.29504 6.22004 7.02897L5.70944 8.06721L6.79962 7.70426Z" fill="#F9F9F9"/>
<path d="M6.11085 6.78778C6.02593 6.56228 5.97942 6.31763 5.97942 6.06202C5.97942 6.00853 5.98146 5.95553 5.98546 5.90308L5 6.49779L6.11085 6.78778Z" fill="#F9F9F9"/>
<path d="M6.02248 5.64084C6.08489 5.34025 6.21275 5.06399 6.3903 4.82796L5.24304 4.79001L6.02248 5.64084Z" fill="#F9F9F9"/>
<path d="M6.56188 4.62808L6.3614 3.48608L7.30579 4.14434C7.02281 4.24893 6.76945 4.41562 6.56188 4.62808Z" fill="#F9F9F9"/>
<path d="M9.63034 6.062C9.63034 6.97168 8.9004 7.70912 7.99999 7.70912C7.09957 7.70912 6.36964 6.97168 6.36964 6.062C6.36964 5.15232 7.09957 4.41489 7.99999 4.41489C8.9004 4.41489 9.63034 5.15232 9.63034 6.062Z" fill="#F9F9F9"/>
</svg>
