<svg width="24" height="24" viewBox="0 0 24 24" fill="none" xmlns="http://www.w3.org/2000/svg">
<rect width="24" height="24" rx="2" fill="#D74B4B"/>
<path d="M0 0H12V12H0V0Z" fill="#485CC2"/>
<path d="M6.44227 4.06973L6 3L5.55773 4.06972C5.70007 4.03761 5.84807 4.02067 5.99999 4.02067C6.15191 4.02067 6.29993 4.03761 6.44227 4.06973Z" fill="#F9F9F9"/>
<path d="M6.6942 4.14435C6.97718 4.24894 7.23055 4.41563 7.43812 4.6281L7.6386 3.48608L6.6942 4.14435Z" fill="#F9F9F9"/>
<path d="M7.60967 4.82796C7.78723 5.06399 7.9151 5.34027 7.9775 5.64086L8.75696 4.79001L7.60967 4.82796Z" fill="#F9F9F9"/>
<path d="M8.01452 5.90306C8.01852 5.95551 8.02055 6.00853 8.02055 6.06202C8.02055 6.31764 7.97405 6.56228 7.88912 6.78779L9 6.49779L8.01452 5.90306Z" fill="#F9F9F9"/>
<path d="M7.77995 7.02895C7.63804 7.29502 7.43939 7.52563 7.20036 7.70425L8.29056 8.06721L7.77995 7.02895Z" fill="#F9F9F9"/>
<path d="M6.97995 7.84764C6.72561 7.99041 6.43758 8.07932 6.13095 8.09914L6.85389 9L6.97995 7.84764Z" fill="#F9F9F9"/>
<path d="M5.86905 8.09914C5.56242 8.07933 5.27439 7.99042 5.02006 7.84765L5.14611 9L5.86905 8.09914Z" fill="#F9F9F9"/>
<path d="M4.79962 7.70426C4.5606 7.52564 4.36195 7.29504 4.22004 7.02897L3.70944 8.06721L4.79962 7.70426Z" fill="#F9F9F9"/>
<path d="M4.11085 6.78778C4.02593 6.56228 3.97942 6.31763 3.97942 6.06202C3.97942 6.00853 3.98146 5.95553 3.98546 5.90308L3 6.49779L4.11085 6.78778Z" fill="#F9F9F9"/>
<path d="M4.02248 5.64084C4.08489 5.34025 4.21275 5.06399 4.3903 4.82796L3.24304 4.79001L4.02248 5.64084Z" fill="#F9F9F9"/>
<path d="M4.56188 4.62808L4.3614 3.48608L5.30579 4.14434C5.02281 4.24893 4.76945 4.41562 4.56188 4.62808Z" fill="#F9F9F9"/>
<path d="M7.63034 6.062C7.63034 6.97168 6.9004 7.70912 5.99999 7.70912C5.09957 7.70912 4.36964 6.97168 4.36964 6.062C4.36964 5.15232 5.09957 4.41489 5.99999 4.41489C6.9004 4.41489 7.63034 5.15232 7.63034 6.062Z" fill="#F9F9F9"/>
</svg>
