<svg width="32" height="24" viewBox="0 0 32 24" fill="none" xmlns="http://www.w3.org/2000/svg">
<g clip-path="url(#clip0_440_1268)">
<rect width="32" height="24" rx="2" fill="#F9F9F9"/>
<path d="M0 16H32V24H0V16Z" fill="#3FB47C"/>
<path d="M0 0H32V8H0V0Z" fill="#D74B4B"/>
<path fill-rule="evenodd" clip-rule="evenodd" d="M16.1536 8.84098L15.9954 8.354L15.8372 8.84098H15.3252L15.7394 9.14194L15.5812 9.62892L15.9954 9.32795L16.4097 9.62892L16.2514 9.14194L16.6657 8.84098H16.1536ZM14.3509 9.29183L14.1926 8.80486L14.0344 9.29183H13.5224L13.9366 9.5928L13.7784 10.0798L14.1926 9.7788L14.6069 10.0798L14.4486 9.5928L14.8629 9.29183H14.3509ZM17.7983 8.80486L17.9565 9.29183H18.4685L18.0543 9.5928L18.2125 10.0798L17.7983 9.7788L17.384 10.0798L17.5423 9.5928L17.128 9.29183H17.64L17.7983 8.80486ZM13.0087 10.6005L12.8505 10.1135L12.6923 10.6005H12.1802L12.5945 10.9015L12.4362 11.3884L12.8505 11.0875L13.2647 11.3884L13.1065 10.9015L13.5207 10.6005H13.0087ZM19.1341 10.1135L19.2923 10.6005H19.8044L19.3901 10.9015L19.5484 11.3884L19.1341 11.0875L18.7199 11.3884L18.8781 10.9015L18.4639 10.6005H18.9759L19.1341 10.1135ZM12.5282 12.428L12.37 11.941L12.2117 12.428H11.6997L12.114 12.729L11.9557 13.2159L12.37 12.915L12.7842 13.2159L12.626 12.729L13.0402 12.428H12.5282ZM19.63 11.941L19.7883 12.428H20.3003L19.8861 12.729L20.0443 13.2159L19.63 12.915L19.2158 13.2159L19.374 12.729L18.9598 12.428H19.4718L19.63 11.941ZM16.7981 11.4383C16.7981 11.5095 16.7888 11.5645 16.7715 11.6066C16.7111 11.5073 16.6018 11.4411 16.4771 11.4411C16.3166 11.4411 16.1817 11.5508 16.1434 11.6993L16.1325 11.6984V13.0592C16.2693 13.2879 16.505 13.4547 16.7896 13.4938C17.2165 13.5524 17.6149 13.3046 17.7627 12.9188C17.7691 12.9871 17.7678 13.0571 17.7581 13.128C17.7566 13.1386 17.755 13.1491 17.7532 13.1596C17.8341 13.473 18.0971 13.722 18.4376 13.7688C18.8233 13.8217 19.1833 13.5979 19.3169 13.2494C19.3227 13.3111 19.3215 13.3744 19.3127 13.4385C19.2509 13.8883 18.8363 14.2028 18.3865 14.1411C17.9974 14.0877 17.7096 13.7702 17.6789 13.3944C17.5134 13.7433 17.136 13.9608 16.7331 13.9054C16.3805 13.857 16.103 13.6126 15.9954 13.2972C15.8879 13.6126 15.6104 13.8571 15.2577 13.9056C14.8549 13.9609 14.4774 13.7434 14.312 13.3945C14.2813 13.7703 13.9934 14.0878 13.6044 14.1412C13.1546 14.2029 12.7399 13.8884 12.6781 13.4386C12.6693 13.3745 12.6682 13.3112 12.674 13.2495C12.8076 13.598 13.1675 13.8219 13.5533 13.7689C13.8938 13.7221 14.1568 13.4731 14.2377 13.1597C14.2359 13.1493 14.2342 13.1387 14.2328 13.1281C14.2231 13.0573 14.2218 12.9873 14.2281 12.9191C14.376 13.3048 14.7743 13.5525 15.2012 13.4939C15.4858 13.4548 15.7215 13.288 15.8584 13.0592V11.7887L15.8584 11.7857L15.8584 11.7827V11.6977L15.8473 11.6985C15.8086 11.5504 15.674 11.4411 15.5138 11.4411C15.3848 11.4411 15.2723 11.512 15.2133 11.617C15.193 11.5737 15.1822 11.5155 15.1822 11.4383C15.1822 10.9921 15.5439 10.6303 15.9901 10.6303C16.4363 10.6303 16.7981 10.9921 16.7981 11.4383ZM19.0098 14.891C17.0272 14.3954 14.9531 14.3954 12.9704 14.891V15.6459C14.9531 15.1503 17.0272 15.1503 19.0098 15.6459V14.891ZM15.9949 13.782C15.8998 13.8523 15.8381 13.9653 15.8381 14.0926C15.8381 14.1272 15.8427 14.1606 15.8512 14.1924C15.8344 14.1852 15.817 14.1791 15.7989 14.1741C15.6761 14.1407 15.5509 14.1704 15.4581 14.2436L15.4578 14.2435C15.5007 14.3538 15.5934 14.443 15.7163 14.4765C15.8136 14.503 15.9124 14.4898 15.9954 14.4468C16.0784 14.4898 16.1772 14.503 16.2745 14.4765C16.3973 14.443 16.4901 14.3539 16.5329 14.2437L16.5329 14.2437L16.5329 14.2437L16.533 14.2435L16.5328 14.2436C16.4399 14.1704 16.3148 14.1406 16.1919 14.1741C16.1734 14.1792 16.1556 14.1855 16.1386 14.1929C16.1471 14.161 16.1517 14.1274 16.1517 14.0927C16.1517 13.9653 16.09 13.8524 15.9949 13.7821V13.782ZM14.3964 13.8926C14.504 13.9418 14.5877 14.0397 14.6139 14.1644C14.621 14.1983 14.6235 14.2321 14.6217 14.2651C14.6369 14.2543 14.653 14.2444 14.6701 14.2357C14.7834 14.1776 14.912 14.1809 15.018 14.2335L14.5671 14.4646L14.5672 14.4647L15.0181 14.2336C14.999 14.3504 14.9266 14.4569 14.8132 14.515C14.7234 14.561 14.624 14.5685 14.5339 14.5435C14.4616 14.6026 14.3676 14.6359 14.2669 14.6299C14.1397 14.6225 14.0305 14.5542 13.9659 14.455L14.4718 14.4848L14.4719 14.4845L13.966 14.4548C14.0417 14.364 14.1581 14.3091 14.2852 14.3166C14.304 14.3177 14.3223 14.3201 14.3402 14.3237C14.3254 14.2944 14.3141 14.2627 14.307 14.229C14.2808 14.1044 14.3179 13.9812 14.3964 13.8928L14.3964 13.8926ZM17.377 14.1644C17.4033 14.0397 17.4869 13.9418 17.5945 13.8926L17.5945 13.8927C17.6731 13.9811 17.7102 14.1044 17.6839 14.229C17.6769 14.2627 17.6656 14.2944 17.6508 14.3237C17.6686 14.3201 17.687 14.3177 17.7057 14.3166C17.8328 14.3091 17.9492 14.364 18.025 14.4548L17.5191 14.4845L17.5191 14.4848L18.025 14.455C17.9604 14.5542 17.8512 14.6225 17.724 14.6299C17.6233 14.6359 17.5294 14.6026 17.457 14.5435C17.3669 14.5685 17.2675 14.561 17.1778 14.515C17.0644 14.4569 16.992 14.3504 16.9728 14.2336L17.4238 14.4647L17.4239 14.4646L16.973 14.2335C17.0789 14.1809 17.2076 14.1776 17.3209 14.2357C17.3379 14.2444 17.3541 14.2543 17.3692 14.2651C17.3674 14.232 17.3699 14.1983 17.377 14.1644Z" fill="#F8D74C"/>
</g>
<defs>
<clipPath id="clip0_440_1268">
<rect width="32" height="24" rx="2" fill="white"/>
</clipPath>
</defs>
</svg>
