<svg width="24" height="24" viewBox="0 0 24 24" fill="none" xmlns="http://www.w3.org/2000/svg">
<g clip-path="url(#clip0_440_1267)">
<rect width="24" height="24" rx="2" fill="#F9F9F9"/>
<path d="M0 16H24V24H0V16Z" fill="#3FB47C"/>
<path d="M0 0H24V8H0V0Z" fill="#D74B4B"/>
<path fill-rule="evenodd" clip-rule="evenodd" d="M12.1536 8.84098L11.9954 8.354L11.8372 8.84098H11.3252L11.7394 9.14194L11.5812 9.62892L11.9954 9.32795L12.4097 9.62892L12.2514 9.14194L12.6657 8.84098H12.1536ZM10.3509 9.29183L10.1926 8.80486L10.0344 9.29183H9.52237L9.93661 9.5928L9.77838 10.0798L10.1926 9.7788L10.6069 10.0798L10.4486 9.5928L10.8629 9.29183H10.3509ZM13.7983 8.80486L13.9565 9.29183H14.4685L14.0543 9.5928L14.2125 10.0798L13.7983 9.7788L13.384 10.0798L13.5423 9.5928L13.128 9.29183H13.64L13.7983 8.80486ZM9.0087 10.6005L8.85048 10.1135L8.69225 10.6005H8.18022L8.59446 10.9015L8.43623 11.3884L8.85048 11.0875L9.26472 11.3884L9.10649 10.9015L9.52074 10.6005H9.0087ZM15.1341 10.1135L15.2923 10.6005H15.8044L15.3901 10.9015L15.5484 11.3884L15.1341 11.0875L14.7199 11.3884L14.8781 10.9015L14.4639 10.6005H14.9759L15.1341 10.1135ZM8.5282 12.428L8.36997 11.941L8.21174 12.428H7.69971L8.11395 12.729L7.95572 13.2159L8.36997 12.915L8.78421 13.2159L8.62599 12.729L9.04023 12.428H8.5282ZM15.63 11.941L15.7883 12.428H16.3003L15.8861 12.729L16.0443 13.2159L15.63 12.915L15.2158 13.2159L15.374 12.729L14.9598 12.428H15.4718L15.63 11.941ZM12.7981 11.4383C12.7981 11.5095 12.7888 11.5645 12.7715 11.6066C12.7111 11.5073 12.6018 11.4411 12.4771 11.4411C12.3166 11.4411 12.1817 11.5508 12.1434 11.6993L12.1325 11.6984V13.0592C12.2693 13.2879 12.505 13.4547 12.7896 13.4938C13.2165 13.5524 13.6149 13.3046 13.7627 12.9188C13.7691 12.9871 13.7678 13.0571 13.7581 13.128C13.7566 13.1386 13.755 13.1491 13.7532 13.1596C13.8341 13.473 14.0971 13.722 14.4376 13.7688C14.8233 13.8217 15.1833 13.5979 15.3169 13.2494C15.3227 13.3111 15.3215 13.3744 15.3127 13.4385C15.2509 13.8883 14.8363 14.2028 14.3865 14.1411C13.9974 14.0877 13.7096 13.7702 13.6789 13.3944C13.5134 13.7433 13.136 13.9608 12.7331 13.9054C12.3805 13.857 12.103 13.6126 11.9954 13.2972C11.8879 13.6126 11.6104 13.8571 11.2577 13.9056C10.8549 13.9609 10.4774 13.7434 10.312 13.3945C10.2813 13.7703 9.9934 14.0878 9.60437 14.1412C9.15459 14.2029 8.7399 13.8884 8.67815 13.4386C8.66935 13.3745 8.66819 13.3112 8.67396 13.2495C8.80758 13.598 9.16752 13.8219 9.55328 13.7689C9.89378 13.7221 10.1568 13.4731 10.2377 13.1597C10.2359 13.1493 10.2342 13.1387 10.2328 13.1281C10.2231 13.0573 10.2218 12.9873 10.2281 12.9191C10.376 13.3048 10.7743 13.5525 11.2012 13.4939C11.4858 13.4548 11.7215 13.288 11.8584 13.0592V11.7887L11.8584 11.7857L11.8584 11.7827V11.6977L11.8473 11.6985C11.8086 11.5504 11.674 11.4411 11.5138 11.4411C11.3848 11.4411 11.2723 11.512 11.2133 11.617C11.193 11.5737 11.1822 11.5155 11.1822 11.4383C11.1822 10.9921 11.5439 10.6303 11.9901 10.6303C12.4363 10.6303 12.7981 10.9921 12.7981 11.4383ZM15.0098 14.891C13.0272 14.3954 10.9531 14.3954 8.97045 14.891V15.6459C10.9531 15.1503 13.0272 15.1503 15.0098 15.6459V14.891ZM11.9949 13.782C11.8998 13.8523 11.8381 13.9653 11.8381 14.0926C11.8381 14.1272 11.8427 14.1606 11.8512 14.1924C11.8344 14.1852 11.817 14.1791 11.7989 14.1741C11.6761 14.1407 11.5509 14.1704 11.4581 14.2436L11.4578 14.2435C11.5007 14.3538 11.5934 14.443 11.7163 14.4765C11.8136 14.503 11.9124 14.4898 11.9954 14.4468C12.0784 14.4898 12.1772 14.503 12.2745 14.4765C12.3973 14.443 12.4901 14.3539 12.5329 14.2437L12.5329 14.2437L12.5329 14.2437L12.533 14.2435L12.5328 14.2436C12.4399 14.1704 12.3148 14.1406 12.1919 14.1741C12.1734 14.1792 12.1556 14.1855 12.1386 14.1929C12.1471 14.161 12.1517 14.1274 12.1517 14.0927C12.1517 13.9653 12.09 13.8524 11.9949 13.7821V13.782ZM10.3964 13.8926C10.504 13.9418 10.5877 14.0397 10.6139 14.1644C10.621 14.1983 10.6235 14.2321 10.6217 14.2651C10.6369 14.2543 10.653 14.2444 10.6701 14.2357C10.7834 14.1776 10.912 14.1809 11.018 14.2335L10.5671 14.4646L10.5672 14.4647L11.0181 14.2336C10.999 14.3504 10.9266 14.4569 10.8132 14.515C10.7234 14.561 10.624 14.5685 10.5339 14.5435C10.4616 14.6026 10.3676 14.6359 10.2669 14.6299C10.1397 14.6225 10.0305 14.5542 9.96592 14.455L10.4718 14.4848L10.4719 14.4845L9.96596 14.4548C10.0417 14.364 10.1581 14.3091 10.2852 14.3166C10.304 14.3177 10.3223 14.3201 10.3402 14.3237C10.3254 14.2944 10.3141 14.2627 10.307 14.229C10.2808 14.1044 10.3179 13.9812 10.3964 13.8928L10.3964 13.8926ZM13.377 14.1644C13.4033 14.0397 13.4869 13.9418 13.5945 13.8926L13.5945 13.8927C13.6731 13.9811 13.7102 14.1044 13.6839 14.229C13.6769 14.2627 13.6656 14.2944 13.6508 14.3237C13.6686 14.3201 13.687 14.3177 13.7057 14.3166C13.8328 14.3091 13.9492 14.364 14.025 14.4548L13.5191 14.4845L13.5191 14.4848L14.025 14.455C13.9604 14.5542 13.8512 14.6225 13.724 14.6299C13.6233 14.6359 13.5294 14.6026 13.457 14.5435C13.3669 14.5685 13.2675 14.561 13.1778 14.515C13.0644 14.4569 12.992 14.3504 12.9728 14.2336L13.4238 14.4647L13.4239 14.4646L12.973 14.2335C13.0789 14.1809 13.2076 14.1776 13.3209 14.2357C13.3379 14.2444 13.3541 14.2543 13.3692 14.2651C13.3674 14.232 13.3699 14.1983 13.377 14.1644Z" fill="#F8D74C"/>
</g>
<defs>
<clipPath id="clip0_440_1267">
<rect width="24" height="24" rx="2" fill="white"/>
</clipPath>
</defs>
</svg>
