<svg width="32" height="24" viewBox="0 0 32 24" fill="none" xmlns="http://www.w3.org/2000/svg">
<g clip-path="url(#clip0_440_1262)">
<rect width="32" height="24" rx="2" fill="#D74B4B"/>
<path d="M16 0H32V24H16V0Z" fill="#485CC2"/>
<path d="M16 11.6702L16 0H6.00778L16 11.6702Z" fill="#485CC2"/>
<path d="M15.9237 11.594L-2.61148 0.686523V6.17834L15.9237 11.594Z" fill="#485CC2"/>
<path d="M15.8474 11.5176H-3.29794V17.0096L15.8474 11.5176Z" fill="#485CC2"/>
<path d="M16 11.6702L16 0H25.9922L16 11.6702Z" fill="#D74B4B"/>
<path d="M16.0763 11.594L34.6115 0.686523V6.17834L16.0763 11.594Z" fill="#D74B4B"/>
<path d="M16.1526 11.5176H35.2979V17.0096L16.1526 11.5176Z" fill="#D74B4B"/>
<path d="M16 5.90137L16.3576 10.3177L18.4805 6.42861L17.0109 10.6085L20.5321 7.91918L17.4894 11.14L21.8 10.1153L17.7104 11.8201L22.0651 12.6373L17.6356 12.5313L21.2815 15.0491L17.2781 13.1506L19.5846 16.9337L16.6995 13.571L17.268 17.9651L16 13.7197L14.7321 17.9651L15.3005 13.571L12.4154 16.9337L14.722 13.1506L10.7185 15.0491L14.3644 12.5313L9.93491 12.6373L14.2896 11.8201L10.2 10.1153L14.5106 11.14L11.4679 7.91918L14.9891 10.6085L13.5195 6.42861L15.6424 10.3177L16 5.90137Z" fill="#F8D74C"/>
<path d="M19.5 12C19.5 13.933 17.933 15.5 16 15.5C14.067 15.5 12.5 13.933 12.5 12C12.5 10.067 14.067 8.5 16 8.5C17.933 8.5 19.5 10.067 19.5 12Z" fill="#F8D74C"/>
<path d="M0 22.0105L16 13.0105L32 22.0105V24.0105H0V22.0105Z" fill="#F9F9F9"/>
<path d="M19.7741 16.8185C19.7913 16.7174 19.8638 16.5313 20.0521 16.4229C20.1485 16.4724 20.3414 16.6262 20.3414 16.8451H20.3337V17.9557H20.0442V17.9722L21.9443 18.5336C22.0142 18.4758 22.1001 18.407 22.1738 18.3483C22.2267 18.3062 22.2752 18.2679 22.3106 18.24L22.3526 18.2069L22.4741 18.1118H23.5351L24.8568 19.5371L24.2858 20.0666L23.1952 18.8905H22.7433L22.696 18.928L22.8564 19.2379L22.6773 19.9267L23.0301 20.5897L22.7575 21.5894L22.2235 21.4644L22.3712 20.8964L21.7919 20.7373L21.4281 19.9167L20.2253 19.5613V20.0734L18.3752 20.3803L18.3412 20.4087L17.8307 19.7984L18.1183 19.5578L18.429 19.9292L19.3285 19.6457L19.1435 19.3827L19.1385 19.4116L17.8879 18.0807H17.5461V17.7057H18.2261L18.2411 17.6964L19.1998 18.3595V17.9557H18.6508V17.5972C18.6508 17.1671 18.9995 16.8185 19.4295 16.8185H19.7741Z" fill="#3FB47C"/>
<path d="M12.193 16.8185C12.1758 16.7174 12.1033 16.5313 11.915 16.4229C11.8185 16.4724 11.6257 16.6262 11.6257 16.8451H11.6333V17.9557H11.9228V17.9722L10.0228 18.5336C9.95284 18.4758 9.86699 18.407 9.79324 18.3483C9.74038 18.3062 9.69182 18.2679 9.65648 18.24L9.6144 18.2069L9.49292 18.1118H8.43191L7.11025 19.5371L7.68124 20.0666L8.7718 18.8905H9.22372L9.27109 18.928L9.11064 19.2379L9.28977 19.9267L8.93695 20.5897L9.20959 21.5894L9.7435 21.4644L9.59582 20.8964L10.1752 20.7373L10.5389 19.9167L11.7418 19.5613V20.0734L13.5919 20.3803L13.6259 20.4087L14.1364 19.7984L13.8487 19.5578L13.5381 19.9292L12.6386 19.6457L12.8235 19.3827L12.8285 19.4116L14.0792 18.0807H14.421V17.7057H13.741L13.726 17.6964L12.7672 18.3595V17.9557H13.3162V17.5972C13.3162 17.1671 12.9676 16.8185 12.5375 16.8185H12.193Z" fill="#3FB47C"/>
<path d="M14.4777 16.6682C14.2525 17.5089 14.7514 18.373 15.5921 18.5983C16.4328 18.8236 17.297 18.3247 17.5223 17.4839C17.7475 16.6432 17.2486 15.7791 16.4079 15.5538C15.5672 15.3285 14.703 15.8274 14.4777 16.6682Z" fill="#485CC2"/>
<path fill-rule="evenodd" clip-rule="evenodd" d="M17.5289 16.6925C17.5294 16.9914 17.3951 17.5693 16.8458 17.611C16.2865 17.6534 16.039 17.2586 15.9852 17.056C15.9114 16.868 15.6533 16.5008 15.2113 16.5362C14.7693 16.5716 14.5847 16.8569 14.5476 16.9952L14.4496 17.3608C14.4084 17.1376 14.4151 16.902 14.4777 16.6682C14.703 15.8274 15.5672 15.3285 16.4079 15.5538C16.98 15.7071 17.3939 16.1561 17.5289 16.6925Z" fill="#E77D42"/>
<path d="M15.5371 17.0096C15.5371 17.1201 15.4476 17.2097 15.3371 17.2097C15.2266 17.2097 15.137 17.1201 15.137 17.0096C15.137 16.8991 15.2266 16.8096 15.3371 16.8096C15.4476 16.8096 15.5371 16.8991 15.5371 17.0096Z" fill="#E77D42"/>
<path d="M16.6532 17.0096C16.6532 17.1201 16.5636 17.2097 16.4531 17.2097C16.3426 17.2097 16.253 17.1201 16.253 17.0096C16.253 16.8991 16.3426 16.8096 16.4531 16.8096C16.5636 16.8096 16.6532 16.8991 16.6532 17.0096Z" fill="#485CC2"/>
<path fill-rule="evenodd" clip-rule="evenodd" d="M30 1H2C1.44771 1 1 1.44772 1 2V22C1 22.5523 1.44772 23 2 23H30C30.5523 23 31 22.5523 31 22V2C31 1.44772 30.5523 1 30 1ZM2 0C0.895431 0 0 0.89543 0 2V22C0 23.1046 0.895431 24 2 24H30C31.1046 24 32 23.1046 32 22V2C32 0.895431 31.1046 0 30 0H2Z" fill="#F8D74C"/>
</g>
<defs>
<clipPath id="clip0_440_1262">
<rect width="32" height="24" rx="2" fill="white"/>
</clipPath>
</defs>
</svg>
