<svg width="24" height="24" viewBox="0 0 24 24" fill="none" xmlns="http://www.w3.org/2000/svg">
<rect width="24" height="24" rx="12" fill="#D74B4B"/>
<mask id="mask0_440_1260" style="mask-type:alpha" maskUnits="userSpaceOnUse" x="0" y="0" width="24" height="24">
<circle cx="12" cy="12" r="12" fill="#D9D9D9"/>
</mask>
<g mask="url(#mask0_440_1260)">
<path d="M12 11.6702V0H2.00778L12 11.6702Z" fill="#485CC2"/>
<path d="M11.9237 11.594L-6.61148 0.686523V6.17834L11.9237 11.594Z" fill="#485CC2"/>
<path d="M11.8474 11.5176H-7.29794V17.0096L11.8474 11.5176Z" fill="#485CC2"/>
<path d="M12 0H24V24H12L12 0Z" fill="#485CC2"/>
<path d="M12 11.6702V0H21.9922L12 11.6702Z" fill="#D74B4B"/>
<path d="M12.0763 11.594L30.6115 0.686523V6.17834L12.0763 11.594Z" fill="#D74B4B"/>
<path d="M12.1526 11.5176H31.298V17.0096L12.1526 11.5176Z" fill="#D74B4B"/>
<path d="M-4.00003 21.729L12 11.5095L28 21.729V24H-4.00003V21.729Z" fill="#F9F9F9"/>
<path d="M15.1896 17.6958C15.2028 17.6185 15.2582 17.4762 15.4022 17.3933C15.4759 17.4312 15.6233 17.5487 15.6233 17.7161H15.6175V18.5652H15.3962V18.5778L16.8488 19.007C16.9023 18.9629 16.9679 18.9103 17.0243 18.8654C17.0647 18.8332 17.1019 18.8039 17.1289 18.7826L17.161 18.7573L17.2539 18.6846H18.0651L19.0756 19.7743L18.639 20.1791L17.8052 19.2799H17.4597L17.4235 19.3086L17.5462 19.5455L17.4092 20.0721L17.679 20.579L17.4705 21.3433L17.0623 21.2478L17.1752 20.8135L16.7323 20.6919L16.4542 20.0645L15.5346 19.7928V20.1843L14.1201 20.4189L14.0941 20.4406L13.7038 19.974L13.9237 19.7901L14.1612 20.074L14.849 19.8573L14.7075 19.6563L14.7037 19.6783L13.7475 18.6608H13.4862V18.3741H14.0061L14.0176 18.367L14.7506 18.8739V18.5652H14.3309V18.2911C14.3309 17.9623 14.5974 17.6958 14.9262 17.6958H15.1896Z" fill="#3FB47C"/>
<path d="M8.65775 17.6958C8.64461 17.6185 8.5892 17.4762 8.44522 17.3933C8.3715 17.4312 8.22406 17.5487 8.22406 17.7161H8.22991V18.5652H8.45123V18.5778L6.99858 19.007C6.94512 18.9629 6.87949 18.9102 6.8231 18.8654C6.78269 18.8332 6.74556 18.8039 6.71855 18.7826L6.68638 18.7573L6.5935 18.6846H5.78232L4.77188 19.7743L5.20842 20.1791L6.04218 19.2799H6.38769L6.42391 19.3086L6.30124 19.5455L6.43818 20.0721L6.16845 20.579L6.37689 21.3433L6.78508 21.2477L6.67217 20.8135L7.11511 20.6918L7.39322 20.0645L8.31282 19.7928V20.1843L9.72729 20.4189L9.75328 20.4406L10.1436 19.974L9.92364 19.79L9.68614 20.074L8.99844 19.8573L9.13985 19.6562L9.14368 19.6783L10.0998 18.6608H10.3612V18.3741H9.84128L9.8298 18.367L9.09681 18.8739V18.5652H9.51653V18.2911C9.51653 17.9623 9.24999 17.6958 8.9212 17.6958H8.65775Z" fill="#3FB47C"/>
<path d="M10.4179 17.6386C10.1926 18.4793 10.6916 19.3435 11.5323 19.5688C12.373 19.794 13.2372 19.2951 13.4624 18.4544C13.6877 17.6137 13.1888 16.7495 12.3481 16.5242C11.5073 16.299 10.6432 16.7979 10.4179 17.6386Z" fill="#485CC2"/>
<path fill-rule="evenodd" clip-rule="evenodd" d="M13.4691 17.663C13.4696 17.9619 13.3353 18.5398 12.7859 18.5815C12.2267 18.6239 11.9792 18.2291 11.9253 18.0265C11.8516 17.8385 11.5935 17.4713 11.1514 17.5067C10.7094 17.5421 10.5248 17.8274 10.4878 17.9657L10.3898 18.3313C10.3486 18.108 10.3552 17.8725 10.4179 17.6386C10.6432 16.7979 11.5073 16.299 12.3481 16.5242C12.9202 16.6776 13.334 17.1266 13.4691 17.663Z" fill="#E77D42"/>
<path d="M11.4773 17.9801C11.4773 18.0906 11.3877 18.1802 11.2772 18.1802C11.1667 18.1802 11.0772 18.0906 11.0772 17.9801C11.0772 17.8696 11.1667 17.78 11.2772 17.78C11.3877 17.78 11.4773 17.8696 11.4773 17.9801Z" fill="#E77D42"/>
<path d="M12.5933 17.9801C12.5933 18.0906 12.5038 18.1802 12.3933 18.1802C12.2828 18.1802 12.1932 18.0906 12.1932 17.9801C12.1932 17.8696 12.2828 17.78 12.3933 17.78C12.5038 17.78 12.5933 17.8696 12.5933 17.9801Z" fill="#485CC2"/>
<path d="M12 7.75049L12.2452 10.7796L13.7013 8.11212L12.6933 10.9791L15.1085 9.13449L13.0215 11.3436L15.9782 10.6408L13.1731 11.8101L16.16 12.3706L13.1218 12.2979L15.6225 14.0249L12.8766 12.7227L14.4587 15.3175L12.4798 13.011L12.8697 16.0249L12 13.113L11.1303 16.0249L11.5202 13.011L9.54134 15.3175L11.1234 12.7227L8.37748 14.0249L10.8781 12.2979L7.83999 12.3706L10.8269 11.8101L8.0218 10.6408L10.9784 11.3436L8.89148 9.13449L11.3067 10.9791L10.2987 8.11212L11.7547 10.7796L12 7.75049Z" fill="#F8D74C"/>
<path d="M14.4006 11.9336C14.4006 13.2594 13.3258 14.3342 12 14.3342C10.6742 14.3342 9.59937 13.2594 9.59937 11.9336C9.59937 10.6078 10.6742 9.53296 12 9.53296C13.3258 9.53296 14.4006 10.6078 14.4006 11.9336Z" fill="#F8D74C"/>
<path fill-rule="evenodd" clip-rule="evenodd" d="M1 12C1 18.0751 5.92487 23 12 23C18.0751 23 23 18.0751 23 12C23 5.92487 18.0751 1 12 1C5.92487 1 1 5.92487 1 12ZM12 0C5.37258 0 0 5.37258 0 12C0 18.6274 5.37258 24 12 24C18.6274 24 24 18.6274 24 12C24 5.37258 18.6274 0 12 0Z" fill="#F8D74C"/>
</g>
</svg>
