<svg width="24" height="24" viewBox="0 0 24 24" fill="none" xmlns="http://www.w3.org/2000/svg">
<g clip-path="url(#clip0_440_1261)">
<rect width="24" height="24" rx="2" fill="#D74B4B"/>
<path d="M12 11.6702V0H2.00778L12 11.6702Z" fill="#485CC2"/>
<path d="M11.9237 11.594L-6.61148 0.686523V6.17834L11.9237 11.594Z" fill="#485CC2"/>
<path d="M11.8474 11.5176H-7.29794V17.0096L11.8474 11.5176Z" fill="#485CC2"/>
<path d="M12 0H24V24H12L12 0Z" fill="#485CC2"/>
<path d="M12 11.6702V0H21.9922L12 11.6702Z" fill="#D74B4B"/>
<path d="M12.0763 11.594L30.6115 0.686523V6.17834L12.0763 11.594Z" fill="#D74B4B"/>
<path d="M12.1526 11.5176H31.298V17.0096L12.1526 11.5176Z" fill="#D74B4B"/>
<path d="M-4.00003 21.729L12 11.5095L28 21.729V24H-4.00003V21.729Z" fill="#F9F9F9"/>
<path d="M15.7143 17.789C15.7314 17.6879 15.8039 17.5018 15.9923 17.3934C16.0887 17.4429 16.2815 17.5967 16.2815 17.8156H16.2739V18.9262H15.9844V18.9427L17.8844 19.5041C17.9544 19.4464 18.0402 19.3775 18.114 19.3188C18.1668 19.2768 18.2154 19.2384 18.2507 19.2106L18.2928 19.1775L18.4143 19.0823H19.4753L20.797 20.5077L20.226 21.0371L19.1354 19.861H18.6835L18.6361 19.8986L18.7966 20.2084L18.6174 20.8972L18.9703 21.5602L18.6976 22.5599L18.1637 22.4349L18.3114 21.8669L17.732 21.7078L17.3683 20.8872L16.1654 20.5318V21.044L14.3153 21.3508L14.2813 21.3792L13.7708 20.7689L14.0585 20.5283L14.3691 20.8997L15.2686 20.6162L15.0837 20.3533L15.0787 20.3821L13.828 19.0513H13.4862V18.6762L14.1662 18.6762L14.1812 18.6669L15.14 19.33V18.9262H14.591V18.5677C14.591 18.1376 14.9396 17.789 15.3697 17.789H15.7143Z" fill="#3FB47C"/>
<path d="M8.13312 17.789C8.11593 17.6879 8.04345 17.5018 7.85512 17.3934C7.7587 17.4429 7.56585 17.5967 7.56585 17.8156H7.57349V18.9262H7.86299V18.9427L5.96293 19.5041C5.893 19.4464 5.80715 19.3775 5.73341 19.3188C5.68055 19.2768 5.63198 19.2384 5.59665 19.2106L5.55457 19.1775L5.43309 19.0823H4.37207L3.05042 20.5077L3.62141 21.0371L4.71196 19.861H5.16388L5.21126 19.8986L5.05081 20.2084L5.22993 20.8972L4.87712 21.5602L5.14976 22.5599L5.68367 22.4349L5.53599 21.8669L6.11535 21.7078L6.47911 20.8872L7.68195 20.5318V21.044L9.53206 21.3508L9.56605 21.3792L10.0766 20.7689L9.78888 20.5283L9.47823 20.8997L8.57873 20.6162L8.7637 20.3533L8.7687 20.3821L10.0194 19.0513H10.3612V18.6762L9.68116 18.6762L9.66615 18.6669L8.7074 19.33V18.9262H9.25638V18.5677C9.25638 18.1376 8.90775 17.789 8.4777 17.789H8.13312Z" fill="#3FB47C"/>
<path d="M10.4179 17.6387C10.1926 18.4794 10.6916 19.3436 11.5323 19.5688C12.373 19.7941 13.2372 19.2952 13.4624 18.4545C13.6877 17.6137 13.1888 16.7496 12.3481 16.5243C11.5073 16.299 10.6432 16.798 10.4179 17.6387Z" fill="#485CC2"/>
<path fill-rule="evenodd" clip-rule="evenodd" d="M13.4691 17.663C13.4696 17.962 13.3353 18.5399 12.7859 18.5815C12.2267 18.6239 11.9792 18.2292 11.9253 18.0265C11.8516 17.8385 11.5935 17.4714 11.1514 17.5068C10.7094 17.5421 10.5248 17.8275 10.4878 17.9657L10.3898 18.3314C10.3486 18.1081 10.3552 17.8726 10.4179 17.6387C10.6432 16.798 11.5073 16.299 12.3481 16.5243C12.9202 16.6776 13.334 17.1267 13.4691 17.663Z" fill="#E77D42"/>
<path d="M11.4773 17.9802C11.4773 18.0907 11.3877 18.1802 11.2772 18.1802C11.1667 18.1802 11.0772 18.0907 11.0772 17.9802C11.0772 17.8697 11.1667 17.7801 11.2772 17.7801C11.3877 17.7801 11.4773 17.8697 11.4773 17.9802Z" fill="#E77D42"/>
<path d="M12.5933 17.9802C12.5933 18.0907 12.5038 18.1802 12.3933 18.1802C12.2828 18.1802 12.1932 18.0907 12.1932 17.9802C12.1932 17.8697 12.2828 17.7801 12.3933 17.7801C12.5038 17.7801 12.5933 17.8697 12.5933 17.9802Z" fill="#485CC2"/>
<path d="M12 7.75049L12.2453 10.7796L13.7014 8.11212L12.6933 10.9791L15.1085 9.13449L13.0216 11.3436L15.9782 10.6408L13.1731 11.8101L16.16 12.3706L13.1219 12.2979L15.6225 14.0249L12.8766 12.7227L14.4587 15.3175L12.4798 13.011L12.8697 16.0249L12 13.113L11.1303 16.0249L11.5202 13.011L9.54134 15.3175L11.1234 12.7227L8.37749 14.0249L10.8782 12.2979L7.84 12.3706L10.8269 11.8101L8.02181 10.6408L10.9785 11.3436L8.89149 9.13449L11.3067 10.9791L10.2987 8.11212L11.7548 10.7796L12 7.75049Z" fill="#F8D74C"/>
<path d="M14.4006 11.9335C14.4006 13.2593 13.3258 14.3341 12 14.3341C10.6742 14.3341 9.59938 13.2593 9.59938 11.9335C9.59938 10.6077 10.6742 9.53287 12 9.53287C13.3258 9.53287 14.4006 10.6077 14.4006 11.9335Z" fill="#F8D74C"/>
<path fill-rule="evenodd" clip-rule="evenodd" d="M22 1H2C1.44772 1 1 1.44772 1 2V22C1 22.5523 1.44772 23 2 23H22C22.5523 23 23 22.5523 23 22V2C23 1.44772 22.5523 1 22 1ZM2 0C0.895431 0 0 0.89543 0 2V22C0 23.1046 0.89543 24 2 24H22C23.1046 24 24 23.1046 24 22V2C24 0.895431 23.1046 0 22 0H2Z" fill="#F8D74C"/>
</g>
<defs>
<clipPath id="clip0_440_1261">
<rect width="24" height="24" rx="2" fill="white"/>
</clipPath>
</defs>
</svg>
