<svg width="32" height="24" viewBox="0 0 32 24" fill="none" xmlns="http://www.w3.org/2000/svg">
<rect width="32" height="24" rx="2" fill="#D74B4B"/>
<path fill-rule="evenodd" clip-rule="evenodd" d="M15.4417 7.13574C16.6561 7.13574 17.7665 7.58076 18.6189 8.3166C17.521 6.9068 15.8075 6 13.8822 6C10.5685 6 7.8822 8.68629 7.8822 12C7.8822 15.3137 10.5685 18 13.8822 18C15.8074 18 17.5208 17.0933 18.6187 15.6836C17.7664 16.4193 16.656 16.8643 15.4417 16.8643C12.7552 16.8643 10.5774 14.6865 10.5774 12C10.5774 9.31356 12.7552 7.13574 15.4417 7.13574ZM21.9777 10.7633L20.6551 8.95509L20.6623 11.1954L18.5339 11.8945L20.6668 12.5799L20.674 14.8202L21.9849 13.0035L24.1178 13.689L22.7952 11.8808L24.1061 10.0641L21.9777 10.7633Z" fill="#F9F9F9"/>
</svg>
