<svg width="24" height="24" viewBox="0 0 24 24" fill="none" xmlns="http://www.w3.org/2000/svg">
<rect width="24" height="24" rx="12" fill="#3FB47C"/>
<path d="M12.438 5.80839L12.7224 6.23043L12.4242 6.61382L12.8982 6.49127L13.1827 6.91331L13.1912 6.41553L13.6652 6.29299L13.1965 6.10789L13.205 5.61011L12.9067 5.99349L12.438 5.80839Z" fill="#F9F9F9"/>
<path d="M12.6245 3.50613L12.909 3.92817L12.6107 4.31155L13.0848 4.189L13.3692 4.61105L13.3777 4.11327L13.8518 3.99072L13.383 3.80562L13.3915 3.30784L13.0933 3.69122L12.6245 3.50613Z" fill="#F9F9F9"/>
<path d="M12.2529 8.10846L12.5373 8.5305L12.2391 8.91389L12.7131 8.79134L12.9976 9.21338L13.0061 8.7156L13.4801 8.59306L13.0114 8.40796L13.0199 7.91018L12.7216 8.29356L12.2529 8.10846Z" fill="#F9F9F9"/>
<path d="M14.598 5.09345L14.8825 5.51549L14.5843 5.89887L15.0583 5.77633L15.3428 6.19837L15.3513 5.70059L15.8253 5.57804L15.3565 5.39295L15.365 4.89517L15.0668 5.27855L14.598 5.09345Z" fill="#F9F9F9"/>
<path d="M10.2809 6.51918L10.5654 6.94123L10.2672 7.32461L10.7412 7.20206L11.0257 7.62411L11.0342 7.12633L11.5082 7.00378L11.0394 6.81868L11.0479 6.3209L10.7497 6.70428L10.2809 6.51918Z" fill="#F9F9F9"/>
<path d="M15.8353 4.12636C16.0176 4.22029 16.1946 4.33099 16.3645 4.45876C18.0001 5.6892 18.3462 8.03642 17.1375 9.70143C15.9287 11.3664 13.6229 11.7187 11.9872 10.4883C11.8168 10.3601 11.6603 10.2197 11.5182 10.0693C11.787 10.5642 12.1623 11.0096 12.6383 11.3677C14.4105 12.7008 16.9089 12.3191 18.2186 10.5151C19.5283 8.71106 19.1533 6.16783 17.3811 4.83464C16.9057 4.47706 16.3781 4.24285 15.8353 4.12636Z" fill="#F9F9F9"/>
<path d="M3.01535 0H8.90838V24H3.01535V0Z" fill="#962122"/>
<path d="M3.01535 3.23506V4.00714H5.96186V1.99715H4.85815L4.326 2.27222H3.65589L3.33069 2.54734V2.88588L3.01535 3.23506Z" fill="#F9F9F9"/>
<path d="M3.01535 4.77942V4.00714H5.96186V6.01733H4.85815L4.326 5.74226H3.65589L3.33069 5.46715V5.1286L3.01535 4.77942Z" fill="#E77D42"/>
<path d="M8.90838 3.23506V4.00714H5.96186V1.99715H7.06558L7.59772 2.27222H8.26784L8.59304 2.54734V2.88588L8.90838 3.23506Z" fill="#E77D42"/>
<path d="M8.90838 4.77942V4.00714H5.96186V6.01733H7.06558L7.59772 5.74226H8.26784L8.59304 5.46715V5.1286L8.90838 4.77942Z" fill="#F9F9F9"/>
<path d="M4.42453 3.73221L3.99092 4.00729L5.96186 4.00714L5.96184 2.87539L5.08479 3.3302H4.42453V3.73221Z" fill="#D74B4B"/>
<path d="M4.42453 4.28227L3.99092 4.00729L5.96186 4.00714L5.96184 5.13909L5.08479 4.68428H4.42453V4.28227Z" fill="#3FB47C"/>
<path d="M7.49908 3.73221L7.93268 4.00729L5.96186 4.00714L5.96184 2.87539L6.83882 3.3302H7.49908V3.73221Z" fill="#3FB47C"/>
<path d="M7.49908 4.28227L7.93268 4.00729L5.96186 4.00714L5.96184 5.13909L6.83882 4.68428H7.49908V4.28227Z" fill="#D74B4B"/>
<path d="M3.01535 9.00623H3.7781V9.98931H3.01535V9.00623Z" fill="#377649"/>
<path d="M8.14602 9.00623H8.90878V9.98931H8.14602V9.00623Z" fill="#377649"/>
<path d="M3.7781 8.75435H4.54086V10.2417H3.7781V8.75435Z" fill="#F8D74C"/>
<path d="M4.54085 8.34874H5.30361V10.6665H4.54085V8.34874Z" fill="#377649"/>
<path d="M5.3036 7.99129H6.62012V11.0039H5.3036V7.99129Z" fill="#F8D74C"/>
<path d="M6.62013 8.34874H7.38288V10.6665H6.62013V8.34874Z" fill="#377649"/>
<path d="M7.38288 8.75435H8.14564V10.2417H7.38288V8.75435Z" fill="#F8D74C"/>
<path fill-rule="evenodd" clip-rule="evenodd" d="M5.54259 8.74731C5.49285 8.74731 5.44497 8.76652 5.4086 8.80105L4.69492 9.47874C4.68368 9.48941 4.67395 9.5011 4.66575 9.51352H3.5147C3.44959 9.51352 3.3968 9.56724 3.3968 9.63352C3.3968 9.6998 3.44959 9.75353 3.5147 9.75353H4.67844C4.68351 9.75966 4.68901 9.76556 4.69492 9.77117L5.4086 10.4489C5.44497 10.4834 5.49285 10.5026 5.54259 10.5026H6.3813C6.43104 10.5026 6.47893 10.4834 6.5153 10.4489L7.22898 9.77117C7.23489 9.76556 7.24039 9.75966 7.24546 9.75353H8.5221C8.58721 9.75353 8.63999 9.6998 8.63999 9.63352C8.63999 9.56724 8.58721 9.51352 8.5221 9.51352H7.25815C7.24994 9.5011 7.24022 9.48941 7.22898 9.47874L6.5153 8.80105C6.47893 8.76652 6.43104 8.74731 6.3813 8.74731H5.54259Z" fill="#D74B4B"/>
<path fill-rule="evenodd" clip-rule="evenodd" d="M5.96042 13.0135L6.45408 13.4323H8.03919V13.7247H8.47649V14.0107H8.90769V14.9725H8.47649V15.2582H8.03919V15.5507H6.53099L5.96361 16.0036L5.42984 15.5507H3.88766V15.2582H3.45032V14.9725H3V14.0107H3.45032V13.7247H3.88766V13.4323H5.43566L5.96042 13.0135Z" fill="#377649"/>
<path d="M4.23455 13.5861H5.05359L4.63499 14.0088L4.23455 14.4507V13.5861Z" fill="#D74B4B"/>
<path d="M4.82163 13.9898L5.09951 14.2827H4.54376L4.82163 13.9898Z" fill="#D74B4B"/>
<path d="M5.96303 13.2273L6.2409 13.5202H5.68515L5.96303 13.2273Z" fill="#D74B4B"/>
<path d="M5.96351 14.5913L6.24138 14.8841H5.68563L5.96351 14.5913Z" fill="#D74B4B"/>
<path d="M7.11089 13.9898L7.38877 14.2827H6.83301L7.11089 13.9898Z" fill="#D74B4B"/>
<path d="M7.11036 15.0052L6.83249 14.7124H7.38824L7.11036 15.0052Z" fill="#D74B4B"/>
<path d="M4.82111 15.0052L4.54323 14.7124H5.09899L4.82111 15.0052Z" fill="#D74B4B"/>
<path d="M5.96298 15.6094L5.6851 15.3165H6.24086L5.96298 15.6094Z" fill="#D74B4B"/>
<path d="M5.9607 14.2456L5.68282 13.9528H6.23858L5.9607 14.2456Z" fill="#D74B4B"/>
<path d="M4.23455 15.4309H5.05359L4.63499 15.0082L4.23455 14.5663V15.4309Z" fill="#D74B4B"/>
<path d="M7.69505 13.5861H6.87601L7.29461 14.0088L7.69505 14.4507V13.5861Z" fill="#D74B4B"/>
<path d="M7.69505 15.4309H6.87601L7.29461 15.0082L7.69505 14.5663V15.4309Z" fill="#D74B4B"/>
<path d="M5.68515 13.5202L6.23979 13.5202V13.9526H5.68515V13.5202Z" fill="#F8D74C"/>
<path d="M5.68743 14.8842L6.24138 14.8841L6.24207 15.3165H5.68743V14.8842Z" fill="#F8D74C"/>
<path d="M4.54376 14.2798H5.0984L5.09899 14.7124H4.54323L4.54376 14.2798Z" fill="#F8D74C"/>
<path d="M6.83421 14.2798H7.38885L7.38824 14.7124L6.83421 14.7122V14.2798Z" fill="#F8D74C"/>
<path d="M4.56773 18.0268H7.52063L8.90352 19.0079V19.9889V20.9699L7.52063 21.9509H4.56773L3.01197 20.9699V19.0079L4.56773 18.0268Z" fill="#F9F9F9"/>
<path fill-rule="evenodd" clip-rule="evenodd" d="M4.6432 18.2968L3.27712 19.1582V20.8196L4.6432 21.681H7.43736L8.63838 20.829V19.1487L7.43736 18.2968H4.6432ZM7.52063 18.0268H4.56773L3.01197 19.0079V20.9699L4.56773 21.9509H7.52063L8.90352 20.9699V19.0079L7.52063 18.0268Z" fill="#377649"/>
<path d="M3.00462 20.761V19.9889H5.95113V21.8435L4.82512 21.8435L4.31527 21.7238L4.04064 21.4505L3.64516 21.2604L3.31996 21.1102L3.00462 20.761Z" fill="#E77D42"/>
<path d="M8.90352 19.2167L8.90352 19.9889L5.95701 19.9888V18.1342L7.08302 18.1342L7.59287 18.2539L7.8675 18.5272L8.26298 18.7173L8.58818 18.8675L8.90352 19.2167Z" fill="#E77D42"/>
<path fill-rule="evenodd" clip-rule="evenodd" d="M4.6432 18.2968L3.27712 19.1582V20.8196L4.6432 21.681H7.43736L8.63838 20.829V19.1487L7.43736 18.2968H4.6432ZM7.52063 18.0268H4.56773L3.01197 19.0079V20.9699L4.56773 21.9509H7.52063L8.90352 20.9699V19.0079L7.52063 18.0268Z" fill="#377649"/>
<path d="M4.9372 19.4172L5.95114 18.9673L6.96507 19.4172V20.6285L5.95114 21.0784L4.9372 20.6285V19.4172Z" fill="#D74B4B"/>
</svg>
