<svg width="24" height="24" viewBox="0 0 24 24" fill="none" xmlns="http://www.w3.org/2000/svg">
<g clip-path="url(#clip0_440_1245)">
<rect width="24" height="24" rx="12" fill="#F9F9F9"/>
<path d="M0 16H24V24H0V16Z" fill="#3FB47C"/>
<path d="M0 0H24V8H0V0Z" fill="#64BEDB"/>
<path d="M17.1077 3.70532L17.3083 4.33456H17.9572L17.4322 4.72346L17.6327 5.3527L17.1077 4.96381L16.5828 5.3527L16.7833 4.72346L16.2583 4.33456H16.9072L17.1077 3.70532Z" fill="#F9F9F9"/>
<path d="M14.5562 3.70532L14.7568 4.33456H15.4057L14.8807 4.72346L15.0812 5.3527L14.5562 4.96381L14.0313 5.3527L14.2318 4.72346L13.7068 4.33456H14.3557L14.5562 3.70532Z" fill="#F9F9F9"/>
<path d="M17.1077 5.35254L17.3083 5.98178H17.9572L17.4322 6.37067L17.6327 6.99992L17.1077 6.61102L16.5828 6.99992L16.7833 6.37067L16.2583 5.98178H16.9072L17.1077 5.35254Z" fill="#F9F9F9"/>
<path d="M14.5529 5.35254L14.7534 5.98178H15.4023L14.8773 6.37067L15.0778 6.99992L14.5529 6.61102L14.0279 6.99992L14.2284 6.37067L13.7034 5.98178H14.3523L14.5529 5.35254Z" fill="#F9F9F9"/>
<path d="M12.0047 5.35254L12.2052 5.98178H12.8541L12.3292 6.37067L12.5297 6.99992L12.0047 6.61102L11.4797 6.99992L11.6803 6.37067L11.1553 5.98178H11.8042L12.0047 5.35254Z" fill="#F9F9F9"/>
<path fill-rule="evenodd" clip-rule="evenodd" d="M10.6556 2.98087C10.2908 2.67558 9.81564 2.49097 9.29601 2.49097C8.14628 2.49097 7.21423 3.39477 7.21423 4.50968C7.21423 5.62458 8.14628 6.52839 9.29601 6.52839C9.81597 6.52839 10.2914 6.34354 10.6562 6.03792C10.1864 6.6233 9.45287 6.99986 8.62865 6.99986C7.21048 6.99986 6.06082 5.88503 6.06082 4.50982C6.06082 3.13461 7.21048 2.01978 8.62865 2.01978C9.45247 2.01978 10.1857 2.39597 10.6556 2.98087Z" fill="#F9F9F9"/>
<path d="M17.1076 2.05786L17.3081 2.6871H17.957L17.432 3.076L17.6325 3.70524L17.1076 3.31634L16.5826 3.70524L16.7831 3.076L16.2581 2.6871H16.907L17.1076 2.05786Z" fill="#F9F9F9"/>
<path d="M0 8H24V9H0V8Z" fill="#D74B4B"/>
<path d="M0 15H24V16H0V15Z" fill="#D74B4B"/>
</g>
<defs>
<clipPath id="clip0_440_1245">
<rect width="24" height="24" rx="12" fill="white"/>
</clipPath>
</defs>
</svg>
