<svg width="24" height="24" viewBox="0 0 24 24" fill="none" xmlns="http://www.w3.org/2000/svg">
<g clip-path="url(#clip0_440_1246)">
<rect width="24" height="24" rx="2" fill="#F9F9F9"/>
<path d="M0 16H24V24H0V16Z" fill="#3FB47C"/>
<path d="M0 0H24V8H0V0Z" fill="#64BEDB"/>
<path d="M15.9774 3.03052L16.2117 3.78863H16.9698L16.3565 4.25716L16.5907 5.01527L15.9774 4.54674L15.3641 5.01527L15.5984 4.25716L14.985 3.78863H15.7432L15.9774 3.03052Z" fill="#F9F9F9"/>
<path d="M12.9965 3.03052L13.2308 3.78863H13.9889L13.3756 4.25716L13.6099 5.01527L12.9965 4.54674L12.3832 5.01527L12.6175 4.25716L12.0042 3.78863H12.7623L12.9965 3.03052Z" fill="#F9F9F9"/>
<path d="M15.9774 5.01514L16.2117 5.77325H16.9698L16.3565 6.24178L16.5907 6.99989L15.9774 6.53136L15.3641 6.99989L15.5984 6.24178L14.985 5.77325H15.7432L15.9774 5.01514Z" fill="#F9F9F9"/>
<path d="M12.9926 5.01514L13.2269 5.77325H13.985L13.3717 6.24178L13.6059 6.99989L12.9926 6.53136L12.3793 6.99989L12.6136 6.24178L12.0002 5.77325H12.7584L12.9926 5.01514Z" fill="#F9F9F9"/>
<path d="M10.0156 5.01514L10.2499 5.77325H11.008L10.3947 6.24178L10.629 6.99989L10.0156 6.53136L9.40231 6.99989L9.63658 6.24178L9.02325 5.77325H9.78136L10.0156 5.01514Z" fill="#F9F9F9"/>
<path d="M15.9772 1.04565L16.2115 1.80376H16.9696L16.3563 2.2723L16.5906 3.03041L15.9772 2.56187L15.3639 3.03041L15.5982 2.2723L14.9849 1.80376H15.743L15.9772 1.04565Z" fill="#F9F9F9"/>
<path fill-rule="evenodd" clip-rule="evenodd" d="M8.43894 2.15736C8.01287 1.78979 7.45791 1.56752 6.85104 1.56752C5.50781 1.56752 4.4189 2.65643 4.4189 3.99966C4.4189 5.3429 5.50781 6.43181 6.85104 6.43181C7.45867 6.43181 8.01425 6.20898 8.44054 5.84059C7.89163 6.54613 7.03449 7 6.07135 7C4.4145 7 3.07135 5.65685 3.07135 4C3.07135 2.34315 4.4145 1 6.07135 1C7.03356 1 7.88997 1.453 8.43894 2.15736Z" fill="#F9F9F9"/>
<path d="M0 8H24V9H0V8Z" fill="#D74B4B"/>
<path d="M0 15H24V16H0V15Z" fill="#D74B4B"/>
</g>
<defs>
<clipPath id="clip0_440_1246">
<rect width="24" height="24" rx="2" fill="white"/>
</clipPath>
</defs>
</svg>
