<svg width="24" height="24" viewBox="0 0 24 24" fill="none" xmlns="http://www.w3.org/2000/svg">
<g clip-path="url(#clip0_440_919)">
<rect width="24" height="24" rx="12" fill="#F9F9F9"/>
<path d="M0 24L-1.04907e-06 0L12 -5.24537e-07L12 24L0 24Z" fill="#3FB47C"/>
<path fill-rule="evenodd" clip-rule="evenodd" d="M13.5595 7.13574C14.7739 7.13574 15.8843 7.58076 16.7367 8.3166C15.6388 6.9068 13.9253 6 12 6C8.68629 6 6 8.68629 6 12C6 15.3137 8.68629 18 12 18C13.9252 18 15.6386 17.0933 16.7365 15.6836C15.8842 16.4193 14.7738 16.8643 13.5595 16.8643C10.873 16.8643 8.69519 14.6865 8.69519 12C8.69519 9.31356 10.873 7.13574 13.5595 7.13574ZM15.0955 10.7633L13.7729 8.95509L13.7801 11.1954L11.6517 11.8945L13.7846 12.5799L13.7918 14.8202L15.1027 13.0035L17.2356 13.689L15.913 11.8808L17.2239 10.0641L15.0955 10.7633Z" fill="#D74B4B"/>
</g>
<defs>
<clipPath id="clip0_440_919">
<rect width="24" height="24" rx="12" fill="white"/>
</clipPath>
</defs>
</svg>
