<svg width="32" height="24" viewBox="0 0 32 24" fill="none" xmlns="http://www.w3.org/2000/svg">
<g clip-path="url(#clip0_440_917)">
<rect width="32" height="24" rx="2" fill="#F9F9F9"/>
<path d="M0 24L-1.04907e-06 0L16 -6.99382e-07L16 24L0 24Z" fill="#3FB47C"/>
<path fill-rule="evenodd" clip-rule="evenodd" d="M17.5595 7.13574C18.7739 7.13574 19.8843 7.58076 20.7367 8.3166C19.6388 6.9068 17.9253 6 16 6C12.6863 6 10 8.68629 10 12C10 15.3137 12.6863 18 16 18C17.9252 18 19.6386 17.0933 20.7365 15.6836C19.8842 16.4193 18.7738 16.8643 17.5595 16.8643C14.873 16.8643 12.6952 14.6865 12.6952 12C12.6952 9.31356 14.873 7.13574 17.5595 7.13574ZM19.0955 10.7633L17.7729 8.95509L17.7801 11.1954L15.6517 11.8945L17.7846 12.5799L17.7918 14.8202L19.1027 13.0035L21.2356 13.689L19.913 11.8808L21.2239 10.0641L19.0955 10.7633Z" fill="#D74B4B"/>
</g>
<defs>
<clipPath id="clip0_440_917">
<rect width="32" height="24" rx="2" fill="white"/>
</clipPath>
</defs>
</svg>
