<svg width="32" height="24" viewBox="0 0 32 24" fill="none" xmlns="http://www.w3.org/2000/svg">
<rect width="32" height="24" rx="2" fill="#D74B4B"/>
<path d="M0 12H32V24H0V12Z" fill="#333333"/>
<path d="M15.1282 8.38849L15.4404 9.38563H16.4509L15.6334 10.0019L15.9457 10.999L15.1282 10.3828L14.3107 10.999L14.6229 10.0019L13.8054 9.38563H14.8159L15.1282 8.38849Z" fill="#F8D74C"/>
<path d="M19.7303 16.3195L13.5564 11.1339C12.8796 11.8361 14.152 13.1799 14.8728 13.764C16.1417 14.5737 18.7682 16.274 19.1226 16.5979C19.4769 16.9217 19.6754 17.0009 19.7303 17C20.2188 16.8686 19.9338 16.4916 19.7303 16.3195Z" fill="#F8D74C"/>
<path d="M12 14.5823C12.7312 15.2824 13.7084 15.71 14.7819 15.71C17.048 15.71 18.8851 13.8039 18.8851 11.4526C18.8851 9.23173 17.2462 7.40803 15.1549 7.2125V8.15038C16.7487 8.34211 17.986 9.74743 17.986 11.4526C17.986 13.2887 16.5514 14.7771 14.7819 14.7771C13.9782 14.7771 13.2437 14.4701 12.6812 13.963L12.6753 13.9692L12 14.5823Z" fill="#F8D74C"/>
<path d="M15.8577 7L16.7534 7.31719L16.5283 8.0013L15.6327 7.6841L15.8577 7Z" fill="#F8D74C"/>
<path d="M17.5224 7.79372L18.2163 8.46147L17.7426 8.99146L17.0487 8.32371L17.5224 7.79372Z" fill="#F8D74C"/>
<path d="M18.7321 9.22135L19.1042 10.1242L18.4636 10.4084L18.0915 9.50558L18.7321 9.22135Z" fill="#F8D74C"/>
<path d="M19.2775 11.0361L19.2635 12.0179L18.5669 12.0072L18.5809 11.0254L19.2775 11.0361Z" fill="#F8D74C"/>
<path d="M19.0643 12.924L18.6667 13.8151L18.0345 13.5114L18.4321 12.6203L19.0643 12.924Z" fill="#F8D74C"/>
<path d="M18.1295 14.5589L17.4169 15.2051L16.9584 14.6609L17.671 14.0146L18.1295 14.5589Z" fill="#F8D74C"/>
<path d="M16.6347 15.6579L15.7304 15.9475L15.5249 15.2568L16.4292 14.9672L16.6347 15.6579Z" fill="#F8D74C"/>
<path d="M14.8382 16.031L13.8986 15.9139L13.9816 15.1962L14.9213 15.3133L14.8382 16.031Z" fill="#F8D74C"/>
<path d="M13.0509 15.6137L12.2383 15.1102L12.5956 14.4896L13.4081 14.9931L13.0509 15.6137Z" fill="#F8D74C"/>
</svg>
