<svg width="24" height="24" viewBox="0 0 24 24" fill="none" xmlns="http://www.w3.org/2000/svg">
<rect width="24" height="24" rx="12" fill="#D74B4B"/>
<path d="M0 12H24V24H0V12Z" fill="#333333"/>
<path d="M11.1282 8.38849L11.4404 9.38563H12.4509L11.6334 10.0019L11.9457 10.999L11.1282 10.3828L10.3107 10.999L10.6229 10.0019L9.80543 9.38563H10.8159L11.1282 8.38849Z" fill="#F8D74C"/>
<path d="M15.7303 16.3195L9.55642 11.1339C8.87962 11.8361 10.152 13.1799 10.8728 13.764C12.1417 14.5737 14.7682 16.274 15.1226 16.5979C15.4769 16.9217 15.6754 17.0009 15.7303 17C16.2188 16.8686 15.9338 16.4916 15.7303 16.3195Z" fill="#F8D74C"/>
<path d="M8 14.5823C8.73125 15.2824 9.70842 15.71 10.7819 15.71C13.048 15.71 14.8851 13.8039 14.8851 11.4526C14.8851 9.23173 13.2462 7.40803 11.1549 7.2125V8.15038C12.7487 8.34211 13.986 9.74743 13.986 11.4526C13.986 13.2887 12.5514 14.7771 10.7819 14.7771C9.97821 14.7771 9.24366 14.4701 8.68121 13.963L8.67532 13.9692L8 14.5823Z" fill="#F8D74C"/>
<path d="M11.8577 7L12.7534 7.31719L12.5283 8.0013L11.6327 7.6841L11.8577 7Z" fill="#F8D74C"/>
<path d="M13.5224 7.79372L14.2163 8.46147L13.7426 8.99146L13.0487 8.32371L13.5224 7.79372Z" fill="#F8D74C"/>
<path d="M14.7321 9.22135L15.1042 10.1242L14.4636 10.4084L14.0915 9.50558L14.7321 9.22135Z" fill="#F8D74C"/>
<path d="M15.2775 11.0361L15.2635 12.0179L14.5669 12.0072L14.5809 11.0254L15.2775 11.0361Z" fill="#F8D74C"/>
<path d="M15.0643 12.924L14.6667 13.8151L14.0345 13.5114L14.4321 12.6203L15.0643 12.924Z" fill="#F8D74C"/>
<path d="M14.1295 14.5589L13.4169 15.2051L12.9584 14.6609L13.671 14.0146L14.1295 14.5589Z" fill="#F8D74C"/>
<path d="M12.6347 15.6579L11.7304 15.9475L11.5249 15.2568L12.4292 14.9672L12.6347 15.6579Z" fill="#F8D74C"/>
<path d="M10.8382 16.031L9.89857 15.9139L9.98162 15.1962L10.9213 15.3133L10.8382 16.031Z" fill="#F8D74C"/>
<path d="M9.05087 15.6137L8.23835 15.1102L8.59556 14.4896L9.40808 14.9931L9.05087 15.6137Z" fill="#F8D74C"/>
</svg>
