<svg width="32" height="24" viewBox="0 0 32 24" fill="none" xmlns="http://www.w3.org/2000/svg">
<g clip-path="url(#clip0_440_932)">
<rect width="32" height="24" rx="2" fill="#D74B4B"/>
<path d="M0 0L16 12L0 24V0Z" fill="#3FB47C"/>
<path d="M16 12L32 24V0L16 12Z" fill="#3FB47C"/>
<path fill-rule="evenodd" clip-rule="evenodd" d="M15.9 14.075L0.8 25.4L-1 23L13.4 12.2L-1 1.4L0.8 -1L15.9 10.325L31 -1L32.8 1.4L18.4 12.2L32.8 23L31 25.4L15.9 14.075Z" fill="#F9F9F9"/>
<circle cx="16" cy="12" r="6" fill="#F9F9F9"/>
<path d="M16.0618 9.22606L16.3278 9.76533L16.9278 9.72606L16.5938 10.2261L16.9278 10.7261L16.3278 10.6868L16.0618 11.2261L15.7958 10.6868L15.1958 10.7261L15.5298 10.2261L15.1958 9.72606L15.7958 9.76533L16.0618 9.22606Z" fill="#D74B4B"/>
<path d="M14.0618 12.2261L14.3278 12.7653L14.9278 12.7261L14.5938 13.2261L14.9278 13.7261L14.3278 13.6868L14.0618 14.2261L13.7958 13.6868L13.1958 13.7261L13.5298 13.2261L13.1958 12.7261L13.7958 12.7653L14.0618 12.2261Z" fill="#D74B4B"/>
<path d="M18.3278 12.7653L18.0618 12.2261L17.7958 12.7653L17.1958 12.7261L17.5298 13.2261L17.1958 13.7261L17.7958 13.6868L18.0618 14.2261L18.3278 13.6868L18.9278 13.7261L18.5938 13.2261L18.9278 12.7261L18.3278 12.7653Z" fill="#D74B4B"/>
</g>
<defs>
<clipPath id="clip0_440_932">
<rect width="32" height="24" rx="2" fill="white"/>
</clipPath>
</defs>
</svg>
