<svg width="24" height="24" viewBox="0 0 24 24" fill="none" xmlns="http://www.w3.org/2000/svg">
<g clip-path="url(#clip0_440_934)">
<rect width="24" height="24" rx="12" fill="#D74B4B"/>
<path d="M0 0L12 12L0 24V0Z" fill="#3FB47C"/>
<path d="M12 12L24 24V0L12 12Z" fill="#3FB47C"/>
<path fill-rule="evenodd" clip-rule="evenodd" d="M12 13.8466L0.384615 25L-1 22.6364L10.0769 12L-1 1.36364L0.384615 -1L12 10.1534L23.6154 -1L25 1.36364L13.9231 12L25 22.6364L23.6154 25L12 13.8466Z" fill="#F9F9F9"/>
<circle cx="12" cy="12" r="6" fill="#F9F9F9"/>
<path d="M12.0618 9.22606L12.3278 9.76533L12.9278 9.72606L12.5938 10.2261L12.9278 10.7261L12.3278 10.6868L12.0618 11.2261L11.7958 10.6868L11.1958 10.7261L11.5298 10.2261L11.1958 9.72606L11.7958 9.76533L12.0618 9.22606Z" fill="#D74B4B"/>
<path d="M10.0618 12.2261L10.3278 12.7653L10.9278 12.7261L10.5938 13.2261L10.9278 13.7261L10.3278 13.6868L10.0618 14.2261L9.7958 13.6868L9.19577 13.7261L9.5298 13.2261L9.19577 12.7261L9.7958 12.7653L10.0618 12.2261Z" fill="#D74B4B"/>
<path d="M14.3278 12.7653L14.0618 12.2261L13.7958 12.7653L13.1958 12.7261L13.5298 13.2261L13.1958 13.7261L13.7958 13.6868L14.0618 14.2261L14.3278 13.6868L14.9278 13.7261L14.5938 13.2261L14.9278 12.7261L14.3278 12.7653Z" fill="#D74B4B"/>
</g>
<defs>
<clipPath id="clip0_440_934">
<rect width="24" height="24" rx="12" fill="white"/>
</clipPath>
</defs>
</svg>
