<svg width="24" height="24" viewBox="0 0 24 24" fill="none" xmlns="http://www.w3.org/2000/svg">
<rect width="24" height="24" rx="12" fill="#485CC2"/>
<rect y="12" width="24" height="2" fill="#F9F9F9"/>
<rect y="16" width="24" height="2" fill="#F9F9F9"/>
<rect y="14" width="24" height="2" fill="#D74B4B"/>
<path d="M9.17119 9.53801L8.98863 9L8.80606 9.53801L8.25015 9.54961L8.69323 9.89373L8.53222 10.4389L8.98863 10.1136L9.44503 10.4389L9.28402 9.89373L9.7271 9.54961L9.17119 9.53801Z" fill="#F8D74C"/>
<path d="M9.17119 20.0991L8.98863 19.5611L8.80606 20.0991L8.25015 20.1107L8.69323 20.4548L8.53222 21L8.98863 20.6747L9.44503 21L9.28402 20.4548L9.7271 20.1107L9.17119 20.0991Z" fill="#F8D74C"/>
<path d="M6.39981 9.67449L6.58237 10.2125L7.13828 10.2241L6.6952 10.5682L6.85621 11.1134L6.39981 10.7881L5.9434 11.1134L6.10442 10.5682L5.66133 10.2241L6.21724 10.2125L6.39981 9.67449Z" fill="#F8D74C"/>
<path d="M6.58237 19.4246L6.39981 18.8866L6.21724 19.4246L5.66133 19.4362L6.10442 19.7803L5.9434 20.3255L6.39981 20.0002L6.85621 20.3255L6.6952 19.7803L7.13828 19.4362L6.58237 19.4246Z" fill="#F8D74C"/>
<path d="M4.51496 11.6517L4.69753 12.1897L5.25344 12.2013L4.81035 12.5454L4.97137 13.0906L4.51496 12.7653L4.05856 13.0906L4.21957 12.5454L3.77649 12.2013L4.3324 12.1897L4.51496 11.6517Z" fill="#F8D74C"/>
<path d="M4.69753 17.4594L4.51496 16.9214L4.3324 17.4594L3.77649 17.471L4.21957 17.8151L4.05856 18.3603L4.51496 18.035L4.97137 18.3603L4.81035 17.8151L5.25344 17.471L4.69753 17.4594Z" fill="#F8D74C"/>
<path d="M3.73848 14.2865L3.92104 14.8245L4.47695 14.8361L4.03387 15.1803L4.19488 15.7254L3.73848 15.4001L3.28207 15.7254L3.44309 15.1803L3 14.8361L3.55591 14.8245L3.73848 14.2865Z" fill="#F8D74C"/>
<path d="M14.4441 14.8245L14.2615 14.2865L14.079 14.8245L13.523 14.8361L13.9661 15.1803L13.8051 15.7254L14.2615 15.4001L14.7179 15.7254L14.5569 15.1803L15 14.8361L14.4441 14.8245Z" fill="#F8D74C"/>
<path d="M13.485 11.6517L13.6676 12.1897L14.2235 12.2013L13.7804 12.5454L13.9414 13.0906L13.485 12.7653L13.0286 13.0906L13.1896 12.5454L12.7466 12.2013L13.3025 12.1897L13.485 11.6517Z" fill="#F8D74C"/>
<path d="M13.6676 17.4594L13.485 16.9214L13.3025 17.4594L12.7466 17.471L13.1896 17.8151L13.0286 18.3603L13.485 18.035L13.9414 18.3603L13.7804 17.8151L14.2235 17.471L13.6676 17.4594Z" fill="#F8D74C"/>
<path d="M11.5776 9.67449L11.7601 10.2125L12.316 10.2241L11.873 10.5682L12.034 11.1134L11.5776 10.7881L11.1212 11.1134L11.2822 10.5682L10.8391 10.2241L11.395 10.2125L11.5776 9.67449Z" fill="#F8D74C"/>
<path d="M11.7601 19.4246L11.5776 18.8866L11.395 19.4246L10.8391 19.4362L11.2822 19.7803L11.1212 20.3255L11.5776 20.0002L12.034 20.3255L11.873 19.7803L12.316 19.4362L11.7601 19.4246Z" fill="#F8D74C"/>
</svg>
