<svg width="32" height="24" viewBox="0 0 32 24" fill="none" xmlns="http://www.w3.org/2000/svg">
<rect width="32" height="24" rx="2" fill="#485CC2"/>
<rect y="12" width="32" height="2" fill="#F9F9F9"/>
<rect y="16" width="32" height="2" fill="#F9F9F9"/>
<rect y="14" width="32" height="2" fill="#D74B4B"/>
<path d="M12.1712 9.53801L11.9886 9L11.8061 9.53801L11.2501 9.54961L11.6932 9.89373L11.5322 10.4389L11.9886 10.1136L12.445 10.4389L12.284 9.89373L12.7271 9.54961L12.1712 9.53801Z" fill="#F8D74C"/>
<path d="M12.1712 20.0991L11.9886 19.5611L11.8061 20.0991L11.2501 20.1107L11.6932 20.4548L11.5322 21L11.9886 20.6747L12.445 21L12.284 20.4548L12.7271 20.1107L12.1712 20.0991Z" fill="#F8D74C"/>
<path d="M9.39981 9.67449L9.58237 10.2125L10.1383 10.2241L9.6952 10.5682L9.85621 11.1134L9.39981 10.7881L8.9434 11.1134L9.10442 10.5682L8.66133 10.2241L9.21724 10.2125L9.39981 9.67449Z" fill="#F8D74C"/>
<path d="M9.58237 19.4246L9.39981 18.8866L9.21724 19.4246L8.66133 19.4362L9.10442 19.7803L8.9434 20.3255L9.39981 20.0002L9.85621 20.3255L9.6952 19.7803L10.1383 19.4362L9.58237 19.4246Z" fill="#F8D74C"/>
<path d="M7.51496 11.6517L7.69753 12.1897L8.25344 12.2013L7.81035 12.5454L7.97137 13.0906L7.51496 12.7653L7.05856 13.0906L7.21957 12.5454L6.77649 12.2013L7.3324 12.1897L7.51496 11.6517Z" fill="#F8D74C"/>
<path d="M7.69753 17.4594L7.51496 16.9214L7.3324 17.4594L6.77649 17.471L7.21957 17.8151L7.05856 18.3603L7.51496 18.035L7.97137 18.3603L7.81035 17.8151L8.25344 17.471L7.69753 17.4594Z" fill="#F8D74C"/>
<path d="M6.73848 14.2865L6.92104 14.8245L7.47695 14.8361L7.03387 15.1803L7.19488 15.7254L6.73848 15.4001L6.28207 15.7254L6.44309 15.1803L6 14.8361L6.55591 14.8245L6.73848 14.2865Z" fill="#F8D74C"/>
<path d="M17.4441 14.8245L17.2615 14.2865L17.079 14.8245L16.523 14.8361L16.9661 15.1803L16.8051 15.7254L17.2615 15.4001L17.7179 15.7254L17.5569 15.1803L18 14.8361L17.4441 14.8245Z" fill="#F8D74C"/>
<path d="M16.485 11.6517L16.6676 12.1897L17.2235 12.2013L16.7804 12.5454L16.9414 13.0906L16.485 12.7653L16.0286 13.0906L16.1896 12.5454L15.7466 12.2013L16.3025 12.1897L16.485 11.6517Z" fill="#F8D74C"/>
<path d="M16.6676 17.4594L16.485 16.9214L16.3025 17.4594L15.7466 17.471L16.1896 17.8151L16.0286 18.3603L16.485 18.035L16.9414 18.3603L16.7804 17.8151L17.2235 17.471L16.6676 17.4594Z" fill="#F8D74C"/>
<path d="M14.5776 9.67449L14.7601 10.2125L15.316 10.2241L14.873 10.5682L15.034 11.1134L14.5776 10.7881L14.1212 11.1134L14.2822 10.5682L13.8391 10.2241L14.395 10.2125L14.5776 9.67449Z" fill="#F8D74C"/>
<path d="M14.7601 19.4246L14.5776 18.8866L14.395 19.4246L13.8391 19.4362L14.2822 19.7803L14.1212 20.3255L14.5776 20.0002L15.034 20.3255L14.873 19.7803L15.316 19.4362L14.7601 19.4246Z" fill="#F8D74C"/>
</svg>
