<svg width="24" height="24" viewBox="0 0 24 24" fill="none" xmlns="http://www.w3.org/2000/svg">
<g clip-path="url(#clip0_440_949)">
<rect width="24" height="24" rx="12" fill="#F9F9F9"/>
<rect width="24" height="6" fill="#F8D74C"/>
<rect y="12" width="24" height="6" fill="#D74B4B"/>
<rect y="18" width="24" height="6" fill="#485CC2"/>
<path d="M0 24L2.86197e-07 0L14 12L0 24Z" fill="#3FB47C"/>
<path d="M7.09175 9.56752C7.69862 9.56752 8.25357 9.78979 8.67965 10.1574C8.13067 9.453 7.27427 9 6.31206 9C4.6552 9 3.31206 10.3431 3.31206 12C3.31206 13.6569 4.6552 15 6.31206 15C7.2752 15 8.13233 14.5461 8.68124 13.8406C8.25496 14.209 7.69938 14.4318 7.09175 14.4318C5.74852 14.4318 4.65961 13.3429 4.65961 11.9997C4.65961 10.6564 5.74852 9.56752 7.09175 9.56752Z" fill="#F9F9F9"/>
<path d="M8.29928 10.6476L8.18124 10.2656L8.06321 10.6476H7.68124L7.99026 10.8837L7.87223 11.2656L8.18124 11.0296L8.49026 11.2656L8.37223 10.8837L8.68124 10.6476H8.29928Z" fill="#F9F9F9"/>
<path d="M8.29928 12.988L8.18124 12.606L8.06321 12.988H7.68124L7.99026 13.224L7.87223 13.606L8.18124 13.3699L8.49026 13.606L8.37223 13.224L8.68124 12.988H8.29928Z" fill="#F9F9F9"/>
<path d="M8.18124 11.5L8.29928 11.882H8.68124L8.37223 12.118L8.49026 12.5L8.18124 12.2639L7.87223 12.5L7.99026 12.118L7.68124 11.882H8.06321L8.18124 11.5Z" fill="#F9F9F9"/>
</g>
<defs>
<clipPath id="clip0_440_949">
<rect width="24" height="24" rx="12" fill="white"/>
</clipPath>
</defs>
</svg>
