<svg width="32" height="24" viewBox="0 0 32 24" fill="none" xmlns="http://www.w3.org/2000/svg">
<g clip-path="url(#clip0_440_947)">
<rect width="32" height="24" rx="2" fill="#F9F9F9"/>
<rect width="32" height="6" fill="#F8D74C"/>
<rect y="12" width="32" height="6" fill="#D74B4B"/>
<rect y="18" width="32" height="6" fill="#485CC2"/>
<path d="M0 24L2.86197e-07 0L18 12L0 24Z" fill="#3FB47C"/>
<path d="M8.39895 9.56752C9.00582 9.56752 9.56077 9.78979 9.98685 10.1574C9.43787 9.453 8.58147 9 7.61926 9C5.9624 9 4.61926 10.3431 4.61926 12C4.61926 13.6569 5.9624 15 7.61926 15C8.5824 15 9.43953 14.5461 9.98844 13.8406C9.56216 14.209 9.00657 14.4318 8.39895 14.4318C7.05571 14.4318 5.96681 13.3429 5.96681 11.9997C5.96681 10.6564 7.05571 9.56752 8.39895 9.56752Z" fill="#F9F9F9"/>
<path d="M9.60648 10.6476L9.48844 10.2656L9.37041 10.6476H8.98844L9.29746 10.8837L9.17942 11.2656L9.48844 11.0296L9.79746 11.2656L9.67942 10.8837L9.98844 10.6476H9.60648Z" fill="#F9F9F9"/>
<path d="M9.60648 12.988L9.48844 12.606L9.37041 12.988H8.98844L9.29746 13.224L9.17942 13.606L9.48844 13.3699L9.79746 13.606L9.67942 13.224L9.98844 12.988H9.60648Z" fill="#F9F9F9"/>
<path d="M9.48844 11.5L9.60648 11.882H9.98844L9.67942 12.118L9.79746 12.5L9.48844 12.2639L9.17942 12.5L9.29746 12.118L8.98844 11.882H9.37041L9.48844 11.5Z" fill="#F9F9F9"/>
</g>
<defs>
<clipPath id="clip0_440_947">
<rect width="32" height="24" rx="2" fill="white"/>
</clipPath>
</defs>
</svg>
