<svg width="24" height="24" viewBox="0 0 24 24" fill="none" xmlns="http://www.w3.org/2000/svg">
<g clip-path="url(#clip0_440_952)">
<rect width="24" height="24" rx="12" fill="#64BEDB"/>
<path d="M7 3L7.89806 5.76393H10.8042L8.45308 7.47214L9.35114 10.2361L7 8.52786L4.64886 10.2361L5.54692 7.47214L3.19577 5.76393H6.10194L7 3Z" fill="#F8D74C"/>
<path d="M25 -2.0354L1.90735e-06 20.9646V25.8557L25 2.85572V-2.0354Z" fill="#D74B4B"/>
<path d="M25 -2.0354L1.90735e-06 20.9646V25.8557L25 2.85572V-2.0354Z" fill="#D74B4B"/>
<path fill-rule="evenodd" clip-rule="evenodd" d="M26 -3.9856L-1 20.4519V27.806L26 3.36853V-3.9856ZM25 -2.03534V2.85577L0 25.8558V20.9647L25 -2.03534Z" fill="#F8D74C"/>
</g>
<defs>
<clipPath id="clip0_440_952">
<rect width="24" height="24" rx="12" fill="white"/>
</clipPath>
</defs>
</svg>
