<svg width="24" height="24" viewBox="0 0 24 24" fill="none" xmlns="http://www.w3.org/2000/svg">
<g clip-path="url(#clip0_440_956)">
<rect width="24" height="24" rx="12" fill="#F9F9F9"/>
<path d="M0 16H24V24H0V16Z" fill="#D74B4B"/>
<path d="M0 0H24V8H0V0Z" fill="#3FB47C"/>
<path d="M0 24L2.86197e-07 0L10 12L0 24Z" fill="#64BEDB"/>
<path d="M13.5909 9.96807H10.4091V13.1693C10.4091 13.7216 10.8568 14.1693 11.4091 14.1693H11.8131C11.8948 14.2326 11.975 14.2953 12.0309 14.3392L12.2073 14.1693H12.5909C13.1432 14.1693 13.5909 13.7216 13.5909 13.1693V9.96807Z" fill="white"/>
<path fill-rule="evenodd" clip-rule="evenodd" d="M10.0036 14.3033C9.64364 14.0038 9.56612 13.6404 9.56611 13.3949L9.76611 13.3949C9.76612 13.5976 9.82862 13.8976 10.1315 14.1496C10.4376 14.4043 11.0034 14.6219 12.0373 14.6219C13.0719 14.6219 13.6173 14.4054 13.9038 14.1534C14.1867 13.9046 14.2339 13.6061 14.2339 13.3949H14.4339C14.4339 13.6374 14.3784 14.0024 14.0358 14.3036C13.6969 14.6017 13.0939 14.8218 12.0373 14.8218C10.9801 14.8218 10.3602 14.6 10.0036 14.3033Z" fill="#333333"/>
<path d="M11.7446 9.34783L11.6567 9.17815L11.5688 9.34783L11.4029 9.35476L11.4808 9.53137L11.4029 9.70797L11.5688 9.7149L11.6567 9.88458L11.7446 9.7149L11.9105 9.70797L11.8326 9.53137L11.9105 9.35476L11.7446 9.34783Z" fill="#F8D74C"/>
<path d="M12.2554 9.34783L12.3433 9.17815L12.4312 9.34783L12.5971 9.35476L12.5192 9.53137L12.5971 9.70797L12.4312 9.7149L12.3433 9.88458L12.2554 9.7149L12.0895 9.70797L12.1674 9.53137L12.0895 9.35476L12.2554 9.34783Z" fill="#F8D74C"/>
<path d="M10.9064 9.27638L11.0239 9.41769L11.1868 9.3792L11.144 9.57249L11.2531 9.72325L11.0928 9.77524L11.039 9.96449L10.9215 9.82319L10.7586 9.86167L10.8014 9.66839L10.6923 9.51762L10.8526 9.46564L10.9064 9.27638Z" fill="#F8D74C"/>
<path d="M12.9761 9.41769L13.0936 9.27638L13.1474 9.46564L13.3077 9.51762L13.1986 9.66839L13.2414 9.86167L13.0785 9.82319L12.961 9.96449L12.9072 9.77524L12.7469 9.72325L12.856 9.57249L12.8132 9.3792L12.9761 9.41769Z" fill="#F8D74C"/>
<path d="M10.1794 9.52435L10.3141 9.64126L10.4699 9.57197L10.4532 9.771L10.5809 9.89887L10.4295 9.98099L10.4014 10.1782L10.2667 10.0612L10.111 10.1305L10.1277 9.93151L10 9.80364L10.1514 9.72152L10.1794 9.52435Z" fill="#F8D74C"/>
<path d="M13.6859 9.64126L13.8206 9.52435L13.8486 9.72152L14 9.80364L13.8723 9.93151L13.889 10.1305L13.7333 10.0612L13.5986 10.1782L13.5705 9.98099L13.4192 9.89887L13.5468 9.771L13.5302 9.57197L13.6859 9.64126Z" fill="#F8D74C"/>
<path d="M11.8862 13.178L11.6472 13.7584V13.9519H12.2504V13.7584L12.0683 13.178V11.778L12.387 11.5276H11.6472L11.8862 11.778V13.178Z" fill="#E77D42"/>
<path d="M10.9984 11.4821L10.7139 11.7667H10.896L10.9984 11.6642L11.1692 11.7667L11.3854 11.8805L11.4879 11.7667V11.6642L11.67 11.5618L11.8521 11.4138L12.2504 11.8349L12.4439 11.5618H12.6602L13.0471 11.6642L13.1951 11.5618L13.2861 11.4821L13.1951 11.2659L13.0471 11.1065L12.9333 10.9586L12.7171 10.8903V10.7309L12.5691 10.6285L12.4439 10.822H12.2504V10.4464L11.9773 10.3553L11.7838 10.4464V10.5602L11.4879 10.7309L11.3854 11.1065L11.1692 11.2659V11.4821H10.9984Z" fill="#3FB47C"/>
</g>
<defs>
<clipPath id="clip0_440_956">
<rect width="24" height="24" rx="12" fill="white"/>
</clipPath>
</defs>
</svg>
