<svg width="32" height="24" viewBox="0 0 32 24" fill="none" xmlns="http://www.w3.org/2000/svg">
<g clip-path="url(#clip0_440_958)">
<rect width="32" height="24" rx="2" fill="#F9F9F9"/>
<path d="M0 16H32V24H0V16Z" fill="#D74B4B"/>
<path d="M0 0H32V8H0V0Z" fill="#3FB47C"/>
<path d="M0 24L2.86197e-07 0L10 12L0 24Z" fill="#64BEDB"/>
<path d="M17.5909 9.96807H14.4091V13.1693C14.4091 13.7216 14.8568 14.1693 15.4091 14.1693H15.8131C15.8948 14.2326 15.975 14.2953 16.0309 14.3392L16.2073 14.1693H16.5909C17.1432 14.1693 17.5909 13.7216 17.5909 13.1693V9.96807Z" fill="white"/>
<path fill-rule="evenodd" clip-rule="evenodd" d="M14.0036 14.3033C13.6436 14.0038 13.5661 13.6404 13.5661 13.3949L13.7661 13.3949C13.7661 13.5976 13.8286 13.8976 14.1315 14.1496C14.4376 14.4043 15.0034 14.6219 16.0373 14.6219C17.0719 14.6219 17.6173 14.4054 17.9038 14.1534C18.1867 13.9046 18.2339 13.6061 18.2339 13.3949H18.4339C18.4339 13.6374 18.3784 14.0024 18.0358 14.3036C17.6969 14.6017 17.0939 14.8218 16.0373 14.8218C14.9801 14.8218 14.3602 14.6 14.0036 14.3033Z" fill="#333333"/>
<path d="M15.7446 9.34783L15.6567 9.17815L15.5688 9.34783L15.4029 9.35476L15.4808 9.53137L15.4029 9.70797L15.5688 9.7149L15.6567 9.88458L15.7446 9.7149L15.9105 9.70797L15.8326 9.53137L15.9105 9.35476L15.7446 9.34783Z" fill="#F8D74C"/>
<path d="M16.2554 9.34783L16.3433 9.17815L16.4312 9.34783L16.5971 9.35476L16.5192 9.53137L16.5971 9.70797L16.4312 9.7149L16.3433 9.88458L16.2554 9.7149L16.0895 9.70797L16.1674 9.53137L16.0895 9.35476L16.2554 9.34783Z" fill="#F8D74C"/>
<path d="M14.9064 9.27638L15.0239 9.41769L15.1868 9.3792L15.144 9.57249L15.2531 9.72325L15.0928 9.77524L15.039 9.96449L14.9215 9.82319L14.7586 9.86167L14.8014 9.66839L14.6923 9.51762L14.8526 9.46564L14.9064 9.27638Z" fill="#F8D74C"/>
<path d="M16.9761 9.41769L17.0936 9.27638L17.1474 9.46564L17.3077 9.51762L17.1986 9.66839L17.2414 9.86167L17.0785 9.82319L16.961 9.96449L16.9072 9.77524L16.7469 9.72325L16.856 9.57249L16.8132 9.3792L16.9761 9.41769Z" fill="#F8D74C"/>
<path d="M14.1794 9.52435L14.3141 9.64126L14.4699 9.57197L14.4532 9.771L14.5809 9.89887L14.4295 9.98099L14.4014 10.1782L14.2667 10.0612L14.111 10.1305L14.1277 9.93151L14 9.80364L14.1514 9.72152L14.1794 9.52435Z" fill="#F8D74C"/>
<path d="M17.6859 9.64126L17.8206 9.52435L17.8486 9.72152L18 9.80364L17.8723 9.93151L17.889 10.1305L17.7333 10.0612L17.5986 10.1782L17.5705 9.98099L17.4192 9.89887L17.5468 9.771L17.5301 9.57197L17.6859 9.64126Z" fill="#F8D74C"/>
<path d="M15.8862 13.178L15.6472 13.7584V13.9519H16.2504V13.7584L16.0683 13.178V11.778L16.387 11.5276H15.6472L15.8862 11.778V13.178Z" fill="#E77D42"/>
<path d="M14.9984 11.4821L14.7139 11.7667H14.896L14.9984 11.6642L15.1692 11.7667L15.3854 11.8805L15.4879 11.7667V11.6642L15.67 11.5618L15.8521 11.4138L16.2504 11.8349L16.4439 11.5618H16.6602L17.0471 11.6642L17.1951 11.5618L17.2861 11.4821L17.1951 11.2659L17.0471 11.1065L16.9333 10.9586L16.7171 10.8903V10.7309L16.5691 10.6285L16.4439 10.822H16.2504V10.4464L15.9773 10.3553L15.7838 10.4464V10.5602L15.4879 10.7309L15.3854 11.1065L15.1692 11.2659V11.4821H14.9984Z" fill="#3FB47C"/>
</g>
<defs>
<clipPath id="clip0_440_958">
<rect width="32" height="24" rx="2" fill="white"/>
</clipPath>
</defs>
</svg>
