<svg width="24" height="24" viewBox="0 0 24 24" fill="none" xmlns="http://www.w3.org/2000/svg">
<g clip-path="url(#clip0_440_953)">
<rect width="24" height="24" rx="12" fill="#3FB47C"/>
<path d="M0 24L24 12V24H0Z" fill="#64BEDB"/>
<path d="M24 12L0 0V24L24 12Z" fill="#D74B4B"/>
<path d="M5.22811 7.95283C5.2403 7.96709 5.25366 7.98141 5.26825 7.99581C5.56889 8.29243 5.99123 7.83337 6.08429 7.65681C5.94145 7.71318 5.67914 7.78754 5.56159 7.72908C5.71529 7.63348 5.86279 7.55235 6.00009 7.48683L5.95501 7.38774C5.81278 7.45561 5.66025 7.53961 5.50154 7.63854C5.48037 7.46398 5.62174 7.14316 5.69774 7C5.66933 7.02367 5.63952 7.04789 5.60906 7.07265C5.33386 7.29626 5.00507 7.56342 5.16624 7.86375C4.98819 7.99186 4.80628 8.13632 4.62565 8.29564C4.57389 8.05311 4.74798 7.57143 4.84305 7.35778C4.80593 7.39364 4.76694 7.43038 4.72709 7.46794C4.35065 7.82271 3.89753 8.24975 4.21805 8.68421C4.07195 8.83474 3.92946 8.99475 3.79353 9.16336C3.67355 8.86914 3.79583 8.21261 3.87277 7.91853C3.83303 7.9722 3.7911 8.0274 3.74825 8.08382C3.33942 8.62209 2.84651 9.27108 3.36954 9.75497C3.25151 9.94209 3.14327 10.1371 3.04785 10.339C3.03582 10.3265 3.02481 10.3122 3.01491 10.2959C2.81011 9.95864 2.85146 9.1108 2.89774 8.72903C2.85752 8.80259 2.81484 8.87843 2.77122 8.95594C2.32819 9.74322 1.78815 10.7029 2.74041 11.1879C2.69402 11.3712 2.65947 11.5586 2.63855 11.7495C2.39259 11.4202 2.18683 10.8292 2.10301 10.5257C2.09386 10.6095 2.08331 10.6963 2.07253 10.7851C1.9702 11.6279 1.84692 12.6433 2.69796 12.8277C2.76866 13.0954 2.88247 13.3542 3.03031 13.603C2.67493 13.4242 2.26479 13.0701 2.06147 12.8704C2.09499 12.9474 2.12883 13.0278 2.16342 13.11C2.49884 13.9067 2.9044 14.87 3.76643 14.5273C3.90776 14.6682 4.0581 14.8045 4.21507 14.936C3.76057 14.9049 3.09369 14.6045 2.77542 14.4338C2.83505 14.5061 2.89606 14.582 2.95841 14.6595C3.57553 15.427 4.32432 16.3582 5.17041 15.6335C5.66076 15.9491 6.17184 16.2241 6.65427 16.4526L6.64012 16.6458C6.40142 16.744 6.17795 16.8278 5.97755 16.8963L6.01132 17C6.19987 16.9356 6.40864 16.8577 6.63123 16.7671L6.61798 16.9481H7.52525L7.50018 16.8198C7.67379 16.8882 7.83772 16.9484 7.98868 17L8.02245 16.8963C7.85471 16.839 7.67082 16.7709 7.47536 16.6927L7.42142 16.4164C7.8814 16.1953 8.3648 15.9326 8.82959 15.6335C9.67568 16.3582 10.4245 15.427 11.0416 14.6595C11.1039 14.582 11.1649 14.5061 11.2246 14.4338C10.9063 14.6045 10.2394 14.9049 9.78493 14.936C9.9419 14.8045 10.0922 14.6682 10.2336 14.5273C11.0956 14.87 11.5012 13.9067 11.8366 13.11L11.8367 13.1098C11.8712 13.0277 11.905 12.9474 11.9385 12.8704C11.7352 13.0701 11.3251 13.4242 10.9697 13.603C11.1175 13.3542 11.2313 13.0954 11.302 12.8277C12.1531 12.6433 12.0298 11.6279 11.9275 10.7851L11.9274 10.7848L11.9274 10.7844C11.9166 10.6959 11.9061 10.6092 11.897 10.5257C11.8132 10.8292 11.6074 11.4202 11.3615 11.7495C11.3405 11.5586 11.306 11.3712 11.2596 11.1879C12.2119 10.7029 11.6718 9.74322 11.2288 8.95594C11.1852 8.87843 11.1425 8.80259 11.1023 8.72903C11.1485 9.1108 11.1899 9.95864 10.9851 10.2959C10.9752 10.3122 10.9642 10.3265 10.9521 10.339C10.8567 10.1371 10.7485 9.94209 10.6305 9.75497C11.1535 9.27108 10.6606 8.62209 10.2517 8.08382L10.2514 8.08339C10.2087 8.02712 10.1669 7.97206 10.1272 7.91853C10.2042 8.21261 10.3264 8.86914 10.2065 9.16336C10.0705 8.99475 9.92805 8.83474 9.78195 8.68421C10.1025 8.24975 9.64938 7.82274 9.27294 7.46797C9.23309 7.43041 9.19408 7.39364 9.15695 7.35778C9.25202 7.57143 9.42611 8.05311 9.37435 8.29564C9.19372 8.13632 9.01181 7.99186 8.83377 7.86375C8.99493 7.56342 8.66614 7.29626 8.39094 7.07265C8.36048 7.04789 8.33067 7.02367 8.30226 7C8.37826 7.14316 8.51963 7.46398 8.49846 7.63854C8.33975 7.53961 8.18722 7.45561 8.04499 7.38774L7.99991 7.48683C8.13721 7.55235 8.28471 7.63348 8.4384 7.72908C8.32086 7.78754 8.05855 7.71318 7.91571 7.65681C8.00877 7.83337 8.43111 8.29243 8.73175 7.99581C8.74634 7.98141 8.7597 7.96709 8.77189 7.95283C8.95113 8.08177 9.1346 8.22774 9.31676 8.38913C9.16741 8.4956 8.78054 8.35932 8.57706 8.26238C8.69112 8.52075 9.23487 9.20642 9.66954 8.80761C9.68438 8.794 9.69839 8.78038 9.71158 8.76677C9.85365 8.91347 9.99227 9.06932 10.1246 9.2335C10.1293 9.23932 10.134 9.24516 10.1386 9.251C9.93892 9.38591 9.44976 9.11547 9.20249 8.94174C9.29377 9.29491 9.84237 10.2847 10.4775 9.87257C10.5021 9.85667 10.5252 9.84054 10.5471 9.82419C10.6622 10.0076 10.7676 10.1983 10.8602 10.3955C10.5798 10.4833 10.0504 10.0834 9.78354 9.83411C9.83623 10.2798 10.332 11.5639 11.1608 11.2335C11.2117 11.4383 11.2473 11.6481 11.265 11.8621C11.2418 11.8852 11.2182 11.9056 11.1945 11.9228C10.8778 12.152 10.4413 11.4158 10.2626 11.019C10.1398 11.4586 10.1105 12.8828 11.0513 12.8565C11.0983 12.8552 11.1431 12.852 11.1858 12.847C11.1041 13.1333 10.9708 13.4103 10.7973 13.6763C10.7425 13.6948 10.6904 13.7069 10.6422 13.711C10.2558 13.7445 10.2432 12.8833 10.2852 12.4485C9.96203 12.7639 9.2328 13.977 10.0571 14.4421C10.081 14.4556 10.1047 14.4681 10.128 14.4798C9.96871 14.6364 9.79761 14.7877 9.61777 14.9334C9.60138 14.9314 9.58548 14.9289 9.57015 14.9257C9.14319 14.8383 9.39225 13.9054 9.57015 13.4499C9.12541 13.6868 7.96908 14.7617 8.71624 15.527C8.72646 15.5374 8.73666 15.5477 8.74684 15.5576C8.30206 15.8421 7.84054 16.0931 7.39985 16.306L7.0983 14.7617L6.98894 14.3138L7.74341 13.6569C8.21223 14.21 8.78894 13.6699 9.26495 13.224C9.31345 13.1786 9.36091 13.1342 9.4071 13.092C9.14433 13.1868 8.55203 13.3503 8.28507 13.2461C8.01811 13.1419 8.27752 12.542 8.44059 12.2551C8.12795 12.3668 7.26669 12.9655 7.66936 13.5589C7.67094 13.5613 7.67253 13.5636 7.67412 13.5659C7.67525 13.5676 7.67638 13.5692 7.67752 13.5708L6.96006 14.1954L6.77808 13.4499V12.1564L7.37353 11.8133C7.40032 11.8583 7.43425 11.9041 7.47607 11.951C7.8841 12.4078 8.53545 11.7839 8.68569 11.5374C8.42076 11.6227 7.88225 11.7313 7.84772 11.4831C7.81319 11.235 8.05863 10.759 8.18566 10.552C8.1425 10.5835 8.09723 10.6158 8.05101 10.6487C7.64427 10.9383 7.16039 11.2828 7.32567 11.7155L6.77808 12.0309V11.5368L7.40474 10.3448L7.7196 10.103C7.73613 10.1256 7.75469 10.1486 7.77539 10.1717C8.14427 10.5847 8.7331 10.0207 8.86893 9.79789C8.62942 9.87502 8.14259 9.97318 8.11138 9.74882C8.08016 9.52445 8.30204 9.09414 8.41689 8.90703C8.37786 8.93555 8.33695 8.96468 8.29516 8.99444C7.91145 9.26766 7.45181 9.59494 7.66231 10.0103L7.52525 10.1156L7.34498 8.91552C7.37518 8.90313 7.40664 8.88677 7.43944 8.86606C7.79481 8.64173 7.46592 8.10846 7.32214 7.97218C7.34207 8.14727 7.34589 8.47784 7.22444 8.53794L7.0983 8.31184L7.12516 8.53881C6.955 8.49489 6.71362 8.29579 6.60478 8.192C6.62009 8.22607 6.63557 8.26169 6.65139 8.29806C6.7762 8.58513 6.92225 8.92104 7.1732 8.94479L7.31177 10.1156L6.78203 10.9454L6.38289 10.6729C6.3976 10.6552 6.4122 10.6361 6.42668 10.6156C6.74705 10.1621 6.08871 9.68549 5.8482 9.59427C5.97036 9.81893 6.16261 10.2874 5.95437 10.3641C5.74614 10.4407 5.28982 10.3051 5.08769 10.2277C5.12285 10.2611 5.15897 10.2963 5.19587 10.3322C5.53825 10.6653 5.94911 11.0651 6.30643 10.7521L6.72362 11.0369L6.4045 11.5368V13.4499L6.4066 13.4573L5.97879 12.9394C5.98738 12.9277 5.99593 12.9156 6.00444 12.903C6.40711 12.3096 5.54585 11.7109 5.2332 11.5992C5.39628 11.8861 5.65569 12.486 5.38872 12.5902C5.12176 12.6944 4.52947 12.5308 4.26669 12.436C4.31289 12.4782 4.36034 12.5227 4.40885 12.5681C4.87782 13.0074 5.44454 13.5382 5.90952 13.0248L6.4705 13.7038L6.47557 13.6995L6.77808 14.7617L6.6628 16.3361C6.20334 16.1169 5.71907 15.8556 5.25316 15.5576C5.26334 15.5477 5.27354 15.5374 5.28376 15.527C6.03092 14.7617 4.87459 13.6868 4.42985 13.4499C4.60775 13.9054 4.8568 14.8383 4.42985 14.9257C4.41452 14.9289 4.39862 14.9314 4.38222 14.9334C4.20239 14.7877 4.03129 14.6364 3.87202 14.4798C3.89534 14.4681 3.91897 14.4556 3.94293 14.4421C4.7672 13.977 4.03797 12.7639 3.71479 12.4485C3.75681 12.8833 3.74425 13.7445 3.35784 13.711C3.30964 13.7069 3.25752 13.6948 3.20267 13.6763C3.0292 13.4103 2.89591 13.1333 2.81421 12.847C2.85691 12.852 2.90172 12.8552 2.94874 12.8565C3.88948 12.8828 3.86017 11.4586 3.73739 11.019C3.55871 11.4158 3.12217 12.152 2.8055 11.9228C2.78178 11.9056 2.75824 11.8852 2.73496 11.8621C2.75274 11.6481 2.78834 11.4383 2.83921 11.2335C3.66802 11.5639 4.16377 10.2798 4.21646 9.83411C3.94962 10.0834 3.42018 10.4833 3.13976 10.3955C3.23244 10.1983 3.33779 10.0076 3.45295 9.82419C3.47479 9.84054 3.49794 9.85667 3.52245 9.87257C4.15763 10.2847 4.70623 9.29491 4.79751 8.94174C4.55024 9.11547 4.06108 9.38591 3.86135 9.251L3.87073 9.23931L3.87541 9.2335C4.00773 9.06932 4.14635 8.91347 4.28842 8.76677C4.30161 8.78038 4.31562 8.794 4.33046 8.80761C4.76513 9.20642 5.30888 8.52075 5.42294 8.26238C5.21946 8.35932 4.83259 8.4956 4.68324 8.38913C4.8654 8.22774 5.04887 8.08177 5.22811 7.95283Z" fill="#F8D74C"/>
</g>
<defs>
<clipPath id="clip0_440_953">
<rect width="24" height="24" rx="12" fill="white"/>
</clipPath>
</defs>
</svg>
