<svg width="32" height="24" viewBox="0 0 32 24" fill="none" xmlns="http://www.w3.org/2000/svg">
<g clip-path="url(#clip0_440_955)">
<rect width="32" height="24" rx="2" fill="#3FB47C"/>
<path d="M0 24L32 12V24H0Z" fill="#64BEDB"/>
<path d="M32 12L0 0V24L32 12Z" fill="#D74B4B"/>
<path d="M7.22811 7.95283C7.2403 7.96709 7.25366 7.98141 7.26825 7.99581C7.56889 8.29243 7.99123 7.83337 8.08429 7.65681C7.94145 7.71318 7.67914 7.78754 7.56159 7.72908C7.71529 7.63348 7.86279 7.55235 8.00009 7.48683L7.95501 7.38774C7.81278 7.45561 7.66025 7.53961 7.50154 7.63854C7.48037 7.46398 7.62174 7.14316 7.69774 7C7.66933 7.02367 7.63952 7.04789 7.60906 7.07265C7.33386 7.29626 7.00507 7.56342 7.16624 7.86375C6.98819 7.99186 6.80628 8.13632 6.62565 8.29564C6.57389 8.05311 6.74798 7.57143 6.84305 7.35778C6.80593 7.39364 6.76694 7.43038 6.72709 7.46794C6.35065 7.82271 5.89753 8.24975 6.21805 8.68421C6.07195 8.83474 5.92946 8.99475 5.79353 9.16336C5.67355 8.86914 5.79583 8.21261 5.87277 7.91853C5.83303 7.9722 5.7911 8.0274 5.74825 8.08382C5.33942 8.62209 4.84651 9.27108 5.36954 9.75497C5.25151 9.94209 5.14327 10.1371 5.04785 10.339C5.03582 10.3265 5.02481 10.3122 5.01491 10.2959C4.81011 9.95864 4.85146 9.1108 4.89774 8.72903C4.85752 8.80259 4.81484 8.87843 4.77122 8.95594C4.32819 9.74322 3.78815 10.7029 4.74041 11.1879C4.69402 11.3712 4.65947 11.5586 4.63855 11.7495C4.39259 11.4202 4.18683 10.8292 4.10301 10.5257C4.09386 10.6095 4.08331 10.6963 4.07253 10.7851C3.9702 11.6279 3.84692 12.6433 4.69796 12.8277C4.76866 13.0954 4.88247 13.3542 5.03031 13.603C4.67493 13.4242 4.26479 13.0701 4.06147 12.8704C4.09499 12.9474 4.12883 13.0278 4.16342 13.11C4.49884 13.9067 4.9044 14.87 5.76643 14.5273C5.90776 14.6682 6.0581 14.8045 6.21507 14.936C5.76057 14.9049 5.09369 14.6045 4.77542 14.4338C4.83505 14.5061 4.89606 14.582 4.95841 14.6595C5.57553 15.427 6.32432 16.3582 7.17041 15.6335C7.66076 15.9491 8.17184 16.2241 8.65427 16.4526L8.64012 16.6458C8.40142 16.744 8.17795 16.8278 7.97755 16.8963L8.01132 17C8.19987 16.9356 8.40864 16.8577 8.63123 16.7671L8.61798 16.9481H9.52525L9.50018 16.8198C9.67379 16.8882 9.83772 16.9484 9.98868 17L10.0224 16.8963C9.85471 16.839 9.67082 16.7709 9.47536 16.6927L9.42142 16.4164C9.8814 16.1953 10.3648 15.9326 10.8296 15.6335C11.6757 16.3582 12.4245 15.427 13.0416 14.6595C13.1039 14.582 13.1649 14.5061 13.2246 14.4338C12.9063 14.6045 12.2394 14.9049 11.7849 14.936C11.9419 14.8045 12.0922 14.6682 12.2336 14.5273C13.0956 14.87 13.5012 13.9067 13.8366 13.11L13.8367 13.1098C13.8712 13.0277 13.905 12.9474 13.9385 12.8704C13.7352 13.0701 13.3251 13.4242 12.9697 13.603C13.1175 13.3542 13.2313 13.0954 13.302 12.8277C14.1531 12.6433 14.0298 11.6279 13.9275 10.7851L13.9274 10.7848L13.9274 10.7844C13.9166 10.6959 13.9061 10.6092 13.897 10.5257C13.8132 10.8292 13.6074 11.4202 13.3615 11.7495C13.3405 11.5586 13.306 11.3712 13.2596 11.1879C14.2119 10.7029 13.6718 9.74322 13.2288 8.95594C13.1852 8.87843 13.1425 8.80259 13.1023 8.72903C13.1485 9.1108 13.1899 9.95864 12.9851 10.2959C12.9752 10.3122 12.9642 10.3265 12.9521 10.339C12.8567 10.1371 12.7485 9.94209 12.6305 9.75497C13.1535 9.27108 12.6606 8.62209 12.2517 8.08382L12.2514 8.08339C12.2087 8.02712 12.1669 7.97206 12.1272 7.91853C12.2042 8.21261 12.3264 8.86914 12.2065 9.16336C12.0705 8.99475 11.928 8.83474 11.7819 8.68421C12.1025 8.24975 11.6494 7.82274 11.2729 7.46797C11.2331 7.43041 11.1941 7.39364 11.1569 7.35778C11.252 7.57143 11.4261 8.05311 11.3743 8.29564C11.1937 8.13632 11.0118 7.99186 10.8338 7.86375C10.9949 7.56342 10.6661 7.29626 10.3909 7.07265C10.3605 7.04789 10.3307 7.02367 10.3023 7C10.3783 7.14316 10.5196 7.46398 10.4985 7.63854C10.3397 7.53961 10.1872 7.45561 10.045 7.38774L9.99991 7.48683C10.1372 7.55235 10.2847 7.63348 10.4384 7.72908C10.3209 7.78754 10.0585 7.71318 9.91571 7.65681C10.0088 7.83337 10.4311 8.29243 10.7318 7.99581C10.7463 7.98141 10.7597 7.96709 10.7719 7.95283C10.9511 8.08177 11.1346 8.22774 11.3168 8.38913C11.1674 8.4956 10.7805 8.35932 10.5771 8.26238C10.6911 8.52075 11.2349 9.20642 11.6695 8.80761C11.6844 8.794 11.6984 8.78038 11.7116 8.76677C11.8536 8.91347 11.9923 9.06932 12.1246 9.2335C12.1293 9.23932 12.134 9.24516 12.1386 9.251C11.9389 9.38591 11.4498 9.11547 11.2025 8.94174C11.2938 9.29491 11.8424 10.2847 12.4775 9.87257C12.5021 9.85667 12.5252 9.84054 12.5471 9.82419C12.6622 10.0076 12.7676 10.1983 12.8602 10.3955C12.5798 10.4833 12.0504 10.0834 11.7835 9.83411C11.8362 10.2798 12.332 11.5639 13.1608 11.2335C13.2117 11.4383 13.2473 11.6481 13.265 11.8621C13.2418 11.8852 13.2182 11.9056 13.1945 11.9228C12.8778 12.152 12.4413 11.4158 12.2626 11.019C12.1398 11.4586 12.1105 12.8828 13.0513 12.8565C13.0983 12.8552 13.1431 12.852 13.1858 12.847C13.1041 13.1333 12.9708 13.4103 12.7973 13.6763C12.7425 13.6948 12.6904 13.7069 12.6422 13.711C12.2558 13.7445 12.2432 12.8833 12.2852 12.4485C11.962 12.7639 11.2328 13.977 12.0571 14.4421C12.081 14.4556 12.1047 14.4681 12.128 14.4798C11.9687 14.6364 11.7976 14.7877 11.6178 14.9334C11.6014 14.9314 11.5855 14.9289 11.5701 14.9257C11.1432 14.8383 11.3922 13.9054 11.5701 13.4499C11.1254 13.6868 9.96908 14.7617 10.7162 15.527C10.7265 15.5374 10.7367 15.5477 10.7468 15.5576C10.3021 15.8421 9.84054 16.0931 9.39985 16.306L9.0983 14.7617L8.98894 14.3138L9.74341 13.6569C10.2122 14.21 10.7889 13.6699 11.2649 13.224C11.3135 13.1786 11.3609 13.1342 11.4071 13.092C11.1443 13.1868 10.552 13.3503 10.2851 13.2461C10.0181 13.1419 10.2775 12.542 10.4406 12.2551C10.1279 12.3668 9.26669 12.9655 9.66936 13.5589C9.67094 13.5613 9.67253 13.5636 9.67412 13.5659C9.67525 13.5676 9.67638 13.5692 9.67752 13.5708L8.96006 14.1954L8.77808 13.4499V12.1564L9.37353 11.8133C9.40032 11.8583 9.43425 11.9041 9.47607 11.951C9.8841 12.4078 10.5354 11.7839 10.6857 11.5374C10.4208 11.6227 9.88225 11.7313 9.84772 11.4831C9.81319 11.235 10.0586 10.759 10.1857 10.552C10.1425 10.5835 10.0972 10.6158 10.051 10.6487C9.64427 10.9383 9.16039 11.2828 9.32567 11.7155L8.77808 12.0309V11.5368L9.40474 10.3448L9.7196 10.103C9.73613 10.1256 9.75469 10.1486 9.77539 10.1717C10.1443 10.5847 10.7331 10.0207 10.8689 9.79789C10.6294 9.87502 10.1426 9.97318 10.1114 9.74882C10.0802 9.52445 10.302 9.09414 10.4169 8.90703C10.3779 8.93555 10.337 8.96468 10.2952 8.99444C9.91145 9.26766 9.45181 9.59494 9.66231 10.0103L9.52525 10.1156L9.34498 8.91552C9.37518 8.90313 9.40664 8.88677 9.43944 8.86606C9.79481 8.64173 9.46592 8.10846 9.32214 7.97218C9.34207 8.14727 9.34589 8.47784 9.22444 8.53794L9.0983 8.31184L9.12516 8.53881C8.955 8.49489 8.71362 8.29579 8.60478 8.192C8.62009 8.22607 8.63557 8.26169 8.65139 8.29806C8.7762 8.58513 8.92225 8.92104 9.1732 8.94479L9.31177 10.1156L8.78203 10.9454L8.38289 10.6729C8.3976 10.6552 8.4122 10.6361 8.42668 10.6156C8.74705 10.1621 8.08871 9.68549 7.8482 9.59427C7.97036 9.81893 8.16261 10.2874 7.95437 10.3641C7.74614 10.4407 7.28982 10.3051 7.08769 10.2277C7.12285 10.2611 7.15897 10.2963 7.19587 10.3322C7.53825 10.6653 7.94911 11.0651 8.30643 10.7521L8.72362 11.0369L8.4045 11.5368V13.4499L8.4066 13.4573L7.97879 12.9394C7.98738 12.9277 7.99593 12.9156 8.00444 12.903C8.40711 12.3096 7.54585 11.7109 7.2332 11.5992C7.39628 11.8861 7.65569 12.486 7.38872 12.5902C7.12176 12.6944 6.52947 12.5308 6.26669 12.436C6.31289 12.4782 6.36034 12.5227 6.40885 12.5681C6.87782 13.0074 7.44454 13.5382 7.90952 13.0248L8.4705 13.7038L8.47557 13.6995L8.77808 14.7617L8.6628 16.3361C8.20334 16.1169 7.71907 15.8556 7.25316 15.5576C7.26334 15.5477 7.27354 15.5374 7.28376 15.527C8.03092 14.7617 6.87459 13.6868 6.42985 13.4499C6.60775 13.9054 6.8568 14.8383 6.42985 14.9257C6.41452 14.9289 6.39862 14.9314 6.38222 14.9334C6.20239 14.7877 6.03129 14.6364 5.87202 14.4798C5.89534 14.4681 5.91897 14.4556 5.94293 14.4421C6.7672 13.977 6.03797 12.7639 5.71479 12.4485C5.75681 12.8833 5.74425 13.7445 5.35784 13.711C5.30964 13.7069 5.25752 13.6948 5.20267 13.6763C5.0292 13.4103 4.89591 13.1333 4.81421 12.847C4.85691 12.852 4.90172 12.8552 4.94874 12.8565C5.88948 12.8828 5.86017 11.4586 5.73739 11.019C5.55871 11.4158 5.12217 12.152 4.8055 11.9228C4.78178 11.9056 4.75824 11.8852 4.73496 11.8621C4.75274 11.6481 4.78834 11.4383 4.83921 11.2335C5.66802 11.5639 6.16377 10.2798 6.21646 9.83411C5.94962 10.0834 5.42018 10.4833 5.13976 10.3955C5.23244 10.1983 5.33779 10.0076 5.45295 9.82419C5.47479 9.84054 5.49794 9.85667 5.52245 9.87257C6.15763 10.2847 6.70623 9.29491 6.79751 8.94174C6.55024 9.11547 6.06108 9.38591 5.86135 9.251L5.87073 9.23931L5.87541 9.2335C6.00773 9.06932 6.14635 8.91347 6.28842 8.76677C6.30161 8.78038 6.31562 8.794 6.33046 8.80761C6.76513 9.20642 7.30888 8.52075 7.42294 8.26238C7.21946 8.35932 6.83259 8.4956 6.68324 8.38913C6.8654 8.22774 7.04887 8.08177 7.22811 7.95283Z" fill="#F8D74C"/>
</g>
<defs>
<clipPath id="clip0_440_955">
<rect width="32" height="24" rx="2" fill="white"/>
</clipPath>
</defs>
</svg>
