<svg width="24" height="24" viewBox="0 0 24 24" fill="none" xmlns="http://www.w3.org/2000/svg">
<g clip-path="url(#clip0_440_973)">
<rect width="24" height="24" rx="12" fill="#F8D74C"/>
<path d="M0 16H24V24H0V16Z" fill="#D74B4B"/>
<path d="M0 0H24V8H0V0Z" fill="#3FB47C"/>
<path d="M19 12C19 15.866 15.866 19 12 19C8.13401 19 5 15.866 5 12C5 8.13401 8.13401 5 12 5C15.866 5 19 8.13401 19 12Z" fill="#64BEDB"/>
<path d="M8.27105 7.02862L10.0344 9.45568L10.4389 9.16178L8.67555 6.73473L8.27105 7.02862Z" fill="#F8D74C"/>
<path d="M9.22411 12.9006L6.37094 13.8276L6.21643 13.3521L9.0696 12.4251L9.22411 12.9006Z" fill="#F8D74C"/>
<path d="M12.25 17.7358L12.25 14.7358H11.75L11.75 17.7358H12.25Z" fill="#F8D74C"/>
<path d="M13.5611 9.16178L15.3245 6.73473L15.729 7.02862L13.9656 9.45568L13.5611 9.16178Z" fill="#F8D74C"/>
<path d="M14.9304 12.4251L17.7836 13.3521L17.6291 13.8276L14.7759 12.9006L14.9304 12.4251Z" fill="#F8D74C"/>
<path fill-rule="evenodd" clip-rule="evenodd" d="M12.9436 10.9128L12.0906 8.00076L11.1102 10.9128H8.13147L10.4878 12.7611L9.45279 15.8351L11.9606 13.9162L14.3792 15.8134L13.4823 12.7518L15.8858 10.9128H12.9436ZM9.86857 11.5128H10.9081L10.6909 12.1578L9.86857 11.5128ZM11.5412 11.5128L11.1918 12.5507L11.9651 13.1573L12.7908 12.5254L12.4942 11.5128H11.5412ZM10.6483 14.1649L10.9887 13.1539L11.473 13.5338L10.6483 14.1649ZM13.2774 14.1866L12.4527 13.5397L12.9716 13.1426L13.2774 14.1866ZM14.1143 11.5128L13.3016 12.1346L13.1194 11.5128H14.1143ZM11.7432 10.9128H12.3184L12.0508 9.99925L11.7432 10.9128Z" fill="#F8D74C"/>
</g>
<defs>
<clipPath id="clip0_440_973">
<rect width="24" height="24" rx="12" fill="white"/>
</clipPath>
</defs>
</svg>
