<svg width="32" height="24" viewBox="0 0 32 24" fill="none" xmlns="http://www.w3.org/2000/svg">
<g clip-path="url(#clip0_440_971)">
<rect width="32" height="24" rx="2" fill="#F8D74C"/>
<path d="M0 16H32V24H0V16Z" fill="#D74B4B"/>
<path d="M0 0H32V8H0V0Z" fill="#3FB47C"/>
<path d="M23 12C23 15.866 19.866 19 16 19C12.134 19 9 15.866 9 12C9 8.13401 12.134 5 16 5C19.866 5 23 8.13401 23 12Z" fill="#64BEDB"/>
<path d="M12.271 7.02862L14.0344 9.45568L14.4389 9.16178L12.6756 6.73473L12.271 7.02862Z" fill="#F8D74C"/>
<path d="M13.2241 12.9006L10.3709 13.8276L10.2164 13.3521L13.0696 12.4251L13.2241 12.9006Z" fill="#F8D74C"/>
<path d="M16.25 17.7358L16.25 14.7358H15.75L15.75 17.7358H16.25Z" fill="#F8D74C"/>
<path d="M17.5611 9.16178L19.3245 6.73473L19.729 7.02862L17.9656 9.45568L17.5611 9.16178Z" fill="#F8D74C"/>
<path d="M18.9304 12.4251L21.7836 13.3521L21.6291 13.8276L18.7759 12.9006L18.9304 12.4251Z" fill="#F8D74C"/>
<path fill-rule="evenodd" clip-rule="evenodd" d="M16.9436 10.9128L16.0906 8.00076L15.1102 10.9128H12.1315L14.4878 12.7611L13.4528 15.8351L15.9606 13.9162L18.3792 15.8134L17.4823 12.7518L19.8858 10.9128H16.9436ZM13.8686 11.5128H14.9081L14.6909 12.1578L13.8686 11.5128ZM15.5412 11.5128L15.1918 12.5507L15.9651 13.1573L16.7908 12.5254L16.4942 11.5128H15.5412ZM14.6483 14.1649L14.9887 13.1539L15.473 13.5338L14.6483 14.1649ZM17.2774 14.1866L16.4527 13.5397L16.9716 13.1426L17.2774 14.1866ZM18.1143 11.5128L17.3016 12.1346L17.1194 11.5128H18.1143ZM15.7432 10.9128H16.3184L16.0508 9.99925L15.7432 10.9128Z" fill="#F8D74C"/>
</g>
<defs>
<clipPath id="clip0_440_971">
<rect width="32" height="24" rx="2" fill="white"/>
</clipPath>
</defs>
</svg>
