<svg width="32" height="24" viewBox="0 0 32 24" fill="none" xmlns="http://www.w3.org/2000/svg">
<g clip-path="url(#clip0_440_995)">
<rect width="32" height="24" rx="2" fill="#D74B4B"/>
<path d="M0 16H32V24H0V16Z" fill="#3FB47C"/>
<path d="M0 0H32V8H0V0Z" fill="#333333"/>
<rect y="7.5" width="32" height="1" fill="#F9F9F9"/>
<rect x="0.0612183" y="15.5" width="32" height="1" fill="#F9F9F9"/>
<path d="M15.2774 11.3186L13.1809 8.74294C13.2791 8.51715 13.3389 8.15164 13.132 7.74316C12.8579 7.20185 11.5965 6.02217 11 5.5C11.1789 6.25063 11.6262 7.87581 11.9838 8.37143C12.2815 8.78402 12.6936 8.90417 12.9484 8.91835L15.1077 11.5972L15.2774 11.8758L15.8022 12.5116L11 18.3607L11.2546 18.5L16 12.7512L20.7454 18.5L21 18.3607L16.1978 12.5116L16.7226 11.8758L16.8923 11.5972L19.0516 8.91835C19.3064 8.90417 19.7185 8.78402 20.0162 8.37143C20.3738 7.87581 20.8211 6.25063 21 5.5C20.4035 6.02217 19.1421 7.20185 18.868 7.74316C18.6611 8.15164 18.7209 8.51715 18.8191 8.74294L16.7226 11.3186L16.5529 11.5972L16 12.2706L15.4471 11.5972L15.2774 11.3186Z" fill="#F9F9F9"/>
<path d="M18.8797 12C18.8797 15.5899 17.5636 18.5 15.94 18.5C14.3165 18.5 13.0003 15.5899 13.0003 12C13.0003 8.41015 14.3165 5.5 15.94 5.5C17.5636 5.5 18.8797 8.41015 18.8797 12Z" fill="#D74B4B"/>
<path d="M18.3555 15.7056C18.686 14.6544 18.8797 13.3772 18.8797 12C18.8797 10.8621 18.7475 9.79247 18.5151 8.86217C18.1363 9.77386 17.8998 11.0665 17.8998 12.5C17.8998 13.7199 18.071 14.8377 18.3555 15.7056Z" fill="#333333"/>
<path d="M13.5245 15.7056C13.809 14.8377 13.9802 13.7199 13.9802 12.5C13.9802 11.0665 13.7437 9.77386 13.3649 8.86217C13.1326 9.79247 13.0003 10.8621 13.0003 12C13.0003 13.3772 13.1941 14.6544 13.5245 15.7056Z" fill="#333333"/>
<path d="M15.7987 5.92802C15.4165 6.6327 15.1849 7.55428 15.1849 8.56281C15.1849 9.57135 15.4165 10.4929 15.7987 11.1976V5.92802Z" fill="#F9F9F9"/>
<path d="M16.43 12C16.43 12.4431 16.2106 12.8024 15.94 12.8024C15.6694 12.8024 15.4501 12.4431 15.4501 12C15.4501 11.5569 15.6694 11.1976 15.94 11.1976C16.2106 11.1976 16.43 11.5569 16.43 12Z" fill="#F9F9F9"/>
<path d="M15.1849 15.5282C15.1849 14.4848 15.4165 13.5314 15.7987 12.8024V18.2539C15.4165 17.5249 15.1849 16.5715 15.1849 15.5282Z" fill="#F9F9F9"/>
<path d="M16.0813 5.92802C16.4636 6.6327 16.6951 7.55428 16.6951 8.56281C16.6951 9.57135 16.4636 10.4929 16.0813 11.1976V5.92802Z" fill="#F9F9F9"/>
<path d="M16.6951 15.5282C16.6951 14.4848 16.4636 13.5314 16.0813 12.8024V18.2539C16.4636 17.5249 16.6951 16.5715 16.6951 15.5282Z" fill="#F9F9F9"/>
</g>
<defs>
<clipPath id="clip0_440_995">
<rect width="32" height="24" rx="2" fill="white"/>
</clipPath>
</defs>
</svg>
