<svg width="24" height="24" viewBox="0 0 24 24" fill="none" xmlns="http://www.w3.org/2000/svg">
<g clip-path="url(#clip0_440_997)">
<rect width="24" height="24" rx="12" fill="#D74B4B"/>
<path d="M0 16H24V24H0V16Z" fill="#3FB47C"/>
<path d="M0 0H24V8H0V0Z" fill="#333333"/>
<rect y="8" width="24" height="1" fill="#F9F9F9"/>
<rect y="15" width="24" height="1" fill="#F9F9F9"/>
<path d="M11.2774 11.3186L9.18094 8.74294C9.27914 8.51715 9.33889 8.15164 9.13204 7.74316C8.85794 7.20185 7.59647 6.02217 7 5.5C7.17894 6.25063 7.6262 7.87581 7.9838 8.37143C8.28151 8.78402 8.69364 8.90417 8.94836 8.91835L11.1077 11.5972L11.2774 11.8758L11.8022 12.5116L7 18.3607L7.25459 18.5L12 12.7512L16.7454 18.5L17 18.3607L12.1978 12.5116L12.7226 11.8758L12.8923 11.5972L15.0516 8.91835C15.3064 8.90417 15.7185 8.78402 16.0162 8.37143C16.3738 7.87581 16.8211 6.25063 17 5.5C16.4035 6.02217 15.1421 7.20185 14.868 7.74316C14.6611 8.15164 14.7209 8.51715 14.8191 8.74294L12.7226 11.3186L12.5529 11.5972L12 12.2706L11.4471 11.5972L11.2774 11.3186Z" fill="#F9F9F9"/>
<path d="M14.8797 12C14.8797 15.5899 13.5636 18.5 11.94 18.5C10.3165 18.5 9.00033 15.5899 9.00033 12C9.00033 8.41015 10.3165 5.5 11.94 5.5C13.5636 5.5 14.8797 8.41015 14.8797 12Z" fill="#D74B4B"/>
<path d="M14.3555 15.7056C14.686 14.6544 14.8797 13.3772 14.8797 12C14.8797 10.8621 14.7475 9.79247 14.5151 8.86217C14.1363 9.77386 13.8998 11.0665 13.8998 12.5C13.8998 13.7199 14.071 14.8377 14.3555 15.7056Z" fill="#333333"/>
<path d="M9.52449 15.7056C9.809 14.8377 9.98023 13.7199 9.98023 12.5C9.98023 11.0665 9.74375 9.77386 9.36492 8.86217C9.13257 9.79247 9.00033 10.8621 9.00033 12C9.00033 13.3772 9.19405 14.6544 9.52449 15.7056Z" fill="#333333"/>
<path d="M11.7987 5.92802C11.4165 6.6327 11.1849 7.55428 11.1849 8.56281C11.1849 9.57135 11.4165 10.4929 11.7987 11.1976V5.92802Z" fill="#F9F9F9"/>
<path d="M12.43 12C12.43 12.4431 12.2106 12.8024 11.94 12.8024C11.6694 12.8024 11.4501 12.4431 11.4501 12C11.4501 11.5569 11.6694 11.1976 11.94 11.1976C12.2106 11.1976 12.43 11.5569 12.43 12Z" fill="#F9F9F9"/>
<path d="M11.1849 15.5282C11.1849 14.4848 11.4165 13.5314 11.7987 12.8024V18.2539C11.4165 17.5249 11.1849 16.5715 11.1849 15.5282Z" fill="#F9F9F9"/>
<path d="M12.0813 5.92802C12.4636 6.6327 12.6951 7.55428 12.6951 8.56281C12.6951 9.57135 12.4636 10.4929 12.0813 11.1976V5.92802Z" fill="#F9F9F9"/>
<path d="M12.6951 15.5282C12.6951 14.4848 12.4636 13.5314 12.0813 12.8024V18.2539C12.4636 17.5249 12.6951 16.5715 12.6951 15.5282Z" fill="#F9F9F9"/>
</g>
<defs>
<clipPath id="clip0_440_997">
<rect width="24" height="24" rx="12" fill="white"/>
</clipPath>
</defs>
</svg>
