<svg width="32" height="24" viewBox="0 0 32 24" fill="none" xmlns="http://www.w3.org/2000/svg">
<g clip-path="url(#clip0_440_998)">
<rect width="32" height="24" rx="2" fill="#F9F9F9"/>
<path d="M0 17H32V24H0V17Z" fill="#3FB47C"/>
<path d="M0 0H32V7H0V0Z" fill="#485CC2"/>
<path fill-rule="evenodd" clip-rule="evenodd" d="M15.0866 11.8379L14.4494 10.4636C14.3459 10.2298 14.2555 9.84994 14.3155 9.45462C14.3762 9.0545 14.5929 8.63264 15.1088 8.34262L15.1099 8.34203C15.1899 8.29777 15.3234 8.2369 15.4759 8.19066C15.5363 8.17237 15.6024 8.15547 15.6716 8.14307C15.7402 8.0566 15.8544 8 15.9837 8C16.1146 8 16.23 8.05799 16.2983 8.14624C16.3613 8.15828 16.4216 8.17388 16.4769 8.19066C16.6294 8.2369 16.763 8.29777 16.8429 8.34204L16.844 8.34262C17.3599 8.63264 17.5766 9.0545 17.6373 9.45462C17.6973 9.84994 17.6069 10.2298 17.5034 10.4636L17.5024 10.4658L16.8556 11.8608L18.8638 14.1816C18.9036 14.1638 18.9431 14.1456 18.9825 14.127C19.0846 14.0789 19.1855 14.028 19.2852 13.9746L20 15.167C19.8958 15.213 19.7909 15.2571 19.6852 15.2992C18.1942 15.8945 16.5616 16.1105 14.9679 15.9474L14.9577 15.9522L14.9538 15.9459C14.0506 15.8522 13.1599 15.6366 12.3147 15.2992C12.2091 15.257 12.1042 15.2129 12 15.167L12.701 13.9746C12.8007 14.028 12.9017 14.0789 13.0038 14.1271C13.0432 14.1457 13.0827 14.1639 13.1224 14.1816L15.0866 11.8379ZM15.6039 8.47545L15.59 8.47957C15.4646 8.5176 15.3555 8.56778 15.2967 8.60024C14.885 8.83184 14.7115 9.16417 14.6614 9.49491C14.6105 9.82997 14.6883 10.1572 14.7742 10.3519L15.3291 11.5486L15.6039 11.2207V10.2093H15.1267L15.6039 9.79124V8.47545ZM15.25 15.6654C15.4621 15.6818 15.6748 15.6912 15.8876 15.6936L15.6355 15.2883L15.1465 15.495L15.25 15.6654ZM16.353 15.6879C16.5448 15.6809 16.7364 15.6683 16.9275 15.6501L16.7372 15.344L16.2637 15.5442L16.353 15.6879ZM17.3643 15.5982C17.5722 15.5688 17.7792 15.5325 17.9848 15.4895L17.8389 15.2548L17.294 15.4852L17.3643 15.5982ZM18.3946 15.3942C18.615 15.3378 18.8334 15.2735 19.0493 15.2011L18.9405 15.0262L18.327 15.2856L18.3946 15.3942ZM19.4327 15.0633C19.4627 15.0517 19.4927 15.04 19.5227 15.0281L19.1448 14.3977C19.1122 14.413 19.0796 14.4281 19.0469 14.4429L19.4327 15.0633ZM18.6748 14.5988C18.4654 14.6797 18.2523 14.7506 18.0366 14.8116L18.2226 15.1176L18.8361 14.8582L18.6748 14.5988ZM17.6275 14.9147C17.4226 14.9601 17.2158 14.9969 17.0078 15.025L17.1895 15.3172L17.7344 15.0868L17.6286 14.9166L17.6275 14.9147ZM16.567 15.0714C16.3727 15.0861 16.1779 15.0933 15.9832 15.0931L16.1592 15.3763L16.6327 15.1761L16.567 15.0714ZM15.5043 15.0774C15.2737 15.0625 15.0438 15.0371 14.8155 15.0012L15.0421 15.3271L15.531 15.1203L15.5043 15.0774ZM14.3074 14.9031C14.0752 14.8498 13.8454 14.7854 13.6193 14.7097L13.8893 15.1438L14.3404 14.953L14.3074 14.9031ZM13.0018 14.4708C12.9489 14.4475 12.8963 14.4235 12.844 14.3989L12.5511 14.8971L13.1178 14.6575L13.0018 14.4708ZM12.6592 15.0981C12.9081 15.1908 13.1608 15.2727 13.4163 15.3438L13.5179 15.3008L13.2223 14.8255L12.6592 15.0981ZM14.1172 15.5103L13.9937 15.3118L14.4449 15.121L14.6707 15.4841L14.7415 15.6126C14.5324 15.5854 14.3241 15.5512 14.1172 15.5103ZM16.6104 11.5774L17.1786 10.3519C17.2646 10.1572 17.3423 9.82997 17.2915 9.49491C17.2413 9.16417 17.0678 8.83184 16.6561 8.60024C16.5975 8.56785 16.4887 8.51781 16.3636 8.47981V9.77054L16.8644 10.2093H16.3636V11.2922L16.6104 11.5774Z" fill="#333333"/>
</g>
<defs>
<clipPath id="clip0_440_998">
<rect width="32" height="24" rx="2" fill="white"/>
</clipPath>
</defs>
</svg>
