<svg width="24" height="24" viewBox="0 0 24 24" fill="none" xmlns="http://www.w3.org/2000/svg">
<g clip-path="url(#clip0_440_999)">
<rect width="24" height="24" rx="2" fill="#F9F9F9"/>
<path d="M0 17H24V24H0V17Z" fill="#3FB47C"/>
<path d="M0 0H24V7H0V0Z" fill="#485CC2"/>
<path fill-rule="evenodd" clip-rule="evenodd" d="M11.0866 11.8379L10.4494 10.4636C10.3459 10.2298 10.2555 9.84994 10.3155 9.45462C10.3762 9.0545 10.5929 8.63264 11.1088 8.34262L11.1099 8.34203C11.1899 8.29777 11.3234 8.2369 11.4759 8.19066C11.5363 8.17237 11.6024 8.15547 11.6716 8.14307C11.7402 8.0566 11.8544 8 11.9837 8C12.1146 8 12.23 8.05799 12.2983 8.14624C12.3613 8.15828 12.4216 8.17388 12.4769 8.19066C12.6294 8.2369 12.763 8.29777 12.8429 8.34204L12.844 8.34262C13.3599 8.63264 13.5766 9.0545 13.6373 9.45462C13.6973 9.84994 13.6069 10.2298 13.5034 10.4636L13.5024 10.4658L12.8556 11.8608L14.8638 14.1816C14.9036 14.1638 14.9431 14.1456 14.9825 14.127C15.0846 14.0789 15.1855 14.028 15.2852 13.9746L16 15.167C15.8958 15.213 15.7909 15.2571 15.6852 15.2992C14.1942 15.8945 12.5616 16.1105 10.9679 15.9474L10.9577 15.9522L10.9538 15.9459C10.0506 15.8522 9.15991 15.6366 8.31474 15.2992C8.20909 15.257 8.10416 15.2129 8 15.167L8.70101 13.9746C8.80072 14.028 8.90169 14.0789 9.00382 14.1271C9.04318 14.1457 9.08271 14.1639 9.1224 14.1816L11.0866 11.8379ZM11.6039 8.47545L11.59 8.47957C11.4646 8.5176 11.3555 8.56778 11.2967 8.60024C10.885 8.83184 10.7115 9.16417 10.6614 9.49491C10.6105 9.82997 10.6883 10.1572 10.7742 10.3519L11.3291 11.5486L11.6039 11.2207V10.2093H11.1267L11.6039 9.79124V8.47545ZM11.25 15.6654C11.4621 15.6818 11.6748 15.6912 11.8876 15.6936L11.6355 15.2883L11.1465 15.495L11.25 15.6654ZM12.353 15.6879C12.5448 15.6809 12.7364 15.6683 12.9275 15.6501L12.7372 15.344L12.2637 15.5442L12.353 15.6879ZM13.3643 15.5982C13.5722 15.5688 13.7792 15.5325 13.9848 15.4895L13.8389 15.2548L13.294 15.4852L13.3643 15.5982ZM14.3946 15.3942C14.615 15.3378 14.8334 15.2735 15.0493 15.2011L14.9405 15.0262L14.327 15.2856L14.3946 15.3942ZM15.4327 15.0633C15.4627 15.0517 15.4927 15.04 15.5227 15.0281L15.1448 14.3977C15.1122 14.413 15.0796 14.4281 15.0469 14.4429L15.4327 15.0633ZM14.6748 14.5988C14.4654 14.6797 14.2523 14.7506 14.0366 14.8116L14.2226 15.1176L14.8361 14.8582L14.6748 14.5988ZM13.6275 14.9147C13.4226 14.9601 13.2158 14.9969 13.0078 15.025L13.1895 15.3172L13.7344 15.0868L13.6286 14.9166L13.6275 14.9147ZM12.567 15.0714C12.3727 15.0861 12.1779 15.0933 11.9832 15.0931L12.1592 15.3763L12.6327 15.1761L12.567 15.0714ZM11.5043 15.0774C11.2737 15.0625 11.0438 15.0371 10.8155 15.0012L11.0421 15.3271L11.531 15.1203L11.5043 15.0774ZM10.3074 14.9031C10.0752 14.8498 9.84544 14.7854 9.61932 14.7097L9.88928 15.1438L10.3404 14.953L10.3074 14.9031ZM9.00177 14.4708C8.94891 14.4475 8.89632 14.4235 8.84401 14.3989L8.55112 14.8971L9.11784 14.6575L9.00177 14.4708ZM8.65922 15.0981C8.9081 15.1908 9.16077 15.2727 9.41635 15.3438L9.5179 15.3008L9.22229 14.8255L8.65922 15.0981ZM10.1172 15.5103L9.99373 15.3118L10.4449 15.121L10.6707 15.4841L10.7415 15.6126C10.5324 15.5854 10.3241 15.5512 10.1172 15.5103ZM12.6104 11.5774L13.1786 10.3519C13.2646 10.1572 13.3423 9.82997 13.2915 9.49491C13.2413 9.16417 13.0678 8.83184 12.6561 8.60024C12.5975 8.56785 12.4887 8.51781 12.3636 8.47981V9.77054L12.8644 10.2093H12.3636V11.2922L12.6104 11.5774Z" fill="#333333"/>
</g>
<defs>
<clipPath id="clip0_440_999">
<rect width="24" height="24" rx="2" fill="white"/>
</clipPath>
</defs>
</svg>
