<svg width="24" height="24" viewBox="0 0 24 24" fill="none" xmlns="http://www.w3.org/2000/svg">
<g clip-path="url(#clip0_440_1006)">
<rect width="24" height="24" rx="12" fill="#333333"/>
<path d="M0 16H24V24H0V16Z" fill="#3FB47C"/>
<path d="M0 0H24V8H0V0Z" fill="#D74B4B"/>
<path fill-rule="evenodd" clip-rule="evenodd" d="M11.7249 9.56787C12.3233 9.56787 12.8704 9.79038 13.2904 10.1583C12.7495 9.4534 11.9051 9 10.9565 9C9.32366 9 8 10.3431 8 12C8 13.6569 9.32366 15 10.9565 15C11.9051 15 12.7494 14.5466 13.2904 13.8418C12.8704 14.2097 12.3232 14.4322 11.7249 14.4322C10.4011 14.4322 9.32804 13.3432 9.32804 12C9.32804 10.6568 10.4011 9.56787 11.7249 9.56787ZM14.9455 11.3816L14.2938 10.4775L14.2973 11.5977L13.2486 11.9472L14.2995 12.29L14.3031 13.4101L14.9491 12.5018L16 12.8445L15.3483 11.9404L15.9943 11.0321L14.9455 11.3816Z" fill="#F9F9F9"/>
</g>
<defs>
<clipPath id="clip0_440_1006">
<rect width="24" height="24" rx="12" fill="white"/>
</clipPath>
</defs>
</svg>
