<svg width="32" height="24" viewBox="0 0 32 24" fill="none" xmlns="http://www.w3.org/2000/svg">
<g clip-path="url(#clip0_440_1004)">
<rect width="32" height="24" rx="2" fill="#333333"/>
<path d="M0 16H32V24H0V16Z" fill="#3FB47C"/>
<path d="M0 0H32V8H0V0Z" fill="#D74B4B"/>
<path fill-rule="evenodd" clip-rule="evenodd" d="M15.7249 9.56787C16.3233 9.56787 16.8704 9.79038 17.2904 10.1583C16.7495 9.4534 15.9051 9 14.9565 9C13.3237 9 12 10.3431 12 12C12 13.6569 13.3237 15 14.9565 15C15.9051 15 16.7494 14.5466 17.2904 13.8418C16.8704 14.2097 16.3232 14.4322 15.7249 14.4322C14.4011 14.4322 13.328 13.3432 13.328 12C13.328 10.6568 14.4011 9.56787 15.7249 9.56787ZM18.9455 11.3816L18.2938 10.4775L18.2973 11.5977L17.2486 11.9472L18.2995 12.29L18.3031 13.4101L18.9491 12.5018L20 12.8445L19.3483 11.9404L19.9943 11.0321L18.9455 11.3816Z" fill="#F9F9F9"/>
</g>
<defs>
<clipPath id="clip0_440_1004">
<rect width="32" height="24" rx="2" fill="white"/>
</clipPath>
</defs>
</svg>
