<svg width="32" height="24" viewBox="0 0 32 24" fill="none" xmlns="http://www.w3.org/2000/svg">
<g clip-path="url(#clip0_440_1013)">
<rect width="32" height="24" rx="2" fill="#D74B4B"/>
<path d="M0 16H32V24H0V16Z" fill="#3FB47C"/>
<path d="M0 0H32V8H0V0Z" fill="#333333"/>
<path d="M16.247 1.76863C16.247 2.36293 16 3.15216 16 3.15216C16 3.15216 15.753 2.36293 15.753 1.76863C15.753 1.17433 15.8636 1 16 1C16.1364 1 16.247 1.17433 16.247 1.76863Z" fill="#D74B4B"/>
<path d="M16.8434 1.82016C16.7913 2.412 16.4762 3.17466 16.4762 3.17466C16.4762 3.17466 16.2994 2.36541 16.3515 1.77357C16.4036 1.18173 16.529 1.01855 16.6648 1.03142C16.8007 1.04429 16.8955 1.22832 16.8434 1.82016Z" fill="#D74B4B"/>
<path d="M17.4329 1.92774C17.3291 2.51222 16.9484 3.24199 16.9484 3.24199C16.9484 3.24199 16.8433 2.41941 16.947 1.83494C17.0508 1.25046 17.19 1.0998 17.3242 1.12542C17.4583 1.15105 17.5366 1.34327 17.4329 1.92774Z" fill="#D74B4B"/>
<path d="M18.0105 2.09048C17.8559 2.66274 17.4128 3.35358 17.4128 3.35358C17.4128 3.35358 17.3802 2.52449 17.5348 1.95223C17.6893 1.37997 17.8412 1.24305 17.9725 1.28123C18.1039 1.3194 18.165 1.51821 18.0105 2.09048Z" fill="#D74B4B"/>
<path d="M18.5714 2.30702C18.3673 2.86233 17.8654 3.50851 17.8654 3.50851C17.8654 3.50851 17.9057 2.67979 18.1098 2.12447C18.3139 1.56916 18.4771 1.44714 18.6045 1.49755C18.732 1.54795 18.7755 1.75171 18.5714 2.30702Z" fill="#D74B4B"/>
<path d="M19.111 2.57557C18.859 3.10933 18.3026 3.70549 18.3026 3.70549C18.3026 3.70549 18.4154 2.884 18.6673 2.35024C18.9192 1.81648 19.0925 1.71036 19.215 1.77258C19.3375 1.8348 19.3629 2.04181 19.111 2.57557Z" fill="#D74B4B"/>
<path d="M19.6248 2.89391C19.3271 3.40169 18.7207 3.9429 18.7207 3.9429C18.7207 3.9429 18.905 3.13545 19.2027 2.62766C19.5004 2.11988 19.6822 2.03053 19.7988 2.10405C19.9153 2.17758 19.9225 2.38612 19.6248 2.89391Z" fill="#D74B4B"/>
<path d="M20.1086 3.25939C19.7676 3.73699 19.1163 4.21876 19.1163 4.21876C19.1163 4.21876 19.3706 3.43204 19.7116 2.95444C20.0526 2.47684 20.2414 2.40501 20.3511 2.48922C20.4607 2.57343 20.4496 2.78179 20.1086 3.25939Z" fill="#D74B4B"/>
<path d="M20.5583 3.669C20.1769 4.11246 19.4861 4.5308 19.4861 4.5308C19.4861 4.5308 19.8083 3.77132 20.1897 3.32786C20.5711 2.8844 20.7655 2.83069 20.8673 2.92489C20.9691 3.01909 20.9398 3.22554 20.5583 3.669Z" fill="#D74B4B"/>
<path d="M20.9703 4.11933C20.5516 4.52497 19.8269 4.87641 19.8269 4.87641C19.8269 4.87641 20.2144 4.15048 20.6331 3.74484C21.0518 3.33919 21.2501 3.30404 21.3433 3.40745C21.4364 3.51087 21.389 3.71369 20.9703 4.11933Z" fill="#D74B4B"/>
<path d="M21.3411 4.60665C20.8885 4.97112 20.1361 5.25275 20.1361 5.25275C20.1361 5.25275 20.5856 4.56637 21.0381 4.20191C21.4907 3.83744 21.6912 3.82114 21.7749 3.9329C21.8586 4.04467 21.7936 4.24219 21.3411 4.60665Z" fill="#D74B4B"/>
<path d="M21.6676 5.12693C21.185 5.4472 20.411 5.65669 20.411 5.65669C20.411 5.65669 20.9188 5.01556 21.4014 4.69529C21.884 4.37502 22.0852 4.3777 22.1587 4.4969C22.2322 4.61609 22.1502 4.80667 21.6676 5.12693Z" fill="#D74B4B"/>
<path d="M21.9472 5.67586C21.4385 5.94928 20.6493 6.08489 20.6493 6.08489C20.6493 6.08489 21.2112 5.49431 21.7199 5.22089C22.2286 4.94747 22.4287 4.96912 22.4915 5.09476C22.5542 5.22039 22.4559 5.40244 21.9472 5.67586Z" fill="#D74B4B"/>
<path d="M22.1775 6.24888C21.6469 6.47318 20.8491 6.53379 20.8491 6.53379C20.8491 6.53379 21.4605 5.99866 21.991 5.77436C22.5216 5.55006 22.719 5.59049 22.7704 5.72152C22.8219 5.85256 22.708 6.02458 22.1775 6.24888Z" fill="#D74B4B"/>
<path d="M22.3566 6.84125C21.8085 7.01457 21.0087 6.99968 21.0087 6.99968C21.0087 6.99968 21.6645 6.52443 22.2125 6.35111C22.7605 6.17778 22.9535 6.23666 22.9933 6.37201C23.0331 6.50736 22.9046 6.66792 22.3566 6.84125Z" fill="#D74B4B"/>
<path d="M9.78751 6.35111C10.3355 6.52443 10.9913 6.99968 10.9913 6.99968C10.9913 6.99968 10.1915 7.01458 9.64343 6.84125C9.0954 6.66792 8.9669 6.50736 9.00669 6.37201C9.04647 6.23666 9.23947 6.17778 9.78751 6.35111Z" fill="#D74B4B"/>
<path d="M10.009 5.77436C10.5395 5.99866 11.1509 6.53379 11.1509 6.53379C11.1509 6.53379 10.3531 6.47318 9.82253 6.24888C9.29197 6.02458 9.17807 5.85256 9.22956 5.72152C9.28104 5.59049 9.47841 5.55006 10.009 5.77436Z" fill="#D74B4B"/>
<path d="M10.2801 5.22089C10.7888 5.49431 11.3507 6.08489 11.3507 6.08489C11.3507 6.08489 10.5615 5.94928 10.0528 5.67586C9.54411 5.40244 9.44577 5.22039 9.50853 5.09476C9.57129 4.96912 9.77138 4.94747 10.2801 5.22089Z" fill="#D74B4B"/>
<path d="M10.5986 4.69529C11.0812 5.01556 11.589 5.65669 11.589 5.65669C11.589 5.65669 10.815 5.4472 10.3324 5.12693C9.84976 4.80667 9.76779 4.61609 9.8413 4.4969C9.91481 4.3777 10.116 4.37502 10.5986 4.69529Z" fill="#D74B4B"/>
<path d="M10.9619 4.20191C11.4144 4.56637 11.8639 5.25275 11.8639 5.25275C11.8639 5.25275 11.1115 4.97112 10.6589 4.60665C10.2064 4.24219 10.1414 4.04467 10.2251 3.93291C10.3087 3.82114 10.5093 3.83744 10.9619 4.20191Z" fill="#D74B4B"/>
<path d="M11.3669 3.74483C11.7856 4.15048 12.1731 4.87641 12.1731 4.87641C12.1731 4.87641 11.4484 4.52497 11.0297 4.11933C10.611 3.71369 10.5636 3.51087 10.6567 3.40745C10.7499 3.30404 10.9482 3.33919 11.3669 3.74483Z" fill="#D74B4B"/>
<path d="M11.8103 3.32786C12.1917 3.77132 12.5139 4.5308 12.5139 4.5308C12.5139 4.5308 11.8231 4.11246 11.4417 3.669C11.0602 3.22554 11.0309 3.01909 11.1327 2.92489C11.2345 2.83069 11.4289 2.8844 11.8103 3.32786Z" fill="#D74B4B"/>
<path d="M12.2884 2.95444C12.6294 3.43204 12.8837 4.21876 12.8837 4.21876C12.8837 4.21876 12.2324 3.73699 11.8914 3.25939C11.5505 2.78179 11.5393 2.57343 11.6489 2.48922C11.7586 2.40501 11.9474 2.47684 12.2884 2.95444Z" fill="#D74B4B"/>
<path d="M12.7973 2.62766C13.095 3.13544 13.2793 3.9429 13.2793 3.9429C13.2793 3.9429 12.6729 3.40169 12.3752 2.8939C12.0775 2.38612 12.0847 2.17757 12.2012 2.10405C12.3178 2.03053 12.4996 2.11988 12.7973 2.62766Z" fill="#D74B4B"/>
<path d="M13.3327 2.35024C13.5847 2.884 13.6974 3.70549 13.6974 3.70549C13.6974 3.70549 13.141 3.10933 12.889 2.57557C12.6371 2.04181 12.6625 1.8348 12.785 1.77258C12.9076 1.71036 13.0808 1.81648 13.3327 2.35024Z" fill="#D74B4B"/>
<path d="M13.8902 2.12447C14.0943 2.67978 14.1346 3.5085 14.1346 3.5085C14.1346 3.5085 13.6327 2.86233 13.4286 2.30702C13.2245 1.7517 13.268 1.54795 13.3955 1.49754C13.5229 1.44713 13.6861 1.56916 13.8902 2.12447Z" fill="#D74B4B"/>
<path d="M14.4652 1.95223C14.6198 2.52449 14.5872 3.35358 14.5872 3.35358C14.5872 3.35358 14.1441 2.66274 13.9896 2.09048C13.835 1.51821 13.8961 1.3194 14.0275 1.28123C14.1588 1.24305 14.3107 1.37997 14.4652 1.95223Z" fill="#D74B4B"/>
<path d="M15.053 1.83494C15.1567 2.41941 15.0516 3.24199 15.0516 3.24199C15.0516 3.24199 14.6709 2.51221 14.5671 1.92774C14.4634 1.34327 14.5417 1.15105 14.6758 1.12542C14.81 1.09979 14.9492 1.25046 15.053 1.83494Z" fill="#D74B4B"/>
<path d="M15.6485 1.77357C15.7006 2.36541 15.5238 3.17466 15.5238 3.17466C15.5238 3.17466 15.2087 2.412 15.1566 1.82016C15.1045 1.22832 15.1993 1.04429 15.3352 1.03142C15.471 1.01855 15.5964 1.18173 15.6485 1.77357Z" fill="#D74B4B"/>
<path d="M16.0055 3.76706C13.9869 3.76706 12.2659 5.08912 11.6034 6.94405H20.4076C19.7451 5.08912 18.0242 3.76706 16.0055 3.76706Z" fill="#D74B4B"/>
</g>
<defs>
<clipPath id="clip0_440_1013">
<rect width="32" height="24" rx="2" fill="white"/>
</clipPath>
</defs>
</svg>
