<svg width="24" height="24" viewBox="0 0 24 24" fill="none" xmlns="http://www.w3.org/2000/svg">
<g clip-path="url(#clip0_440_1014)">
<rect width="24" height="24" rx="2" fill="#D74B4B"/>
<path d="M0 16H24V24H0V16Z" fill="#3FB47C"/>
<path d="M0 0H24V8H0V0Z" fill="#333333"/>
<path d="M12.247 1.76863C12.247 2.36293 12 3.15216 12 3.15216C12 3.15216 11.753 2.36293 11.753 1.76863C11.753 1.17433 11.8636 1 12 1C12.1364 1 12.247 1.17433 12.247 1.76863Z" fill="#D74B4B"/>
<path d="M12.8434 1.82016C12.7913 2.412 12.4762 3.17466 12.4762 3.17466C12.4762 3.17466 12.2994 2.36541 12.3515 1.77357C12.4036 1.18173 12.529 1.01855 12.6648 1.03142C12.8007 1.04429 12.8955 1.22832 12.8434 1.82016Z" fill="#D74B4B"/>
<path d="M13.4329 1.92774C13.3291 2.51222 12.9484 3.24199 12.9484 3.24199C12.9484 3.24199 12.8433 2.41941 12.947 1.83494C13.0508 1.25046 13.19 1.0998 13.3242 1.12542C13.4583 1.15105 13.5366 1.34327 13.4329 1.92774Z" fill="#D74B4B"/>
<path d="M14.0105 2.09048C13.8559 2.66274 13.4128 3.35358 13.4128 3.35358C13.4128 3.35358 13.3802 2.52449 13.5348 1.95223C13.6893 1.37997 13.8412 1.24305 13.9725 1.28123C14.1039 1.3194 14.165 1.51821 14.0105 2.09048Z" fill="#D74B4B"/>
<path d="M14.5714 2.30702C14.3673 2.86233 13.8654 3.50851 13.8654 3.50851C13.8654 3.50851 13.9057 2.67979 14.1098 2.12447C14.3139 1.56916 14.4771 1.44714 14.6045 1.49755C14.732 1.54795 14.7755 1.75171 14.5714 2.30702Z" fill="#D74B4B"/>
<path d="M15.111 2.57557C14.859 3.10933 14.3026 3.70549 14.3026 3.70549C14.3026 3.70549 14.4154 2.884 14.6673 2.35024C14.9192 1.81648 15.0925 1.71036 15.215 1.77258C15.3375 1.8348 15.3629 2.04181 15.111 2.57557Z" fill="#D74B4B"/>
<path d="M15.6248 2.89391C15.3271 3.40169 14.7207 3.9429 14.7207 3.9429C14.7207 3.9429 14.905 3.13545 15.2027 2.62766C15.5004 2.11988 15.6822 2.03053 15.7988 2.10405C15.9153 2.17758 15.9225 2.38612 15.6248 2.89391Z" fill="#D74B4B"/>
<path d="M16.1086 3.25939C15.7676 3.73699 15.1163 4.21876 15.1163 4.21876C15.1163 4.21876 15.3706 3.43204 15.7116 2.95444C16.0526 2.47684 16.2414 2.40501 16.3511 2.48922C16.4607 2.57343 16.4496 2.78179 16.1086 3.25939Z" fill="#D74B4B"/>
<path d="M16.5583 3.669C16.1769 4.11246 15.4861 4.5308 15.4861 4.5308C15.4861 4.5308 15.8083 3.77132 16.1897 3.32786C16.5711 2.8844 16.7655 2.83069 16.8673 2.92489C16.9691 3.01909 16.9398 3.22554 16.5583 3.669Z" fill="#D74B4B"/>
<path d="M16.9703 4.11933C16.5516 4.52497 15.8269 4.87641 15.8269 4.87641C15.8269 4.87641 16.2144 4.15048 16.6331 3.74484C17.0518 3.33919 17.2501 3.30404 17.3433 3.40745C17.4364 3.51087 17.389 3.71369 16.9703 4.11933Z" fill="#D74B4B"/>
<path d="M17.3411 4.60665C16.8885 4.97112 16.1361 5.25275 16.1361 5.25275C16.1361 5.25275 16.5856 4.56637 17.0381 4.20191C17.4907 3.83744 17.6912 3.82114 17.7749 3.9329C17.8586 4.04467 17.7936 4.24219 17.3411 4.60665Z" fill="#D74B4B"/>
<path d="M17.6676 5.12693C17.185 5.4472 16.411 5.65669 16.411 5.65669C16.411 5.65669 16.9188 5.01556 17.4014 4.69529C17.884 4.37502 18.0852 4.3777 18.1587 4.4969C18.2322 4.61609 18.1502 4.80667 17.6676 5.12693Z" fill="#D74B4B"/>
<path d="M17.9472 5.67586C17.4385 5.94928 16.6493 6.08489 16.6493 6.08489C16.6493 6.08489 17.2112 5.49431 17.7199 5.22089C18.2286 4.94747 18.4287 4.96912 18.4915 5.09476C18.5542 5.22039 18.4559 5.40244 17.9472 5.67586Z" fill="#D74B4B"/>
<path d="M18.1775 6.24888C17.6469 6.47318 16.8491 6.53379 16.8491 6.53379C16.8491 6.53379 17.4605 5.99866 17.991 5.77436C18.5216 5.55006 18.719 5.59049 18.7704 5.72152C18.8219 5.85256 18.708 6.02458 18.1775 6.24888Z" fill="#D74B4B"/>
<path d="M18.3566 6.84125C17.8085 7.01457 17.0087 6.99968 17.0087 6.99968C17.0087 6.99968 17.6645 6.52443 18.2125 6.35111C18.7605 6.17778 18.9535 6.23666 18.9933 6.37201C19.0331 6.50736 18.9046 6.66792 18.3566 6.84125Z" fill="#D74B4B"/>
<path d="M5.78751 6.35111C6.33553 6.52443 6.99127 6.99968 6.99127 6.99968C6.99127 6.99968 6.19146 7.01458 5.64343 6.84125C5.0954 6.66792 4.9669 6.50736 5.00669 6.37201C5.04647 6.23666 5.23947 6.17778 5.78751 6.35111Z" fill="#D74B4B"/>
<path d="M6.00897 5.77436C6.53954 5.99866 7.1509 6.53379 7.1509 6.53379C7.1509 6.53379 6.35309 6.47318 5.82253 6.24888C5.29197 6.02458 5.17807 5.85256 5.22956 5.72152C5.28104 5.59049 5.47841 5.55006 6.00897 5.77436Z" fill="#D74B4B"/>
<path d="M6.28009 5.22089C6.78878 5.49431 7.35071 6.08489 7.35071 6.08489C7.35071 6.08489 6.56152 5.94928 6.05281 5.67586C5.54411 5.40244 5.44577 5.22039 5.50853 5.09476C5.57129 4.96912 5.77138 4.94747 6.28009 5.22089Z" fill="#D74B4B"/>
<path d="M6.5986 4.69529C7.08122 5.01556 7.58904 5.65669 7.58904 5.65669C7.58904 5.65669 6.81501 5.4472 6.33239 5.12693C5.84976 4.80667 5.76779 4.61609 5.8413 4.4969C5.91481 4.3777 6.11597 4.37502 6.5986 4.69529Z" fill="#D74B4B"/>
<path d="M6.96186 4.20191C7.41441 4.56637 7.86392 5.25275 7.86392 5.25275C7.86392 5.25275 7.11146 4.97112 6.65891 4.60665C6.20636 4.24219 6.14143 4.04467 6.22509 3.93291C6.30875 3.82114 6.50931 3.83744 6.96186 4.20191Z" fill="#D74B4B"/>
<path d="M7.36689 3.74483C7.78561 4.15048 8.17308 4.87641 8.17308 4.87641C8.17308 4.87641 7.44843 4.52497 7.0297 4.11933C6.61098 3.71369 6.56364 3.51087 6.65675 3.40745C6.74986 3.30404 6.94816 3.33919 7.36689 3.74483Z" fill="#D74B4B"/>
<path d="M7.81029 3.32786C8.19171 3.77132 8.51394 4.5308 8.51394 4.5308C8.51394 4.5308 7.8231 4.11246 7.44167 3.669C7.06025 3.22554 7.03088 3.01909 7.13267 2.92489C7.23446 2.83069 7.42886 2.8844 7.81029 3.32786Z" fill="#D74B4B"/>
<path d="M8.28841 2.95444C8.62938 3.43204 8.88369 4.21876 8.88369 4.21876C8.88369 4.21876 8.23239 3.73699 7.89142 3.25939C7.55045 2.78179 7.5393 2.57343 7.64893 2.48922C7.75856 2.40501 7.94744 2.47684 8.28841 2.95444Z" fill="#D74B4B"/>
<path d="M8.79729 2.62766C9.09498 3.13544 9.27927 3.9429 9.27927 3.9429C9.27927 3.9429 8.6729 3.40169 8.37521 2.8939C8.07752 2.38612 8.08469 2.17757 8.20124 2.10405C8.31779 2.03053 8.4996 2.11988 8.79729 2.62766Z" fill="#D74B4B"/>
<path d="M9.33271 2.35024C9.58466 2.884 9.69739 3.70549 9.69739 3.70549C9.69739 3.70549 9.14098 3.10933 8.88904 2.57557C8.6371 2.04181 8.66252 1.8348 8.78503 1.77258C8.90755 1.71036 9.08078 1.81648 9.33271 2.35024Z" fill="#D74B4B"/>
<path d="M9.89023 2.12447C10.0943 2.67978 10.1346 3.5085 10.1346 3.5085C10.1346 3.5085 9.63275 2.86233 9.42864 2.30702C9.22454 1.7517 9.268 1.54795 9.39546 1.49754C9.52292 1.44713 9.68613 1.56916 9.89023 2.12447Z" fill="#D74B4B"/>
<path d="M10.4652 1.95223C10.6198 2.52449 10.5872 3.35358 10.5872 3.35358C10.5872 3.35358 10.1441 2.66274 9.98956 2.09048C9.83498 1.51821 9.89612 1.3194 10.0275 1.28123C10.1588 1.24305 10.3107 1.37997 10.4652 1.95223Z" fill="#D74B4B"/>
<path d="M11.053 1.83494C11.1567 2.41941 11.0516 3.24199 11.0516 3.24199C11.0516 3.24199 10.6709 2.51221 10.5671 1.92774C10.4634 1.34327 10.5417 1.15105 10.6758 1.12542C10.81 1.09979 10.9492 1.25046 11.053 1.83494Z" fill="#D74B4B"/>
<path d="M11.6485 1.77357C11.7006 2.36541 11.5238 3.17466 11.5238 3.17466C11.5238 3.17466 11.2087 2.412 11.1566 1.82016C11.1045 1.22832 11.1993 1.04429 11.3352 1.03142C11.471 1.01855 11.5964 1.18173 11.6485 1.77357Z" fill="#D74B4B"/>
<path d="M12.0055 3.76706C9.98687 3.76706 8.2659 5.08912 7.60343 6.94405H16.4076C15.7451 5.08912 14.0242 3.76706 12.0055 3.76706Z" fill="#D74B4B"/>
</g>
<defs>
<clipPath id="clip0_440_1014">
<rect width="24" height="24" rx="2" fill="white"/>
</clipPath>
</defs>
</svg>
