<svg width="32" height="24" viewBox="0 0 32 24" fill="none" xmlns="http://www.w3.org/2000/svg">
<rect width="32" height="24" rx="2" fill="#D74B4B"/>
<path fill-rule="evenodd" clip-rule="evenodd" d="M17.2058 10.717L16.1058 7L14.8413 10.717H11L14.0388 13.0762L12.704 17L15.938 14.5507L19.0571 16.9722L17.9005 13.0644L21 10.717H17.2058ZM13.2402 11.4828H14.5808L14.3007 12.3062L13.2402 11.4828ZM15.3973 11.4828L14.9466 12.8076L15.9439 13.5819L17.0087 12.7754L16.6262 11.4828H15.3973ZM14.2457 14.8681L14.6847 13.5776L15.3093 14.0625L14.2457 14.8681ZM17.6363 14.8958L16.5726 14.0701L17.2419 13.5632L17.6363 14.8958ZM18.7155 11.4828L17.6674 12.2766L17.4325 11.4828H18.7155ZM15.6578 10.717H16.3995L16.0544 9.55093L15.6578 10.717Z" fill="#377649"/>
</svg>
