<svg width="24" height="24" viewBox="0 0 24 24" fill="none" xmlns="http://www.w3.org/2000/svg">
<rect width="24" height="24" rx="12" fill="#D74B4B"/>
<path fill-rule="evenodd" clip-rule="evenodd" d="M13.2058 10.717L12.1058 7L10.8413 10.717H7L10.0388 13.0762L8.70399 17L11.938 14.5507L15.0571 16.9722L13.9005 13.0644L17 10.717H13.2058ZM9.24018 11.4828H10.5808L10.3007 12.3062L9.24018 11.4828ZM11.3973 11.4828L10.9466 12.8076L11.9439 13.5819L13.0087 12.7754L12.6262 11.4828H11.3973ZM10.2457 14.8681L10.6847 13.5776L11.3093 14.0625L10.2457 14.8681ZM13.6363 14.8958L12.5726 14.0701L13.2419 13.5632L13.6363 14.8958ZM14.7155 11.4828L13.6674 12.2766L13.4325 11.4828H14.7155ZM11.6578 10.717H12.3995L12.0544 9.55093L11.6578 10.717Z" fill="#377649"/>
</svg>
