<svg width="24" height="24" viewBox="0 0 24 24" fill="none" xmlns="http://www.w3.org/2000/svg">
<g clip-path="url(#clip0_440_1072)">
<rect width="24" height="24" rx="12" fill="#333333"/>
<path d="M0 16H24V24H0V16Z" fill="#F8D74C"/>
<path d="M0 0H24V8H0V0Z" fill="#377649"/>
<rect y="7.5" width="24" height="1" fill="#F9F9F9"/>
<rect y="15.5" width="24" height="1" fill="#F9F9F9"/>
<path d="M0 24L2.86197e-07 0L14 12L0 24Z" fill="#D74B4B"/>
<path d="M6 8L6.89805 10.7639H9.80422L7.45308 12.4721L8.35114 15.2361L6 13.5279L3.64886 15.2361L4.54691 12.4721L2.19577 10.7639H5.10194L6 8Z" fill="#F8D74C"/>
<path d="M3.83889 13.3119L4.28323 11.3729C4.60639 11.1912 5.386 10.9003 5.91921 11.1912V13.5542L5.53546 13.3119H3.83889Z" fill="#F9F9F9"/>
<path d="M7.99953 13.3119L7.55519 11.3729C7.23204 11.1912 6.45242 10.9003 5.91921 11.1912V13.5542L6.30296 13.3119H7.99953Z" fill="#F9F9F9"/>
<path d="M5.97984 10.5828L6.65145 10.0099L6.87828 10.1913L7.44536 9.62427L7.69487 9.76036L9.10123 8.80767L7.83097 10.0099L7.01438 10.6904L6.41762 11.0882L8.69849 13.7213L8.42428 13.9588L6.11335 11.2911L5.37211 11.7852C5.56615 11.9485 5.93475 12.1839 6.38858 12.2556L6.31314 12.7334C5.7268 12.6408 5.26146 12.3344 5.01872 12.1189L4.74778 12.4169L4.75322 12.4151L4.9729 13.0466L4.51602 13.2055L4.38176 12.8196L3.20362 14.1155L2.63654 13.435L5.70383 10.8183L4.79377 9.76772L4.62089 9.88146V10.284L3.6186 11.6432L2.98702 10.9567L3.98931 9.58376L4.25518 9.68779L4.8599 9.28995L5.97984 10.5828Z" fill="#333333"/>
</g>
<defs>
<clipPath id="clip0_440_1072">
<rect width="24" height="24" rx="12" fill="white"/>
</clipPath>
</defs>
</svg>
