<svg width="32" height="24" viewBox="0 0 32 24" fill="none" xmlns="http://www.w3.org/2000/svg">
<g clip-path="url(#clip0_440_1071)">
<rect width="32" height="24" rx="2" fill="#485CC2"/>
<path d="M0 24L32 3.22536V24H0Z" fill="#3FB47C"/>
<path d="M32 -2.0354L1.90735e-06 20.9646V25.8557L32 2.85572V-2.0354Z" fill="#D74B4B"/>
<path d="M32 -2.0354L1.90735e-06 20.9646V25.8557L32 2.85572V-2.0354Z" fill="#D74B4B"/>
<path fill-rule="evenodd" clip-rule="evenodd" d="M33 -3.9856L-1 20.4519V27.806L33 3.36853V-3.9856ZM32 -2.03534V2.85577L0 25.8558V20.9647L32 -2.03534Z" fill="#F9F9F9"/>
<path d="M6 7.48876C6.82222 7.48876 7.48876 6.82222 7.48876 6C7.48876 5.17778 6.82222 4.51124 6 4.51124C5.17778 4.51124 4.51124 5.17778 4.51124 6C4.51124 6.82222 5.17778 7.48876 6 7.48876Z" fill="#F8D74C"/>
<path fill-rule="evenodd" clip-rule="evenodd" d="M6 3L6.43902 3.95634L7.22693 3.26223L7.24115 4.31544L8.24171 4.00357L7.82867 4.97154L8.86889 5.09585L8.1 5.81121L9 6.35019L8.00822 6.68925L8.61239 7.54971L7.5692 7.45384L7.77307 8.487L6.85885 7.97278L6.62717 9L6 8.15634L5.37283 9L5.14115 7.97278L4.22693 8.487L4.4308 7.45384L3.38761 7.54971L3.99178 6.68925L3 6.35019L3.9 5.81121L3.13111 5.09585L4.17133 4.97154L3.75829 4.00357L4.75885 4.31544L4.77307 3.26223L5.56098 3.95634L6 3ZM7.8033 6.01988C7.8033 7.02498 6.99297 7.83977 5.99338 7.83977C4.99379 7.83977 4.18347 7.02498 4.18347 6.01988C4.18347 5.01479 4.99379 4.2 5.99338 4.2C6.99297 4.2 7.8033 5.01479 7.8033 6.01988Z" fill="#F8D74C"/>
</g>
<defs>
<clipPath id="clip0_440_1071">
<rect width="32" height="24" rx="2" fill="white"/>
</clipPath>
</defs>
</svg>
