<svg width="24" height="24" viewBox="0 0 24 24" fill="none" xmlns="http://www.w3.org/2000/svg">
<rect width="24" height="24" rx="2" fill="#64BEDB"/>
<path d="M0 12H24V18H0V12Z" fill="#F8D74C"/>
<path d="M0 18H24V24H0V18Z" fill="#3FB47C"/>
<path d="M19 5.99999C19 6.55227 18.5523 6.99999 18 6.99999C17.4477 6.99999 17 6.55227 17 5.99999C17 5.4477 17.4477 4.99999 18 4.99999C18.5523 4.99999 19 5.4477 19 5.99999Z" fill="#F8D74C"/>
<path fill-rule="evenodd" clip-rule="evenodd" d="M18.2347 4.51847L18 3L17.7653 4.51847L17.0729 3.14683L17.319 4.66349L16.2366 3.57295L16.9393 4.93934L15.5729 4.23664L16.6635 5.31901L15.1468 5.07295L16.5185 5.76535L15 6L16.5185 6.23465L15.1468 6.92705L16.6635 6.68099L15.5729 7.76336L16.9393 7.06066L16.2366 8.42705L17.319 7.33651L17.0729 8.85317L17.7653 7.48153L18 9L18.2347 7.48153L18.9271 8.85317L18.681 7.33651L19.7634 8.42705L19.0607 7.06066L20.4271 7.76336L19.3365 6.68099L20.8532 6.92705L19.4815 6.23465L21 6L19.4815 5.76535L20.8532 5.07295L19.3365 5.31901L20.4271 4.23664L19.0607 4.93934L19.7634 3.57295L18.681 4.66349L18.9271 3.14683L18.2347 4.51847ZM18 7.19999C18.6627 7.19999 19.2 6.66273 19.2 5.99999C19.2 5.33725 18.6627 4.79999 18 4.79999C17.3373 4.79999 16.8 5.33725 16.8 5.99999C16.8 6.66273 17.3373 7.19999 18 7.19999Z" fill="#F8D74C"/>
<path d="M19 5.99999C19 6.55227 18.5523 6.99999 18 6.99999C17.4477 6.99999 17 6.55227 17 5.99999C17 5.4477 17.4477 4.99999 18 4.99999C18.5523 4.99999 19 5.4477 19 5.99999Z" fill="#F8D74C"/>
</svg>
