<svg width="32" height="24" viewBox="0 0 32 24" fill="none" xmlns="http://www.w3.org/2000/svg">
<rect width="32" height="24" rx="2" fill="#64BEDB"/>
<path d="M0 12H32V18H0V12Z" fill="#F8D74C"/>
<path d="M0 18H32V24H0V18Z" fill="#3FB47C"/>
<path d="M27 5.99999C27 6.55227 26.5523 6.99999 26 6.99999C25.4477 6.99999 25 6.55227 25 5.99999C25 5.4477 25.4477 4.99999 26 4.99999C26.5523 4.99999 27 5.4477 27 5.99999Z" fill="#F8D74C"/>
<path fill-rule="evenodd" clip-rule="evenodd" d="M26.2347 4.51847L26 3L25.7653 4.51847L25.0729 3.14683L25.319 4.66349L24.2366 3.57295L24.9393 4.93934L23.5729 4.23664L24.6635 5.31901L23.1468 5.07295L24.5185 5.76535L23 6L24.5185 6.23465L23.1468 6.92705L24.6635 6.68099L23.5729 7.76336L24.9393 7.06066L24.2366 8.42705L25.319 7.33651L25.0729 8.85317L25.7653 7.48153L26 9L26.2347 7.48153L26.9271 8.85317L26.681 7.33651L27.7634 8.42705L27.0607 7.06066L28.4271 7.76336L27.3365 6.68099L28.8532 6.92705L27.4815 6.23465L29 6L27.4815 5.76535L28.8532 5.07295L27.3365 5.31901L28.4271 4.23664L27.0607 4.93934L27.7634 3.57295L26.681 4.66349L26.9271 3.14683L26.2347 4.51847ZM26 7.19999C26.6627 7.19999 27.2 6.66273 27.2 5.99999C27.2 5.33725 26.6627 4.79999 26 4.79999C25.3373 4.79999 24.8 5.33725 24.8 5.99999C24.8 6.66273 25.3373 7.19999 26 7.19999Z" fill="#F8D74C"/>
<path d="M27 5.99999C27 6.55227 26.5523 6.99999 26 6.99999C25.4477 6.99999 25 6.55227 25 5.99999C25 5.4477 25.4477 4.99999 26 4.99999C26.5523 4.99999 27 5.4477 27 5.99999Z" fill="#F8D74C"/>
</svg>
