<svg width="32" height="24" viewBox="0 0 32 24" fill="none" xmlns="http://www.w3.org/2000/svg">
<rect width="32" height="24" rx="2" fill="#485CC2"/>
<g clip-path="url(#clip0_440_1047)">
<rect width="16" height="12" fill="#485CC2"/>
<path fill-rule="evenodd" clip-rule="evenodd" d="M16.75 1L0.75 13L-0.75 11L15.25 -1L16.75 1Z" fill="#F9F9F9"/>
<path fill-rule="evenodd" clip-rule="evenodd" d="M-0.75 1L15.25 13L16.75 11L0.75 -1L-0.75 1Z" fill="#F9F9F9"/>
<path fill-rule="evenodd" clip-rule="evenodd" d="M15.775 12.8L-0.225 0.8L0.225 0.2L16.225 12.2L15.775 12.8Z" fill="#D74B4B"/>
<path fill-rule="evenodd" clip-rule="evenodd" d="M-0.277853 12.8021L16.7221 0.302119L16.2779 -0.302119L-0.722147 12.1979L-0.277853 12.8021Z" fill="#D74B4B"/>
<path d="M9.5 1.31134e-07L9.5 12H6.5L6.5 0L9.5 1.31134e-07Z" fill="#F9F9F9"/>
<path d="M0 4.5H16V7.5H0V4.5Z" fill="#F9F9F9"/>
<path d="M0 5H16V7H0V5Z" fill="#D74B4B"/>
<path d="M9 8.74229e-08L9 12H7L7 0L9 8.74229e-08Z" fill="#D74B4B"/>
</g>
<path d="M20 7.98629C22.1719 6.66021 24.8281 6.66021 27 7.98629V14.2281C27 16.1253 25.9867 17.8517 24.3992 18.6595L23.9383 18.894C23.6607 19.0353 23.3393 19.0353 23.0617 18.894L22.6008 18.6595C21.0133 17.8517 20 16.1253 20 14.2281V7.98629Z" fill="#64BEDB"/>
<mask id="mask0_440_1047" style="mask-type:alpha" maskUnits="userSpaceOnUse" x="20" y="6" width="7" height="13">
<path d="M20 7.98629C22.1719 6.66021 24.8281 6.66021 27 7.98629V14.2281C27 16.1253 25.9867 17.8517 24.3992 18.6595L23.9383 18.894C23.6607 19.0353 23.3393 19.0353 23.0617 18.894L22.6008 18.6595C21.0133 17.8517 20 16.1253 20 14.2281V7.98629Z" fill="#64BEDB"/>
</mask>
<g mask="url(#mask0_440_1047)">
<path d="M27 14.726C26.8571 16.4237 25.8762 17.9295 24.4038 18.6643L23.9406 18.8955C23.6615 19.0348 23.3385 19.0348 23.0594 18.8955L22.5962 18.6643C21.1238 17.9295 20.1429 16.4237 20 14.726H27Z" fill="#F9F9F9"/>
<path d="M27 11.1096H20V7.98629C22.1719 6.66021 24.8281 6.66021 27 7.98629V11.1096Z" fill="#F8D74C"/>
<path d="M22.1304 11.1096H22.2826V11.5517H22.8913L22.4348 11.6991H22.2826V12.1412H23.0435L22.4855 12.436H22.2826V12.8781H23.0435L22.4855 13.1729H22.2826V13.615H23.0435L22.4855 13.9098H22.2826V15.2362H22.1304V13.9098H21.9275L21.3696 13.615H22.1304V13.1729H21.9275L21.3696 12.8781H22.1304V12.436H21.9275L21.3696 12.1412H22.1304V11.6991H21.9783L21.5217 11.5517H22.1304V11.1096Z" fill="#F8D74C"/>
<path d="M23.3478 11.1096H23.5V11.257H24.1087L23.6522 11.4043H23.5V11.8465H24.2609L23.7029 12.1412H23.5V12.5834H24.2609L23.7029 12.8781H23.5V13.3203H24.2609L23.7029 13.615H23.5V15.2362H23.3478V13.615H23.1449L22.587 13.3203H23.3478V12.8781H23.1449L22.587 12.5834H23.3478V12.1412H23.1449L22.587 11.8465H23.3478V11.4043H23.1957L22.7391 11.257H23.3478V11.1096Z" fill="#F8D74C"/>
<path d="M24.7174 11.1096H24.5652V11.5517H23.9565L24.413 11.6991H24.5652V12.1412H23.8043L24.3623 12.436H24.5652V12.8781H23.8043L24.3623 13.1729H24.5652V13.615H23.8043L24.3623 13.9098H24.5652V15.2362H24.7174V13.9098H24.9203L25.4783 13.615H24.7174V13.1729H24.9203L25.4783 12.8781H24.7174V12.436H24.9203L25.4783 12.1412H24.7174V11.6991H24.8696L25.3261 11.5517H24.7174V11.1096Z" fill="#F8D74C"/>
<path d="M21.9022 14.7363L20.7609 14.2329L21.5217 14.8801L22.1304 15.3836H25.5543L25.9348 14.9521V14.4486H24.1848L23.7283 14.7363H21.9022Z" fill="#333333"/>
<path d="M25.1739 13.2466H26.3913V14.2329H25.1739V13.2466Z" fill="#F9F9F9"/>
<path d="M25.8605 13.2466H25.7083V13.6575H25.1739V13.8219H25.7083V14.2329H25.8605V13.8219H26.3913V13.6575H25.8605V13.2466Z" fill="#D74B4B"/>
<path d="M25.1738 13.2388H25.2566V14.6076H25.1738V13.2388Z" fill="#333333"/>
<path d="M27.3589 15.4179C27.3037 15.3973 27.2442 15.4334 27.2319 15.4951C27.1958 15.6754 27.0066 15.7642 26.86 15.6697L26.5482 15.4687C26.4465 15.4032 26.3213 15.3961 26.2139 15.45L25.8559 15.6294C25.6106 15.7523 25.3254 15.7396 25.0903 15.5953L25.0004 15.5401C24.8176 15.4279 24.5971 15.4126 24.4025 15.4988L24.0127 15.6714C23.795 15.7678 23.5498 15.7607 23.3371 15.6519L23.0462 15.5031C22.8696 15.4128 22.6658 15.4082 22.4859 15.4906L22.0933 15.6703C21.8812 15.7674 21.6415 15.7657 21.4306 15.6658L21.0268 15.4745C20.8703 15.4003 20.6937 15.3921 20.5318 15.4514L19.8539 15.6999L19.805 15.5442L20.4829 15.2958C20.6808 15.2232 20.8966 15.2333 21.088 15.324L21.4917 15.5153C21.6643 15.597 21.8604 15.5983 22.0339 15.5189L22.4266 15.3392C22.6464 15.2386 22.8955 15.2442 23.1113 15.3545L23.4023 15.5034C23.5762 15.5923 23.7769 15.5981 23.955 15.5193L24.3448 15.3467C24.5826 15.2414 24.8521 15.26 25.0756 15.3972L25.1654 15.4523C25.3578 15.5704 25.5911 15.5808 25.7919 15.4802L26.1499 15.3009C26.3029 15.2242 26.4812 15.2341 26.6261 15.3275L26.938 15.5286C26.9952 15.5654 27.0691 15.5308 27.0831 15.4604C27.1147 15.3023 27.2672 15.2097 27.4087 15.2626L28.1624 15.5444L28.1126 15.6997L27.3589 15.4179Z" fill="#64BEDB"/>
<path d="M27.3589 15.9145C27.3037 15.8939 27.2442 15.9301 27.2319 15.9917C27.1958 16.172 27.0066 16.2608 26.86 16.1663L26.5482 15.9653C26.4465 15.8998 26.3213 15.8928 26.2139 15.9466L25.8559 16.126C25.6106 16.2489 25.3254 16.2362 25.0903 16.0919L25.0004 16.0367C24.8176 15.9245 24.5971 15.9093 24.4025 15.9954L24.0127 16.168C23.795 16.2644 23.5498 16.2573 23.3371 16.1485L23.0462 15.9997C22.8696 15.9094 22.6658 15.9049 22.4859 15.9872L22.0933 16.1669C21.8812 16.264 21.6415 16.2623 21.4306 16.1624L21.0268 15.9711C20.8703 15.8969 20.6937 15.8887 20.5318 15.948L19.8539 16.1965L19.805 16.0408L20.4829 15.7924C20.6808 15.7198 20.8966 15.7299 21.088 15.8206L21.4917 16.0119C21.6643 16.0936 21.8604 16.095 22.0339 16.0155L22.4266 15.8358C22.6464 15.7352 22.8955 15.7408 23.1113 15.8511L23.4023 16C23.5762 16.089 23.7769 16.0947 23.955 16.0159L24.3448 15.8433C24.5826 15.738 24.8521 15.7566 25.0756 15.8938L25.1654 15.9489C25.3578 16.067 25.5911 16.0774 25.7919 15.9768L26.1499 15.7975C26.3029 15.7208 26.4812 15.7308 26.6261 15.8242L26.938 16.0252C26.9952 16.062 27.0691 16.0274 27.0831 15.957C27.1147 15.799 27.2672 15.7063 27.4087 15.7592L28.1624 16.041L28.1126 16.1963L27.3589 15.9145Z" fill="#64BEDB"/>
<path d="M27.2319 16.4884C27.2442 16.4267 27.3037 16.3905 27.3589 16.4111L28.1126 16.6929L28.1624 16.5376L27.4087 16.2558C27.2672 16.2029 27.1147 16.2956 27.0831 16.4536C27.0691 16.524 26.9952 16.5587 26.938 16.5218L26.6261 16.3208C26.4812 16.2274 26.3029 16.2174 26.1499 16.2941L25.7919 16.4734C25.5911 16.574 25.3578 16.5636 25.1654 16.4455L25.0756 16.3904C24.8521 16.2532 24.5826 16.2346 24.3448 16.3399L23.955 16.5125C23.7769 16.5913 23.5762 16.5856 23.4023 16.4966L23.1113 16.3477C22.8955 16.2374 22.6464 16.2318 22.4266 16.3324L22.0339 16.5121C21.8604 16.5916 21.6643 16.5902 21.4917 16.5085L21.088 16.3172C20.8966 16.2265 20.6808 16.2165 20.4829 16.289L19.805 16.5374L19.8539 16.6931L20.5318 16.4446C20.6937 16.3853 20.8703 16.3935 21.0268 16.4677L21.4306 16.659C21.6415 16.7589 21.8812 16.7606 22.0933 16.6635L22.4859 16.4838C22.6658 16.4015 22.8696 16.406 23.0462 16.4963L23.3371 16.6451C23.5498 16.7539 23.795 16.761 24.0127 16.6646L24.4025 16.492C24.5971 16.4059 24.8176 16.4211 25.0004 16.5333L25.0903 16.5885C25.3254 16.7328 25.6106 16.7455 25.8559 16.6226L26.2139 16.4432C26.3213 16.3894 26.4465 16.3964 26.5482 16.4619L26.86 16.6629C27.0066 16.7574 27.1958 16.6686 27.2319 16.4884Z" fill="#64BEDB"/>
<path d="M27.3589 16.9078C27.3037 16.8871 27.2442 16.9233 27.2319 16.985C27.1958 17.1652 27.0066 17.254 26.86 17.1596L26.5482 16.9585C26.4465 16.893 26.3213 16.886 26.2139 16.9398L25.8559 17.1192C25.6106 17.2421 25.3254 17.2294 25.0903 17.0851L25.0004 17.0299C24.8176 16.9177 24.5971 16.9025 24.4025 16.9886L24.0127 17.1612C23.795 17.2576 23.5498 17.2505 23.3371 17.1418L23.0462 16.9929C22.8696 16.9026 22.6658 16.8981 22.4859 16.9804L22.0933 17.1601C21.8812 17.2572 21.6415 17.2556 21.4306 17.1556L21.0268 16.9643C20.8703 16.8901 20.6937 16.8819 20.5318 16.9413L19.8539 17.1897L19.805 17.034L20.4829 16.7856C20.6808 16.7131 20.8966 16.7231 21.088 16.8138L21.4917 17.0051C21.6643 17.0868 21.8604 17.0882 22.0339 17.0087L22.4266 16.829C22.6464 16.7284 22.8955 16.734 23.1113 16.8444L23.4023 16.9932C23.5762 17.0822 23.7769 17.0879 23.955 17.0091L24.3448 16.8365C24.5826 16.7312 24.8521 16.7498 25.0756 16.887L25.1654 16.9422C25.3578 17.0602 25.5911 17.0706 25.7919 16.9701L26.1499 16.7907C26.3029 16.714 26.4812 16.724 26.6261 16.8174L26.938 17.0184C26.9952 17.0553 27.0691 17.0206 27.0831 16.9503C27.1147 16.7922 27.2672 16.6995 27.4087 16.7524L28.1624 17.0342L28.1126 17.1895L27.3589 16.9078Z" fill="#64BEDB"/>
<path d="M27.2319 17.4816C27.2442 17.4199 27.3037 17.3837 27.3589 17.4044L28.1126 17.6861L28.1624 17.5308L27.4087 17.249C27.2672 17.1961 27.1147 17.2888 27.0831 17.4469C27.0691 17.5172 26.9952 17.5519 26.938 17.515L26.6261 17.314C26.4812 17.2206 26.3029 17.2106 26.1499 17.2873L25.7919 17.4667C25.5911 17.5672 25.3578 17.5568 25.1654 17.4388L25.0756 17.3836C24.8521 17.2464 24.5826 17.2278 24.3448 17.3331L23.955 17.5057C23.7769 17.5845 23.5762 17.5788 23.4023 17.4898L23.1113 17.341C22.8955 17.2306 22.6464 17.225 22.4266 17.3256L22.0339 17.5054C21.8604 17.5848 21.6643 17.5834 21.4917 17.5017L21.088 17.3104C20.8966 17.2197 20.6808 17.2097 20.4829 17.2822L19.805 17.5306L19.8539 17.6863L20.5318 17.4379C20.6937 17.3785 20.8703 17.3868 21.0268 17.4609L21.4306 17.6522C21.6415 17.7522 21.8812 17.7538 22.0933 17.6567L22.4859 17.477C22.6658 17.3947 22.8696 17.3992 23.0462 17.4895L23.3371 17.6384C23.5498 17.7471 23.795 17.7542 24.0127 17.6578L24.4025 17.4852C24.5971 17.3991 24.8176 17.4143 25.0004 17.5266L25.0903 17.5817C25.3254 17.726 25.6106 17.7387 25.8559 17.6158L26.2139 17.4364C26.3213 17.3826 26.4465 17.3896 26.5482 17.4551L26.86 17.6562C27.0066 17.7506 27.1958 17.6618 27.2319 17.4816Z" fill="#64BEDB"/>
<path d="M27.3589 17.901C27.3037 17.8803 27.2442 17.9165 27.2319 17.9782C27.1958 18.1584 27.0066 18.2473 26.86 18.1528L26.5482 17.9517C26.4465 17.8862 26.3213 17.8792 26.2139 17.933L25.8559 18.1124C25.6106 18.2353 25.3254 18.2226 25.0903 18.0783L25.0004 18.0232C24.8176 17.9109 24.5971 17.8957 24.4025 17.9818L24.0127 18.1544C23.795 18.2508 23.5498 18.2437 23.3371 18.135L23.0462 17.9861C22.8696 17.8958 22.6658 17.8913 22.4859 17.9736L22.0933 18.1533C21.8812 18.2504 21.6415 18.2488 21.4306 18.1488L21.0268 17.9575C20.8703 17.8834 20.6937 17.8751 20.5318 17.9345L19.8539 18.1829L19.805 18.0272L20.4829 17.7788C20.6808 17.7063 20.8966 17.7163 21.088 17.807L21.4917 17.9983C21.6643 18.0801 21.8604 18.0814 22.0339 18.002L22.4266 17.8222C22.6464 17.7216 22.8955 17.7272 23.1113 17.8376L23.4023 17.9864C23.5762 18.0754 23.7769 18.0812 23.955 18.0023L24.3448 17.8297C24.5826 17.7244 24.8521 17.743 25.0756 17.8802L25.1654 17.9354C25.3578 18.0534 25.5911 18.0638 25.7919 17.9633L26.1499 17.7839C26.3029 17.7072 26.4812 17.7172 26.6261 17.8106L26.938 18.0116C26.9952 18.0485 27.0691 18.0138 27.0831 17.9435C27.1147 17.7854 27.2672 17.6927 27.4087 17.7456L28.1624 18.0274L28.1126 18.1827L27.3589 17.901Z" fill="#64BEDB"/>
<path d="M27.2319 18.4748C27.2442 18.4131 27.3037 18.3769 27.3589 18.3976L28.1126 18.6794L28.1624 18.524L27.4087 18.2422C27.2672 18.1893 27.1147 18.282 27.0831 18.4401C27.0691 18.5104 26.9952 18.5451 26.938 18.5082L26.6261 18.3072C26.4812 18.2138 26.3029 18.2038 26.1499 18.2805L25.7919 18.4599C25.5911 18.5604 25.3578 18.55 25.1654 18.432L25.0756 18.3768C24.8521 18.2397 24.5826 18.221 24.3448 18.3263L23.955 18.4989C23.7769 18.5778 23.5762 18.572 23.4023 18.483L23.1113 18.3342C22.8955 18.2238 22.6464 18.2182 22.4266 18.3189L22.0339 18.4986C21.8604 18.578 21.6643 18.5767 21.4917 18.4949L21.088 18.3036C20.8966 18.2129 20.6808 18.2029 20.4829 18.2754L19.805 18.5239L19.8539 18.6795L20.5318 18.4311C20.6937 18.3717 20.8703 18.38 21.0268 18.4541L21.4306 18.6454C21.6415 18.7454 21.8812 18.747 22.0933 18.6499L22.4859 18.4702C22.6658 18.3879 22.8696 18.3924 23.0462 18.4827L23.3371 18.6316C23.5498 18.7403 23.795 18.7474 24.0127 18.651L24.4025 18.4785C24.5971 18.3923 24.8176 18.4075 25.0004 18.5198L25.0903 18.5749C25.3254 18.7192 25.6106 18.7319 25.8559 18.609L26.2139 18.4296C26.3213 18.3758 26.4465 18.3828 26.5482 18.4484L26.86 18.6494C27.0066 18.7439 27.1958 18.655 27.2319 18.4748Z" fill="#64BEDB"/>
<path fill-rule="evenodd" clip-rule="evenodd" d="M23.3808 9.39448C23.3454 9.34464 23.3211 9.3108 23.3122 9.30052L23.3566 9.25563C23.3681 9.26891 23.395 9.30647 23.4291 9.35441C23.4332 9.3602 23.4375 9.36616 23.4418 9.37228C23.4743 9.41803 23.5134 9.4729 23.5547 9.52969C23.6494 9.65958 23.7537 9.79582 23.8201 9.85664L23.836 9.87124L23.7063 10.273C23.7562 10.2629 23.8017 10.2535 23.8383 10.2458L23.8499 10.3104C23.681 10.3459 23.3127 10.42 23.2056 10.4287L23.201 10.3632C23.2719 10.3574 23.467 10.3208 23.6374 10.2869L23.765 9.89171C23.6935 9.82084 23.5939 9.68975 23.5069 9.57036C23.4653 9.51324 23.426 9.45806 23.3935 9.41233C23.3892 9.40621 23.3849 9.40025 23.3808 9.39448ZM24.123 9.88998L23.7051 9.39669L23.7501 9.3523L24.1915 9.87344L24.0412 10.3959L24.1984 10.3381L24.218 10.4003L23.7374 10.5771L23.7178 10.5148L23.97 10.4221L24.123 9.88998Z" fill="#333333"/>
<path d="M22.6563 7.87656L21.9661 7.99081L22.6563 8.12309V7.87656Z" fill="#333333"/>
<path fill-rule="evenodd" clip-rule="evenodd" d="M22.6074 8.28965C22.6496 8.34462 22.7096 8.39283 22.803 8.39283C22.9599 8.39283 22.886 8.51993 22.8346 8.60833C22.8208 8.63195 22.8087 8.6528 22.803 8.66773C22.7529 8.82184 22.7359 9.16755 23.0691 9.3175C23.4855 9.50493 23.7862 9.62989 24.4456 9.52992C24.8191 9.47329 24.9904 9.48016 25.0572 9.50083C25.0698 9.511 25.0819 9.52071 25.0933 9.52992C25.0945 9.5202 25.0847 9.50934 25.0572 9.50083C24.7733 9.27184 24.216 8.80997 23.9944 8.58026C23.7631 8.34035 23.5587 8.35535 23.4855 8.39283C23.5086 8.11377 23.4253 7.56813 22.9071 7.61811C22.5181 7.65563 22.4839 7.85702 22.5047 8.02165C22.5169 8.11845 22.5497 8.21443 22.6074 8.28965ZM22.8315 7.93606C22.8641 7.93606 22.8906 7.90748 22.8906 7.87222C22.8906 7.83697 22.8641 7.80839 22.8315 7.80839C22.7988 7.80839 22.7724 7.83697 22.7724 7.87222C22.7724 7.90748 22.7988 7.93606 22.8315 7.93606Z" fill="#F9F9F9"/>
</g>
<defs>
<clipPath id="clip0_440_1047">
<rect width="16" height="12" fill="white"/>
</clipPath>
</defs>
</svg>
