<svg width="24" height="24" viewBox="0 0 24 24" fill="none" xmlns="http://www.w3.org/2000/svg">
<rect width="24" height="24" rx="2" fill="#485CC2"/>
<g clip-path="url(#clip0_440_1078)">
<rect width="13" height="11" fill="#485CC2"/>
<path fill-rule="evenodd" clip-rule="evenodd" d="M13.6094 0.916677L0.609375 11.9167L-0.609375 10.0833L12.3906 -0.916656L13.6094 0.916677Z" fill="#F9F9F9"/>
<path fill-rule="evenodd" clip-rule="evenodd" d="M-0.609375 0.916677L12.3906 11.9167L13.6094 10.0833L0.609375 -0.916656L-0.609375 0.916677Z" fill="#F9F9F9"/>
<path fill-rule="evenodd" clip-rule="evenodd" d="M12.8172 11.7333L-0.182813 0.733343L0.182813 0.183344L13.1828 11.1833L12.8172 11.7333Z" fill="#D74B4B"/>
<path fill-rule="evenodd" clip-rule="evenodd" d="M-0.225756 11.7353L13.5867 0.276953L13.2258 -0.276932L-0.586744 11.1814L-0.225756 11.7353Z" fill="#D74B4B"/>
<path d="M7.71875 1.20206e-07L7.71875 11H5.28125L5.28125 0L7.71875 1.20206e-07Z" fill="#F9F9F9"/>
<path d="M0 4.125H13V6.875H0V4.125Z" fill="#F9F9F9"/>
<path d="M0 4.58333H13V6.41667H0V4.58333Z" fill="#D74B4B"/>
<path d="M7.3125 8.01377e-08L7.3125 11H5.6875L5.6875 0L7.3125 8.01377e-08Z" fill="#D74B4B"/>
</g>
<path d="M15 8.98629C17.1719 7.66021 19.8281 7.66021 22 8.98629V15.2281C22 17.1253 20.9867 18.8517 19.3992 19.6595L18.9383 19.894C18.6607 20.0353 18.3393 20.0353 18.0617 19.894L17.6008 19.6595C16.0133 18.8517 15 17.1253 15 15.2281V8.98629Z" fill="#64BEDB"/>
<mask id="mask0_440_1078" style="mask-type:alpha" maskUnits="userSpaceOnUse" x="15" y="7" width="7" height="13">
<path d="M15 8.98629C17.1719 7.66021 19.8281 7.66021 22 8.98629V15.2281C22 17.1253 20.9867 18.8517 19.3992 19.6595L18.9383 19.894C18.6607 20.0353 18.3393 20.0353 18.0617 19.894L17.6008 19.6595C16.0133 18.8517 15 17.1253 15 15.2281V8.98629Z" fill="#64BEDB"/>
</mask>
<g mask="url(#mask0_440_1078)">
<path d="M22 15.726C21.8571 17.4237 20.8762 18.9295 19.4038 19.6643L18.9406 19.8955C18.6615 20.0348 18.3385 20.0348 18.0594 19.8955L17.5962 19.6643C16.1238 18.9295 15.1429 17.4237 15 15.726H22Z" fill="#F9F9F9"/>
<path d="M22 12.1096H15V8.98629C17.1719 7.66021 19.8281 7.66021 22 8.98629V12.1096Z" fill="#F8D74C"/>
<path d="M17.1304 12.1096H17.2826V12.5517H17.8913L17.4348 12.6991H17.2826V13.1412H18.0435L17.4855 13.436H17.2826V13.8781H18.0435L17.4855 14.1729H17.2826V14.615H18.0435L17.4855 14.9098H17.2826V16.2362H17.1304V14.9098H16.9275L16.3696 14.615H17.1304V14.1729H16.9275L16.3696 13.8781H17.1304V13.436H16.9275L16.3696 13.1412H17.1304V12.6991H16.9783L16.5217 12.5517H17.1304V12.1096Z" fill="#F8D74C"/>
<path d="M18.3478 12.1096H18.5V12.257H19.1087L18.6522 12.4043H18.5V12.8465H19.2609L18.7029 13.1412H18.5V13.5834H19.2609L18.7029 13.8781H18.5V14.3203H19.2609L18.7029 14.615H18.5V16.2362H18.3478V14.615H18.1449L17.587 14.3203H18.3478V13.8781H18.1449L17.587 13.5834H18.3478V13.1412H18.1449L17.587 12.8465H18.3478V12.4043H18.1957L17.7391 12.257H18.3478V12.1096Z" fill="#F8D74C"/>
<path d="M19.7174 12.1096H19.5652V12.5517H18.9565L19.413 12.6991H19.5652V13.1412H18.8044L19.3623 13.436H19.5652V13.8781H18.8044L19.3623 14.1729H19.5652V14.615H18.8044L19.3623 14.9098H19.5652V16.2362H19.7174V14.9098H19.9203L20.4783 14.615H19.7174V14.1729H19.9203L20.4783 13.8781H19.7174V13.436H19.9203L20.4783 13.1412H19.7174V12.6991H19.8696L20.3261 12.5517H19.7174V12.1096Z" fill="#F8D74C"/>
<path d="M16.9022 15.7363L15.7609 15.2329L16.5217 15.8801L17.1304 16.3836H20.5544L20.9348 15.9521V15.4486H19.1848L18.7283 15.7363H16.9022Z" fill="#333333"/>
<path d="M20.1739 14.2466H21.3913V15.2329H20.1739V14.2466Z" fill="#F9F9F9"/>
<path d="M20.8605 14.2466H20.7083V14.6575H20.1739V14.8219H20.7083V15.2329H20.8605V14.8219H21.3913V14.6575H20.8605V14.2466Z" fill="#D74B4B"/>
<path d="M20.1739 14.2388H20.2566V15.6076H20.1739V14.2388Z" fill="#333333"/>
<path d="M22.3589 16.4179C22.3037 16.3973 22.2442 16.4334 22.2319 16.4951C22.1958 16.6754 22.0067 16.7642 21.8601 16.6697L21.5482 16.4687C21.4465 16.4032 21.3213 16.3961 21.2139 16.45L20.8559 16.6294C20.6106 16.7523 20.3254 16.7396 20.0903 16.5953L20.0004 16.5401C19.8176 16.4279 19.5971 16.4126 19.4025 16.4988L19.0127 16.6714C18.795 16.7678 18.5498 16.7607 18.3371 16.6519L18.0462 16.5031C17.8696 16.4128 17.6658 16.4082 17.4859 16.4906L17.0933 16.6703C16.8812 16.7674 16.6415 16.7657 16.4306 16.6658L16.0268 16.4745C15.8703 16.4003 15.6937 16.3921 15.5318 16.4514L14.8539 16.6999L14.805 16.5442L15.4829 16.2958C15.6808 16.2232 15.8966 16.2333 16.088 16.324L16.4917 16.5153C16.6643 16.597 16.8604 16.5983 17.0339 16.5189L17.4266 16.3392C17.6464 16.2386 17.8955 16.2442 18.1113 16.3545L18.4023 16.5034C18.5762 16.5923 18.7769 16.5981 18.955 16.5193L19.3448 16.3467C19.5826 16.2414 19.8521 16.26 20.0756 16.3972L20.1654 16.4523C20.3578 16.5704 20.5911 16.5808 20.7919 16.4802L21.1499 16.3009C21.303 16.2242 21.4812 16.2341 21.6261 16.3275L21.938 16.5286C21.9952 16.5654 22.0691 16.5308 22.0831 16.4604C22.1147 16.3023 22.2672 16.2097 22.4087 16.2626L23.1624 16.5444L23.1126 16.6997L22.3589 16.4179Z" fill="#64BEDB"/>
<path d="M22.3589 16.9145C22.3037 16.8939 22.2442 16.9301 22.2319 16.9917C22.1958 17.172 22.0067 17.2608 21.8601 17.1663L21.5482 16.9653C21.4465 16.8998 21.3213 16.8928 21.2139 16.9466L20.8559 17.126C20.6106 17.2489 20.3254 17.2362 20.0903 17.0919L20.0004 17.0367C19.8176 16.9245 19.5971 16.9093 19.4025 16.9954L19.0127 17.168C18.795 17.2644 18.5498 17.2573 18.3371 17.1485L18.0462 16.9997C17.8696 16.9094 17.6658 16.9049 17.4859 16.9872L17.0933 17.1669C16.8812 17.264 16.6415 17.2623 16.4306 17.1624L16.0268 16.9711C15.8703 16.8969 15.6937 16.8887 15.5318 16.948L14.8539 17.1965L14.805 17.0408L15.4829 16.7924C15.6808 16.7198 15.8966 16.7299 16.088 16.8206L16.4917 17.0119C16.6643 17.0936 16.8604 17.095 17.0339 17.0155L17.4266 16.8358C17.6464 16.7352 17.8955 16.7408 18.1113 16.8511L18.4023 17C18.5762 17.089 18.7769 17.0947 18.955 17.0159L19.3448 16.8433C19.5826 16.738 19.8521 16.7566 20.0756 16.8938L20.1654 16.9489C20.3578 17.067 20.5911 17.0774 20.7919 16.9768L21.1499 16.7975C21.303 16.7208 21.4812 16.7308 21.6261 16.8242L21.938 17.0252C21.9952 17.062 22.0691 17.0274 22.0831 16.957C22.1147 16.799 22.2672 16.7063 22.4087 16.7592L23.1624 17.041L23.1126 17.1963L22.3589 16.9145Z" fill="#64BEDB"/>
<path d="M22.2319 17.4884C22.2442 17.4267 22.3037 17.3905 22.3589 17.4111L23.1126 17.6929L23.1624 17.5376L22.4087 17.2558C22.2672 17.2029 22.1147 17.2956 22.0831 17.4536C22.0691 17.524 21.9952 17.5587 21.938 17.5218L21.6261 17.3208C21.4812 17.2274 21.303 17.2174 21.1499 17.2941L20.7919 17.4734C20.5911 17.574 20.3578 17.5636 20.1654 17.4455L20.0756 17.3904C19.8521 17.2532 19.5826 17.2346 19.3448 17.3399L18.955 17.5125C18.7769 17.5913 18.5762 17.5856 18.4023 17.4966L18.1113 17.3477C17.8955 17.2374 17.6464 17.2318 17.4266 17.3324L17.0339 17.5121C16.8604 17.5916 16.6643 17.5902 16.4917 17.5085L16.088 17.3172C15.8966 17.2265 15.6808 17.2165 15.4829 17.289L14.805 17.5374L14.8539 17.6931L15.5318 17.4446C15.6937 17.3853 15.8703 17.3935 16.0268 17.4677L16.4306 17.659C16.6415 17.7589 16.8812 17.7606 17.0933 17.6635L17.4859 17.4838C17.6658 17.4015 17.8696 17.406 18.0462 17.4963L18.3371 17.6451C18.5498 17.7539 18.795 17.761 19.0127 17.6646L19.4025 17.492C19.5971 17.4059 19.8176 17.4211 20.0004 17.5333L20.0903 17.5885C20.3254 17.7328 20.6106 17.7455 20.8559 17.6226L21.2139 17.4432C21.3213 17.3894 21.4465 17.3964 21.5482 17.4619L21.8601 17.6629C22.0067 17.7574 22.1958 17.6686 22.2319 17.4884Z" fill="#64BEDB"/>
<path d="M22.3589 17.9078C22.3037 17.8871 22.2442 17.9233 22.2319 17.985C22.1958 18.1652 22.0067 18.254 21.8601 18.1596L21.5482 17.9585C21.4465 17.893 21.3213 17.886 21.2139 17.9398L20.8559 18.1192C20.6106 18.2421 20.3254 18.2294 20.0903 18.0851L20.0004 18.0299C19.8176 17.9177 19.5971 17.9025 19.4025 17.9886L19.0127 18.1612C18.795 18.2576 18.5498 18.2505 18.3371 18.1418L18.0462 17.9929C17.8696 17.9026 17.6658 17.8981 17.4859 17.9804L17.0933 18.1601C16.8812 18.2572 16.6415 18.2556 16.4306 18.1556L16.0268 17.9643C15.8703 17.8901 15.6937 17.8819 15.5318 17.9413L14.8539 18.1897L14.805 18.034L15.4829 17.7856C15.6808 17.7131 15.8966 17.7231 16.088 17.8138L16.4917 18.0051C16.6643 18.0868 16.8604 18.0882 17.0339 18.0087L17.4266 17.829C17.6464 17.7284 17.8955 17.734 18.1113 17.8444L18.4023 17.9932C18.5762 18.0822 18.7769 18.0879 18.955 18.0091L19.3448 17.8365C19.5826 17.7312 19.8521 17.7498 20.0756 17.887L20.1654 17.9422C20.3578 18.0602 20.5911 18.0706 20.7919 17.9701L21.1499 17.7907C21.303 17.714 21.4812 17.724 21.6261 17.8174L21.938 18.0184C21.9952 18.0553 22.0691 18.0206 22.0831 17.9503C22.1147 17.7922 22.2672 17.6995 22.4087 17.7524L23.1624 18.0342L23.1126 18.1895L22.3589 17.9078Z" fill="#64BEDB"/>
<path d="M22.2319 18.4816C22.2442 18.4199 22.3037 18.3837 22.3589 18.4044L23.1126 18.6861L23.1624 18.5308L22.4087 18.249C22.2672 18.1961 22.1147 18.2888 22.0831 18.4469C22.0691 18.5172 21.9952 18.5519 21.938 18.515L21.6261 18.314C21.4812 18.2206 21.303 18.2106 21.1499 18.2873L20.7919 18.4667C20.5911 18.5672 20.3578 18.5568 20.1654 18.4388L20.0756 18.3836C19.8521 18.2464 19.5826 18.2278 19.3448 18.3331L18.955 18.5057C18.7769 18.5845 18.5762 18.5788 18.4023 18.4898L18.1113 18.341C17.8955 18.2306 17.6464 18.225 17.4266 18.3256L17.0339 18.5054C16.8604 18.5848 16.6643 18.5834 16.4917 18.5017L16.088 18.3104C15.8966 18.2197 15.6808 18.2097 15.4829 18.2822L14.805 18.5306L14.8539 18.6863L15.5318 18.4379C15.6937 18.3785 15.8703 18.3868 16.0268 18.4609L16.4306 18.6522C16.6415 18.7522 16.8812 18.7538 17.0933 18.6567L17.4859 18.477C17.6658 18.3947 17.8696 18.3992 18.0462 18.4895L18.3371 18.6384C18.5498 18.7471 18.795 18.7542 19.0127 18.6578L19.4025 18.4852C19.5971 18.3991 19.8176 18.4143 20.0004 18.5266L20.0903 18.5817C20.3254 18.726 20.6106 18.7387 20.8559 18.6158L21.2139 18.4364C21.3213 18.3826 21.4465 18.3896 21.5482 18.4551L21.8601 18.6562C22.0067 18.7506 22.1958 18.6618 22.2319 18.4816Z" fill="#64BEDB"/>
<path d="M22.3589 18.901C22.3037 18.8803 22.2442 18.9165 22.2319 18.9782C22.1958 19.1584 22.0067 19.2473 21.8601 19.1528L21.5482 18.9517C21.4465 18.8862 21.3213 18.8792 21.2139 18.933L20.8559 19.1124C20.6106 19.2353 20.3254 19.2226 20.0903 19.0783L20.0004 19.0232C19.8176 18.9109 19.5971 18.8957 19.4025 18.9818L19.0127 19.1544C18.795 19.2508 18.5498 19.2437 18.3371 19.135L18.0462 18.9861C17.8696 18.8958 17.6658 18.8913 17.4859 18.9736L17.0933 19.1533C16.8812 19.2504 16.6415 19.2488 16.4306 19.1488L16.0268 18.9575C15.8703 18.8834 15.6937 18.8751 15.5318 18.9345L14.8539 19.1829L14.805 19.0272L15.4829 18.7788C15.6808 18.7063 15.8966 18.7163 16.088 18.807L16.4917 18.9983C16.6643 19.0801 16.8604 19.0814 17.0339 19.002L17.4266 18.8222C17.6464 18.7216 17.8955 18.7272 18.1113 18.8376L18.4023 18.9864C18.5762 19.0754 18.7769 19.0812 18.955 19.0023L19.3448 18.8297C19.5826 18.7244 19.8521 18.743 20.0756 18.8802L20.1654 18.9354C20.3578 19.0534 20.5911 19.0638 20.7919 18.9633L21.1499 18.7839C21.303 18.7072 21.4812 18.7172 21.6261 18.8106L21.938 19.0116C21.9952 19.0485 22.0691 19.0138 22.0831 18.9435C22.1147 18.7854 22.2672 18.6927 22.4087 18.7456L23.1624 19.0274L23.1126 19.1827L22.3589 18.901Z" fill="#64BEDB"/>
<path d="M22.2319 19.4748C22.2442 19.4131 22.3037 19.3769 22.3589 19.3976L23.1126 19.6794L23.1624 19.524L22.4087 19.2422C22.2672 19.1893 22.1147 19.282 22.0831 19.4401C22.0691 19.5104 21.9952 19.5451 21.938 19.5082L21.6261 19.3072C21.4812 19.2138 21.303 19.2038 21.1499 19.2805L20.7919 19.4599C20.5911 19.5604 20.3578 19.55 20.1654 19.432L20.0756 19.3768C19.8521 19.2397 19.5826 19.221 19.3448 19.3263L18.955 19.4989C18.7769 19.5778 18.5762 19.572 18.4023 19.483L18.1113 19.3342C17.8955 19.2238 17.6464 19.2182 17.4266 19.3189L17.0339 19.4986C16.8604 19.578 16.6643 19.5767 16.4917 19.4949L16.088 19.3036C15.8966 19.2129 15.6808 19.2029 15.4829 19.2754L14.805 19.5239L14.8539 19.6795L15.5318 19.4311C15.6937 19.3717 15.8703 19.38 16.0268 19.4541L16.4306 19.6454C16.6415 19.7454 16.8812 19.747 17.0933 19.6499L17.4859 19.4702C17.6658 19.3879 17.8696 19.3924 18.0462 19.4827L18.3371 19.6316C18.5498 19.7403 18.795 19.7474 19.0127 19.651L19.4025 19.4785C19.5971 19.3923 19.8176 19.4075 20.0004 19.5198L20.0903 19.5749C20.3254 19.7192 20.6106 19.7319 20.8559 19.609L21.2139 19.4296C21.3213 19.3758 21.4465 19.3828 21.5482 19.4484L21.8601 19.6494C22.0067 19.7439 22.1958 19.655 22.2319 19.4748Z" fill="#64BEDB"/>
<path fill-rule="evenodd" clip-rule="evenodd" d="M18.3808 10.3945C18.3454 10.3446 18.3211 10.3108 18.3122 10.3005L18.3566 10.2556C18.3681 10.2689 18.395 10.3065 18.4291 10.3544C18.4332 10.3602 18.4374 10.3662 18.4418 10.3723C18.4743 10.418 18.5134 10.4729 18.5547 10.5297C18.6494 10.6596 18.7537 10.7958 18.8201 10.8566L18.836 10.8712L18.7063 11.273C18.7562 11.2629 18.8017 11.2535 18.8383 11.2458L18.8499 11.3104C18.681 11.3459 18.3127 11.42 18.2056 11.4287L18.201 11.3632C18.2718 11.3574 18.467 11.3208 18.6374 11.2869L18.765 10.8917C18.6935 10.8208 18.5939 10.6897 18.5069 10.5704C18.4653 10.5132 18.426 10.4581 18.3935 10.4123C18.3892 10.4062 18.3849 10.4003 18.3808 10.3945ZM19.123 10.89L18.7051 10.3967L18.7501 10.3523L19.1915 10.8734L19.0412 11.3959L19.1984 11.3381L19.218 11.4003L18.7374 11.5771L18.7178 11.5148L18.97 11.4221L19.123 10.89Z" fill="#333333"/>
<path d="M17.6563 8.87656L16.9661 8.99081L17.6563 9.12309V8.87656Z" fill="#333333"/>
<path fill-rule="evenodd" clip-rule="evenodd" d="M17.6074 9.28965C17.6496 9.34462 17.7096 9.39283 17.803 9.39283C17.9599 9.39283 17.886 9.51993 17.8346 9.60833C17.8208 9.63195 17.8087 9.6528 17.803 9.66773C17.7529 9.82184 17.7359 10.1676 18.0691 10.3175C18.4855 10.5049 18.7862 10.6299 19.4456 10.5299C19.8191 10.4733 19.9904 10.4802 20.0572 10.5008C20.0698 10.511 20.0819 10.5207 20.0933 10.5299C20.0945 10.5202 20.0847 10.5093 20.0572 10.5008C19.7733 10.2718 19.216 9.80997 18.9944 9.58026C18.7631 9.34035 18.5587 9.35535 18.4855 9.39283C18.5086 9.11377 18.4253 8.56813 17.9071 8.61811C17.5181 8.65563 17.4839 8.85702 17.5047 9.02165C17.5169 9.11845 17.5497 9.21443 17.6074 9.28965ZM17.8315 8.93606C17.8641 8.93606 17.8906 8.90748 17.8906 8.87222C17.8906 8.83697 17.8641 8.80839 17.8315 8.80839C17.7988 8.80839 17.7724 8.83697 17.7724 8.87222C17.7724 8.90748 17.7988 8.93606 17.8315 8.93606Z" fill="#F9F9F9"/>
</g>
<defs>
<clipPath id="clip0_440_1078">
<rect width="13" height="11" fill="white"/>
</clipPath>
</defs>
</svg>
