<svg width="32" height="24" viewBox="0 0 32 24" fill="none" xmlns="http://www.w3.org/2000/svg">
<g clip-path="url(#clip0_440_1056)">
<rect width="32" height="24" rx="2" fill="#F9F9F9"/>
<path d="M0 15H32V24H0V15Z" fill="#485CC2"/>
<path d="M0 0H32V9H0V0Z" fill="#D74B4B"/>
<path d="M32 10H12L0 1.43051e-06V24L12 14H32V10Z" fill="#3FB47C"/>
<path fill-rule="evenodd" clip-rule="evenodd" d="M12 10H32V14H12L0 24V1.43051e-06L12 10ZM12.362 15L-1 26.135V-2.13504L12.362 9H33V15H12.362Z" fill="#F9F9F9"/>
<path d="M9 12L0 5V19L9 12Z" fill="#333333"/>
<path fill-rule="evenodd" clip-rule="evenodd" d="M-1 2.95536L10.6288 12L-1 21.0446V2.95536ZM0 5V19L9 12L0 5Z" fill="#F8D74C"/>
</g>
<defs>
<clipPath id="clip0_440_1056">
<rect width="32" height="24" rx="2" fill="white"/>
</clipPath>
</defs>
</svg>
