<svg width="32" height="24" viewBox="0 0 32 24" fill="none" xmlns="http://www.w3.org/2000/svg">
<g clip-path="url(#clip0_440_1037)">
<rect width="32" height="24" rx="2" fill="#962122"/>
<path d="M0 0H32V5H0V0Z" fill="#64BEDB"/>
<path d="M0 5H32V6H0V5Z" fill="#F8D74C"/>
<path d="M0 18H32V19H0V18Z" fill="#F8D74C"/>
<path d="M0 19H32V24H0V19Z" fill="#64BEDB"/>
<path d="M5.3517 11.419H24.153V11.7896H5.3517V11.419Z" fill="#F9F9F9"/>
<path d="M6.35365 10.563H25.155V10.9336H6.35365V10.563Z" fill="#F9F9F9"/>
<path d="M24.153 12.0721V11.2161L25.8148 11.6322L24.153 12.0721Z" fill="#F9F9F9"/>
<path d="M25.155 11.2161V10.3601L26.8167 10.7762L25.155 11.2161Z" fill="#F9F9F9"/>
<path d="M3 12.2928H29V12.6634H3V12.2928Z" fill="#F9F9F9"/>
<path d="M4.13478 12.3899L3.56212 13.2589C3.50319 13.3483 3.47213 13.4501 3.47213 13.5537C3.47213 13.8762 3.76686 14.1377 4.13042 14.1377H5.09295C5.45803 14.1377 5.75399 13.8751 5.75399 13.5512C5.75399 13.4492 5.72397 13.3489 5.6669 13.2603L5.1063 12.3899H4.13478Z" fill="#333333"/>
<path d="M26.6485 12.3899L26.0758 13.2589C26.0169 13.3483 25.9858 13.4501 25.9858 13.5537C25.9858 13.8762 26.2806 14.1377 26.6441 14.1377H27.6067C27.9717 14.1377 28.2677 13.8751 28.2677 13.5512C28.2677 13.4492 28.2377 13.3489 28.1806 13.2603L27.62 12.3899H26.6485Z" fill="#333333"/>
<path d="M23.8709 12C23.8709 12.4314 20.2822 16 15.8553 16C11.4283 16 7.83962 12.4314 7.83962 12C7.83962 11.5686 11.4283 8 15.8553 8C20.2822 8 23.8709 11.5686 23.8709 12Z" fill="#F9F9F9"/>
<path d="M15.8553 8C11.4283 8 7.83962 11.5686 7.83962 12C7.83962 12.4314 11.4283 16 15.8553 16V8Z" fill="#333333"/>
<path d="M10.3751 10.6606H9.84353V11.5495H10.3751V10.6606Z" fill="#333333"/>
<path d="M10.3751 12.4505H9.84353V13.3394H10.3751V12.4505Z" fill="#333333"/>
<path d="M10.9633 10.6606H11.4949V11.5495H10.9633V10.6606Z" fill="#333333"/>
<path d="M11.4949 12.4505H10.9633V13.3394H11.4949V12.4505Z" fill="#333333"/>
<path d="M12.0831 10.6606H12.6147V11.5495H12.0831V10.6606Z" fill="#333333"/>
<path d="M12.6147 12.4505H12.0831V13.3394H12.6147V12.4505Z" fill="#333333"/>
<path d="M13.203 10.6606H13.7346V11.5495H13.203V10.6606Z" fill="#333333"/>
<path d="M13.7346 12.4505H13.203V13.3394H13.7346V12.4505Z" fill="#333333"/>
<path d="M14.3228 10.6606H14.8544V11.5495H14.3228V10.6606Z" fill="#333333"/>
<path d="M14.8544 12.4505H14.3228V13.3394H14.8544V12.4505Z" fill="#333333"/>
<path d="M17.4001 10.6606H16.8685V11.5495H17.4001V10.6606Z" fill="#333333"/>
<path d="M17.4001 12.4505H16.8685V13.3394H17.4001V12.4505Z" fill="#333333"/>
<path d="M17.9883 10.6606H18.5199V11.5495H17.9883V10.6606Z" fill="#333333"/>
<path d="M18.5199 12.4505H17.9883V13.3394H18.5199V12.4505Z" fill="#333333"/>
<path d="M19.1081 10.6606H19.6397V11.5495H19.1081V10.6606Z" fill="#333333"/>
<path d="M19.6397 12.4505H19.1081V13.3394H19.6397V12.4505Z" fill="#333333"/>
<path d="M20.2279 10.6606H20.7595V11.5495H20.2279V10.6606Z" fill="#333333"/>
<path d="M20.7595 12.4505H20.2279V13.3394H20.7595V12.4505Z" fill="#333333"/>
<path d="M21.3477 10.6606H21.8793V11.5495H21.3477V10.6606Z" fill="#333333"/>
<path d="M21.8793 12.4505H21.3477V13.3394H21.8793V12.4505Z" fill="#333333"/>
</g>
<defs>
<clipPath id="clip0_440_1037">
<rect width="32" height="24" rx="2" fill="white"/>
</clipPath>
</defs>
</svg>
