<svg width="24" height="24" viewBox="0 0 24 24" fill="none" xmlns="http://www.w3.org/2000/svg">
<g clip-path="url(#clip0_440_1035)">
<rect width="24" height="24" rx="12" fill="#962122"/>
<path d="M0 0H24V5H0V0Z" fill="#64BEDB"/>
<path d="M0 19H24V24H0V19Z" fill="#64BEDB"/>
<path d="M0 5H24V6H0V5Z" fill="#F8D74C"/>
<path d="M0 18H24V19H0V18Z" fill="#F8D74C"/>
<path d="M3.809 11.419H18.2715V11.7896H3.809V11.419Z" fill="#F9F9F9"/>
<path d="M4.57973 10.563H19.0423V10.9336H4.57973V10.563Z" fill="#F9F9F9"/>
<path d="M18.2715 12.0721V11.2161L19.5498 11.6322L18.2715 12.0721Z" fill="#F9F9F9"/>
<path d="M19.0423 11.2161V10.3601L20.3206 10.7762L19.0423 11.2161Z" fill="#F9F9F9"/>
<path d="M2 12.2928H22V12.6634H2V12.2928Z" fill="#F9F9F9"/>
<path d="M2.87291 12.3899L2.4324 13.2589C2.38707 13.3483 2.36318 13.4501 2.36318 13.5537C2.36318 13.8762 2.58989 14.1377 2.86955 14.1377H3.60996C3.8908 14.1377 4.11846 13.8751 4.11846 13.5512C4.11846 13.4492 4.09536 13.3489 4.05146 13.2603L3.62023 12.3899H2.87291Z" fill="#333333"/>
<path d="M20.1911 12.3899L19.7506 13.2589C19.7053 13.3483 19.6814 13.4501 19.6814 13.5537C19.6814 13.8762 19.9081 14.1377 20.1878 14.1377H20.9282C21.209 14.1377 21.4367 13.8751 21.4367 13.5512C21.4367 13.4492 21.4136 13.3489 21.3697 13.2603L20.9385 12.3899H20.1911Z" fill="#333333"/>
<path d="M18.0545 12C18.0545 12.4314 15.294 16 11.8887 16C8.48334 16 5.72278 12.4314 5.72278 12C5.72278 11.5686 8.48334 8 11.8887 8C15.294 8 18.0545 11.5686 18.0545 12Z" fill="#F9F9F9"/>
<path d="M11.8887 8C8.48334 8 5.72278 11.5686 5.72278 12C5.72278 12.4314 8.48334 16 11.8887 16V8Z" fill="#333333"/>
<path d="M7.67317 10.6606H7.26425V11.5495H7.67317V10.6606Z" fill="#333333"/>
<path d="M7.67317 12.4505H7.26425V13.3394H7.67317V12.4505Z" fill="#333333"/>
<path d="M8.12564 10.6606H8.53456V11.5495H8.12564V10.6606Z" fill="#333333"/>
<path d="M8.53456 12.4505H8.12564V13.3394H8.53456V12.4505Z" fill="#333333"/>
<path d="M8.98702 10.6606H9.39594V11.5495H8.98702V10.6606Z" fill="#333333"/>
<path d="M9.39594 12.4505H8.98702V13.3394H9.39594V12.4505Z" fill="#333333"/>
<path d="M9.84843 10.6606H10.2573V11.5495H9.84843V10.6606Z" fill="#333333"/>
<path d="M10.2573 12.4505H9.84843V13.3394H10.2573V12.4505Z" fill="#333333"/>
<path d="M10.7098 10.6606H11.1187V11.5495H10.7098V10.6606Z" fill="#333333"/>
<path d="M11.1187 12.4505H10.7098V13.3394H11.1187V12.4505Z" fill="#333333"/>
<path d="M13.077 10.6606H12.6681V11.5495H13.077V10.6606Z" fill="#333333"/>
<path d="M13.077 12.4505H12.6681V13.3394H13.077V12.4505Z" fill="#333333"/>
<path d="M13.5294 10.6606H13.9384V11.5495H13.5294V10.6606Z" fill="#333333"/>
<path d="M13.9384 12.4505H13.5294V13.3394H13.9384V12.4505Z" fill="#333333"/>
<path d="M14.3908 10.6606H14.7997V11.5495H14.3908V10.6606Z" fill="#333333"/>
<path d="M14.7997 12.4505H14.3908V13.3394H14.7997V12.4505Z" fill="#333333"/>
<path d="M15.2522 10.6606H15.6612V11.5495H15.2522V10.6606Z" fill="#333333"/>
<path d="M15.6612 12.4505H15.2522V13.3394H15.6612V12.4505Z" fill="#333333"/>
<path d="M16.1136 10.6606H16.5225V11.5495H16.1136V10.6606Z" fill="#333333"/>
<path d="M16.5225 12.4505H16.1136V13.3394H16.5225V12.4505Z" fill="#333333"/>
</g>
<defs>
<clipPath id="clip0_440_1035">
<rect width="24" height="24" rx="12" fill="white"/>
</clipPath>
</defs>
</svg>
