<svg width="24" height="24" viewBox="0 0 24 24" fill="none" xmlns="http://www.w3.org/2000/svg">
<rect width="24" height="24" rx="12" fill="#D74B4B"/>
<path fill-rule="evenodd" clip-rule="evenodd" d="M12 17C14.7614 17 17 14.7614 17 12C17 9.23858 14.7614 7 12 7C9.23858 7 7 9.23858 7 12C7 14.7614 9.23858 17 12 17ZM14.9198 9.51185C14.4641 9.22256 13.9234 9.05498 13.3436 9.05498C11.7171 9.05498 10.3986 10.3735 10.3986 12C10.3986 13.6265 11.7171 14.945 13.3436 14.945C13.9234 14.945 14.4641 14.7774 14.9198 14.4882C14.2532 15.204 13.3023 15.6518 12.2468 15.6518C10.23 15.6518 8.59502 14.0169 8.59502 12C8.59502 9.98313 10.23 8.34818 12.2468 8.34818C13.3023 8.34818 14.2532 8.79597 14.9198 9.51185ZM12.9504 9.85664L13.877 11.1622L15.405 10.6844L14.4496 11.9691L15.3762 13.2747L13.8592 12.7631L12.9039 14.0477L12.9217 12.4469L11.4046 11.9353L12.9326 11.4575L12.9504 9.85664Z" fill="#F9F9F9"/>
</svg>
