<svg width="32" height="24" viewBox="0 0 32 24" fill="none" xmlns="http://www.w3.org/2000/svg">
<rect width="32" height="24" rx="2" fill="#D74B4B"/>
<path fill-rule="evenodd" clip-rule="evenodd" d="M16 17C18.7614 17 21 14.7614 21 12C21 9.23858 18.7614 7 16 7C13.2386 7 11 9.23858 11 12C11 14.7614 13.2386 17 16 17ZM18.9198 9.51185C18.4641 9.22256 17.9234 9.05498 17.3436 9.05498C15.7171 9.05498 14.3986 10.3735 14.3986 12C14.3986 13.6265 15.7171 14.945 17.3436 14.945C17.9234 14.945 18.4641 14.7774 18.9198 14.4882C18.2532 15.204 17.3023 15.6518 16.2468 15.6518C14.23 15.6518 12.595 14.0169 12.595 12C12.595 9.98313 14.23 8.34818 16.2468 8.34818C17.3023 8.34818 18.2532 8.79597 18.9198 9.51185ZM16.9504 9.85664L17.877 11.1622L19.405 10.6844L18.4496 11.9691L19.3762 13.2747L17.8592 12.7631L16.9039 14.0477L16.9217 12.4469L15.4046 11.9353L16.9326 11.4575L16.9504 9.85664Z" fill="#F9F9F9"/>
</svg>
