<svg width="32" height="24" viewBox="0 0 32 24" fill="none" xmlns="http://www.w3.org/2000/svg">
<g clip-path="url(#clip0_440_1030)">
<rect width="32" height="24" rx="2" fill="#F8D74C"/>
<path d="M0 0H32V4H0V0Z" fill="#333333"/>
<path d="M0 8H32V12H0V8Z" fill="#D74B4B"/>
<path d="M0 12H32V16H0V12Z" fill="#333333"/>
<path d="M0 20H32V24H0V20Z" fill="#D74B4B"/>
<path d="M21 12C21 14.7614 18.7614 17 16 17C13.2386 17 11 14.7614 11 12C11 9.23858 13.2386 7 16 7C18.7614 7 21 9.23858 21 12Z" fill="#F9F9F9"/>
<path d="M15.1918 8.71122L15.427 9.18161L15.7515 9.16937L16.1913 9.36903L16.5588 9.29921C16.5118 9.08166 16.3677 8.89498 16.3016 8.82884C16.2673 8.78963 16.1443 8.68917 15.9267 8.60099C15.7092 8.51281 15.3461 8.63773 15.1918 8.71122Z" fill="#D74B4B"/>
<path d="M15.6395 8.57765L15.6262 8.90818L15.5969 9.09479L16.1034 9.16937L16.3215 8.84981C16.3143 8.84184 16.3076 8.83487 16.3016 8.82884C16.2673 8.78963 16.1443 8.68917 15.9267 8.60099C15.8452 8.56795 15.7433 8.56477 15.6395 8.57765Z" fill="#F8D74C"/>
<path fill-rule="evenodd" clip-rule="evenodd" d="M15.9799 9.88533C16.1334 9.8012 16.2375 9.63808 16.2375 9.45064C16.2375 9.17708 16.0158 8.95532 15.7422 8.95532C15.4687 8.95532 15.2469 9.17708 15.2469 9.45064C15.2469 9.47233 15.2483 9.49369 15.251 9.51465L14.8455 9.69989L15.2781 9.62389C15.283 9.63698 15.2884 9.64981 15.2943 9.66234L14.8455 9.77758L15.3367 9.73513C15.3798 9.7964 15.4364 9.84746 15.5022 9.88399L15.4899 9.89578L14.9736 10.4966C14.827 10.6671 14.7464 10.8846 14.7464 11.1095C14.7464 11.2011 14.7598 11.2921 14.7861 11.3798L14.81 11.4594C14.8739 11.6726 15.0071 11.8583 15.1886 11.9872L15.8957 12.4897L15.9513 13.1333L15.1821 13.081C15.1012 13.0755 15.0206 13.0966 14.9527 13.1411C14.7904 13.2475 14.7157 13.4751 14.6936 13.668C14.6879 13.7169 14.6789 13.7708 14.6653 13.8296L15.0573 13.7484C15.1802 13.4945 15.4432 13.3388 15.725 13.3533L15.9714 13.3659L16.0442 14.2081H15.6386L15.2601 14.3703H15.5581L15.2601 14.5412L16.8417 14.5048V14.3703L16.3145 14.2081V13.3835L16.8417 13.4105V12.9974C16.8417 12.9228 16.8209 12.8498 16.7816 12.7864L16.5984 12.4913H17.1256L17.3825 11.545L16.0442 10.9231C15.9585 10.9141 15.7792 10.815 15.7468 10.4906C15.7198 10.2209 15.8653 10.001 15.9799 9.88533ZM15.6075 9.34003C15.6517 9.34003 15.6875 9.30422 15.6875 9.26004C15.6875 9.21586 15.6517 9.18005 15.6075 9.18005C15.5634 9.18005 15.5276 9.21586 15.5276 9.26004C15.5276 9.30422 15.5634 9.34003 15.6075 9.34003Z" fill="#333333"/>
<path d="M17.2293 13.0422C17.3433 12.7383 17.1819 12.5548 17.0869 12.501C16.8223 12.5215 16.7227 12.3086 16.7227 12.3086C16.9297 12.4336 17.2293 12.2578 17.1133 12.2656C17.0204 12.2719 16.9548 12.0453 16.9336 11.9312C16.9701 12.0049 17.0617 12.1289 17.1367 12.0352C17.2117 11.9414 17.0326 11.7695 16.9336 11.6953C17.1113 11.7487 17.4296 11.8383 17.2812 11.7695C17.1329 11.7008 16.9512 11.4336 16.8789 11.3086C16.8789 11.3086 17.1875 11.4531 17.4258 11.5625C17.6641 11.6719 17.932 11.9312 17.932 11.9312C18.1797 12.1602 18.253 12.5636 18.0555 13.0422C17.8579 13.5207 17.4984 13.6657 17.3433 13.6784C17.3948 13.5954 17.4701 13.4761 17.5235 13.3968C17.4172 13.4675 17.2026 13.5114 17.0869 13.5264C17.406 13.3517 17.4731 12.77 17.4667 12.501C17.4667 12.501 17.3211 12.9852 17.2293 13.0422Z" fill="#D74B4B"/>
<path d="M15.3555 10.0586C15.1721 9.99463 15.3022 9.83993 15.3555 9.76172C15.5176 9.88542 15.5454 9.89987 15.5489 9.89453C15.5774 9.97983 15.4639 10.0964 15.3555 10.0586Z" fill="#D74B4B"/>
</g>
<defs>
<clipPath id="clip0_440_1030">
<rect width="32" height="24" rx="2" fill="white"/>
</clipPath>
</defs>
</svg>
