<svg width="24" height="24" viewBox="0 0 24 24" fill="none" xmlns="http://www.w3.org/2000/svg">
<g clip-path="url(#clip0_440_1029)">
<rect width="24" height="24" rx="2" fill="#F8D74C"/>
<path d="M0 0H24V4H0V0Z" fill="#333333"/>
<path d="M0 8H24V12H0V8Z" fill="#D74B4B"/>
<path d="M0 12H24V16H0V12Z" fill="#333333"/>
<path d="M0 20H24V24H0V20Z" fill="#D74B4B"/>
<path d="M17 12C17 14.7614 14.7614 17 12 17C9.23858 17 7 14.7614 7 12C7 9.23858 9.23858 7 12 7C14.7614 7 17 9.23858 17 12Z" fill="#F9F9F9"/>
<path d="M11.1918 8.71122L11.427 9.18161L11.7515 9.16937L12.1913 9.36903L12.5588 9.29921C12.5118 9.08166 12.3677 8.89498 12.3016 8.82884C12.2673 8.78963 12.1443 8.68917 11.9267 8.60099C11.7092 8.51281 11.3461 8.63773 11.1918 8.71122Z" fill="#D74B4B"/>
<path d="M11.6395 8.57765L11.6262 8.90818L11.5969 9.09479L12.1034 9.16937L12.3215 8.84981C12.3143 8.84184 12.3076 8.83487 12.3016 8.82884C12.2673 8.78963 12.1443 8.68917 11.9267 8.60099C11.8452 8.56795 11.7433 8.56477 11.6395 8.57765Z" fill="#F8D74C"/>
<path fill-rule="evenodd" clip-rule="evenodd" d="M11.9799 9.88533C12.1334 9.8012 12.2375 9.63808 12.2375 9.45064C12.2375 9.17708 12.0158 8.95532 11.7422 8.95532C11.4687 8.95532 11.2469 9.17708 11.2469 9.45064C11.2469 9.47233 11.2483 9.49369 11.251 9.51465L10.8455 9.69989L11.2781 9.62389C11.283 9.63698 11.2884 9.64981 11.2943 9.66234L10.8455 9.77758L11.3367 9.73513C11.3798 9.7964 11.4364 9.84746 11.5022 9.88399L11.4899 9.89578L10.9736 10.4966C10.827 10.6671 10.7464 10.8846 10.7464 11.1095C10.7464 11.2011 10.7598 11.2921 10.7861 11.3798L10.81 11.4594C10.8739 11.6726 11.0071 11.8583 11.1886 11.9872L11.8957 12.4897L11.9513 13.1333L11.1821 13.081C11.1012 13.0755 11.0206 13.0966 10.9527 13.1411C10.7904 13.2475 10.7157 13.4751 10.6936 13.668C10.6879 13.7169 10.6789 13.7708 10.6653 13.8296L11.0573 13.7484C11.1802 13.4945 11.4432 13.3388 11.725 13.3533L11.9714 13.3659L12.0442 14.2081H11.6386L11.2601 14.3703H11.5581L11.2601 14.5412L12.8417 14.5048V14.3703L12.3145 14.2081V13.3835L12.8417 13.4105V12.9974C12.8417 12.9228 12.8209 12.8498 12.7816 12.7864L12.5984 12.4913H13.1256L13.3825 11.545L12.0442 10.9231C11.9585 10.9141 11.7792 10.815 11.7468 10.4906C11.7198 10.2209 11.8653 10.001 11.9799 9.88533ZM11.6075 9.34003C11.6517 9.34003 11.6875 9.30422 11.6875 9.26004C11.6875 9.21586 11.6517 9.18005 11.6075 9.18005C11.5634 9.18005 11.5276 9.21586 11.5276 9.26004C11.5276 9.30422 11.5634 9.34003 11.6075 9.34003Z" fill="#333333"/>
<path d="M13.2293 13.0422C13.3433 12.7383 13.1819 12.5548 13.0869 12.501C12.8223 12.5215 12.7227 12.3086 12.7227 12.3086C12.9297 12.4336 13.2293 12.2578 13.1133 12.2656C13.0204 12.2719 12.9548 12.0453 12.9336 11.9312C12.9701 12.0049 13.0617 12.1289 13.1367 12.0352C13.2117 11.9414 13.0326 11.7695 12.9336 11.6953C13.1113 11.7487 13.4296 11.8383 13.2812 11.7695C13.1329 11.7008 12.9512 11.4336 12.8789 11.3086C12.8789 11.3086 13.1875 11.4531 13.4258 11.5625C13.6641 11.6719 13.932 11.9312 13.932 11.9312C14.1797 12.1602 14.253 12.5636 14.0555 13.0422C13.8579 13.5207 13.4984 13.6657 13.3433 13.6784C13.3948 13.5954 13.4701 13.4761 13.5235 13.3968C13.4172 13.4675 13.2026 13.5114 13.0869 13.5264C13.406 13.3517 13.4731 12.77 13.4667 12.501C13.4667 12.501 13.3211 12.9852 13.2293 13.0422Z" fill="#D74B4B"/>
<path d="M11.3555 10.0586C11.1721 9.99463 11.3022 9.83993 11.3555 9.76172C11.5176 9.88542 11.5454 9.89987 11.5489 9.89453C11.5774 9.97983 11.4639 10.0964 11.3555 10.0586Z" fill="#D74B4B"/>
</g>
<defs>
<clipPath id="clip0_440_1029">
<rect width="24" height="24" rx="2" fill="white"/>
</clipPath>
</defs>
</svg>
