<svg width="32" height="24" viewBox="0 0 32 24" fill="none" xmlns="http://www.w3.org/2000/svg">
<g clip-path="url(#clip0_440_1027)">
<rect width="32" height="24" rx="2" fill="#F9F9F9"/>
<path d="M0 16H32V24H0V16Z" fill="#3FB47C"/>
<path d="M0 0H32V8H0V0Z" fill="#333333"/>
<path d="M0 24L2.86197e-07 0L12 12L0 24Z" fill="#D74B4B"/>
<path d="M16.3333 12C16.3333 10.5486 17.4785 9.33797 19 9.06001C18.7846 9.02066 18.5616 9 18.3333 9C16.4924 9 15 10.3431 15 12C15 13.6569 16.4924 15 18.3333 15C18.5616 15 18.7846 14.9793 19 14.94C17.4785 14.662 16.3333 13.4514 16.3333 12Z" fill="#D74B4B"/>
<path d="M19.7983 12.4115L21 11.4297L19.4721 11.4904L18.9445 10L18.5279 11.5279L17 11.5885L18.2704 12.4721L17.8538 14L19.0555 13.0183L20.3259 13.9019L19.7983 12.4115Z" fill="#D74B4B"/>
</g>
<defs>
<clipPath id="clip0_440_1027">
<rect width="32" height="24" rx="2" fill="white"/>
</clipPath>
</defs>
</svg>
