<svg width="24" height="24" viewBox="0 0 24 24" fill="none" xmlns="http://www.w3.org/2000/svg">
<g clip-path="url(#clip0_440_1076)">
<rect width="24" height="24" rx="12" fill="#F9F9F9"/>
<path d="M0 16H24V24H0V16Z" fill="#3FB47C"/>
<path d="M0 0H24V8H0V0Z" fill="#333333"/>
<path d="M0 24L2.86197e-07 0L8 12L0 24Z" fill="#D74B4B"/>
<path d="M10.3333 12C10.3333 10.5486 11.4785 9.33797 13 9.06001C12.7846 9.02066 12.5616 9 12.3333 9C10.4924 9 9 10.3431 9 12C9 13.6569 10.4924 15 12.3333 15C12.5616 15 12.7846 14.9793 13 14.94C11.4785 14.662 10.3333 13.4514 10.3333 12Z" fill="#D74B4B"/>
<path d="M13.7983 12.4115L15 11.4297L13.4721 11.4904L12.9445 10L12.5279 11.5279L11 11.5885L12.2704 12.4721L11.8538 14L13.0555 13.0183L14.3259 13.9019L13.7983 12.4115Z" fill="#D74B4B"/>
</g>
<defs>
<clipPath id="clip0_440_1076">
<rect width="24" height="24" rx="12" fill="white"/>
</clipPath>
</defs>
</svg>
