<svg width="24" height="24" viewBox="0 0 24 24" fill="none" xmlns="http://www.w3.org/2000/svg">
<g clip-path="url(#clip0_440_1020)">
<rect width="24" height="24" rx="12" fill="#F8D74C"/>
<path d="M0 0H24V3.42857H0V0Z" fill="#377649"/>
<path d="M0 6.85718H24V10.2857H0V6.85718Z" fill="#D74B4B"/>
<path d="M0 10.2858H24V13.7143H0V10.2858Z" fill="#333333"/>
<path d="M0 13.7148H24V17.1434H0V13.7148Z" fill="#D74B4B"/>
<path d="M0 20.572H24V24.0005H0V20.572Z" fill="#377649"/>
<path d="M0 24L2.86197e-07 0L14 12L0 24Z" fill="#F9F9F9"/>
<path d="M6 8L6.89805 10.7639H9.80422L7.45308 12.4721L8.35114 15.2361L6 13.5279L3.64886 15.2361L4.54691 12.4721L2.19577 10.7639H5.10194L6 8Z" fill="#D74B4B"/>
<path fill-rule="evenodd" clip-rule="evenodd" d="M4.2853 14.8419L3.80301 13.2701L4.2853 11.9305V10.2694L3.96378 9.89423H3.46365L3.96378 9.42981C4.03522 9.2512 4.30313 8.97972 4.80325 9.32267L5.42841 10.4122L8.53634 12.7699H7.85759L7.53608 14.8419C7.10743 14.7407 5.85716 14.5991 4.2853 14.8419ZM4.36562 9.67191C4.42973 9.67191 4.48171 9.61994 4.48171 9.55582C4.48171 9.4917 4.42973 9.43973 4.36562 9.43973C4.3015 9.43973 4.24953 9.4917 4.24953 9.55582C4.24953 9.61994 4.3015 9.67191 4.36562 9.67191Z" fill="#F8D74C"/>
</g>
<defs>
<clipPath id="clip0_440_1020">
<rect width="24" height="24" rx="12" fill="white"/>
</clipPath>
</defs>
</svg>
