<svg width="145" height="67" viewBox="0 0 145 67" fill="none" xmlns="http://www.w3.org/2000/svg">
<path d="M9.10001 47.5149V66.0883H22.8916V49.7893C22.8916 42.5601 26.9549 37.8834 36.8406 37.5553V23.9311C18.6766 24.2314 9.10001 33.557 9.10001 47.5149Z" fill="#FF6100"/>
<path d="M88.8037 23.3249C76.0012 23.3972 66.8068 32.5004 66.8068 45.0124C66.8068 57.3688 74.4726 65.4821 87.4212 66.7L96.4639 59.949L96.773 60.0992V66.0883H110.643V45.0124C110.643 31.8887 101.932 23.2471 88.8037 23.3249ZM88.8037 53.3538C84.0492 53.3538 80.6041 49.8616 80.6041 45.0124C80.6041 40.1633 84.0492 36.6711 88.8037 36.6711C93.5583 36.6711 96.846 40.1578 96.846 45.0124C96.846 49.8671 93.5021 53.3538 88.8037 53.3538Z" fill="#FF6100"/>
<path d="M59.7535 23.9311H45.9619V66.0939H59.7535V23.9311Z" fill="#FF6100"/>
<path d="M52.8576 6.79081e-06C51.0394 0.00110418 49.2623 0.534486 47.751 1.53272C46.2397 2.53095 45.0621 3.94922 44.3671 5.60821C43.6721 7.26719 43.4908 9.09242 43.8462 10.8531C44.2016 12.6138 45.0777 14.231 46.3638 15.5001C47.6499 16.7692 49.2882 17.6333 51.0716 17.9831C52.855 18.333 54.7034 18.1529 56.3831 17.4656C58.0628 16.7783 59.4985 15.6146 60.5085 14.1218C61.5186 12.6289 62.0577 10.8739 62.0577 9.07858C62.0584 7.88569 61.8209 6.70437 61.3587 5.60222C60.8966 4.50006 60.2189 3.49871 59.3643 2.65547C58.5098 1.81223 57.4953 1.14365 56.3788 0.68799C55.2623 0.232334 54.0657 -0.00145262 52.8576 6.79081e-06V6.79081e-06Z" fill="#FF6100"/>
</svg>
