<svg width="32" height="24" viewBox="0 0 32 24" fill="none" xmlns="http://www.w3.org/2000/svg">
<rect width="32" height="24" rx="2" fill="#485CC2"/>
<g clip-path="url(#clip0_440_1194)">
<rect width="16" height="12" fill="#485CC2"/>
<path fill-rule="evenodd" clip-rule="evenodd" d="M16.75 1L0.75 13L-0.75 11L15.25 -1L16.75 1Z" fill="#F9F9F9"/>
<path fill-rule="evenodd" clip-rule="evenodd" d="M-0.75 1L15.25 13L16.75 11L0.75 -1L-0.75 1Z" fill="#F9F9F9"/>
<path fill-rule="evenodd" clip-rule="evenodd" d="M15.775 12.8L-0.225 0.8L0.225 0.2L16.225 12.2L15.775 12.8Z" fill="#D74B4B"/>
<path fill-rule="evenodd" clip-rule="evenodd" d="M-0.277853 12.8021L16.7221 0.302119L16.2779 -0.302119L-0.722147 12.1979L-0.277853 12.8021Z" fill="#D74B4B"/>
<path d="M9.5 1.31134e-07L9.5 12H6.5L6.5 0L9.5 1.31134e-07Z" fill="#F9F9F9"/>
<path d="M0 4.5H16V7.5H0V4.5Z" fill="#F9F9F9"/>
<path d="M0 5H16V7H0V5Z" fill="#D74B4B"/>
<path d="M9 8.74229e-08L9 12H7L7 0L9 8.74229e-08Z" fill="#D74B4B"/>
</g>
<path d="M20 8C21.1855 8.69737 22.6559 8.69737 23.8414 8C25.027 8.69737 26.4974 8.69737 27.6829 8V14.3358C27.6829 16.2615 26.5708 18.014 24.8284 18.8339L24.3225 19.072C24.0178 19.2154 23.6651 19.2154 23.3604 19.072L22.8545 18.8339C21.1121 18.014 20 16.2615 20 14.3358V8Z" fill="#F9F9F9"/>
<path d="M27.6632 14.7791C27.5071 16.527 26.4361 18.0774 24.8284 18.8339L24.3225 19.072C24.0178 19.2154 23.6651 19.2154 23.3604 19.072L22.8545 18.8339C21.2468 18.0774 20.1757 16.527 20.0197 14.7791H27.6632Z" fill="#64BEDB"/>
<path fill-rule="evenodd" clip-rule="evenodd" d="M22.9499 11.4772C22.8117 11.0777 22.6958 10.1795 23.3378 9.78296C23.9799 9.38641 24.9713 9.46881 25.5089 9.85603L26.4005 10.7397L25.7896 10.9034L25.6676 10.4482C25.6406 10.3475 25.5816 10.2563 25.4948 10.1984C25.274 10.0511 24.9082 9.89516 24.1998 10.2068C23.3295 10.5897 23.4112 11.1041 23.5609 11.3135L23.299 11.3836L23.2289 11.1218L23.0372 11.4538L22.9499 11.4772ZM23.2226 10.7493C23.2097 10.7011 23.1601 10.6725 23.1119 10.6854C23.0637 10.6983 23.0351 10.7479 23.048 10.7961C23.061 10.8443 23.1105 10.8729 23.1587 10.8599C23.2069 10.847 23.2355 10.7975 23.2226 10.7493Z" fill="#E77D42"/>
<path fill-rule="evenodd" clip-rule="evenodd" d="M24.5234 10.5696C24.945 10.5395 25.8426 10.66 26.0594 11.3828C26.2763 12.1057 25.9881 13.0843 25.4269 13.4611L24.3427 14.0935V13.4611H24.8802C24.9432 13.4611 25.0074 13.4548 25.0621 13.4235C25.275 13.3016 25.5532 12.9266 25.4269 12.1057C25.2824 11.166 24.7643 11.1118 24.5234 11.2021V10.9311H24.7944L24.5234 10.66V10.5696ZM25.1559 11.0214C25.2058 11.0214 25.2462 10.981 25.2462 10.9311C25.2462 10.8812 25.2058 10.8407 25.1559 10.8407C25.106 10.8407 25.0655 10.8812 25.0655 10.9311C25.0655 10.981 25.106 11.0214 25.1559 11.0214Z" fill="#E77D42"/>
<path fill-rule="evenodd" clip-rule="evenodd" d="M23.8005 13.0996C24.5234 12.8828 24.6439 11.9852 24.6137 11.5636H24.5234L24.2523 11.8346V11.5636H23.9812C24.0716 11.8045 24.0174 12.3226 23.0777 12.4671C22.2909 12.5882 21.9137 12.3376 21.7764 12.1292C21.7303 12.059 21.7223 11.9727 21.7223 11.8888V11.3829H21.0898L21.7223 12.4671C21.9207 12.8583 23.0777 13.3165 23.8005 13.0996ZM24.2523 12.2864C24.2024 12.2864 24.1619 12.246 24.1619 12.1961C24.1619 12.1462 24.2024 12.1057 24.2523 12.1057C24.3022 12.1057 24.3427 12.1462 24.3427 12.1961C24.3427 12.246 24.3022 12.2864 24.2523 12.2864Z" fill="#E77D42"/>
<defs>
<clipPath id="clip0_440_1194">
<rect width="16" height="12" fill="white"/>
</clipPath>
</defs>
</svg>
