<svg width="24" height="24" viewBox="0 0 24 24" fill="none" xmlns="http://www.w3.org/2000/svg">
<rect width="24" height="24" rx="12" fill="#485CC2"/>
<g clip-path="url(#clip0_440_1190)">
<rect width="13" height="11" fill="#485CC2"/>
<path fill-rule="evenodd" clip-rule="evenodd" d="M13.6094 0.916707L0.609375 11.9167L-0.609375 10.0834L12.3906 -0.916626L13.6094 0.916707Z" fill="#F9F9F9"/>
<path fill-rule="evenodd" clip-rule="evenodd" d="M-0.609375 0.916707L12.3906 11.9167L13.6094 10.0834L0.609375 -0.916626L-0.609375 0.916707Z" fill="#F9F9F9"/>
<path fill-rule="evenodd" clip-rule="evenodd" d="M12.8172 11.7334L-0.182813 0.733374L0.182813 0.183374L13.1828 11.1834L12.8172 11.7334Z" fill="#D74B4B"/>
<path fill-rule="evenodd" clip-rule="evenodd" d="M-0.225756 11.7353L13.5867 0.276983L13.2258 -0.276902L-0.586744 11.1814L-0.225756 11.7353Z" fill="#D74B4B"/>
<path d="M7.71875 1.20206e-07L7.71875 11H5.28125L5.28125 0L7.71875 1.20206e-07Z" fill="#F9F9F9"/>
<path d="M0 4.125H13V6.875H0V4.125Z" fill="#F9F9F9"/>
<path d="M0 4.58333H13V6.41667H0V4.58333Z" fill="#D74B4B"/>
<path d="M7.3125 8.01377e-08L7.3125 11H5.6875L5.6875 0L7.3125 8.01377e-08Z" fill="#D74B4B"/>
</g>
<path d="M15 9C16.0795 9.63499 17.4183 9.63499 18.4978 9C19.5773 9.63499 20.9162 9.63499 21.9957 9V14.7691C21.9957 16.5225 20.983 18.1182 19.3965 18.8649L18.9359 19.0816C18.6584 19.2122 18.3372 19.2122 18.0598 19.0816L17.5992 18.8649C16.0127 18.1182 15 16.5225 15 14.7691V9Z" fill="#F9F9F9"/>
<path d="M21.9777 15.1727C21.8356 16.7642 20.8604 18.176 19.3965 18.8649L18.9359 19.0816C18.6584 19.2122 18.3372 19.2122 18.0598 19.0816L17.5992 18.8649C16.1353 18.176 15.16 16.7642 15.0179 15.1727H21.9777Z" fill="#64BEDB"/>
<path fill-rule="evenodd" clip-rule="evenodd" d="M17.686 12.1661C17.5602 11.8024 17.4546 10.9846 18.0393 10.6235C18.6239 10.2624 19.5266 10.3374 20.0162 10.69L20.828 11.4946L20.2717 11.6437L20.1606 11.2292C20.1361 11.1375 20.0823 11.0545 20.0033 11.0018C19.8022 10.8676 19.4691 10.7256 18.8241 11.0094C18.0317 11.358 18.1061 11.8264 18.2423 12.0171L18.0039 12.0809L17.94 11.8425L17.7655 12.1448L17.686 12.1661ZM17.9343 11.5034C17.9226 11.4595 17.8775 11.4334 17.8336 11.4452C17.7897 11.4569 17.7636 11.5021 17.7754 11.5459C17.7871 11.5898 17.8323 11.6159 17.8762 11.6041C17.92 11.5924 17.9461 11.5472 17.9343 11.5034Z" fill="#E77D42"/>
<path fill-rule="evenodd" clip-rule="evenodd" d="M19.1187 11.3398C19.5027 11.3124 20.32 11.4221 20.5174 12.0803C20.7149 12.7384 20.4525 13.6295 19.9415 13.9726L18.9542 14.5485V13.9726H19.4437C19.501 13.9726 19.5595 13.9668 19.6093 13.9383C19.8031 13.8274 20.0565 13.4859 19.9415 12.7384C19.8099 11.8828 19.3381 11.8334 19.1187 11.9157V11.6689H19.3656L19.1187 11.4221V11.3398ZM19.6947 11.7512C19.7401 11.7512 19.7769 11.7143 19.7769 11.6689C19.7769 11.6234 19.7401 11.5866 19.6947 11.5866C19.6492 11.5866 19.6124 11.6234 19.6124 11.6689C19.6124 11.7143 19.6492 11.7512 19.6947 11.7512Z" fill="#E77D42"/>
<path fill-rule="evenodd" clip-rule="evenodd" d="M18.4606 13.6435C19.1188 13.446 19.2285 12.6288 19.201 12.2448H19.1188L18.8719 12.4916V12.2448H18.6251C18.7074 12.4642 18.658 12.9359 17.8024 13.0675C17.086 13.1778 16.7426 12.9496 16.6175 12.7598C16.5755 12.6959 16.5683 12.6174 16.5683 12.5409L16.5683 12.0803H15.9923L16.5683 13.0675C16.7489 13.4238 17.8024 13.8409 18.4606 13.6435ZM18.8719 12.903C18.8265 12.903 18.7897 12.8662 18.7897 12.8207C18.7897 12.7753 18.8265 12.7384 18.8719 12.7384C18.9174 12.7384 18.9542 12.7753 18.9542 12.8207C18.9542 12.8662 18.9174 12.903 18.8719 12.903Z" fill="#E77D42"/>
<defs>
<clipPath id="clip0_440_1190">
<rect width="13" height="11" fill="white"/>
</clipPath>
</defs>
</svg>
