<svg width="24" height="24" viewBox="0 0 24 24" fill="none" xmlns="http://www.w3.org/2000/svg">
<rect width="24" height="24" rx="2" fill="#485CC2"/>
<g clip-path="url(#clip0_440_1192)">
<rect width="13" height="11" fill="#485CC2"/>
<path fill-rule="evenodd" clip-rule="evenodd" d="M13.6094 0.916707L0.609375 11.9167L-0.609375 10.0834L12.3906 -0.916626L13.6094 0.916707Z" fill="#F9F9F9"/>
<path fill-rule="evenodd" clip-rule="evenodd" d="M-0.609375 0.916707L12.3906 11.9167L13.6094 10.0834L0.609375 -0.916626L-0.609375 0.916707Z" fill="#F9F9F9"/>
<path fill-rule="evenodd" clip-rule="evenodd" d="M12.8172 11.7334L-0.182813 0.733374L0.182813 0.183374L13.1828 11.1834L12.8172 11.7334Z" fill="#D74B4B"/>
<path fill-rule="evenodd" clip-rule="evenodd" d="M-0.225756 11.7353L13.5867 0.276983L13.2258 -0.276902L-0.586744 11.1814L-0.225756 11.7353Z" fill="#D74B4B"/>
<path d="M7.71875 1.20206e-07L7.71875 11H5.28125L5.28125 0L7.71875 1.20206e-07Z" fill="#F9F9F9"/>
<path d="M0 4.125H13V6.875H0V4.125Z" fill="#F9F9F9"/>
<path d="M0 4.58333H13V6.41667H0V4.58333Z" fill="#D74B4B"/>
<path d="M7.3125 8.01377e-08L7.3125 11H5.6875L5.6875 0L7.3125 8.01377e-08Z" fill="#D74B4B"/>
</g>
<path d="M14.6873 9C15.7667 9.63499 17.1056 9.63499 18.1851 9C19.2646 9.63499 20.6034 9.63499 21.6829 9V14.7691C21.6829 16.5225 20.6703 18.1182 19.0837 18.8649L18.6231 19.0816C18.3457 19.2122 18.0245 19.2122 17.747 19.0816L17.2864 18.8649C15.6999 18.1182 14.6873 16.5225 14.6873 14.7691V9Z" fill="#F9F9F9"/>
<path d="M21.6649 15.1727C21.5229 16.7642 20.5476 18.176 19.0837 18.8649L18.6231 19.0816C18.3457 19.2122 18.0245 19.2122 17.747 19.0816L17.2864 18.8649C15.8226 18.176 14.8472 16.7642 14.7052 15.1727H21.6649Z" fill="#64BEDB"/>
<path fill-rule="evenodd" clip-rule="evenodd" d="M17.3733 12.1661C17.2474 11.8024 17.1419 10.9846 17.7265 10.6235C18.3112 10.2624 19.2139 10.3374 19.7034 10.69L20.5152 11.4946L19.9589 11.6437L19.8479 11.2292C19.8233 11.1375 19.7696 11.0545 19.6906 11.0018C19.4895 10.8676 19.1564 10.7256 18.5114 11.0094C17.7189 11.358 17.7933 11.8264 17.9296 12.0171L17.6912 12.0809L17.6273 11.8425L17.4528 12.1448L17.3733 12.1661ZM17.6216 11.5034C17.6098 11.4595 17.5647 11.4334 17.5208 11.4452C17.4769 11.4569 17.4509 11.5021 17.4626 11.5459C17.4744 11.5898 17.5195 11.6159 17.5634 11.6041C17.6073 11.5924 17.6333 11.5472 17.6216 11.5034Z" fill="#E77D42"/>
<path fill-rule="evenodd" clip-rule="evenodd" d="M18.806 11.3398C19.19 11.3124 20.0072 11.4221 20.2047 12.0803C20.4021 12.7384 20.1397 13.6295 19.6287 13.9726L18.6415 14.5485V13.9726H19.1309C19.1883 13.9726 19.2467 13.9668 19.2965 13.9383C19.4904 13.8274 19.7437 13.4859 19.6287 12.7384C19.4971 11.8828 19.0254 11.8334 18.806 11.9157V11.6689H19.0528L18.806 11.4221V11.3398ZM19.3819 11.7512C19.4274 11.7512 19.4642 11.7143 19.4642 11.6689C19.4642 11.6234 19.4274 11.5866 19.3819 11.5866C19.3365 11.5866 19.2996 11.6234 19.2996 11.6689C19.2996 11.7143 19.3365 11.7512 19.3819 11.7512Z" fill="#E77D42"/>
<path fill-rule="evenodd" clip-rule="evenodd" d="M18.1478 13.6435C18.806 13.446 18.9157 12.6288 18.8883 12.2448H18.806L18.5592 12.4916V12.2448H18.3124C18.3946 12.4642 18.3453 12.9359 17.4896 13.0675C16.7733 13.1778 16.4298 12.9496 16.3048 12.7598C16.2627 12.6959 16.2555 12.6174 16.2555 12.5409L16.2555 12.0803H15.6796L16.2555 13.0675C16.4362 13.4238 17.4896 13.8409 18.1478 13.6435ZM18.5592 12.903C18.5137 12.903 18.4769 12.8662 18.4769 12.8207C18.4769 12.7753 18.5137 12.7384 18.5592 12.7384C18.6046 12.7384 18.6415 12.7753 18.6415 12.8207C18.6415 12.8662 18.6046 12.903 18.5592 12.903Z" fill="#E77D42"/>
<defs>
<clipPath id="clip0_440_1192">
<rect width="13" height="11" fill="white"/>
</clipPath>
</defs>
</svg>
