<svg width="32" height="24" viewBox="0 0 32 24" fill="none" xmlns="http://www.w3.org/2000/svg">
<g clip-path="url(#clip0_440_1241)">
<rect width="32" height="24" rx="2" fill="#D74B4B"/>
<path d="M32 0H0L17 24L32 0Z" fill="#333333"/>
<path d="M16.9845 3L17.7732 5.53469L19.4719 3.49478L19.2307 6.13837L21.5807 4.90381L20.3461 7.25383L22.9897 7.01256L20.9498 8.71125L23.4845 9.5L20.9498 10.2887L22.9897 11.9874L20.3461 11.7462L21.5807 14.0962L19.2307 12.8616L19.4719 15.5052L17.7732 13.4653L16.9845 16L16.1957 13.4653L14.4971 15.5052L14.7383 12.8616L12.3883 14.0962L13.6229 11.7462L10.9793 11.9874L13.0192 10.2887L10.4845 9.5L13.0192 8.71125L10.9793 7.01256L13.6229 7.25383L12.3883 4.90381L14.7383 6.13837L14.4971 3.49478L16.1957 5.53469L16.9845 3Z" fill="#F8D74C"/>
<path d="M25.75 10H7.08333L17 24L25.75 10Z" fill="#64BEDB"/>
<path d="M22 16H11.3333L17 24L22 16Z" fill="#F9F9F9"/>
</g>
<defs>
<clipPath id="clip0_440_1241">
<rect width="32" height="24" rx="2" fill="white"/>
</clipPath>
</defs>
</svg>
