<svg width="24" height="24" viewBox="0 0 24 24" fill="none" xmlns="http://www.w3.org/2000/svg">
<g clip-path="url(#clip0_440_1188)">
<rect width="24" height="24" rx="2" fill="#D74B4B"/>
<path d="M27 0H-5L12 24L27 0Z" fill="#333333"/>
<path d="M12 3L12.7887 5.53469L14.4874 3.49478L14.2462 6.13837L16.5962 4.90381L15.3616 7.25383L18.0052 7.01256L15.9653 8.71125L18.5 9.5L15.9653 10.2887L18.0052 11.9874L15.3616 11.7462L16.5962 14.0962L14.2462 12.8616L14.4874 15.5052L12.7887 13.4653L12 16L11.2113 13.4653L9.51256 15.5052L9.75383 12.8616L7.40381 14.0962L8.63837 11.7462L5.99478 11.9874L8.03469 10.2887L5.5 9.5L8.03469 8.71125L5.99478 7.01256L8.63837 7.25383L7.40381 4.90381L9.75383 6.13837L9.51256 3.49478L11.2113 5.53469L12 3Z" fill="#F8D74C"/>
<path d="M20.75 10H2.08331L12 24L20.75 10Z" fill="#64BEDB"/>
<path d="M17 16H6.33331L12 24L17 16Z" fill="#F9F9F9"/>
</g>
<defs>
<clipPath id="clip0_440_1188">
<rect width="24" height="24" rx="2" fill="white"/>
</clipPath>
</defs>
</svg>
