<svg width="24" height="24" viewBox="0 0 24 24" fill="none" xmlns="http://www.w3.org/2000/svg">
<g clip-path="url(#clip0_440_1237)">
<rect width="24" height="24" rx="2" fill="#F9F9F9"/>
<path d="M0 16H24V24H0V16Z" fill="#64BEDB"/>
<path d="M0 0H24V8H0V0Z" fill="#64BEDB"/>
<path d="M11.9702 8.52644C11.9745 8.49119 12.0255 8.49119 12.0298 8.52644L12.2259 10.1552C12.2296 10.1859 12.2716 10.1917 12.2834 10.1632L12.9107 8.64781C12.9243 8.61501 12.9734 8.6288 12.968 8.6639L12.7185 10.2854C12.7138 10.3159 12.7526 10.3328 12.7717 10.3085L13.7836 9.01899C13.8055 8.99108 13.8491 9.01765 13.8345 9.04998L13.1577 10.5438C13.145 10.572 13.1778 10.5987 13.2027 10.5805L14.5243 9.61246C14.5529 9.59151 14.5877 9.62889 14.5649 9.65606L13.5111 10.9115C13.4913 10.9352 13.5157 10.9698 13.5446 10.959L15.0777 10.3842C15.1109 10.3718 15.1343 10.4172 15.1051 10.4372L13.7525 11.3611C13.727 11.3785 13.7412 11.4185 13.7719 11.4159L15.4028 11.277C15.4381 11.274 15.4485 11.3241 15.415 11.3354L13.8638 11.8593C13.8346 11.8692 13.8375 11.9115 13.8678 11.9173L15.4756 12.2246C15.5104 12.2313 15.507 12.2823 15.4716 12.2841L13.8369 12.3691C13.8061 12.3707 13.7975 12.4123 13.8251 12.426L15.2907 13.1568C15.3224 13.1726 15.3053 13.2208 15.2707 13.213L13.6738 12.8528C13.6437 12.846 13.6243 12.8837 13.6471 12.9044L14.8616 14.0043C14.8879 14.0282 14.8585 14.0699 14.8273 14.0531L13.3866 13.2744C13.3594 13.2598 13.3305 13.2908 13.347 13.3169L14.2204 14.7045C14.2393 14.7345 14.1997 14.7668 14.1742 14.7421L12.9965 13.6027C12.9743 13.5813 12.9381 13.6033 12.9469 13.6329L13.4144 15.2052C13.4245 15.2392 13.3777 15.2596 13.3598 15.229L12.5325 13.8134C12.5169 13.7867 12.4761 13.7981 12.4766 13.829L12.5036 15.4694C12.5042 15.5049 12.4536 15.5119 12.4446 15.4776L12.029 13.8907C12.0212 13.8608 11.9788 13.8608 11.971 13.8907L11.5554 15.4776C11.5464 15.5119 11.4958 15.5049 11.4964 15.4694L11.5234 13.829C11.5239 13.7981 11.4831 13.7867 11.4675 13.8134L10.6402 15.229C10.6223 15.2596 10.5755 15.2392 10.5856 15.2052L11.0531 13.6329C11.0619 13.6033 11.0257 13.5813 11.0035 13.6027L9.82581 14.7421C9.80032 14.7668 9.76074 14.7345 9.77964 14.7045L10.653 13.3169C10.6695 13.2908 10.6406 13.2598 10.6134 13.2744L9.1727 14.0531C9.14151 14.0699 9.11209 14.0282 9.13838 14.0043L10.3529 12.9044C10.3757 12.8837 10.3563 12.846 10.3262 12.8528L8.72927 13.213C8.69471 13.2208 8.67762 13.1726 8.70934 13.1568L10.1749 12.426C10.2025 12.4123 10.1939 12.3707 10.1631 12.3691L8.52843 12.2841C8.49304 12.2823 8.48956 12.2313 8.52436 12.2246L10.1322 11.9173C10.1625 11.9115 10.1654 11.8692 10.1362 11.8593L8.58505 11.3354C8.55147 11.3241 8.56185 11.274 8.59716 11.277L10.2281 11.4159C10.2588 11.4185 10.273 11.3785 10.2475 11.3611L8.89494 10.4372C8.86566 10.4172 8.88914 10.3718 8.92232 10.3842L10.4554 10.959C10.4843 10.9698 10.5087 10.9352 10.4889 10.9115L9.43512 9.65606C9.41231 9.62889 9.44714 9.59151 9.47574 9.61246L10.7973 10.5805C10.8222 10.5987 10.855 10.572 10.8423 10.5438L10.1655 9.04998C10.1509 9.01765 10.1945 8.99108 10.2164 9.01899L11.2283 10.3085C11.2474 10.3328 11.2862 10.3159 11.2815 10.2854L11.032 8.6639C11.0266 8.6288 11.0757 8.61501 11.0893 8.64781L11.7166 10.1632C11.7284 10.1917 11.7704 10.1859 11.7741 10.1552L11.9702 8.52644Z" fill="#F8D74C"/>
<path fill-rule="evenodd" clip-rule="evenodd" d="M12.1962 10.1588L12 8.53004L11.8038 10.1588C11.7964 10.2202 11.7126 10.2318 11.6889 10.1747L11.0616 8.65932L11.3111 10.2808C11.3205 10.3418 11.2429 10.3757 11.2048 10.3271L10.1928 9.03756L10.8696 10.5314C10.895 10.5877 10.8294 10.6412 10.7796 10.6048L9.45806 9.63672L10.5118 10.8922C10.5515 10.9395 10.5027 11.0088 10.4449 10.9871L8.91182 10.4124L10.2644 11.3363C10.3154 11.3711 10.287 11.451 10.2256 11.4458L8.59462 11.3069L10.1458 11.8308C10.2042 11.8506 10.1984 11.9352 10.1378 11.9468L8.52998 12.2541L10.1646 12.3391C10.2262 12.3423 10.2434 12.4254 10.1882 12.4529L8.72269 13.1837L10.3196 12.8235C10.3798 12.8099 10.4187 12.8853 10.373 12.9267L9.15847 14.0266L10.5992 13.248C10.6535 13.2186 10.7113 13.2807 10.6784 13.3329L9.80499 14.7205L10.9827 13.5811C11.0271 13.5382 11.0994 13.5823 11.0818 13.6415L10.6143 15.2138L11.4417 13.7982C11.4728 13.7448 11.5543 13.7677 11.5533 13.8295L11.5264 15.4699L11.942 13.8831C11.9577 13.8233 12.0423 13.8233 12.058 13.8831L12.4736 15.4699L12.4467 13.8295C12.4457 13.7677 12.5272 13.7448 12.5583 13.7982L13.3857 15.2138L12.9182 13.6415C12.9006 13.5823 12.9729 13.5382 13.0173 13.5811L14.195 14.7205L13.3216 13.3329C13.2887 13.2807 13.3465 13.2186 13.4008 13.248L14.8415 14.0266L13.627 12.9267C13.5813 12.8853 13.6202 12.8099 13.6804 12.8235L15.2773 13.1837L13.8118 12.4529C13.7566 12.4254 13.7738 12.3423 13.8354 12.3391L15.47 12.2541L13.8622 11.9468C13.8016 11.9352 13.7958 11.8506 13.8542 11.8308L15.4054 11.3069L13.7744 11.4458C13.713 11.451 13.6846 11.3711 13.7356 11.3363L15.0882 10.4124L13.5551 10.9871C13.4973 11.0088 13.4485 10.9395 13.4882 10.8922L14.5419 9.63672L13.2204 10.6048C13.1706 10.6412 13.105 10.5877 13.1304 10.5314L13.8072 9.03756L12.7952 10.3271C12.7571 10.3756 12.6795 10.3418 12.6889 10.2808L12.9384 8.65932L12.3111 10.1747C12.2874 10.2318 12.2036 10.2202 12.1962 10.1588ZM12.0298 8.52644C12.0255 8.49119 11.9745 8.49119 11.9702 8.52644L11.7741 10.1552C11.7704 10.1859 11.7284 10.1917 11.7166 10.1632L11.0893 8.64781C11.0757 8.61501 11.0266 8.6288 11.032 8.6639L11.2815 10.2854C11.2862 10.3159 11.2474 10.3328 11.2283 10.3085L10.2164 9.01899C10.1945 8.99108 10.1509 9.01765 10.1655 9.04998L10.8423 10.5438C10.855 10.572 10.8222 10.5987 10.7973 10.5805L9.47574 9.61246C9.44714 9.59151 9.41231 9.62889 9.43512 9.65606L10.4889 10.9115C10.5087 10.9352 10.4843 10.9698 10.4554 10.959L8.92232 10.3842C8.88914 10.3718 8.86566 10.4172 8.89494 10.4372L10.2475 11.3611C10.273 11.3785 10.2588 11.4185 10.2281 11.4159L8.59716 11.277C8.56185 11.274 8.55147 11.3241 8.58505 11.3354L10.1362 11.8593C10.1654 11.8692 10.1625 11.9115 10.1322 11.9173L8.52436 12.2246C8.48956 12.2313 8.49304 12.2823 8.52843 12.2841L10.1631 12.3691C10.1939 12.3707 10.2025 12.4123 10.1749 12.426L8.70934 13.1568C8.67762 13.1726 8.69471 13.2208 8.72927 13.213L10.3262 12.8528C10.3563 12.846 10.3757 12.8837 10.3529 12.9044L9.13838 14.0043C9.11209 14.0282 9.14151 14.0699 9.1727 14.0531L10.6134 13.2744C10.6406 13.2598 10.6695 13.2908 10.653 13.3169L9.77964 14.7045C9.76074 14.7345 9.80032 14.7668 9.82581 14.7421L11.0035 13.6027C11.0257 13.5813 11.0619 13.6033 11.0531 13.6329L10.5856 15.2052C10.5755 15.2392 10.6223 15.2596 10.6402 15.229L11.4675 13.8134C11.4831 13.7867 11.5239 13.7981 11.5234 13.829L11.4964 15.4694C11.4958 15.5049 11.5464 15.5119 11.5554 15.4776L11.971 13.8907C11.9788 13.8608 12.0212 13.8608 12.029 13.8907L12.4446 15.4776C12.4536 15.5119 12.5042 15.5049 12.5036 15.4694L12.4766 13.829C12.4761 13.7981 12.5169 13.7867 12.5325 13.8134L13.3598 15.229C13.3777 15.2596 13.4245 15.2392 13.4144 15.2052L12.9469 13.6329C12.9381 13.6033 12.9743 13.5813 12.9965 13.6027L14.1742 14.7421C14.1997 14.7668 14.2393 14.7345 14.2204 14.7045L13.347 13.3169C13.3305 13.2908 13.3594 13.2598 13.3866 13.2744L14.8273 14.0531C14.8585 14.0699 14.8879 14.0282 14.8616 14.0043L13.6471 12.9044C13.6243 12.8837 13.6437 12.846 13.6738 12.8528L15.2707 13.213C15.3053 13.2208 15.3224 13.1726 15.2907 13.1568L13.8251 12.426C13.7975 12.4123 13.8061 12.3707 13.8369 12.3691L15.4716 12.2841C15.507 12.2823 15.5104 12.2313 15.4756 12.2246L13.8678 11.9173C13.8375 11.9115 13.8346 11.8692 13.8638 11.8593L15.415 11.3354C15.4485 11.3241 15.4381 11.274 15.4028 11.277L13.7719 11.4159C13.7412 11.4185 13.727 11.3785 13.7525 11.3611L15.1051 10.4372C15.1343 10.4172 15.1109 10.3718 15.0777 10.3842L13.5446 10.959C13.5157 10.9698 13.4913 10.9352 13.5111 10.9115L14.5649 9.65606C14.5877 9.62889 14.5529 9.59151 14.5243 9.61246L13.2027 10.5805C13.1778 10.5987 13.145 10.572 13.1577 10.5438L13.8345 9.04998C13.8491 9.01765 13.8055 8.99108 13.7836 9.01899L12.7717 10.3085C12.7526 10.3328 12.7138 10.3159 12.7185 10.2854L12.968 8.6639C12.9734 8.6288 12.9243 8.61501 12.9107 8.64781L12.2834 10.1632C12.2716 10.1917 12.2296 10.1859 12.2259 10.1552L12.0298 8.52644Z" fill="#962122"/>
<path d="M11.3306 11.4398C11.4791 11.3411 11.6728 11.3437 11.8186 11.4463C11.8711 11.4832 11.9024 11.5436 11.9024 11.6079V11.9295C11.9024 11.9717 11.887 12.0124 11.8591 12.044L11.7329 12.1872L11.7928 12.2403L11.919 12.0971C11.9598 12.0508 11.9823 11.9912 11.9823 11.9295V11.6079C11.9823 11.5174 11.9384 11.4327 11.8645 11.3807C11.6918 11.2591 11.4623 11.2561 11.2864 11.373L11.1691 11.4511L11.2133 11.5178L11.3306 11.4398Z" fill="#962122"/>
<path d="M12.7135 11.373C12.5376 11.2561 12.3082 11.2591 12.1355 11.3807C12.0616 11.4327 12.0176 11.5174 12.0176 11.6079V11.9295C12.0176 11.9912 12.0402 12.0508 12.0809 12.0971L12.2072 12.2403L12.2671 12.1872L12.1408 12.044C12.113 12.0124 12.0976 11.9717 12.0976 11.9295V11.6079C12.0976 11.5436 12.1288 11.4832 12.1814 11.4463C12.3272 11.3437 12.5209 11.3411 12.6693 11.4398L12.7867 11.5178L12.8309 11.4511L12.7135 11.373Z" fill="#962122"/>
<path fill-rule="evenodd" clip-rule="evenodd" d="M11.5471 11.907C11.3685 11.907 11.2236 11.7361 11.2236 11.7361C11.2236 11.7361 11.3685 11.5652 11.5471 11.5652C11.7257 11.5652 11.8705 11.7361 11.8705 11.7361C11.8705 11.7361 11.7257 11.907 11.5471 11.907ZM11.3772 11.7316L11.3711 11.7361L11.3772 11.7406C11.4284 11.778 11.4884 11.8069 11.5471 11.8069C11.6058 11.8069 11.6658 11.778 11.717 11.7406L11.723 11.7361L11.717 11.7316C11.6658 11.6942 11.6058 11.6653 11.5471 11.6653C11.4884 11.6653 11.4284 11.6942 11.3772 11.7316Z" fill="#962122"/>
<path fill-rule="evenodd" clip-rule="evenodd" d="M12.4564 11.907C12.2778 11.907 12.133 11.7361 12.133 11.7361C12.133 11.7361 12.2778 11.5652 12.4564 11.5652C12.6351 11.5652 12.7799 11.7361 12.7799 11.7361C12.7799 11.7361 12.6351 11.907 12.4564 11.907ZM12.2865 11.7316L12.2805 11.7361L12.2865 11.7406C12.3377 11.778 12.3977 11.8069 12.4564 11.8069C12.5151 11.8069 12.5751 11.778 12.6263 11.7406L12.6324 11.7361L12.6263 11.7316C12.5751 11.6942 12.5151 11.6653 12.4564 11.6653C12.3977 11.6653 12.3377 11.6942 12.2865 11.7316Z" fill="#962122"/>
<path fill-rule="evenodd" clip-rule="evenodd" d="M11.8255 12.3518C11.8443 12.3388 11.8666 12.3318 11.8895 12.3318H11.9491C11.9783 12.3318 12.0019 12.3555 12.0019 12.3848V12.3975C12.0019 12.4044 12.0075 12.41 12.0144 12.41C12.0213 12.41 12.0269 12.4044 12.0269 12.3975V12.3848C12.0269 12.3555 12.0506 12.3318 12.0797 12.3318H12.1393C12.1622 12.3318 12.1845 12.3388 12.2033 12.3518L12.3806 12.4749C12.4149 12.4987 12.4133 12.55 12.3776 12.5716L12.1561 12.7054C12.1133 12.7312 12.0643 12.7449 12.0144 12.7449C11.9645 12.7449 11.9155 12.7312 11.8727 12.7054L11.6512 12.5716C11.6155 12.55 11.6139 12.4987 11.6482 12.4749L11.8255 12.3518ZM11.8895 12.4319C11.887 12.4319 11.8845 12.4327 11.8824 12.4342L11.759 12.5198L11.9243 12.6196C11.9515 12.636 11.9826 12.6447 12.0144 12.6447C12.0462 12.6447 12.0773 12.636 12.1045 12.6196L12.2698 12.5198L12.1464 12.4342C12.1443 12.4327 12.1418 12.4319 12.1393 12.4319H12.1215C12.1069 12.4773 12.0645 12.5102 12.0144 12.5102C11.9643 12.5102 11.9219 12.4773 11.9073 12.4319H11.8895Z" fill="#962122"/>
</g>
<defs>
<clipPath id="clip0_440_1237">
<rect width="24" height="24" rx="2" fill="white"/>
</clipPath>
</defs>
</svg>
