<svg width="32" height="24" viewBox="0 0 32 24" fill="none" xmlns="http://www.w3.org/2000/svg">
<g clip-path="url(#clip0_440_1239)">
<rect width="32" height="24" rx="2" fill="#F9F9F9"/>
<path d="M0 16H32V24H0V16Z" fill="#64BEDB"/>
<path d="M0 0H32V8H0V0Z" fill="#64BEDB"/>
<path d="M15.9702 8.52644C15.9745 8.49119 16.0255 8.49119 16.0298 8.52644L16.2259 10.1552C16.2296 10.1859 16.2716 10.1917 16.2834 10.1632L16.9107 8.64781C16.9243 8.61501 16.9734 8.6288 16.968 8.6639L16.7185 10.2854C16.7138 10.3159 16.7526 10.3328 16.7717 10.3085L17.7836 9.01899C17.8055 8.99108 17.8491 9.01765 17.8345 9.04998L17.1577 10.5438C17.145 10.572 17.1778 10.5987 17.2027 10.5805L18.5243 9.61246C18.5529 9.59151 18.5877 9.62889 18.5649 9.65606L17.5111 10.9115C17.4913 10.9352 17.5157 10.9698 17.5446 10.959L19.0777 10.3842C19.1109 10.3718 19.1343 10.4172 19.1051 10.4372L17.7525 11.3611C17.727 11.3785 17.7412 11.4185 17.7719 11.4159L19.4028 11.277C19.4381 11.274 19.4485 11.3241 19.415 11.3354L17.8638 11.8593C17.8346 11.8692 17.8375 11.9115 17.8678 11.9173L19.4756 12.2246C19.5104 12.2313 19.507 12.2823 19.4716 12.2841L17.8369 12.3691C17.8061 12.3707 17.7975 12.4123 17.8251 12.426L19.2907 13.1568C19.3224 13.1726 19.3053 13.2208 19.2707 13.213L17.6738 12.8528C17.6437 12.846 17.6243 12.8837 17.6471 12.9044L18.8616 14.0043C18.8879 14.0282 18.8585 14.0699 18.8273 14.0531L17.3866 13.2744C17.3594 13.2598 17.3305 13.2908 17.347 13.3169L18.2204 14.7045C18.2393 14.7345 18.1997 14.7668 18.1742 14.7421L16.9965 13.6027C16.9743 13.5813 16.9381 13.6033 16.9469 13.6329L17.4144 15.2052C17.4245 15.2392 17.3777 15.2596 17.3598 15.229L16.5325 13.8134C16.5169 13.7867 16.4761 13.7981 16.4766 13.829L16.5036 15.4694C16.5042 15.5049 16.4536 15.5119 16.4446 15.4776L16.029 13.8907C16.0212 13.8608 15.9788 13.8608 15.971 13.8907L15.5554 15.4776C15.5464 15.5119 15.4958 15.5049 15.4964 15.4694L15.5234 13.829C15.5239 13.7981 15.4831 13.7867 15.4675 13.8134L14.6402 15.229C14.6223 15.2596 14.5755 15.2392 14.5856 15.2052L15.0531 13.6329C15.0619 13.6033 15.0257 13.5813 15.0035 13.6027L13.8258 14.7421C13.8003 14.7668 13.7607 14.7345 13.7796 14.7045L14.653 13.3169C14.6695 13.2908 14.6406 13.2598 14.6134 13.2744L13.1727 14.0531C13.1415 14.0699 13.1121 14.0282 13.1384 14.0043L14.3529 12.9044C14.3757 12.8837 14.3563 12.846 14.3262 12.8528L12.7293 13.213C12.6947 13.2208 12.6776 13.1726 12.7093 13.1568L14.1749 12.426C14.2025 12.4123 14.1939 12.3707 14.1631 12.3691L12.5284 12.2841C12.493 12.2823 12.4896 12.2313 12.5244 12.2246L14.1322 11.9173C14.1625 11.9115 14.1654 11.8692 14.1362 11.8593L12.585 11.3354C12.5515 11.3241 12.5619 11.274 12.5972 11.277L14.2281 11.4159C14.2588 11.4185 14.273 11.3785 14.2475 11.3611L12.8949 10.4372C12.8657 10.4172 12.8891 10.3718 12.9223 10.3842L14.4554 10.959C14.4843 10.9698 14.5087 10.9352 14.4889 10.9115L13.4351 9.65606C13.4123 9.62889 13.4471 9.59151 13.4757 9.61246L14.7973 10.5805C14.8222 10.5987 14.855 10.572 14.8423 10.5438L14.1655 9.04998C14.1509 9.01765 14.1945 8.99108 14.2164 9.01899L15.2283 10.3085C15.2474 10.3328 15.2862 10.3159 15.2815 10.2854L15.032 8.6639C15.0266 8.6288 15.0757 8.61501 15.0893 8.64781L15.7166 10.1632C15.7284 10.1917 15.7704 10.1859 15.7741 10.1552L15.9702 8.52644Z" fill="#F8D74C"/>
<path fill-rule="evenodd" clip-rule="evenodd" d="M16.1962 10.1588L16 8.53004L15.8038 10.1588C15.7964 10.2202 15.7126 10.2318 15.6889 10.1747L15.0616 8.65932L15.3111 10.2808C15.3205 10.3418 15.2429 10.3757 15.2048 10.3271L14.1928 9.03756L14.8696 10.5314C14.895 10.5877 14.8294 10.6412 14.7796 10.6048L13.4581 9.63672L14.5118 10.8922C14.5515 10.9395 14.5027 11.0088 14.4449 10.9871L12.9118 10.4124L14.2644 11.3363C14.3154 11.3711 14.287 11.451 14.2256 11.4458L12.5946 11.3069L14.1458 11.8308C14.2042 11.8506 14.1984 11.9352 14.1378 11.9468L12.53 12.2541L14.1646 12.3391C14.2262 12.3423 14.2434 12.4254 14.1882 12.4529L12.7227 13.1837L14.3196 12.8235C14.3798 12.8099 14.4187 12.8853 14.373 12.9267L13.1585 14.0266L14.5992 13.248C14.6535 13.2186 14.7113 13.2807 14.6784 13.3329L13.805 14.7205L14.9827 13.5811C15.0271 13.5382 15.0994 13.5823 15.0818 13.6415L14.6143 15.2138L15.4417 13.7982C15.4728 13.7448 15.5543 13.7677 15.5533 13.8295L15.5264 15.4699L15.942 13.8831C15.9577 13.8233 16.0423 13.8233 16.058 13.8831L16.4736 15.4699L16.4467 13.8295C16.4457 13.7677 16.5272 13.7448 16.5583 13.7982L17.3857 15.2138L16.9182 13.6415C16.9006 13.5823 16.9729 13.5382 17.0173 13.5811L18.195 14.7205L17.3216 13.3329C17.2887 13.2807 17.3465 13.2186 17.4008 13.248L18.8415 14.0266L17.627 12.9267C17.5813 12.8853 17.6202 12.8099 17.6804 12.8235L19.2773 13.1837L17.8118 12.4529C17.7566 12.4254 17.7738 12.3423 17.8354 12.3391L19.47 12.2541L17.8622 11.9468C17.8016 11.9352 17.7958 11.8506 17.8542 11.8308L19.4054 11.3069L17.7744 11.4458C17.713 11.451 17.6846 11.3711 17.7356 11.3363L19.0882 10.4124L17.5551 10.9871C17.4973 11.0088 17.4485 10.9395 17.4882 10.8922L18.5419 9.63672L17.2204 10.6048C17.1706 10.6412 17.105 10.5877 17.1304 10.5314L17.8072 9.03756L16.7952 10.3271C16.7571 10.3756 16.6795 10.3418 16.6889 10.2808L16.9384 8.65932L16.3111 10.1747C16.2874 10.2318 16.2036 10.2202 16.1962 10.1588ZM16.0298 8.52644C16.0255 8.49119 15.9745 8.49119 15.9702 8.52644L15.7741 10.1552C15.7704 10.1859 15.7284 10.1917 15.7166 10.1632L15.0893 8.64781C15.0757 8.61501 15.0266 8.6288 15.032 8.6639L15.2815 10.2854C15.2862 10.3159 15.2474 10.3328 15.2283 10.3085L14.2164 9.01899C14.1945 8.99108 14.1509 9.01765 14.1655 9.04998L14.8423 10.5438C14.855 10.572 14.8222 10.5987 14.7973 10.5805L13.4757 9.61246C13.4471 9.59151 13.4123 9.62889 13.4351 9.65606L14.4889 10.9115C14.5087 10.9352 14.4843 10.9698 14.4554 10.959L12.9223 10.3842C12.8891 10.3718 12.8657 10.4172 12.8949 10.4372L14.2475 11.3611C14.273 11.3785 14.2588 11.4185 14.2281 11.4159L12.5972 11.277C12.5619 11.274 12.5515 11.3241 12.585 11.3354L14.1362 11.8593C14.1654 11.8692 14.1625 11.9115 14.1322 11.9173L12.5244 12.2246C12.4896 12.2313 12.493 12.2823 12.5284 12.2841L14.1631 12.3691C14.1939 12.3707 14.2025 12.4123 14.1749 12.426L12.7093 13.1568C12.6776 13.1726 12.6947 13.2208 12.7293 13.213L14.3262 12.8528C14.3563 12.846 14.3757 12.8837 14.3529 12.9044L13.1384 14.0043C13.1121 14.0282 13.1415 14.0699 13.1727 14.0531L14.6134 13.2744C14.6406 13.2598 14.6695 13.2908 14.653 13.3169L13.7796 14.7045C13.7607 14.7345 13.8003 14.7668 13.8258 14.7421L15.0035 13.6027C15.0257 13.5813 15.0619 13.6033 15.0531 13.6329L14.5856 15.2052C14.5755 15.2392 14.6223 15.2596 14.6402 15.229L15.4675 13.8134C15.4831 13.7867 15.5239 13.7981 15.5234 13.829L15.4964 15.4694C15.4958 15.5049 15.5464 15.5119 15.5554 15.4776L15.971 13.8907C15.9788 13.8608 16.0212 13.8608 16.029 13.8907L16.4446 15.4776C16.4536 15.5119 16.5042 15.5049 16.5036 15.4694L16.4766 13.829C16.4761 13.7981 16.5169 13.7867 16.5325 13.8134L17.3598 15.229C17.3777 15.2596 17.4245 15.2392 17.4144 15.2052L16.9469 13.6329C16.9381 13.6033 16.9743 13.5813 16.9965 13.6027L18.1742 14.7421C18.1997 14.7668 18.2393 14.7345 18.2204 14.7045L17.347 13.3169C17.3305 13.2908 17.3594 13.2598 17.3866 13.2744L18.8273 14.0531C18.8585 14.0699 18.8879 14.0282 18.8616 14.0043L17.6471 12.9044C17.6243 12.8837 17.6437 12.846 17.6738 12.8528L19.2707 13.213C19.3053 13.2208 19.3224 13.1726 19.2907 13.1568L17.8251 12.426C17.7975 12.4123 17.8061 12.3707 17.8369 12.3691L19.4716 12.2841C19.507 12.2823 19.5104 12.2313 19.4756 12.2246L17.8678 11.9173C17.8375 11.9115 17.8346 11.8692 17.8638 11.8593L19.415 11.3354C19.4485 11.3241 19.4381 11.274 19.4028 11.277L17.7719 11.4159C17.7412 11.4185 17.727 11.3785 17.7525 11.3611L19.1051 10.4372C19.1343 10.4172 19.1109 10.3718 19.0777 10.3842L17.5446 10.959C17.5157 10.9698 17.4913 10.9352 17.5111 10.9115L18.5649 9.65606C18.5877 9.62889 18.5529 9.59151 18.5243 9.61246L17.2027 10.5805C17.1778 10.5987 17.145 10.572 17.1577 10.5438L17.8345 9.04998C17.8491 9.01765 17.8055 8.99108 17.7836 9.01899L16.7717 10.3085C16.7526 10.3328 16.7138 10.3159 16.7185 10.2854L16.968 8.6639C16.9734 8.6288 16.9243 8.61501 16.9107 8.64781L16.2834 10.1632C16.2716 10.1917 16.2296 10.1859 16.2259 10.1552L16.0298 8.52644Z" fill="#962122"/>
<path d="M15.3306 11.4398C15.4791 11.3411 15.6728 11.3437 15.8186 11.4463C15.8711 11.4832 15.9024 11.5436 15.9024 11.6079V11.9295C15.9024 11.9717 15.887 12.0124 15.8591 12.044L15.7329 12.1872L15.7928 12.2403L15.919 12.0971C15.9598 12.0508 15.9823 11.9912 15.9823 11.9295V11.6079C15.9823 11.5174 15.9384 11.4327 15.8645 11.3807C15.6918 11.2591 15.4623 11.2561 15.2864 11.373L15.1691 11.4511L15.2133 11.5178L15.3306 11.4398Z" fill="#962122"/>
<path d="M16.7135 11.373C16.5376 11.2561 16.3082 11.2591 16.1355 11.3807C16.0616 11.4327 16.0176 11.5174 16.0176 11.6079V11.9295C16.0176 11.9912 16.0402 12.0508 16.0809 12.0971L16.2072 12.2403L16.2671 12.1872L16.1408 12.044C16.113 12.0124 16.0976 11.9717 16.0976 11.9295V11.6079C16.0976 11.5436 16.1288 11.4832 16.1814 11.4463C16.3272 11.3437 16.5209 11.3411 16.6693 11.4398L16.7867 11.5178L16.8309 11.4511L16.7135 11.373Z" fill="#962122"/>
<path fill-rule="evenodd" clip-rule="evenodd" d="M15.5471 11.907C15.3685 11.907 15.2236 11.7361 15.2236 11.7361C15.2236 11.7361 15.3685 11.5652 15.5471 11.5652C15.7257 11.5652 15.8705 11.7361 15.8705 11.7361C15.8705 11.7361 15.7257 11.907 15.5471 11.907ZM15.3772 11.7316L15.3711 11.7361L15.3772 11.7406C15.4284 11.778 15.4884 11.8069 15.5471 11.8069C15.6058 11.8069 15.6658 11.778 15.717 11.7406L15.723 11.7361L15.717 11.7316C15.6658 11.6942 15.6058 11.6653 15.5471 11.6653C15.4884 11.6653 15.4284 11.6942 15.3772 11.7316Z" fill="#962122"/>
<path fill-rule="evenodd" clip-rule="evenodd" d="M16.4564 11.907C16.2778 11.907 16.133 11.7361 16.133 11.7361C16.133 11.7361 16.2778 11.5652 16.4564 11.5652C16.6351 11.5652 16.7799 11.7361 16.7799 11.7361C16.7799 11.7361 16.6351 11.907 16.4564 11.907ZM16.2865 11.7316L16.2805 11.7361L16.2865 11.7406C16.3377 11.778 16.3977 11.8069 16.4564 11.8069C16.5151 11.8069 16.5751 11.778 16.6263 11.7406L16.6324 11.7361L16.6263 11.7316C16.5751 11.6942 16.5151 11.6653 16.4564 11.6653C16.3977 11.6653 16.3377 11.6942 16.2865 11.7316Z" fill="#962122"/>
<path fill-rule="evenodd" clip-rule="evenodd" d="M15.8255 12.3518C15.8443 12.3388 15.8666 12.3318 15.8895 12.3318H15.9491C15.9783 12.3318 16.0019 12.3555 16.0019 12.3848V12.3975C16.0019 12.4044 16.0075 12.41 16.0144 12.41C16.0213 12.41 16.0269 12.4044 16.0269 12.3975V12.3848C16.0269 12.3555 16.0506 12.3318 16.0797 12.3318H16.1393C16.1622 12.3318 16.1845 12.3388 16.2033 12.3518L16.3806 12.4749C16.4149 12.4987 16.4133 12.55 16.3776 12.5716L16.1561 12.7054C16.1133 12.7312 16.0643 12.7449 16.0144 12.7449C15.9645 12.7449 15.9155 12.7312 15.8727 12.7054L15.6512 12.5716C15.6155 12.55 15.6139 12.4987 15.6482 12.4749L15.8255 12.3518ZM15.8895 12.4319C15.887 12.4319 15.8845 12.4327 15.8824 12.4342L15.759 12.5198L15.9243 12.6196C15.9515 12.636 15.9826 12.6447 16.0144 12.6447C16.0462 12.6447 16.0773 12.636 16.1045 12.6196L16.2698 12.5198L16.1464 12.4342C16.1443 12.4327 16.1418 12.4319 16.1393 12.4319H16.1215C16.1069 12.4773 16.0645 12.5102 16.0144 12.5102C15.9643 12.5102 15.9219 12.4773 15.9073 12.4319H15.8895Z" fill="#962122"/>
</g>
<defs>
<clipPath id="clip0_440_1239">
<rect width="32" height="24" rx="2" fill="white"/>
</clipPath>
</defs>
</svg>
