<svg width="24" height="24" viewBox="0 0 24 24" fill="none" xmlns="http://www.w3.org/2000/svg">
<g clip-path="url(#clip0_440_1219)">
<rect width="24" height="24" rx="12" fill="#F8D74C"/>
<path d="M0 24L-1.04907e-06 0L8 -3.49691e-07L8 24L0 24Z" fill="#485CC2"/>
<path d="M16 24L16 0L24 -3.49691e-07L24 24L16 24Z" fill="#485CC2"/>
<path d="M12.7993 9.20326H12.4981V12.8344H12.9749L14.0979 8.93594L15 8.30528L13.5996 13.54V13.7654H12.4981V16H11.7112V13.7654H10.4523V13.6934L10.4424 13.6974L9 8.30528L9.90213 8.93594L11.0251 12.8344H11.7112V9.20326H11.41C11.4041 9.20326 11.4005 9.19635 11.4037 9.19102L12.0983 8.00376C12.1012 7.99875 12.1081 7.99875 12.111 8.00376L12.8056 9.19102C12.8088 9.19635 12.8052 9.20326 12.7993 9.20326Z" fill="#333333"/>
</g>
<defs>
<clipPath id="clip0_440_1219">
<rect width="24" height="24" rx="12" fill="white"/>
</clipPath>
</defs>
</svg>
