<svg width="32" height="24" viewBox="0 0 32 24" fill="none" xmlns="http://www.w3.org/2000/svg">
<g clip-path="url(#clip0_440_1229)">
<rect width="32" height="24" rx="2" fill="#F8D74C"/>
<path d="M0 24L-1.04907e-06 0L10.6667 -4.66255e-07L10.6667 24L0 24Z" fill="#485CC2"/>
<path d="M21.3333 24L21.3333 0L32 -4.66255e-07L32 24L21.3333 24Z" fill="#485CC2"/>
<path d="M17.0657 8.50452H16.6641V13.0433H17.2998L18.7972 8.17038L20 7.38208L18.1329 13.9254V14.2071H16.6641V17.0002H15.615V14.2071H13.9364V14.1171L13.9233 14.122L12 7.38208L13.2028 8.17038L14.7002 13.0433H15.615V8.50452H15.2134C15.2055 8.50452 15.2007 8.49589 15.2049 8.48923L16.1311 7.00519C16.135 6.99892 16.1441 6.99892 16.148 7.00519L17.0742 8.48923C17.0784 8.49589 17.0736 8.50452 17.0657 8.50452Z" fill="#333333"/>
</g>
<defs>
<clipPath id="clip0_440_1229">
<rect width="32" height="24" rx="2" fill="white"/>
</clipPath>
</defs>
</svg>
