<svg width="32" height="24" viewBox="0 0 32 24" fill="none" xmlns="http://www.w3.org/2000/svg">
<g clip-path="url(#clip0_440_1218)">
<rect width="32" height="24" rx="2" fill="#485CC2"/>
<path d="M0 20H32V24H0V20Z" fill="#D74B4B"/>
<path d="M0 0H32V4H0V0Z" fill="#D74B4B"/>
<circle cx="16" cy="12" r="7.5" fill="#F9F9F9"/>
<path d="M12.1735 14.6456H11.8959L11.9689 14.8649V15.0256L12.1735 15.1279C12.2369 15.1279 12.308 15.163 12.0859 15.3033C11.8637 15.4436 12.0518 15.4299 12.1735 15.4056L12.7874 15.3033L13.0797 15.201C13.1868 15.201 13.4246 15.1864 13.5181 15.1279C13.635 15.0548 14.0004 15.201 13.9273 15.3033C13.8688 15.3851 14.1173 15.4056 14.2488 15.4056H15.0088L15.5787 15.7125H15.7687L16.5579 15.6248L16.821 15.5517L17.3325 15.4056H17.6979L18.1363 15.3033L18.6916 15.4056H19.2324L19.9339 15.6248L19.817 15.4056L19.9339 15.201V15.0256L20.1531 14.8649L19.9339 14.7333L19.2324 14.4703H18.1363L17.6979 14.1341L14.7896 13.8857L14.5265 14.1341L14.3365 14.0172L13.5181 14.5579L13.4012 14.368V14.1341L12.5097 14.6456L12.1735 14.2949V14.6456Z" fill="#3FB47C"/>
<path d="M13.6516 15.8917C13.8671 16.0689 14.2387 16.3227 14.6746 16.5279C15.1062 16.731 15.634 16.9023 16.1508 16.8756C16.6676 16.9023 17.1954 16.731 17.627 16.5279C18.0629 16.3227 18.4346 16.0689 18.65 15.8917L18.2371 15.3897C18.0606 15.5349 17.7343 15.759 17.3502 15.9398C16.9618 16.1226 16.5141 16.2453 16.1508 16.2265C15.7876 16.2453 15.3398 16.1226 14.9514 15.9398C14.5673 15.759 14.241 15.5349 14.0645 15.3897L13.6516 15.8917Z" fill="#E6E6E6"/>
<path d="M15.8621 10.8956C15.8826 10.8271 15.8706 10.6846 15.8621 10.6219L15.4516 10.1002L15.5713 10.0317L15.768 10.2883L15.8193 10.1002L15.768 9.57844L15.4516 9.30475H14.8272L14.3483 8.94554L14.639 8.88567L14.7075 9.06528L15.0068 9.21923L15.289 9.15936L15.3489 8.88567H15.4516V9.10804L15.6996 9.36462L15.9904 9.10804L15.8621 8.70607L15.768 8.38107L15.4516 8.21856L15.3489 8.0133L14.9384 7.89356L15.1351 7.84225L15.3489 7.89356V7.63698L15.4516 7.67975V8.0133L15.5713 8.21856L15.8193 8.30409L15.8621 7.57711L16.1358 7.84225L15.9391 8.21856L16.0331 8.88567L16.3667 8.56067V8.21856L16.5121 8.07317L16.4693 7.84225L16.3667 7.3804L16.5548 7.42317V7.74817L17.0595 7.63698L16.6746 8.0133H17.2989L17.222 7.57711L17.2989 7.5258L17.4443 7.89356L17.5299 8.30409L16.6746 8.38107L16.5121 8.30409L16.4693 8.46659H16.7173L16.1412 9.05968L16.2398 9.25163L16.3414 9.64023L16.3064 9.88179L16.5374 9.73825V9.40739H16.6389V9.73825L16.954 9.57844L17.2989 9.30475L17.2516 8.57947C17.2808 8.5678 17.3391 8.55146 17.3391 8.57947C17.3391 8.60748 17.3601 9.03925 17.3706 9.25163L18.0463 8.50595L18.1198 8.56067V8.61098L18.0708 8.70607L17.1186 9.64023L16.6746 9.9343L16.3064 10.1373L16.2924 10.8956H15.8621Z" fill="#962122"/>
<path d="M14.2668 8.56685L14.0182 8.17263L13.9515 7.99674L14.2668 8.37884L14.3942 8.51227V7.99674H14.4973V8.37884L14.5822 8.51227L14.2668 8.56685Z" fill="#962122"/>
<path d="M13.6931 8.11609L13.6234 8.32505H13.6931L13.8125 8.22554H14.1309L14.3299 8.11609L14.4891 8.22554L14.5488 8.03649H14.6881V7.93698L14.7379 7.87728L14.8075 7.71807H14.6383C14.5886 7.71807 14.6383 7.57877 14.5488 7.57877C14.4772 7.57877 14.373 7.51907 14.3299 7.48921V7.57877H14.1309C14.1077 7.6252 14.0493 7.71807 14.0015 7.71807H13.8622V7.80763H13.7528L13.6931 7.93698L13.6234 8.03649L13.6931 8.11609Z" fill="#3FB47C"/>
<path d="M16.2619 7.30443L16.0983 7.45188L16.1589 7.48622L16.3118 7.45852L16.5889 7.61551L16.816 7.6184L16.9005 7.79212L17.0457 7.65708L17.1669 7.72576L17.2159 7.63919L17.2886 7.61178L17.4277 7.50761L17.2806 7.42421C17.2373 7.39968 17.3493 7.30301 17.2713 7.25886C17.209 7.22353 17.1478 7.12024 17.125 7.07301L17.0809 7.15093L16.9077 7.05281C16.8647 7.08176 16.7681 7.13378 16.7265 7.11023L16.6053 7.04155L16.5612 7.11946L16.4659 7.06549L16.3502 7.1486L16.2406 7.20083L16.2619 7.30443Z" fill="#3FB47C"/>
<path d="M15.5268 7.69343L15.4057 7.80258L15.4505 7.828L15.5637 7.8075L15.7688 7.92371L15.9369 7.92585L15.9995 8.05445L16.107 7.95448L16.1967 8.00532L16.233 7.94124L16.2868 7.92095L16.3898 7.84384L16.2809 7.7821C16.2488 7.76394 16.3317 7.69238 16.274 7.6597C16.2279 7.63355 16.1826 7.55709 16.1657 7.52212L16.133 7.5798L16.0049 7.50717C15.973 7.5286 15.9015 7.5671 15.8707 7.54967L15.781 7.49883L15.7483 7.55651L15.6778 7.51656L15.5922 7.57808L15.511 7.61674L15.5268 7.69343Z" fill="#3FB47C"/>
<path d="M15.9988 7.24699L16.0493 6.9856L15.9659 6.99657L15.8384 7.13463L15.4569 7.18481L15.2356 7.34734L15.0276 7.24125L14.9858 7.47723L14.8189 7.49918L14.8345 7.61843L14.7843 7.69781L14.7259 7.89958L14.9287 7.87293C14.9883 7.86509 14.9506 8.03987 15.0579 8.02576C15.1438 8.01447 15.278 8.06961 15.3344 8.09859L15.3203 7.99126L15.5588 7.95991C15.5793 7.9006 15.6346 7.7801 15.6918 7.77258L15.8588 7.75063L15.8447 7.6433L15.9758 7.62606L16.027 7.46163L16.0948 7.33141L15.9988 7.24699Z" fill="#3FB47C"/>
<path d="M15.9596 9.76702L16.0983 9.45972L15.9922 9.44885L15.7949 9.58173L15.3101 9.53204L14.99 9.66764L14.7647 9.47614L14.6443 9.75469L14.4322 9.73295L14.4166 9.88446L14.3316 9.9676L14.2007 10.1991L14.4582 10.2255C14.534 10.2333 14.4365 10.4376 14.5728 10.4516C14.6819 10.4628 14.8312 10.57 14.8922 10.6221L14.9062 10.4858L15.2092 10.5168C15.2518 10.4498 15.3551 10.3175 15.4279 10.3249L15.64 10.3466L15.6539 10.2103L15.8206 10.2274L15.9317 10.0397L16.0533 9.89909L15.9596 9.76702Z" fill="#3FB47C"/>
<path d="M15.7043 8.59144L15.9 8.27037L15.7841 8.24376L15.5475 8.36372L15.0177 8.2421L14.6447 8.34821L14.4217 8.10528L14.2501 8.39704L14.0183 8.34384L13.9803 8.5094L13.8747 8.58973L13.698 8.82802L13.9795 8.89263C14.0623 8.91163 13.9263 9.12441 14.0753 9.15862C14.1945 9.18598 14.345 9.3251 14.4053 9.39123L14.4395 9.24223L14.7706 9.31824C14.827 9.24985 14.9596 9.11762 15.0391 9.13586L15.2709 9.18907L15.3051 9.04006L15.4872 9.08187L15.6359 8.88945L15.7898 8.75049L15.7043 8.59144Z" fill="#3FB47C"/>
<path d="M16.353 9.23697L16.0815 9.49715L16.1867 9.55257L16.4462 9.49729L16.9271 9.75065L17.3148 9.74368L17.4682 10.0357L17.7088 9.79763L17.9192 9.90848L17.9983 9.75819L18.121 9.70761L18.3529 9.52257L18.0974 9.38798C18.0222 9.34839 18.2082 9.17758 18.073 9.10632C17.9648 9.04931 17.855 8.87627 17.8136 8.79688L17.7423 8.93214L17.4418 8.77379C17.3697 8.82545 17.2077 8.91927 17.1355 8.88126L16.9251 8.77042L16.8539 8.90568L16.6886 8.81859L16.4955 8.96645L16.3111 9.06132L16.353 9.23697Z" fill="#3FB47C"/>
<path d="M16.4223 10.1281L16.253 10.2904L16.3186 10.325L16.4805 10.2905L16.7805 10.4486L17.0223 10.4442L17.118 10.6263L17.2681 10.4779L17.3993 10.547L17.4487 10.4533L17.5252 10.4217L17.6698 10.3063L17.5105 10.2223C17.4636 10.1976 17.5796 10.0911 17.4952 10.0466C17.4277 10.0111 17.3593 9.90314 17.3335 9.85361L17.289 9.93798L17.1015 9.83921C17.0566 9.87143 16.9555 9.92996 16.9105 9.90625L16.7793 9.83711L16.7348 9.92148L16.6317 9.86715L16.5112 9.95939L16.3962 10.0186L16.4223 10.1281Z" fill="#3FB47C"/>
<path d="M17.5275 8.31337L17.6978 8.5324L17.615 8.56158L17.4315 8.49341L17.0533 8.62682L16.7711 8.58018L16.6278 8.7769L16.4777 8.57735L16.3122 8.63571L16.2705 8.51752L16.1864 8.46745L16.037 8.30752L16.2379 8.23665C16.297 8.21581 16.1795 8.07118 16.2859 8.03366C16.371 8.00365 16.4697 7.8891 16.5084 7.83557L16.5459 7.94195L16.7823 7.85857C16.8294 7.904 16.9376 7.98985 16.9943 7.96984L17.1598 7.91148L17.1973 8.01785L17.3273 7.97199L17.4525 8.10063L17.5769 8.18964L17.5275 8.31337Z" fill="#3FB47C"/>
<path d="M18.7509 8.29246L18.9768 8.59398L18.8705 8.63149L18.6312 8.53435L18.1451 8.70583L17.7786 8.63541L17.5982 8.89874L17.3988 8.62414L17.1861 8.69916L17.1292 8.53772L17.0191 8.46764L16.8216 8.24684L17.0799 8.15574C17.1558 8.12895 17.0001 7.92972 17.1369 7.88149C17.2463 7.84291 17.3711 7.68995 17.4198 7.6183L17.4711 7.7636L17.7749 7.65642C17.837 7.71926 17.9792 7.83851 18.0522 7.81279L18.2649 7.73776L18.3161 7.88307L18.4832 7.82412L18.6484 8.00185L18.8117 8.12579L18.7509 8.29246Z" fill="#3FB47C"/>
<path d="M11.3884 10.51L11.5204 10.6703L11.8032 10.3215L12.0106 10.2084L12.5527 9.91141L14.6879 8.83202L14.5889 8.67648L13.3775 9.29394L12.1803 9.79829L11.7561 10.001L11.4356 10.2838L11.3884 10.51Z" fill="#962122"/>
<path d="M14.5194 8.66538L14.111 8.86472L14.252 9.13699V9.62804C14.5554 9.6086 14.816 9.40277 14.9084 9.30229L14.6264 8.99599L14.5194 8.66538Z" fill="#E6E6E6"/>
<path d="M11.9248 10.261L12.0288 10.729L12.3798 11.132L12.8478 10.69V11.327H13.9788V10.625L14.0438 11.041L14.1868 11.262H14.2908L14.3818 11.158V10.872H15.1358C15.1141 10.8027 14.9954 10.6692 14.6938 10.69C14.3922 10.7108 14.2994 10.7593 14.2908 10.781L14.2648 9.79301C14.2604 9.75401 14.1894 9.66561 13.9398 9.62401C13.8661 9.60234 13.7188 9.50441 13.7188 9.28601V8.68801H13.1208V9.09101C13.1251 9.19067 13.1676 9.39001 13.3028 9.39001L13.2638 9.55901L12.5488 9.91001V10.209L12.3928 10.43L12.2498 10.326L12.2758 10.209L12.3538 10.118V9.92301L12.2498 9.87101L12.2238 9.92301L12.2498 9.97501V10.092L11.9248 10.261Z" fill="#E77D42"/>
<path d="M11.7298 10.027V9.91001L11.9638 9.72801H12.1198L12.1978 9.81901L11.9638 10.027L11.8338 9.96201L11.7298 10.027Z" fill="#E77D42"/>
<path d="M13.2638 8.40201C13.1078 8.47481 13.1034 8.62301 13.1208 8.68801H13.7188V8.92201H13.8228C13.8444 8.85701 13.8852 8.70101 13.8748 8.59701C13.8644 8.49301 13.7318 8.40634 13.6668 8.37601C13.5974 8.35434 13.4198 8.32921 13.2638 8.40201Z" fill="#333333"/>
<path d="M13.4718 9.16901H13.2638C13.2638 9.24181 13.4024 9.24268 13.4718 9.23401V9.16901Z" fill="#E6E6E6"/>
<path d="M13.3548 8.88301C13.3548 8.90455 13.3198 8.92201 13.2768 8.92201C13.2337 8.92201 13.1988 8.90455 13.1988 8.88301C13.1988 8.86147 13.2337 8.84401 13.2768 8.84401C13.3198 8.84401 13.3548 8.86147 13.3548 8.88301Z" fill="#E6E6E6"/>
<path d="M13.6408 8.88301C13.6408 8.90455 13.6058 8.92201 13.5628 8.92201C13.5197 8.92201 13.4848 8.90455 13.4848 8.88301C13.4848 8.86147 13.5197 8.84401 13.5628 8.84401C13.6058 8.84401 13.6408 8.86147 13.6408 8.88301Z" fill="#E6E6E6"/>
<path d="M13.3028 8.88301C13.3028 8.89274 13.2911 8.90062 13.2768 8.90062C13.2624 8.90062 13.2508 8.89274 13.2508 8.88301C13.2508 8.87328 13.2624 8.8654 13.2768 8.8654C13.2911 8.8654 13.3028 8.87328 13.3028 8.88301Z" fill="#333333"/>
<path d="M13.5888 8.88301C13.5888 8.89274 13.5771 8.90062 13.5628 8.90062C13.5484 8.90062 13.5368 8.89274 13.5368 8.88301C13.5368 8.87328 13.5484 8.8654 13.5628 8.8654C13.5771 8.8654 13.5888 8.87328 13.5888 8.88301Z" fill="#333333"/>
<path d="M12.5314 15.1405V14.8054L12.9622 14.7028L13.0238 15.0174L12.9622 15.2499L12.5314 15.1405Z" fill="#E77D42"/>
<path d="M13.7008 14.8328L13.6461 14.6413H14.1522L14.6993 14.7781L14.6172 14.8943L13.7008 14.8328Z" fill="#E77D42"/>
<path d="M12.7092 11.6527L12.8665 11.345H13.9744L14.1453 12.9863L14.2548 14.6345H13.5982L13.6393 13.1094L13.4409 12.4597L13.1811 13.1915V14.6345L12.7913 14.8943L12.4493 14.7849L12.6271 13.465L12.7092 11.6527Z" fill="#E6E6E6"/>
<path d="M20.8686 10.51L20.7366 10.6703L20.4538 10.3215L20.2464 10.2083L19.7044 9.9114L16.8625 8.64495C16.7735 8.60528 16.7338 8.50073 16.7741 8.41201C16.8157 8.32048 16.9254 8.28245 17.0147 8.32866L18.8795 9.29393L20.0767 9.79828L20.501 10.001L20.8215 10.2838L20.8686 10.51Z" fill="#E77D42"/>
<path d="M20.3323 10.261L20.2283 10.729L19.8773 11.132L19.4093 10.69V11.327H18.2783V10.625L18.2133 11.041L18.0703 11.262H17.9663L17.8753 11.158V10.872H17.1213C17.1429 10.8027 17.2617 10.6692 17.5633 10.69C17.8649 10.7108 17.9576 10.7593 17.9663 10.781L17.9923 9.793C17.9966 9.754 18.0677 9.6656 18.3173 9.624C18.3909 9.60233 18.5383 9.5044 18.5383 9.286V8.688H19.1363V9.091C19.1319 9.19066 19.0895 9.39 18.9543 9.39L18.9933 9.559L19.7083 9.91V10.209L19.8643 10.43L20.0073 10.326L19.9813 10.209L19.9033 10.118V9.923L20.0073 9.871L20.0333 9.923L20.0073 9.975V10.092L20.3323 10.261Z" fill="#962122"/>
<path d="M20.5273 10.027V9.91L20.2933 9.728H20.1373L20.0593 9.819L20.2933 10.027L20.4233 9.962L20.5273 10.027Z" fill="#962122"/>
<path d="M18.9933 8.402C19.1493 8.4748 19.1536 8.623 19.1363 8.688H18.5383V8.922H18.4343C18.4126 8.857 18.3719 8.701 18.3823 8.597C18.3927 8.493 18.5253 8.40633 18.5903 8.376C18.6596 8.35433 18.8373 8.3292 18.9933 8.402Z" fill="#333333"/>
<path d="M18.7853 9.169H18.9933C18.9933 9.2418 18.8546 9.24266 18.7853 9.234V9.169Z" fill="#E6E6E6"/>
<path d="M18.9023 8.883C18.9023 8.90454 18.9372 8.922 18.9803 8.922C19.0233 8.922 19.0583 8.90454 19.0583 8.883C19.0583 8.86146 19.0233 8.844 18.9803 8.844C18.9372 8.844 18.9023 8.86146 18.9023 8.883Z" fill="#E6E6E6"/>
<path d="M18.6163 8.883C18.6163 8.90454 18.6512 8.922 18.6943 8.922C18.7373 8.922 18.7723 8.90454 18.7723 8.883C18.7723 8.86146 18.7373 8.844 18.6943 8.844C18.6512 8.844 18.6163 8.86146 18.6163 8.883Z" fill="#E6E6E6"/>
<path d="M18.9543 8.883C18.9543 8.89272 18.9659 8.90061 18.9803 8.90061C18.9946 8.90061 19.0063 8.89272 19.0063 8.883C19.0063 8.87327 18.9946 8.86539 18.9803 8.86539C18.9659 8.86539 18.9543 8.87327 18.9543 8.883Z" fill="#333333"/>
<path d="M18.6683 8.883C18.6683 8.89272 18.6799 8.90061 18.6943 8.90061C18.7086 8.90061 18.7203 8.89272 18.7203 8.883C18.7203 8.87327 18.7086 8.86539 18.6943 8.86539C18.6799 8.86539 18.6683 8.87327 18.6683 8.883Z" fill="#333333"/>
<path d="M19.7256 15.1405V14.8054L19.2948 14.7028L19.2332 15.0174L19.2948 15.2499L19.7256 15.1405Z" fill="#962122"/>
<path d="M18.5562 14.8328L18.6109 14.6413H18.1048L17.5577 14.7781L17.6398 14.8943L18.5562 14.8328Z" fill="#962122"/>
<path d="M19.5478 11.6527L19.3905 11.345H18.2827L18.1117 12.9863L18.0023 14.6344H18.6588L18.6178 13.1094L18.8161 12.4597L19.076 13.1915V14.6344L19.4658 14.8943L19.8077 14.7849L19.6299 13.465L19.5478 11.6527Z" fill="#E6E6E6"/>
<path d="M17.8699 10.8782H16.1152L16.1152 15.4767C17.1469 15.4767 17.8699 13.9828 17.8699 13.1875V10.8782Z" fill="#F8D74C"/>
<path d="M14.3738 10.8782H16.1285L16.1285 15.4767C15.0968 15.4767 14.3738 13.9828 14.3738 13.1875V10.8782Z" fill="#E6E6E6"/>
<mask id="mask0_440_1218" style="mask-type:alpha" maskUnits="userSpaceOnUse" x="14" y="10" width="4" height="6">
<path d="M17.8699 10.8782H16.1152L16.1152 15.4767C17.1469 15.4767 17.8699 13.9828 17.8699 13.1875V10.8782Z" fill="#F8D74C"/>
<path d="M14.3738 10.8782H16.1285L16.1285 15.4767C15.0968 15.4767 14.3738 13.9828 14.3738 13.1875V10.8782Z" fill="#E6E6E6"/>
</mask>
<g mask="url(#mask0_440_1218)">
<path d="M16.1305 12.5077L14.4804 13.9231L14.3501 14.072L15.7338 15.859L16.9437 16.0327L17.9427 14.1402L16.1305 12.5077Z" fill="#64BEDB"/>
</g>
<path fill-rule="evenodd" clip-rule="evenodd" d="M16.0966 17.7391C19.3392 17.7391 21.9679 15.1407 21.9679 11.9355C21.9679 8.73017 19.3392 6.13177 16.0966 6.13177C12.8539 6.13177 10.2252 8.73017 10.2252 11.9355C10.2252 15.1407 12.8539 17.7391 16.0966 17.7391ZM16.0966 17.9182C19.4392 17.9182 22.149 15.2396 22.149 11.9355C22.149 8.63129 19.4392 5.95273 16.0966 5.95273C12.7539 5.95273 10.0441 8.63129 10.0441 11.9355C10.0441 15.2396 12.7539 17.9182 16.0966 17.9182Z" fill="#962122"/>
<path d="M15.5512 5.68537C15.5458 5.68991 15.5409 5.69419 15.5364 5.69815C15.5405 5.69359 15.5455 5.68932 15.5512 5.68537C15.6179 5.62858 15.7434 5.53068 15.8113 5.51003C15.9029 5.48216 16.1778 5.4961 16.4104 5.76782C16.5965 5.9852 16.5322 6.26246 16.4104 6.42971C16.3258 6.54583 16.1017 6.78365 15.8817 6.80595C15.6618 6.82824 15.5176 6.66196 15.4729 6.57603H15.7781C15.8486 6.57603 15.9479 6.48969 16.0157 6.42971C16.1358 6.32331 16.2553 6.19747 16.3469 6.13012L15.8817 5.69815C15.7699 5.63645 15.6151 5.64106 15.5512 5.68537Z" fill="#3FB47C"/>
<path d="M17.7632 5.91445C17.7566 5.91691 17.7504 5.91926 17.7448 5.92145C17.7503 5.91856 17.7564 5.91624 17.7632 5.91445C17.8455 5.88364 17.9973 5.83406 18.0682 5.83761C18.164 5.8424 18.4175 5.94843 18.542 6.28241C18.6417 6.54959 18.4853 6.7884 18.313 6.90438C18.1933 6.9849 17.9004 7.1326 17.6861 7.0792C17.4717 7.0258 17.3937 6.82078 17.3814 6.72494L17.6682 6.82811C17.7345 6.85194 17.8577 6.8044 17.9421 6.77093C18.0918 6.71156 18.2476 6.63372 18.357 6.60141L18.0694 6.03821C17.9856 5.94243 17.8385 5.89441 17.7632 5.91445Z" fill="#3FB47C"/>
<path d="M19.7625 6.87754C19.7554 6.87763 19.7488 6.87776 19.7428 6.87791C19.749 6.87706 19.7555 6.87695 19.7625 6.87754C19.8505 6.87642 20.0103 6.88116 20.0757 6.90847C20.164 6.94534 20.3656 7.13068 20.367 7.48662C20.3682 7.77137 20.1387 7.94294 19.9366 7.99366C19.7963 8.02887 19.47 8.06863 19.287 7.94598C19.104 7.82333 19.1017 7.60429 19.1234 7.5101L19.3571 7.70401C19.4111 7.74879 19.5434 7.74578 19.6343 7.74286C19.7955 7.73769 19.9689 7.71722 20.0828 7.72385L20.0074 7.09736C19.9618 6.97905 19.8402 6.88418 19.7625 6.87754Z" fill="#3FB47C"/>
<path d="M21.308 8.45847C21.3013 8.45618 21.2951 8.45407 21.2894 8.45218C21.2955 8.45345 21.3017 8.45557 21.308 8.45847C21.3911 8.48718 21.5396 8.54566 21.5916 8.59344C21.6619 8.65795 21.7871 8.90023 21.6653 9.23521C21.5679 9.5032 21.2929 9.58682 21.0854 9.56616C20.9414 9.55181 20.621 9.47885 20.4915 9.30174C20.362 9.12463 20.4356 8.91799 20.4885 8.83681L20.6411 9.09806C20.6764 9.1584 20.8017 9.20028 20.8881 9.22826C21.0414 9.27791 21.2114 9.31729 21.3162 9.36206L21.4621 8.74784C21.4602 8.62127 21.3787 8.491 21.308 8.45847Z" fill="#3FB47C"/>
<path d="M22.2133 10.4666C22.2078 10.4622 22.2027 10.4581 22.198 10.4544C22.2032 10.4576 22.2083 10.4617 22.2133 10.4666C22.2814 10.5216 22.4007 10.6268 22.4331 10.6893C22.4768 10.7737 22.5106 11.0437 22.2803 11.3173C22.0961 11.5362 21.8087 11.5218 21.6209 11.4322C21.4905 11.37 21.2146 11.1931 21.1542 10.9829C21.0938 10.7727 21.2345 10.6034 21.3123 10.5451L21.3653 10.8421C21.3776 10.9107 21.4808 10.9925 21.5523 11.048C21.6792 11.1465 21.8253 11.2409 21.9083 11.3184L22.2579 10.7906C22.3 10.671 22.2685 10.5211 22.2133 10.4666Z" fill="#3FB47C"/>
<path d="M22.3691 12.6596C22.3655 12.6536 22.3621 12.6481 22.359 12.643C22.3628 12.6478 22.3662 12.6534 22.3691 12.6596C22.4141 12.7344 22.4899 12.8736 22.4986 12.9432C22.5105 13.0373 22.4489 13.3025 22.1378 13.4817C21.8889 13.6251 21.6238 13.5144 21.4783 13.3668C21.3773 13.2643 21.1793 13.0048 21.1953 12.7868C21.2113 12.5689 21.402 12.4573 21.4954 12.4288L21.4424 12.7259C21.4301 12.7945 21.4989 12.9062 21.5469 12.9825C21.632 13.118 21.7367 13.2561 21.7878 13.357L22.299 12.9792C22.3799 12.881 22.4022 12.7295 22.3691 12.6596Z" fill="#3FB47C"/>
<path d="M21.7568 14.7731C21.7555 14.7663 21.7542 14.7599 21.753 14.754C21.7549 14.7599 21.7562 14.7663 21.7568 14.7731C21.7732 14.8586 21.7962 15.015 21.7804 15.0834C21.759 15.1758 21.6093 15.4041 21.255 15.4674C20.9715 15.518 20.7607 15.3244 20.6751 15.1364C20.6156 15.006 20.5193 14.6952 20.6098 14.4958C20.7002 14.2964 20.918 14.256 21.0156 14.2608L20.863 14.522C20.8278 14.5824 20.8537 14.7106 20.8724 14.7986C20.9056 14.9546 20.9561 15.1198 20.9693 15.2319L21.5803 15.0497C21.6903 14.9848 21.7637 14.8499 21.7568 14.7731Z" fill="#3FB47C"/>
<path d="M20.4501 16.5521C20.4512 16.5452 20.4523 16.5388 20.4532 16.5329C20.4529 16.539 20.4519 16.5455 20.4501 16.5521C20.4359 16.638 20.4035 16.7927 20.3649 16.8517C20.3128 16.9313 20.0932 17.0952 19.7383 17.0349C19.4544 16.9866 19.3233 16.7334 19.3079 16.5278C19.2972 16.3851 19.3142 16.0605 19.4682 15.9037C19.6222 15.7469 19.8408 15.7827 19.9309 15.8201L19.6971 16.014C19.6431 16.0588 19.6231 16.1881 19.6103 16.277C19.5874 16.4349 19.5777 16.6072 19.5513 16.717L20.1886 16.7524C20.3144 16.7286 20.43 16.6266 20.4501 16.5521Z" fill="#3FB47C"/>
<path d="M18.6067 17.7821C18.6101 17.776 18.6133 17.7703 18.6162 17.7651C18.6138 17.7708 18.6106 17.7764 18.6067 17.7821C18.5636 17.858 18.4796 17.9924 18.4229 18.0348C18.3465 18.0919 18.0833 18.1718 17.7708 17.9951C17.5207 17.8537 17.4851 17.5715 17.5417 17.3731C17.581 17.2354 17.7094 16.9361 17.9083 16.8408C18.1072 16.7455 18.3003 16.853 18.372 16.9187L18.0852 17.0219C18.019 17.0457 17.9555 17.1604 17.9126 17.2397C17.8366 17.3803 17.7678 17.5389 17.705 17.6332L18.2916 17.8818C18.418 17.902 18.562 17.8453 18.6067 17.7821Z" fill="#3FB47C"/>
<path d="M16.4488 18.3146C16.4542 18.3101 16.4591 18.3058 16.4636 18.3019C16.4595 18.3064 16.4545 18.3107 16.4488 18.3146C16.3821 18.3714 16.2566 18.4693 16.1888 18.49C16.0971 18.5178 15.8222 18.5039 15.5896 18.2322C15.4035 18.0148 15.4678 17.7375 15.5896 17.5703C15.6742 17.4542 15.8984 17.2163 16.1183 17.1941C16.3382 17.1718 16.4824 17.338 16.5271 17.424H16.2219C16.1514 17.424 16.0521 17.5103 15.9843 17.5703C15.8642 17.6767 15.7447 17.8025 15.6531 17.8699L16.1183 18.3019C16.2301 18.3635 16.3849 18.3589 16.4488 18.3146Z" fill="#3FB47C"/>
<path d="M14.2368 18.0855C14.2434 18.0831 14.2496 18.0807 14.2552 18.0786C14.2497 18.0814 14.2436 18.0838 14.2368 18.0855C14.1545 18.1164 14.0027 18.1659 13.9318 18.1624C13.836 18.1576 13.5825 18.0516 13.458 17.7176C13.3584 17.4504 13.5147 17.2116 13.687 17.0956C13.8067 17.0151 14.0996 16.8674 14.3139 16.9208C14.5283 16.9742 14.6063 17.1792 14.6186 17.2751L14.3318 17.1719C14.2655 17.1481 14.1423 17.1956 14.0579 17.2291C13.9082 17.2884 13.7524 17.3663 13.643 17.3986L13.9306 17.9618C14.0144 18.0576 14.1615 18.1056 14.2368 18.0855Z" fill="#3FB47C"/>
<path d="M12.2375 17.1225C12.2446 17.1224 12.2512 17.1222 12.2572 17.1221C12.251 17.1229 12.2445 17.1231 12.2375 17.1225C12.1495 17.1236 11.9897 17.1188 11.9243 17.0915C11.836 17.0547 11.6345 16.8693 11.633 16.5134C11.6318 16.2286 11.8613 16.0571 12.0634 16.0063C12.2037 15.9711 12.53 15.9314 12.713 16.054C12.896 16.1767 12.8983 16.3957 12.8767 16.4899L12.6429 16.296C12.5889 16.2512 12.4566 16.2542 12.3658 16.2571C12.2045 16.2623 12.0311 16.2828 11.9172 16.2762L11.9926 16.9026C12.0382 17.021 12.1598 17.1158 12.2375 17.1225Z" fill="#3FB47C"/>
<path d="M10.692 15.5415C10.6987 15.5438 10.7049 15.5459 10.7106 15.5478C10.7046 15.5466 10.6983 15.5444 10.692 15.5415C10.6089 15.5128 10.4604 15.4543 10.4084 15.4066C10.3382 15.3421 10.2129 15.0998 10.3347 14.7648C10.4321 14.4968 10.7071 14.4132 10.9146 14.4338C11.0586 14.4482 11.379 14.5212 11.5085 14.6983C11.638 14.8754 11.5645 15.082 11.5115 15.1632L11.3589 14.9019C11.3237 14.8416 11.1983 14.7997 11.1119 14.7717C10.9586 14.7221 10.7886 14.6827 10.6838 14.6379L10.538 15.2522C10.5398 15.3787 10.6213 15.509 10.692 15.5415Z" fill="#3FB47C"/>
<path d="M9.78676 13.5334C9.79221 13.5378 9.79733 13.5419 9.80206 13.5456C9.79679 13.5424 9.79168 13.5383 9.78676 13.5334C9.71859 13.4784 9.59926 13.3732 9.56691 13.3107C9.52323 13.2264 9.48938 12.9563 9.7197 12.6827C9.90396 12.4638 10.1914 12.4782 10.3791 12.5678C10.5095 12.63 10.7854 12.8069 10.8458 13.0171C10.9062 13.2273 10.7656 13.3966 10.6877 13.455L10.6347 13.1579C10.6225 13.0893 10.5192 13.0075 10.4477 12.952C10.3208 12.8535 10.1747 12.7591 10.0917 12.6816L9.74208 13.2094C9.70004 13.329 9.73152 13.4789 9.78676 13.5334Z" fill="#3FB47C"/>
<path d="M9.63088 11.3404C9.63448 11.3464 9.63788 11.3519 9.64103 11.357C9.63721 11.3522 9.63383 11.3466 9.63088 11.3404C9.58588 11.2656 9.51014 11.1264 9.50135 11.0568C9.4895 10.9627 9.55112 10.6976 9.86222 10.5183C10.1111 10.3749 10.3762 10.4856 10.5217 10.6332C10.6227 10.7357 10.8207 10.9952 10.8047 11.2132C10.7887 11.4311 10.598 11.5427 10.5046 11.5712L10.5576 11.2741C10.5699 11.2055 10.5011 11.0938 10.4531 11.0175C10.368 10.882 10.2633 10.7439 10.2122 10.643L9.70101 11.0208C9.62013 11.119 9.59782 11.2705 9.63088 11.3404Z" fill="#3FB47C"/>
<path d="M10.2432 9.2269C10.2445 9.23373 10.2458 9.24012 10.247 9.24597C10.2451 9.24013 10.2438 9.23375 10.2432 9.2269C10.2268 9.14139 10.2038 8.98502 10.2196 8.91659C10.241 8.82421 10.3907 8.59586 10.7451 8.53261C11.0285 8.482 11.2393 8.67564 11.3249 8.86355C11.3844 8.99402 11.4807 9.3048 11.3903 9.50421C11.2998 9.70361 11.082 9.74396 10.9844 9.73921L11.137 9.47796C11.1722 9.41762 11.1463 9.2894 11.1276 9.20145C11.0944 9.04539 11.0439 8.88018 11.0308 8.76806L10.4197 8.95031C10.3097 9.01518 10.2363 9.15006 10.2432 9.2269Z" fill="#3FB47C"/>
<path d="M11.5499 7.44789C11.5488 7.45476 11.5478 7.46118 11.5469 7.46709C11.5471 7.46096 11.5481 7.45453 11.5499 7.44789C11.5641 7.362 11.5965 7.20727 11.6351 7.14832C11.6872 7.06875 11.9068 6.90477 12.2617 6.96513C12.5456 7.01342 12.6767 7.26664 12.6921 7.47217C12.7028 7.61486 12.6858 7.93946 12.5318 8.09626C12.3779 8.25307 12.1592 8.21735 12.0691 8.17989L12.3029 7.98598C12.3569 7.9412 12.3769 7.81193 12.3898 7.72296C12.4126 7.56511 12.4223 7.39278 12.4487 7.28297L11.8114 7.24764C11.6857 7.27143 11.57 7.37335 11.5499 7.44789Z" fill="#3FB47C"/>
<path d="M13.3933 6.21793C13.3899 6.224 13.3867 6.2297 13.3838 6.23494C13.3862 6.22925 13.3894 6.22356 13.3933 6.21793C13.4364 6.14201 13.5204 6.00758 13.5771 5.96524C13.6535 5.90807 13.9167 5.82823 14.2293 6.00493C14.4793 6.14629 14.5149 6.42855 14.4583 6.6269C14.419 6.76462 14.2906 7.06387 14.0917 7.15917C13.8928 7.25447 13.6997 7.14698 13.628 7.08132L13.9148 6.97815C13.981 6.95432 14.0445 6.8396 14.0874 6.76035C14.1634 6.61974 14.2322 6.46109 14.295 6.36682L13.7084 6.11818C13.582 6.09801 13.438 6.15469 13.3933 6.21793Z" fill="#3FB47C"/>
</g>
<defs>
<clipPath id="clip0_440_1218">
<rect width="32" height="24" rx="2" fill="white"/>
</clipPath>
</defs>
</svg>
