<svg width="24" height="24" viewBox="0 0 24 24" fill="none" xmlns="http://www.w3.org/2000/svg">
<g clip-path="url(#clip0_440_1215)">
<rect width="24" height="24" rx="12" fill="#485CC2"/>
<path d="M0 20H24V24H0V20Z" fill="#D74B4B"/>
<path d="M0 0H24V4H0V0Z" fill="#D74B4B"/>
<circle cx="12" cy="12" r="7.5" fill="#F9F9F9"/>
<path d="M8.17355 14.6456H7.89587L7.96894 14.8649V15.0256L8.17355 15.1279C8.23688 15.1279 8.308 15.163 8.08586 15.3033C7.86372 15.4436 8.05176 15.4299 8.17355 15.4056L8.78736 15.3033L9.07965 15.201C9.18682 15.201 9.42455 15.1864 9.51809 15.1279C9.635 15.0548 10.0004 15.201 9.92729 15.3033C9.86884 15.3851 10.1173 15.4056 10.2488 15.4056H11.0088L11.5787 15.7125H11.7687L12.5579 15.6248L12.821 15.5517L13.3325 15.4056H13.6979L14.1363 15.3033L14.6916 15.4056H15.2324L15.9339 15.6248L15.817 15.4056L15.9339 15.201V15.0256L16.1531 14.8649L15.9339 14.7333L15.2324 14.4703H14.1363L13.6979 14.1341L10.7896 13.8857L10.5265 14.1341L10.3365 14.0172L9.51809 14.5579L9.40117 14.368V14.1341L8.50968 14.6456L8.17355 14.2949V14.6456Z" fill="#3FB47C"/>
<path d="M9.6516 15.8917C9.86707 16.0689 10.2387 16.3227 10.6746 16.5279C11.1062 16.731 11.634 16.9023 12.1508 16.8756C12.6676 16.9023 13.1954 16.731 13.627 16.5279C14.0629 16.3227 14.4346 16.0689 14.65 15.8917L14.2371 15.3897C14.0606 15.5349 13.7343 15.759 13.3502 15.9398C12.9618 16.1226 12.5141 16.2453 12.1508 16.2265C11.7876 16.2453 11.3398 16.1226 10.9514 15.9398C10.5673 15.759 10.241 15.5349 10.0645 15.3897L9.6516 15.8917Z" fill="#E6E6E6"/>
<path d="M11.8621 10.8956C11.8826 10.8271 11.8706 10.6846 11.8621 10.6219L11.4516 10.1002L11.5713 10.0317L11.768 10.2883L11.8193 10.1002L11.768 9.57844L11.4516 9.30475H10.8272L10.3483 8.94554L10.639 8.88567L10.7075 9.06528L11.0068 9.21923L11.289 9.15936L11.3489 8.88567H11.4516V9.10804L11.6996 9.36462L11.9904 9.10804L11.8621 8.70607L11.768 8.38107L11.4516 8.21856L11.3489 8.0133L10.9384 7.89356L11.1351 7.84225L11.3489 7.89356V7.63698L11.4516 7.67975V8.0133L11.5713 8.21856L11.8193 8.30409L11.8621 7.57711L12.1358 7.84225L11.9391 8.21856L12.0331 8.88567L12.3667 8.56067V8.21856L12.5121 8.07317L12.4693 7.84225L12.3667 7.3804L12.5548 7.42317V7.74817L13.0595 7.63698L12.6746 8.0133H13.2989L13.222 7.57711L13.2989 7.5258L13.4443 7.89356L13.5299 8.30409L12.6746 8.38107L12.5121 8.30409L12.4693 8.46659H12.7173L12.1412 9.05968L12.2398 9.25163L12.3414 9.64023L12.3064 9.88179L12.5374 9.73825V9.40739H12.6389V9.73825L12.954 9.57844L13.2989 9.30475L13.2516 8.57947C13.2808 8.5678 13.3391 8.55146 13.3391 8.57947C13.3391 8.60748 13.3601 9.03925 13.3706 9.25163L14.0463 8.50595L14.1198 8.56067V8.61098L14.0708 8.70607L13.1186 9.64023L12.6746 9.9343L12.3064 10.1373L12.2924 10.8956H11.8621Z" fill="#962122"/>
<path d="M10.2668 8.56685L10.0182 8.17263L9.95146 7.99674L10.2668 8.37884L10.3942 8.51227V7.99674H10.4973V8.37884L10.5822 8.51227L10.2668 8.56685Z" fill="#962122"/>
<path d="M9.69306 8.11609L9.62341 8.32505H9.69306L9.81246 8.22554H10.1309L10.3299 8.11609L10.4891 8.22554L10.5488 8.03649H10.6881V7.93698L10.7379 7.87728L10.8075 7.71807H10.6383C10.5886 7.71807 10.6383 7.57877 10.5488 7.57877C10.4772 7.57877 10.373 7.51907 10.3299 7.48921V7.57877H10.1309C10.1077 7.6252 10.0493 7.71807 10.0015 7.71807H9.86222V7.80763H9.75276L9.69306 7.93698L9.62341 8.03649L9.69306 8.11609Z" fill="#3FB47C"/>
<path d="M12.2619 7.30443L12.0983 7.45188L12.1589 7.48622L12.3118 7.45852L12.5889 7.61551L12.816 7.6184L12.9005 7.79212L13.0457 7.65708L13.1669 7.72576L13.2159 7.63919L13.2886 7.61178L13.4277 7.50761L13.2806 7.42421C13.2373 7.39968 13.3493 7.30301 13.2713 7.25886C13.209 7.22353 13.1478 7.12024 13.125 7.07301L13.0809 7.15093L12.9077 7.05281C12.8647 7.08176 12.7681 7.13378 12.7265 7.11023L12.6053 7.04155L12.5612 7.11946L12.4659 7.06549L12.3502 7.1486L12.2406 7.20083L12.2619 7.30443Z" fill="#3FB47C"/>
<path d="M11.5268 7.69343L11.4057 7.80258L11.4505 7.828L11.5637 7.8075L11.7688 7.92371L11.9369 7.92585L11.9995 8.05445L12.107 7.95448L12.1967 8.00532L12.233 7.94124L12.2868 7.92095L12.3898 7.84384L12.2809 7.7821C12.2488 7.76394 12.3317 7.69238 12.274 7.6597C12.2279 7.63355 12.1826 7.55709 12.1657 7.52212L12.133 7.5798L12.0049 7.50717C11.973 7.5286 11.9015 7.5671 11.8707 7.54967L11.781 7.49883L11.7483 7.55651L11.6778 7.51656L11.5922 7.57808L11.511 7.61674L11.5268 7.69343Z" fill="#3FB47C"/>
<path d="M11.9988 7.24699L12.0493 6.9856L11.9659 6.99657L11.8384 7.13463L11.4569 7.18481L11.2356 7.34734L11.0276 7.24125L10.9858 7.47723L10.8189 7.49918L10.8345 7.61843L10.7843 7.69781L10.7259 7.89958L10.9287 7.87293C10.9883 7.86509 10.9506 8.03987 11.0579 8.02576C11.1438 8.01447 11.278 8.06961 11.3344 8.09859L11.3203 7.99126L11.5588 7.95991C11.5793 7.9006 11.6346 7.7801 11.6918 7.77258L11.8588 7.75063L11.8447 7.6433L11.9758 7.62606L12.027 7.46163L12.0948 7.33141L11.9988 7.24699Z" fill="#3FB47C"/>
<path d="M11.9596 9.76702L12.0983 9.45972L11.9922 9.44885L11.7949 9.58173L11.3101 9.53204L10.99 9.66764L10.7647 9.47614L10.6443 9.75469L10.4322 9.73295L10.4166 9.88446L10.3316 9.9676L10.2007 10.1991L10.4582 10.2255C10.534 10.2333 10.4365 10.4376 10.5728 10.4516C10.6819 10.4628 10.8312 10.57 10.8922 10.6221L10.9062 10.4858L11.2092 10.5168C11.2518 10.4498 11.3551 10.3175 11.4279 10.3249L11.64 10.3466L11.6539 10.2103L11.8206 10.2274L11.9317 10.0397L12.0533 9.89909L11.9596 9.76702Z" fill="#3FB47C"/>
<path d="M11.7043 8.59144L11.9 8.27037L11.7841 8.24376L11.5475 8.36372L11.0177 8.2421L10.6447 8.34821L10.4217 8.10528L10.2501 8.39704L10.0183 8.34384L9.98032 8.5094L9.87474 8.58973L9.69804 8.82802L9.97949 8.89263C10.0623 8.91163 9.92628 9.12441 10.0753 9.15862C10.1945 9.18598 10.345 9.3251 10.4053 9.39123L10.4395 9.24223L10.7706 9.31824C10.827 9.24985 10.9596 9.11762 11.0391 9.13586L11.2709 9.18907L11.3051 9.04006L11.4872 9.08187L11.6359 8.88945L11.7898 8.75049L11.7043 8.59144Z" fill="#3FB47C"/>
<path d="M12.353 9.23697L12.0815 9.49715L12.1867 9.55257L12.4462 9.49729L12.9271 9.75065L13.3148 9.74368L13.4682 10.0357L13.7088 9.79763L13.9192 9.90848L13.9983 9.75819L14.121 9.70761L14.3529 9.52257L14.0974 9.38798C14.0222 9.34839 14.2082 9.17758 14.073 9.10632C13.9648 9.04931 13.855 8.87627 13.8136 8.79688L13.7423 8.93214L13.4418 8.77379C13.3697 8.82545 13.2077 8.91927 13.1355 8.88126L12.9251 8.77042L12.8539 8.90568L12.6886 8.81859L12.4955 8.96645L12.3111 9.06132L12.353 9.23697Z" fill="#3FB47C"/>
<path d="M12.4223 10.1281L12.253 10.2904L12.3186 10.325L12.4805 10.2905L12.7805 10.4486L13.0223 10.4442L13.118 10.6263L13.2681 10.4779L13.3993 10.547L13.4487 10.4533L13.5252 10.4217L13.6698 10.3063L13.5105 10.2223C13.4636 10.1976 13.5796 10.0911 13.4952 10.0466C13.4277 10.0111 13.3593 9.90314 13.3335 9.85361L13.289 9.93798L13.1015 9.83921C13.0566 9.87143 12.9555 9.92996 12.9105 9.90625L12.7793 9.83711L12.7348 9.92148L12.6317 9.86715L12.5112 9.95939L12.3962 10.0186L12.4223 10.1281Z" fill="#3FB47C"/>
<path d="M13.5275 8.31337L13.6978 8.5324L13.615 8.56158L13.4315 8.49341L13.0533 8.62682L12.7711 8.58018L12.6278 8.7769L12.4777 8.57735L12.3122 8.63571L12.2705 8.51752L12.1864 8.46745L12.037 8.30752L12.2379 8.23665C12.297 8.21581 12.1795 8.07118 12.2859 8.03366C12.371 8.00365 12.4697 7.8891 12.5084 7.83557L12.5459 7.94195L12.7823 7.85857C12.8294 7.904 12.9376 7.98985 12.9943 7.96984L13.1598 7.91148L13.1973 8.01785L13.3273 7.97199L13.4525 8.10063L13.5769 8.18964L13.5275 8.31337Z" fill="#3FB47C"/>
<path d="M14.7509 8.29246L14.9768 8.59398L14.8705 8.63149L14.6312 8.53435L14.1451 8.70583L13.7786 8.63541L13.5982 8.89874L13.3988 8.62414L13.1861 8.69916L13.1292 8.53772L13.0191 8.46764L12.8216 8.24684L13.0799 8.15574C13.1558 8.12895 13.0001 7.92972 13.1369 7.88149C13.2463 7.84291 13.3711 7.68995 13.4198 7.6183L13.4711 7.7636L13.7749 7.65642C13.837 7.71926 13.9792 7.83851 14.0522 7.81279L14.2649 7.73776L14.3161 7.88307L14.4832 7.82412L14.6484 8.00185L14.8117 8.12579L14.7509 8.29246Z" fill="#3FB47C"/>
<path d="M7.38843 10.51L7.5204 10.6703L7.80321 10.3215L8.01061 10.2084L8.55265 9.91141L10.6879 8.83202L10.5889 8.67648L9.37751 9.29394L8.18029 9.79829L7.75608 10.001L7.43556 10.2838L7.38843 10.51Z" fill="#962122"/>
<path d="M10.5194 8.66538L10.111 8.86472L10.252 9.13699V9.62804C10.5554 9.6086 10.816 9.40277 10.9084 9.30229L10.6264 8.99599L10.5194 8.66538Z" fill="#E6E6E6"/>
<path d="M7.92476 10.261L8.02876 10.729L8.37976 11.132L8.84776 10.69V11.327H9.97876V10.625L10.0438 11.041L10.1868 11.262H10.2908L10.3818 11.158V10.872H11.1358C11.1141 10.8027 10.9954 10.6692 10.6938 10.69C10.3922 10.7108 10.2994 10.7593 10.2908 10.781L10.2648 9.79301C10.2604 9.75401 10.1894 9.66561 9.93976 9.62401C9.86609 9.60234 9.71876 9.50441 9.71876 9.28601V8.68801H9.12076V9.09101C9.12509 9.19067 9.16756 9.39001 9.30276 9.39001L9.26376 9.55901L8.54876 9.91001V10.209L8.39276 10.43L8.24976 10.326L8.27576 10.209L8.35376 10.118V9.92301L8.24976 9.87101L8.22376 9.92301L8.24976 9.97501V10.092L7.92476 10.261Z" fill="#E77D42"/>
<path d="M7.72976 10.027V9.91001L7.96376 9.72801H8.11976L8.19776 9.81901L7.96376 10.027L7.83376 9.96201L7.72976 10.027Z" fill="#E77D42"/>
<path d="M9.26376 8.40201C9.10776 8.47481 9.10343 8.62301 9.12076 8.68801H9.71876V8.92201H9.82276C9.84443 8.85701 9.88516 8.70101 9.87476 8.59701C9.86436 8.49301 9.73176 8.40634 9.66676 8.37601C9.59743 8.35434 9.41976 8.32921 9.26376 8.40201Z" fill="#333333"/>
<path d="M9.47176 9.16901H9.26376C9.26376 9.24181 9.40243 9.24268 9.47176 9.23401V9.16901Z" fill="#E6E6E6"/>
<path d="M9.35476 8.88301C9.35476 8.90455 9.31984 8.92201 9.27676 8.92201C9.23368 8.92201 9.19876 8.90455 9.19876 8.88301C9.19876 8.86147 9.23368 8.84401 9.27676 8.84401C9.31984 8.84401 9.35476 8.86147 9.35476 8.88301Z" fill="#E6E6E6"/>
<path d="M9.64076 8.88301C9.64076 8.90455 9.60584 8.92201 9.56276 8.92201C9.51968 8.92201 9.48476 8.90455 9.48476 8.88301C9.48476 8.86147 9.51968 8.84401 9.56276 8.84401C9.60584 8.84401 9.64076 8.86147 9.64076 8.88301Z" fill="#E6E6E6"/>
<path d="M9.30276 8.88301C9.30276 8.89274 9.29112 8.90062 9.27676 8.90062C9.2624 8.90062 9.25076 8.89274 9.25076 8.88301C9.25076 8.87328 9.2624 8.8654 9.27676 8.8654C9.29112 8.8654 9.30276 8.87328 9.30276 8.88301Z" fill="#333333"/>
<path d="M9.58876 8.88301C9.58876 8.89274 9.57712 8.90062 9.56276 8.90062C9.5484 8.90062 9.53676 8.89274 9.53676 8.88301C9.53676 8.87328 9.5484 8.8654 9.56276 8.8654C9.57712 8.8654 9.58876 8.87328 9.58876 8.88301Z" fill="#333333"/>
<path d="M8.53139 15.1405V14.8054L8.96223 14.7028L9.02378 15.0174L8.96223 15.2499L8.53139 15.1405Z" fill="#E77D42"/>
<path d="M9.70082 14.8328L9.64611 14.6413H10.1522L10.6993 14.7781L10.6172 14.8943L9.70082 14.8328Z" fill="#E77D42"/>
<path d="M8.7092 11.6527L8.8665 11.345H9.97437L10.1453 12.9863L10.2548 14.6345H9.59824L9.63927 13.1094L9.44095 12.4597L9.18107 13.1915V14.6345L8.79126 14.8943L8.44932 14.7849L8.62714 13.465L8.7092 11.6527Z" fill="#E6E6E6"/>
<path d="M16.8686 10.51L16.7366 10.6703L16.4538 10.3215L16.2464 10.2083L15.7044 9.9114L12.8625 8.64495C12.7735 8.60528 12.7338 8.50073 12.7741 8.41201C12.8157 8.32048 12.9254 8.28245 13.0147 8.32866L14.8795 9.29393L16.0767 9.79828L16.501 10.001L16.8215 10.2838L16.8686 10.51Z" fill="#E77D42"/>
<path d="M16.3323 10.261L16.2283 10.729L15.8773 11.132L15.4093 10.69V11.327H14.2783V10.625L14.2133 11.041L14.0703 11.262H13.9663L13.8753 11.158V10.872H13.1213C13.1429 10.8027 13.2617 10.6692 13.5633 10.69C13.8649 10.7108 13.9576 10.7593 13.9663 10.781L13.9923 9.793C13.9966 9.754 14.0677 9.6656 14.3173 9.624C14.3909 9.60233 14.5383 9.5044 14.5383 9.286V8.688H15.1363V9.091C15.1319 9.19066 15.0895 9.39 14.9543 9.39L14.9933 9.559L15.7083 9.91V10.209L15.8643 10.43L16.0073 10.326L15.9813 10.209L15.9033 10.118V9.923L16.0073 9.871L16.0333 9.923L16.0073 9.975V10.092L16.3323 10.261Z" fill="#962122"/>
<path d="M16.5273 10.027V9.91L16.2933 9.728H16.1373L16.0593 9.819L16.2933 10.027L16.4233 9.962L16.5273 10.027Z" fill="#962122"/>
<path d="M14.9933 8.402C15.1493 8.4748 15.1536 8.623 15.1363 8.688H14.5383V8.922H14.4343C14.4126 8.857 14.3719 8.701 14.3823 8.597C14.3927 8.493 14.5253 8.40633 14.5903 8.376C14.6596 8.35433 14.8373 8.3292 14.9933 8.402Z" fill="#333333"/>
<path d="M14.7853 9.169H14.9933C14.9933 9.2418 14.8546 9.24266 14.7853 9.234V9.169Z" fill="#E6E6E6"/>
<path d="M14.9023 8.883C14.9023 8.90454 14.9372 8.922 14.9803 8.922C15.0233 8.922 15.0583 8.90454 15.0583 8.883C15.0583 8.86146 15.0233 8.844 14.9803 8.844C14.9372 8.844 14.9023 8.86146 14.9023 8.883Z" fill="#E6E6E6"/>
<path d="M14.6163 8.883C14.6163 8.90454 14.6512 8.922 14.6943 8.922C14.7373 8.922 14.7723 8.90454 14.7723 8.883C14.7723 8.86146 14.7373 8.844 14.6943 8.844C14.6512 8.844 14.6163 8.86146 14.6163 8.883Z" fill="#E6E6E6"/>
<path d="M14.9543 8.883C14.9543 8.89272 14.9659 8.90061 14.9803 8.90061C14.9946 8.90061 15.0063 8.89272 15.0063 8.883C15.0063 8.87327 14.9946 8.86539 14.9803 8.86539C14.9659 8.86539 14.9543 8.87327 14.9543 8.883Z" fill="#333333"/>
<path d="M14.6683 8.883C14.6683 8.89272 14.6799 8.90061 14.6943 8.90061C14.7086 8.90061 14.7203 8.89272 14.7203 8.883C14.7203 8.87327 14.7086 8.86539 14.6943 8.86539C14.6799 8.86539 14.6683 8.87327 14.6683 8.883Z" fill="#333333"/>
<path d="M15.7256 15.1405V14.8054L15.2948 14.7028L15.2332 15.0174L15.2948 15.2499L15.7256 15.1405Z" fill="#962122"/>
<path d="M14.5562 14.8328L14.6109 14.6413H14.1048L13.5577 14.7781L13.6398 14.8943L14.5562 14.8328Z" fill="#962122"/>
<path d="M15.5478 11.6527L15.3905 11.345H14.2827L14.1117 12.9863L14.0023 14.6344H14.6588L14.6178 13.1094L14.8161 12.4597L15.076 13.1915V14.6344L15.4658 14.8943L15.8077 14.7849L15.6299 13.465L15.5478 11.6527Z" fill="#E6E6E6"/>
<path d="M13.8699 10.8782H12.1152L12.1152 15.4767C13.1469 15.4767 13.8699 13.9828 13.8699 13.1875V10.8782Z" fill="#F8D74C"/>
<path d="M10.3738 10.8782H12.1285L12.1285 15.4767C11.0968 15.4767 10.3738 13.9828 10.3738 13.1875V10.8782Z" fill="#E6E6E6"/>
<mask id="mask0_440_1215" style="mask-type:alpha" maskUnits="userSpaceOnUse" x="10" y="10" width="4" height="6">
<path d="M13.8699 10.8782H12.1152L12.1152 15.4767C13.1469 15.4767 13.8699 13.9828 13.8699 13.1875V10.8782Z" fill="#F8D74C"/>
<path d="M10.3738 10.8782H12.1285L12.1285 15.4767C11.0968 15.4767 10.3738 13.9828 10.3738 13.1875V10.8782Z" fill="#E6E6E6"/>
</mask>
<g mask="url(#mask0_440_1215)">
<path d="M12.1305 12.5077L10.4804 13.9231L10.3501 14.072L11.7338 15.859L12.9437 16.0327L13.9427 14.1402L12.1305 12.5077Z" fill="#64BEDB"/>
</g>
<path fill-rule="evenodd" clip-rule="evenodd" d="M12.0966 17.7391C15.3392 17.7391 17.9679 15.1407 17.9679 11.9355C17.9679 8.73017 15.3392 6.13177 12.0966 6.13177C8.85391 6.13177 6.22523 8.73017 6.22523 11.9355C6.22523 15.1407 8.85391 17.7391 12.0966 17.7391ZM12.0966 17.9182C15.4392 17.9182 18.149 15.2396 18.149 11.9355C18.149 8.63129 15.4392 5.95273 12.0966 5.95273C8.75388 5.95273 6.04411 8.63129 6.04411 11.9355C6.04411 15.2396 8.75388 17.9182 12.0966 17.9182Z" fill="#962122"/>
<path d="M11.5512 5.68537C11.5458 5.68991 11.5409 5.69419 11.5364 5.69815C11.5405 5.69359 11.5455 5.68932 11.5512 5.68537C11.6179 5.62858 11.7434 5.53068 11.8113 5.51003C11.9029 5.48216 12.1778 5.4961 12.4104 5.76782C12.5965 5.9852 12.5322 6.26246 12.4104 6.42971C12.3258 6.54583 12.1017 6.78365 11.8817 6.80595C11.6618 6.82824 11.5176 6.66196 11.4729 6.57603H11.7781C11.8486 6.57603 11.9479 6.48969 12.0157 6.42971C12.1358 6.32331 12.2553 6.19747 12.3469 6.13012L11.8817 5.69815C11.7699 5.63645 11.6151 5.64106 11.5512 5.68537Z" fill="#3FB47C"/>
<path d="M13.7632 5.91445C13.7566 5.91691 13.7504 5.91926 13.7448 5.92145C13.7503 5.91856 13.7564 5.91624 13.7632 5.91445C13.8455 5.88364 13.9973 5.83406 14.0682 5.83761C14.164 5.8424 14.4175 5.94843 14.542 6.28241C14.6417 6.54959 14.4853 6.7884 14.313 6.90438C14.1933 6.9849 13.9004 7.1326 13.6861 7.0792C13.4717 7.0258 13.3937 6.82078 13.3814 6.72494L13.6682 6.82811C13.7345 6.85194 13.8577 6.8044 13.9421 6.77093C14.0918 6.71156 14.2476 6.63372 14.357 6.60141L14.0694 6.03821C13.9856 5.94243 13.8385 5.89441 13.7632 5.91445Z" fill="#3FB47C"/>
<path d="M15.7625 6.87754C15.7554 6.87763 15.7488 6.87776 15.7428 6.87791C15.749 6.87706 15.7555 6.87695 15.7625 6.87754C15.8505 6.87642 16.0103 6.88116 16.0757 6.90847C16.164 6.94534 16.3656 7.13068 16.367 7.48662C16.3682 7.77137 16.1387 7.94294 15.9366 7.99366C15.7963 8.02887 15.47 8.06863 15.287 7.94598C15.104 7.82333 15.1017 7.60429 15.1234 7.5101L15.3571 7.70401C15.4111 7.74879 15.5434 7.74578 15.6343 7.74286C15.7955 7.73769 15.9689 7.71722 16.0828 7.72385L16.0074 7.09736C15.9618 6.97905 15.8402 6.88418 15.7625 6.87754Z" fill="#3FB47C"/>
<path d="M17.308 8.45847C17.3013 8.45618 17.2951 8.45407 17.2894 8.45218C17.2955 8.45345 17.3017 8.45557 17.308 8.45847C17.3911 8.48718 17.5396 8.54566 17.5916 8.59344C17.6619 8.65795 17.7871 8.90023 17.6653 9.23521C17.5679 9.5032 17.2929 9.58682 17.0854 9.56616C16.9414 9.55181 16.621 9.47885 16.4915 9.30174C16.362 9.12463 16.4356 8.91799 16.4885 8.83681L16.6411 9.09806C16.6764 9.1584 16.8017 9.20028 16.8881 9.22826C17.0414 9.27791 17.2114 9.31729 17.3162 9.36206L17.4621 8.74784C17.4602 8.62127 17.3787 8.491 17.308 8.45847Z" fill="#3FB47C"/>
<path d="M18.2133 10.4666C18.2078 10.4622 18.2027 10.4581 18.198 10.4544C18.2032 10.4576 18.2083 10.4617 18.2133 10.4666C18.2814 10.5216 18.4007 10.6268 18.4331 10.6893C18.4768 10.7737 18.5106 11.0437 18.2803 11.3173C18.0961 11.5362 17.8087 11.5218 17.6209 11.4322C17.4905 11.37 17.2146 11.1931 17.1542 10.9829C17.0938 10.7727 17.2345 10.6034 17.3123 10.5451L17.3653 10.8421C17.3776 10.9107 17.4808 10.9925 17.5523 11.048C17.6792 11.1465 17.8253 11.2409 17.9083 11.3184L18.2579 10.7906C18.3 10.671 18.2685 10.5211 18.2133 10.4666Z" fill="#3FB47C"/>
<path d="M18.3691 12.6596C18.3655 12.6536 18.3621 12.6481 18.359 12.643C18.3628 12.6478 18.3662 12.6534 18.3691 12.6596C18.4141 12.7344 18.4899 12.8736 18.4986 12.9432C18.5105 13.0373 18.4489 13.3025 18.1378 13.4817C17.8889 13.6251 17.6238 13.5144 17.4783 13.3668C17.3773 13.2643 17.1793 13.0048 17.1953 12.7868C17.2113 12.5689 17.402 12.4573 17.4954 12.4288L17.4424 12.7259C17.4301 12.7945 17.4989 12.9062 17.5469 12.9825C17.632 13.118 17.7367 13.2561 17.7878 13.357L18.299 12.9792C18.3799 12.881 18.4022 12.7295 18.3691 12.6596Z" fill="#3FB47C"/>
<path d="M17.7568 14.7731C17.7555 14.7663 17.7542 14.7599 17.753 14.754C17.7549 14.7599 17.7562 14.7663 17.7568 14.7731C17.7732 14.8586 17.7962 15.015 17.7804 15.0834C17.759 15.1758 17.6093 15.4041 17.255 15.4674C16.9715 15.518 16.7607 15.3244 16.6751 15.1364C16.6156 15.006 16.5193 14.6952 16.6098 14.4958C16.7002 14.2964 16.918 14.256 17.0156 14.2608L16.863 14.522C16.8278 14.5824 16.8537 14.7106 16.8724 14.7986C16.9056 14.9546 16.9561 15.1198 16.9693 15.2319L17.5803 15.0497C17.6903 14.9848 17.7637 14.8499 17.7568 14.7731Z" fill="#3FB47C"/>
<path d="M16.4501 16.5521C16.4512 16.5452 16.4523 16.5388 16.4532 16.5329C16.4529 16.539 16.4519 16.5455 16.4501 16.5521C16.4359 16.638 16.4035 16.7927 16.3649 16.8517C16.3128 16.9313 16.0932 17.0952 15.7383 17.0349C15.4544 16.9866 15.3233 16.7334 15.3079 16.5278C15.2972 16.3851 15.3142 16.0605 15.4682 15.9037C15.6222 15.7469 15.8408 15.7827 15.9309 15.8201L15.6971 16.014C15.6431 16.0588 15.6231 16.1881 15.6103 16.277C15.5874 16.4349 15.5777 16.6072 15.5513 16.717L16.1886 16.7524C16.3144 16.7286 16.43 16.6266 16.4501 16.5521Z" fill="#3FB47C"/>
<path d="M14.6067 17.7821C14.6101 17.776 14.6133 17.7703 14.6162 17.7651C14.6138 17.7708 14.6106 17.7764 14.6067 17.7821C14.5636 17.858 14.4796 17.9924 14.4229 18.0348C14.3465 18.0919 14.0833 18.1718 13.7708 17.9951C13.5207 17.8537 13.4851 17.5715 13.5417 17.3731C13.581 17.2354 13.7094 16.9361 13.9083 16.8408C14.1072 16.7455 14.3003 16.853 14.372 16.9187L14.0852 17.0219C14.019 17.0457 13.9555 17.1604 13.9126 17.2397C13.8366 17.3803 13.7678 17.5389 13.705 17.6332L14.2916 17.8818C14.418 17.902 14.562 17.8453 14.6067 17.7821Z" fill="#3FB47C"/>
<path d="M12.4488 18.3146C12.4542 18.3101 12.4591 18.3058 12.4636 18.3019C12.4595 18.3064 12.4545 18.3107 12.4488 18.3146C12.3821 18.3714 12.2566 18.4693 12.1888 18.49C12.0971 18.5178 11.8222 18.5039 11.5896 18.2322C11.4035 18.0148 11.4678 17.7375 11.5896 17.5703C11.6742 17.4542 11.8984 17.2163 12.1183 17.1941C12.3382 17.1718 12.4824 17.338 12.5271 17.424H12.2219C12.1514 17.424 12.0521 17.5103 11.9843 17.5703C11.8642 17.6767 11.7447 17.8025 11.6531 17.8699L12.1183 18.3019C12.2301 18.3635 12.3849 18.3589 12.4488 18.3146Z" fill="#3FB47C"/>
<path d="M10.2368 18.0855C10.2434 18.0831 10.2496 18.0807 10.2552 18.0786C10.2497 18.0814 10.2436 18.0838 10.2368 18.0855C10.1545 18.1164 10.0027 18.1659 9.93179 18.1624C9.83604 18.1576 9.58255 18.0516 9.45799 17.7176C9.35835 17.4504 9.51467 17.2116 9.68701 17.0956C9.80667 17.0151 10.0996 16.8674 10.3139 16.9208C10.5283 16.9742 10.6063 17.1792 10.6186 17.2751L10.3318 17.1719C10.2655 17.1481 10.1423 17.1956 10.0579 17.2291C9.9082 17.2884 9.75237 17.3663 9.64296 17.3986L9.93064 17.9618C10.0144 18.0576 10.1615 18.1056 10.2368 18.0855Z" fill="#3FB47C"/>
<path d="M8.23754 17.1225C8.24458 17.1224 8.25116 17.1222 8.2572 17.1221C8.25105 17.1229 8.24447 17.1231 8.23754 17.1225C8.1495 17.1236 7.98971 17.1188 7.92429 17.0915C7.83597 17.0547 7.63445 16.8693 7.63297 16.5134C7.63178 16.2286 7.8613 16.0571 8.06338 16.0063C8.20369 15.9711 8.53004 15.9314 8.713 16.054C8.89596 16.1767 8.89834 16.3957 8.87666 16.4899L8.64288 16.296C8.58888 16.2512 8.45663 16.2542 8.36575 16.2571C8.20452 16.2623 8.03115 16.2828 7.91716 16.2762L7.99262 16.9026C8.03816 17.021 8.15979 17.1158 8.23754 17.1225Z" fill="#3FB47C"/>
<path d="M6.69204 15.5415C6.69869 15.5438 6.70492 15.5459 6.71064 15.5478C6.70457 15.5466 6.69835 15.5444 6.69204 15.5415C6.60893 15.5128 6.46041 15.4543 6.40839 15.4066C6.33815 15.3421 6.21291 15.0998 6.33468 14.7648C6.43209 14.4968 6.70713 14.4132 6.91457 14.4338C7.0586 14.4482 7.37903 14.5212 7.50852 14.6983C7.63801 14.8754 7.56445 15.082 7.51149 15.1632L7.3589 14.9019C7.32365 14.8416 7.19833 14.7997 7.11193 14.7717C6.95863 14.7221 6.78863 14.6827 6.68381 14.6379L6.53795 15.2522C6.53981 15.3787 6.62128 15.509 6.69204 15.5415Z" fill="#3FB47C"/>
<path d="M5.78676 13.5334C5.79221 13.5378 5.79733 13.5419 5.80206 13.5456C5.79679 13.5424 5.79168 13.5383 5.78676 13.5334C5.71859 13.4784 5.59926 13.3732 5.56691 13.3107C5.52323 13.2264 5.48938 12.9563 5.7197 12.6827C5.90396 12.4638 6.19135 12.4782 6.37914 12.5678C6.50952 12.63 6.78537 12.8069 6.84577 13.0171C6.90617 13.2273 6.76555 13.3966 6.68769 13.455L6.6347 13.1579C6.62246 13.0893 6.51919 13.0075 6.44768 12.952C6.3208 12.8535 6.17468 12.7591 6.09167 12.6816L5.74208 13.2094C5.70004 13.329 5.73152 13.4789 5.78676 13.5334Z" fill="#3FB47C"/>
<path d="M5.63088 11.3404C5.63448 11.3464 5.63788 11.3519 5.64103 11.357C5.63721 11.3522 5.63383 11.3466 5.63088 11.3404C5.58588 11.2656 5.51014 11.1264 5.50135 11.0568C5.4895 10.9627 5.55112 10.6976 5.86222 10.5183C6.11111 10.3749 6.37618 10.4856 6.52166 10.6332C6.62266 10.7357 6.82067 10.9952 6.8047 11.2132C6.78872 11.4311 6.598 11.5427 6.50464 11.5712L6.55763 11.2741C6.56987 11.2055 6.50111 11.0938 6.45311 11.0175C6.36797 10.882 6.26335 10.7439 6.21216 10.643L5.70101 11.0208C5.62013 11.119 5.59782 11.2705 5.63088 11.3404Z" fill="#3FB47C"/>
<path d="M6.24322 9.2269C6.24453 9.23373 6.2458 9.24012 6.247 9.24597C6.24508 9.24013 6.24383 9.23375 6.24322 9.2269C6.22682 9.14139 6.20379 8.98502 6.21964 8.91659C6.24104 8.82421 6.39069 8.59586 6.74505 8.53261C7.02854 8.482 7.23933 8.67564 7.32495 8.86355C7.3844 8.99402 7.48068 9.3048 7.39026 9.50421C7.29983 9.70361 7.08202 9.74396 6.98441 9.73921L7.137 9.47796C7.17225 9.41762 7.14628 9.2894 7.12759 9.20145C7.09444 9.04539 7.04394 8.88018 7.03075 8.76806L6.41969 8.95031C6.30973 9.01518 6.23634 9.15006 6.24322 9.2269Z" fill="#3FB47C"/>
<path d="M7.54991 7.44789C7.54877 7.45476 7.54776 7.46118 7.54686 7.46709C7.54708 7.46096 7.54811 7.45453 7.54991 7.44789C7.56408 7.362 7.59654 7.20727 7.63512 7.14832C7.68719 7.06875 7.90683 6.90477 8.26171 6.96513C8.54561 7.01342 8.67668 7.26664 8.69212 7.47217C8.70284 7.61486 8.68578 7.93946 8.53182 8.09626C8.37785 8.25307 8.15921 8.21735 8.06914 8.17989L8.30292 7.98598C8.35691 7.9412 8.37688 7.81193 8.38975 7.72296C8.4126 7.56511 8.42231 7.39278 8.44871 7.28297L7.81144 7.24764C7.68566 7.27143 7.57003 7.37335 7.54991 7.44789Z" fill="#3FB47C"/>
<path d="M9.39334 6.21793C9.3899 6.224 9.38672 6.2297 9.38384 6.23494C9.38616 6.22925 9.38936 6.22356 9.39334 6.21793C9.43638 6.14201 9.52042 6.00758 9.57706 5.96524C9.65352 5.90807 9.91666 5.82823 10.2293 6.00493C10.4793 6.14629 10.5149 6.42855 10.4583 6.6269C10.419 6.76462 10.2906 7.06387 10.0917 7.15917C9.89276 7.25447 9.69966 7.14698 9.62798 7.08132L9.91475 6.97815C9.98099 6.95432 10.0445 6.8396 10.0874 6.76035C10.1634 6.61974 10.2322 6.46109 10.295 6.36682L9.70839 6.11818C9.58196 6.09801 9.43803 6.15469 9.39334 6.21793Z" fill="#3FB47C"/>
</g>
<defs>
<clipPath id="clip0_440_1215">
<rect width="24" height="24" rx="12" fill="white"/>
</clipPath>
</defs>
</svg>
