<svg width="24" height="24" viewBox="0 0 24 24" fill="none" xmlns="http://www.w3.org/2000/svg">
<g clip-path="url(#clip0_440_1209)">
<rect width="24" height="24" rx="12" fill="#F8D74C"/>
<path d="M0 16H24V24H0V16Z" fill="#3FB47C"/>
<path d="M0 0H24V8H0V0Z" fill="#D74B4B"/>
<path d="M9.37577 12.9692L9.46836 11.0516L10.5741 11.9176L11.7276 13.5465C11.4066 13.787 10.6165 14.2475 10.0239 14.165C9.43133 14.0826 9.34491 13.3334 9.37577 12.9692Z" fill="#D74B4B"/>
<path d="M9.77989 11.2956L9.70871 12.6814C9.6801 12.9988 9.76021 13.6517 10.3095 13.7235C10.7234 13.7777 11.2413 13.5632 11.5988 13.3645L10.5741 11.9176L9.77989 11.2956Z" fill="#F8D74C"/>
<path d="M10.1786 11.6079L10.1532 12.1041C10.1245 12.4215 10.2047 13.0743 10.754 13.1462C10.952 13.1721 11.1739 13.1365 11.3906 13.0706L10.5741 11.9176L10.1786 11.6079Z" fill="#3FB47C"/>
<path d="M14.6852 12.9692L14.5926 11.0516L13.4869 11.9176L12.3333 13.5465C12.6543 13.787 13.4445 14.2475 14.0371 14.165C14.6296 14.0826 14.7161 13.3334 14.6852 12.9692Z" fill="#D74B4B"/>
<path d="M14.2811 11.2956L14.3523 12.6814C14.3809 12.9988 14.3008 13.6517 13.7514 13.7235C13.3375 13.7777 12.8197 13.5632 12.4622 13.3645L13.4869 11.9176L14.2811 11.2956Z" fill="#F8D74C"/>
<path d="M13.8823 11.6079L13.9078 12.1041C13.9364 12.4215 13.8563 13.0743 13.307 13.1462C13.1089 13.1721 12.8871 13.1365 12.6704 13.0706L13.4869 11.9176L13.8823 11.6079Z" fill="#3FB47C"/>
<path d="M10.1906 12.5568L10.2832 10.6393L11.3889 11.5053L12.5424 13.1341C12.2215 13.3747 11.4313 13.8352 10.8387 13.7527C10.2461 13.6702 10.1597 12.9211 10.1906 12.5568Z" fill="#D74B4B"/>
<path d="M10.5947 10.8833L10.5235 12.2691C10.4949 12.5865 10.575 13.2393 11.1244 13.3112C11.5383 13.3653 12.0561 13.1509 12.4136 12.9522L11.3889 11.5053L10.5947 10.8833Z" fill="#F8D74C"/>
<path d="M10.9935 11.1956L10.968 11.6917C10.9394 12.0092 11.0195 12.662 11.5688 12.7339C11.7669 12.7598 11.9887 12.7242 12.2054 12.6582L11.3889 11.5053L10.9935 11.1956Z" fill="#3FB47C"/>
<path d="M13.8703 12.5568L13.7777 10.6393L12.672 11.5053L11.5185 13.1341C11.8395 13.3747 12.6296 13.8352 13.2222 13.7527C13.8148 13.6702 13.9012 12.9211 13.8703 12.5568Z" fill="#D74B4B"/>
<path d="M13.4662 10.8833L13.5374 12.2691C13.566 12.5865 13.4859 13.2393 12.9365 13.3112C12.5226 13.3653 12.0048 13.1509 11.6473 12.9522L12.672 11.5053L13.4662 10.8833Z" fill="#F8D74C"/>
<path d="M13.0675 11.1956L13.0929 11.6917C13.1215 12.0092 13.0414 12.662 12.4921 12.7339C12.294 12.7598 12.0722 12.7242 11.8555 12.6582L12.672 11.5053L13.0675 11.1956Z" fill="#3FB47C"/>
<path d="M9.85728 12.7629L9.94987 10.8453L11.0556 11.7113L12.2091 13.3402C11.8881 13.5807 11.098 14.0412 10.5054 13.9587C9.91283 13.8763 9.82641 13.1271 9.85728 12.7629Z" fill="#D74B4B"/>
<path d="M10.2614 11.0893L10.1902 12.4751C10.1616 12.7925 10.2417 13.4454 10.7911 13.5172C11.205 13.5714 11.7228 13.3569 12.0803 13.1582L11.0556 11.7113L10.2614 11.0893Z" fill="#F8D74C"/>
<path d="M10.6601 11.4016L10.6347 11.8978C10.6061 12.2152 10.6862 12.8681 11.2355 12.9399C11.4336 12.9658 11.6554 12.9302 11.8721 12.8643L11.0556 11.7113L10.6601 11.4016Z" fill="#3FB47C"/>
<path d="M14.2037 12.7629L14.1111 10.8453L13.0054 11.7113L11.8518 13.3402C12.1728 13.5807 12.963 14.0412 13.5555 13.9587C14.1481 13.8763 14.2346 13.1271 14.2037 12.7629Z" fill="#D74B4B"/>
<path d="M13.7996 11.0893L13.8708 12.4751C13.8994 12.7925 13.8193 13.4454 13.2699 13.5172C12.856 13.5714 12.3382 13.3569 11.9807 13.1582L13.0054 11.7113L13.7996 11.0893Z" fill="#F8D74C"/>
<path d="M13.4008 11.4016L13.4263 11.8978C13.4549 12.2152 13.3748 12.8681 12.8255 12.9399C12.6274 12.9658 12.4056 12.9302 12.1889 12.8643L13.0054 11.7113L13.4008 11.4016Z" fill="#3FB47C"/>
<path fill-rule="evenodd" clip-rule="evenodd" d="M11.5863 15.6977L10.9721 16L10.9259 15.8899L11.5401 15.5876L11.5863 15.6977Z" fill="#3FB47C"/>
<path fill-rule="evenodd" clip-rule="evenodd" d="M12.1915 15.6977L12.8056 16L12.8518 15.8899L12.2377 15.5876L12.1915 15.6977Z" fill="#3FB47C"/>
<path fill-rule="evenodd" clip-rule="evenodd" d="M8.01273 12.4254C7.88701 10.6977 8.5824 8.78032 8.97947 8L9.08347 8.05693C8.69167 8.8269 8.0066 10.7205 8.12999 12.4162C8.19157 13.2624 8.45394 14.0533 9.04839 14.633C9.64269 15.2126 10.5774 15.5894 12 15.5894V15.7113C10.5579 15.7113 9.59054 15.3292 8.96784 14.7219C8.34529 14.1147 8.07571 13.2909 8.01273 12.4254Z" fill="#3FB47C"/>
<path d="M8.55179 8.0801L8.45984 9.52267L8.24139 10.4535L8.08046 11.2989L8.03201 12.0599L8.08046 12.5269L8.24168 13.3085L8.45984 13.9609C8.45984 14.2191 9.10797 14.7815 9.43204 15.0305L10.3679 15.4596C10.0184 15.4596 9.2874 15.1735 8.96556 15.0305L7.47125 13.5402L8.45984 14.2913L7.11496 12.4673L8.45984 14.0171L8.29889 13.7787L7.22991 12.205L8.14942 13.0991L7 11.3824L7.96549 12.5269L7.11496 10.6671L7.96549 12.205L7.17241 10.0591L7.96549 11.6685L7.47125 9.74912L7.96549 11.2989L7.75862 9.74912L8.08046 10.6671L7.96549 8.9742L8.14942 9.91602L8.24139 8.4258L8.29889 9.52267L8.55179 8.0801Z" fill="#3FB47C"/>
<path d="M9.12206 8.47183L8.38178 9.65131L8.06033 11.1203V12.7893L8.11357 13.1069L8.21011 13.5053L8.48908 13.9731V14.2138L8.95044 14.9817L9.72293 15.2154L9.25085 14.2138L9.12206 14.8481V13.5462L8.95044 14.6256L8.84314 12.9564L8.6071 14.1248L8.75731 12.1885L8.28523 13.4683L8.6822 11.5987L8.11357 12.9007L8.75731 10.9422L8.11357 12.0105L8.75731 10.5305L8.11357 11.532L8.95044 9.26186L8.21011 10.6306L9.12206 8.47183Z" fill="#3FB47C"/>
<path fill-rule="evenodd" clip-rule="evenodd" d="M10.9663 10.1379C10.9337 9.6575 11.114 9.12434 11.2169 8.90735L11.2439 8.92318C11.1423 9.13729 10.9647 9.66385 10.9967 10.1354C11.0127 10.3707 11.0807 10.5906 11.2348 10.7518C11.3889 10.913 11.6312 11.0178 12 11.0178V11.0517C11.6262 11.0517 11.3754 10.9454 11.2139 10.7765C11.0525 10.6077 10.9826 10.3786 10.9663 10.1379Z" fill="#3FB47C"/>
<path d="M11.1061 8.92962L11.0822 9.33077L11.0256 9.5896L10.9839 9.8247L10.9713 10.0363L10.9839 10.1662L11.0257 10.3835L11.0822 10.5649C11.0822 10.6367 11.2502 10.7931 11.3343 10.8623L11.5769 10.9817C11.4863 10.9817 11.2968 10.9021 11.2133 10.8623L10.8259 10.4479L11.0822 10.6568L10.7335 10.1496L11.0822 10.5806L11.0405 10.5143L10.7633 10.0767L11.0017 10.3253L10.7037 9.84791L10.954 10.1662L10.7335 9.649L10.954 10.0767L10.7484 9.47993L10.954 9.92747L10.8259 9.39373L10.954 9.8247L10.9004 9.39373L10.9839 9.649L10.954 9.17825L11.0017 9.44015L11.0256 9.02575L11.0405 9.33077L11.1061 8.92962Z" fill="#3FB47C"/>
<path d="M11.2539 9.03855L11.062 9.36654L10.9786 9.77503V10.2391L10.9924 10.3274L11.0175 10.4382L11.0898 10.5683V10.6353L11.2094 10.8488L11.4097 10.9138L11.2873 10.6353L11.2539 10.8116V10.4496L11.2094 10.7498L11.1816 10.2856L11.1204 10.6105L11.1593 10.0721L11.0369 10.4279L11.1399 9.90807L10.9924 10.2701L11.1593 9.7255L10.9924 10.0226L11.1593 9.61101L10.9924 9.8895L11.2094 9.25824L11.0175 9.63885L11.2539 9.03855Z" fill="#3FB47C"/>
<path fill-rule="evenodd" clip-rule="evenodd" d="M15.9873 12.4254C16.113 10.6977 15.4176 8.78032 15.0205 8L14.9165 8.05693C15.3083 8.8269 15.9934 10.7205 15.87 12.4162C15.8084 13.2624 15.5461 14.0533 14.9516 14.633C14.3573 15.2126 13.4226 15.5894 12 15.5894V15.7113C13.4421 15.7113 14.4095 15.3292 15.0322 14.7219C15.6547 14.1147 15.9243 13.2909 15.9873 12.4254Z" fill="#3FB47C"/>
<path d="M15.4482 8.0801L15.5402 9.52267L15.7586 10.4535L15.9195 11.2989L15.968 12.0599L15.9195 12.5269L15.7583 13.3085L15.5402 13.9609C15.5402 14.2191 14.892 14.7815 14.568 15.0305L13.6321 15.4596C13.9816 15.4596 14.7126 15.1735 15.0344 15.0305L16.5288 13.5402L15.5402 14.2913L16.885 12.4673L15.5402 14.0171L15.7011 13.7787L16.7701 12.205L15.8506 13.0991L17 11.3824L16.0345 12.5269L16.885 10.6671L16.0345 12.205L16.8276 10.0591L16.0345 11.6685L16.5288 9.74912L16.0345 11.2989L16.2414 9.74912L15.9195 10.6671L16.0345 8.9742L15.8506 9.91602L15.7586 8.4258L15.7011 9.52267L15.4482 8.0801Z" fill="#3FB47C"/>
<path d="M14.8779 8.47183L15.6182 9.65131L15.9397 11.1203V12.7893L15.8864 13.1069L15.7899 13.5053L15.5109 13.9731V14.2138L15.0496 14.9817L14.2771 15.2154L14.7492 14.2138L14.8779 14.8481V13.5462L15.0496 14.6256L15.1569 12.9564L15.3929 14.1248L15.2427 12.1885L15.7148 13.4683L15.3178 11.5987L15.8864 12.9007L15.2427 10.9422L15.8864 12.0105L15.2427 10.5305L15.8864 11.532L15.0496 9.26186L15.7899 10.6306L14.8779 8.47183Z" fill="#3FB47C"/>
<path fill-rule="evenodd" clip-rule="evenodd" d="M13.0042 10.1379C13.0359 9.6575 12.8607 9.12434 12.7607 8.90735L12.7346 8.92318C12.8332 9.13729 13.0058 9.66385 12.9747 10.1354C12.9592 10.3707 12.8931 10.5906 12.7434 10.7518C12.5937 10.913 12.3583 11.0178 12 11.0178V11.0517C12.3632 11.0517 12.6068 10.9454 12.7637 10.7765C12.9205 10.6077 12.9884 10.3786 13.0042 10.1379Z" fill="#3FB47C"/>
<path d="M12.8685 8.92962L12.8916 9.33077L12.9466 9.5896L12.9872 9.8247L12.9994 10.0363L12.9872 10.1662L12.9466 10.3835L12.8916 10.5649C12.8916 10.6367 12.7284 10.7931 12.6468 10.8623L12.4111 10.9817C12.4991 10.9817 12.6832 10.9021 12.7642 10.8623L13.1406 10.4479L12.8916 10.6568L13.2303 10.1496L12.8916 10.5806L12.9321 10.5143L13.2014 10.0767L12.9698 10.3253L13.2593 9.84791L13.0161 10.1662L13.2303 9.649L13.0161 10.0767L13.2159 9.47993L13.0161 9.92747L13.1406 9.39373L13.0161 9.8247L13.0682 9.39373L12.9872 9.649L13.0161 9.17825L12.9698 9.44015L12.9466 9.02575L12.9321 9.33077L12.8685 8.92962Z" fill="#3FB47C"/>
<path d="M12.7248 9.03855L12.9113 9.36654L12.9922 9.77503V10.2391L12.9788 10.3274L12.9545 10.4382L12.8842 10.5683V10.6353L12.7681 10.8488L12.5735 10.9138L12.6924 10.6353L12.7248 10.8116V10.4496L12.7681 10.7498L12.7951 10.2856L12.8545 10.6105L12.8167 10.0721L12.9356 10.4279L12.8356 9.90807L12.9788 10.2701L12.8167 9.7255L12.9788 10.0226L12.8167 9.61101L12.9788 9.8895L12.7681 9.25824L12.9545 9.63885L12.7248 9.03855Z" fill="#3FB47C"/>
<path d="M10.3333 9.89704C10.437 9.84755 10.9444 9.65649 11.1852 9.56714H11.6296V9.64961C11.6481 9.7046 11.737 9.81456 11.9444 9.81456H12.0741C12.2815 9.81456 12.3704 9.7046 12.3889 9.64961V9.56714H12.8333C13.0741 9.65649 13.5815 9.84755 13.6852 9.89704L12.8333 10.0414L12.2407 10.3919L12.5 10.8455L12.2037 10.8043L12.0092 10.5287L11.8148 10.8043L11.5185 10.8455L11.6296 10.3919L11.1852 10.0414L10.3333 9.89704Z" fill="#962122"/>
<path d="M11.0892 12.6213L11.4894 13.1219L10.8699 13.7359C10.7537 13.8511 10.5766 13.8408 10.4745 13.713L10.4443 13.6753C10.3421 13.5475 10.3535 13.3505 10.4697 13.2353L11.0892 12.6213Z" fill="#E77D42"/>
<path d="M12.9557 12.6213L12.5555 13.1219L13.175 13.7359C13.2913 13.8511 13.4683 13.8408 13.5705 13.713L13.6007 13.6753C13.7029 13.5475 13.6915 13.3505 13.5752 13.2353L12.9557 12.6213Z" fill="#E77D42"/>
<path d="M11.5371 13.6906L11.8334 13.8762L11.5371 14.4329V13.6906Z" fill="#3FB47C"/>
<path d="M11.8704 14.9278L11.9074 13.8556L11.6297 13.7731C11.6358 13.8418 11.6445 14.0576 11.6297 14.371C11.6148 14.6845 11.784 14.8728 11.8704 14.9278Z" fill="#D74B4B"/>
<path d="M11.2963 13.402L10.7037 14.3298L11.0556 14.5772L11.1482 14.4123L11.2963 14.4535L11.6482 13.67L11.2963 13.402Z" fill="#962122"/>
<path d="M12.5 13.6906L12.2037 13.8762L12.5 14.4329V13.6906Z" fill="#3FB47C"/>
<path d="M12.1667 14.9278L12.1297 13.8556L12.4074 13.7731C12.4013 13.8418 12.3926 14.0576 12.4074 14.371C12.4223 14.6845 12.2531 14.8728 12.1667 14.9278Z" fill="#D74B4B"/>
<path d="M12.7408 13.402L13.3334 14.3298L12.9815 14.5772L12.8889 14.4123L12.7408 14.4535L12.3889 13.67L12.7408 13.402Z" fill="#962122"/>
<ellipse cx="12.0371" cy="9.93816" rx="0.148148" ry="0.123711" fill="#F9F9F9"/>
<path d="M11.6481 9.91745L11.5926 9.9793H11.9259L12.037 9.85559H11.7593L11.6481 9.91745Z" fill="#E77D42"/>
<path d="M13.2963 12.3094C13.2963 13.2318 12.7242 13.9795 12.0185 13.9795C11.3128 13.9795 10.7407 13.2318 10.7407 12.3094C10.7407 11.387 11.3128 10.6393 12.0185 10.6393C12.7242 10.6393 13.2963 11.387 13.2963 12.3094Z" fill="#E77D42"/>
<path fill-rule="evenodd" clip-rule="evenodd" d="M12.0185 13.6084C12.492 13.6084 12.9629 13.0848 12.9629 12.3094C12.9629 11.5339 12.492 11.0104 12.0185 11.0104C11.545 11.0104 11.0741 11.5339 11.0741 12.3094C11.0741 13.0848 11.545 13.6084 12.0185 13.6084ZM12.0185 13.9795C12.7242 13.9795 13.2963 13.2318 13.2963 12.3094C13.2963 11.387 12.7242 10.6393 12.0185 10.6393C11.3128 10.6393 10.7407 11.387 10.7407 12.3094C10.7407 13.2318 11.3128 13.9795 12.0185 13.9795Z" fill="#64BEDB"/>
<path d="M12.0516 11.303C12.0522 11.2978 12.0589 11.2978 12.0595 11.303L12.0854 11.5428C12.0859 11.5474 12.0915 11.5482 12.093 11.544L12.176 11.3208C12.1778 11.316 12.1843 11.318 12.1836 11.3232L12.1506 11.562C12.15 11.5665 12.1551 11.569 12.1576 11.5654L12.2915 11.3755C12.2944 11.3714 12.3001 11.3753 12.2982 11.3801L12.2087 11.6001C12.207 11.6042 12.2114 11.6082 12.2146 11.6055L12.3895 11.4629C12.3932 11.4598 12.3978 11.4653 12.3948 11.4693L12.2554 11.6542C12.2528 11.6577 12.256 11.6628 12.2599 11.6612L12.4627 11.5766C12.467 11.5747 12.4701 11.5814 12.4663 11.5844L12.2874 11.7204C12.284 11.723 12.2859 11.7289 12.2899 11.7285L12.5057 11.7081C12.5103 11.7076 12.5117 11.715 12.5073 11.7167L12.3021 11.7938C12.2982 11.7953 12.2986 11.8015 12.3026 11.8024L12.5153 11.8476C12.5199 11.8486 12.5194 11.8561 12.5148 11.8564L12.2985 11.8689C12.2945 11.8691 12.2933 11.8753 12.297 11.8773L12.4908 11.9849C12.495 11.9872 12.4928 11.9943 12.4882 11.9932L12.277 11.9401C12.273 11.9391 12.2704 11.9447 12.2734 11.9477L12.4341 12.1097C12.4376 12.1132 12.4337 12.1194 12.4295 12.1169L12.239 12.0022C12.2354 12.0001 12.2316 12.0046 12.2337 12.0085L12.3493 12.2128C12.3518 12.2173 12.3465 12.222 12.3431 12.2184L12.1874 12.0506C12.1844 12.0474 12.1796 12.0507 12.1808 12.055L12.2426 12.2866C12.244 12.2916 12.2378 12.2946 12.2354 12.2901L12.126 12.0816C12.1239 12.0777 12.1185 12.0794 12.1186 12.0839L12.1222 12.3255C12.1222 12.3307 12.1156 12.3318 12.1144 12.3267L12.0594 12.093C12.0584 12.0886 12.0528 12.0886 12.0517 12.093L11.9967 12.3267C11.9956 12.3318 11.9889 12.3307 11.9889 12.3255L11.9925 12.0839C11.9926 12.0794 11.9872 12.0777 11.9851 12.0816L11.8757 12.2901C11.8733 12.2946 11.8671 12.2916 11.8685 12.2866L11.9303 12.055C11.9315 12.0507 11.9267 12.0474 11.9237 12.0506L11.768 12.2184C11.7646 12.222 11.7594 12.2173 11.7619 12.2128L11.8774 12.0085C11.8796 12.0046 11.8757 12.0001 11.8721 12.0022L11.6816 12.1169C11.6774 12.1194 11.6736 12.1132 11.677 12.1097L11.8377 11.9477C11.8407 11.9447 11.8381 11.9391 11.8341 11.9401L11.6229 11.9932C11.6183 11.9943 11.6161 11.9872 11.6203 11.9849L11.8141 11.8773C11.8178 11.8753 11.8166 11.8691 11.8126 11.8689L11.5964 11.8564C11.5917 11.8561 11.5912 11.8486 11.5958 11.8476L11.8085 11.8024C11.8125 11.8015 11.8129 11.7953 11.809 11.7938L11.6038 11.7167C11.5994 11.715 11.6008 11.7076 11.6054 11.7081L11.8212 11.7285C11.8252 11.7289 11.8271 11.723 11.8237 11.7204L11.6448 11.5844C11.641 11.5814 11.6441 11.5747 11.6485 11.5766L11.8512 11.6612C11.8551 11.6628 11.8583 11.6577 11.8557 11.6542L11.7163 11.4693C11.7133 11.4653 11.7179 11.4598 11.7217 11.4629L11.8965 11.6055C11.8998 11.6082 11.9041 11.6042 11.9024 11.6001L11.8129 11.3801C11.811 11.3753 11.8167 11.3714 11.8196 11.3755L11.9535 11.5654C11.956 11.569 11.9611 11.5665 11.9605 11.562L11.9275 11.3232C11.9268 11.318 11.9333 11.316 11.9351 11.3208L12.0181 11.544C12.0196 11.5482 12.0252 11.5474 12.0257 11.5428L12.0516 11.303Z" fill="#D74B4B"/>
<path fill-rule="evenodd" clip-rule="evenodd" d="M12.0815 11.5434L12.0556 11.3035L12.0296 11.5434C12.0286 11.5524 12.0175 11.5541 12.0144 11.5457L11.9314 11.3225L11.9644 11.5613C11.9657 11.5703 11.9554 11.5753 11.9504 11.5682L11.8165 11.3782L11.906 11.5982C11.9094 11.6065 11.9007 11.6144 11.8941 11.6091L11.7193 11.4665L11.8587 11.6514C11.864 11.6583 11.8575 11.6686 11.8499 11.6654L11.6471 11.5807L11.826 11.7168C11.8327 11.7219 11.829 11.7337 11.8208 11.7329L11.6051 11.7125L11.8103 11.7896C11.818 11.7925 11.8172 11.805 11.8092 11.8067L11.5966 11.852L11.8128 11.8645C11.8209 11.865 11.8232 11.8772 11.8159 11.8812L11.622 11.9889L11.8333 11.9358C11.8412 11.9338 11.8464 11.9449 11.8403 11.951L11.6797 12.113L11.8703 11.9983C11.8774 11.994 11.8851 12.0031 11.8807 12.0108L11.7652 12.2152L11.921 12.0474C11.9269 12.0411 11.9364 12.0476 11.9341 12.0563L11.8723 12.2878L11.9817 12.0794C11.9858 12.0715 11.9966 12.0749 11.9965 12.084L11.9929 12.3256L12.0479 12.0919C12.05 12.0831 12.0612 12.0831 12.0632 12.0919L12.1182 12.3256L12.1146 12.084C12.1145 12.0749 12.1253 12.0715 12.1294 12.0794L12.2388 12.2878L12.177 12.0563C12.1747 12.0476 12.1842 12.0411 12.1901 12.0474L12.3459 12.2152L12.2304 12.0108C12.226 12.0031 12.2337 11.994 12.2408 11.9983L12.4314 12.113L12.2708 11.951C12.2647 11.9449 12.2699 11.9338 12.2778 11.9358L12.4891 11.9889L12.2952 11.8812C12.2879 11.8772 12.2902 11.865 12.2983 11.8645L12.5146 11.852L12.3019 11.8067C12.2939 11.805 12.2931 11.7925 12.3008 11.7896L12.506 11.7125L12.2903 11.7329C12.2821 11.7337 12.2784 11.7219 12.2851 11.7168L12.464 11.5807L12.2613 11.6654C12.2536 11.6686 12.2472 11.6583 12.2524 11.6514L12.3918 11.4665L12.217 11.6091C12.2104 11.6144 12.2017 11.6065 12.2051 11.5982L12.2946 11.3782L12.1607 11.5682C12.1557 11.5753 12.1454 11.5703 12.1467 11.5613L12.1797 11.3225L12.0967 11.5457C12.0936 11.5541 12.0825 11.5524 12.0815 11.5434ZM12.0595 11.303C12.0589 11.2978 12.0522 11.2978 12.0516 11.303L12.0257 11.5428C12.0252 11.5474 12.0196 11.5482 12.0181 11.544L11.9351 11.3208C11.9333 11.316 11.9268 11.318 11.9275 11.3232L11.9605 11.562C11.9611 11.5665 11.956 11.569 11.9535 11.5654L11.8196 11.3755C11.8167 11.3714 11.811 11.3753 11.8129 11.3801L11.9024 11.6001C11.9041 11.6042 11.8998 11.6082 11.8965 11.6055L11.7217 11.4629C11.7179 11.4598 11.7133 11.4653 11.7163 11.4693L11.8557 11.6542C11.8583 11.6577 11.8551 11.6628 11.8512 11.6612L11.6485 11.5766C11.6441 11.5747 11.641 11.5814 11.6448 11.5844L11.8237 11.7204C11.8271 11.723 11.8252 11.7289 11.8212 11.7285L11.6054 11.7081C11.6008 11.7076 11.5994 11.715 11.6038 11.7167L11.809 11.7938C11.8129 11.7953 11.8125 11.8015 11.8085 11.8024L11.5958 11.8476C11.5912 11.8486 11.5917 11.8561 11.5964 11.8564L11.8126 11.8689C11.8166 11.8691 11.8178 11.8753 11.8141 11.8773L11.6203 11.9849C11.6161 11.9872 11.6183 11.9943 11.6229 11.9932L11.8341 11.9401C11.8381 11.9391 11.8407 11.9447 11.8377 11.9477L11.677 12.1097C11.6736 12.1132 11.6774 12.1194 11.6816 12.1169L11.8721 12.0022C11.8757 12.0001 11.8796 12.0046 11.8774 12.0085L11.7619 12.2128C11.7594 12.2173 11.7646 12.222 11.768 12.2184L11.9237 12.0506C11.9267 12.0474 11.9315 12.0507 11.9303 12.055L11.8685 12.2866C11.8671 12.2916 11.8733 12.2946 11.8757 12.2901L11.9851 12.0816C11.9872 12.0777 11.9926 12.0794 11.9925 12.0839L11.9889 12.3255C11.9889 12.3307 11.9956 12.3318 11.9967 12.3267L12.0517 12.093C12.0528 12.0886 12.0584 12.0886 12.0594 12.093L12.1144 12.3267C12.1156 12.3318 12.1222 12.3307 12.1222 12.3255L12.1186 12.0839C12.1185 12.0794 12.1239 12.0777 12.126 12.0816L12.2354 12.2901C12.2378 12.2946 12.244 12.2916 12.2426 12.2866L12.1808 12.055C12.1796 12.0507 12.1844 12.0474 12.1874 12.0506L12.3431 12.2184C12.3465 12.222 12.3518 12.2173 12.3493 12.2128L12.2337 12.0085C12.2316 12.0046 12.2354 12.0001 12.239 12.0022L12.4295 12.1169C12.4337 12.1194 12.4376 12.1132 12.4341 12.1097L12.2734 11.9477C12.2704 11.9447 12.273 11.9391 12.277 11.9401L12.4882 11.9932C12.4928 11.9943 12.495 11.9872 12.4908 11.9849L12.297 11.8773C12.2933 11.8753 12.2945 11.8691 12.2985 11.8689L12.5148 11.8564C12.5194 11.8561 12.5199 11.8486 12.5153 11.8476L12.3026 11.8024C12.2986 11.8015 12.2982 11.7953 12.3021 11.7938L12.5073 11.7167C12.5117 11.715 12.5103 11.7076 12.5057 11.7081L12.2899 11.7285C12.2859 11.7289 12.284 11.723 12.2874 11.7204L12.4663 11.5844C12.4701 11.5814 12.467 11.5747 12.4627 11.5766L12.2599 11.6612C12.256 11.6628 12.2528 11.6577 12.2554 11.6542L12.3948 11.4693C12.3978 11.4653 12.3932 11.4598 12.3895 11.4629L12.2146 11.6055C12.2114 11.6082 12.207 11.6042 12.2087 11.6001L12.2982 11.3801C12.3001 11.3753 12.2944 11.3714 12.2915 11.3755L12.1576 11.5654C12.1551 11.569 12.15 11.5665 12.1506 11.562L12.1836 11.3232C12.1843 11.318 12.1778 11.316 12.176 11.3208L12.093 11.544C12.0915 11.5482 12.0859 11.5474 12.0854 11.5428L12.0595 11.303Z" fill="#333333"/>
<path d="M11.967 11.732C11.9867 11.7175 12.0123 11.7179 12.0316 11.733C12.0385 11.7384 12.0426 11.7473 12.0426 11.7568V11.8042C12.0426 11.8104 12.0406 11.8164 12.0369 11.821L12.0202 11.8421L12.0281 11.8499L12.0448 11.8288C12.0502 11.822 12.0532 11.8132 12.0532 11.8042V11.7568C12.0532 11.7435 12.0474 11.731 12.0376 11.7233C12.0148 11.7054 11.9844 11.705 11.9612 11.7222L11.9456 11.7337L11.9515 11.7435L11.967 11.732Z" fill="#333333"/>
<path d="M12.1499 11.7222C12.1267 11.705 12.0963 11.7054 12.0735 11.7233C12.0637 11.731 12.0579 11.7435 12.0579 11.7568V11.8042C12.0579 11.8132 12.0609 11.822 12.0663 11.8288L12.083 11.8499L12.0909 11.8421L12.0742 11.821C12.0705 11.8164 12.0685 11.8104 12.0685 11.8042V11.7568C12.0685 11.7473 12.0726 11.7384 12.0795 11.733C12.0988 11.7179 12.1245 11.7175 12.1441 11.732L12.1596 11.7435L12.1655 11.7337L12.1499 11.7222Z" fill="#333333"/>
<path fill-rule="evenodd" clip-rule="evenodd" d="M11.9956 11.8008C11.972 11.8008 11.9529 11.7757 11.9529 11.7757C11.9529 11.7757 11.972 11.7505 11.9956 11.7505C12.0193 11.7505 12.0384 11.7757 12.0384 11.7757C12.0384 11.7757 12.0193 11.8008 11.9956 11.8008ZM11.9732 11.775L11.9724 11.7757L11.9732 11.7763C11.9799 11.7818 11.9879 11.7861 11.9956 11.7861C12.0034 11.7861 12.0113 11.7818 12.0181 11.7763L12.0189 11.7757L12.0181 11.775C12.0113 11.7695 12.0034 11.7653 11.9956 11.7653C11.9879 11.7653 11.9799 11.7695 11.9732 11.775Z" fill="#333333"/>
<path fill-rule="evenodd" clip-rule="evenodd" d="M12.1159 11.8008C12.0923 11.8008 12.0731 11.7757 12.0731 11.7757C12.0731 11.7757 12.0923 11.7505 12.1159 11.7505C12.1396 11.7505 12.1587 11.7757 12.1587 11.7757C12.1587 11.7757 12.1396 11.8008 12.1159 11.8008ZM12.0935 11.775L12.0927 11.7757L12.0935 11.7763C12.1002 11.7818 12.1082 11.7861 12.1159 11.7861C12.1237 11.7861 12.1316 11.7818 12.1384 11.7763L12.1392 11.7757L12.1384 11.775C12.1316 11.7695 12.1237 11.7653 12.1159 11.7653C12.1082 11.7653 12.1002 11.7695 12.0935 11.775Z" fill="#333333"/>
<path fill-rule="evenodd" clip-rule="evenodd" d="M12.0325 11.8664C12.035 11.8644 12.0379 11.8634 12.0409 11.8634H12.0488C12.0527 11.8634 12.0558 11.8669 12.0558 11.8712V11.8731C12.0558 11.8741 12.0565 11.8749 12.0575 11.8749C12.0584 11.8749 12.0591 11.8741 12.0591 11.8731V11.8712C12.0591 11.8669 12.0622 11.8634 12.0661 11.8634H12.074C12.077 11.8634 12.08 11.8644 12.0824 11.8664L12.1059 11.8845C12.1104 11.888 12.1102 11.8955 12.1055 11.8987L12.0762 11.9184C12.0705 11.9222 12.0641 11.9242 12.0575 11.9242C12.0509 11.9242 12.0444 11.9222 12.0387 11.9184L12.0094 11.8987C12.0047 11.8955 12.0045 11.888 12.009 11.8845L12.0325 11.8664ZM12.0409 11.8781C12.0406 11.8781 12.0403 11.8783 12.04 11.8785L12.0237 11.8911L12.0455 11.9058C12.0491 11.9082 12.0533 11.9095 12.0575 11.9095C12.0617 11.9095 12.0658 11.9082 12.0694 11.9058L12.0912 11.8911L12.0749 11.8785C12.0746 11.8783 12.0743 11.8781 12.074 11.8781H12.0716C12.0697 11.8848 12.0641 11.8897 12.0575 11.8897C12.0508 11.8897 12.0452 11.8848 12.0433 11.8781H12.0409Z" fill="#333333"/>
<path d="M11.0763 12.3995L12.0555 11.7938L12.9601 12.4105C12.9226 13.0806 12.5153 13.6083 12.0185 13.6083C11.5189 13.6083 11.11 13.0748 11.0763 12.3995Z" fill="#3FB47C"/>
<path d="M12.5185 12.5699C12.5185 12.5078 12.3278 12.4574 12.0926 12.4574C11.8573 12.4574 11.6666 12.5078 11.6666 12.5699H12.5185Z" fill="#377649"/>
<path d="M12.037 12.5699H12.1481V13.3196H12.037V12.5699Z" fill="#377649"/>
<path d="M12.4336 12.7779C12.4643 12.7241 12.324 12.584 12.1203 12.4649C11.9166 12.3459 11.7266 12.293 11.6959 12.3468L12.4336 12.7779Z" fill="#377649"/>
<path d="M11.7521 12.7787C11.7955 12.8226 11.9655 12.7218 12.1318 12.5534C12.2982 12.385 12.3978 12.2129 12.3544 12.169L11.7521 12.7787Z" fill="#377649"/>
<path d="M12.037 12.0825C12.0984 12.0825 12.1481 12.2755 12.1481 12.5136C12.1481 12.7517 12.0984 12.9448 12.037 12.9448V12.0825Z" fill="#377649"/>
<path d="M11.7778 12.9279V13.0516L11.963 13.134H12.1111L12.1667 13.0516L12.1852 12.8248L12.2222 12.8041V12.7629L12.1852 12.7423V12.701H12.1111L12.0741 12.8866H11.8148V12.9279H11.7778Z" fill="#F9F9F9"/>
<path fill-rule="evenodd" clip-rule="evenodd" d="M11.7908 13.2761L11.8093 13.0287L11.8573 13.0332L11.8388 13.2806L11.7908 13.2761Z" fill="#F9F9F9"/>
<path fill-rule="evenodd" clip-rule="evenodd" d="M11.8748 13.279L11.8734 13.0307L11.9215 13.0304L11.9229 13.2786L11.8748 13.279Z" fill="#F9F9F9"/>
<path fill-rule="evenodd" clip-rule="evenodd" d="M11.9867 13.2792L11.9836 13.0309L12.0318 13.0302L12.0349 13.2784L11.9867 13.2792Z" fill="#F9F9F9"/>
<path fill-rule="evenodd" clip-rule="evenodd" d="M12.1199 13.2817L12.0737 13.0388L12.1208 13.0277L12.167 13.2706L12.1199 13.2817Z" fill="#F9F9F9"/>
<path d="M8.4815 13.8763C8.4815 13.9332 8.44004 13.9794 8.38891 13.9794C8.33777 13.9794 8.29631 13.9332 8.29631 13.8763C8.29631 13.8194 8.33777 13.7732 8.38891 13.7732C8.44004 13.7732 8.4815 13.8194 8.4815 13.8763Z" fill="#D74B4B"/>
<path d="M8.22224 13.5876C8.22224 13.6446 8.18078 13.6907 8.12965 13.6907C8.07851 13.6907 8.03705 13.6446 8.03705 13.5876C8.03705 13.5307 8.07851 13.4845 8.12965 13.4845C8.18078 13.4845 8.22224 13.5307 8.22224 13.5876Z" fill="#D74B4B"/>
<path d="M8.55557 13.3402C8.55557 13.3971 8.51412 13.4433 8.46298 13.4433C8.41184 13.4433 8.37039 13.3971 8.37039 13.3402C8.37039 13.2833 8.41184 13.2371 8.46298 13.2371C8.51412 13.2371 8.55557 13.2833 8.55557 13.3402Z" fill="#D74B4B"/>
<path d="M8.29631 12.1856C8.29631 12.2425 8.25486 12.2887 8.20372 12.2887C8.15258 12.2887 8.11113 12.2425 8.11113 12.1856C8.11113 12.1286 8.15258 12.0825 8.20372 12.0825C8.25486 12.0825 8.29631 12.1286 8.29631 12.1856Z" fill="#D74B4B"/>
<path d="M8.03705 11.8969C8.03705 11.9538 7.9956 12 7.94446 12C7.89332 12 7.85187 11.9538 7.85187 11.8969C7.85187 11.84 7.89332 11.7938 7.94446 11.7938C7.9956 11.7938 8.03705 11.84 8.03705 11.8969Z" fill="#D74B4B"/>
<path d="M8.37039 11.6495C8.37039 11.7064 8.32893 11.7526 8.27779 11.7526C8.22666 11.7526 8.1852 11.7064 8.1852 11.6495C8.1852 11.5926 8.22666 11.5464 8.27779 11.5464C8.32893 11.5464 8.37039 11.5926 8.37039 11.6495Z" fill="#D74B4B"/>
<path d="M8.44446 10.866C8.44446 10.9229 8.40301 10.9691 8.35187 10.9691C8.30073 10.9691 8.25928 10.9229 8.25928 10.866C8.25928 10.809 8.30073 10.7629 8.35187 10.7629C8.40301 10.7629 8.44446 10.809 8.44446 10.866Z" fill="#D74B4B"/>
<path d="M8.1852 10.5773C8.1852 10.6343 8.14375 10.6804 8.09261 10.6804C8.04147 10.6804 8.00002 10.6343 8.00002 10.5773C8.00002 10.5204 8.04147 10.4742 8.09261 10.4742C8.14375 10.4742 8.1852 10.5204 8.1852 10.5773Z" fill="#D74B4B"/>
<path d="M8.51853 10.3299C8.51853 10.3868 8.47708 10.433 8.42594 10.433C8.3748 10.433 8.33335 10.3868 8.33335 10.3299C8.33335 10.273 8.3748 10.2268 8.42594 10.2268C8.47708 10.2268 8.51853 10.273 8.51853 10.3299Z" fill="#D74B4B"/>
<path d="M15.7408 14.0825C15.7408 14.1394 15.7822 14.1856 15.8334 14.1856C15.8845 14.1856 15.926 14.1394 15.926 14.0825C15.926 14.0255 15.8845 13.9794 15.8334 13.9794C15.7822 13.9794 15.7408 14.0255 15.7408 14.0825Z" fill="#333333"/>
<path d="M16.0001 13.7938C16.0001 13.8507 16.0415 13.8969 16.0926 13.8969C16.1438 13.8969 16.1852 13.8507 16.1852 13.7938C16.1852 13.7369 16.1438 13.6907 16.0926 13.6907C16.0415 13.6907 16.0001 13.7369 16.0001 13.7938Z" fill="#333333"/>
<path d="M15.6667 13.5464C15.6667 13.6033 15.7082 13.6495 15.7593 13.6495C15.8104 13.6495 15.8519 13.6033 15.8519 13.5464C15.8519 13.4894 15.8104 13.4433 15.7593 13.4433C15.7082 13.4433 15.6667 13.4894 15.6667 13.5464Z" fill="#333333"/>
<path d="M15.926 12.3917C15.926 12.4487 15.9674 12.4948 16.0186 12.4948C16.0697 12.4948 16.1112 12.4487 16.1112 12.3917C16.1112 12.3348 16.0697 12.2887 16.0186 12.2887C15.9674 12.2887 15.926 12.3348 15.926 12.3917Z" fill="#333333"/>
<path d="M16.1852 12.1031C16.1852 12.16 16.2267 12.2062 16.2778 12.2062C16.329 12.2062 16.3704 12.16 16.3704 12.1031C16.3704 12.0461 16.329 12 16.2778 12C16.2267 12 16.1852 12.0461 16.1852 12.1031Z" fill="#333333"/>
<path d="M15.8519 11.8557C15.8519 11.9126 15.8934 11.9588 15.9445 11.9588C15.9956 11.9588 16.0371 11.9126 16.0371 11.8557C16.0371 11.7987 15.9956 11.7526 15.9445 11.7526C15.8934 11.7526 15.8519 11.7987 15.8519 11.8557Z" fill="#333333"/>
<path d="M15.7778 11.0722C15.7778 11.1291 15.8193 11.1753 15.8704 11.1753C15.9216 11.1753 15.963 11.1291 15.963 11.0722C15.963 11.0152 15.9216 10.9691 15.8704 10.9691C15.8193 10.9691 15.7778 11.0152 15.7778 11.0722Z" fill="#333333"/>
<path d="M16.0371 10.7835C16.0371 10.8404 16.0785 10.8866 16.1297 10.8866C16.1808 10.8866 16.2223 10.8404 16.2223 10.7835C16.2223 10.7266 16.1808 10.6804 16.1297 10.6804C16.0785 10.6804 16.0371 10.7266 16.0371 10.7835Z" fill="#333333"/>
<path d="M15.7038 10.5361C15.7038 10.593 15.7452 10.6392 15.7963 10.6392C15.8475 10.6392 15.8889 10.593 15.8889 10.5361C15.8889 10.4791 15.8475 10.433 15.7963 10.433C15.7452 10.433 15.7038 10.4791 15.7038 10.5361Z" fill="#333333"/>
</g>
<defs>
<clipPath id="clip0_440_1209">
<rect width="24" height="24" rx="12" fill="white"/>
</clipPath>
</defs>
</svg>
