<svg width="32" height="24" viewBox="0 0 32 24" fill="none" xmlns="http://www.w3.org/2000/svg">
<g clip-path="url(#clip0_440_1213)">
<rect width="32" height="24" rx="2" fill="#F8D74C"/>
<path d="M0 16H32V24H0V16Z" fill="#3FB47C"/>
<path d="M0 0H32V8H0V0Z" fill="#D74B4B"/>
<path d="M13.3758 12.9692L13.4684 11.0516L14.5741 11.9176L15.7276 13.5465C15.4066 13.787 14.6165 14.2475 14.0239 14.165C13.4313 14.0826 13.3449 13.3334 13.3758 12.9692Z" fill="#D74B4B"/>
<path d="M13.7799 11.2956L13.7087 12.6814C13.6801 12.9988 13.7602 13.6517 14.3095 13.7235C14.7234 13.7777 15.2413 13.5632 15.5988 13.3645L14.5741 11.9176L13.7799 11.2956Z" fill="#F8D74C"/>
<path d="M14.1786 11.6079L14.1532 12.1041C14.1245 12.4215 14.2047 13.0743 14.754 13.1462C14.952 13.1721 15.1739 13.1365 15.3906 13.0706L14.5741 11.9176L14.1786 11.6079Z" fill="#3FB47C"/>
<path d="M18.6852 12.9692L18.5926 11.0516L17.4869 11.9176L16.3333 13.5465C16.6543 13.787 17.4445 14.2475 18.0371 14.165C18.6296 14.0826 18.7161 13.3334 18.6852 12.9692Z" fill="#D74B4B"/>
<path d="M18.2811 11.2956L18.3523 12.6814C18.3809 12.9988 18.3008 13.6517 17.7514 13.7235C17.3375 13.7777 16.8197 13.5632 16.4622 13.3645L17.4869 11.9176L18.2811 11.2956Z" fill="#F8D74C"/>
<path d="M17.8823 11.6079L17.9078 12.1041C17.9364 12.4215 17.8563 13.0743 17.307 13.1462C17.1089 13.1721 16.8871 13.1365 16.6704 13.0706L17.4869 11.9176L17.8823 11.6079Z" fill="#3FB47C"/>
<path d="M14.1906 12.5568L14.2832 10.6393L15.3889 11.5053L16.5424 13.1341C16.2215 13.3747 15.4313 13.8352 14.8387 13.7527C14.2461 13.6702 14.1597 12.9211 14.1906 12.5568Z" fill="#D74B4B"/>
<path d="M14.5947 10.8833L14.5235 12.2691C14.4949 12.5865 14.575 13.2393 15.1244 13.3112C15.5383 13.3653 16.0561 13.1509 16.4136 12.9522L15.3889 11.5053L14.5947 10.8833Z" fill="#F8D74C"/>
<path d="M14.9935 11.1956L14.968 11.6917C14.9394 12.0092 15.0195 12.662 15.5688 12.7339C15.7669 12.7598 15.9887 12.7242 16.2054 12.6582L15.3889 11.5053L14.9935 11.1956Z" fill="#3FB47C"/>
<path d="M17.8703 12.5568L17.7777 10.6393L16.672 11.5053L15.5185 13.1341C15.8395 13.3747 16.6296 13.8352 17.2222 13.7527C17.8148 13.6702 17.9012 12.9211 17.8703 12.5568Z" fill="#D74B4B"/>
<path d="M17.4662 10.8833L17.5374 12.2691C17.566 12.5865 17.4859 13.2393 16.9365 13.3112C16.5226 13.3653 16.0048 13.1509 15.6473 12.9522L16.672 11.5053L17.4662 10.8833Z" fill="#F8D74C"/>
<path d="M17.0675 11.1956L17.0929 11.6917C17.1215 12.0092 17.0414 12.662 16.4921 12.7339C16.294 12.7598 16.0722 12.7242 15.8555 12.6582L16.672 11.5053L17.0675 11.1956Z" fill="#3FB47C"/>
<path d="M13.8573 12.7629L13.9499 10.8453L15.0556 11.7113L16.2091 13.3402C15.8881 13.5807 15.098 14.0412 14.5054 13.9587C13.9128 13.8763 13.8264 13.1271 13.8573 12.7629Z" fill="#D74B4B"/>
<path d="M14.2614 11.0893L14.1902 12.4751C14.1616 12.7925 14.2417 13.4454 14.7911 13.5172C15.205 13.5714 15.7228 13.3569 16.0803 13.1582L15.0556 11.7113L14.2614 11.0893Z" fill="#F8D74C"/>
<path d="M14.6601 11.4016L14.6347 11.8978C14.6061 12.2152 14.6862 12.8681 15.2355 12.9399C15.4336 12.9658 15.6554 12.9302 15.8721 12.8643L15.0556 11.7113L14.6601 11.4016Z" fill="#3FB47C"/>
<path d="M18.2037 12.7629L18.1111 10.8453L17.0054 11.7113L15.8518 13.3402C16.1728 13.5807 16.963 14.0412 17.5555 13.9587C18.1481 13.8763 18.2346 13.1271 18.2037 12.7629Z" fill="#D74B4B"/>
<path d="M17.7996 11.0893L17.8708 12.4751C17.8994 12.7925 17.8193 13.4454 17.2699 13.5172C16.856 13.5714 16.3382 13.3569 15.9807 13.1582L17.0054 11.7113L17.7996 11.0893Z" fill="#F8D74C"/>
<path d="M17.4008 11.4016L17.4263 11.8978C17.4549 12.2152 17.3748 12.8681 16.8255 12.9399C16.6274 12.9658 16.4056 12.9302 16.1889 12.8643L17.0054 11.7113L17.4008 11.4016Z" fill="#3FB47C"/>
<path fill-rule="evenodd" clip-rule="evenodd" d="M15.5863 15.6977L14.9721 16L14.9259 15.8899L15.5401 15.5876L15.5863 15.6977Z" fill="#3FB47C"/>
<path fill-rule="evenodd" clip-rule="evenodd" d="M16.1915 15.6977L16.8056 16L16.8518 15.8899L16.2377 15.5876L16.1915 15.6977Z" fill="#3FB47C"/>
<path fill-rule="evenodd" clip-rule="evenodd" d="M12.0127 12.4254C11.887 10.6977 12.5824 8.78032 12.9795 8L13.0835 8.05693C12.6917 8.8269 12.0066 10.7205 12.13 12.4162C12.1916 13.2624 12.4539 14.0533 13.0484 14.633C13.6427 15.2126 14.5774 15.5894 16 15.5894V15.7113C14.5579 15.7113 13.5905 15.3292 12.9678 14.7219C12.3453 14.1147 12.0757 13.2909 12.0127 12.4254Z" fill="#3FB47C"/>
<path d="M12.5518 8.0801L12.4598 9.52267L12.2414 10.4535L12.0805 11.2989L12.032 12.0599L12.0805 12.5269L12.2417 13.3085L12.4598 13.9609C12.4598 14.2191 13.108 14.7815 13.432 15.0305L14.3679 15.4596C14.0184 15.4596 13.2874 15.1735 12.9656 15.0305L11.4712 13.5402L12.4598 14.2913L11.115 12.4673L12.4598 14.0171L12.2989 13.7787L11.2299 12.205L12.1494 13.0991L11 11.3824L11.9655 12.5269L11.115 10.6671L11.9655 12.205L11.1724 10.0591L11.9655 11.6685L11.4712 9.74912L11.9655 11.2989L11.7586 9.74912L12.0805 10.6671L11.9655 8.9742L12.1494 9.91602L12.2414 8.4258L12.2989 9.52267L12.5518 8.0801Z" fill="#3FB47C"/>
<path d="M13.1221 8.47183L12.3818 9.65131L12.0603 11.1203V12.7893L12.1136 13.1069L12.2101 13.5053L12.4891 13.9731V14.2138L12.9504 14.9817L13.7229 15.2154L13.2508 14.2138L13.1221 14.8481V13.5462L12.9504 14.6256L12.8431 12.9564L12.6071 14.1248L12.7573 12.1885L12.2852 13.4683L12.6822 11.5987L12.1136 12.9007L12.7573 10.9422L12.1136 12.0105L12.7573 10.5305L12.1136 11.532L12.9504 9.26186L12.2101 10.6306L13.1221 8.47183Z" fill="#3FB47C"/>
<path fill-rule="evenodd" clip-rule="evenodd" d="M14.9663 10.1379C14.9337 9.6575 15.114 9.12434 15.2169 8.90735L15.2439 8.92318C15.1423 9.13729 14.9647 9.66385 14.9967 10.1354C15.0127 10.3707 15.0807 10.5906 15.2348 10.7518C15.3889 10.913 15.6312 11.0178 16 11.0178V11.0517C15.6262 11.0517 15.3754 10.9454 15.2139 10.7765C15.0525 10.6077 14.9826 10.3786 14.9663 10.1379Z" fill="#3FB47C"/>
<path d="M15.1061 8.92962L15.0822 9.33077L15.0256 9.5896L14.9839 9.8247L14.9713 10.0363L14.9839 10.1662L15.0257 10.3835L15.0822 10.5649C15.0822 10.6367 15.2502 10.7931 15.3343 10.8623L15.5769 10.9817C15.4863 10.9817 15.2968 10.9021 15.2133 10.8623L14.8259 10.4479L15.0822 10.6568L14.7335 10.1496L15.0822 10.5806L15.0405 10.5143L14.7633 10.0767L15.0017 10.3253L14.7037 9.84791L14.954 10.1662L14.7335 9.649L14.954 10.0767L14.7484 9.47993L14.954 9.92747L14.8259 9.39373L14.954 9.8247L14.9004 9.39373L14.9839 9.649L14.954 9.17825L15.0017 9.44015L15.0256 9.02575L15.0405 9.33077L15.1061 8.92962Z" fill="#3FB47C"/>
<path d="M15.2539 9.03855L15.062 9.36654L14.9786 9.77503V10.2391L14.9924 10.3274L15.0175 10.4382L15.0898 10.5683V10.6353L15.2094 10.8488L15.4097 10.9138L15.2873 10.6353L15.2539 10.8116V10.4496L15.2094 10.7498L15.1816 10.2856L15.1204 10.6105L15.1593 10.0721L15.0369 10.4279L15.1399 9.90807L14.9924 10.2701L15.1593 9.7255L14.9924 10.0226L15.1593 9.61101L14.9924 9.8895L15.2094 9.25824L15.0175 9.63885L15.2539 9.03855Z" fill="#3FB47C"/>
<path fill-rule="evenodd" clip-rule="evenodd" d="M19.9873 12.4254C20.113 10.6977 19.4176 8.78032 19.0205 8L18.9165 8.05693C19.3083 8.8269 19.9934 10.7205 19.87 12.4162C19.8084 13.2624 19.5461 14.0533 18.9516 14.633C18.3573 15.2126 17.4226 15.5894 16 15.5894V15.7113C17.4421 15.7113 18.4095 15.3292 19.0322 14.7219C19.6547 14.1147 19.9243 13.2909 19.9873 12.4254Z" fill="#3FB47C"/>
<path d="M19.4482 8.0801L19.5402 9.52267L19.7586 10.4535L19.9195 11.2989L19.968 12.0599L19.9195 12.5269L19.7583 13.3085L19.5402 13.9609C19.5402 14.2191 18.892 14.7815 18.568 15.0305L17.6321 15.4596C17.9816 15.4596 18.7126 15.1735 19.0344 15.0305L20.5288 13.5402L19.5402 14.2913L20.885 12.4673L19.5402 14.0171L19.7011 13.7787L20.7701 12.205L19.8506 13.0991L21 11.3824L20.0345 12.5269L20.885 10.6671L20.0345 12.205L20.8276 10.0591L20.0345 11.6685L20.5288 9.74912L20.0345 11.2989L20.2414 9.74912L19.9195 10.6671L20.0345 8.9742L19.8506 9.91602L19.7586 8.4258L19.7011 9.52267L19.4482 8.0801Z" fill="#3FB47C"/>
<path d="M18.8779 8.47183L19.6182 9.65131L19.9397 11.1203V12.7893L19.8864 13.1069L19.7899 13.5053L19.5109 13.9731V14.2138L19.0496 14.9817L18.2771 15.2154L18.7492 14.2138L18.8779 14.8481V13.5462L19.0496 14.6256L19.1569 12.9564L19.3929 14.1248L19.2427 12.1885L19.7148 13.4683L19.3178 11.5987L19.8864 12.9007L19.2427 10.9422L19.8864 12.0105L19.2427 10.5305L19.8864 11.532L19.0496 9.26186L19.7899 10.6306L18.8779 8.47183Z" fill="#3FB47C"/>
<path fill-rule="evenodd" clip-rule="evenodd" d="M17.0042 10.1379C17.0359 9.6575 16.8607 9.12434 16.7607 8.90735L16.7346 8.92318C16.8332 9.13729 17.0058 9.66385 16.9747 10.1354C16.9592 10.3707 16.8931 10.5906 16.7434 10.7518C16.5937 10.913 16.3583 11.0178 16 11.0178V11.0517C16.3632 11.0517 16.6068 10.9454 16.7637 10.7765C16.9205 10.6077 16.9884 10.3786 17.0042 10.1379Z" fill="#3FB47C"/>
<path d="M16.8685 8.92962L16.8916 9.33077L16.9466 9.5896L16.9872 9.8247L16.9994 10.0363L16.9872 10.1662L16.9466 10.3835L16.8916 10.5649C16.8916 10.6367 16.7284 10.7931 16.6468 10.8623L16.4111 10.9817C16.4991 10.9817 16.6832 10.9021 16.7642 10.8623L17.1406 10.4479L16.8916 10.6568L17.2303 10.1496L16.8916 10.5806L16.9321 10.5143L17.2014 10.0767L16.9698 10.3253L17.2593 9.84791L17.0161 10.1662L17.2303 9.649L17.0161 10.0767L17.2159 9.47993L17.0161 9.92747L17.1406 9.39373L17.0161 9.8247L17.0682 9.39373L16.9872 9.649L17.0161 9.17825L16.9698 9.44015L16.9466 9.02575L16.9321 9.33077L16.8685 8.92962Z" fill="#3FB47C"/>
<path d="M16.7248 9.03855L16.9113 9.36654L16.9922 9.77503V10.2391L16.9788 10.3274L16.9545 10.4382L16.8842 10.5683V10.6353L16.7681 10.8488L16.5735 10.9138L16.6924 10.6353L16.7248 10.8116V10.4496L16.7681 10.7498L16.7951 10.2856L16.8545 10.6105L16.8167 10.0721L16.9356 10.4279L16.8356 9.90807L16.9788 10.2701L16.8167 9.7255L16.9788 10.0226L16.8167 9.61101L16.9788 9.8895L16.7681 9.25824L16.9545 9.63885L16.7248 9.03855Z" fill="#3FB47C"/>
<path d="M14.3333 9.89704C14.437 9.84755 14.9444 9.65649 15.1852 9.56714H15.6296V9.64961C15.6481 9.7046 15.737 9.81456 15.9444 9.81456H16.0741C16.2815 9.81456 16.3704 9.7046 16.3889 9.64961V9.56714H16.8333C17.0741 9.65649 17.5815 9.84755 17.6852 9.89704L16.8333 10.0414L16.2407 10.3919L16.5 10.8455L16.2037 10.8043L16.0092 10.5287L15.8148 10.8043L15.5185 10.8455L15.6296 10.3919L15.1852 10.0414L14.3333 9.89704Z" fill="#962122"/>
<path d="M15.0892 12.6213L15.4894 13.1219L14.8699 13.7359C14.7537 13.8511 14.5766 13.8408 14.4745 13.713L14.4443 13.6753C14.3421 13.5475 14.3535 13.3505 14.4697 13.2353L15.0892 12.6213Z" fill="#E77D42"/>
<path d="M16.9557 12.6213L16.5555 13.1219L17.175 13.7359C17.2913 13.8511 17.4683 13.8408 17.5705 13.713L17.6007 13.6753C17.7029 13.5475 17.6915 13.3505 17.5752 13.2353L16.9557 12.6213Z" fill="#E77D42"/>
<path d="M15.5371 13.6906L15.8334 13.8762L15.5371 14.4329V13.6906Z" fill="#3FB47C"/>
<path d="M15.8704 14.9278L15.9074 13.8556L15.6297 13.7731C15.6358 13.8418 15.6445 14.0576 15.6297 14.371C15.6148 14.6845 15.784 14.8728 15.8704 14.9278Z" fill="#D74B4B"/>
<path d="M15.2963 13.402L14.7037 14.3298L15.0556 14.5772L15.1482 14.4123L15.2963 14.4535L15.6482 13.67L15.2963 13.402Z" fill="#962122"/>
<path d="M16.5 13.6906L16.2037 13.8762L16.5 14.4329V13.6906Z" fill="#3FB47C"/>
<path d="M16.1667 14.9278L16.1297 13.8556L16.4074 13.7731C16.4013 13.8418 16.3926 14.0576 16.4074 14.371C16.4223 14.6845 16.2531 14.8728 16.1667 14.9278Z" fill="#D74B4B"/>
<path d="M16.7408 13.402L17.3334 14.3298L16.9815 14.5772L16.8889 14.4123L16.7408 14.4535L16.3889 13.67L16.7408 13.402Z" fill="#962122"/>
<ellipse cx="16.0371" cy="9.93816" rx="0.148148" ry="0.123711" fill="#F9F9F9"/>
<path d="M15.6481 9.91745L15.5926 9.9793H15.9259L16.037 9.85559H15.7593L15.6481 9.91745Z" fill="#E77D42"/>
<path d="M17.2963 12.3094C17.2963 13.2318 16.7242 13.9795 16.0185 13.9795C15.3128 13.9795 14.7407 13.2318 14.7407 12.3094C14.7407 11.387 15.3128 10.6393 16.0185 10.6393C16.7242 10.6393 17.2963 11.387 17.2963 12.3094Z" fill="#E77D42"/>
<path fill-rule="evenodd" clip-rule="evenodd" d="M16.0185 13.6084C16.492 13.6084 16.9629 13.0848 16.9629 12.3094C16.9629 11.5339 16.492 11.0104 16.0185 11.0104C15.545 11.0104 15.0741 11.5339 15.0741 12.3094C15.0741 13.0848 15.545 13.6084 16.0185 13.6084ZM16.0185 13.9795C16.7242 13.9795 17.2963 13.2318 17.2963 12.3094C17.2963 11.387 16.7242 10.6393 16.0185 10.6393C15.3128 10.6393 14.7407 11.387 14.7407 12.3094C14.7407 13.2318 15.3128 13.9795 16.0185 13.9795Z" fill="#64BEDB"/>
<path d="M16.0516 11.303C16.0522 11.2978 16.0589 11.2978 16.0595 11.303L16.0854 11.5428C16.0859 11.5474 16.0915 11.5482 16.093 11.544L16.176 11.3208C16.1778 11.316 16.1843 11.318 16.1836 11.3232L16.1506 11.562C16.15 11.5665 16.1551 11.569 16.1576 11.5654L16.2915 11.3755C16.2944 11.3714 16.3001 11.3753 16.2982 11.3801L16.2087 11.6001C16.207 11.6042 16.2114 11.6082 16.2146 11.6055L16.3895 11.4629C16.3932 11.4598 16.3978 11.4653 16.3948 11.4693L16.2554 11.6542C16.2528 11.6577 16.256 11.6628 16.2599 11.6612L16.4627 11.5766C16.467 11.5747 16.4701 11.5814 16.4663 11.5844L16.2874 11.7204C16.284 11.723 16.2859 11.7289 16.2899 11.7285L16.5057 11.7081C16.5103 11.7076 16.5117 11.715 16.5073 11.7167L16.3021 11.7938C16.2982 11.7953 16.2986 11.8015 16.3026 11.8024L16.5153 11.8476C16.5199 11.8486 16.5194 11.8561 16.5148 11.8564L16.2985 11.8689C16.2945 11.8691 16.2933 11.8753 16.297 11.8773L16.4908 11.9849C16.495 11.9872 16.4928 11.9943 16.4882 11.9932L16.277 11.9401C16.273 11.9391 16.2704 11.9447 16.2734 11.9477L16.4341 12.1097C16.4376 12.1132 16.4337 12.1194 16.4295 12.1169L16.239 12.0022C16.2354 12.0001 16.2316 12.0046 16.2337 12.0085L16.3493 12.2128C16.3518 12.2173 16.3465 12.222 16.3431 12.2184L16.1874 12.0506C16.1844 12.0474 16.1796 12.0507 16.1808 12.055L16.2426 12.2866C16.244 12.2916 16.2378 12.2946 16.2354 12.2901L16.126 12.0816C16.1239 12.0777 16.1185 12.0794 16.1186 12.0839L16.1222 12.3255C16.1222 12.3307 16.1156 12.3318 16.1144 12.3267L16.0594 12.093C16.0584 12.0886 16.0528 12.0886 16.0517 12.093L15.9967 12.3267C15.9956 12.3318 15.9889 12.3307 15.9889 12.3255L15.9925 12.0839C15.9926 12.0794 15.9872 12.0777 15.9851 12.0816L15.8757 12.2901C15.8733 12.2946 15.8671 12.2916 15.8685 12.2866L15.9303 12.055C15.9315 12.0507 15.9267 12.0474 15.9237 12.0506L15.768 12.2184C15.7646 12.222 15.7594 12.2173 15.7619 12.2128L15.8774 12.0085C15.8796 12.0046 15.8757 12.0001 15.8721 12.0022L15.6816 12.1169C15.6774 12.1194 15.6736 12.1132 15.677 12.1097L15.8377 11.9477C15.8407 11.9447 15.8381 11.9391 15.8341 11.9401L15.6229 11.9932C15.6183 11.9943 15.6161 11.9872 15.6203 11.9849L15.8141 11.8773C15.8178 11.8753 15.8166 11.8691 15.8126 11.8689L15.5964 11.8564C15.5917 11.8561 15.5912 11.8486 15.5958 11.8476L15.8085 11.8024C15.8125 11.8015 15.8129 11.7953 15.809 11.7938L15.6038 11.7167C15.5994 11.715 15.6008 11.7076 15.6054 11.7081L15.8212 11.7285C15.8252 11.7289 15.8271 11.723 15.8237 11.7204L15.6448 11.5844C15.641 11.5814 15.6441 11.5747 15.6485 11.5766L15.8512 11.6612C15.8551 11.6628 15.8583 11.6577 15.8557 11.6542L15.7163 11.4693C15.7133 11.4653 15.7179 11.4598 15.7217 11.4629L15.8965 11.6055C15.8998 11.6082 15.9041 11.6042 15.9024 11.6001L15.8129 11.3801C15.811 11.3753 15.8167 11.3714 15.8196 11.3755L15.9535 11.5654C15.956 11.569 15.9611 11.5665 15.9605 11.562L15.9275 11.3232C15.9268 11.318 15.9333 11.316 15.9351 11.3208L16.0181 11.544C16.0196 11.5482 16.0252 11.5474 16.0257 11.5428L16.0516 11.303Z" fill="#D74B4B"/>
<path fill-rule="evenodd" clip-rule="evenodd" d="M16.0815 11.5434L16.0556 11.3035L16.0296 11.5434C16.0286 11.5524 16.0175 11.5541 16.0144 11.5457L15.9314 11.3225L15.9644 11.5613C15.9657 11.5703 15.9554 11.5753 15.9504 11.5682L15.8165 11.3782L15.906 11.5982C15.9094 11.6065 15.9007 11.6144 15.8941 11.6091L15.7193 11.4665L15.8587 11.6514C15.864 11.6583 15.8575 11.6686 15.8499 11.6654L15.6471 11.5807L15.826 11.7168C15.8327 11.7219 15.829 11.7337 15.8208 11.7329L15.6051 11.7125L15.8103 11.7896C15.818 11.7925 15.8172 11.805 15.8092 11.8067L15.5966 11.852L15.8128 11.8645C15.8209 11.865 15.8232 11.8772 15.8159 11.8812L15.622 11.9889L15.8333 11.9358C15.8412 11.9338 15.8464 11.9449 15.8403 11.951L15.6797 12.113L15.8703 11.9983C15.8774 11.994 15.8851 12.0031 15.8807 12.0108L15.7652 12.2152L15.921 12.0474C15.9269 12.0411 15.9364 12.0476 15.9341 12.0563L15.8723 12.2878L15.9817 12.0794C15.9858 12.0715 15.9966 12.0749 15.9965 12.084L15.9929 12.3256L16.0479 12.0919C16.05 12.0831 16.0612 12.0831 16.0632 12.0919L16.1182 12.3256L16.1146 12.084C16.1145 12.0749 16.1253 12.0715 16.1294 12.0794L16.2388 12.2878L16.177 12.0563C16.1747 12.0476 16.1842 12.0411 16.1901 12.0474L16.3459 12.2152L16.2304 12.0108C16.226 12.0031 16.2337 11.994 16.2408 11.9983L16.4314 12.113L16.2708 11.951C16.2647 11.9449 16.2699 11.9338 16.2778 11.9358L16.4891 11.9889L16.2952 11.8812C16.2879 11.8772 16.2902 11.865 16.2983 11.8645L16.5146 11.852L16.3019 11.8067C16.2939 11.805 16.2931 11.7925 16.3008 11.7896L16.506 11.7125L16.2903 11.7329C16.2821 11.7337 16.2784 11.7219 16.2851 11.7168L16.464 11.5807L16.2613 11.6654C16.2536 11.6686 16.2472 11.6583 16.2524 11.6514L16.3918 11.4665L16.217 11.6091C16.2104 11.6144 16.2017 11.6065 16.2051 11.5982L16.2946 11.3782L16.1607 11.5682C16.1557 11.5753 16.1454 11.5703 16.1467 11.5613L16.1797 11.3225L16.0967 11.5457C16.0936 11.5541 16.0825 11.5524 16.0815 11.5434ZM16.0595 11.303C16.0589 11.2978 16.0522 11.2978 16.0516 11.303L16.0257 11.5428C16.0252 11.5474 16.0196 11.5482 16.0181 11.544L15.9351 11.3208C15.9333 11.316 15.9268 11.318 15.9275 11.3232L15.9605 11.562C15.9611 11.5665 15.956 11.569 15.9535 11.5654L15.8196 11.3755C15.8167 11.3714 15.811 11.3753 15.8129 11.3801L15.9024 11.6001C15.9041 11.6042 15.8998 11.6082 15.8965 11.6055L15.7217 11.4629C15.7179 11.4598 15.7133 11.4653 15.7163 11.4693L15.8557 11.6542C15.8583 11.6577 15.8551 11.6628 15.8512 11.6612L15.6485 11.5766C15.6441 11.5747 15.641 11.5814 15.6448 11.5844L15.8237 11.7204C15.8271 11.723 15.8252 11.7289 15.8212 11.7285L15.6054 11.7081C15.6008 11.7076 15.5994 11.715 15.6038 11.7167L15.809 11.7938C15.8129 11.7953 15.8125 11.8015 15.8085 11.8024L15.5958 11.8476C15.5912 11.8486 15.5917 11.8561 15.5964 11.8564L15.8126 11.8689C15.8166 11.8691 15.8178 11.8753 15.8141 11.8773L15.6203 11.9849C15.6161 11.9872 15.6183 11.9943 15.6229 11.9932L15.8341 11.9401C15.8381 11.9391 15.8407 11.9447 15.8377 11.9477L15.677 12.1097C15.6736 12.1132 15.6774 12.1194 15.6816 12.1169L15.8721 12.0022C15.8757 12.0001 15.8796 12.0046 15.8774 12.0085L15.7619 12.2128C15.7594 12.2173 15.7646 12.222 15.768 12.2184L15.9237 12.0506C15.9267 12.0474 15.9315 12.0507 15.9303 12.055L15.8685 12.2866C15.8671 12.2916 15.8733 12.2946 15.8757 12.2901L15.9851 12.0816C15.9872 12.0777 15.9926 12.0794 15.9925 12.0839L15.9889 12.3255C15.9889 12.3307 15.9956 12.3318 15.9967 12.3267L16.0517 12.093C16.0528 12.0886 16.0584 12.0886 16.0594 12.093L16.1144 12.3267C16.1156 12.3318 16.1222 12.3307 16.1222 12.3255L16.1186 12.0839C16.1185 12.0794 16.1239 12.0777 16.126 12.0816L16.2354 12.2901C16.2378 12.2946 16.244 12.2916 16.2426 12.2866L16.1808 12.055C16.1796 12.0507 16.1844 12.0474 16.1874 12.0506L16.3431 12.2184C16.3465 12.222 16.3518 12.2173 16.3493 12.2128L16.2337 12.0085C16.2316 12.0046 16.2354 12.0001 16.239 12.0022L16.4295 12.1169C16.4337 12.1194 16.4376 12.1132 16.4341 12.1097L16.2734 11.9477C16.2704 11.9447 16.273 11.9391 16.277 11.9401L16.4882 11.9932C16.4928 11.9943 16.495 11.9872 16.4908 11.9849L16.297 11.8773C16.2933 11.8753 16.2945 11.8691 16.2985 11.8689L16.5148 11.8564C16.5194 11.8561 16.5199 11.8486 16.5153 11.8476L16.3026 11.8024C16.2986 11.8015 16.2982 11.7953 16.3021 11.7938L16.5073 11.7167C16.5117 11.715 16.5103 11.7076 16.5057 11.7081L16.2899 11.7285C16.2859 11.7289 16.284 11.723 16.2874 11.7204L16.4663 11.5844C16.4701 11.5814 16.467 11.5747 16.4627 11.5766L16.2599 11.6612C16.256 11.6628 16.2528 11.6577 16.2554 11.6542L16.3948 11.4693C16.3978 11.4653 16.3932 11.4598 16.3895 11.4629L16.2146 11.6055C16.2114 11.6082 16.207 11.6042 16.2087 11.6001L16.2982 11.3801C16.3001 11.3753 16.2944 11.3714 16.2915 11.3755L16.1576 11.5654C16.1551 11.569 16.15 11.5665 16.1506 11.562L16.1836 11.3232C16.1843 11.318 16.1778 11.316 16.176 11.3208L16.093 11.544C16.0915 11.5482 16.0859 11.5474 16.0854 11.5428L16.0595 11.303Z" fill="#333333"/>
<path d="M15.967 11.732C15.9867 11.7175 16.0123 11.7179 16.0316 11.733C16.0385 11.7384 16.0426 11.7473 16.0426 11.7568V11.8042C16.0426 11.8104 16.0406 11.8164 16.0369 11.821L16.0202 11.8421L16.0281 11.8499L16.0448 11.8288C16.0502 11.822 16.0532 11.8132 16.0532 11.8042V11.7568C16.0532 11.7435 16.0474 11.731 16.0376 11.7233C16.0148 11.7054 15.9844 11.705 15.9612 11.7222L15.9456 11.7337L15.9515 11.7435L15.967 11.732Z" fill="#333333"/>
<path d="M16.1499 11.7222C16.1267 11.705 16.0963 11.7054 16.0735 11.7233C16.0637 11.731 16.0579 11.7435 16.0579 11.7568V11.8042C16.0579 11.8132 16.0609 11.822 16.0663 11.8288L16.083 11.8499L16.0909 11.8421L16.0742 11.821C16.0705 11.8164 16.0685 11.8104 16.0685 11.8042V11.7568C16.0685 11.7473 16.0726 11.7384 16.0795 11.733C16.0988 11.7179 16.1245 11.7175 16.1441 11.732L16.1596 11.7435L16.1655 11.7337L16.1499 11.7222Z" fill="#333333"/>
<path fill-rule="evenodd" clip-rule="evenodd" d="M15.9956 11.8008C15.972 11.8008 15.9529 11.7757 15.9529 11.7757C15.9529 11.7757 15.972 11.7505 15.9956 11.7505C16.0193 11.7505 16.0384 11.7757 16.0384 11.7757C16.0384 11.7757 16.0193 11.8008 15.9956 11.8008ZM15.9732 11.775L15.9724 11.7757L15.9732 11.7763C15.9799 11.7818 15.9879 11.7861 15.9956 11.7861C16.0034 11.7861 16.0113 11.7818 16.0181 11.7763L16.0189 11.7757L16.0181 11.775C16.0113 11.7695 16.0034 11.7653 15.9956 11.7653C15.9879 11.7653 15.9799 11.7695 15.9732 11.775Z" fill="#333333"/>
<path fill-rule="evenodd" clip-rule="evenodd" d="M16.1159 11.8008C16.0923 11.8008 16.0731 11.7757 16.0731 11.7757C16.0731 11.7757 16.0923 11.7505 16.1159 11.7505C16.1396 11.7505 16.1587 11.7757 16.1587 11.7757C16.1587 11.7757 16.1396 11.8008 16.1159 11.8008ZM16.0935 11.775L16.0927 11.7757L16.0935 11.7763C16.1002 11.7818 16.1082 11.7861 16.1159 11.7861C16.1237 11.7861 16.1316 11.7818 16.1384 11.7763L16.1392 11.7757L16.1384 11.775C16.1316 11.7695 16.1237 11.7653 16.1159 11.7653C16.1082 11.7653 16.1002 11.7695 16.0935 11.775Z" fill="#333333"/>
<path fill-rule="evenodd" clip-rule="evenodd" d="M16.0325 11.8664C16.035 11.8644 16.0379 11.8634 16.0409 11.8634H16.0488C16.0527 11.8634 16.0558 11.8669 16.0558 11.8712V11.8731C16.0558 11.8741 16.0565 11.8749 16.0575 11.8749C16.0584 11.8749 16.0591 11.8741 16.0591 11.8731V11.8712C16.0591 11.8669 16.0622 11.8634 16.0661 11.8634H16.074C16.077 11.8634 16.08 11.8644 16.0824 11.8664L16.1059 11.8845C16.1104 11.888 16.1102 11.8955 16.1055 11.8987L16.0762 11.9184C16.0705 11.9222 16.0641 11.9242 16.0575 11.9242C16.0509 11.9242 16.0444 11.9222 16.0387 11.9184L16.0094 11.8987C16.0047 11.8955 16.0045 11.888 16.009 11.8845L16.0325 11.8664ZM16.0409 11.8781C16.0406 11.8781 16.0403 11.8783 16.04 11.8785L16.0237 11.8911L16.0455 11.9058C16.0491 11.9082 16.0533 11.9095 16.0575 11.9095C16.0617 11.9095 16.0658 11.9082 16.0694 11.9058L16.0912 11.8911L16.0749 11.8785C16.0746 11.8783 16.0743 11.8781 16.074 11.8781H16.0716C16.0697 11.8848 16.0641 11.8897 16.0575 11.8897C16.0508 11.8897 16.0452 11.8848 16.0433 11.8781H16.0409Z" fill="#333333"/>
<path d="M15.0763 12.3995L16.0555 11.7938L16.9601 12.4105C16.9226 13.0806 16.5153 13.6083 16.0185 13.6083C15.5189 13.6083 15.11 13.0748 15.0763 12.3995Z" fill="#3FB47C"/>
<path d="M16.5185 12.5699C16.5185 12.5078 16.3278 12.4574 16.0926 12.4574C15.8573 12.4574 15.6666 12.5078 15.6666 12.5699H16.5185Z" fill="#377649"/>
<path d="M16.037 12.5699H16.1481V13.3196H16.037V12.5699Z" fill="#377649"/>
<path d="M16.4336 12.7779C16.4643 12.7241 16.324 12.584 16.1203 12.4649C15.9166 12.3459 15.7266 12.293 15.6959 12.3468L16.4336 12.7779Z" fill="#377649"/>
<path d="M15.7521 12.7787C15.7955 12.8226 15.9655 12.7218 16.1318 12.5534C16.2982 12.385 16.3978 12.2129 16.3544 12.169L15.7521 12.7787Z" fill="#377649"/>
<path d="M16.037 12.0825C16.0984 12.0825 16.1481 12.2755 16.1481 12.5136C16.1481 12.7517 16.0984 12.9448 16.037 12.9448V12.0825Z" fill="#377649"/>
<path d="M15.7778 12.9279V13.0516L15.963 13.134H16.1111L16.1667 13.0516L16.1852 12.8248L16.2222 12.8041V12.7629L16.1852 12.7423V12.701H16.1111L16.0741 12.8866H15.8148V12.9279H15.7778Z" fill="#F9F9F9"/>
<path fill-rule="evenodd" clip-rule="evenodd" d="M15.7908 13.2761L15.8093 13.0287L15.8573 13.0332L15.8388 13.2806L15.7908 13.2761Z" fill="#F9F9F9"/>
<path fill-rule="evenodd" clip-rule="evenodd" d="M15.8748 13.279L15.8734 13.0307L15.9215 13.0304L15.9229 13.2786L15.8748 13.279Z" fill="#F9F9F9"/>
<path fill-rule="evenodd" clip-rule="evenodd" d="M15.9867 13.2792L15.9836 13.0309L16.0318 13.0302L16.0349 13.2784L15.9867 13.2792Z" fill="#F9F9F9"/>
<path fill-rule="evenodd" clip-rule="evenodd" d="M16.1199 13.2817L16.0737 13.0388L16.1208 13.0277L16.167 13.2706L16.1199 13.2817Z" fill="#F9F9F9"/>
<path d="M12.4815 13.8763C12.4815 13.9332 12.44 13.9794 12.3889 13.9794C12.3378 13.9794 12.2963 13.9332 12.2963 13.8763C12.2963 13.8194 12.3378 13.7732 12.3889 13.7732C12.44 13.7732 12.4815 13.8194 12.4815 13.8763Z" fill="#D74B4B"/>
<path d="M12.2222 13.5876C12.2222 13.6446 12.1808 13.6907 12.1296 13.6907C12.0785 13.6907 12.0371 13.6446 12.0371 13.5876C12.0371 13.5307 12.0785 13.4845 12.1296 13.4845C12.1808 13.4845 12.2222 13.5307 12.2222 13.5876Z" fill="#D74B4B"/>
<path d="M12.5556 13.3402C12.5556 13.3971 12.5141 13.4433 12.463 13.4433C12.4118 13.4433 12.3704 13.3971 12.3704 13.3402C12.3704 13.2833 12.4118 13.2371 12.463 13.2371C12.5141 13.2371 12.5556 13.2833 12.5556 13.3402Z" fill="#D74B4B"/>
<path d="M12.2963 12.1856C12.2963 12.2425 12.2549 12.2887 12.2037 12.2887C12.1526 12.2887 12.1111 12.2425 12.1111 12.1856C12.1111 12.1286 12.1526 12.0825 12.2037 12.0825C12.2549 12.0825 12.2963 12.1286 12.2963 12.1856Z" fill="#D74B4B"/>
<path d="M12.0371 11.8969C12.0371 11.9538 11.9956 12 11.9445 12C11.8933 12 11.8519 11.9538 11.8519 11.8969C11.8519 11.84 11.8933 11.7938 11.9445 11.7938C11.9956 11.7938 12.0371 11.84 12.0371 11.8969Z" fill="#D74B4B"/>
<path d="M12.3704 11.6495C12.3704 11.7064 12.3289 11.7526 12.2778 11.7526C12.2267 11.7526 12.1852 11.7064 12.1852 11.6495C12.1852 11.5926 12.2267 11.5464 12.2778 11.5464C12.3289 11.5464 12.3704 11.5926 12.3704 11.6495Z" fill="#D74B4B"/>
<path d="M12.4445 10.866C12.4445 10.9229 12.403 10.9691 12.3519 10.9691C12.3007 10.9691 12.2593 10.9229 12.2593 10.866C12.2593 10.809 12.3007 10.7629 12.3519 10.7629C12.403 10.7629 12.4445 10.809 12.4445 10.866Z" fill="#D74B4B"/>
<path d="M12.1852 10.5773C12.1852 10.6343 12.1437 10.6804 12.0926 10.6804C12.0415 10.6804 12 10.6343 12 10.5773C12 10.5204 12.0415 10.4742 12.0926 10.4742C12.1437 10.4742 12.1852 10.5204 12.1852 10.5773Z" fill="#D74B4B"/>
<path d="M12.5185 10.3299C12.5185 10.3868 12.4771 10.433 12.4259 10.433C12.3748 10.433 12.3333 10.3868 12.3333 10.3299C12.3333 10.273 12.3748 10.2268 12.4259 10.2268C12.4771 10.2268 12.5185 10.273 12.5185 10.3299Z" fill="#D74B4B"/>
<path d="M19.7408 14.0825C19.7408 14.1394 19.7822 14.1856 19.8334 14.1856C19.8845 14.1856 19.926 14.1394 19.926 14.0825C19.926 14.0255 19.8845 13.9794 19.8334 13.9794C19.7822 13.9794 19.7408 14.0255 19.7408 14.0825Z" fill="#333333"/>
<path d="M20.0001 13.7938C20.0001 13.8507 20.0415 13.8969 20.0926 13.8969C20.1438 13.8969 20.1852 13.8507 20.1852 13.7938C20.1852 13.7369 20.1438 13.6907 20.0926 13.6907C20.0415 13.6907 20.0001 13.7369 20.0001 13.7938Z" fill="#333333"/>
<path d="M19.6667 13.5464C19.6667 13.6033 19.7082 13.6495 19.7593 13.6495C19.8104 13.6495 19.8519 13.6033 19.8519 13.5464C19.8519 13.4894 19.8104 13.4433 19.7593 13.4433C19.7082 13.4433 19.6667 13.4894 19.6667 13.5464Z" fill="#333333"/>
<path d="M19.926 12.3917C19.926 12.4487 19.9674 12.4948 20.0186 12.4948C20.0697 12.4948 20.1112 12.4487 20.1112 12.3917C20.1112 12.3348 20.0697 12.2887 20.0186 12.2887C19.9674 12.2887 19.926 12.3348 19.926 12.3917Z" fill="#333333"/>
<path d="M20.1852 12.1031C20.1852 12.16 20.2267 12.2062 20.2778 12.2062C20.329 12.2062 20.3704 12.16 20.3704 12.1031C20.3704 12.0461 20.329 12 20.2778 12C20.2267 12 20.1852 12.0461 20.1852 12.1031Z" fill="#333333"/>
<path d="M19.8519 11.8557C19.8519 11.9126 19.8934 11.9588 19.9445 11.9588C19.9956 11.9588 20.0371 11.9126 20.0371 11.8557C20.0371 11.7987 19.9956 11.7526 19.9445 11.7526C19.8934 11.7526 19.8519 11.7987 19.8519 11.8557Z" fill="#333333"/>
<path d="M19.7778 11.0722C19.7778 11.1291 19.8193 11.1753 19.8704 11.1753C19.9216 11.1753 19.963 11.1291 19.963 11.0722C19.963 11.0152 19.9216 10.9691 19.8704 10.9691C19.8193 10.9691 19.7778 11.0152 19.7778 11.0722Z" fill="#333333"/>
<path d="M20.0371 10.7835C20.0371 10.8404 20.0785 10.8866 20.1297 10.8866C20.1808 10.8866 20.2223 10.8404 20.2223 10.7835C20.2223 10.7266 20.1808 10.6804 20.1297 10.6804C20.0785 10.6804 20.0371 10.7266 20.0371 10.7835Z" fill="#333333"/>
<path d="M19.7038 10.5361C19.7038 10.593 19.7452 10.6392 19.7963 10.6392C19.8475 10.6392 19.8889 10.593 19.8889 10.5361C19.8889 10.4791 19.8475 10.433 19.7963 10.433C19.7452 10.433 19.7038 10.4791 19.7038 10.5361Z" fill="#333333"/>
</g>
<defs>
<clipPath id="clip0_440_1213">
<rect width="32" height="24" rx="2" fill="white"/>
</clipPath>
</defs>
</svg>
