<svg width="24" height="24" viewBox="0 0 24 24" fill="none" xmlns="http://www.w3.org/2000/svg">
<rect width="24" height="24" rx="2" fill="#3FB47C"/>
<path d="M11.4135 4.19152C11.7244 3.93616 12.1724 3.93616 12.4833 4.19152L20.5889 10.8487C20.9994 11.1858 20.9994 11.8142 20.5889 12.1513L12.4833 18.8085C12.1724 19.0638 11.7244 19.0638 11.4135 18.8085L3.30791 12.1513C2.89736 11.8142 2.89736 11.1858 3.30791 10.8487L11.4135 4.19152Z" fill="#F8D74C"/>
<path d="M16.0005 11.3378C16.0005 13.6653 14.1137 15.5521 11.7863 15.5521C9.45878 15.5521 7.57199 13.6653 7.57199 11.3378C7.57199 9.01037 9.45878 7.12358 11.7863 7.12358C14.1137 7.12358 16.0005 9.01037 16.0005 11.3378Z" fill="#485CC2"/>
<path d="M7.81379 9.92743L8.06703 9.87503C10.8687 9.29537 13.7551 9.97634 15.9864 11.6851C15.9601 12.0078 15.8974 12.3203 15.8025 12.6184C13.7234 10.8643 10.9376 10.1418 8.2378 10.7004L7.60204 10.8319C7.63953 10.5186 7.71141 10.2158 7.81379 9.92743Z" fill="#F9F9F9"/>
</svg>
