<svg width="32" height="24" viewBox="0 0 32 24" fill="none" xmlns="http://www.w3.org/2000/svg">
<rect width="32" height="24" rx="2" fill="#3FB47C"/>
<path d="M15.5577 3.52129C15.9266 3.21832 16.4582 3.21832 16.8271 3.5213L26.4439 11.4196C26.931 11.8197 26.931 12.5651 26.4439 12.9652L16.8271 20.8635C16.4582 21.1665 15.9266 21.1665 15.5577 20.8635L5.94091 12.9652C5.45382 12.5651 5.45382 11.8197 5.94091 11.4196L15.5577 3.52129Z" fill="#F8D74C"/>
<path d="M21 12C21 14.7614 18.7614 17 16 17C13.2386 17 11 14.7614 11 12C11 9.2386 13.2386 7.00003 16 7.00003C18.7614 7.00003 21 9.2386 21 12Z" fill="#485CC2"/>
<path d="M11.2869 10.3266L11.5874 10.2645C14.9114 9.57674 18.3359 10.3847 20.9833 12.412C20.952 12.7949 20.8777 13.1657 20.765 13.5193C18.2983 11.4382 14.9931 10.581 11.79 11.2437L11.0357 11.3998C11.0801 11.028 11.1654 10.6688 11.2869 10.3266Z" fill="#F9F9F9"/>
</svg>
