<svg width="32" height="24" viewBox="0 0 32 24" fill="none" xmlns="http://www.w3.org/2000/svg">
<rect width="32" height="24" rx="2" fill="#485CC2"/>
<g clip-path="url(#clip0_440_1225)">
<rect width="16" height="12" fill="#485CC2"/>
<path fill-rule="evenodd" clip-rule="evenodd" d="M16.75 1L0.75 13L-0.75 11L15.25 -1L16.75 1Z" fill="#F9F9F9"/>
<path fill-rule="evenodd" clip-rule="evenodd" d="M-0.75 1L15.25 13L16.75 11L0.75 -1L-0.75 1Z" fill="#F9F9F9"/>
<path fill-rule="evenodd" clip-rule="evenodd" d="M15.775 12.8L-0.225 0.8L0.225 0.2L16.225 12.2L15.775 12.8Z" fill="#D74B4B"/>
<path fill-rule="evenodd" clip-rule="evenodd" d="M-0.277853 12.8021L16.7221 0.302119L16.2779 -0.302119L-0.722147 12.1979L-0.277853 12.8021Z" fill="#D74B4B"/>
<path d="M9.5 1.31134e-07L9.5 12H6.5L6.5 0L9.5 1.31134e-07Z" fill="#F9F9F9"/>
<path d="M0 4.5H16V7.5H0V4.5Z" fill="#F9F9F9"/>
<path d="M0 5H16V7H0V5Z" fill="#D74B4B"/>
<path d="M9 8.74229e-08L9 12H7L7 0L9 8.74229e-08Z" fill="#D74B4B"/>
</g>
<path d="M27.6628 10H20.2465V15.9023C20.2465 16.467 20.5644 16.9836 21.0685 17.2381L23.9546 18.6954L26.8408 17.2381C27.3449 16.9836 27.6628 16.467 27.6628 15.9023V10Z" fill="#377649"/>
<path d="M23.2711 15.6297L23.169 14.0512L23.3183 13.9719H24.0331L24.5829 14.0512L24.905 15.6297L24.8186 16.0622C24.3578 16.0958 23.4282 16.1616 23.3968 16.1559C23.3654 16.1501 23.2999 15.8027 23.2711 15.6297Z" fill="#F9F9F9"/>
<path d="M23.4003 14.1604H23.1744L23.1405 15.492L23.4003 15.5386L23.6544 15.6889L23.9988 15.606L24.3207 15.7562L24.6877 15.5386H25.0661L24.5974 14.1604H24.4506L24.1795 14.3055L23.9085 14.1604L23.6544 14.3521L23.4003 14.1604Z" fill="#E6E6E6"/>
<path d="M23.24 17.6705V17.5439H23.4851L23.6281 17.722L23.3166 17.8907L23.2042 17.9516H23.148V17.7642L23.24 17.6705Z" fill="#F8D74C"/>
<path d="M24.2 17.8907L24.1642 17.5439H24.394L24.5115 17.647L24.537 17.8907L24.394 18.0313H24.3123L24.2 17.8907Z" fill="#F8D74C"/>
<path fill-rule="evenodd" clip-rule="evenodd" d="M23.6001 10.668L23.5122 10.7803V10.9127L23.5561 10.9962L23.4369 11.12C23.4704 11.1593 23.5411 11.2392 23.5561 11.2438C23.5712 11.2484 23.6377 11.2457 23.6691 11.2438V11.3359H23.575V11.4683L23.7099 11.5202H23.8197H23.895V11.6411L23.3455 11.8963V12.249L23.2067 12.5036L23.3455 12.7485L23.2707 12.8269L22.5876 13.5223L22.2994 13.5909L22.1713 13.777V13.9337H22.2994L22.3527 13.777L22.4915 13.7084L22.3828 13.829L22.3527 13.9337H22.3828H22.4355L22.4643 13.829L22.723 13.6575L23.3455 13.2486L23.7099 13.1545H24.3426V12.8269L24.6116 12.7485L24.6919 13.0356V13.3371V14.0942L24.4874 14.2752L24.4363 14.5231L24.4874 14.5633L24.5531 14.3891V14.7375L24.8598 14.5231V14.0942L24.9694 13.5223L25.0059 12.0238V11.9182L24.7256 11.7191L24.304 11.392L24.18 11.19V11.0449L23.9785 10.9962L23.895 10.7093L23.6691 10.6211L23.6001 10.668ZM23.7708 10.897H23.6282V10.9311H23.7708V10.897ZM23.6995 11.0336C23.7389 11.0336 23.7708 11.017 23.7708 10.9966C23.7708 10.9762 23.7389 10.9596 23.6995 10.9596C23.6601 10.9596 23.6282 10.9762 23.6282 10.9966C23.6282 11.017 23.6601 11.0336 23.6995 11.0336Z" fill="#F9F9F9"/>
<path d="M23.6442 11.7203L23.894 11.5717V11.6394L23.6898 11.8842V12.3109L24.4165 11.7203L24.3252 11.5717L24.2938 11.3625L24.3543 11.4307L25.0477 11.8842V11.987L25.002 12.048C24.9854 11.9629 24.9107 11.7965 24.7446 11.8118C24.5785 11.827 24.5508 11.9985 24.5577 12.0823L24.6283 12.7034L24.343 13.092H23.3826L23.341 12.7812L23.2064 12.6194V12.3946L23.341 12.1953V11.8967L23.6442 11.7203Z" fill="#E6E6E6"/>
<path d="M23.6036 15.808C23.4963 15.7475 23.2795 15.6214 23.2704 15.6007V16.5074L23.197 17.5592H23.4173C23.4643 17.611 23.5607 17.7209 23.5697 17.7458C23.5787 17.7706 23.6977 17.7941 23.7561 17.8028L23.9932 17.7147L24.2699 17.5592L24.62 17.8028L24.9701 17.6784L25.4839 17.611L24.9023 15.6266H24.7103L24.3377 15.8598L23.9932 15.7095L23.6036 15.808Z" fill="#E6E6E6"/>
<path d="M23.1818 13.5879L23.4202 13.1504L24.3383 13.1504C24.3535 13.1659 24.4083 13.2407 24.5057 13.4157C24.6031 13.5907 24.6139 13.9354 24.6071 14.0859H24.4448L24.1506 14.2069L23.897 14.0859L23.6434 14.2535L23.4202 14.0859H23.126L23.1818 13.5879Z" fill="#E6E6E6"/>
<path d="M23.4885 10.6693L23.5889 10.7574L23.6848 10.6253L23.8855 10.7053L23.9815 11.0015L24.108 11.0336L24.1342 11.1416L24.1952 11.3618L24.505 11.4138L24.8234 11.2017V11.0336L24.6664 10.9215L24.6358 10.7574L24.3566 10.4251L24.06 10.3851L23.9291 10.4772L23.8855 10.3851L23.7677 10.3611L23.4885 10.5332V10.6693Z" fill="#F8D74C"/>
<path d="M22.0948 14.4927H21.5271V14.5763H21.8775L22.0948 14.7692H22.5012L22.7758 14.5815L22.7811 14.5873L22.9635 14.4478C22.9799 14.4405 22.9993 14.4342 23.0184 14.4312C23.0386 14.4281 23.0566 14.429 23.0705 14.4344C23.0833 14.4394 23.0947 14.4492 23.1014 14.4687C23.1083 14.4891 23.1101 14.5205 23.1006 14.5673C23.0911 14.6145 23.0786 14.6462 23.0656 14.6668C23.0526 14.6873 23.04 14.6957 23.0301 14.6988C23.0107 14.705 22.9867 14.6945 22.9679 14.6755L22.934 14.7038C22.9562 14.7263 22.9986 14.7535 23.0452 14.7386C23.0684 14.7312 23.0886 14.7143 23.1053 14.6879C23.1219 14.6617 23.1356 14.6248 23.1458 14.575C23.1559 14.5247 23.1553 14.4856 23.1452 14.4561C23.1348 14.4256 23.1145 14.4059 23.0886 14.3957C23.0636 14.3859 23.0358 14.3858 23.0107 14.3897C22.9853 14.3936 22.9607 14.402 22.9407 14.4112L22.9383 14.4123L22.791 14.5249H22.5012L22.312 14.2741L22.0948 14.4927Z" fill="#E77D42"/>
<path d="M22.6101 14.7692H21.9914V14.8333H22.6101V14.7692Z" fill="#E77D42"/>
<path d="M21.4484 13.9761C21.3622 13.8941 21.4844 13.7857 21.5562 13.7417C21.5147 13.7824 21.4526 13.8717 21.5363 13.9029C21.6199 13.934 21.6749 13.9915 21.692 14.0164C21.7106 14.0689 21.7295 14.1937 21.656 14.2728C21.5826 14.352 21.5988 14.4523 21.6161 14.4926H21.5363C21.507 14.4755 21.466 14.4018 21.5363 14.2435C21.6241 14.0457 21.5562 14.0787 21.4484 13.9761Z" fill="#F8D74C"/>
<path d="M21.9435 14.4285C21.9435 14.4518 21.9229 14.4706 21.8975 14.4706C21.8722 14.4706 21.8516 14.4518 21.8516 14.4285C21.8516 14.4052 21.8722 14.3864 21.8975 14.3864C21.9229 14.3864 21.9435 14.4052 21.9435 14.4285Z" fill="#F8D74C"/>
<path d="M22.7515 14.4285C22.7515 14.4518 22.7721 14.4706 22.7974 14.4706C22.8228 14.4706 22.8434 14.4518 22.8434 14.4285C22.8434 14.4052 22.8228 14.3864 22.7974 14.3864C22.7721 14.3864 22.7515 14.4052 22.7515 14.4285Z" fill="#F8D74C"/>
<path d="M22.0353 14.3443C22.0353 14.3675 22.0147 14.3864 21.9894 14.3864C21.964 14.3864 21.9435 14.3675 21.9435 14.3443C21.9435 14.321 21.964 14.3021 21.9894 14.3021C22.0147 14.3021 22.0353 14.321 22.0353 14.3443Z" fill="#F8D74C"/>
<path d="M22.6597 14.3443C22.6597 14.3675 22.6803 14.3864 22.7056 14.3864C22.731 14.3864 22.7515 14.3675 22.7515 14.3443C22.7515 14.321 22.731 14.3021 22.7056 14.3021C22.6803 14.3021 22.6597 14.321 22.6597 14.3443Z" fill="#F8D74C"/>
<path d="M22.1271 14.2536C22.1271 14.2769 22.1065 14.2958 22.0812 14.2958C22.0558 14.2958 22.0353 14.2769 22.0353 14.2536C22.0353 14.2304 22.0558 14.2115 22.0812 14.2115C22.1065 14.2115 22.1271 14.2304 22.1271 14.2536Z" fill="#F8D74C"/>
<path d="M22.5679 14.2536C22.5679 14.2769 22.5885 14.2958 22.6138 14.2958C22.6392 14.2958 22.6597 14.2769 22.6597 14.2536C22.6597 14.2304 22.6392 14.2115 22.6138 14.2115C22.5885 14.2115 22.5679 14.2304 22.5679 14.2536Z" fill="#F8D74C"/>
<path d="M22.2172 14.1694C22.2172 14.1927 22.1966 14.2115 22.1713 14.2115C22.1459 14.2115 22.1254 14.1927 22.1254 14.1694C22.1254 14.1461 22.1459 14.1273 22.1713 14.1273C22.1966 14.1273 22.2172 14.1461 22.2172 14.1694Z" fill="#F8D74C"/>
<path d="M22.4778 14.1694C22.4778 14.1927 22.4984 14.2115 22.5237 14.2115C22.5491 14.2115 22.5696 14.1927 22.5696 14.1694C22.5696 14.1461 22.5491 14.1273 22.5237 14.1273C22.4984 14.1273 22.4778 14.1461 22.4778 14.1694Z" fill="#F8D74C"/>
<path d="M22.309 14.075C22.309 14.0983 22.2884 14.1172 22.2631 14.1172C22.2377 14.1172 22.2172 14.0983 22.2172 14.075C22.2172 14.0518 22.2377 14.0329 22.2631 14.0329C22.2884 14.0329 22.309 14.0518 22.309 14.075Z" fill="#F8D74C"/>
<path d="M22.386 14.075C22.386 14.0983 22.4066 14.1172 22.4319 14.1172C22.4573 14.1172 22.4778 14.0983 22.4778 14.075C22.4778 14.0518 22.4573 14.0329 22.4319 14.0329C22.4066 14.0329 22.386 14.0518 22.386 14.075Z" fill="#F8D74C"/>
<path d="M22.386 13.9908C22.386 14.014 22.3654 14.0329 22.3401 14.0329C22.3147 14.0329 22.2942 14.014 22.2942 13.9908C22.2942 13.9675 22.3147 13.9487 22.3401 13.9487C22.3654 13.9487 22.386 13.9675 22.386 13.9908Z" fill="#F8D74C"/>
<path d="M26.0775 14.3244H25.5098V14.408H25.8602L26.0775 14.6009H26.484L26.7585 14.4132L26.7638 14.419L26.9463 14.2794C26.9626 14.2722 26.982 14.2659 27.0011 14.2629C27.0213 14.2597 27.0394 14.2606 27.0532 14.2661C27.066 14.2711 27.0774 14.2809 27.0841 14.3004C27.0911 14.3207 27.0928 14.3521 27.0834 14.3989C27.0738 14.4462 27.0613 14.4779 27.0483 14.4985C27.0354 14.519 27.0227 14.5274 27.0129 14.5305C26.9934 14.5367 26.9694 14.5261 26.9506 14.5072L26.9167 14.5355C26.9389 14.5579 26.9813 14.5852 27.0279 14.5703C27.0511 14.5629 27.0714 14.546 27.088 14.5196C27.1046 14.4933 27.1184 14.4565 27.1285 14.4066C27.1387 14.3564 27.138 14.3173 27.1279 14.2878C27.1175 14.2573 27.0972 14.2375 27.0713 14.2273C27.0464 14.2176 27.0185 14.2174 26.9934 14.2214C26.9681 14.2253 26.9435 14.2336 26.9234 14.2428L26.921 14.2439L26.7738 14.3565H26.484L26.2947 14.1057L26.0775 14.3244Z" fill="#E77D42"/>
<path d="M26.5928 14.6009H25.9741V14.6649H26.5928V14.6009Z" fill="#E77D42"/>
<path d="M25.4312 13.8078C25.345 13.7257 25.4671 13.6173 25.539 13.5734C25.4974 13.6141 25.4353 13.7034 25.519 13.7345C25.6026 13.7657 25.6576 13.8232 25.6747 13.8481C25.6933 13.9006 25.7122 14.0254 25.6388 14.1045C25.5653 14.1836 25.5815 14.284 25.5988 14.3243H25.519C25.4897 14.3072 25.4487 14.2334 25.519 14.0752C25.6068 13.8774 25.539 13.9104 25.4312 13.8078Z" fill="#F8D74C"/>
<path d="M25.9262 14.2602C25.9262 14.2834 25.9056 14.3023 25.8803 14.3023C25.8549 14.3023 25.8344 14.2834 25.8344 14.2602C25.8344 14.2369 25.8549 14.218 25.8803 14.218C25.9056 14.218 25.9262 14.2369 25.9262 14.2602Z" fill="#F8D74C"/>
<path d="M26.7343 14.2602C26.7343 14.2834 26.7548 14.3023 26.7802 14.3023C26.8055 14.3023 26.8261 14.2834 26.8261 14.2602C26.8261 14.2369 26.8055 14.218 26.7802 14.218C26.7548 14.218 26.7343 14.2369 26.7343 14.2602Z" fill="#F8D74C"/>
<path d="M26.018 14.1759C26.018 14.1992 25.9974 14.218 25.9721 14.218C25.9467 14.218 25.9262 14.1992 25.9262 14.1759C25.9262 14.1527 25.9467 14.1338 25.9721 14.1338C25.9974 14.1338 26.018 14.1527 26.018 14.1759Z" fill="#F8D74C"/>
<path d="M26.6425 14.1759C26.6425 14.1992 26.663 14.218 26.6884 14.218C26.7137 14.218 26.7343 14.1992 26.7343 14.1759C26.7343 14.1527 26.7137 14.1338 26.6884 14.1338C26.663 14.1338 26.6425 14.1527 26.6425 14.1759Z" fill="#F8D74C"/>
<path d="M26.1098 14.0853C26.1098 14.1086 26.0893 14.1274 26.0639 14.1274C26.0386 14.1274 26.018 14.1086 26.018 14.0853C26.018 14.062 26.0386 14.0432 26.0639 14.0432C26.0893 14.0432 26.1098 14.062 26.1098 14.0853Z" fill="#F8D74C"/>
<path d="M26.5506 14.0853C26.5506 14.1086 26.5712 14.1274 26.5965 14.1274C26.6219 14.1274 26.6425 14.1086 26.6425 14.0853C26.6425 14.062 26.6219 14.0432 26.5965 14.0432C26.5712 14.0432 26.5506 14.062 26.5506 14.0853Z" fill="#F8D74C"/>
<path d="M26.1999 14.0011C26.1999 14.0243 26.1794 14.0432 26.154 14.0432C26.1287 14.0432 26.1081 14.0243 26.1081 14.0011C26.1081 13.9778 26.1287 13.9589 26.154 13.9589C26.1794 13.9589 26.1999 13.9778 26.1999 14.0011Z" fill="#F8D74C"/>
<path d="M26.4605 14.0011C26.4605 14.0243 26.4811 14.0432 26.5064 14.0432C26.5318 14.0432 26.5524 14.0243 26.5524 14.0011C26.5524 13.9778 26.5318 13.9589 26.5064 13.9589C26.4811 13.9589 26.4605 13.9778 26.4605 14.0011Z" fill="#F8D74C"/>
<path d="M26.2917 13.9067C26.2917 13.93 26.2712 13.9488 26.2458 13.9488C26.2205 13.9488 26.1999 13.93 26.1999 13.9067C26.1999 13.8834 26.2205 13.8646 26.2458 13.8646C26.2712 13.8646 26.2917 13.8834 26.2917 13.9067Z" fill="#F8D74C"/>
<path d="M26.3687 13.9067C26.3687 13.93 26.3893 13.9488 26.4146 13.9488C26.44 13.9488 26.4605 13.93 26.4605 13.9067C26.4605 13.8834 26.44 13.8646 26.4146 13.8646C26.3893 13.8646 26.3687 13.8834 26.3687 13.9067Z" fill="#F8D74C"/>
<path d="M26.3687 13.8224C26.3687 13.8457 26.3482 13.8646 26.3228 13.8646C26.2975 13.8646 26.2769 13.8457 26.2769 13.8224C26.2769 13.7992 26.2975 13.7803 26.3228 13.7803C26.3482 13.7803 26.3687 13.7992 26.3687 13.8224Z" fill="#F8D74C"/>
<path d="M21.3881 13.1719H20.8205V13.2555H21.1709L21.3881 13.4484H21.7946L22.0692 13.2607L22.0744 13.2665L22.2569 13.127C22.2733 13.1197 22.2926 13.1134 22.3117 13.1104C22.332 13.1073 22.35 13.1082 22.3638 13.1136C22.3767 13.1186 22.3881 13.1284 22.3947 13.1479C22.4017 13.1683 22.4035 13.1997 22.394 13.2465C22.3844 13.2937 22.3719 13.3254 22.3589 13.346C22.346 13.3665 22.3333 13.3749 22.3235 13.378C22.3041 13.3842 22.2801 13.3737 22.2613 13.3547L22.2273 13.383C22.2495 13.4055 22.292 13.4327 22.3386 13.4178C22.3618 13.4104 22.382 13.3935 22.3987 13.3671C22.4152 13.3409 22.429 13.304 22.4391 13.2542C22.4493 13.2039 22.4486 13.1648 22.4385 13.1353C22.4281 13.1048 22.4078 13.0851 22.3819 13.0749C22.357 13.0651 22.3292 13.065 22.3041 13.0689C22.2787 13.0728 22.2541 13.0812 22.234 13.0904L22.2317 13.0915L22.0844 13.2041H21.7946L21.6054 12.9533L21.3881 13.1719Z" fill="#E77D42"/>
<path d="M21.9035 13.4484H21.2847V13.5125H21.9035V13.4484Z" fill="#E77D42"/>
<path d="M20.7418 12.6553C20.6556 12.5733 20.7777 12.4649 20.8496 12.4209C20.8081 12.4616 20.746 12.5509 20.8296 12.5821C20.9133 12.6132 20.9683 12.6707 20.9853 12.6956C21.0039 12.7481 21.0228 12.8729 20.9494 12.952C20.8759 13.0312 20.8922 13.1315 20.9095 13.1718H20.8296C20.8004 13.1547 20.7594 13.081 20.8296 12.9227C20.9174 12.7249 20.8496 12.7579 20.7418 12.6553Z" fill="#F8D74C"/>
<path d="M21.2368 13.1077C21.2368 13.131 21.2163 13.1498 21.1909 13.1498C21.1656 13.1498 21.145 13.131 21.145 13.1077C21.145 13.0844 21.1656 13.0656 21.1909 13.0656C21.2163 13.0656 21.2368 13.0844 21.2368 13.1077Z" fill="#F8D74C"/>
<path d="M22.0449 13.1077C22.0449 13.131 22.0655 13.1498 22.0908 13.1498C22.1162 13.1498 22.1367 13.131 22.1367 13.1077C22.1367 13.0844 22.1162 13.0656 22.0908 13.0656C22.0655 13.0656 22.0449 13.0844 22.0449 13.1077Z" fill="#F8D74C"/>
<path d="M21.3286 13.0235C21.3286 13.0467 21.3081 13.0656 21.2827 13.0656C21.2574 13.0656 21.2368 13.0467 21.2368 13.0235C21.2368 13.0002 21.2574 12.9813 21.2827 12.9813C21.3081 12.9813 21.3286 13.0002 21.3286 13.0235Z" fill="#F8D74C"/>
<path d="M21.9531 13.0235C21.9531 13.0467 21.9736 13.0656 21.999 13.0656C22.0244 13.0656 22.0449 13.0467 22.0449 13.0235C22.0449 13.0002 22.0244 12.9813 21.999 12.9813C21.9736 12.9813 21.9531 13.0002 21.9531 13.0235Z" fill="#F8D74C"/>
<path d="M21.4205 12.9328C21.4205 12.9561 21.3999 12.975 21.3745 12.975C21.3492 12.975 21.3286 12.9561 21.3286 12.9328C21.3286 12.9096 21.3492 12.8907 21.3745 12.8907C21.3999 12.8907 21.4205 12.9096 21.4205 12.9328Z" fill="#F8D74C"/>
<path d="M21.8613 12.9328C21.8613 12.9561 21.8818 12.975 21.9072 12.975C21.9325 12.975 21.9531 12.9561 21.9531 12.9328C21.9531 12.9096 21.9325 12.8907 21.9072 12.8907C21.8818 12.8907 21.8613 12.9096 21.8613 12.9328Z" fill="#F8D74C"/>
<path d="M21.5105 12.8486C21.5105 12.8719 21.49 12.8907 21.4646 12.8907C21.4393 12.8907 21.4187 12.8719 21.4187 12.8486C21.4187 12.8253 21.4393 12.8065 21.4646 12.8065C21.49 12.8065 21.5105 12.8253 21.5105 12.8486Z" fill="#F8D74C"/>
<path d="M21.7712 12.8486C21.7712 12.8719 21.7917 12.8907 21.8171 12.8907C21.8424 12.8907 21.863 12.8719 21.863 12.8486C21.863 12.8253 21.8424 12.8065 21.8171 12.8065C21.7917 12.8065 21.7712 12.8253 21.7712 12.8486Z" fill="#F8D74C"/>
<path d="M21.6024 12.7542C21.6024 12.7775 21.5818 12.7964 21.5565 12.7964C21.5311 12.7964 21.5105 12.7775 21.5105 12.7542C21.5105 12.731 21.5311 12.7121 21.5565 12.7121C21.5818 12.7121 21.6024 12.731 21.6024 12.7542Z" fill="#F8D74C"/>
<path d="M21.6794 12.7542C21.6794 12.7775 21.6999 12.7964 21.7253 12.7964C21.7506 12.7964 21.7712 12.7775 21.7712 12.7542C21.7712 12.731 21.7506 12.7121 21.7253 12.7121C21.6999 12.7121 21.6794 12.731 21.6794 12.7542Z" fill="#F8D74C"/>
<path d="M21.6794 12.67C21.6794 12.6932 21.6588 12.7121 21.6335 12.7121C21.6081 12.7121 21.5875 12.6932 21.5875 12.67C21.5875 12.6467 21.6081 12.6279 21.6335 12.6279C21.6588 12.6279 21.6794 12.6467 21.6794 12.67Z" fill="#F8D74C"/>
<path d="M26.0775 13.1719H25.5098V13.2555H25.8602L26.0775 13.4484H26.484L26.7585 13.2607L26.7638 13.2665L26.9463 13.127C26.9626 13.1197 26.982 13.1134 27.0011 13.1104C27.0213 13.1073 27.0394 13.1082 27.0532 13.1136C27.066 13.1186 27.0774 13.1284 27.0841 13.1479C27.0911 13.1683 27.0928 13.1997 27.0834 13.2465C27.0738 13.2937 27.0613 13.3254 27.0483 13.346C27.0354 13.3665 27.0227 13.3749 27.0129 13.378C26.9934 13.3842 26.9694 13.3737 26.9506 13.3547L26.9167 13.383C26.9389 13.4055 26.9813 13.4327 27.0279 13.4178C27.0511 13.4104 27.0714 13.3935 27.088 13.3671C27.1046 13.3409 27.1184 13.304 27.1285 13.2542C27.1387 13.2039 27.138 13.1648 27.1279 13.1353C27.1175 13.1048 27.0972 13.0851 27.0713 13.0749C27.0464 13.0651 27.0185 13.065 26.9934 13.0689C26.9681 13.0728 26.9435 13.0812 26.9234 13.0904L26.921 13.0915L26.7738 13.2041H26.484L26.2947 12.9533L26.0775 13.1719Z" fill="#E77D42"/>
<path d="M26.5928 13.4484H25.9741V13.5125H26.5928V13.4484Z" fill="#E77D42"/>
<path d="M25.4312 12.6553C25.345 12.5733 25.4671 12.4649 25.539 12.4209C25.4974 12.4616 25.4353 12.5509 25.519 12.5821C25.6026 12.6132 25.6576 12.6707 25.6747 12.6956C25.6933 12.7481 25.7122 12.8729 25.6388 12.952C25.5653 13.0312 25.5815 13.1315 25.5988 13.1718H25.519C25.4897 13.1547 25.4487 13.081 25.519 12.9227C25.6068 12.7249 25.539 12.7579 25.4312 12.6553Z" fill="#F8D74C"/>
<path d="M25.9262 13.1077C25.9262 13.131 25.9056 13.1498 25.8803 13.1498C25.8549 13.1498 25.8344 13.131 25.8344 13.1077C25.8344 13.0844 25.8549 13.0656 25.8803 13.0656C25.9056 13.0656 25.9262 13.0844 25.9262 13.1077Z" fill="#F8D74C"/>
<path d="M26.7343 13.1077C26.7343 13.131 26.7548 13.1498 26.7802 13.1498C26.8055 13.1498 26.8261 13.131 26.8261 13.1077C26.8261 13.0844 26.8055 13.0656 26.7802 13.0656C26.7548 13.0656 26.7343 13.0844 26.7343 13.1077Z" fill="#F8D74C"/>
<path d="M26.018 13.0235C26.018 13.0467 25.9974 13.0656 25.9721 13.0656C25.9467 13.0656 25.9262 13.0467 25.9262 13.0235C25.9262 13.0002 25.9467 12.9813 25.9721 12.9813C25.9974 12.9813 26.018 13.0002 26.018 13.0235Z" fill="#F8D74C"/>
<path d="M26.6425 13.0235C26.6425 13.0467 26.663 13.0656 26.6884 13.0656C26.7137 13.0656 26.7343 13.0467 26.7343 13.0235C26.7343 13.0002 26.7137 12.9813 26.6884 12.9813C26.663 12.9813 26.6425 13.0002 26.6425 13.0235Z" fill="#F8D74C"/>
<path d="M26.1098 12.9328C26.1098 12.9561 26.0893 12.975 26.0639 12.975C26.0386 12.975 26.018 12.9561 26.018 12.9328C26.018 12.9096 26.0386 12.8907 26.0639 12.8907C26.0893 12.8907 26.1098 12.9096 26.1098 12.9328Z" fill="#F8D74C"/>
<path d="M26.5506 12.9328C26.5506 12.9561 26.5712 12.975 26.5965 12.975C26.6219 12.975 26.6425 12.9561 26.6425 12.9328C26.6425 12.9096 26.6219 12.8907 26.5965 12.8907C26.5712 12.8907 26.5506 12.9096 26.5506 12.9328Z" fill="#F8D74C"/>
<path d="M26.1999 12.8486C26.1999 12.8719 26.1794 12.8907 26.154 12.8907C26.1287 12.8907 26.1081 12.8719 26.1081 12.8486C26.1081 12.8253 26.1287 12.8065 26.154 12.8065C26.1794 12.8065 26.1999 12.8253 26.1999 12.8486Z" fill="#F8D74C"/>
<path d="M26.4605 12.8486C26.4605 12.8719 26.4811 12.8907 26.5064 12.8907C26.5318 12.8907 26.5524 12.8719 26.5524 12.8486C26.5524 12.8253 26.5318 12.8065 26.5064 12.8065C26.4811 12.8065 26.4605 12.8253 26.4605 12.8486Z" fill="#F8D74C"/>
<path d="M26.2917 12.7542C26.2917 12.7775 26.2712 12.7964 26.2458 12.7964C26.2205 12.7964 26.1999 12.7775 26.1999 12.7542C26.1999 12.731 26.2205 12.7121 26.2458 12.7121C26.2712 12.7121 26.2917 12.731 26.2917 12.7542Z" fill="#F8D74C"/>
<path d="M26.3687 12.7542C26.3687 12.7775 26.3893 12.7964 26.4146 12.7964C26.44 12.7964 26.4605 12.7775 26.4605 12.7542C26.4605 12.731 26.44 12.7121 26.4146 12.7121C26.3893 12.7121 26.3687 12.731 26.3687 12.7542Z" fill="#F8D74C"/>
<path d="M26.3687 12.67C26.3687 12.6932 26.3482 12.7121 26.3228 12.7121C26.2975 12.7121 26.2769 12.6932 26.2769 12.67C26.2769 12.6467 26.2975 12.6279 26.3228 12.6279C26.3482 12.6279 26.3687 12.6467 26.3687 12.67Z" fill="#F8D74C"/>
<path d="M21.3881 16.5077H20.8205V16.5913H21.1709L21.3881 16.7842H21.7946L22.0692 16.5965L22.0744 16.6023L22.2569 16.4628C22.2733 16.4555 22.2926 16.4492 22.3117 16.4462C22.332 16.4431 22.35 16.444 22.3638 16.4494C22.3767 16.4545 22.3881 16.4642 22.3947 16.4837C22.4017 16.5041 22.4035 16.5355 22.394 16.5823C22.3844 16.6295 22.3719 16.6612 22.3589 16.6818C22.346 16.7023 22.3333 16.7107 22.3235 16.7139C22.3041 16.7201 22.2801 16.7095 22.2613 16.6905L22.2273 16.7188C22.2495 16.7413 22.292 16.7685 22.3386 16.7536C22.3618 16.7462 22.382 16.7293 22.3987 16.7029C22.4152 16.6767 22.429 16.6399 22.4391 16.59C22.4493 16.5397 22.4486 16.5007 22.4385 16.4711C22.4281 16.4406 22.4078 16.4209 22.3819 16.4107C22.357 16.4009 22.3292 16.4008 22.3041 16.4047C22.2787 16.4086 22.2541 16.417 22.234 16.4262L22.2317 16.4273L22.0844 16.5399H21.7946L21.6054 16.2891L21.3881 16.5077Z" fill="#E77D42"/>
<path d="M21.9035 16.7842H21.2847V16.8483H21.9035V16.7842Z" fill="#E77D42"/>
<path d="M20.7418 15.9911C20.6556 15.9091 20.7777 15.8007 20.8496 15.7567C20.8081 15.7975 20.746 15.8867 20.8296 15.9179C20.9133 15.949 20.9683 16.0066 20.9853 16.0314C21.0039 16.0839 21.0228 16.2087 20.9494 16.2878C20.8759 16.367 20.8922 16.4673 20.9095 16.5076H20.8296C20.8004 16.4905 20.7594 16.4168 20.8296 16.2585C20.9174 16.0607 20.8496 16.0937 20.7418 15.9911Z" fill="#F8D74C"/>
<path d="M21.2368 16.4435C21.2368 16.4668 21.2163 16.4856 21.1909 16.4856C21.1656 16.4856 21.145 16.4668 21.145 16.4435C21.145 16.4203 21.1656 16.4014 21.1909 16.4014C21.2163 16.4014 21.2368 16.4203 21.2368 16.4435Z" fill="#F8D74C"/>
<path d="M22.0449 16.4435C22.0449 16.4668 22.0655 16.4856 22.0908 16.4856C22.1162 16.4856 22.1367 16.4668 22.1367 16.4435C22.1367 16.4203 22.1162 16.4014 22.0908 16.4014C22.0655 16.4014 22.0449 16.4203 22.0449 16.4435Z" fill="#F8D74C"/>
<path d="M21.3286 16.3593C21.3286 16.3825 21.3081 16.4014 21.2827 16.4014C21.2574 16.4014 21.2368 16.3825 21.2368 16.3593C21.2368 16.336 21.2574 16.3172 21.2827 16.3172C21.3081 16.3172 21.3286 16.336 21.3286 16.3593Z" fill="#F8D74C"/>
<path d="M21.9531 16.3593C21.9531 16.3825 21.9736 16.4014 21.999 16.4014C22.0244 16.4014 22.0449 16.3825 22.0449 16.3593C22.0449 16.336 22.0244 16.3172 21.999 16.3172C21.9736 16.3172 21.9531 16.336 21.9531 16.3593Z" fill="#F8D74C"/>
<path d="M21.4205 16.2687C21.4205 16.2919 21.3999 16.3108 21.3745 16.3108C21.3492 16.3108 21.3286 16.2919 21.3286 16.2687C21.3286 16.2454 21.3492 16.2265 21.3745 16.2265C21.3999 16.2265 21.4205 16.2454 21.4205 16.2687Z" fill="#F8D74C"/>
<path d="M21.8613 16.2687C21.8613 16.2919 21.8818 16.3108 21.9072 16.3108C21.9325 16.3108 21.9531 16.2919 21.9531 16.2687C21.9531 16.2454 21.9325 16.2265 21.9072 16.2265C21.8818 16.2265 21.8613 16.2454 21.8613 16.2687Z" fill="#F8D74C"/>
<path d="M21.5105 16.1844C21.5105 16.2077 21.49 16.2265 21.4646 16.2265C21.4393 16.2265 21.4187 16.2077 21.4187 16.1844C21.4187 16.1611 21.4393 16.1423 21.4646 16.1423C21.49 16.1423 21.5105 16.1611 21.5105 16.1844Z" fill="#F8D74C"/>
<path d="M21.7712 16.1844C21.7712 16.2077 21.7917 16.2265 21.8171 16.2265C21.8424 16.2265 21.863 16.2077 21.863 16.1844C21.863 16.1611 21.8424 16.1423 21.8171 16.1423C21.7917 16.1423 21.7712 16.1611 21.7712 16.1844Z" fill="#F8D74C"/>
<path d="M21.6024 16.09C21.6024 16.1133 21.5818 16.1322 21.5565 16.1322C21.5311 16.1322 21.5105 16.1133 21.5105 16.09C21.5105 16.0668 21.5311 16.0479 21.5565 16.0479C21.5818 16.0479 21.6024 16.0668 21.6024 16.09Z" fill="#F8D74C"/>
<path d="M21.6794 16.09C21.6794 16.1133 21.6999 16.1322 21.7253 16.1322C21.7506 16.1322 21.7712 16.1133 21.7712 16.09C21.7712 16.0668 21.7506 16.0479 21.7253 16.0479C21.6999 16.0479 21.6794 16.0668 21.6794 16.09Z" fill="#F8D74C"/>
<path d="M21.6794 16.0058C21.6794 16.0291 21.6588 16.0479 21.6335 16.0479C21.6081 16.0479 21.5875 16.0291 21.5875 16.0058C21.5875 15.9825 21.6081 15.9637 21.6335 15.9637C21.6588 15.9637 21.6794 15.9825 21.6794 16.0058Z" fill="#F8D74C"/>
<path d="M26.0775 16.5077H25.5098V16.5913H25.8602L26.0775 16.7842H26.484L26.7585 16.5965L26.7638 16.6023L26.9463 16.4628C26.9626 16.4555 26.982 16.4492 27.0011 16.4462C27.0213 16.4431 27.0394 16.444 27.0532 16.4494C27.066 16.4545 27.0774 16.4642 27.0841 16.4837C27.0911 16.5041 27.0928 16.5355 27.0834 16.5823C27.0738 16.6295 27.0613 16.6612 27.0483 16.6818C27.0354 16.7023 27.0227 16.7107 27.0129 16.7139C26.9934 16.7201 26.9694 16.7095 26.9506 16.6905L26.9167 16.7188C26.9389 16.7413 26.9813 16.7685 27.0279 16.7536C27.0511 16.7462 27.0714 16.7293 27.088 16.7029C27.1046 16.6767 27.1184 16.6399 27.1285 16.59C27.1387 16.5397 27.138 16.5007 27.1279 16.4711C27.1175 16.4406 27.0972 16.4209 27.0713 16.4107C27.0464 16.4009 27.0185 16.4008 26.9934 16.4047C26.9681 16.4086 26.9435 16.417 26.9234 16.4262L26.921 16.4273L26.7738 16.5399H26.484L26.2947 16.2891L26.0775 16.5077Z" fill="#E77D42"/>
<path d="M26.5928 16.7842H25.9741V16.8483H26.5928V16.7842Z" fill="#E77D42"/>
<path d="M25.4312 15.9911C25.345 15.9091 25.4671 15.8007 25.539 15.7567C25.4974 15.7975 25.4353 15.8867 25.519 15.9179C25.6026 15.949 25.6576 16.0066 25.6747 16.0314C25.6933 16.0839 25.7122 16.2087 25.6388 16.2878C25.5653 16.367 25.5815 16.4673 25.5988 16.5076H25.519C25.4897 16.4905 25.4487 16.4168 25.519 16.2585C25.6068 16.0607 25.539 16.0937 25.4312 15.9911Z" fill="#F8D74C"/>
<path d="M25.9262 16.4435C25.9262 16.4668 25.9056 16.4856 25.8803 16.4856C25.8549 16.4856 25.8344 16.4668 25.8344 16.4435C25.8344 16.4203 25.8549 16.4014 25.8803 16.4014C25.9056 16.4014 25.9262 16.4203 25.9262 16.4435Z" fill="#F8D74C"/>
<path d="M26.7343 16.4435C26.7343 16.4668 26.7548 16.4856 26.7802 16.4856C26.8055 16.4856 26.8261 16.4668 26.8261 16.4435C26.8261 16.4203 26.8055 16.4014 26.7802 16.4014C26.7548 16.4014 26.7343 16.4203 26.7343 16.4435Z" fill="#F8D74C"/>
<path d="M26.018 16.3593C26.018 16.3825 25.9974 16.4014 25.9721 16.4014C25.9467 16.4014 25.9262 16.3825 25.9262 16.3593C25.9262 16.336 25.9467 16.3172 25.9721 16.3172C25.9974 16.3172 26.018 16.336 26.018 16.3593Z" fill="#F8D74C"/>
<path d="M26.6425 16.3593C26.6425 16.3825 26.663 16.4014 26.6884 16.4014C26.7137 16.4014 26.7343 16.3825 26.7343 16.3593C26.7343 16.336 26.7137 16.3172 26.6884 16.3172C26.663 16.3172 26.6425 16.336 26.6425 16.3593Z" fill="#F8D74C"/>
<path d="M26.1098 16.2687C26.1098 16.2919 26.0893 16.3108 26.0639 16.3108C26.0386 16.3108 26.018 16.2919 26.018 16.2687C26.018 16.2454 26.0386 16.2265 26.0639 16.2265C26.0893 16.2265 26.1098 16.2454 26.1098 16.2687Z" fill="#F8D74C"/>
<path d="M26.5506 16.2687C26.5506 16.2919 26.5712 16.3108 26.5965 16.3108C26.6219 16.3108 26.6425 16.2919 26.6425 16.2687C26.6425 16.2454 26.6219 16.2265 26.5965 16.2265C26.5712 16.2265 26.5506 16.2454 26.5506 16.2687Z" fill="#F8D74C"/>
<path d="M26.1999 16.1844C26.1999 16.2077 26.1794 16.2265 26.154 16.2265C26.1287 16.2265 26.1081 16.2077 26.1081 16.1844C26.1081 16.1611 26.1287 16.1423 26.154 16.1423C26.1794 16.1423 26.1999 16.1611 26.1999 16.1844Z" fill="#F8D74C"/>
<path d="M26.4605 16.1844C26.4605 16.2077 26.4811 16.2265 26.5064 16.2265C26.5318 16.2265 26.5524 16.2077 26.5524 16.1844C26.5524 16.1611 26.5318 16.1423 26.5064 16.1423C26.4811 16.1423 26.4605 16.1611 26.4605 16.1844Z" fill="#F8D74C"/>
<path d="M26.2917 16.09C26.2917 16.1133 26.2712 16.1322 26.2458 16.1322C26.2205 16.1322 26.1999 16.1133 26.1999 16.09C26.1999 16.0668 26.2205 16.0479 26.2458 16.0479C26.2712 16.0479 26.2917 16.0668 26.2917 16.09Z" fill="#F8D74C"/>
<path d="M26.3687 16.09C26.3687 16.1133 26.3893 16.1322 26.4146 16.1322C26.44 16.1322 26.4605 16.1133 26.4605 16.09C26.4605 16.0668 26.44 16.0479 26.4146 16.0479C26.3893 16.0479 26.3687 16.0668 26.3687 16.09Z" fill="#F8D74C"/>
<path d="M26.3687 16.0058C26.3687 16.0291 26.3482 16.0479 26.3228 16.0479C26.2975 16.0479 26.2769 16.0291 26.2769 16.0058C26.2769 15.9825 26.2975 15.9637 26.3228 15.9637C26.3482 15.9637 26.3687 15.9825 26.3687 16.0058Z" fill="#F8D74C"/>
<path d="M21.3881 12.0802H20.8205V12.1638H21.1709L21.3881 12.3567H21.7946L22.0692 12.169L22.0744 12.1748L22.2569 12.0353C22.2733 12.028 22.2926 12.0217 22.3117 12.0187C22.332 12.0156 22.35 12.0165 22.3638 12.0219C22.3767 12.027 22.3881 12.0367 22.3947 12.0562C22.4017 12.0766 22.4035 12.108 22.394 12.1548C22.3844 12.202 22.3719 12.2337 22.3589 12.2544C22.346 12.2749 22.3333 12.2832 22.3235 12.2864C22.3041 12.2926 22.2801 12.282 22.2613 12.263L22.2273 12.2913C22.2495 12.3138 22.292 12.341 22.3386 12.3261C22.3618 12.3187 22.382 12.3019 22.3987 12.2755C22.4152 12.2492 22.429 12.2124 22.4391 12.1625C22.4493 12.1122 22.4486 12.0732 22.4385 12.0436C22.4281 12.0132 22.4078 11.9934 22.3819 11.9832C22.357 11.9734 22.3292 11.9733 22.3041 11.9772C22.2787 11.9812 22.2541 11.9895 22.234 11.9987L22.2317 11.9998L22.0844 12.1124H21.7946L21.6054 11.8616L21.3881 12.0802Z" fill="#E77D42"/>
<path d="M21.9035 12.3567H21.2847V12.4208H21.9035V12.3567Z" fill="#E77D42"/>
<path d="M20.7418 11.5637C20.6556 11.4816 20.7777 11.3732 20.8496 11.3292C20.8081 11.37 20.746 11.4593 20.8296 11.4904C20.9133 11.5215 20.9683 11.5791 20.9853 11.6039C21.0039 11.6565 21.0228 11.7812 20.9494 11.8604C20.8759 11.9395 20.8922 12.0398 20.9095 12.0801H20.8296C20.8004 12.063 20.7594 11.9893 20.8296 11.8311C20.9174 11.6333 20.8496 11.6662 20.7418 11.5637Z" fill="#F8D74C"/>
<path d="M21.2368 12.016C21.2368 12.0393 21.2163 12.0582 21.1909 12.0582C21.1656 12.0582 21.145 12.0393 21.145 12.016C21.145 11.9928 21.1656 11.9739 21.1909 11.9739C21.2163 11.9739 21.2368 11.9928 21.2368 12.016Z" fill="#F8D74C"/>
<path d="M22.0449 12.016C22.0449 12.0393 22.0655 12.0582 22.0908 12.0582C22.1162 12.0582 22.1367 12.0393 22.1367 12.016C22.1367 11.9928 22.1162 11.9739 22.0908 11.9739C22.0655 11.9739 22.0449 11.9928 22.0449 12.016Z" fill="#F8D74C"/>
<path d="M21.3286 11.9318C21.3286 11.955 21.3081 11.9739 21.2827 11.9739C21.2574 11.9739 21.2368 11.955 21.2368 11.9318C21.2368 11.9085 21.2574 11.8897 21.2827 11.8897C21.3081 11.8897 21.3286 11.9085 21.3286 11.9318Z" fill="#F8D74C"/>
<path d="M21.9531 11.9318C21.9531 11.955 21.9736 11.9739 21.999 11.9739C22.0244 11.9739 22.0449 11.955 22.0449 11.9318C22.0449 11.9085 22.0244 11.8897 21.999 11.8897C21.9736 11.8897 21.9531 11.9085 21.9531 11.9318Z" fill="#F8D74C"/>
<path d="M21.4205 11.8412C21.4205 11.8644 21.3999 11.8833 21.3745 11.8833C21.3492 11.8833 21.3286 11.8644 21.3286 11.8412C21.3286 11.8179 21.3492 11.799 21.3745 11.799C21.3999 11.799 21.4205 11.8179 21.4205 11.8412Z" fill="#F8D74C"/>
<path d="M21.8613 11.8412C21.8613 11.8644 21.8818 11.8833 21.9072 11.8833C21.9325 11.8833 21.9531 11.8644 21.9531 11.8412C21.9531 11.8179 21.9325 11.799 21.9072 11.799C21.8818 11.799 21.8613 11.8179 21.8613 11.8412Z" fill="#F8D74C"/>
<path d="M21.5105 11.7569C21.5105 11.7802 21.49 11.799 21.4646 11.799C21.4393 11.799 21.4187 11.7802 21.4187 11.7569C21.4187 11.7337 21.4393 11.7148 21.4646 11.7148C21.49 11.7148 21.5105 11.7337 21.5105 11.7569Z" fill="#F8D74C"/>
<path d="M21.7712 11.7569C21.7712 11.7802 21.7917 11.799 21.8171 11.799C21.8424 11.799 21.863 11.7802 21.863 11.7569C21.863 11.7337 21.8424 11.7148 21.8171 11.7148C21.7917 11.7148 21.7712 11.7337 21.7712 11.7569Z" fill="#F8D74C"/>
<path d="M21.6024 11.6626C21.6024 11.6858 21.5818 11.7047 21.5565 11.7047C21.5311 11.7047 21.5105 11.6858 21.5105 11.6626C21.5105 11.6393 21.5311 11.6204 21.5565 11.6204C21.5818 11.6204 21.6024 11.6393 21.6024 11.6626Z" fill="#F8D74C"/>
<path d="M21.6794 11.6626C21.6794 11.6858 21.6999 11.7047 21.7253 11.7047C21.7506 11.7047 21.7712 11.6858 21.7712 11.6626C21.7712 11.6393 21.7506 11.6204 21.7253 11.6204C21.6999 11.6204 21.6794 11.6393 21.6794 11.6626Z" fill="#F8D74C"/>
<path d="M21.6794 11.5783C21.6794 11.6016 21.6588 11.6204 21.6335 11.6204C21.6081 11.6204 21.5875 11.6016 21.5875 11.5783C21.5875 11.555 21.6081 11.5362 21.6335 11.5362C21.6588 11.5362 21.6794 11.555 21.6794 11.5783Z" fill="#F8D74C"/>
<path d="M26.0775 12.0802H25.5098V12.1638H25.8602L26.0775 12.3567H26.484L26.7585 12.169L26.7638 12.1748L26.9463 12.0353C26.9626 12.028 26.982 12.0217 27.0011 12.0187C27.0213 12.0156 27.0394 12.0165 27.0532 12.0219C27.066 12.027 27.0774 12.0367 27.0841 12.0562C27.0911 12.0766 27.0928 12.108 27.0834 12.1548C27.0738 12.202 27.0613 12.2337 27.0483 12.2544C27.0354 12.2749 27.0227 12.2832 27.0129 12.2864C26.9934 12.2926 26.9694 12.282 26.9506 12.263L26.9167 12.2913C26.9389 12.3138 26.9813 12.341 27.0279 12.3261C27.0511 12.3187 27.0714 12.3019 27.088 12.2755C27.1046 12.2492 27.1184 12.2124 27.1285 12.1625C27.1387 12.1122 27.138 12.0732 27.1279 12.0436C27.1175 12.0132 27.0972 11.9934 27.0713 11.9832C27.0464 11.9734 27.0185 11.9733 26.9934 11.9772C26.9681 11.9812 26.9435 11.9895 26.9234 11.9987L26.921 11.9998L26.7738 12.1124H26.484L26.2947 11.8616L26.0775 12.0802Z" fill="#E77D42"/>
<path d="M26.5928 12.3567H25.9741V12.4208H26.5928V12.3567Z" fill="#E77D42"/>
<path d="M25.4312 11.5637C25.345 11.4816 25.4671 11.3732 25.539 11.3292C25.4974 11.37 25.4353 11.4593 25.519 11.4904C25.6026 11.5215 25.6576 11.5791 25.6747 11.6039C25.6933 11.6565 25.7122 11.7812 25.6388 11.8604C25.5653 11.9395 25.5815 12.0398 25.5988 12.0801H25.519C25.4897 12.063 25.4487 11.9893 25.519 11.8311C25.6068 11.6333 25.539 11.6662 25.4312 11.5637Z" fill="#F8D74C"/>
<path d="M25.9262 12.016C25.9262 12.0393 25.9056 12.0582 25.8803 12.0582C25.8549 12.0582 25.8344 12.0393 25.8344 12.016C25.8344 11.9928 25.8549 11.9739 25.8803 11.9739C25.9056 11.9739 25.9262 11.9928 25.9262 12.016Z" fill="#F8D74C"/>
<path d="M26.7343 12.016C26.7343 12.0393 26.7548 12.0582 26.7802 12.0582C26.8055 12.0582 26.8261 12.0393 26.8261 12.016C26.8261 11.9928 26.8055 11.9739 26.7802 11.9739C26.7548 11.9739 26.7343 11.9928 26.7343 12.016Z" fill="#F8D74C"/>
<path d="M26.018 11.9318C26.018 11.955 25.9974 11.9739 25.9721 11.9739C25.9467 11.9739 25.9262 11.955 25.9262 11.9318C25.9262 11.9085 25.9467 11.8897 25.9721 11.8897C25.9974 11.8897 26.018 11.9085 26.018 11.9318Z" fill="#F8D74C"/>
<path d="M26.6425 11.9318C26.6425 11.955 26.663 11.9739 26.6884 11.9739C26.7137 11.9739 26.7343 11.955 26.7343 11.9318C26.7343 11.9085 26.7137 11.8897 26.6884 11.8897C26.663 11.8897 26.6425 11.9085 26.6425 11.9318Z" fill="#F8D74C"/>
<path d="M26.1098 11.8412C26.1098 11.8644 26.0893 11.8833 26.0639 11.8833C26.0386 11.8833 26.018 11.8644 26.018 11.8412C26.018 11.8179 26.0386 11.799 26.0639 11.799C26.0893 11.799 26.1098 11.8179 26.1098 11.8412Z" fill="#F8D74C"/>
<path d="M26.5506 11.8412C26.5506 11.8644 26.5712 11.8833 26.5965 11.8833C26.6219 11.8833 26.6425 11.8644 26.6425 11.8412C26.6425 11.8179 26.6219 11.799 26.5965 11.799C26.5712 11.799 26.5506 11.8179 26.5506 11.8412Z" fill="#F8D74C"/>
<path d="M26.1999 11.7569C26.1999 11.7802 26.1794 11.799 26.154 11.799C26.1287 11.799 26.1081 11.7802 26.1081 11.7569C26.1081 11.7337 26.1287 11.7148 26.154 11.7148C26.1794 11.7148 26.1999 11.7337 26.1999 11.7569Z" fill="#F8D74C"/>
<path d="M26.4605 11.7569C26.4605 11.7802 26.4811 11.799 26.5064 11.799C26.5318 11.799 26.5524 11.7802 26.5524 11.7569C26.5524 11.7337 26.5318 11.7148 26.5064 11.7148C26.4811 11.7148 26.4605 11.7337 26.4605 11.7569Z" fill="#F8D74C"/>
<path d="M26.2917 11.6626C26.2917 11.6858 26.2712 11.7047 26.2458 11.7047C26.2205 11.7047 26.1999 11.6858 26.1999 11.6626C26.1999 11.6393 26.2205 11.6204 26.2458 11.6204C26.2712 11.6204 26.2917 11.6393 26.2917 11.6626Z" fill="#F8D74C"/>
<path d="M26.3687 11.6626C26.3687 11.6858 26.3893 11.7047 26.4146 11.7047C26.44 11.7047 26.4605 11.6858 26.4605 11.6626C26.4605 11.6393 26.44 11.6204 26.4146 11.6204C26.3893 11.6204 26.3687 11.6393 26.3687 11.6626Z" fill="#F8D74C"/>
<path d="M26.3687 11.5783C26.3687 11.6016 26.3482 11.6204 26.3228 11.6204C26.2975 11.6204 26.2769 11.6016 26.2769 11.5783C26.2769 11.555 26.2975 11.5362 26.3228 11.5362C26.3482 11.5362 26.3687 11.555 26.3687 11.5783Z" fill="#F8D74C"/>
<path d="M21.3881 15.4163H20.8205V15.4999H21.1709L21.3881 15.6928H21.7946L22.0692 15.5051L22.0744 15.5109L22.2569 15.3714C22.2733 15.3641 22.2926 15.3578 22.3117 15.3548C22.332 15.3517 22.35 15.3525 22.3638 15.358C22.3767 15.363 22.3881 15.3728 22.3947 15.3923C22.4017 15.4127 22.4035 15.444 22.394 15.4909C22.3844 15.5381 22.3719 15.5698 22.3589 15.5904C22.346 15.6109 22.3333 15.6193 22.3235 15.6224C22.3041 15.6286 22.2801 15.618 22.2613 15.5991L22.2273 15.6274C22.2495 15.6498 22.292 15.6771 22.3386 15.6622C22.3618 15.6548 22.382 15.6379 22.3987 15.6115C22.4152 15.5852 22.429 15.5484 22.4391 15.4986C22.4493 15.4483 22.4486 15.4092 22.4385 15.3797C22.4281 15.3492 22.4078 15.3295 22.3819 15.3193C22.357 15.3095 22.3292 15.3094 22.3041 15.3133C22.2787 15.3172 22.2541 15.3255 22.234 15.3347L22.2317 15.3358L22.0844 15.4484H21.7946L21.6054 15.1977L21.3881 15.4163Z" fill="#E77D42"/>
<path d="M21.9035 15.6928H21.2847V15.7569H21.9035V15.6928Z" fill="#E77D42"/>
<path d="M20.7418 14.8997C20.6556 14.8177 20.7777 14.7092 20.8496 14.6653C20.8081 14.706 20.746 14.7953 20.8296 14.8265C20.9133 14.8576 20.9683 14.9151 20.9853 14.94C21.0039 14.9925 21.0228 15.1173 20.9494 15.1964C20.8759 15.2755 20.8922 15.3759 20.9095 15.4162H20.8296C20.8004 15.3991 20.7594 15.3254 20.8296 15.1671C20.9174 14.9693 20.8496 15.0023 20.7418 14.8997Z" fill="#F8D74C"/>
<path d="M21.2368 15.3521C21.2368 15.3754 21.2163 15.3942 21.1909 15.3942C21.1656 15.3942 21.145 15.3754 21.145 15.3521C21.145 15.3288 21.1656 15.31 21.1909 15.31C21.2163 15.31 21.2368 15.3288 21.2368 15.3521Z" fill="#F8D74C"/>
<path d="M22.0449 15.3521C22.0449 15.3754 22.0655 15.3942 22.0908 15.3942C22.1162 15.3942 22.1367 15.3754 22.1367 15.3521C22.1367 15.3288 22.1162 15.31 22.0908 15.31C22.0655 15.31 22.0449 15.3288 22.0449 15.3521Z" fill="#F8D74C"/>
<path d="M21.3286 15.2678C21.3286 15.2911 21.3081 15.31 21.2827 15.31C21.2574 15.31 21.2368 15.2911 21.2368 15.2678C21.2368 15.2446 21.2574 15.2257 21.2827 15.2257C21.3081 15.2257 21.3286 15.2446 21.3286 15.2678Z" fill="#F8D74C"/>
<path d="M21.9531 15.2678C21.9531 15.2911 21.9736 15.31 21.999 15.31C22.0244 15.31 22.0449 15.2911 22.0449 15.2678C22.0449 15.2446 22.0244 15.2257 21.999 15.2257C21.9736 15.2257 21.9531 15.2446 21.9531 15.2678Z" fill="#F8D74C"/>
<path d="M21.4205 15.1772C21.4205 15.2005 21.3999 15.2193 21.3745 15.2193C21.3492 15.2193 21.3286 15.2005 21.3286 15.1772C21.3286 15.154 21.3492 15.1351 21.3745 15.1351C21.3999 15.1351 21.4205 15.154 21.4205 15.1772Z" fill="#F8D74C"/>
<path d="M21.8613 15.1772C21.8613 15.2005 21.8818 15.2193 21.9072 15.2193C21.9325 15.2193 21.9531 15.2005 21.9531 15.1772C21.9531 15.154 21.9325 15.1351 21.9072 15.1351C21.8818 15.1351 21.8613 15.154 21.8613 15.1772Z" fill="#F8D74C"/>
<path d="M21.5105 15.093C21.5105 15.1162 21.49 15.1351 21.4646 15.1351C21.4393 15.1351 21.4187 15.1162 21.4187 15.093C21.4187 15.0697 21.4393 15.0509 21.4646 15.0509C21.49 15.0509 21.5105 15.0697 21.5105 15.093Z" fill="#F8D74C"/>
<path d="M21.7712 15.093C21.7712 15.1162 21.7917 15.1351 21.8171 15.1351C21.8424 15.1351 21.863 15.1162 21.863 15.093C21.863 15.0697 21.8424 15.0509 21.8171 15.0509C21.7917 15.0509 21.7712 15.0697 21.7712 15.093Z" fill="#F8D74C"/>
<path d="M21.6024 14.9986C21.6024 15.0219 21.5818 15.0407 21.5565 15.0407C21.5311 15.0407 21.5105 15.0219 21.5105 14.9986C21.5105 14.9753 21.5311 14.9565 21.5565 14.9565C21.5818 14.9565 21.6024 14.9753 21.6024 14.9986Z" fill="#F8D74C"/>
<path d="M21.6794 14.9986C21.6794 15.0219 21.6999 15.0407 21.7253 15.0407C21.7506 15.0407 21.7712 15.0219 21.7712 14.9986C21.7712 14.9753 21.7506 14.9565 21.7253 14.9565C21.6999 14.9565 21.6794 14.9753 21.6794 14.9986Z" fill="#F8D74C"/>
<path d="M21.6794 14.9144C21.6794 14.9376 21.6588 14.9565 21.6335 14.9565C21.6081 14.9565 21.5875 14.9376 21.5875 14.9144C21.5875 14.8911 21.6081 14.8722 21.6335 14.8722C21.6588 14.8722 21.6794 14.8911 21.6794 14.9144Z" fill="#F8D74C"/>
<path d="M26.0775 15.4163H25.5098V15.4999H25.8602L26.0775 15.6928H26.484L26.7585 15.5051L26.7638 15.5109L26.9463 15.3714C26.9626 15.3641 26.982 15.3578 27.0011 15.3548C27.0213 15.3517 27.0394 15.3525 27.0532 15.358C27.066 15.363 27.0774 15.3728 27.0841 15.3923C27.0911 15.4127 27.0928 15.444 27.0834 15.4909C27.0738 15.5381 27.0613 15.5698 27.0483 15.5904C27.0354 15.6109 27.0227 15.6193 27.0129 15.6224C26.9934 15.6286 26.9694 15.618 26.9506 15.5991L26.9167 15.6274C26.9389 15.6498 26.9813 15.6771 27.0279 15.6622C27.0511 15.6548 27.0714 15.6379 27.088 15.6115C27.1046 15.5852 27.1184 15.5484 27.1285 15.4986C27.1387 15.4483 27.138 15.4092 27.1279 15.3797C27.1175 15.3492 27.0972 15.3295 27.0713 15.3193C27.0464 15.3095 27.0185 15.3094 26.9934 15.3133C26.9681 15.3172 26.9435 15.3255 26.9234 15.3347L26.921 15.3358L26.7738 15.4484H26.484L26.2947 15.1977L26.0775 15.4163Z" fill="#E77D42"/>
<path d="M26.5928 15.6928H25.9741V15.7569H26.5928V15.6928Z" fill="#E77D42"/>
<path d="M25.4312 14.8997C25.345 14.8177 25.4671 14.7092 25.539 14.6653C25.4974 14.706 25.4353 14.7953 25.519 14.8265C25.6026 14.8576 25.6576 14.9151 25.6747 14.94C25.6933 14.9925 25.7122 15.1173 25.6388 15.1964C25.5653 15.2755 25.5815 15.3759 25.5988 15.4162H25.519C25.4897 15.3991 25.4487 15.3254 25.519 15.1671C25.6068 14.9693 25.539 15.0023 25.4312 14.8997Z" fill="#F8D74C"/>
<path d="M25.9262 15.3521C25.9262 15.3754 25.9056 15.3942 25.8803 15.3942C25.8549 15.3942 25.8344 15.3754 25.8344 15.3521C25.8344 15.3288 25.8549 15.31 25.8803 15.31C25.9056 15.31 25.9262 15.3288 25.9262 15.3521Z" fill="#F8D74C"/>
<path d="M26.7343 15.3521C26.7343 15.3754 26.7548 15.3942 26.7802 15.3942C26.8055 15.3942 26.8261 15.3754 26.8261 15.3521C26.8261 15.3288 26.8055 15.31 26.7802 15.31C26.7548 15.31 26.7343 15.3288 26.7343 15.3521Z" fill="#F8D74C"/>
<path d="M26.018 15.2678C26.018 15.2911 25.9974 15.31 25.9721 15.31C25.9467 15.31 25.9262 15.2911 25.9262 15.2678C25.9262 15.2446 25.9467 15.2257 25.9721 15.2257C25.9974 15.2257 26.018 15.2446 26.018 15.2678Z" fill="#F8D74C"/>
<path d="M26.6425 15.2678C26.6425 15.2911 26.663 15.31 26.6884 15.31C26.7137 15.31 26.7343 15.2911 26.7343 15.2678C26.7343 15.2446 26.7137 15.2257 26.6884 15.2257C26.663 15.2257 26.6425 15.2446 26.6425 15.2678Z" fill="#F8D74C"/>
<path d="M26.1098 15.1772C26.1098 15.2005 26.0893 15.2193 26.0639 15.2193C26.0386 15.2193 26.018 15.2005 26.018 15.1772C26.018 15.154 26.0386 15.1351 26.0639 15.1351C26.0893 15.1351 26.1098 15.154 26.1098 15.1772Z" fill="#F8D74C"/>
<path d="M26.5506 15.1772C26.5506 15.2005 26.5712 15.2193 26.5965 15.2193C26.6219 15.2193 26.6425 15.2005 26.6425 15.1772C26.6425 15.154 26.6219 15.1351 26.5965 15.1351C26.5712 15.1351 26.5506 15.154 26.5506 15.1772Z" fill="#F8D74C"/>
<path d="M26.1999 15.093C26.1999 15.1162 26.1794 15.1351 26.154 15.1351C26.1287 15.1351 26.1081 15.1162 26.1081 15.093C26.1081 15.0697 26.1287 15.0509 26.154 15.0509C26.1794 15.0509 26.1999 15.0697 26.1999 15.093Z" fill="#F8D74C"/>
<path d="M26.4605 15.093C26.4605 15.1162 26.4811 15.1351 26.5064 15.1351C26.5318 15.1351 26.5524 15.1162 26.5524 15.093C26.5524 15.0697 26.5318 15.0509 26.5064 15.0509C26.4811 15.0509 26.4605 15.0697 26.4605 15.093Z" fill="#F8D74C"/>
<path d="M26.2917 14.9986C26.2917 15.0219 26.2712 15.0407 26.2458 15.0407C26.2205 15.0407 26.1999 15.0219 26.1999 14.9986C26.1999 14.9753 26.2205 14.9565 26.2458 14.9565C26.2712 14.9565 26.2917 14.9753 26.2917 14.9986Z" fill="#F8D74C"/>
<path d="M26.3687 14.9986C26.3687 15.0219 26.3893 15.0407 26.4146 15.0407C26.44 15.0407 26.4605 15.0219 26.4605 14.9986C26.4605 14.9753 26.44 14.9565 26.4146 14.9565C26.3893 14.9565 26.3687 14.9753 26.3687 14.9986Z" fill="#F8D74C"/>
<path d="M26.3687 14.9144C26.3687 14.9376 26.3482 14.9565 26.3228 14.9565C26.2975 14.9565 26.2769 14.9376 26.2769 14.9144C26.2769 14.8911 26.2975 14.8722 26.3228 14.8722C26.3482 14.8722 26.3687 14.8911 26.3687 14.9144Z" fill="#F8D74C"/>
<path d="M21.3881 10.9275H20.8205V11.0111H21.1709L21.3881 11.204H21.7946L22.0692 11.0163L22.0744 11.0221L22.2569 10.8826C22.2733 10.8753 22.2926 10.869 22.3117 10.866C22.332 10.8629 22.35 10.8638 22.3638 10.8692C22.3767 10.8743 22.3881 10.884 22.3947 10.9035C22.4017 10.9239 22.4035 10.9553 22.394 11.0021C22.3844 11.0493 22.3719 11.081 22.3589 11.1016C22.346 11.1221 22.3333 11.1305 22.3235 11.1337C22.3041 11.1399 22.2801 11.1293 22.2613 11.1103L22.2273 11.1386C22.2495 11.1611 22.292 11.1883 22.3386 11.1734C22.3618 11.166 22.382 11.1491 22.3987 11.1227C22.4152 11.0965 22.429 11.0597 22.4391 11.0098C22.4493 10.9595 22.4486 10.9205 22.4385 10.8909C22.4281 10.8604 22.4078 10.8407 22.3819 10.8305C22.357 10.8207 22.3292 10.8206 22.3041 10.8245C22.2787 10.8284 22.2541 10.8368 22.234 10.846L22.2317 10.8471L22.0844 10.9597H21.7946L21.6054 10.7089L21.3881 10.9275Z" fill="#E77D42"/>
<path d="M21.9035 11.204H21.2847V11.2681H21.9035V11.204Z" fill="#E77D42"/>
<path d="M20.7418 10.4109C20.6556 10.3289 20.7777 10.2205 20.8496 10.1765C20.8081 10.2173 20.746 10.3065 20.8296 10.3377C20.9133 10.3688 20.9683 10.4264 20.9853 10.4512C21.0039 10.5037 21.0228 10.6285 20.9494 10.7076C20.8759 10.7868 20.8922 10.8871 20.9095 10.9274H20.8296C20.8004 10.9103 20.7594 10.8366 20.8296 10.6783C20.9174 10.4805 20.8496 10.5135 20.7418 10.4109Z" fill="#F8D74C"/>
<path d="M21.2368 10.8633C21.2368 10.8866 21.2163 10.9054 21.1909 10.9054C21.1656 10.9054 21.145 10.8866 21.145 10.8633C21.145 10.8401 21.1656 10.8212 21.1909 10.8212C21.2163 10.8212 21.2368 10.8401 21.2368 10.8633Z" fill="#F8D74C"/>
<path d="M22.0449 10.8633C22.0449 10.8866 22.0655 10.9054 22.0908 10.9054C22.1162 10.9054 22.1367 10.8866 22.1367 10.8633C22.1367 10.8401 22.1162 10.8212 22.0908 10.8212C22.0655 10.8212 22.0449 10.8401 22.0449 10.8633Z" fill="#F8D74C"/>
<path d="M21.3286 10.7791C21.3286 10.8023 21.3081 10.8212 21.2827 10.8212C21.2574 10.8212 21.2368 10.8023 21.2368 10.7791C21.2368 10.7558 21.2574 10.737 21.2827 10.737C21.3081 10.737 21.3286 10.7558 21.3286 10.7791Z" fill="#F8D74C"/>
<path d="M21.9531 10.7791C21.9531 10.8023 21.9736 10.8212 21.999 10.8212C22.0244 10.8212 22.0449 10.8023 22.0449 10.7791C22.0449 10.7558 22.0244 10.737 21.999 10.737C21.9736 10.737 21.9531 10.7558 21.9531 10.7791Z" fill="#F8D74C"/>
<path d="M21.4205 10.6885C21.4205 10.7117 21.3999 10.7306 21.3745 10.7306C21.3492 10.7306 21.3286 10.7117 21.3286 10.6885C21.3286 10.6652 21.3492 10.6463 21.3745 10.6463C21.3999 10.6463 21.4205 10.6652 21.4205 10.6885Z" fill="#F8D74C"/>
<path d="M21.8613 10.6885C21.8613 10.7117 21.8818 10.7306 21.9072 10.7306C21.9325 10.7306 21.9531 10.7117 21.9531 10.6885C21.9531 10.6652 21.9325 10.6463 21.9072 10.6463C21.8818 10.6463 21.8613 10.6652 21.8613 10.6885Z" fill="#F8D74C"/>
<path d="M21.5105 10.6042C21.5105 10.6275 21.49 10.6463 21.4646 10.6463C21.4393 10.6463 21.4187 10.6275 21.4187 10.6042C21.4187 10.5809 21.4393 10.5621 21.4646 10.5621C21.49 10.5621 21.5105 10.5809 21.5105 10.6042Z" fill="#F8D74C"/>
<path d="M21.7712 10.6042C21.7712 10.6275 21.7917 10.6463 21.8171 10.6463C21.8424 10.6463 21.863 10.6275 21.863 10.6042C21.863 10.5809 21.8424 10.5621 21.8171 10.5621C21.7917 10.5621 21.7712 10.5809 21.7712 10.6042Z" fill="#F8D74C"/>
<path d="M21.6024 10.5098C21.6024 10.5331 21.5818 10.552 21.5565 10.552C21.5311 10.552 21.5105 10.5331 21.5105 10.5098C21.5105 10.4866 21.5311 10.4677 21.5565 10.4677C21.5818 10.4677 21.6024 10.4866 21.6024 10.5098Z" fill="#F8D74C"/>
<path d="M21.6794 10.5098C21.6794 10.5331 21.6999 10.552 21.7253 10.552C21.7506 10.552 21.7712 10.5331 21.7712 10.5098C21.7712 10.4866 21.7506 10.4677 21.7253 10.4677C21.6999 10.4677 21.6794 10.4866 21.6794 10.5098Z" fill="#F8D74C"/>
<path d="M21.6794 10.4256C21.6794 10.4489 21.6588 10.4677 21.6335 10.4677C21.6081 10.4677 21.5875 10.4489 21.5875 10.4256C21.5875 10.4023 21.6081 10.3835 21.6335 10.3835C21.6588 10.3835 21.6794 10.4023 21.6794 10.4256Z" fill="#F8D74C"/>
<path d="M26.0775 10.9275H25.5098V11.0111H25.8602L26.0775 11.204H26.484L26.7585 11.0163L26.7638 11.0221L26.9463 10.8826C26.9626 10.8753 26.982 10.869 27.0011 10.866C27.0213 10.8629 27.0394 10.8638 27.0532 10.8692C27.066 10.8743 27.0774 10.884 27.0841 10.9035C27.0911 10.9239 27.0928 10.9553 27.0834 11.0021C27.0738 11.0493 27.0613 11.081 27.0483 11.1016C27.0354 11.1221 27.0227 11.1305 27.0129 11.1337C26.9934 11.1399 26.9694 11.1293 26.9506 11.1103L26.9167 11.1386C26.9389 11.1611 26.9813 11.1883 27.0279 11.1734C27.0511 11.166 27.0714 11.1491 27.088 11.1227C27.1046 11.0965 27.1184 11.0597 27.1285 11.0098C27.1387 10.9595 27.138 10.9205 27.1279 10.8909C27.1175 10.8604 27.0972 10.8407 27.0713 10.8305C27.0464 10.8207 27.0185 10.8206 26.9934 10.8245C26.9681 10.8284 26.9435 10.8368 26.9234 10.846L26.921 10.8471L26.7738 10.9597H26.484L26.2947 10.7089L26.0775 10.9275Z" fill="#E77D42"/>
<path d="M26.5928 11.204H25.9741V11.2681H26.5928V11.204Z" fill="#E77D42"/>
<path d="M25.4312 10.4109C25.345 10.3289 25.4671 10.2205 25.539 10.1765C25.4974 10.2173 25.4353 10.3065 25.519 10.3377C25.6026 10.3688 25.6576 10.4264 25.6747 10.4512C25.6933 10.5037 25.7122 10.6285 25.6388 10.7076C25.5653 10.7868 25.5815 10.8871 25.5988 10.9274H25.519C25.4897 10.9103 25.4487 10.8366 25.519 10.6783C25.6068 10.4805 25.539 10.5135 25.4312 10.4109Z" fill="#F8D74C"/>
<path d="M25.9262 10.8633C25.9262 10.8866 25.9056 10.9054 25.8803 10.9054C25.8549 10.9054 25.8344 10.8866 25.8344 10.8633C25.8344 10.8401 25.8549 10.8212 25.8803 10.8212C25.9056 10.8212 25.9262 10.8401 25.9262 10.8633Z" fill="#F8D74C"/>
<path d="M26.7343 10.8633C26.7343 10.8866 26.7548 10.9054 26.7802 10.9054C26.8055 10.9054 26.8261 10.8866 26.8261 10.8633C26.8261 10.8401 26.8055 10.8212 26.7802 10.8212C26.7548 10.8212 26.7343 10.8401 26.7343 10.8633Z" fill="#F8D74C"/>
<path d="M26.018 10.7791C26.018 10.8023 25.9974 10.8212 25.9721 10.8212C25.9467 10.8212 25.9262 10.8023 25.9262 10.7791C25.9262 10.7558 25.9467 10.737 25.9721 10.737C25.9974 10.737 26.018 10.7558 26.018 10.7791Z" fill="#F8D74C"/>
<path d="M26.6425 10.7791C26.6425 10.8023 26.663 10.8212 26.6884 10.8212C26.7137 10.8212 26.7343 10.8023 26.7343 10.7791C26.7343 10.7558 26.7137 10.737 26.6884 10.737C26.663 10.737 26.6425 10.7558 26.6425 10.7791Z" fill="#F8D74C"/>
<path d="M26.1098 10.6885C26.1098 10.7117 26.0893 10.7306 26.0639 10.7306C26.0386 10.7306 26.018 10.7117 26.018 10.6885C26.018 10.6652 26.0386 10.6463 26.0639 10.6463C26.0893 10.6463 26.1098 10.6652 26.1098 10.6885Z" fill="#F8D74C"/>
<path d="M26.5506 10.6885C26.5506 10.7117 26.5712 10.7306 26.5965 10.7306C26.6219 10.7306 26.6425 10.7117 26.6425 10.6885C26.6425 10.6652 26.6219 10.6463 26.5965 10.6463C26.5712 10.6463 26.5506 10.6652 26.5506 10.6885Z" fill="#F8D74C"/>
<path d="M26.1999 10.6042C26.1999 10.6275 26.1794 10.6463 26.154 10.6463C26.1287 10.6463 26.1081 10.6275 26.1081 10.6042C26.1081 10.5809 26.1287 10.5621 26.154 10.5621C26.1794 10.5621 26.1999 10.5809 26.1999 10.6042Z" fill="#F8D74C"/>
<path d="M26.4605 10.6042C26.4605 10.6275 26.4811 10.6463 26.5064 10.6463C26.5318 10.6463 26.5524 10.6275 26.5524 10.6042C26.5524 10.5809 26.5318 10.5621 26.5064 10.5621C26.4811 10.5621 26.4605 10.5809 26.4605 10.6042Z" fill="#F8D74C"/>
<path d="M26.2917 10.5098C26.2917 10.5331 26.2712 10.552 26.2458 10.552C26.2205 10.552 26.1999 10.5331 26.1999 10.5098C26.1999 10.4866 26.2205 10.4677 26.2458 10.4677C26.2712 10.4677 26.2917 10.4866 26.2917 10.5098Z" fill="#F8D74C"/>
<path d="M26.3687 10.5098C26.3687 10.5331 26.3893 10.552 26.4146 10.552C26.44 10.552 26.4605 10.5331 26.4605 10.5098C26.4605 10.4866 26.44 10.4677 26.4146 10.4677C26.3893 10.4677 26.3687 10.4866 26.3687 10.5098Z" fill="#F8D74C"/>
<path d="M26.3687 10.4256C26.3687 10.4489 26.3482 10.4677 26.3228 10.4677C26.2975 10.4677 26.2769 10.4489 26.2769 10.4256C26.2769 10.4023 26.2975 10.3835 26.3228 10.3835C26.3482 10.3835 26.3687 10.4023 26.3687 10.4256Z" fill="#F8D74C"/>
<path fill-rule="evenodd" clip-rule="evenodd" d="M26.8964 19.0169C26.0933 19.5243 25.0828 19.9999 24.0916 19.9999C23.1218 19.9999 22.0759 19.5711 21.22 19.1065C20.3442 18.6312 19.5686 18.0633 19.1134 17.6781L19.9536 16.8421C20.3536 17.1806 21.0599 17.6984 21.8509 18.1277C22.6617 18.5678 23.4673 18.8627 24.0916 18.8627C24.6945 18.8627 25.4442 18.5537 26.1936 18.0802C26.9235 17.6191 27.5596 17.0622 27.9136 16.6985L28.8379 17.456C28.4281 17.8771 27.7191 18.4971 26.8964 19.0169Z" fill="#F8D74C"/>
<path d="M19.1698 18.4859C18.8623 18.2037 19.0417 17.8056 19.1698 17.6419L20.0502 18.3714C19.8849 18.5271 19.4773 18.7681 19.1698 18.4859Z" fill="#F8D74C"/>
<path d="M28.8302 18.2999C29.1377 18.0177 28.9583 17.6196 28.8302 17.4558L27.9498 18.1853C28.1151 18.3411 28.5227 18.582 28.8302 18.2999Z" fill="#F8D74C"/>
<defs>
<clipPath id="clip0_440_1225">
<rect width="16" height="12" fill="white"/>
</clipPath>
</defs>
</svg>
