<svg width="24" height="24" viewBox="0 0 24 24" fill="none" xmlns="http://www.w3.org/2000/svg">
<rect width="24" height="24" rx="2" fill="#485CC2"/>
<path d="M21.6628 9H14.2465V14.9023C14.2465 15.467 14.5644 15.9836 15.0685 16.2381L17.9546 17.6954L20.8408 16.2381C21.3449 15.9836 21.6628 15.467 21.6628 14.9023V9Z" fill="#377649"/>
<path d="M17.2711 14.6297L17.169 13.0512L17.3183 12.9719H18.0331L18.5829 13.0512L18.905 14.6297L18.8186 15.0622C18.3578 15.0958 17.4282 15.1616 17.3968 15.1559C17.3654 15.1501 17.2999 14.8027 17.2711 14.6297Z" fill="#F9F9F9"/>
<path d="M17.4003 13.1604H17.1744L17.1405 14.492L17.4003 14.5386L17.6544 14.6889L17.9988 14.606L18.3207 14.7562L18.6877 14.5386H19.0661L18.5974 13.1604H18.4506L18.1795 13.3055L17.9085 13.1604L17.6544 13.3521L17.4003 13.1604Z" fill="#E6E6E6"/>
<path d="M17.24 16.6705V16.5439H17.4851L17.6281 16.722L17.3166 16.8907L17.2042 16.9516H17.148V16.7642L17.24 16.6705Z" fill="#F8D74C"/>
<path d="M18.2 16.8907L18.1642 16.5439H18.394L18.5115 16.647L18.537 16.8907L18.394 17.0313H18.3123L18.2 16.8907Z" fill="#F8D74C"/>
<path fill-rule="evenodd" clip-rule="evenodd" d="M17.6001 9.66799L17.5122 9.78027V9.9127L17.5561 9.99619L17.4369 10.12C17.4704 10.1593 17.5411 10.2392 17.5561 10.2438C17.5712 10.2484 17.6377 10.2457 17.6691 10.2438V10.3359H17.575V10.4683L17.7099 10.5202H17.8197H17.895V10.6411L17.3455 10.8963V11.249L17.2067 11.5036L17.3455 11.7485L17.2707 11.8269L16.5876 12.5223L16.2994 12.5909L16.1713 12.777V12.9337H16.2994L16.3527 12.777L16.4915 12.7084L16.3828 12.829L16.3527 12.9337H16.3828H16.4355L16.4643 12.829L16.723 12.6575L17.3455 12.2486L17.7099 12.1545H18.3426V11.8269L18.6116 11.7485L18.6919 12.0356V12.3371V13.0942L18.4874 13.2752L18.4363 13.5231L18.4874 13.5633L18.5531 13.3891V13.7375L18.8598 13.5231V13.0942L18.9694 12.5223L19.0059 11.0238V10.9182L18.7256 10.7191L18.304 10.392L18.18 10.19V10.0449L17.9785 9.99619L17.895 9.70928L17.6691 9.62109L17.6001 9.66799ZM17.7708 9.89701H17.6282V9.93115H17.7708V9.89701ZM17.6995 10.0336C17.7389 10.0336 17.7708 10.017 17.7708 9.99657C17.7708 9.97615 17.7389 9.95959 17.6995 9.95959C17.6601 9.95959 17.6282 9.97615 17.6282 9.99657C17.6282 10.017 17.6601 10.0336 17.6995 10.0336Z" fill="#F9F9F9"/>
<path d="M17.6442 10.7203L17.894 10.5717V10.6394L17.6898 10.8842V11.3109L18.4165 10.7203L18.3252 10.5717L18.2938 10.3625L18.3543 10.4307L19.0477 10.8842V10.987L19.002 11.048C18.9854 10.9629 18.9107 10.7965 18.7446 10.8118C18.5785 10.827 18.5508 10.9985 18.5577 11.0823L18.6283 11.7034L18.343 12.092H17.3826L17.341 11.7812L17.2064 11.6194V11.3946L17.341 11.1953V10.8967L17.6442 10.7203Z" fill="#E6E6E6"/>
<path d="M17.6036 14.808C17.4963 14.7475 17.2795 14.6214 17.2704 14.6007V15.5074L17.197 16.5592H17.4173C17.4643 16.611 17.5607 16.7209 17.5697 16.7458C17.5787 16.7706 17.6977 16.7941 17.7561 16.8028L17.9932 16.7147L18.2699 16.5592L18.62 16.8028L18.9701 16.6784L19.4839 16.611L18.9023 14.6266H18.7103L18.3377 14.8598L17.9932 14.7095L17.6036 14.808Z" fill="#E6E6E6"/>
<path d="M17.1818 12.5879L17.4202 12.1504L18.3383 12.1504C18.3535 12.1659 18.4083 12.2407 18.5057 12.4157C18.6031 12.5907 18.6139 12.9354 18.6071 13.0859H18.4448L18.1506 13.2069L17.897 13.0859L17.6434 13.2535L17.4202 13.0859H17.126L17.1818 12.5879Z" fill="#E6E6E6"/>
<path d="M17.4885 9.6693L17.5889 9.75736L17.6848 9.62527L17.8855 9.70533L17.9815 10.0015L18.108 10.0336L18.1342 10.1416L18.1952 10.3618L18.505 10.4138L18.8234 10.2017V10.0336L18.6664 9.92148L18.6358 9.75736L18.3566 9.42513L18.06 9.3851L17.9291 9.47717L17.8855 9.3851L17.7677 9.36108L17.4885 9.53321V9.6693Z" fill="#F8D74C"/>
<path d="M16.0948 13.4927H15.5271V13.5763H15.8775L16.0948 13.7692H16.5012L16.7758 13.5815L16.7811 13.5873L16.9635 13.4478C16.9799 13.4405 16.9993 13.4342 17.0184 13.4312C17.0386 13.4281 17.0566 13.429 17.0705 13.4344C17.0833 13.4394 17.0947 13.4492 17.1014 13.4687C17.1083 13.4891 17.1101 13.5205 17.1006 13.5673C17.0911 13.6145 17.0786 13.6462 17.0656 13.6668C17.0526 13.6873 17.04 13.6957 17.0301 13.6988C17.0107 13.705 16.9867 13.6945 16.9679 13.6755L16.934 13.7038C16.9562 13.7263 16.9986 13.7535 17.0452 13.7386C17.0684 13.7312 17.0886 13.7143 17.1053 13.6879C17.1219 13.6617 17.1356 13.6248 17.1458 13.575C17.1559 13.5247 17.1553 13.4856 17.1452 13.4561C17.1348 13.4256 17.1145 13.4059 17.0886 13.3957C17.0636 13.3859 17.0358 13.3858 17.0107 13.3897C16.9853 13.3936 16.9607 13.402 16.9407 13.4112L16.9383 13.4123L16.791 13.5249H16.5012L16.312 13.2741L16.0948 13.4927Z" fill="#E77D42"/>
<path d="M16.6101 13.7692H15.9914V13.8333H16.6101V13.7692Z" fill="#E77D42"/>
<path d="M15.4484 12.9761C15.3622 12.8941 15.4844 12.7857 15.5562 12.7417C15.5147 12.7824 15.4526 12.8717 15.5363 12.9029C15.6199 12.934 15.6749 12.9915 15.692 13.0164C15.7106 13.0689 15.7295 13.1937 15.656 13.2728C15.5826 13.352 15.5988 13.4523 15.6161 13.4926H15.5363C15.507 13.4755 15.466 13.4018 15.5363 13.2435C15.6241 13.0457 15.5562 13.0787 15.4484 12.9761Z" fill="#F8D74C"/>
<path d="M15.9435 13.4285C15.9435 13.4518 15.9229 13.4706 15.8975 13.4706C15.8722 13.4706 15.8516 13.4518 15.8516 13.4285C15.8516 13.4052 15.8722 13.3864 15.8975 13.3864C15.9229 13.3864 15.9435 13.4052 15.9435 13.4285Z" fill="#F8D74C"/>
<path d="M16.7515 13.4285C16.7515 13.4518 16.7721 13.4706 16.7974 13.4706C16.8228 13.4706 16.8434 13.4518 16.8434 13.4285C16.8434 13.4052 16.8228 13.3864 16.7974 13.3864C16.7721 13.3864 16.7515 13.4052 16.7515 13.4285Z" fill="#F8D74C"/>
<path d="M16.0353 13.3443C16.0353 13.3675 16.0147 13.3864 15.9894 13.3864C15.964 13.3864 15.9435 13.3675 15.9435 13.3443C15.9435 13.321 15.964 13.3021 15.9894 13.3021C16.0147 13.3021 16.0353 13.321 16.0353 13.3443Z" fill="#F8D74C"/>
<path d="M16.6597 13.3443C16.6597 13.3675 16.6803 13.3864 16.7056 13.3864C16.731 13.3864 16.7515 13.3675 16.7515 13.3443C16.7515 13.321 16.731 13.3021 16.7056 13.3021C16.6803 13.3021 16.6597 13.321 16.6597 13.3443Z" fill="#F8D74C"/>
<path d="M16.1271 13.2536C16.1271 13.2769 16.1065 13.2958 16.0812 13.2958C16.0558 13.2958 16.0353 13.2769 16.0353 13.2536C16.0353 13.2304 16.0558 13.2115 16.0812 13.2115C16.1065 13.2115 16.1271 13.2304 16.1271 13.2536Z" fill="#F8D74C"/>
<path d="M16.5679 13.2536C16.5679 13.2769 16.5885 13.2958 16.6138 13.2958C16.6392 13.2958 16.6597 13.2769 16.6597 13.2536C16.6597 13.2304 16.6392 13.2115 16.6138 13.2115C16.5885 13.2115 16.5679 13.2304 16.5679 13.2536Z" fill="#F8D74C"/>
<path d="M16.2172 13.1694C16.2172 13.1927 16.1966 13.2115 16.1713 13.2115C16.1459 13.2115 16.1254 13.1927 16.1254 13.1694C16.1254 13.1461 16.1459 13.1273 16.1713 13.1273C16.1966 13.1273 16.2172 13.1461 16.2172 13.1694Z" fill="#F8D74C"/>
<path d="M16.4778 13.1694C16.4778 13.1927 16.4984 13.2115 16.5237 13.2115C16.5491 13.2115 16.5696 13.1927 16.5696 13.1694C16.5696 13.1461 16.5491 13.1273 16.5237 13.1273C16.4984 13.1273 16.4778 13.1461 16.4778 13.1694Z" fill="#F8D74C"/>
<path d="M16.309 13.075C16.309 13.0983 16.2884 13.1172 16.2631 13.1172C16.2377 13.1172 16.2172 13.0983 16.2172 13.075C16.2172 13.0518 16.2377 13.0329 16.2631 13.0329C16.2884 13.0329 16.309 13.0518 16.309 13.075Z" fill="#F8D74C"/>
<path d="M16.386 13.075C16.386 13.0983 16.4066 13.1172 16.4319 13.1172C16.4573 13.1172 16.4778 13.0983 16.4778 13.075C16.4778 13.0518 16.4573 13.0329 16.4319 13.0329C16.4066 13.0329 16.386 13.0518 16.386 13.075Z" fill="#F8D74C"/>
<path d="M16.386 12.9908C16.386 13.014 16.3654 13.0329 16.3401 13.0329C16.3147 13.0329 16.2942 13.014 16.2942 12.9908C16.2942 12.9675 16.3147 12.9487 16.3401 12.9487C16.3654 12.9487 16.386 12.9675 16.386 12.9908Z" fill="#F8D74C"/>
<path d="M20.0775 13.3244H19.5098V13.408H19.8602L20.0775 13.6009H20.484L20.7585 13.4132L20.7638 13.419L20.9463 13.2794C20.9626 13.2722 20.982 13.2659 21.0011 13.2629C21.0213 13.2597 21.0394 13.2606 21.0532 13.2661C21.066 13.2711 21.0774 13.2809 21.0841 13.3004C21.0911 13.3207 21.0928 13.3521 21.0834 13.3989C21.0738 13.4462 21.0613 13.4779 21.0483 13.4985C21.0354 13.519 21.0227 13.5274 21.0129 13.5305C20.9934 13.5367 20.9694 13.5261 20.9506 13.5072L20.9167 13.5355C20.9389 13.5579 20.9813 13.5852 21.0279 13.5703C21.0511 13.5629 21.0714 13.546 21.088 13.5196C21.1046 13.4933 21.1184 13.4565 21.1285 13.4066C21.1387 13.3564 21.138 13.3173 21.1279 13.2878C21.1175 13.2573 21.0972 13.2375 21.0713 13.2273C21.0464 13.2176 21.0185 13.2174 20.9934 13.2214C20.9681 13.2253 20.9435 13.2336 20.9234 13.2428L20.921 13.2439L20.7738 13.3565H20.484L20.2947 13.1057L20.0775 13.3244Z" fill="#E77D42"/>
<path d="M20.5928 13.6009H19.9741V13.6649H20.5928V13.6009Z" fill="#E77D42"/>
<path d="M19.4312 12.8078C19.345 12.7257 19.4671 12.6173 19.539 12.5734C19.4974 12.6141 19.4353 12.7034 19.519 12.7345C19.6026 12.7657 19.6576 12.8232 19.6747 12.8481C19.6933 12.9006 19.7122 13.0254 19.6388 13.1045C19.5653 13.1836 19.5815 13.284 19.5988 13.3243H19.519C19.4897 13.3072 19.4487 13.2334 19.519 13.0752C19.6068 12.8774 19.539 12.9104 19.4312 12.8078Z" fill="#F8D74C"/>
<path d="M19.9262 13.2602C19.9262 13.2834 19.9056 13.3023 19.8803 13.3023C19.8549 13.3023 19.8344 13.2834 19.8344 13.2602C19.8344 13.2369 19.8549 13.218 19.8803 13.218C19.9056 13.218 19.9262 13.2369 19.9262 13.2602Z" fill="#F8D74C"/>
<path d="M20.7343 13.2602C20.7343 13.2834 20.7548 13.3023 20.7802 13.3023C20.8055 13.3023 20.8261 13.2834 20.8261 13.2602C20.8261 13.2369 20.8055 13.218 20.7802 13.218C20.7548 13.218 20.7343 13.2369 20.7343 13.2602Z" fill="#F8D74C"/>
<path d="M20.018 13.1759C20.018 13.1992 19.9974 13.218 19.9721 13.218C19.9467 13.218 19.9262 13.1992 19.9262 13.1759C19.9262 13.1527 19.9467 13.1338 19.9721 13.1338C19.9974 13.1338 20.018 13.1527 20.018 13.1759Z" fill="#F8D74C"/>
<path d="M20.6425 13.1759C20.6425 13.1992 20.663 13.218 20.6884 13.218C20.7137 13.218 20.7343 13.1992 20.7343 13.1759C20.7343 13.1527 20.7137 13.1338 20.6884 13.1338C20.663 13.1338 20.6425 13.1527 20.6425 13.1759Z" fill="#F8D74C"/>
<path d="M20.1098 13.0853C20.1098 13.1086 20.0893 13.1274 20.0639 13.1274C20.0386 13.1274 20.018 13.1086 20.018 13.0853C20.018 13.062 20.0386 13.0432 20.0639 13.0432C20.0893 13.0432 20.1098 13.062 20.1098 13.0853Z" fill="#F8D74C"/>
<path d="M20.5506 13.0853C20.5506 13.1086 20.5712 13.1274 20.5965 13.1274C20.6219 13.1274 20.6425 13.1086 20.6425 13.0853C20.6425 13.062 20.6219 13.0432 20.5965 13.0432C20.5712 13.0432 20.5506 13.062 20.5506 13.0853Z" fill="#F8D74C"/>
<path d="M20.1999 13.0011C20.1999 13.0243 20.1794 13.0432 20.154 13.0432C20.1287 13.0432 20.1081 13.0243 20.1081 13.0011C20.1081 12.9778 20.1287 12.9589 20.154 12.9589C20.1794 12.9589 20.1999 12.9778 20.1999 13.0011Z" fill="#F8D74C"/>
<path d="M20.4605 13.0011C20.4605 13.0243 20.4811 13.0432 20.5064 13.0432C20.5318 13.0432 20.5524 13.0243 20.5524 13.0011C20.5524 12.9778 20.5318 12.9589 20.5064 12.9589C20.4811 12.9589 20.4605 12.9778 20.4605 13.0011Z" fill="#F8D74C"/>
<path d="M20.2917 12.9067C20.2917 12.93 20.2712 12.9488 20.2458 12.9488C20.2205 12.9488 20.1999 12.93 20.1999 12.9067C20.1999 12.8834 20.2205 12.8646 20.2458 12.8646C20.2712 12.8646 20.2917 12.8834 20.2917 12.9067Z" fill="#F8D74C"/>
<path d="M20.3687 12.9067C20.3687 12.93 20.3893 12.9488 20.4146 12.9488C20.44 12.9488 20.4605 12.93 20.4605 12.9067C20.4605 12.8834 20.44 12.8646 20.4146 12.8646C20.3893 12.8646 20.3687 12.8834 20.3687 12.9067Z" fill="#F8D74C"/>
<path d="M20.3687 12.8224C20.3687 12.8457 20.3482 12.8646 20.3228 12.8646C20.2975 12.8646 20.2769 12.8457 20.2769 12.8224C20.2769 12.7992 20.2975 12.7803 20.3228 12.7803C20.3482 12.7803 20.3687 12.7992 20.3687 12.8224Z" fill="#F8D74C"/>
<path d="M15.3881 12.1719H14.8205V12.2555H15.1709L15.3881 12.4484H15.7946L16.0692 12.2607L16.0744 12.2665L16.2569 12.127C16.2733 12.1197 16.2926 12.1134 16.3117 12.1104C16.332 12.1073 16.35 12.1082 16.3638 12.1136C16.3767 12.1186 16.3881 12.1284 16.3947 12.1479C16.4017 12.1683 16.4035 12.1997 16.394 12.2465C16.3844 12.2937 16.3719 12.3254 16.3589 12.346C16.346 12.3665 16.3333 12.3749 16.3235 12.378C16.3041 12.3842 16.2801 12.3737 16.2613 12.3547L16.2273 12.383C16.2495 12.4055 16.292 12.4327 16.3386 12.4178C16.3618 12.4104 16.382 12.3935 16.3987 12.3671C16.4152 12.3409 16.429 12.304 16.4391 12.2542C16.4493 12.2039 16.4486 12.1648 16.4385 12.1353C16.4281 12.1048 16.4078 12.0851 16.3819 12.0749C16.357 12.0651 16.3292 12.065 16.3041 12.0689C16.2787 12.0728 16.2541 12.0812 16.234 12.0904L16.2317 12.0915L16.0844 12.2041H15.7946L15.6054 11.9533L15.3881 12.1719Z" fill="#E77D42"/>
<path d="M15.9035 12.4484H15.2847V12.5125H15.9035V12.4484Z" fill="#E77D42"/>
<path d="M14.7418 11.6553C14.6556 11.5733 14.7777 11.4649 14.8496 11.4209C14.8081 11.4616 14.746 11.5509 14.8296 11.5821C14.9133 11.6132 14.9683 11.6707 14.9853 11.6956C15.0039 11.7481 15.0228 11.8729 14.9494 11.952C14.8759 12.0312 14.8922 12.1315 14.9095 12.1718H14.8296C14.8004 12.1547 14.7594 12.081 14.8296 11.9227C14.9174 11.7249 14.8496 11.7579 14.7418 11.6553Z" fill="#F8D74C"/>
<path d="M15.2368 12.1077C15.2368 12.131 15.2163 12.1498 15.1909 12.1498C15.1656 12.1498 15.145 12.131 15.145 12.1077C15.145 12.0844 15.1656 12.0656 15.1909 12.0656C15.2163 12.0656 15.2368 12.0844 15.2368 12.1077Z" fill="#F8D74C"/>
<path d="M16.0449 12.1077C16.0449 12.131 16.0655 12.1498 16.0908 12.1498C16.1162 12.1498 16.1367 12.131 16.1367 12.1077C16.1367 12.0844 16.1162 12.0656 16.0908 12.0656C16.0655 12.0656 16.0449 12.0844 16.0449 12.1077Z" fill="#F8D74C"/>
<path d="M15.3286 12.0235C15.3286 12.0467 15.3081 12.0656 15.2827 12.0656C15.2574 12.0656 15.2368 12.0467 15.2368 12.0235C15.2368 12.0002 15.2574 11.9813 15.2827 11.9813C15.3081 11.9813 15.3286 12.0002 15.3286 12.0235Z" fill="#F8D74C"/>
<path d="M15.9531 12.0235C15.9531 12.0467 15.9736 12.0656 15.999 12.0656C16.0244 12.0656 16.0449 12.0467 16.0449 12.0235C16.0449 12.0002 16.0244 11.9813 15.999 11.9813C15.9736 11.9813 15.9531 12.0002 15.9531 12.0235Z" fill="#F8D74C"/>
<path d="M15.4205 11.9328C15.4205 11.9561 15.3999 11.975 15.3745 11.975C15.3492 11.975 15.3286 11.9561 15.3286 11.9328C15.3286 11.9096 15.3492 11.8907 15.3745 11.8907C15.3999 11.8907 15.4205 11.9096 15.4205 11.9328Z" fill="#F8D74C"/>
<path d="M15.8613 11.9328C15.8613 11.9561 15.8818 11.975 15.9072 11.975C15.9325 11.975 15.9531 11.9561 15.9531 11.9328C15.9531 11.9096 15.9325 11.8907 15.9072 11.8907C15.8818 11.8907 15.8613 11.9096 15.8613 11.9328Z" fill="#F8D74C"/>
<path d="M15.5105 11.8486C15.5105 11.8719 15.49 11.8907 15.4646 11.8907C15.4393 11.8907 15.4187 11.8719 15.4187 11.8486C15.4187 11.8253 15.4393 11.8065 15.4646 11.8065C15.49 11.8065 15.5105 11.8253 15.5105 11.8486Z" fill="#F8D74C"/>
<path d="M15.7712 11.8486C15.7712 11.8719 15.7917 11.8907 15.8171 11.8907C15.8424 11.8907 15.863 11.8719 15.863 11.8486C15.863 11.8253 15.8424 11.8065 15.8171 11.8065C15.7917 11.8065 15.7712 11.8253 15.7712 11.8486Z" fill="#F8D74C"/>
<path d="M15.6024 11.7542C15.6024 11.7775 15.5818 11.7964 15.5565 11.7964C15.5311 11.7964 15.5105 11.7775 15.5105 11.7542C15.5105 11.731 15.5311 11.7121 15.5565 11.7121C15.5818 11.7121 15.6024 11.731 15.6024 11.7542Z" fill="#F8D74C"/>
<path d="M15.6794 11.7542C15.6794 11.7775 15.6999 11.7964 15.7253 11.7964C15.7506 11.7964 15.7712 11.7775 15.7712 11.7542C15.7712 11.731 15.7506 11.7121 15.7253 11.7121C15.6999 11.7121 15.6794 11.731 15.6794 11.7542Z" fill="#F8D74C"/>
<path d="M15.6794 11.67C15.6794 11.6932 15.6588 11.7121 15.6335 11.7121C15.6081 11.7121 15.5875 11.6932 15.5875 11.67C15.5875 11.6467 15.6081 11.6279 15.6335 11.6279C15.6588 11.6279 15.6794 11.6467 15.6794 11.67Z" fill="#F8D74C"/>
<path d="M20.0775 12.1719H19.5098V12.2555H19.8602L20.0775 12.4484H20.484L20.7585 12.2607L20.7638 12.2665L20.9463 12.127C20.9626 12.1197 20.982 12.1134 21.0011 12.1104C21.0213 12.1073 21.0394 12.1082 21.0532 12.1136C21.066 12.1186 21.0774 12.1284 21.0841 12.1479C21.0911 12.1683 21.0928 12.1997 21.0834 12.2465C21.0738 12.2937 21.0613 12.3254 21.0483 12.346C21.0354 12.3665 21.0227 12.3749 21.0129 12.378C20.9934 12.3842 20.9694 12.3737 20.9506 12.3547L20.9167 12.383C20.9389 12.4055 20.9813 12.4327 21.0279 12.4178C21.0511 12.4104 21.0714 12.3935 21.088 12.3671C21.1046 12.3409 21.1184 12.304 21.1285 12.2542C21.1387 12.2039 21.138 12.1648 21.1279 12.1353C21.1175 12.1048 21.0972 12.0851 21.0713 12.0749C21.0464 12.0651 21.0185 12.065 20.9934 12.0689C20.9681 12.0728 20.9435 12.0812 20.9234 12.0904L20.921 12.0915L20.7738 12.2041H20.484L20.2947 11.9533L20.0775 12.1719Z" fill="#E77D42"/>
<path d="M20.5928 12.4484H19.9741V12.5125H20.5928V12.4484Z" fill="#E77D42"/>
<path d="M19.4312 11.6553C19.345 11.5733 19.4671 11.4649 19.539 11.4209C19.4974 11.4616 19.4353 11.5509 19.519 11.5821C19.6026 11.6132 19.6576 11.6707 19.6747 11.6956C19.6933 11.7481 19.7122 11.8729 19.6388 11.952C19.5653 12.0312 19.5815 12.1315 19.5988 12.1718H19.519C19.4897 12.1547 19.4487 12.081 19.519 11.9227C19.6068 11.7249 19.539 11.7579 19.4312 11.6553Z" fill="#F8D74C"/>
<path d="M19.9262 12.1077C19.9262 12.131 19.9056 12.1498 19.8803 12.1498C19.8549 12.1498 19.8344 12.131 19.8344 12.1077C19.8344 12.0844 19.8549 12.0656 19.8803 12.0656C19.9056 12.0656 19.9262 12.0844 19.9262 12.1077Z" fill="#F8D74C"/>
<path d="M20.7343 12.1077C20.7343 12.131 20.7548 12.1498 20.7802 12.1498C20.8055 12.1498 20.8261 12.131 20.8261 12.1077C20.8261 12.0844 20.8055 12.0656 20.7802 12.0656C20.7548 12.0656 20.7343 12.0844 20.7343 12.1077Z" fill="#F8D74C"/>
<path d="M20.018 12.0235C20.018 12.0467 19.9974 12.0656 19.9721 12.0656C19.9467 12.0656 19.9262 12.0467 19.9262 12.0235C19.9262 12.0002 19.9467 11.9813 19.9721 11.9813C19.9974 11.9813 20.018 12.0002 20.018 12.0235Z" fill="#F8D74C"/>
<path d="M20.6425 12.0235C20.6425 12.0467 20.663 12.0656 20.6884 12.0656C20.7137 12.0656 20.7343 12.0467 20.7343 12.0235C20.7343 12.0002 20.7137 11.9813 20.6884 11.9813C20.663 11.9813 20.6425 12.0002 20.6425 12.0235Z" fill="#F8D74C"/>
<path d="M20.1098 11.9328C20.1098 11.9561 20.0893 11.975 20.0639 11.975C20.0386 11.975 20.018 11.9561 20.018 11.9328C20.018 11.9096 20.0386 11.8907 20.0639 11.8907C20.0893 11.8907 20.1098 11.9096 20.1098 11.9328Z" fill="#F8D74C"/>
<path d="M20.5506 11.9328C20.5506 11.9561 20.5712 11.975 20.5965 11.975C20.6219 11.975 20.6425 11.9561 20.6425 11.9328C20.6425 11.9096 20.6219 11.8907 20.5965 11.8907C20.5712 11.8907 20.5506 11.9096 20.5506 11.9328Z" fill="#F8D74C"/>
<path d="M20.1999 11.8486C20.1999 11.8719 20.1794 11.8907 20.154 11.8907C20.1287 11.8907 20.1081 11.8719 20.1081 11.8486C20.1081 11.8253 20.1287 11.8065 20.154 11.8065C20.1794 11.8065 20.1999 11.8253 20.1999 11.8486Z" fill="#F8D74C"/>
<path d="M20.4605 11.8486C20.4605 11.8719 20.4811 11.8907 20.5064 11.8907C20.5318 11.8907 20.5524 11.8719 20.5524 11.8486C20.5524 11.8253 20.5318 11.8065 20.5064 11.8065C20.4811 11.8065 20.4605 11.8253 20.4605 11.8486Z" fill="#F8D74C"/>
<path d="M20.2917 11.7542C20.2917 11.7775 20.2712 11.7964 20.2458 11.7964C20.2205 11.7964 20.1999 11.7775 20.1999 11.7542C20.1999 11.731 20.2205 11.7121 20.2458 11.7121C20.2712 11.7121 20.2917 11.731 20.2917 11.7542Z" fill="#F8D74C"/>
<path d="M20.3687 11.7542C20.3687 11.7775 20.3893 11.7964 20.4146 11.7964C20.44 11.7964 20.4605 11.7775 20.4605 11.7542C20.4605 11.731 20.44 11.7121 20.4146 11.7121C20.3893 11.7121 20.3687 11.731 20.3687 11.7542Z" fill="#F8D74C"/>
<path d="M20.3687 11.67C20.3687 11.6932 20.3482 11.7121 20.3228 11.7121C20.2975 11.7121 20.2769 11.6932 20.2769 11.67C20.2769 11.6467 20.2975 11.6279 20.3228 11.6279C20.3482 11.6279 20.3687 11.6467 20.3687 11.67Z" fill="#F8D74C"/>
<path d="M15.3881 15.5077H14.8205V15.5913H15.1709L15.3881 15.7842H15.7946L16.0692 15.5965L16.0744 15.6023L16.2569 15.4628C16.2733 15.4555 16.2926 15.4492 16.3117 15.4462C16.332 15.4431 16.35 15.444 16.3638 15.4494C16.3767 15.4545 16.3881 15.4642 16.3947 15.4837C16.4017 15.5041 16.4035 15.5355 16.394 15.5823C16.3844 15.6295 16.3719 15.6612 16.3589 15.6818C16.346 15.7023 16.3333 15.7107 16.3235 15.7139C16.3041 15.7201 16.2801 15.7095 16.2613 15.6905L16.2273 15.7188C16.2495 15.7413 16.292 15.7685 16.3386 15.7536C16.3618 15.7462 16.382 15.7293 16.3987 15.7029C16.4152 15.6767 16.429 15.6399 16.4391 15.59C16.4493 15.5397 16.4486 15.5007 16.4385 15.4711C16.4281 15.4406 16.4078 15.4209 16.3819 15.4107C16.357 15.4009 16.3292 15.4008 16.3041 15.4047C16.2787 15.4086 16.2541 15.417 16.234 15.4262L16.2317 15.4273L16.0844 15.5399H15.7946L15.6054 15.2891L15.3881 15.5077Z" fill="#E77D42"/>
<path d="M15.9035 15.7842H15.2847V15.8483H15.9035V15.7842Z" fill="#E77D42"/>
<path d="M14.7418 14.9911C14.6556 14.9091 14.7777 14.8007 14.8496 14.7567C14.8081 14.7975 14.746 14.8867 14.8296 14.9179C14.9133 14.949 14.9683 15.0066 14.9853 15.0314C15.0039 15.0839 15.0228 15.2087 14.9494 15.2878C14.8759 15.367 14.8922 15.4673 14.9095 15.5076H14.8296C14.8004 15.4905 14.7594 15.4168 14.8296 15.2585C14.9174 15.0607 14.8496 15.0937 14.7418 14.9911Z" fill="#F8D74C"/>
<path d="M15.2368 15.4435C15.2368 15.4668 15.2163 15.4856 15.1909 15.4856C15.1656 15.4856 15.145 15.4668 15.145 15.4435C15.145 15.4203 15.1656 15.4014 15.1909 15.4014C15.2163 15.4014 15.2368 15.4203 15.2368 15.4435Z" fill="#F8D74C"/>
<path d="M16.0449 15.4435C16.0449 15.4668 16.0655 15.4856 16.0908 15.4856C16.1162 15.4856 16.1367 15.4668 16.1367 15.4435C16.1367 15.4203 16.1162 15.4014 16.0908 15.4014C16.0655 15.4014 16.0449 15.4203 16.0449 15.4435Z" fill="#F8D74C"/>
<path d="M15.3286 15.3593C15.3286 15.3825 15.3081 15.4014 15.2827 15.4014C15.2574 15.4014 15.2368 15.3825 15.2368 15.3593C15.2368 15.336 15.2574 15.3172 15.2827 15.3172C15.3081 15.3172 15.3286 15.336 15.3286 15.3593Z" fill="#F8D74C"/>
<path d="M15.9531 15.3593C15.9531 15.3825 15.9736 15.4014 15.999 15.4014C16.0244 15.4014 16.0449 15.3825 16.0449 15.3593C16.0449 15.336 16.0244 15.3172 15.999 15.3172C15.9736 15.3172 15.9531 15.336 15.9531 15.3593Z" fill="#F8D74C"/>
<path d="M15.4205 15.2687C15.4205 15.2919 15.3999 15.3108 15.3745 15.3108C15.3492 15.3108 15.3286 15.2919 15.3286 15.2687C15.3286 15.2454 15.3492 15.2265 15.3745 15.2265C15.3999 15.2265 15.4205 15.2454 15.4205 15.2687Z" fill="#F8D74C"/>
<path d="M15.8613 15.2687C15.8613 15.2919 15.8818 15.3108 15.9072 15.3108C15.9325 15.3108 15.9531 15.2919 15.9531 15.2687C15.9531 15.2454 15.9325 15.2265 15.9072 15.2265C15.8818 15.2265 15.8613 15.2454 15.8613 15.2687Z" fill="#F8D74C"/>
<path d="M15.5105 15.1844C15.5105 15.2077 15.49 15.2265 15.4646 15.2265C15.4393 15.2265 15.4187 15.2077 15.4187 15.1844C15.4187 15.1611 15.4393 15.1423 15.4646 15.1423C15.49 15.1423 15.5105 15.1611 15.5105 15.1844Z" fill="#F8D74C"/>
<path d="M15.7712 15.1844C15.7712 15.2077 15.7917 15.2265 15.8171 15.2265C15.8424 15.2265 15.863 15.2077 15.863 15.1844C15.863 15.1611 15.8424 15.1423 15.8171 15.1423C15.7917 15.1423 15.7712 15.1611 15.7712 15.1844Z" fill="#F8D74C"/>
<path d="M15.6024 15.09C15.6024 15.1133 15.5818 15.1322 15.5565 15.1322C15.5311 15.1322 15.5105 15.1133 15.5105 15.09C15.5105 15.0668 15.5311 15.0479 15.5565 15.0479C15.5818 15.0479 15.6024 15.0668 15.6024 15.09Z" fill="#F8D74C"/>
<path d="M15.6794 15.09C15.6794 15.1133 15.6999 15.1322 15.7253 15.1322C15.7506 15.1322 15.7712 15.1133 15.7712 15.09C15.7712 15.0668 15.7506 15.0479 15.7253 15.0479C15.6999 15.0479 15.6794 15.0668 15.6794 15.09Z" fill="#F8D74C"/>
<path d="M15.6794 15.0058C15.6794 15.0291 15.6588 15.0479 15.6335 15.0479C15.6081 15.0479 15.5875 15.0291 15.5875 15.0058C15.5875 14.9825 15.6081 14.9637 15.6335 14.9637C15.6588 14.9637 15.6794 14.9825 15.6794 15.0058Z" fill="#F8D74C"/>
<path d="M20.0775 15.5077H19.5098V15.5913H19.8602L20.0775 15.7842H20.484L20.7585 15.5965L20.7638 15.6023L20.9463 15.4628C20.9626 15.4555 20.982 15.4492 21.0011 15.4462C21.0213 15.4431 21.0394 15.444 21.0532 15.4494C21.066 15.4545 21.0774 15.4642 21.0841 15.4837C21.0911 15.5041 21.0928 15.5355 21.0834 15.5823C21.0738 15.6295 21.0613 15.6612 21.0483 15.6818C21.0354 15.7023 21.0227 15.7107 21.0129 15.7139C20.9934 15.7201 20.9694 15.7095 20.9506 15.6905L20.9167 15.7188C20.9389 15.7413 20.9813 15.7685 21.0279 15.7536C21.0511 15.7462 21.0714 15.7293 21.088 15.7029C21.1046 15.6767 21.1184 15.6399 21.1285 15.59C21.1387 15.5397 21.138 15.5007 21.1279 15.4711C21.1175 15.4406 21.0972 15.4209 21.0713 15.4107C21.0464 15.4009 21.0185 15.4008 20.9934 15.4047C20.9681 15.4086 20.9435 15.417 20.9234 15.4262L20.921 15.4273L20.7738 15.5399H20.484L20.2947 15.2891L20.0775 15.5077Z" fill="#E77D42"/>
<path d="M20.5928 15.7842H19.9741V15.8483H20.5928V15.7842Z" fill="#E77D42"/>
<path d="M19.4312 14.9911C19.345 14.9091 19.4671 14.8007 19.539 14.7567C19.4974 14.7975 19.4353 14.8867 19.519 14.9179C19.6026 14.949 19.6576 15.0066 19.6747 15.0314C19.6933 15.0839 19.7122 15.2087 19.6388 15.2878C19.5653 15.367 19.5815 15.4673 19.5988 15.5076H19.519C19.4897 15.4905 19.4487 15.4168 19.519 15.2585C19.6068 15.0607 19.539 15.0937 19.4312 14.9911Z" fill="#F8D74C"/>
<path d="M19.9262 15.4435C19.9262 15.4668 19.9056 15.4856 19.8803 15.4856C19.8549 15.4856 19.8344 15.4668 19.8344 15.4435C19.8344 15.4203 19.8549 15.4014 19.8803 15.4014C19.9056 15.4014 19.9262 15.4203 19.9262 15.4435Z" fill="#F8D74C"/>
<path d="M20.7343 15.4435C20.7343 15.4668 20.7548 15.4856 20.7802 15.4856C20.8055 15.4856 20.8261 15.4668 20.8261 15.4435C20.8261 15.4203 20.8055 15.4014 20.7802 15.4014C20.7548 15.4014 20.7343 15.4203 20.7343 15.4435Z" fill="#F8D74C"/>
<path d="M20.018 15.3593C20.018 15.3825 19.9974 15.4014 19.9721 15.4014C19.9467 15.4014 19.9262 15.3825 19.9262 15.3593C19.9262 15.336 19.9467 15.3172 19.9721 15.3172C19.9974 15.3172 20.018 15.336 20.018 15.3593Z" fill="#F8D74C"/>
<path d="M20.6425 15.3593C20.6425 15.3825 20.663 15.4014 20.6884 15.4014C20.7137 15.4014 20.7343 15.3825 20.7343 15.3593C20.7343 15.336 20.7137 15.3172 20.6884 15.3172C20.663 15.3172 20.6425 15.336 20.6425 15.3593Z" fill="#F8D74C"/>
<path d="M20.1098 15.2687C20.1098 15.2919 20.0893 15.3108 20.0639 15.3108C20.0386 15.3108 20.018 15.2919 20.018 15.2687C20.018 15.2454 20.0386 15.2265 20.0639 15.2265C20.0893 15.2265 20.1098 15.2454 20.1098 15.2687Z" fill="#F8D74C"/>
<path d="M20.5506 15.2687C20.5506 15.2919 20.5712 15.3108 20.5965 15.3108C20.6219 15.3108 20.6425 15.2919 20.6425 15.2687C20.6425 15.2454 20.6219 15.2265 20.5965 15.2265C20.5712 15.2265 20.5506 15.2454 20.5506 15.2687Z" fill="#F8D74C"/>
<path d="M20.1999 15.1844C20.1999 15.2077 20.1794 15.2265 20.154 15.2265C20.1287 15.2265 20.1081 15.2077 20.1081 15.1844C20.1081 15.1611 20.1287 15.1423 20.154 15.1423C20.1794 15.1423 20.1999 15.1611 20.1999 15.1844Z" fill="#F8D74C"/>
<path d="M20.4605 15.1844C20.4605 15.2077 20.4811 15.2265 20.5064 15.2265C20.5318 15.2265 20.5524 15.2077 20.5524 15.1844C20.5524 15.1611 20.5318 15.1423 20.5064 15.1423C20.4811 15.1423 20.4605 15.1611 20.4605 15.1844Z" fill="#F8D74C"/>
<path d="M20.2917 15.09C20.2917 15.1133 20.2712 15.1322 20.2458 15.1322C20.2205 15.1322 20.1999 15.1133 20.1999 15.09C20.1999 15.0668 20.2205 15.0479 20.2458 15.0479C20.2712 15.0479 20.2917 15.0668 20.2917 15.09Z" fill="#F8D74C"/>
<path d="M20.3687 15.09C20.3687 15.1133 20.3893 15.1322 20.4146 15.1322C20.44 15.1322 20.4605 15.1133 20.4605 15.09C20.4605 15.0668 20.44 15.0479 20.4146 15.0479C20.3893 15.0479 20.3687 15.0668 20.3687 15.09Z" fill="#F8D74C"/>
<path d="M20.3687 15.0058C20.3687 15.0291 20.3482 15.0479 20.3228 15.0479C20.2975 15.0479 20.2769 15.0291 20.2769 15.0058C20.2769 14.9825 20.2975 14.9637 20.3228 14.9637C20.3482 14.9637 20.3687 14.9825 20.3687 15.0058Z" fill="#F8D74C"/>
<path d="M15.3881 11.0802H14.8205V11.1638H15.1709L15.3881 11.3567H15.7946L16.0692 11.169L16.0744 11.1748L16.2569 11.0353C16.2733 11.028 16.2926 11.0217 16.3117 11.0187C16.332 11.0156 16.35 11.0165 16.3638 11.0219C16.3767 11.027 16.3881 11.0367 16.3947 11.0562C16.4017 11.0766 16.4035 11.108 16.394 11.1548C16.3844 11.202 16.3719 11.2337 16.3589 11.2544C16.346 11.2749 16.3333 11.2832 16.3235 11.2864C16.3041 11.2926 16.2801 11.282 16.2613 11.263L16.2273 11.2913C16.2495 11.3138 16.292 11.341 16.3386 11.3261C16.3618 11.3187 16.382 11.3019 16.3987 11.2755C16.4152 11.2492 16.429 11.2124 16.4391 11.1625C16.4493 11.1122 16.4486 11.0732 16.4385 11.0436C16.4281 11.0132 16.4078 10.9934 16.3819 10.9832C16.357 10.9734 16.3292 10.9733 16.3041 10.9772C16.2787 10.9812 16.2541 10.9895 16.234 10.9987L16.2317 10.9998L16.0844 11.1124H15.7946L15.6054 10.8616L15.3881 11.0802Z" fill="#E77D42"/>
<path d="M15.9035 11.3567H15.2847V11.4208H15.9035V11.3567Z" fill="#E77D42"/>
<path d="M14.7418 10.5637C14.6556 10.4816 14.7777 10.3732 14.8496 10.3292C14.8081 10.37 14.746 10.4593 14.8296 10.4904C14.9133 10.5215 14.9683 10.5791 14.9853 10.6039C15.0039 10.6565 15.0228 10.7812 14.9494 10.8604C14.8759 10.9395 14.8922 11.0398 14.9095 11.0801H14.8296C14.8004 11.063 14.7594 10.9893 14.8296 10.8311C14.9174 10.6333 14.8496 10.6662 14.7418 10.5637Z" fill="#F8D74C"/>
<path d="M15.2368 11.016C15.2368 11.0393 15.2163 11.0582 15.1909 11.0582C15.1656 11.0582 15.145 11.0393 15.145 11.016C15.145 10.9928 15.1656 10.9739 15.1909 10.9739C15.2163 10.9739 15.2368 10.9928 15.2368 11.016Z" fill="#F8D74C"/>
<path d="M16.0449 11.016C16.0449 11.0393 16.0655 11.0582 16.0908 11.0582C16.1162 11.0582 16.1367 11.0393 16.1367 11.016C16.1367 10.9928 16.1162 10.9739 16.0908 10.9739C16.0655 10.9739 16.0449 10.9928 16.0449 11.016Z" fill="#F8D74C"/>
<path d="M15.3286 10.9318C15.3286 10.955 15.3081 10.9739 15.2827 10.9739C15.2574 10.9739 15.2368 10.955 15.2368 10.9318C15.2368 10.9085 15.2574 10.8897 15.2827 10.8897C15.3081 10.8897 15.3286 10.9085 15.3286 10.9318Z" fill="#F8D74C"/>
<path d="M15.9531 10.9318C15.9531 10.955 15.9736 10.9739 15.999 10.9739C16.0244 10.9739 16.0449 10.955 16.0449 10.9318C16.0449 10.9085 16.0244 10.8897 15.999 10.8897C15.9736 10.8897 15.9531 10.9085 15.9531 10.9318Z" fill="#F8D74C"/>
<path d="M15.4205 10.8412C15.4205 10.8644 15.3999 10.8833 15.3745 10.8833C15.3492 10.8833 15.3286 10.8644 15.3286 10.8412C15.3286 10.8179 15.3492 10.799 15.3745 10.799C15.3999 10.799 15.4205 10.8179 15.4205 10.8412Z" fill="#F8D74C"/>
<path d="M15.8613 10.8412C15.8613 10.8644 15.8818 10.8833 15.9072 10.8833C15.9325 10.8833 15.9531 10.8644 15.9531 10.8412C15.9531 10.8179 15.9325 10.799 15.9072 10.799C15.8818 10.799 15.8613 10.8179 15.8613 10.8412Z" fill="#F8D74C"/>
<path d="M15.5105 10.7569C15.5105 10.7802 15.49 10.799 15.4646 10.799C15.4393 10.799 15.4187 10.7802 15.4187 10.7569C15.4187 10.7337 15.4393 10.7148 15.4646 10.7148C15.49 10.7148 15.5105 10.7337 15.5105 10.7569Z" fill="#F8D74C"/>
<path d="M15.7712 10.7569C15.7712 10.7802 15.7917 10.799 15.8171 10.799C15.8424 10.799 15.863 10.7802 15.863 10.7569C15.863 10.7337 15.8424 10.7148 15.8171 10.7148C15.7917 10.7148 15.7712 10.7337 15.7712 10.7569Z" fill="#F8D74C"/>
<path d="M15.6024 10.6626C15.6024 10.6858 15.5818 10.7047 15.5565 10.7047C15.5311 10.7047 15.5105 10.6858 15.5105 10.6626C15.5105 10.6393 15.5311 10.6204 15.5565 10.6204C15.5818 10.6204 15.6024 10.6393 15.6024 10.6626Z" fill="#F8D74C"/>
<path d="M15.6794 10.6626C15.6794 10.6858 15.6999 10.7047 15.7253 10.7047C15.7506 10.7047 15.7712 10.6858 15.7712 10.6626C15.7712 10.6393 15.7506 10.6204 15.7253 10.6204C15.6999 10.6204 15.6794 10.6393 15.6794 10.6626Z" fill="#F8D74C"/>
<path d="M15.6794 10.5783C15.6794 10.6016 15.6588 10.6204 15.6335 10.6204C15.6081 10.6204 15.5875 10.6016 15.5875 10.5783C15.5875 10.555 15.6081 10.5362 15.6335 10.5362C15.6588 10.5362 15.6794 10.555 15.6794 10.5783Z" fill="#F8D74C"/>
<path d="M20.0775 11.0802H19.5098V11.1638H19.8602L20.0775 11.3567H20.484L20.7585 11.169L20.7638 11.1748L20.9463 11.0353C20.9626 11.028 20.982 11.0217 21.0011 11.0187C21.0213 11.0156 21.0394 11.0165 21.0532 11.0219C21.066 11.027 21.0774 11.0367 21.0841 11.0562C21.0911 11.0766 21.0928 11.108 21.0834 11.1548C21.0738 11.202 21.0613 11.2337 21.0483 11.2544C21.0354 11.2749 21.0227 11.2832 21.0129 11.2864C20.9934 11.2926 20.9694 11.282 20.9506 11.263L20.9167 11.2913C20.9389 11.3138 20.9813 11.341 21.0279 11.3261C21.0511 11.3187 21.0714 11.3019 21.088 11.2755C21.1046 11.2492 21.1184 11.2124 21.1285 11.1625C21.1387 11.1122 21.138 11.0732 21.1279 11.0436C21.1175 11.0132 21.0972 10.9934 21.0713 10.9832C21.0464 10.9734 21.0185 10.9733 20.9934 10.9772C20.9681 10.9812 20.9435 10.9895 20.9234 10.9987L20.921 10.9998L20.7738 11.1124H20.484L20.2947 10.8616L20.0775 11.0802Z" fill="#E77D42"/>
<path d="M20.5928 11.3567H19.9741V11.4208H20.5928V11.3567Z" fill="#E77D42"/>
<path d="M19.4312 10.5637C19.345 10.4816 19.4671 10.3732 19.539 10.3292C19.4974 10.37 19.4353 10.4593 19.519 10.4904C19.6026 10.5215 19.6576 10.5791 19.6747 10.6039C19.6933 10.6565 19.7122 10.7812 19.6388 10.8604C19.5653 10.9395 19.5815 11.0398 19.5988 11.0801H19.519C19.4897 11.063 19.4487 10.9893 19.519 10.8311C19.6068 10.6333 19.539 10.6662 19.4312 10.5637Z" fill="#F8D74C"/>
<path d="M19.9262 11.016C19.9262 11.0393 19.9056 11.0582 19.8803 11.0582C19.8549 11.0582 19.8344 11.0393 19.8344 11.016C19.8344 10.9928 19.8549 10.9739 19.8803 10.9739C19.9056 10.9739 19.9262 10.9928 19.9262 11.016Z" fill="#F8D74C"/>
<path d="M20.7343 11.016C20.7343 11.0393 20.7548 11.0582 20.7802 11.0582C20.8055 11.0582 20.8261 11.0393 20.8261 11.016C20.8261 10.9928 20.8055 10.9739 20.7802 10.9739C20.7548 10.9739 20.7343 10.9928 20.7343 11.016Z" fill="#F8D74C"/>
<path d="M20.018 10.9318C20.018 10.955 19.9974 10.9739 19.9721 10.9739C19.9467 10.9739 19.9262 10.955 19.9262 10.9318C19.9262 10.9085 19.9467 10.8897 19.9721 10.8897C19.9974 10.8897 20.018 10.9085 20.018 10.9318Z" fill="#F8D74C"/>
<path d="M20.6425 10.9318C20.6425 10.955 20.663 10.9739 20.6884 10.9739C20.7137 10.9739 20.7343 10.955 20.7343 10.9318C20.7343 10.9085 20.7137 10.8897 20.6884 10.8897C20.663 10.8897 20.6425 10.9085 20.6425 10.9318Z" fill="#F8D74C"/>
<path d="M20.1098 10.8412C20.1098 10.8644 20.0893 10.8833 20.0639 10.8833C20.0386 10.8833 20.018 10.8644 20.018 10.8412C20.018 10.8179 20.0386 10.799 20.0639 10.799C20.0893 10.799 20.1098 10.8179 20.1098 10.8412Z" fill="#F8D74C"/>
<path d="M20.5506 10.8412C20.5506 10.8644 20.5712 10.8833 20.5965 10.8833C20.6219 10.8833 20.6425 10.8644 20.6425 10.8412C20.6425 10.8179 20.6219 10.799 20.5965 10.799C20.5712 10.799 20.5506 10.8179 20.5506 10.8412Z" fill="#F8D74C"/>
<path d="M20.1999 10.7569C20.1999 10.7802 20.1794 10.799 20.154 10.799C20.1287 10.799 20.1081 10.7802 20.1081 10.7569C20.1081 10.7337 20.1287 10.7148 20.154 10.7148C20.1794 10.7148 20.1999 10.7337 20.1999 10.7569Z" fill="#F8D74C"/>
<path d="M20.4605 10.7569C20.4605 10.7802 20.4811 10.799 20.5064 10.799C20.5318 10.799 20.5524 10.7802 20.5524 10.7569C20.5524 10.7337 20.5318 10.7148 20.5064 10.7148C20.4811 10.7148 20.4605 10.7337 20.4605 10.7569Z" fill="#F8D74C"/>
<path d="M20.2917 10.6626C20.2917 10.6858 20.2712 10.7047 20.2458 10.7047C20.2205 10.7047 20.1999 10.6858 20.1999 10.6626C20.1999 10.6393 20.2205 10.6204 20.2458 10.6204C20.2712 10.6204 20.2917 10.6393 20.2917 10.6626Z" fill="#F8D74C"/>
<path d="M20.3687 10.6626C20.3687 10.6858 20.3893 10.7047 20.4146 10.7047C20.44 10.7047 20.4605 10.6858 20.4605 10.6626C20.4605 10.6393 20.44 10.6204 20.4146 10.6204C20.3893 10.6204 20.3687 10.6393 20.3687 10.6626Z" fill="#F8D74C"/>
<path d="M20.3687 10.5783C20.3687 10.6016 20.3482 10.6204 20.3228 10.6204C20.2975 10.6204 20.2769 10.6016 20.2769 10.5783C20.2769 10.555 20.2975 10.5362 20.3228 10.5362C20.3482 10.5362 20.3687 10.555 20.3687 10.5783Z" fill="#F8D74C"/>
<path d="M15.3881 14.4163H14.8205V14.4999H15.1709L15.3881 14.6928H15.7946L16.0692 14.5051L16.0744 14.5109L16.2569 14.3714C16.2733 14.3641 16.2926 14.3578 16.3117 14.3548C16.332 14.3517 16.35 14.3525 16.3638 14.358C16.3767 14.363 16.3881 14.3728 16.3947 14.3923C16.4017 14.4127 16.4035 14.444 16.394 14.4909C16.3844 14.5381 16.3719 14.5698 16.3589 14.5904C16.346 14.6109 16.3333 14.6193 16.3235 14.6224C16.3041 14.6286 16.2801 14.618 16.2613 14.5991L16.2273 14.6274C16.2495 14.6498 16.292 14.6771 16.3386 14.6622C16.3618 14.6548 16.382 14.6379 16.3987 14.6115C16.4152 14.5852 16.429 14.5484 16.4391 14.4986C16.4493 14.4483 16.4486 14.4092 16.4385 14.3797C16.4281 14.3492 16.4078 14.3295 16.3819 14.3193C16.357 14.3095 16.3292 14.3094 16.3041 14.3133C16.2787 14.3172 16.2541 14.3255 16.234 14.3347L16.2317 14.3358L16.0844 14.4484H15.7946L15.6054 14.1977L15.3881 14.4163Z" fill="#E77D42"/>
<path d="M15.9035 14.6928H15.2847V14.7569H15.9035V14.6928Z" fill="#E77D42"/>
<path d="M14.7418 13.8997C14.6556 13.8177 14.7777 13.7092 14.8496 13.6653C14.8081 13.706 14.746 13.7953 14.8296 13.8265C14.9133 13.8576 14.9683 13.9151 14.9853 13.94C15.0039 13.9925 15.0228 14.1173 14.9494 14.1964C14.8759 14.2755 14.8922 14.3759 14.9095 14.4162H14.8296C14.8004 14.3991 14.7594 14.3254 14.8296 14.1671C14.9174 13.9693 14.8496 14.0023 14.7418 13.8997Z" fill="#F8D74C"/>
<path d="M15.2368 14.3521C15.2368 14.3754 15.2163 14.3942 15.1909 14.3942C15.1656 14.3942 15.145 14.3754 15.145 14.3521C15.145 14.3288 15.1656 14.31 15.1909 14.31C15.2163 14.31 15.2368 14.3288 15.2368 14.3521Z" fill="#F8D74C"/>
<path d="M16.0449 14.3521C16.0449 14.3754 16.0655 14.3942 16.0908 14.3942C16.1162 14.3942 16.1367 14.3754 16.1367 14.3521C16.1367 14.3288 16.1162 14.31 16.0908 14.31C16.0655 14.31 16.0449 14.3288 16.0449 14.3521Z" fill="#F8D74C"/>
<path d="M15.3286 14.2678C15.3286 14.2911 15.3081 14.31 15.2827 14.31C15.2574 14.31 15.2368 14.2911 15.2368 14.2678C15.2368 14.2446 15.2574 14.2257 15.2827 14.2257C15.3081 14.2257 15.3286 14.2446 15.3286 14.2678Z" fill="#F8D74C"/>
<path d="M15.9531 14.2678C15.9531 14.2911 15.9736 14.31 15.999 14.31C16.0244 14.31 16.0449 14.2911 16.0449 14.2678C16.0449 14.2446 16.0244 14.2257 15.999 14.2257C15.9736 14.2257 15.9531 14.2446 15.9531 14.2678Z" fill="#F8D74C"/>
<path d="M15.4205 14.1772C15.4205 14.2005 15.3999 14.2193 15.3745 14.2193C15.3492 14.2193 15.3286 14.2005 15.3286 14.1772C15.3286 14.154 15.3492 14.1351 15.3745 14.1351C15.3999 14.1351 15.4205 14.154 15.4205 14.1772Z" fill="#F8D74C"/>
<path d="M15.8613 14.1772C15.8613 14.2005 15.8818 14.2193 15.9072 14.2193C15.9325 14.2193 15.9531 14.2005 15.9531 14.1772C15.9531 14.154 15.9325 14.1351 15.9072 14.1351C15.8818 14.1351 15.8613 14.154 15.8613 14.1772Z" fill="#F8D74C"/>
<path d="M15.5105 14.093C15.5105 14.1162 15.49 14.1351 15.4646 14.1351C15.4393 14.1351 15.4187 14.1162 15.4187 14.093C15.4187 14.0697 15.4393 14.0509 15.4646 14.0509C15.49 14.0509 15.5105 14.0697 15.5105 14.093Z" fill="#F8D74C"/>
<path d="M15.7712 14.093C15.7712 14.1162 15.7917 14.1351 15.8171 14.1351C15.8424 14.1351 15.863 14.1162 15.863 14.093C15.863 14.0697 15.8424 14.0509 15.8171 14.0509C15.7917 14.0509 15.7712 14.0697 15.7712 14.093Z" fill="#F8D74C"/>
<path d="M15.6024 13.9986C15.6024 14.0219 15.5818 14.0407 15.5565 14.0407C15.5311 14.0407 15.5105 14.0219 15.5105 13.9986C15.5105 13.9753 15.5311 13.9565 15.5565 13.9565C15.5818 13.9565 15.6024 13.9753 15.6024 13.9986Z" fill="#F8D74C"/>
<path d="M15.6794 13.9986C15.6794 14.0219 15.6999 14.0407 15.7253 14.0407C15.7506 14.0407 15.7712 14.0219 15.7712 13.9986C15.7712 13.9753 15.7506 13.9565 15.7253 13.9565C15.6999 13.9565 15.6794 13.9753 15.6794 13.9986Z" fill="#F8D74C"/>
<path d="M15.6794 13.9144C15.6794 13.9376 15.6588 13.9565 15.6335 13.9565C15.6081 13.9565 15.5875 13.9376 15.5875 13.9144C15.5875 13.8911 15.6081 13.8722 15.6335 13.8722C15.6588 13.8722 15.6794 13.8911 15.6794 13.9144Z" fill="#F8D74C"/>
<path d="M20.0775 14.4163H19.5098V14.4999H19.8602L20.0775 14.6928H20.484L20.7585 14.5051L20.7638 14.5109L20.9463 14.3714C20.9626 14.3641 20.982 14.3578 21.0011 14.3548C21.0213 14.3517 21.0394 14.3525 21.0532 14.358C21.066 14.363 21.0774 14.3728 21.0841 14.3923C21.0911 14.4127 21.0928 14.444 21.0834 14.4909C21.0738 14.5381 21.0613 14.5698 21.0483 14.5904C21.0354 14.6109 21.0227 14.6193 21.0129 14.6224C20.9934 14.6286 20.9694 14.618 20.9506 14.5991L20.9167 14.6274C20.9389 14.6498 20.9813 14.6771 21.0279 14.6622C21.0511 14.6548 21.0714 14.6379 21.088 14.6115C21.1046 14.5852 21.1184 14.5484 21.1285 14.4986C21.1387 14.4483 21.138 14.4092 21.1279 14.3797C21.1175 14.3492 21.0972 14.3295 21.0713 14.3193C21.0464 14.3095 21.0185 14.3094 20.9934 14.3133C20.9681 14.3172 20.9435 14.3255 20.9234 14.3347L20.921 14.3358L20.7738 14.4484H20.484L20.2947 14.1977L20.0775 14.4163Z" fill="#E77D42"/>
<path d="M20.5928 14.6928H19.9741V14.7569H20.5928V14.6928Z" fill="#E77D42"/>
<path d="M19.4312 13.8997C19.345 13.8177 19.4671 13.7092 19.539 13.6653C19.4974 13.706 19.4353 13.7953 19.519 13.8265C19.6026 13.8576 19.6576 13.9151 19.6747 13.94C19.6933 13.9925 19.7122 14.1173 19.6388 14.1964C19.5653 14.2755 19.5815 14.3759 19.5988 14.4162H19.519C19.4897 14.3991 19.4487 14.3254 19.519 14.1671C19.6068 13.9693 19.539 14.0023 19.4312 13.8997Z" fill="#F8D74C"/>
<path d="M19.9262 14.3521C19.9262 14.3754 19.9056 14.3942 19.8803 14.3942C19.8549 14.3942 19.8344 14.3754 19.8344 14.3521C19.8344 14.3288 19.8549 14.31 19.8803 14.31C19.9056 14.31 19.9262 14.3288 19.9262 14.3521Z" fill="#F8D74C"/>
<path d="M20.7343 14.3521C20.7343 14.3754 20.7548 14.3942 20.7802 14.3942C20.8055 14.3942 20.8261 14.3754 20.8261 14.3521C20.8261 14.3288 20.8055 14.31 20.7802 14.31C20.7548 14.31 20.7343 14.3288 20.7343 14.3521Z" fill="#F8D74C"/>
<path d="M20.018 14.2678C20.018 14.2911 19.9974 14.31 19.9721 14.31C19.9467 14.31 19.9262 14.2911 19.9262 14.2678C19.9262 14.2446 19.9467 14.2257 19.9721 14.2257C19.9974 14.2257 20.018 14.2446 20.018 14.2678Z" fill="#F8D74C"/>
<path d="M20.6425 14.2678C20.6425 14.2911 20.663 14.31 20.6884 14.31C20.7137 14.31 20.7343 14.2911 20.7343 14.2678C20.7343 14.2446 20.7137 14.2257 20.6884 14.2257C20.663 14.2257 20.6425 14.2446 20.6425 14.2678Z" fill="#F8D74C"/>
<path d="M20.1098 14.1772C20.1098 14.2005 20.0893 14.2193 20.0639 14.2193C20.0386 14.2193 20.018 14.2005 20.018 14.1772C20.018 14.154 20.0386 14.1351 20.0639 14.1351C20.0893 14.1351 20.1098 14.154 20.1098 14.1772Z" fill="#F8D74C"/>
<path d="M20.5506 14.1772C20.5506 14.2005 20.5712 14.2193 20.5965 14.2193C20.6219 14.2193 20.6425 14.2005 20.6425 14.1772C20.6425 14.154 20.6219 14.1351 20.5965 14.1351C20.5712 14.1351 20.5506 14.154 20.5506 14.1772Z" fill="#F8D74C"/>
<path d="M20.1999 14.093C20.1999 14.1162 20.1794 14.1351 20.154 14.1351C20.1287 14.1351 20.1081 14.1162 20.1081 14.093C20.1081 14.0697 20.1287 14.0509 20.154 14.0509C20.1794 14.0509 20.1999 14.0697 20.1999 14.093Z" fill="#F8D74C"/>
<path d="M20.4605 14.093C20.4605 14.1162 20.4811 14.1351 20.5064 14.1351C20.5318 14.1351 20.5524 14.1162 20.5524 14.093C20.5524 14.0697 20.5318 14.0509 20.5064 14.0509C20.4811 14.0509 20.4605 14.0697 20.4605 14.093Z" fill="#F8D74C"/>
<path d="M20.2917 13.9986C20.2917 14.0219 20.2712 14.0407 20.2458 14.0407C20.2205 14.0407 20.1999 14.0219 20.1999 13.9986C20.1999 13.9753 20.2205 13.9565 20.2458 13.9565C20.2712 13.9565 20.2917 13.9753 20.2917 13.9986Z" fill="#F8D74C"/>
<path d="M20.3687 13.9986C20.3687 14.0219 20.3893 14.0407 20.4146 14.0407C20.44 14.0407 20.4605 14.0219 20.4605 13.9986C20.4605 13.9753 20.44 13.9565 20.4146 13.9565C20.3893 13.9565 20.3687 13.9753 20.3687 13.9986Z" fill="#F8D74C"/>
<path d="M20.3687 13.9144C20.3687 13.9376 20.3482 13.9565 20.3228 13.9565C20.2975 13.9565 20.2769 13.9376 20.2769 13.9144C20.2769 13.8911 20.2975 13.8722 20.3228 13.8722C20.3482 13.8722 20.3687 13.8911 20.3687 13.9144Z" fill="#F8D74C"/>
<path d="M15.3881 9.92752H14.8205V10.0111H15.1709L15.3881 10.204H15.7946L16.0692 10.0163L16.0744 10.0221L16.2569 9.8826C16.2733 9.8753 16.2926 9.869 16.3117 9.86603C16.332 9.86288 16.35 9.86377 16.3638 9.86921C16.3767 9.87426 16.3881 9.88401 16.3947 9.9035C16.4017 9.9239 16.4035 9.95527 16.394 10.0021C16.3844 10.0493 16.3719 10.081 16.3589 10.1016C16.346 10.1221 16.3333 10.1305 16.3235 10.1337C16.3041 10.1399 16.2801 10.1293 16.2613 10.1103L16.2273 10.1386C16.2495 10.1611 16.292 10.1883 16.3386 10.1734C16.3618 10.166 16.382 10.1491 16.3987 10.1227C16.4152 10.0965 16.429 10.0597 16.4391 10.0098C16.4493 9.95951 16.4486 9.92046 16.4385 9.8909C16.4281 9.86044 16.4078 9.84069 16.3819 9.8305C16.357 9.8207 16.3292 9.8206 16.3041 9.82451C16.2787 9.82845 16.2541 9.83678 16.234 9.84598L16.2317 9.84707L16.0844 9.95968H15.7946L15.6054 9.70889L15.3881 9.92752Z" fill="#E77D42"/>
<path d="M15.9035 10.204H15.2847V10.2681H15.9035V10.204Z" fill="#E77D42"/>
<path d="M14.7418 9.41095C14.6556 9.3289 14.7777 9.22047 14.8496 9.17651C14.8081 9.21726 14.746 9.30654 14.8296 9.33769C14.9133 9.36883 14.9683 9.42636 14.9853 9.45124C15.0039 9.50374 15.0228 9.62853 14.9494 9.70765C14.8759 9.78677 14.8922 9.88713 14.9095 9.92742H14.8296C14.8004 9.91033 14.7594 9.83658 14.8296 9.67834C14.9174 9.48054 14.8496 9.51351 14.7418 9.41095Z" fill="#F8D74C"/>
<path d="M15.2368 9.86332C15.2368 9.88659 15.2163 9.90545 15.1909 9.90545C15.1656 9.90545 15.145 9.88659 15.145 9.86332C15.145 9.84006 15.1656 9.8212 15.1909 9.8212C15.2163 9.8212 15.2368 9.84006 15.2368 9.86332Z" fill="#F8D74C"/>
<path d="M16.0449 9.86332C16.0449 9.88659 16.0655 9.90545 16.0908 9.90545C16.1162 9.90545 16.1367 9.88659 16.1367 9.86332C16.1367 9.84006 16.1162 9.8212 16.0908 9.8212C16.0655 9.8212 16.0449 9.84006 16.0449 9.86332Z" fill="#F8D74C"/>
<path d="M15.3286 9.77907C15.3286 9.80234 15.3081 9.8212 15.2827 9.8212C15.2574 9.8212 15.2368 9.80234 15.2368 9.77907C15.2368 9.75581 15.2574 9.73695 15.2827 9.73695C15.3081 9.73695 15.3286 9.75581 15.3286 9.77907Z" fill="#F8D74C"/>
<path d="M15.9531 9.77907C15.9531 9.80234 15.9736 9.8212 15.999 9.8212C16.0244 9.8212 16.0449 9.80234 16.0449 9.77907C16.0449 9.75581 16.0244 9.73695 15.999 9.73695C15.9736 9.73695 15.9531 9.75581 15.9531 9.77907Z" fill="#F8D74C"/>
<path d="M15.4205 9.68845C15.4205 9.71172 15.3999 9.73058 15.3745 9.73058C15.3492 9.73058 15.3286 9.71172 15.3286 9.68845C15.3286 9.66519 15.3492 9.64633 15.3745 9.64633C15.3999 9.64633 15.4205 9.66519 15.4205 9.68845Z" fill="#F8D74C"/>
<path d="M15.8613 9.68845C15.8613 9.71172 15.8818 9.73058 15.9072 9.73058C15.9325 9.73058 15.9531 9.71172 15.9531 9.68845C15.9531 9.66519 15.9325 9.64633 15.9072 9.64633C15.8818 9.64633 15.8613 9.66519 15.8613 9.68845Z" fill="#F8D74C"/>
<path d="M15.5105 9.60421C15.5105 9.62747 15.49 9.64633 15.4646 9.64633C15.4393 9.64633 15.4187 9.62747 15.4187 9.60421C15.4187 9.58094 15.4393 9.56208 15.4646 9.56208C15.49 9.56208 15.5105 9.58094 15.5105 9.60421Z" fill="#F8D74C"/>
<path d="M15.7712 9.60421C15.7712 9.62747 15.7917 9.64633 15.8171 9.64633C15.8424 9.64633 15.863 9.62747 15.863 9.60421C15.863 9.58094 15.8424 9.56208 15.8171 9.56208C15.7917 9.56208 15.7712 9.58094 15.7712 9.60421Z" fill="#F8D74C"/>
<path d="M15.6024 9.50984C15.6024 9.53311 15.5818 9.55197 15.5565 9.55197C15.5311 9.55197 15.5105 9.53311 15.5105 9.50984C15.5105 9.48658 15.5311 9.46772 15.5565 9.46772C15.5818 9.46772 15.6024 9.48658 15.6024 9.50984Z" fill="#F8D74C"/>
<path d="M15.6794 9.50984C15.6794 9.53311 15.6999 9.55197 15.7253 9.55197C15.7506 9.55197 15.7712 9.53311 15.7712 9.50984C15.7712 9.48658 15.7506 9.46772 15.7253 9.46772C15.6999 9.46772 15.6794 9.48658 15.6794 9.50984Z" fill="#F8D74C"/>
<path d="M15.6794 9.4256C15.6794 9.44886 15.6588 9.46772 15.6335 9.46772C15.6081 9.46772 15.5875 9.44886 15.5875 9.4256C15.5875 9.40233 15.6081 9.38347 15.6335 9.38347C15.6588 9.38347 15.6794 9.40233 15.6794 9.4256Z" fill="#F8D74C"/>
<path d="M20.0775 9.92752H19.5098V10.0111H19.8602L20.0775 10.204H20.484L20.7585 10.0163L20.7638 10.0221L20.9463 9.8826C20.9626 9.8753 20.982 9.869 21.0011 9.86603C21.0213 9.86288 21.0394 9.86377 21.0532 9.86921C21.066 9.87426 21.0774 9.88401 21.0841 9.9035C21.0911 9.9239 21.0928 9.95527 21.0834 10.0021C21.0738 10.0493 21.0613 10.081 21.0483 10.1016C21.0354 10.1221 21.0227 10.1305 21.0129 10.1337C20.9934 10.1399 20.9694 10.1293 20.9506 10.1103L20.9167 10.1386C20.9389 10.1611 20.9813 10.1883 21.0279 10.1734C21.0511 10.166 21.0714 10.1491 21.088 10.1227C21.1046 10.0965 21.1184 10.0597 21.1285 10.0098C21.1387 9.95951 21.138 9.92046 21.1279 9.8909C21.1175 9.86044 21.0972 9.84069 21.0713 9.8305C21.0464 9.8207 21.0185 9.8206 20.9934 9.82451C20.9681 9.82845 20.9435 9.83678 20.9234 9.84598L20.921 9.84707L20.7738 9.95968H20.484L20.2947 9.70889L20.0775 9.92752Z" fill="#E77D42"/>
<path d="M20.5928 10.204H19.9741V10.2681H20.5928V10.204Z" fill="#E77D42"/>
<path d="M19.4312 9.41095C19.345 9.3289 19.4671 9.22047 19.539 9.17651C19.4974 9.21726 19.4353 9.30654 19.519 9.33769C19.6026 9.36883 19.6576 9.42636 19.6747 9.45124C19.6933 9.50374 19.7122 9.62853 19.6388 9.70765C19.5653 9.78677 19.5815 9.88713 19.5988 9.92742H19.519C19.4897 9.91033 19.4487 9.83658 19.519 9.67834C19.6068 9.48054 19.539 9.51351 19.4312 9.41095Z" fill="#F8D74C"/>
<path d="M19.9262 9.86332C19.9262 9.88659 19.9056 9.90545 19.8803 9.90545C19.8549 9.90545 19.8344 9.88659 19.8344 9.86332C19.8344 9.84006 19.8549 9.8212 19.8803 9.8212C19.9056 9.8212 19.9262 9.84006 19.9262 9.86332Z" fill="#F8D74C"/>
<path d="M20.7343 9.86332C20.7343 9.88659 20.7548 9.90545 20.7802 9.90545C20.8055 9.90545 20.8261 9.88659 20.8261 9.86332C20.8261 9.84006 20.8055 9.8212 20.7802 9.8212C20.7548 9.8212 20.7343 9.84006 20.7343 9.86332Z" fill="#F8D74C"/>
<path d="M20.018 9.77907C20.018 9.80234 19.9974 9.8212 19.9721 9.8212C19.9467 9.8212 19.9262 9.80234 19.9262 9.77907C19.9262 9.75581 19.9467 9.73695 19.9721 9.73695C19.9974 9.73695 20.018 9.75581 20.018 9.77907Z" fill="#F8D74C"/>
<path d="M20.6425 9.77907C20.6425 9.80234 20.663 9.8212 20.6884 9.8212C20.7137 9.8212 20.7343 9.80234 20.7343 9.77907C20.7343 9.75581 20.7137 9.73695 20.6884 9.73695C20.663 9.73695 20.6425 9.75581 20.6425 9.77907Z" fill="#F8D74C"/>
<path d="M20.1098 9.68845C20.1098 9.71172 20.0893 9.73058 20.0639 9.73058C20.0386 9.73058 20.018 9.71172 20.018 9.68845C20.018 9.66519 20.0386 9.64633 20.0639 9.64633C20.0893 9.64633 20.1098 9.66519 20.1098 9.68845Z" fill="#F8D74C"/>
<path d="M20.5506 9.68845C20.5506 9.71172 20.5712 9.73058 20.5965 9.73058C20.6219 9.73058 20.6425 9.71172 20.6425 9.68845C20.6425 9.66519 20.6219 9.64633 20.5965 9.64633C20.5712 9.64633 20.5506 9.66519 20.5506 9.68845Z" fill="#F8D74C"/>
<path d="M20.1999 9.60421C20.1999 9.62747 20.1794 9.64633 20.154 9.64633C20.1287 9.64633 20.1081 9.62747 20.1081 9.60421C20.1081 9.58094 20.1287 9.56208 20.154 9.56208C20.1794 9.56208 20.1999 9.58094 20.1999 9.60421Z" fill="#F8D74C"/>
<path d="M20.4605 9.60421C20.4605 9.62747 20.4811 9.64633 20.5064 9.64633C20.5318 9.64633 20.5524 9.62747 20.5524 9.60421C20.5524 9.58094 20.5318 9.56208 20.5064 9.56208C20.4811 9.56208 20.4605 9.58094 20.4605 9.60421Z" fill="#F8D74C"/>
<path d="M20.2917 9.50984C20.2917 9.53311 20.2712 9.55197 20.2458 9.55197C20.2205 9.55197 20.1999 9.53311 20.1999 9.50984C20.1999 9.48658 20.2205 9.46772 20.2458 9.46772C20.2712 9.46772 20.2917 9.48658 20.2917 9.50984Z" fill="#F8D74C"/>
<path d="M20.3687 9.50984C20.3687 9.53311 20.3893 9.55197 20.4146 9.55197C20.44 9.55197 20.4605 9.53311 20.4605 9.50984C20.4605 9.48658 20.44 9.46772 20.4146 9.46772C20.3893 9.46772 20.3687 9.48658 20.3687 9.50984Z" fill="#F8D74C"/>
<path d="M20.3687 9.4256C20.3687 9.44886 20.3482 9.46772 20.3228 9.46772C20.2975 9.46772 20.2769 9.44886 20.2769 9.4256C20.2769 9.40233 20.2975 9.38347 20.3228 9.38347C20.3482 9.38347 20.3687 9.40233 20.3687 9.4256Z" fill="#F8D74C"/>
<path fill-rule="evenodd" clip-rule="evenodd" d="M20.8964 18.0169C20.0933 18.5243 19.0828 18.9999 18.0916 18.9999C17.1218 18.9999 16.0759 18.5711 15.22 18.1065C14.3442 17.6312 13.5686 17.0633 13.1134 16.6781L13.9536 15.8421C14.3536 16.1806 15.0599 16.6984 15.8509 17.1277C16.6617 17.5678 17.4673 17.8627 18.0916 17.8627C18.6945 17.8627 19.4442 17.5537 20.1936 17.0802C20.9235 16.6191 21.5596 16.0622 21.9136 15.6985L22.8379 16.456C22.4281 16.8771 21.7191 17.4971 20.8964 18.0169Z" fill="#F8D74C"/>
<path d="M13.1698 17.4859C12.8623 17.2037 13.0417 16.8056 13.1698 16.6419L14.0502 17.3714C13.8849 17.5271 13.4773 17.7681 13.1698 17.4859Z" fill="#F8D74C"/>
<path d="M22.8302 17.2999C23.1377 17.0177 22.9583 16.6196 22.8302 16.4558L21.9498 17.1853C22.1151 17.3411 22.5227 17.582 22.8302 17.2999Z" fill="#F8D74C"/>
<g clip-path="url(#clip0_440_1220)">
<rect width="13" height="11" fill="#485CC2"/>
<path fill-rule="evenodd" clip-rule="evenodd" d="M13.6094 0.916707L0.609375 11.9167L-0.609375 10.0834L12.3906 -0.916626L13.6094 0.916707Z" fill="#F9F9F9"/>
<path fill-rule="evenodd" clip-rule="evenodd" d="M-0.609375 0.916707L12.3906 11.9167L13.6094 10.0834L0.609375 -0.916626L-0.609375 0.916707Z" fill="#F9F9F9"/>
<path fill-rule="evenodd" clip-rule="evenodd" d="M12.8172 11.7334L-0.182813 0.733374L0.182813 0.183374L13.1828 11.1834L12.8172 11.7334Z" fill="#D74B4B"/>
<path fill-rule="evenodd" clip-rule="evenodd" d="M-0.225756 11.7353L13.5867 0.276983L13.2258 -0.276902L-0.586744 11.1814L-0.225756 11.7353Z" fill="#D74B4B"/>
<path d="M7.71875 1.20206e-07L7.71875 11H5.28125L5.28125 0L7.71875 1.20206e-07Z" fill="#F9F9F9"/>
<path d="M0 4.125H13V6.875H0V4.125Z" fill="#F9F9F9"/>
<path d="M0 4.58333H13V6.41667H0V4.58333Z" fill="#D74B4B"/>
<path d="M7.3125 8.01377e-08L7.3125 11H5.6875L5.6875 0L7.3125 8.01377e-08Z" fill="#D74B4B"/>
</g>
<defs>
<clipPath id="clip0_440_1220">
<rect width="13" height="11" fill="white"/>
</clipPath>
</defs>
</svg>
