<svg width="24" height="24" viewBox="0 0 24 24" fill="none" xmlns="http://www.w3.org/2000/svg">
<g clip-path="url(#clip0_440_1195)">
<rect width="24" height="24" rx="2" fill="#F9F9F9"/>
<path d="M0 24L-1.04907e-06 0L8 -3.49691e-07L8 24L0 24Z" fill="#D74B4B"/>
<path d="M16 24L16 0L24 -3.49691e-07L24 24L16 24Z" fill="#D74B4B"/>
<path fill-rule="evenodd" clip-rule="evenodd" d="M11.6526 14.5498C10.9266 14.4795 10.213 14.72 9.91313 14.8699V14.0872L8 12.435L8.60872 12.2611L8 10.8697L9.3044 11.1306L9.65224 10.4349L10.7827 11.5654L10.261 9.04355L11.1306 9.65227L11.9998 8.17453V8.17395L12 8.17424L12.0002 8.17395V8.17453L12.8694 9.65227L13.739 9.04355L13.2173 11.5654L14.3478 10.4349L14.6956 11.1306L16 10.8697L15.3913 12.2611L16 12.435L14.0869 14.0872V14.8699C13.7632 14.7081 12.9574 14.4408 12.1743 14.5727V15.826H11.6526V14.5498Z" fill="#D74B4B"/>
</g>
<defs>
<clipPath id="clip0_440_1195">
<rect width="24" height="24" rx="2" fill="white"/>
</clipPath>
</defs>
</svg>
