<svg width="32" height="24" viewBox="0 0 32 24" fill="none" xmlns="http://www.w3.org/2000/svg">
<g clip-path="url(#clip0_440_1196)">
<rect width="32" height="24" rx="2" fill="#F9F9F9"/>
<path d="M0 24L-1.04907e-06 0L10.6667 -4.66255e-07L10.6667 24L0 24Z" fill="#D74B4B"/>
<path d="M21.3333 24L21.3333 0L32 -4.66255e-07L32 24L21.3333 24Z" fill="#D74B4B"/>
<path fill-rule="evenodd" clip-rule="evenodd" d="M15.6526 14.5498C14.9266 14.4795 14.213 14.72 13.9131 14.8699V14.0872L12 12.435L12.6087 12.2611L12 10.8697L13.3044 11.1306L13.6522 10.4349L14.7827 11.5654L14.261 9.04355L15.1306 9.65227L15.9998 8.17453V8.17395L16 8.17424L16.0002 8.17395V8.17453L16.8694 9.65227L17.739 9.04355L17.2173 11.5654L18.3478 10.4349L18.6956 11.1306L20 10.8697L19.3913 12.2611L20 12.435L18.0869 14.0872V14.8699C17.7632 14.7081 16.9574 14.4408 16.1743 14.5727V15.826H15.6526V14.5498Z" fill="#D74B4B"/>
</g>
<defs>
<clipPath id="clip0_440_1196">
<rect width="32" height="24" rx="2" fill="white"/>
</clipPath>
</defs>
</svg>
