<svg width="24" height="24" viewBox="0 0 24 24" fill="none" xmlns="http://www.w3.org/2000/svg">
<rect width="24" height="24" rx="2" fill="#485CC2"/>
<g clip-path="url(#clip0_440_1216)">
<rect width="13" height="11" fill="#485CC2"/>
<path fill-rule="evenodd" clip-rule="evenodd" d="M13.6094 0.916707L0.609375 11.9167L-0.609375 10.0834L12.3906 -0.916626L13.6094 0.916707Z" fill="#F9F9F9"/>
<path fill-rule="evenodd" clip-rule="evenodd" d="M-0.609375 0.916707L12.3906 11.9167L13.6094 10.0834L0.609375 -0.916626L-0.609375 0.916707Z" fill="#F9F9F9"/>
<path fill-rule="evenodd" clip-rule="evenodd" d="M12.8172 11.7334L-0.182813 0.733374L0.182813 0.183374L13.1828 11.1834L12.8172 11.7334Z" fill="#D74B4B"/>
<path fill-rule="evenodd" clip-rule="evenodd" d="M-0.225756 11.7353L13.5867 0.276983L13.2258 -0.276902L-0.586744 11.1814L-0.225756 11.7353Z" fill="#D74B4B"/>
<path d="M7.71875 1.20206e-07L7.71875 11H5.28125L5.28125 0L7.71875 1.20206e-07Z" fill="#F9F9F9"/>
<path d="M0 4.125H13V6.875H0V4.125Z" fill="#F9F9F9"/>
<path d="M0 4.58333H13V6.41667H0V4.58333Z" fill="#D74B4B"/>
<path d="M7.3125 8.01377e-08L7.3125 11H5.6875L5.6875 0L7.3125 8.01377e-08Z" fill="#D74B4B"/>
</g>
<path fill-rule="evenodd" clip-rule="evenodd" d="M20.8964 18.0867C20.0933 18.5581 19.0828 19 18.0916 19C17.1218 19 16.0759 18.6016 15.22 18.17C14.3442 17.7284 13.5686 17.2009 13.1134 16.843L13.9536 16.0664C14.3536 16.3809 15.0599 16.8619 15.8509 17.2607C16.6617 17.6696 17.4673 17.9435 18.0916 17.9435C18.6945 17.9435 19.4442 17.6565 20.1936 17.2166C20.9235 16.7882 21.5596 16.2708 21.9136 15.933L22.8379 16.6367C22.4281 17.0279 21.7191 17.6039 20.8964 18.0867Z" fill="#F8D74C"/>
<path d="M13.1698 17.5935C12.8623 17.3313 13.0417 16.9615 13.1698 16.8094L14.0502 17.4871C13.8849 17.6317 13.4773 17.8556 13.1698 17.5935Z" fill="#F8D74C"/>
<path d="M22.8302 17.4206C23.1377 17.1585 22.9583 16.7887 22.8302 16.6365L21.9498 17.3142C22.1151 17.4589 22.5227 17.6828 22.8302 17.4206Z" fill="#F8D74C"/>
<path d="M17.4654 7.45421C17.4516 7.46066 17.4418 7.46524 17.4369 7.46614C17.7015 7.44495 17.7904 7.51734 17.8018 7.55619C17.6604 7.5689 17.5795 7.68508 17.5567 7.74158C17.6419 7.67746 17.7606 7.68972 17.8259 7.70813L17.8095 7.71061L17.7669 7.81237C17.7568 7.85007 17.7146 7.96163 17.627 8.10637C17.5174 8.28728 17.4687 8.5417 17.4687 8.69435C17.8217 8.83569 18.5496 9.08784 18.6372 8.96572C18.7249 8.84361 18.6737 8.48516 18.6372 8.32121L18.5277 8.03852C18.4985 8.00244 18.4485 7.94152 18.4046 7.89066L18.5317 7.90049L18.2409 7.68331H18.5944C18.4986 7.56466 18.3834 7.58091 18.3378 7.60386L18.5944 7.3496C18.4393 7.3496 18.2941 7.44495 18.2409 7.49262L18.5317 7.08475C18.3994 7.08475 18.2485 7.20482 18.1896 7.26485L18.2979 7C18.1095 7.05 18.0402 7.19884 18.0231 7.29936C18.0199 7.19057 17.9391 7.07916 17.8931 7.03178C17.7927 7.11653 17.8208 7.33548 17.8475 7.43436C17.696 7.34643 17.5328 7.4227 17.4654 7.45421Z" fill="#F8D74C"/>
<path d="M17.0982 8.90145C16.9871 8.64344 16.4502 8.35104 16.1956 8.23709C16.4955 8.23709 16.9223 8.44779 17.0982 8.55314C16.9093 8.33642 16.4178 8.04143 16.1956 7.92103C16.6733 7.94683 17.0334 8.21129 17.1537 8.34029C17.0038 8.06165 16.5265 7.71248 16.3067 7.57273C16.841 7.6691 17.1141 7.95299 17.2006 8.10919L16.8413 7.39212C17.1579 7.56757 17.4361 7.91243 17.5356 8.06294L17.001 7.12767C17.3898 7.25667 17.6675 7.68883 17.7578 7.88878C17.8782 7.95973 18.1188 8.10938 18.1188 8.14034C18.1188 8.1713 17.8226 8.57894 17.6745 8.7789C17.5287 8.92725 17.2093 9.15945 17.0982 8.90145Z" fill="#F8D74C"/>
<path d="M19.0819 8.90145C19.193 8.64344 19.7299 8.35104 19.9845 8.23709C19.6846 8.23709 19.2578 8.44779 19.0819 8.55314C19.2708 8.33642 19.7623 8.04143 19.9845 7.92103C19.5068 7.94683 19.1467 8.21129 19.0264 8.34029C19.1763 8.06165 19.6536 7.71248 19.8734 7.57273C19.3391 7.6691 19.066 7.95299 18.9795 8.10919L19.3388 7.39212C19.0222 7.56757 18.744 7.91243 18.6445 8.06294L19.1791 7.12767C18.7903 7.25667 18.5126 7.68883 18.4223 7.88878C18.302 7.95973 18.0613 8.10938 18.0613 8.14034C18.0613 8.1713 18.3575 8.57894 18.5056 8.7789C18.6514 8.92725 18.9708 9.15945 19.0819 8.90145Z" fill="#F8D74C"/>
<path fill-rule="evenodd" clip-rule="evenodd" d="M15.5873 9.0618C15.6135 9.14343 15.6768 9.24146 15.8028 9.24446C15.9187 9.24722 15.9992 9.25833 16.0453 9.268C16.0719 9.27357 16.0964 9.28485 16.1185 9.29965C16.1915 9.34862 16.2934 9.43632 16.2934 9.51597C16.2934 9.53985 16.2858 9.56189 16.2736 9.58183C16.258 9.60739 16.24 9.63247 16.222 9.65759C16.1717 9.72764 16.1212 9.79799 16.1212 9.87999C16.1212 9.9365 16.1392 9.99253 16.1817 10.033C16.2656 10.1129 16.405 10.2082 16.5648 10.2142C16.7361 10.2205 16.9355 10.2077 17.0564 10.1967C17.1008 10.1926 17.144 10.1814 17.1849 10.1647L17.3593 10.0936C17.4304 10.0645 17.508 10.053 17.5855 10.0585C17.9413 10.0839 18.5455 10.1081 18.8247 10.0493C19.1697 9.97666 19.8999 9.76841 20.0682 9.54739C20.1015 9.50368 20.0566 9.45779 19.999 9.45779H19.9627C19.9251 9.45779 19.8946 9.42946 19.8946 9.3945C19.8946 9.37345 19.8833 9.35377 19.8645 9.34201L19.6691 9.21972C19.649 9.20714 19.6278 9.19606 19.6058 9.18659L18.7377 8.81267C18.7058 8.79893 18.6723 8.78865 18.6379 8.78202L18.0343 8.66588C17.9751 8.65449 17.9141 8.65409 17.8547 8.6647L17.7194 8.6889C17.6908 8.69401 17.6618 8.69658 17.6328 8.69658H17.4048C17.3419 8.69658 17.2818 8.72105 17.2391 8.76406C17.2047 8.79885 17.1585 8.82176 17.1082 8.82904L16.8191 8.87089C16.7957 8.87427 16.7721 8.87597 16.7485 8.87597H16.6538C16.6193 8.87597 16.5852 8.88344 16.5544 8.89779L16.5269 8.91056C16.5141 8.91651 16.4999 8.91961 16.4856 8.91961C16.4482 8.91961 16.4151 8.89837 16.3958 8.86863C16.3465 8.79237 16.2519 8.69658 16.1212 8.69658H15.772C15.7613 8.69658 15.7506 8.698 15.7406 8.70163C15.7232 8.70792 15.7023 8.7173 15.6867 8.72855C15.685 8.72975 15.6833 8.73099 15.6816 8.73226C15.6639 8.74516 15.6428 8.76058 15.6213 8.76058C15.5708 8.76058 15.5225 8.77977 15.4876 8.81369L15.4446 8.85544C15.4311 8.86862 15.4235 8.88615 15.4235 8.90438V8.9242C15.4235 8.96451 15.4587 8.99718 15.5021 8.99718C15.5424 8.99718 15.5757 9.02587 15.5873 9.0618ZM15.8545 8.91099C15.9064 8.91099 15.9485 8.89389 15.9485 8.87278C15.9485 8.85168 15.9064 8.83457 15.8545 8.83457C15.8026 8.83457 15.7605 8.85168 15.7605 8.87278C15.7605 8.89389 15.8026 8.91099 15.8545 8.91099Z" fill="#3FB47C"/>
<path d="M16.7867 8.87658V9.01371C16.9324 8.92595 17.1919 8.91315 17.3034 8.91772V8.70288C17.2591 8.69526 17.1312 8.68916 16.9737 8.72573C16.8162 8.7623 16.7834 8.84153 16.7867 8.87658Z" fill="#377649"/>
<path d="M17.538 9.01554L17.3749 8.91547L17.3565 8.84685C17.3513 8.81159 17.3663 8.72334 17.4673 8.65243C17.5682 8.58153 17.7514 8.62289 17.8304 8.65243L17.8089 8.86687L17.538 9.01554Z" fill="#377649"/>
<path d="M18.6676 8.91261V8.80111C18.7611 8.77137 18.8994 8.78872 18.9569 8.80111C19.2942 8.85371 19.5775 9.12609 19.677 9.2557L19.4585 9.45298C19.1901 9.11904 18.8194 8.95359 18.6676 8.91261Z" fill="#377649"/>
<path d="M17.9197 8.86972V8.65529C18.2718 8.56609 18.528 8.7058 18.6122 8.78681L18.486 9.03555L18.1967 9.12418L17.9197 8.86972Z" fill="#377649"/>
<path d="M17.3041 9.00124C17.0727 8.98066 16.863 9.05175 16.7871 9.08988V9.28715L17.5011 9.70744V9.1928C17.495 9.08988 17.5356 9.02183 17.3041 9.00124Z" fill="#377649"/>
<path d="M17.8458 8.94406L17.5873 9.09845V9.74461L18.0212 9.80751L18.0674 9.15278L17.8458 8.94406Z" fill="#377649"/>
<path d="M18.4952 9.13276L18.1874 9.20996L18.169 9.79893C18.3856 9.82638 18.7045 9.75319 18.8368 9.71316L18.4952 9.13276Z" fill="#377649"/>
<path d="M18.6491 8.95836L18.5629 9.10703L18.9292 9.67599L19.3662 9.50159C19.1495 9.19738 18.7978 9.01268 18.6491 8.95836Z" fill="#377649"/>
<path d="M19.2379 10.0779C19.1945 9.96605 19.0619 9.98393 19.001 10.0069V9.94496L19.6155 9.78677C19.9432 9.95734 19.9741 10.3072 19.9486 10.4608L19.3465 10.3439C19.3284 10.3018 19.2813 10.1898 19.2379 10.0779Z" fill="#3FB47C"/>
<ellipse cx="17.9546" cy="10.7312" rx="2.31226" ry="0.827126" fill="#E6E6E6"/>
<path d="M20.9657 10.7565H14.9435V14.3278C14.9435 15.5211 15.6163 16.6124 16.6824 17.1485L17.9546 17.7882L19.2269 17.1485C20.293 16.6124 20.9657 15.5211 20.9657 14.3278V10.7565Z" fill="#F9F9F9"/>
<mask id="mask0_440_1216" style="mask-type:alpha" maskUnits="userSpaceOnUse" x="14" y="10" width="7" height="8">
<path d="M20.9657 10.7565H14.9435V14.3278C14.9435 15.5211 15.6163 16.6124 16.6824 17.1485L17.9546 17.7882L19.2269 17.1485C20.293 16.6124 20.9657 15.5211 20.9657 14.3278V10.7565Z" fill="#F9F9F9"/>
</mask>
<g mask="url(#mask0_440_1216)">
<path fill-rule="evenodd" clip-rule="evenodd" d="M20.8478 12.551C20.7934 12.5216 20.7265 12.521 20.6715 12.5494L20.1444 12.8218C19.8953 12.9505 19.5886 12.9345 19.3566 12.7807L19.0424 12.5724C18.9864 12.5353 18.9124 12.5314 18.8523 12.5625L18.3327 12.831C18.0986 12.952 17.8123 12.9456 17.5847 12.8145L17.1319 12.5537C17.0782 12.5228 17.011 12.5205 16.9551 12.5478L16.3423 12.8469C16.1188 12.9559 15.8508 12.9514 15.6318 12.8348L15.1196 12.5621C15.0605 12.5307 14.9874 12.5332 14.931 12.5686L14.3394 12.9407L14.0254 12.5098L14.6171 12.1377C14.8505 11.9909 15.1535 11.9804 15.3981 12.1106L15.9103 12.3833C15.9631 12.4114 16.0278 12.4125 16.0818 12.3862L16.6946 12.0872C16.9261 11.9742 17.2047 11.9834 17.427 12.1114L17.8798 12.3723C17.9348 12.4039 18.0039 12.4054 18.0604 12.3762L18.58 12.1077C18.8291 11.979 19.1358 11.995 19.3678 12.1488L19.682 12.3571C19.738 12.3942 19.812 12.3981 19.8721 12.367L20.3992 12.0947C20.6269 11.977 20.9044 11.9795 21.1295 12.1012L21.8678 12.5004L21.5861 12.9501L20.8478 12.551Z" fill="#D74B4B"/>
<rect x="14.9435" y="10.5415" width="6.26652" height="1.94204" fill="#D74B4B"/>
<path fill-rule="evenodd" clip-rule="evenodd" d="M17.7883 11.1082L17.6526 11.2408L17.8326 11.1721L17.7112 11.2909L17.8831 11.3576L17.7111 11.3617L17.8831 11.4284L17.7253 11.4321L17.8831 11.4933L17.7088 11.4975L17.8831 11.565L17.6946 11.5695V11.7171H18.1381C18.1903 11.7171 18.2381 11.7438 18.2626 11.7866L18.4712 12.1514H18.6817V12.4133H18.3865C18.3344 12.4133 18.2865 12.3866 18.262 12.3438L18.1915 12.2205L18.1126 12.2744L17.9455 12.0636L18.0578 11.9867L18.0534 11.9789H17.7618V12.0408C17.7618 12.0763 17.7463 12.1103 17.7187 12.135L17.5551 12.2816L17.3594 12.0931L17.4799 11.9851V11.9596C17.4396 11.9366 17.4127 11.8952 17.4127 11.848V11.8242H17.3923L17.2165 11.9743L17.0258 11.7814L17.242 11.5968C17.268 11.5746 17.3021 11.5623 17.3374 11.5623H17.4127V11.4876H17.2201L17.1154 11.565L16.9398 11.36L17.083 11.2542C17.108 11.2357 17.1389 11.2257 17.1708 11.2257H17.3351L17.6429 11.1082L17.5498 11.1992L17.7883 11.1082Z" fill="#F8D74C"/>
<path fill-rule="evenodd" clip-rule="evenodd" d="M18.9282 11.393C18.9577 11.4376 18.9694 11.4886 18.9694 11.5418C18.9694 11.6427 18.9349 11.7252 18.8784 11.7888C18.8236 11.8503 18.7539 11.888 18.6917 11.9113C18.6293 11.9347 18.5686 11.9459 18.5249 11.9513C18.5026 11.9541 18.4839 11.9555 18.4703 11.9562C18.4635 11.9566 18.458 11.9568 18.4539 11.9569C18.4518 11.957 18.4501 11.957 18.4488 11.957L18.4471 11.957L18.4465 11.957L18.4461 11.957C18.4461 11.957 18.446 11.957 18.446 11.8388V11.957H18.0058V11.7205H18.4455L18.447 11.7205C18.4487 11.7204 18.4516 11.7203 18.4557 11.7201C18.4638 11.7197 18.476 11.7188 18.4909 11.7169C18.5214 11.7131 18.5598 11.7057 18.5964 11.692C18.6333 11.6781 18.6625 11.6601 18.6821 11.6381C18.6998 11.6182 18.7148 11.5893 18.7148 11.5418C18.7148 11.5267 18.7125 11.5196 18.7115 11.5174C18.7108 11.5169 18.7093 11.5161 18.7069 11.515C18.6834 11.5048 18.646 11.5014 18.5705 11.4952C18.5696 11.4951 18.5687 11.495 18.5678 11.495C18.508 11.49 18.4146 11.4824 18.338 11.4404C18.2952 11.417 18.2569 11.3829 18.2305 11.3353C18.2047 11.2888 18.194 11.2361 18.194 11.1798H18.4486C18.4486 11.2087 18.4541 11.2221 18.4568 11.227C18.4589 11.2307 18.4613 11.2334 18.4673 11.2367C18.4872 11.2476 18.5224 11.2538 18.5929 11.2596C18.598 11.26 18.6033 11.2604 18.609 11.2608C18.6645 11.2651 18.7473 11.2715 18.8146 11.3007C18.8566 11.319 18.8983 11.3478 18.9282 11.393ZM18.7123 11.518C18.7123 11.518 18.7122 11.5179 18.712 11.5177C18.7122 11.5179 18.7123 11.518 18.7123 11.518Z" fill="#F8D74C"/>
<path fill-rule="evenodd" clip-rule="evenodd" d="M20.8478 14.2231C20.7934 14.1937 20.7265 14.1931 20.6715 14.2215L20.1444 14.4939C19.8953 14.6226 19.5886 14.6066 19.3566 14.4528L19.0424 14.2445C18.9864 14.2074 18.9124 14.2035 18.8523 14.2346L18.3327 14.5031C18.0986 14.6241 17.8123 14.6178 17.5847 14.4866L17.1319 14.2258C17.0782 14.1949 17.011 14.1927 16.9551 14.2199L16.3423 14.519C16.1188 14.6281 15.8508 14.6235 15.6318 14.5069L15.1196 14.2342C15.0605 14.2028 14.9874 14.2053 14.931 14.2407L14.3394 14.6128L14.0254 14.1819L14.6171 13.8098C14.8505 13.663 15.1535 13.6525 15.3981 13.7827L15.9103 14.0554C15.9631 14.0836 16.0278 14.0847 16.0818 14.0583L16.6946 13.7593C16.9261 13.6463 17.2047 13.6555 17.427 13.7836L17.8798 14.0444C17.9348 14.076 18.0039 14.0776 18.0604 14.0484L18.58 13.7799C18.8291 13.6511 19.1358 13.6671 19.3678 13.821L19.682 14.0292C19.738 14.0664 19.812 14.0702 19.8721 14.0392L20.3992 13.7668C20.6269 13.6492 20.9044 13.6517 21.1295 13.7734L21.8678 14.1725L21.5861 14.6222L20.8478 14.2231Z" fill="#485CC2"/>
<path fill-rule="evenodd" clip-rule="evenodd" d="M20.8478 15.8343C20.7934 15.8049 20.7265 15.8043 20.6715 15.8327L20.1444 16.1051C19.8953 16.2338 19.5886 16.2178 19.3566 16.064L19.0424 15.8557C18.9864 15.8186 18.9124 15.8147 18.8523 15.8458L18.3327 16.1143C18.0986 16.2352 17.8123 16.2289 17.5847 16.0978L17.1319 15.837C17.0782 15.8061 17.011 15.8038 16.9551 15.8311L16.3423 16.1302C16.1188 16.2392 15.8508 16.2347 15.6318 16.1181L15.1196 15.8454C15.0605 15.8139 14.9874 15.8165 14.931 15.8519L14.3394 16.224L14.0254 15.7931L14.6171 15.421C14.8505 15.2742 15.1535 15.2637 15.3981 15.3939L15.9103 15.6666C15.9631 15.6947 16.0278 15.6958 16.0818 15.6695L16.6946 15.3705C16.9261 15.2574 17.2047 15.2667 17.427 15.3947L17.8798 15.6555C17.9348 15.6872 18.0039 15.6887 18.0604 15.6595L18.58 15.391C18.8291 15.2623 19.1358 15.2783 19.3678 15.4321L19.682 15.6404C19.738 15.6775 19.812 15.6814 19.8721 15.6503L20.3992 15.378C20.6269 15.2603 20.9044 15.2628 21.1295 15.3845L21.8678 15.7837L21.5861 16.2334L20.8478 15.8343Z" fill="#485CC2"/>
<path fill-rule="evenodd" clip-rule="evenodd" d="M20.8478 17.4455C20.7934 17.4161 20.7265 17.4155 20.6715 17.4439L20.1444 17.7163C19.8953 17.845 19.5886 17.829 19.3566 17.6751L19.0424 17.4669C18.9864 17.4297 18.9124 17.4259 18.8523 17.457L18.3327 17.7255C18.0986 17.8464 17.8123 17.8401 17.5847 17.709L17.1319 17.4482C17.0782 17.4172 17.011 17.415 16.9551 17.4423L16.3423 17.7413C16.1188 17.8504 15.8508 17.8458 15.6318 17.7292L15.1196 17.4565C15.0605 17.4251 14.9874 17.4277 14.931 17.4631L14.3394 17.8352L14.0254 17.4042L14.6171 17.0322C14.8505 16.8854 15.1535 16.8749 15.3981 17.0051L15.9103 17.2778C15.9631 17.3059 16.0278 17.307 16.0818 17.2807L16.6946 16.9816C16.9261 16.8686 17.2047 16.8779 17.427 17.0059L17.8798 17.2667C17.9348 17.2984 18.0039 17.2999 18.0604 17.2707L18.58 17.0022C18.8291 16.8735 19.1358 16.8895 19.3678 17.0433L19.682 17.2516C19.738 17.2887 19.812 17.2926 19.8721 17.2615L20.3992 16.9891C20.6269 16.8715 20.9044 16.874 21.1295 16.9957L21.8678 17.3948L21.5861 17.8446L20.8478 17.4455Z" fill="#485CC2"/>
<path d="M16.4258 12.8518L16.697 13.6272H17.5745L16.8646 14.1063L17.1357 14.8817L16.4258 14.4025L15.7158 14.8817L15.987 14.1063L15.277 13.6272H16.1546L16.4258 12.8518Z" fill="#377649"/>
<path d="M19.4835 12.8518L19.7547 13.6272H20.6323L19.9223 14.1063L20.1935 14.8817L19.4835 14.4025L18.7735 14.8817L19.0447 14.1063L18.3348 13.6272H19.2123L19.4835 12.8518Z" fill="#377649"/>
<path d="M17.9655 14.524L18.2367 15.2994H19.1143L18.4043 15.7786L18.6755 16.5539L17.9655 16.0747L17.2555 16.5539L17.5267 15.7786L16.8167 15.2994H17.6943L17.9655 14.524Z" fill="#377649"/>
</g>
<defs>
<clipPath id="clip0_440_1216">
<rect width="13" height="11" fill="white"/>
</clipPath>
</defs>
</svg>
