<svg width="32" height="24" viewBox="0 0 32 24" fill="none" xmlns="http://www.w3.org/2000/svg">
<rect width="32" height="24" rx="2" fill="#485CC2"/>
<g clip-path="url(#clip0_440_1191)">
<rect width="16" height="12" fill="#485CC2"/>
<path fill-rule="evenodd" clip-rule="evenodd" d="M16.75 1L0.75 13L-0.75 11L15.25 -1L16.75 1Z" fill="#F9F9F9"/>
<path fill-rule="evenodd" clip-rule="evenodd" d="M-0.75 1L15.25 13L16.75 11L0.75 -1L-0.75 1Z" fill="#F9F9F9"/>
<path fill-rule="evenodd" clip-rule="evenodd" d="M15.775 12.8L-0.225 0.8L0.225 0.2L16.225 12.2L15.775 12.8Z" fill="#D74B4B"/>
<path fill-rule="evenodd" clip-rule="evenodd" d="M-0.277853 12.8021L16.7221 0.302119L16.2779 -0.302119L-0.722147 12.1979L-0.277853 12.8021Z" fill="#D74B4B"/>
<path d="M9.5 1.31134e-07L9.5 12H6.5L6.5 0L9.5 1.31134e-07Z" fill="#F9F9F9"/>
<path d="M0 4.5H16V7.5H0V4.5Z" fill="#F9F9F9"/>
<path d="M0 5H16V7H0V5Z" fill="#D74B4B"/>
<path d="M9 8.74229e-08L9 12H7L7 0L9 8.74229e-08Z" fill="#D74B4B"/>
</g>
<path fill-rule="evenodd" clip-rule="evenodd" d="M26.8964 18.0867C26.0933 18.5581 25.0828 19 24.0916 19C23.1218 19 22.0759 18.6016 21.22 18.17C20.3442 17.7284 19.5686 17.2009 19.1134 16.843L19.9536 16.0664C20.3536 16.3809 21.0599 16.8619 21.8509 17.2607C22.6617 17.6696 23.4673 17.9435 24.0916 17.9435C24.6945 17.9435 25.4442 17.6565 26.1936 17.2166C26.9235 16.7882 27.5596 16.2708 27.9136 15.933L28.8379 16.6367C28.4281 17.0279 27.7191 17.6039 26.8964 18.0867Z" fill="#F8D74C"/>
<path d="M19.1698 17.5935C18.8623 17.3313 19.0417 16.9615 19.1698 16.8094L20.0502 17.4871C19.8849 17.6317 19.4773 17.8556 19.1698 17.5935Z" fill="#F8D74C"/>
<path d="M28.8302 17.4206C29.1377 17.1585 28.9583 16.7887 28.8302 16.6365L27.9498 17.3142C28.1151 17.4589 28.5227 17.6828 28.8302 17.4206Z" fill="#F8D74C"/>
<path d="M23.4654 7.45421C23.4516 7.46066 23.4418 7.46524 23.4369 7.46614C23.7015 7.44495 23.7904 7.51734 23.8018 7.55619C23.6604 7.5689 23.5795 7.68508 23.5567 7.74158C23.6419 7.67746 23.7606 7.68972 23.8259 7.70813L23.8095 7.71061L23.7669 7.81237C23.7568 7.85007 23.7146 7.96163 23.627 8.10637C23.5174 8.28728 23.4687 8.5417 23.4687 8.69435C23.8217 8.83569 24.5496 9.08784 24.6372 8.96572C24.7249 8.84361 24.6737 8.48516 24.6372 8.32121L24.5277 8.03852C24.4985 8.00244 24.4485 7.94152 24.4046 7.89066L24.5317 7.90049L24.2409 7.68331H24.5944C24.4986 7.56466 24.3834 7.58091 24.3378 7.60386L24.5944 7.3496C24.4393 7.3496 24.2941 7.44495 24.2409 7.49262L24.5317 7.08475C24.3994 7.08475 24.2485 7.20482 24.1896 7.26485L24.2979 7C24.1095 7.05 24.0402 7.19884 24.0231 7.29936C24.0199 7.19057 23.9391 7.07916 23.8931 7.03178C23.7927 7.11653 23.8208 7.33548 23.8475 7.43436C23.696 7.34643 23.5328 7.4227 23.4654 7.45421Z" fill="#F8D74C"/>
<path d="M23.0982 8.90145C22.9871 8.64344 22.4502 8.35104 22.1956 8.23709C22.4955 8.23709 22.9223 8.44779 23.0982 8.55314C22.9093 8.33642 22.4178 8.04143 22.1956 7.92103C22.6733 7.94683 23.0334 8.21129 23.1537 8.34029C23.0038 8.06165 22.5265 7.71248 22.3067 7.57273C22.841 7.6691 23.1141 7.95299 23.2006 8.10919L22.8413 7.39212C23.1579 7.56757 23.4361 7.91243 23.5356 8.06294L23.001 7.12767C23.3898 7.25667 23.6675 7.68883 23.7578 7.88878C23.8782 7.95973 24.1188 8.10938 24.1188 8.14034C24.1188 8.1713 23.8226 8.57894 23.6745 8.7789C23.5287 8.92725 23.2093 9.15945 23.0982 8.90145Z" fill="#F8D74C"/>
<path d="M25.0819 8.90145C25.193 8.64344 25.7299 8.35104 25.9845 8.23709C25.6846 8.23709 25.2578 8.44779 25.0819 8.55314C25.2708 8.33642 25.7623 8.04143 25.9845 7.92103C25.5068 7.94683 25.1467 8.21129 25.0264 8.34029C25.1763 8.06165 25.6536 7.71248 25.8734 7.57273C25.3391 7.6691 25.066 7.95299 24.9795 8.10919L25.3388 7.39212C25.0222 7.56757 24.744 7.91243 24.6445 8.06294L25.1791 7.12767C24.7903 7.25667 24.5126 7.68883 24.4223 7.88878C24.302 7.95973 24.0613 8.10938 24.0613 8.14034C24.0613 8.1713 24.3575 8.57894 24.5056 8.7789C24.6514 8.92725 24.9708 9.15945 25.0819 8.90145Z" fill="#F8D74C"/>
<path fill-rule="evenodd" clip-rule="evenodd" d="M21.5873 9.0618C21.6135 9.14343 21.6768 9.24146 21.8028 9.24446C21.9187 9.24722 21.9992 9.25833 22.0453 9.268C22.0719 9.27357 22.0964 9.28485 22.1185 9.29965C22.1915 9.34862 22.2934 9.43632 22.2934 9.51597C22.2934 9.53985 22.2858 9.56189 22.2736 9.58183C22.258 9.60739 22.24 9.63247 22.222 9.65759C22.1717 9.72764 22.1212 9.79799 22.1212 9.87999C22.1212 9.9365 22.1392 9.99253 22.1817 10.033C22.2656 10.1129 22.405 10.2082 22.5648 10.2142C22.7361 10.2205 22.9355 10.2077 23.0564 10.1967C23.1008 10.1926 23.144 10.1814 23.1849 10.1647L23.3593 10.0936C23.4304 10.0645 23.508 10.053 23.5855 10.0585C23.9413 10.0839 24.5455 10.1081 24.8247 10.0493C25.1697 9.97666 25.8999 9.76841 26.0682 9.54739C26.1015 9.50368 26.0566 9.45779 25.999 9.45779H25.9627C25.9251 9.45779 25.8946 9.42946 25.8946 9.3945C25.8946 9.37345 25.8833 9.35377 25.8645 9.34201L25.6691 9.21972C25.649 9.20714 25.6278 9.19606 25.6058 9.18659L24.7377 8.81267C24.7058 8.79893 24.6723 8.78865 24.6379 8.78202L24.0343 8.66588C23.9751 8.65449 23.9141 8.65409 23.8547 8.6647L23.7194 8.6889C23.6908 8.69401 23.6618 8.69658 23.6328 8.69658H23.4048C23.3419 8.69658 23.2818 8.72105 23.2391 8.76406C23.2047 8.79885 23.1585 8.82176 23.1082 8.82904L22.8191 8.87089C22.7957 8.87427 22.7721 8.87597 22.7485 8.87597H22.6538C22.6193 8.87597 22.5852 8.88344 22.5544 8.89779L22.5269 8.91056C22.5141 8.91651 22.4999 8.91961 22.4856 8.91961C22.4482 8.91961 22.4151 8.89837 22.3958 8.86863C22.3465 8.79237 22.2519 8.69658 22.1212 8.69658H21.772C21.7613 8.69658 21.7506 8.698 21.7406 8.70163C21.7232 8.70792 21.7023 8.7173 21.6867 8.72855C21.685 8.72975 21.6833 8.73099 21.6816 8.73226C21.6639 8.74516 21.6428 8.76058 21.6213 8.76058C21.5708 8.76058 21.5225 8.77977 21.4876 8.81369L21.4446 8.85544C21.4311 8.86862 21.4235 8.88615 21.4235 8.90438V8.9242C21.4235 8.96451 21.4587 8.99718 21.5021 8.99718C21.5424 8.99718 21.5757 9.02587 21.5873 9.0618ZM21.8545 8.91099C21.9064 8.91099 21.9485 8.89389 21.9485 8.87278C21.9485 8.85168 21.9064 8.83457 21.8545 8.83457C21.8026 8.83457 21.7605 8.85168 21.7605 8.87278C21.7605 8.89389 21.8026 8.91099 21.8545 8.91099Z" fill="#3FB47C"/>
<path d="M22.7867 8.87658V9.01371C22.9324 8.92595 23.1919 8.91315 23.3034 8.91772V8.70288C23.2591 8.69526 23.1312 8.68916 22.9737 8.72573C22.8162 8.7623 22.7834 8.84153 22.7867 8.87658Z" fill="#377649"/>
<path d="M23.538 9.01554L23.3749 8.91547L23.3565 8.84685C23.3513 8.81159 23.3663 8.72334 23.4673 8.65243C23.5682 8.58153 23.7514 8.62289 23.8304 8.65243L23.8089 8.86687L23.538 9.01554Z" fill="#377649"/>
<path d="M24.6676 8.91261V8.80111C24.7611 8.77137 24.8994 8.78872 24.9569 8.80111C25.2942 8.85371 25.5775 9.12609 25.677 9.2557L25.4585 9.45298C25.1901 9.11904 24.8194 8.95359 24.6676 8.91261Z" fill="#377649"/>
<path d="M23.9197 8.86972V8.65529C24.2718 8.56609 24.528 8.7058 24.6122 8.78681L24.486 9.03555L24.1967 9.12418L23.9197 8.86972Z" fill="#377649"/>
<path d="M23.3041 9.00124C23.0727 8.98066 22.863 9.05175 22.7871 9.08988V9.28715L23.5011 9.70744V9.1928C23.495 9.08988 23.5356 9.02183 23.3041 9.00124Z" fill="#377649"/>
<path d="M23.8458 8.94406L23.5873 9.09845V9.74461L24.0212 9.80751L24.0674 9.15278L23.8458 8.94406Z" fill="#377649"/>
<path d="M24.4952 9.13276L24.1874 9.20996L24.169 9.79893C24.3856 9.82638 24.7045 9.75319 24.8368 9.71316L24.4952 9.13276Z" fill="#377649"/>
<path d="M24.6491 8.95836L24.5629 9.10703L24.9292 9.67599L25.3662 9.50159C25.1495 9.19738 24.7978 9.01268 24.6491 8.95836Z" fill="#377649"/>
<path d="M25.2379 10.0779C25.1945 9.96605 25.0619 9.98393 25.001 10.0069V9.94496L25.6155 9.78677C25.9432 9.95734 25.9741 10.3072 25.9486 10.4608L25.3465 10.3439C25.3284 10.3018 25.2813 10.1898 25.2379 10.0779Z" fill="#3FB47C"/>
<ellipse cx="23.9546" cy="10.7312" rx="2.31226" ry="0.827126" fill="#E6E6E6"/>
<path d="M26.9657 10.7565H20.9435V14.3278C20.9435 15.5211 21.6163 16.6124 22.6824 17.1485L23.9546 17.7882L25.2269 17.1485C26.293 16.6124 26.9657 15.5211 26.9657 14.3278V10.7565Z" fill="#F9F9F9"/>
<mask id="mask0_440_1191" style="mask-type:alpha" maskUnits="userSpaceOnUse" x="20" y="10" width="7" height="8">
<path d="M26.9657 10.7565H20.9435V14.3278C20.9435 15.5211 21.6163 16.6124 22.6824 17.1485L23.9546 17.7882L25.2269 17.1485C26.293 16.6124 26.9657 15.5211 26.9657 14.3278V10.7565Z" fill="#F9F9F9"/>
</mask>
<g mask="url(#mask0_440_1191)">
<path fill-rule="evenodd" clip-rule="evenodd" d="M26.8478 12.551C26.7934 12.5216 26.7265 12.521 26.6715 12.5494L26.1444 12.8218C25.8953 12.9505 25.5886 12.9345 25.3566 12.7807L25.0424 12.5724C24.9864 12.5353 24.9124 12.5314 24.8523 12.5625L24.3327 12.831C24.0986 12.952 23.8123 12.9456 23.5847 12.8145L23.1319 12.5537C23.0782 12.5228 23.011 12.5205 22.9551 12.5478L22.3423 12.8469C22.1188 12.9559 21.8508 12.9514 21.6318 12.8348L21.1196 12.5621C21.0605 12.5307 20.9874 12.5332 20.931 12.5686L20.3394 12.9407L20.0254 12.5098L20.6171 12.1377C20.8505 11.9909 21.1535 11.9804 21.3981 12.1106L21.9103 12.3833C21.9631 12.4114 22.0278 12.4125 22.0818 12.3862L22.6946 12.0872C22.9261 11.9742 23.2047 11.9834 23.427 12.1114L23.8798 12.3723C23.9348 12.4039 24.0039 12.4054 24.0604 12.3762L24.58 12.1077C24.8291 11.979 25.1358 11.995 25.3678 12.1488L25.682 12.3571C25.738 12.3942 25.812 12.3981 25.8721 12.367L26.3992 12.0947C26.6269 11.977 26.9044 11.9795 27.1295 12.1012L27.8678 12.5004L27.5861 12.9501L26.8478 12.551Z" fill="#D74B4B"/>
<rect x="20.9435" y="10.5415" width="6.26652" height="1.94204" fill="#D74B4B"/>
<path fill-rule="evenodd" clip-rule="evenodd" d="M23.7883 11.1082L23.6526 11.2408L23.8326 11.1721L23.7112 11.2909L23.8831 11.3576L23.7111 11.3617L23.8831 11.4284L23.7253 11.4321L23.8831 11.4933L23.7088 11.4975L23.8831 11.565L23.6946 11.5695V11.7171H24.1381C24.1903 11.7171 24.2381 11.7438 24.2626 11.7866L24.4712 12.1514H24.6817V12.4133H24.3865C24.3344 12.4133 24.2865 12.3866 24.262 12.3438L24.1915 12.2205L24.1126 12.2744L23.9455 12.0636L24.0578 11.9867L24.0534 11.9789H23.7618V12.0408C23.7618 12.0763 23.7463 12.1103 23.7187 12.135L23.5551 12.2816L23.3594 12.0931L23.4799 11.9851V11.9596C23.4396 11.9366 23.4127 11.8952 23.4127 11.848V11.8242H23.3923L23.2165 11.9743L23.0258 11.7814L23.242 11.5968C23.268 11.5746 23.3021 11.5623 23.3374 11.5623H23.4127V11.4876H23.2201L23.1154 11.565L22.9398 11.36L23.083 11.2542C23.108 11.2357 23.1389 11.2257 23.1708 11.2257H23.3351L23.6429 11.1082L23.5498 11.1992L23.7883 11.1082Z" fill="#F8D74C"/>
<path fill-rule="evenodd" clip-rule="evenodd" d="M24.9282 11.393C24.9577 11.4376 24.9694 11.4886 24.9694 11.5418C24.9694 11.6427 24.9349 11.7252 24.8784 11.7888C24.8236 11.8503 24.7539 11.888 24.6917 11.9113C24.6293 11.9347 24.5686 11.9459 24.5249 11.9513C24.5026 11.9541 24.4839 11.9555 24.4703 11.9562C24.4635 11.9566 24.458 11.9568 24.4539 11.9569C24.4518 11.957 24.4501 11.957 24.4488 11.957L24.4471 11.957L24.4465 11.957L24.4461 11.957C24.4461 11.957 24.446 11.957 24.446 11.8388V11.957H24.0058V11.7205H24.4455L24.447 11.7205C24.4487 11.7204 24.4516 11.7203 24.4557 11.7201C24.4638 11.7197 24.476 11.7188 24.4909 11.7169C24.5214 11.7131 24.5598 11.7057 24.5964 11.692C24.6333 11.6781 24.6625 11.6601 24.6821 11.6381C24.6998 11.6182 24.7148 11.5893 24.7148 11.5418C24.7148 11.5267 24.7125 11.5196 24.7115 11.5174C24.7108 11.5169 24.7093 11.5161 24.7069 11.515C24.6834 11.5048 24.646 11.5014 24.5705 11.4952C24.5696 11.4951 24.5687 11.495 24.5678 11.495C24.508 11.49 24.4146 11.4824 24.338 11.4404C24.2952 11.417 24.2569 11.3829 24.2305 11.3353C24.2047 11.2888 24.194 11.2361 24.194 11.1798H24.4486C24.4486 11.2087 24.4541 11.2221 24.4568 11.227C24.4589 11.2307 24.4613 11.2334 24.4673 11.2367C24.4872 11.2476 24.5224 11.2538 24.5929 11.2596C24.598 11.26 24.6033 11.2604 24.609 11.2608C24.6645 11.2651 24.7473 11.2715 24.8146 11.3007C24.8566 11.319 24.8983 11.3478 24.9282 11.393ZM24.7123 11.518C24.7123 11.518 24.7122 11.5179 24.712 11.5177C24.7122 11.5179 24.7123 11.518 24.7123 11.518Z" fill="#F8D74C"/>
<path fill-rule="evenodd" clip-rule="evenodd" d="M26.8478 14.2231C26.7934 14.1937 26.7265 14.1931 26.6715 14.2215L26.1444 14.4939C25.8953 14.6226 25.5886 14.6066 25.3566 14.4528L25.0424 14.2445C24.9864 14.2074 24.9124 14.2035 24.8523 14.2346L24.3327 14.5031C24.0986 14.6241 23.8123 14.6178 23.5847 14.4866L23.1319 14.2258C23.0782 14.1949 23.011 14.1927 22.9551 14.2199L22.3423 14.519C22.1188 14.6281 21.8508 14.6235 21.6318 14.5069L21.1196 14.2342C21.0605 14.2028 20.9874 14.2053 20.931 14.2407L20.3394 14.6128L20.0254 14.1819L20.6171 13.8098C20.8505 13.663 21.1535 13.6525 21.3981 13.7827L21.9103 14.0554C21.9631 14.0836 22.0278 14.0847 22.0818 14.0583L22.6946 13.7593C22.9261 13.6463 23.2047 13.6555 23.427 13.7836L23.8798 14.0444C23.9348 14.076 24.0039 14.0776 24.0604 14.0484L24.58 13.7799C24.8291 13.6511 25.1358 13.6671 25.3678 13.821L25.682 14.0292C25.738 14.0664 25.812 14.0702 25.8721 14.0392L26.3992 13.7668C26.6269 13.6492 26.9044 13.6517 27.1295 13.7734L27.8678 14.1725L27.5861 14.6222L26.8478 14.2231Z" fill="#485CC2"/>
<path fill-rule="evenodd" clip-rule="evenodd" d="M26.8478 15.8343C26.7934 15.8049 26.7265 15.8043 26.6715 15.8327L26.1444 16.1051C25.8953 16.2338 25.5886 16.2178 25.3566 16.064L25.0424 15.8557C24.9864 15.8186 24.9124 15.8147 24.8523 15.8458L24.3327 16.1143C24.0986 16.2352 23.8123 16.2289 23.5847 16.0978L23.1319 15.837C23.0782 15.8061 23.011 15.8038 22.9551 15.8311L22.3423 16.1302C22.1188 16.2392 21.8508 16.2347 21.6318 16.1181L21.1196 15.8454C21.0605 15.8139 20.9874 15.8165 20.931 15.8519L20.3394 16.224L20.0254 15.7931L20.6171 15.421C20.8505 15.2742 21.1535 15.2637 21.3981 15.3939L21.9103 15.6666C21.9631 15.6947 22.0278 15.6958 22.0818 15.6695L22.6946 15.3705C22.9261 15.2574 23.2047 15.2667 23.427 15.3947L23.8798 15.6555C23.9348 15.6872 24.0039 15.6887 24.0604 15.6595L24.58 15.391C24.8291 15.2623 25.1358 15.2783 25.3678 15.4321L25.682 15.6404C25.738 15.6775 25.812 15.6814 25.8721 15.6503L26.3992 15.378C26.6269 15.2603 26.9044 15.2628 27.1295 15.3845L27.8678 15.7837L27.5861 16.2334L26.8478 15.8343Z" fill="#485CC2"/>
<path fill-rule="evenodd" clip-rule="evenodd" d="M26.8478 17.4455C26.7934 17.4161 26.7265 17.4155 26.6715 17.4439L26.1444 17.7163C25.8953 17.845 25.5886 17.829 25.3566 17.6751L25.0424 17.4669C24.9864 17.4297 24.9124 17.4259 24.8523 17.457L24.3327 17.7255C24.0986 17.8464 23.8123 17.8401 23.5847 17.709L23.1319 17.4482C23.0782 17.4172 23.011 17.415 22.9551 17.4423L22.3423 17.7413C22.1188 17.8504 21.8508 17.8458 21.6318 17.7292L21.1196 17.4565C21.0605 17.4251 20.9874 17.4277 20.931 17.4631L20.3394 17.8352L20.0254 17.4042L20.6171 17.0322C20.8505 16.8854 21.1535 16.8749 21.3981 17.0051L21.9103 17.2778C21.9631 17.3059 22.0278 17.307 22.0818 17.2807L22.6946 16.9816C22.9261 16.8686 23.2047 16.8779 23.427 17.0059L23.8798 17.2667C23.9348 17.2984 24.0039 17.2999 24.0604 17.2707L24.58 17.0022C24.8291 16.8735 25.1358 16.8895 25.3678 17.0433L25.682 17.2516C25.738 17.2887 25.812 17.2926 25.8721 17.2615L26.3992 16.9891C26.6269 16.8715 26.9044 16.874 27.1295 16.9957L27.8678 17.3948L27.5861 17.8446L26.8478 17.4455Z" fill="#485CC2"/>
<path d="M22.4258 12.8518L22.6969 13.6272H23.5745L22.8645 14.1063L23.1357 14.8817L22.4258 14.4025L21.7158 14.8817L21.987 14.1063L21.277 13.6272H22.1546L22.4258 12.8518Z" fill="#377649"/>
<path d="M25.4835 12.8518L25.7547 13.6272H26.6323L25.9223 14.1063L26.1935 14.8817L25.4835 14.4025L24.7735 14.8817L25.0447 14.1063L24.3348 13.6272H25.2123L25.4835 12.8518Z" fill="#377649"/>
<path d="M23.9655 14.524L24.2367 15.2994H25.1142L24.4043 15.7786L24.6755 16.5539L23.9655 16.0747L23.2555 16.5539L23.5267 15.7786L22.8167 15.2994H23.6943L23.9655 14.524Z" fill="#377649"/>
</g>
<defs>
<clipPath id="clip0_440_1191">
<rect width="16" height="12" fill="white"/>
</clipPath>
</defs>
</svg>
