<svg width="24" height="24" viewBox="0 0 24 24" fill="none" xmlns="http://www.w3.org/2000/svg">
<g clip-path="url(#clip0_440_1203)">
<rect width="24" height="24" rx="2" fill="#F9F9F9"/>
<path d="M0 20H24V24H0V20Z" fill="#D74B4B"/>
<path d="M0 8H24V16H0V8Z" fill="#485CC2"/>
<ellipse cx="8.5" cy="12" rx="3.5" ry="4" fill="#F9F9F9"/>
<path d="M6.75362 10.0469L8.49999 9.24854V14.7514H7.95758C7.82339 14.7514 7.69781 14.6867 7.62179 14.5783L7.21687 14.0014C7.14552 13.8997 7.02766 13.839 6.90172 13.839C6.80643 13.839 6.71458 13.8041 6.64415 13.7413L5.74614 12.9398C5.55359 12.7679 5.44385 12.5246 5.44385 12.2694V12.2151C5.44385 12.0837 5.48086 11.9549 5.55081 11.8428C5.68324 11.6305 5.91891 11.501 6.17288 11.501H6.26259C6.42126 11.501 6.54988 11.3724 6.54988 11.2137C6.54988 11.1431 6.51741 11.0764 6.46182 11.0328L6.25882 10.8737V11.1018C6.08945 11.1018 5.95899 10.9524 5.98183 10.7846L6.05508 10.2465L6.75362 10.0469Z" fill="#E77D42"/>
<path d="M10.2464 10.0469L8.49999 9.24854V14.7514H9.0424C9.17658 14.7514 9.30216 14.6867 9.37818 14.5783L9.78311 14.0014C9.85445 13.8997 9.97232 13.839 10.0983 13.839C10.1935 13.839 10.2854 13.8041 10.3558 13.7413L11.2538 12.9398C11.4464 12.7679 11.5561 12.5246 11.5561 12.2694V12.2151C11.5561 12.0837 11.5191 11.9549 11.4492 11.8428C11.3167 11.6305 11.0811 11.501 10.8271 11.501H10.7374C10.5787 11.501 10.4501 11.3724 10.4501 11.2137C10.4501 11.1431 10.4826 11.0764 10.5382 11.0328L10.7412 10.8737V11.1018C10.9105 11.1018 11.041 10.9524 11.0181 10.7846L10.9449 10.2465L10.2464 10.0469Z" fill="#E77D42"/>
<path d="M8.3931 10.0606L8.49998 10.1338V14.0115L8.20892 13.7834L8.03516 13.7507C7.65524 13.6791 7.30594 13.4976 7.03236 13.2296L6.89763 13.0976C6.6936 12.8978 6.57898 12.6267 6.57898 12.344C6.57898 12.1479 6.63421 11.9556 6.7386 11.7883L6.74245 11.7821C6.84374 11.6198 6.88412 11.4279 6.85665 11.2395L6.77269 10.6638C6.76145 10.5868 6.8047 10.512 6.87794 10.4819L8.00164 10.0195C8.13066 9.96646 8.27846 9.98195 8.3931 10.0606Z" fill="#485CC2"/>
<path d="M8.60686 10.0606L8.49998 10.1338V14.0115L8.79104 13.7834L8.9648 13.7507C9.34473 13.6791 9.69403 13.4976 9.9676 13.2296L10.1023 13.0976C10.3064 12.8978 10.421 12.6267 10.421 12.344C10.421 12.1479 10.3657 11.9556 10.2614 11.7883L10.2575 11.7821C10.1562 11.6198 10.1158 11.4279 10.1433 11.2395L10.2273 10.6638C10.2385 10.5868 10.1953 10.512 10.122 10.4819L8.99833 10.0195C8.8693 9.96646 8.7215 9.98195 8.60686 10.0606Z" fill="#485CC2"/>
<mask id="mask0_440_1203" style="mask-type:alpha" maskUnits="userSpaceOnUse" x="6" y="9" width="5" height="6">
<path d="M8.3931 10.0606L8.49998 10.1338V14.0115L8.20892 13.7834L8.03516 13.7507C7.65524 13.6791 7.30594 13.4976 7.03236 13.2296L6.89763 13.0976C6.6936 12.8978 6.57898 12.6267 6.57898 12.344C6.57898 12.1479 6.63421 11.9556 6.7386 11.7883L6.74245 11.7821C6.84374 11.6198 6.88412 11.4279 6.85665 11.2395L6.77269 10.6638C6.76145 10.5868 6.8047 10.512 6.87794 10.4819L8.00164 10.0195C8.13066 9.96646 8.27846 9.98195 8.3931 10.0606Z" fill="#485CC2"/>
<path d="M8.60686 10.0606L8.49998 10.1338V14.0115L8.79104 13.7834L8.9648 13.7507C9.34473 13.6791 9.69403 13.4976 9.9676 13.2296L10.1023 13.0976C10.3064 12.8978 10.421 12.6267 10.421 12.344C10.421 12.1479 10.3657 11.9556 10.2614 11.7883L10.2575 11.7821C10.1562 11.6198 10.1158 11.4279 10.1433 11.2395L10.2273 10.6638C10.2385 10.5868 10.1953 10.512 10.122 10.4819L8.99833 10.0195C8.8693 9.96646 8.7215 9.98195 8.60686 10.0606Z" fill="#485CC2"/>
</mask>
<g mask="url(#mask0_440_1203)">
<rect x="6.27283" y="9.9884" width="4.29996" height="1.62664" fill="#E6E6E6"/>
<ellipse cx="8.49999" cy="11.2667" rx="0.640583" ry="0.62751" fill="#F8D74C"/>
<rect x="6.57898" y="11.5878" width="3.98336" height="0.89763" fill="#64BEDB"/>
<path d="M6.94494 12.0557L6.34442 12.3732L6.21097 12.7934L10.3574 12.7374C10.6053 12.6502 10.7559 12.5823 10.7864 12.5226C10.8169 12.4628 10.5767 12.3234 10.4528 12.2611C10.3193 12.2144 10.0429 12.108 10.0047 12.0557C9.96662 12.0034 9.86177 11.9841 9.8141 11.981L9.10873 12.1211L8.87996 11.8783C8.70838 12.0152 8.34807 12.2835 8.27944 12.2611C8.2108 12.2387 8.07291 12.1149 8.01254 12.0557C7.85685 12.037 7.53212 11.996 7.47874 11.981C7.42536 11.9661 7.10063 12.0246 6.94494 12.0557Z" fill="#3FB47C"/>
<path d="M7.21182 11.8969C7.13557 12.0389 6.70979 12.2673 6.50644 12.3638L6.83053 12.4292L7.00211 12.3638L7.43106 12.2891C7.48507 12.2331 7.60073 12.108 7.63123 12.0557C7.66173 12.0034 7.89178 12.1895 8.00298 12.2891L8.71789 12.3638L8.30801 12.1211L8.1269 11.8969L7.83141 11.1033L7.69796 10.9539L7.53591 11.3834C7.45965 11.4954 7.28808 11.755 7.21182 11.8969Z" fill="#E77D42"/>
<path d="M8.43193 11.9716C8.35568 12.1136 7.9299 12.342 7.72655 12.4385L8.05065 12.5039L8.22222 12.4385L8.65117 12.3638C8.70518 12.3078 8.82084 12.1827 8.85134 12.1304C8.88184 12.0781 9.11189 12.2642 9.22309 12.3638L9.938 12.4385L9.52812 12.1958L9.34701 11.9716L9.05152 11.178L8.91807 11.0286L8.75602 11.4581C8.67976 11.5701 8.50819 11.8297 8.43193 11.9716Z" fill="#E77D42"/>
<path d="M9.30166 11.9887C9.23855 12.1062 8.88618 12.2952 8.71789 12.3751L8.98611 12.4292L9.1281 12.3751L9.48309 12.3133C9.5278 12.2669 9.62351 12.1634 9.64875 12.1201C9.674 12.0768 9.86438 12.2308 9.95641 12.3133L10.5481 12.3751L10.2088 12.1742L10.059 11.9887L9.81442 11.3319L9.70397 11.2082L9.56987 11.5637C9.50676 11.6564 9.36476 11.8713 9.30166 11.9887Z" fill="#E77D42"/>
<path d="M8.27787 12.5302H8.31013V12.622H8.43919L8.3424 12.6526H8.31013V12.7444H8.47146L8.35315 12.8056H8.31013V12.8975H8.47146L8.35315 12.9587H8.31013V13.0505H8.47146L8.35315 13.1117H8.31013V13.3872H8.27787V13.1117H8.23485L8.11655 13.0505H8.27787V12.9587H8.23485L8.11655 12.8975H8.27787V12.8056H8.23485L8.11655 12.7444H8.27787V12.6526H8.24561L8.14881 12.622H8.27787V12.5302Z" fill="#F9F9F9"/>
<path d="M8.53599 12.5302H8.56825V12.5608H8.69731L8.60052 12.5914H8.56825V12.6832H8.72958L8.61127 12.7444H8.56825V12.8363H8.72958L8.61127 12.8975H8.56825V12.9893H8.72958L8.61127 13.0505H8.56825V13.3872H8.53599V13.0505H8.49297L8.37466 12.9893H8.53599V12.8975H8.49297L8.37466 12.8363H8.53599V12.7444H8.49297L8.37466 12.6832H8.53599V12.5914H8.50372L8.40693 12.5608H8.53599V12.5302Z" fill="#F9F9F9"/>
<path d="M8.82637 12.5302H8.79411V12.622H8.66505L8.76184 12.6526H8.79411V12.7444H8.63278L8.75109 12.8056H8.79411V12.8975H8.63278L8.75109 12.9587H8.79411V13.0505H8.63278L8.75109 13.1117H8.79411V13.3872H8.82637V13.1117H8.86939L8.92854 13.0811L8.98769 13.0505H8.82637V12.9587H8.86939L8.98769 12.8975H8.82637V12.8056H8.86939L8.98769 12.7444H8.82637V12.6526H8.85863L8.95543 12.622H8.82637V12.5302Z" fill="#F9F9F9"/>
<path d="M8.22947 13.2834L7.98749 13.1789L8.14881 13.3133L8.27787 13.4178H9.00383L9.08449 13.3282V13.2237H8.71344L8.61665 13.2834H8.22947Z" fill="#333333"/>
</g>
<path d="M0 0H24V4H0V0Z" fill="#D74B4B"/>
</g>
<defs>
<clipPath id="clip0_440_1203">
<rect width="24" height="24" rx="2" fill="white"/>
</clipPath>
</defs>
</svg>
