<svg width="32" height="24" viewBox="0 0 32 24" fill="none" xmlns="http://www.w3.org/2000/svg">
<g clip-path="url(#clip0_440_1214)">
<rect width="32" height="24" rx="2" fill="#3FB47C"/>
<path d="M17.5 3.82474e-08L17.5 24H16.5L16.5 0L17.5 3.82474e-08Z" fill="#F8D74C"/>
<path d="M16.5 0L16.5 24H15.5L15.5 0H16.5Z" fill="#333333"/>
<path d="M15.5 0L15.5 24H14.5L14.5 0H15.5Z" fill="#F9F9F9"/>
<path d="M0 10.5H32V11.5H0V10.5Z" fill="#F8D74C"/>
<path d="M0 11.5H32V12.5H0V11.5Z" fill="#333333"/>
<path d="M0 12.5H32V13.5H0V12.5Z" fill="#F9F9F9"/>
<path d="M24 12C24 16.4183 20.4183 20 16 20C11.5817 20 8 16.4183 8 12C8 7.58172 11.5817 4 16 4C20.4183 4 24 7.58172 24 12Z" fill="#D74B4B"/>
<path d="M15.9715 4.50794L16.1711 5.12214H16.8169L16.2944 5.50174L16.494 6.11595L15.9715 5.73635L15.449 6.11595L15.6486 5.50174L15.1261 5.12214H15.7719L15.9715 4.50794Z" fill="#3FB47C"/>
<path d="M20.3752 5.93879L20.1756 6.55299L20.6981 6.93259H20.0523L19.8527 7.5468L19.6532 6.93259L19.0074 6.93259L19.5298 6.55299L19.3303 5.93879L19.8527 6.31839L20.3752 5.93879Z" fill="#3FB47C"/>
<path d="M23.0969 9.68482L22.5744 10.0644L22.774 10.6786L22.2515 10.299L21.729 10.6786L21.9286 10.0644L21.4061 9.68482H22.0519L22.2515 9.07062L22.451 9.68482L23.0969 9.68482Z" fill="#3FB47C"/>
<path d="M23.0969 14.3152L22.451 14.3152L22.2515 14.9294L22.0519 14.3152L21.4061 14.3152L21.9286 13.9356L21.729 13.3214L22.2515 13.701L22.7739 13.3214L22.5744 13.9356L23.0969 14.3152Z" fill="#3FB47C"/>
<path d="M20.3752 18.0612L19.8527 17.6816L19.3303 18.0612L19.5298 17.447L19.0073 17.0674H19.6532L19.8527 16.4532L20.0523 17.0674H20.6981L20.1756 17.447L20.3752 18.0612Z" fill="#3FB47C"/>
<path d="M15.9715 19.4921L15.7719 18.8779H15.1261L15.6486 18.4983L15.449 17.884L15.9715 18.2637L16.494 17.884L16.2944 18.4983L16.8169 18.8779H16.1711L15.9715 19.4921Z" fill="#3FB47C"/>
<path d="M11.5678 18.0612L11.7673 17.447L11.2449 17.0674H11.8907L12.0902 16.4532L12.2898 17.0674L12.9356 17.0674L12.4131 17.447L12.6127 18.0612L12.0902 17.6816L11.5678 18.0612Z" fill="#3FB47C"/>
<path d="M8.84611 14.3152L9.36859 13.9356L9.16902 13.3214L9.69149 13.701L10.214 13.3214L10.0144 13.9356L10.5369 14.3152H9.89106L9.69149 14.9294L9.49193 14.3152H8.84611Z" fill="#3FB47C"/>
<path d="M8.84612 9.68482L9.49193 9.68482L9.6915 9.07061L9.89107 9.68482L10.5369 9.68482L10.0144 10.0644L10.214 10.6786L9.6915 10.299L9.16903 10.6786L9.36859 10.0644L8.84612 9.68482Z" fill="#3FB47C"/>
<path d="M11.5678 5.93879L12.0902 6.31839L12.6127 5.93879L12.4132 6.55299L12.9356 6.9326H12.2898L12.0902 7.5468L11.8907 6.9326H11.2449L11.7673 6.55299L11.5678 5.93879Z" fill="#3FB47C"/>
<path d="M17.7778 13.0794C17.5746 11.581 16.8042 10.4868 16.4444 10.127L15.2381 10C14.9524 10.8677 14.3556 12.8127 14.254 13.6508C14.1524 14.4889 14.4656 15.1217 14.6349 15.3333L16.0635 15.5873C16.1905 16.3915 16.5651 18.0317 17.0476 18.1587C17.5302 18.2857 17.6296 18.1058 17.619 18V16.1905H17.9683C17.9894 15.7778 17.9809 14.5778 17.7778 13.0794Z" fill="#3FB47C"/>
<path d="M13.7778 8.28571V9.39683L14.254 8.79365C14.254 9.03704 14.2159 9.5746 14.0635 9.77778C13.9111 9.98095 13.7672 10.709 13.7143 11.0476C13.6614 11.5661 13.6444 12.7429 14 13.3016C14.3555 13.8603 14.8042 14.1905 14.9841 14.2857C15.1843 13.9254 15.2058 13.4926 15.0424 13.1142L14.6984 12.3175L15.3016 10.2857C15.7354 10.3386 16.5968 10.381 16.5714 10.127C16.546 9.87302 16.4973 9.42857 16.4762 9.2381C16.3492 8.98413 15.9682 8.34286 15.4603 7.80953C14.9524 7.27619 14.4444 7.52381 14.254 7.71429L13.7778 8.28571Z" fill="#8B4477"/>
<path d="M13.5556 8.79365C13.454 9.14921 13.6402 9.38624 13.746 9.46032C13.7683 9.47779 13.84 9.4676 13.873 9.46032L14.2857 9.04762V8.73016L14.1587 8.63492L13.7778 8.28571C13.746 8.30688 13.6571 8.4381 13.5556 8.79365Z" fill="#F9F9F9"/>
<path fill-rule="evenodd" clip-rule="evenodd" d="M13.9941 8.93909L13.6766 9.38353L13.625 9.34663L13.9424 8.90218L13.9941 8.93909Z" fill="#D74B4B"/>
<path d="M14.9841 8.38095C14.9841 8.55628 14.842 8.69841 14.6667 8.69841C14.4913 8.69841 14.3492 8.55628 14.3492 8.38095C14.3492 8.20562 14.4913 8.06349 14.6667 8.06349C14.842 8.06349 14.9841 8.20562 14.9841 8.38095Z" fill="#F8D74C"/>
<path d="M14.7937 8.38095C14.7937 8.45108 14.7368 8.50794 14.6667 8.50794C14.5965 8.50794 14.5397 8.45108 14.5397 8.38095C14.5397 8.31082 14.5965 8.25397 14.6667 8.25397C14.7368 8.25397 14.7937 8.31082 14.7937 8.38095Z" fill="#333333"/>
<path d="M12.8889 15.7778C12.8889 15.5499 13.0737 15.3651 13.3016 15.3651H16.4762C16.7041 15.3651 16.8889 15.5499 16.8889 15.7778C16.8889 16.0057 16.7041 16.1905 16.4762 16.1905H13.3016C13.0737 16.1905 12.8889 16.0057 12.8889 15.7778Z" fill="#E77D42"/>
<path d="M14.3492 15.4921C14.3492 15.3167 14.4913 15.1746 14.6667 15.1746H15.3016C15.4769 15.1746 15.619 15.3167 15.619 15.4921V16C15.619 16.1753 15.4769 16.3175 15.3016 16.3175H14.6667C14.4913 16.3175 14.3492 16.1753 14.3492 16V15.4921Z" fill="#F9F9F9"/>
<path fill-rule="evenodd" clip-rule="evenodd" d="M14.7302 16.2857V15.2064H14.7937V16.2857H14.7302Z" fill="#333333"/>
<path fill-rule="evenodd" clip-rule="evenodd" d="M15.1429 16.2857V15.2064H15.2063V16.2857H15.1429Z" fill="#333333"/>
</g>
<defs>
<clipPath id="clip0_440_1214">
<rect width="32" height="24" rx="2" fill="white"/>
</clipPath>
</defs>
</svg>
