<svg width="32" height="24" viewBox="0 0 32 24" fill="none" xmlns="http://www.w3.org/2000/svg">
<g clip-path="url(#clip0_440_1208)">
<rect width="32" height="24" rx="2" fill="#485CC2"/>
<rect y="14" width="14" height="10" fill="#D74B4B"/>
<rect x="18" width="14" height="10" fill="#D74B4B"/>
<path d="M32 9V15L0 15L2.62268e-07 9L32 9Z" fill="#F9F9F9"/>
<path d="M19 24H13L13 0L19 5.24537e-07L19 24Z" fill="#F9F9F9"/>
<path fill-rule="evenodd" clip-rule="evenodd" d="M13.6142 12.1985C13.538 11.0308 13.9598 9.73492 14.2006 9.20752L14.2637 9.246C14.026 9.7664 13.6105 11.0462 13.6854 12.1923C13.7227 12.7642 13.8819 13.2988 14.2424 13.6906C14.6029 14.0824 15.1698 14.337 16.0326 14.337V14.4194C15.158 14.4194 14.5712 14.1611 14.1935 13.7507C13.816 13.3403 13.6524 12.7835 13.6142 12.1985Z" fill="#3FB47C"/>
<path fill-rule="evenodd" clip-rule="evenodd" d="M16.6051 13.8531C16.6851 13.8635 16.7553 13.9129 16.8021 14.0031C16.8405 14.0771 16.86 14.1558 16.8473 14.2342C16.8344 14.3134 16.7925 14.3694 16.7487 14.4061C16.6664 14.4751 16.5533 14.4978 16.4817 14.5024L16.4758 14.5028L16.2495 14.5026C16.4354 14.6497 16.753 14.7498 17.259 14.5962L17.3133 14.8353C16.731 15.0122 16.3386 14.8868 16.1013 14.6848C16.0469 14.7597 15.978 14.8283 15.8925 14.8825C15.6502 15.0361 15.2991 15.059 14.8146 14.8302L14.8956 14.6013C15.3437 14.8129 15.6229 14.7714 15.7896 14.6657C15.8543 14.6246 15.9058 14.5716 15.9458 14.5139C15.9432 14.5101 15.9406 14.5063 15.938 14.5026H15.3686L15.3565 14.4992C15.3255 14.4908 15.2898 14.476 15.2561 14.4534C15.2231 14.4312 15.1857 14.3971 15.1607 14.3465C15.1338 14.2923 15.1254 14.2274 15.1418 14.1592C15.1573 14.0952 15.1928 14.0355 15.2415 13.9793C15.371 13.8296 15.5479 13.8617 15.6748 13.9177C15.8072 13.9762 15.9314 14.0786 16.0062 14.1546L16.0274 14.1761L16.0366 14.2069C16.0409 14.221 16.0464 14.2364 16.0534 14.2527C16.055 14.2442 16.0563 14.2359 16.0574 14.2278L16.0629 14.1889L16.0867 14.1608C16.1578 14.0772 16.2756 13.9627 16.398 13.8994C16.459 13.8679 16.5316 13.8436 16.6051 13.8531ZM15.7694 14.2553C15.7175 14.2143 15.6578 14.1749 15.5985 14.1488C15.4917 14.1017 15.4282 14.1132 15.3928 14.1542C15.359 14.1932 15.35 14.2172 15.3479 14.2257L15.3502 14.2285C15.3532 14.2317 15.3576 14.2356 15.3637 14.2396C15.3732 14.246 15.3843 14.2514 15.3952 14.2553H15.7694ZM16.3136 14.2553H16.4727C16.5284 14.2512 16.5907 14.233 16.6231 14.2059C16.63 14.2001 16.6335 14.1955 16.6352 14.1928C16.6366 14.1905 16.637 14.1886 16.637 14.1886C16.637 14.1886 16.6398 14.1712 16.6187 14.1303C16.6058 14.1055 16.5943 14.1005 16.5812 14.0988C16.5616 14.0963 16.5297 14.1022 16.4854 14.1252C16.4275 14.1551 16.3663 14.2044 16.3136 14.2553Z" fill="#D74B4B"/>
<path d="M13.9412 9.26166L13.8854 10.2367L13.7529 10.8658L13.6553 11.4372L13.6259 11.9515L13.6553 12.2671L13.7531 12.7954L13.8854 13.2364C13.8854 13.4108 14.2785 13.791 14.4751 13.9593L15.0427 14.2493C14.8308 14.2493 14.3874 14.0559 14.1922 13.9593L13.2858 12.952L13.8854 13.4597L13.0697 12.2269L13.8854 13.2744L13.7878 13.1132L13.1394 12.0496L13.6972 12.6539L13 11.4936L13.5856 12.2671L13.0697 11.0102L13.5856 12.0496L13.1046 10.5992L13.5856 11.687L13.2858 10.3897L13.5856 11.4372L13.4601 10.3897L13.6553 11.0102L13.5856 9.86596L13.6972 10.5025L13.7529 9.49531L13.7878 10.2367L13.9412 9.26166Z" fill="#3FB47C"/>
<path d="M14.2871 9.52642L13.8381 10.3236L13.6431 11.3165V12.4445L13.6754 12.6592L13.734 12.9285L13.9032 13.2446L13.9551 13.4073L14.2712 13.8027L14.6515 14.0842L14.3652 13.4073L14.2871 13.836V12.956L14.183 13.6856L14.1179 12.5574L13.9747 13.3471L14.0659 12.0385L13.7795 12.9034L14.0203 11.6398L13.6754 12.5198L14.0659 11.1961L13.6754 11.9181L14.0659 10.9178L13.6754 11.5947L14.183 10.0604L13.734 10.9855L14.2871 9.52642Z" fill="#3FB47C"/>
<path d="M17.9625 9.5366L17.726 9.4639C17.953 9.87085 18.1955 9.99116 18.2884 10.0004C18.5028 9.74109 18.4373 9.22542 18.3777 9L18.2884 9.20678L18.1938 9.06707L18.1675 9.2683L17.9625 9.03353L18.0676 9.38009L17.8206 9.20678L17.9625 9.5366Z" fill="#3FB47C"/>
<path d="M18.4433 10.955L18.2406 10.8065C18.3349 11.2689 18.5291 11.4646 18.6145 11.5047C18.895 11.3308 18.9862 10.8195 18.9968 10.5856L18.8505 10.7517L18.8023 10.5874L18.7175 10.7694L18.5929 10.4778L18.5896 10.8419L18.4068 10.5944L18.4433 10.955Z" fill="#3FB47C"/>
<path d="M18.4022 12.3341L18.2217 12.156C18.2523 12.6281 18.4179 12.8516 18.4969 12.9043C18.7981 12.7753 18.9578 12.2834 19 12.0536L18.8327 12.1955L18.8073 12.0255L18.6987 12.1926L18.615 11.8849L18.5623 12.2446L18.415 11.9717L18.4022 12.3341Z" fill="#3FB47C"/>
<path d="M17.8967 13.6892L17.9176 13.4283C17.5865 13.7445 17.5229 14.0209 17.5324 14.1195C17.8134 14.2927 18.2762 14.1238 18.4724 14.0177L18.2643 13.9648L18.3747 13.8389L18.184 13.8507L18.3606 13.5912L18.0615 13.7684L18.1732 13.4769L17.8967 13.6892Z" fill="#3FB47C"/>
<path fill-rule="evenodd" clip-rule="evenodd" d="M18.1728 9.33345L18.5499 10.7066C18.6004 10.9684 18.6577 11.4833 18.6727 12.0742C18.6823 12.4501 18.5844 12.8083 18.4755 13.0823C18.421 13.2195 18.3635 13.3362 18.3148 13.4242C18.2666 13.5112 18.2258 13.5723 18.2043 13.597C17.9299 13.9116 17.5835 14.2793 16.796 14.3627L16.828 14.2915C17.5906 14.2108 17.882 13.8501 18.1497 13.5431C18.1654 13.5251 18.2029 13.4701 18.2506 13.384C18.2978 13.2988 18.3538 13.1852 18.4069 13.0515C18.5133 12.7836 18.6074 12.4371 18.5983 12.0763C18.5834 11.4898 18.5264 10.9806 18.4771 10.7242L18.1014 9.35565L18.1728 9.33345Z" fill="#3FB47C"/>
<path fill-rule="evenodd" clip-rule="evenodd" d="M15.8061 9.75323C15.795 9.75323 15.784 9.7566 15.7741 9.76307L14.9941 10.2719C14.9703 10.2874 14.9553 10.3189 14.9553 10.3532V10.5037H14.7429V10.3532C14.7429 10.2158 14.8029 10.09 14.8981 10.0279L15.6781 9.51911C15.7178 9.49322 15.7616 9.47974 15.8061 9.47974H16.1297V9.75323H15.8061Z" fill="#485CC2"/>
<path fill-rule="evenodd" clip-rule="evenodd" d="M16.4533 9.75323C16.4645 9.75323 16.4754 9.7566 16.4853 9.76307L17.2653 10.2719C17.2891 10.2874 17.3041 10.3189 17.3041 10.3532V10.5037H17.5166V10.3532C17.5166 10.2158 17.4566 10.09 17.3613 10.0279L16.5813 9.51911C16.5417 9.49322 16.4978 9.47974 16.4533 9.47974H16.1297V9.75323H16.4533Z" fill="#485CC2"/>
<path fill-rule="evenodd" clip-rule="evenodd" d="M15.8061 13.1559C15.795 13.1559 15.784 13.1593 15.7741 13.1658L14.9941 13.6746C14.9703 13.6901 14.9553 13.7216 14.9553 13.7559V13.9064H14.7429V13.7559C14.7429 13.6185 14.8029 13.4928 14.8981 13.4306L15.6781 12.9218C15.7178 12.8959 15.7616 12.8824 15.8061 12.8824H16.1297V13.1559H15.8061Z" fill="#D74B4B"/>
<path fill-rule="evenodd" clip-rule="evenodd" d="M16.4533 13.1559C16.4645 13.1559 16.4754 13.1593 16.4853 13.1658L17.2653 13.6746C17.2891 13.6901 17.3041 13.7216 17.3041 13.7559V13.9064H17.5166V13.7559C17.5166 13.6185 17.4566 13.4928 17.3613 13.4306L16.5813 12.9218C16.5417 12.8959 16.4978 12.8824 16.4533 12.8824H16.1297V13.1559H16.4533Z" fill="#D74B4B"/>
<path d="M16.1174 10.1946H15.1084L15.2855 10.3769V12.2458L16.1174 12.7927V10.1946Z" fill="#485CC2"/>
<path d="M16.1174 10.1946H17.1087L16.9317 10.3769V12.2458L16.1174 12.7927V10.1946Z" fill="#D74B4B"/>
<path d="M16.1174 11.3341H15.2855V12.2458L16.1174 12.7927V11.3341Z" fill="#D74B4B"/>
<path d="M16.1174 11.3341H16.9317V12.2458L16.1174 12.7927V11.3341Z" fill="#485CC2"/>
<path d="M16.2856 10.1946H15.9316V11.1974H15.2853V11.6532H15.9316V12.6706L16.1174 12.7927L16.2856 12.6798V11.6532H16.9317V11.1974H16.2856V10.1946Z" fill="#F9F9F9"/>
</g>
<defs>
<clipPath id="clip0_440_1208">
<rect width="32" height="24" rx="2" fill="white"/>
</clipPath>
</defs>
</svg>
