<svg width="24" height="24" viewBox="0 0 24 24" fill="none" xmlns="http://www.w3.org/2000/svg">
<g clip-path="url(#clip0_440_1212)">
<rect width="24" height="24" rx="2" fill="#3FB47C"/>
<path d="M13.5 3.82474e-08L13.5 24H12.5L12.5 0L13.5 3.82474e-08Z" fill="#F8D74C"/>
<path d="M12.5 0L12.5 24H11.5L11.5 0H12.5Z" fill="#333333"/>
<path d="M11.5 0L11.5 24H10.5L10.5 0H11.5Z" fill="#F9F9F9"/>
<path d="M0 10.5H24V11.5H0V10.5Z" fill="#F8D74C"/>
<path d="M0 11.5H24V12.5H0V11.5Z" fill="#333333"/>
<path d="M0 12.5H24V13.5H0V12.5Z" fill="#F9F9F9"/>
<path d="M20 12C20 16.4183 16.4183 20 12 20C7.58172 20 4 16.4183 4 12C4 7.58172 7.58172 4 12 4C16.4183 4 20 7.58172 20 12Z" fill="#D74B4B"/>
<path d="M11.9715 4.50794L12.1711 5.12214H12.8169L12.2944 5.50174L12.494 6.11595L11.9715 5.73635L11.449 6.11595L11.6486 5.50174L11.1261 5.12214H11.7719L11.9715 4.50794Z" fill="#3FB47C"/>
<path d="M16.3752 5.93879L16.1756 6.55299L16.6981 6.93259H16.0523L15.8527 7.5468L15.6532 6.93259L15.0074 6.93259L15.5298 6.55299L15.3303 5.93879L15.8527 6.31839L16.3752 5.93879Z" fill="#3FB47C"/>
<path d="M19.0969 9.68482L18.5744 10.0644L18.774 10.6786L18.2515 10.299L17.729 10.6786L17.9286 10.0644L17.4061 9.68482H18.0519L18.2515 9.07062L18.451 9.68482L19.0969 9.68482Z" fill="#3FB47C"/>
<path d="M19.0969 14.3152L18.451 14.3152L18.2515 14.9294L18.0519 14.3152L17.4061 14.3152L17.9286 13.9356L17.729 13.3214L18.2515 13.701L18.7739 13.3214L18.5744 13.9356L19.0969 14.3152Z" fill="#3FB47C"/>
<path d="M16.3752 18.0612L15.8527 17.6816L15.3303 18.0612L15.5298 17.447L15.0073 17.0674H15.6532L15.8527 16.4532L16.0523 17.0674H16.6981L16.1756 17.447L16.3752 18.0612Z" fill="#3FB47C"/>
<path d="M11.9715 19.4921L11.7719 18.8779H11.1261L11.6486 18.4983L11.449 17.884L11.9715 18.2637L12.494 17.884L12.2944 18.4983L12.8169 18.8779H12.1711L11.9715 19.4921Z" fill="#3FB47C"/>
<path d="M7.56776 18.0612L7.76733 17.447L7.24485 17.0674H7.89067L8.09023 16.4532L8.2898 17.0674L8.93562 17.0674L8.41314 17.447L8.61271 18.0612L8.09023 17.6816L7.56776 18.0612Z" fill="#3FB47C"/>
<path d="M4.84611 14.3152L5.36859 13.9356L5.16902 13.3214L5.69149 13.701L6.21397 13.3214L6.0144 13.9356L6.53688 14.3152H5.89106L5.69149 14.9294L5.49193 14.3152H4.84611Z" fill="#3FB47C"/>
<path d="M4.84612 9.68482L5.49193 9.68482L5.6915 9.07061L5.89107 9.68482L6.53689 9.68482L6.01441 10.0644L6.21398 10.6786L5.6915 10.299L5.16903 10.6786L5.36859 10.0644L4.84612 9.68482Z" fill="#3FB47C"/>
<path d="M7.56777 5.93879L8.09024 6.31839L8.61272 5.93879L8.41315 6.55299L8.93563 6.9326H8.28981L8.09024 7.5468L7.89068 6.9326H7.24486L7.76734 6.55299L7.56777 5.93879Z" fill="#3FB47C"/>
<path d="M13.7778 13.0794C13.5746 11.581 12.8042 10.4868 12.4444 10.127L11.2381 10C10.9524 10.8677 10.3556 12.8127 10.254 13.6508C10.1524 14.4889 10.4656 15.1217 10.6349 15.3333L12.0635 15.5873C12.1905 16.3915 12.5651 18.0317 13.0476 18.1587C13.5302 18.2857 13.6296 18.1058 13.619 18V16.1905H13.9683C13.9894 15.7778 13.9809 14.5778 13.7778 13.0794Z" fill="#3FB47C"/>
<path d="M9.77777 8.28571V9.39683L10.254 8.79365C10.254 9.03704 10.2159 9.5746 10.0635 9.77778C9.91112 9.98095 9.76719 10.709 9.71428 11.0476C9.66137 11.5661 9.64444 12.7429 9.99999 13.3016C10.3555 13.8603 10.8042 14.1905 10.9841 14.2857C11.1843 13.9254 11.2058 13.4926 11.0424 13.1142L10.6984 12.3175L11.3016 10.2857C11.7354 10.3386 12.5968 10.381 12.5714 10.127C12.546 9.87302 12.4973 9.42857 12.4762 9.2381C12.3492 8.98413 11.9682 8.34286 11.4603 7.80953C10.9524 7.27619 10.4444 7.52381 10.254 7.71429L9.77777 8.28571Z" fill="#8B4477"/>
<path d="M9.55556 8.79365C9.45397 9.14921 9.64022 9.38624 9.74604 9.46032C9.76832 9.47779 9.83998 9.4676 9.87302 9.46032L10.2857 9.04762V8.73016L10.1587 8.63492L9.77777 8.28571C9.74603 8.30688 9.65715 8.4381 9.55556 8.79365Z" fill="#F9F9F9"/>
<path fill-rule="evenodd" clip-rule="evenodd" d="M9.99409 8.93909L9.67663 9.38353L9.62496 9.34663L9.94242 8.90218L9.99409 8.93909Z" fill="#D74B4B"/>
<path d="M10.9841 8.38095C10.9841 8.55628 10.842 8.69841 10.6667 8.69841C10.4913 8.69841 10.3492 8.55628 10.3492 8.38095C10.3492 8.20562 10.4913 8.06349 10.6667 8.06349C10.842 8.06349 10.9841 8.20562 10.9841 8.38095Z" fill="#F8D74C"/>
<path d="M10.7937 8.38095C10.7937 8.45108 10.7368 8.50794 10.6667 8.50794C10.5965 8.50794 10.5397 8.45108 10.5397 8.38095C10.5397 8.31082 10.5965 8.25397 10.6667 8.25397C10.7368 8.25397 10.7937 8.31082 10.7937 8.38095Z" fill="#333333"/>
<path d="M8.88889 15.7778C8.88889 15.5499 9.07366 15.3651 9.30159 15.3651H12.4762C12.7041 15.3651 12.8889 15.5499 12.8889 15.7778C12.8889 16.0057 12.7041 16.1905 12.4762 16.1905H9.30159C9.07366 16.1905 8.88889 16.0057 8.88889 15.7778Z" fill="#E77D42"/>
<path d="M10.3492 15.4921C10.3492 15.3167 10.4913 15.1746 10.6667 15.1746H11.3016C11.4769 15.1746 11.619 15.3167 11.619 15.4921V16C11.619 16.1753 11.4769 16.3175 11.3016 16.3175H10.6667C10.4913 16.3175 10.3492 16.1753 10.3492 16V15.4921Z" fill="#F9F9F9"/>
<path fill-rule="evenodd" clip-rule="evenodd" d="M10.7302 16.2857V15.2064H10.7937V16.2857H10.7302Z" fill="#333333"/>
<path fill-rule="evenodd" clip-rule="evenodd" d="M11.1429 16.2857V15.2064H11.2063V16.2857H11.1429Z" fill="#333333"/>
</g>
<defs>
<clipPath id="clip0_440_1212">
<rect width="24" height="24" rx="2" fill="white"/>
</clipPath>
</defs>
</svg>
