<svg width="24" height="24" viewBox="0 0 24 24" fill="none" xmlns="http://www.w3.org/2000/svg">
<g clip-path="url(#clip0_440_1204)">
<rect width="24" height="24" rx="12" fill="#485CC2"/>
<path d="M15 24H9L9 0L15 5.24537e-07L15 24Z" fill="#F9F9F9"/>
<path d="M2.62268e-07 15L0 9L24 9V15L2.62268e-07 15Z" fill="#F9F9F9"/>
<path fill-rule="evenodd" clip-rule="evenodd" d="M9.61425 12.1985C9.53799 11.0308 9.95977 9.73492 10.2006 9.20752L10.2637 9.246C10.026 9.7664 9.61053 11.0462 9.68537 12.1923C9.72272 12.7642 9.88185 13.2988 10.2424 13.6906C10.6029 14.0824 11.1698 14.337 12.0326 14.337V14.4194C11.158 14.4194 10.5712 14.1611 10.1935 13.7507C9.81595 13.3403 9.65245 12.7835 9.61425 12.1985Z" fill="#3FB47C"/>
<path fill-rule="evenodd" clip-rule="evenodd" d="M12.6051 13.8531C12.6851 13.8635 12.7553 13.9129 12.8021 14.0031C12.8405 14.0771 12.86 14.1558 12.8473 14.2342C12.8344 14.3134 12.7925 14.3694 12.7487 14.4061C12.6664 14.4751 12.5533 14.4978 12.4817 14.5024L12.4758 14.5028L12.2495 14.5026C12.4354 14.6497 12.753 14.7498 13.259 14.5962L13.3133 14.8353C12.731 15.0122 12.3386 14.8868 12.1013 14.6848C12.0469 14.7597 11.978 14.8283 11.8925 14.8825C11.6502 15.0361 11.2991 15.059 10.8146 14.8302L10.8956 14.6013C11.3437 14.8129 11.6229 14.7714 11.7896 14.6657C11.8543 14.6246 11.9058 14.5716 11.9458 14.5139C11.9432 14.5101 11.9406 14.5063 11.938 14.5026H11.3686L11.3565 14.4992C11.3255 14.4908 11.2898 14.476 11.2561 14.4534C11.2231 14.4312 11.1857 14.3971 11.1607 14.3465C11.1338 14.2923 11.1254 14.2274 11.1418 14.1592C11.1573 14.0952 11.1928 14.0355 11.2415 13.9793C11.371 13.8296 11.5479 13.8617 11.6748 13.9177C11.8072 13.9762 11.9314 14.0786 12.0062 14.1546L12.0274 14.1761L12.0366 14.2069C12.0409 14.221 12.0464 14.2364 12.0534 14.2527C12.055 14.2442 12.0563 14.2359 12.0574 14.2278L12.0629 14.1889L12.0867 14.1608C12.1578 14.0772 12.2756 13.9627 12.398 13.8994C12.459 13.8679 12.5316 13.8436 12.6051 13.8531ZM11.7694 14.2553C11.7175 14.2143 11.6578 14.1749 11.5985 14.1488C11.4917 14.1017 11.4282 14.1132 11.3928 14.1542C11.359 14.1932 11.35 14.2172 11.3479 14.2257L11.3502 14.2285C11.3532 14.2317 11.3576 14.2356 11.3637 14.2396C11.3732 14.246 11.3843 14.2514 11.3952 14.2553H11.7694ZM12.3136 14.2553H12.4727C12.5284 14.2512 12.5907 14.233 12.6231 14.2059C12.63 14.2001 12.6335 14.1955 12.6352 14.1928C12.6366 14.1905 12.637 14.1886 12.637 14.1886C12.637 14.1886 12.6398 14.1712 12.6187 14.1303C12.6058 14.1055 12.5943 14.1005 12.5812 14.0988C12.5616 14.0963 12.5297 14.1022 12.4854 14.1252C12.4275 14.1551 12.3663 14.2044 12.3136 14.2553Z" fill="#D74B4B"/>
<path d="M9.9412 9.26166L9.88543 10.2367L9.75293 10.8658L9.65533 11.4372L9.62594 11.9515L9.65533 12.2671L9.75311 12.7954L9.88543 13.2364C9.88543 13.4108 10.2785 13.791 10.4751 13.9593L11.0427 14.2493C10.8308 14.2493 10.3874 14.0559 10.1922 13.9593L9.28582 12.952L9.88543 13.4597L9.06973 12.2269L9.88543 13.2744L9.78781 13.1132L9.13944 12.0496L9.69715 12.6539L9 11.4936L9.58559 12.2671L9.06973 11.0102L9.58559 12.0496L9.10457 10.5992L9.58559 11.687L9.28582 10.3897L9.58559 11.4372L9.46012 10.3897L9.65533 11.0102L9.58559 9.86596L9.69715 10.5025L9.75293 9.49531L9.78781 10.2367L9.9412 9.26166Z" fill="#3FB47C"/>
<path d="M10.2871 9.52642L9.83808 10.3236L9.64312 11.3165V12.4445L9.67541 12.6592L9.73396 12.9285L9.90316 13.2446L9.9551 13.4073L10.2712 13.8027L10.6515 14.0842L10.3652 13.4073L10.2871 13.836V12.956L10.183 13.6856L10.1179 12.5574L9.97475 13.3471L10.0659 12.0385L9.77952 12.9034L10.0203 11.6398L9.67541 12.5198L10.0659 11.1961L9.67541 11.9181L10.0659 10.9178L9.67541 11.5947L10.183 10.0604L9.73396 10.9855L10.2871 9.52642Z" fill="#3FB47C"/>
<path d="M13.9625 9.5366L13.726 9.4639C13.953 9.87085 14.1955 9.99116 14.2884 10.0004C14.5028 9.74109 14.4373 9.22542 14.3777 9L14.2884 9.20678L14.1938 9.06707L14.1675 9.2683L13.9625 9.03353L14.0676 9.38009L13.8206 9.20678L13.9625 9.5366Z" fill="#3FB47C"/>
<path d="M14.4433 10.955L14.2406 10.8065C14.3349 11.2689 14.5291 11.4646 14.6145 11.5047C14.895 11.3308 14.9862 10.8195 14.9968 10.5856L14.8505 10.7517L14.8023 10.5874L14.7175 10.7694L14.5929 10.4778L14.5896 10.8419L14.4068 10.5944L14.4433 10.955Z" fill="#3FB47C"/>
<path d="M14.4022 12.3341L14.2217 12.156C14.2523 12.6281 14.4179 12.8516 14.4969 12.9043C14.7981 12.7753 14.9578 12.2834 15 12.0536L14.8327 12.1955L14.8073 12.0255L14.6987 12.1926L14.615 11.8849L14.5623 12.2446L14.415 11.9717L14.4022 12.3341Z" fill="#3FB47C"/>
<path d="M13.8967 13.6892L13.9176 13.4283C13.5865 13.7445 13.5229 14.0209 13.5324 14.1195C13.8134 14.2927 14.2762 14.1238 14.4724 14.0177L14.2643 13.9648L14.3747 13.8389L14.184 13.8507L14.3606 13.5912L14.0615 13.7684L14.1732 13.4769L13.8967 13.6892Z" fill="#3FB47C"/>
<path fill-rule="evenodd" clip-rule="evenodd" d="M14.1728 9.33345L14.5499 10.7066C14.6004 10.9684 14.6577 11.4833 14.6727 12.0742C14.6823 12.4501 14.5844 12.8083 14.4755 13.0823C14.421 13.2195 14.3635 13.3362 14.3148 13.4242C14.2666 13.5112 14.2258 13.5723 14.2043 13.597C13.9299 13.9116 13.5835 14.2793 12.796 14.3627L12.828 14.2915C13.5906 14.2108 13.882 13.8501 14.1497 13.5431C14.1654 13.5251 14.2029 13.4701 14.2506 13.384C14.2978 13.2988 14.3538 13.1852 14.4069 13.0515C14.5133 12.7836 14.6074 12.4371 14.5983 12.0763C14.5834 11.4898 14.5264 10.9806 14.4771 10.7242L14.1014 9.35565L14.1728 9.33345Z" fill="#3FB47C"/>
<path fill-rule="evenodd" clip-rule="evenodd" d="M11.8061 9.75323C11.795 9.75323 11.7841 9.7566 11.7741 9.76307L10.9941 10.2719C10.9703 10.2874 10.9553 10.3189 10.9553 10.3532V10.5037H10.7429V10.3532C10.7429 10.2158 10.8029 10.09 10.8981 10.0279L11.6781 9.51911C11.7178 9.49322 11.7617 9.47974 11.8061 9.47974H12.1297V9.75323H11.8061Z" fill="#485CC2"/>
<path fill-rule="evenodd" clip-rule="evenodd" d="M12.4534 9.75323C12.4645 9.75323 12.4754 9.7566 12.4854 9.76307L13.2653 10.2719C13.2892 10.2874 13.3042 10.3189 13.3042 10.3532V10.5037H13.5166V10.3532C13.5166 10.2158 13.4566 10.09 13.3614 10.0279L12.5814 9.51911C12.5417 9.49322 12.4978 9.47974 12.4534 9.47974H12.1297V9.75323H12.4534Z" fill="#485CC2"/>
<path fill-rule="evenodd" clip-rule="evenodd" d="M11.8061 13.1559C11.795 13.1559 11.7841 13.1593 11.7741 13.1658L10.9941 13.6746C10.9703 13.6901 10.9553 13.7216 10.9553 13.7559V13.9064H10.7429V13.7559C10.7429 13.6185 10.8029 13.4928 10.8981 13.4306L11.6781 12.9218C11.7178 12.8959 11.7617 12.8824 11.8061 12.8824H12.1297V13.1559H11.8061Z" fill="#D74B4B"/>
<path fill-rule="evenodd" clip-rule="evenodd" d="M12.4534 13.1559C12.4645 13.1559 12.4754 13.1593 12.4854 13.1658L13.2653 13.6746C13.2892 13.6901 13.3042 13.7216 13.3042 13.7559V13.9064H13.5166V13.7559C13.5166 13.6185 13.4566 13.4928 13.3614 13.4306L12.5814 12.9218C12.5417 12.8959 12.4978 12.8824 12.4534 12.8824H12.1297V13.1559H12.4534Z" fill="#D74B4B"/>
<path d="M12.1174 10.1946H11.1085L11.2855 10.3769V12.2458L12.1174 12.7927V10.1946Z" fill="#485CC2"/>
<path d="M12.1174 10.1946H13.1087L12.9317 10.3769V12.2458L12.1174 12.7927V10.1946Z" fill="#D74B4B"/>
<path d="M12.1174 11.3341H11.2855V12.2458L12.1174 12.7927V11.3341Z" fill="#D74B4B"/>
<path d="M12.1174 11.3341H12.9317V12.2458L12.1174 12.7927V11.3341Z" fill="#485CC2"/>
<path d="M12.2856 10.1946H11.9316V11.1974H11.2854V11.6532H11.9316V12.6706L12.1174 12.7927L12.2856 12.6798V11.6532H12.9318V11.1974H12.2856V10.1946Z" fill="#F9F9F9"/>
<rect x="15" width="9" height="9" fill="#D74B4B"/>
<rect y="15" width="9" height="9" fill="#D74B4B"/>
</g>
<defs>
<clipPath id="clip0_440_1204">
<rect width="24" height="24" rx="12" fill="white"/>
</clipPath>
</defs>
</svg>
