<svg width="24" height="24" viewBox="0 0 24 24" fill="none" xmlns="http://www.w3.org/2000/svg">
<rect width="24" height="24" rx="12" fill="#F8D74C"/>
<path d="M0 12H24V18H0V12Z" fill="#485CC2"/>
<path d="M11.2892 17.7418L12.051 15.3046V17.8745L11.5306 17.9945C11.3775 18.0298 11.2431 17.8891 11.2892 17.7418Z" fill="#D74B4B"/>
<path d="M12.8383 17.7418L12.051 15.3014V17.8745L12.5969 17.9945C12.75 18.0298 12.8844 17.8891 12.8383 17.7418Z" fill="#D74B4B"/>
<path d="M10.6367 17.257L11.4654 15.6539L12.2802 15.0801L12.0001 15.9034L11.72 17.4753L10.835 17.5461C10.6763 17.5588 10.5648 17.3962 10.6367 17.257Z" fill="#485CC2"/>
<path d="M13.4907 17.257L12.6621 15.6539L11.8473 15.0801L12.1274 15.9034L12.4075 17.4753L13.2924 17.5461C13.4511 17.5588 13.5627 17.3962 13.4907 17.257Z" fill="#485CC2"/>
<path d="M10.2803 16.6332L11.1089 15.0302L12.0255 14.7058L11.7454 15.5292L11.3635 16.8516L10.4786 16.9223C10.3198 16.935 10.2083 16.7724 10.2803 16.6332Z" fill="#F8D74C"/>
<path d="M13.8472 16.6332L13.0186 15.0302L12.1019 14.7058L12.382 15.5292L12.764 16.8516L13.6489 16.9223C13.8076 16.935 13.9192 16.7724 13.8472 16.6332Z" fill="#F8D74C"/>
<path d="M8.1924 11.9454L8.39644 7.59485L10.833 9.55962L13.375 13.2553C12.6676 13.801 10.9265 14.8458 9.62067 14.6587C8.31483 14.4716 8.12439 12.7719 8.1924 11.9454Z" fill="#F8D74C"/>
<path d="M9.08293 8.14842L8.92607 11.2926C8.86302 12.0128 9.03956 13.4939 10.2501 13.657C11.1622 13.7799 12.3033 13.2933 13.091 12.8425L10.833 9.55962L9.08293 8.14842Z" fill="#485CC2"/>
<path d="M9.96162 8.85697L9.90546 9.9827C9.84241 10.7029 10.0189 12.1841 11.2295 12.3471C11.6659 12.4059 12.1548 12.3252 12.6323 12.1756L10.833 9.55962L9.96162 8.85697Z" fill="#D74B4B"/>
<path d="M16.1131 11.9454L15.9091 7.59485L13.4726 9.55962L10.9306 13.2553C11.6379 13.801 13.379 14.8458 14.6849 14.6587C15.9907 14.4716 16.1812 12.7719 16.1131 11.9454Z" fill="#F8D74C"/>
<path d="M15.2226 8.14842L15.3795 11.2926C15.4425 12.0128 15.266 13.4939 14.0555 13.657C13.1434 13.7799 12.0022 13.2933 11.2145 12.8425L13.4726 9.55962L15.2226 8.14842Z" fill="#485CC2"/>
<path d="M14.3439 8.85697L14.4001 9.9827C14.4631 10.7029 14.2866 12.1841 13.0761 12.3471C12.6396 12.4059 12.1507 12.3252 11.6732 12.1756L13.4726 9.55962L14.3439 8.85697Z" fill="#D74B4B"/>
<path fill-rule="evenodd" clip-rule="evenodd" d="M8.3412 9.78924C8.92401 8.63206 10.0595 7.62392 10.5884 7.25135L10.6276 7.3225C10.1058 7.69013 8.98534 8.68634 8.41332 9.82209C8.12787 10.3889 7.98095 10.9863 8.10864 11.5572C8.2363 12.128 8.64024 12.6804 9.47296 13.1508L9.42662 13.2295C8.58251 12.7527 8.16149 12.186 8.02773 11.588C7.89401 10.9901 8.04923 10.3689 8.3412 9.78924Z" fill="#3FB47C"/>
<path d="M10.3076 7.16165L9.70572 8.06275L9.22422 8.59155L8.8088 9.08429L8.49134 9.55961L8.34227 9.8772L8.13966 10.4352L8.0195 10.9286C7.92142 11.0953 8.0871 11.6728 8.1822 11.9407L8.56691 12.5273C8.36238 12.4118 8.04318 11.9853 7.90915 11.7865L7.60067 10.3301L7.89397 11.142L7.79978 9.51945L7.99815 10.9649L7.99453 10.7577L7.96671 9.3881L8.16522 10.2695L8.14467 8.7809L8.27497 9.83918L8.48373 8.35702L8.39727 9.63133L8.74835 7.98341L8.60109 9.28491L9.04104 7.88208L8.7415 9.04627L9.20925 7.9771L9.04886 8.67628L9.62475 7.54513L9.37458 8.2141L9.99459 7.28224L9.61152 8.00953L10.3076 7.16165Z" fill="#3FB47C"/>
<path d="M10.4926 7.60317L9.61116 8.12001L8.86488 8.96229L8.2308 10.04L8.14129 10.2627L8.0464 10.5519L8.03198 10.9462L7.94052 11.1016L7.91884 11.75L8.28222 12.1563L8.3864 11.3535L8.07003 11.7205L8.5647 10.8798L8.05413 11.52L8.62551 10.4067L8.04342 11.0832L8.867 9.88253L8.10447 10.5528L9.04711 9.47685L8.21961 10.1295L9.34052 9.07774L8.55784 9.55469L9.49695 8.81187L8.73964 9.24571L10.092 8.05657L9.13861 8.6956L10.4926 7.60317Z" fill="#3FB47C"/>
<path fill-rule="evenodd" clip-rule="evenodd" d="M15.6587 9.78924C15.0759 8.63206 13.9404 7.62392 13.4115 7.25135L13.3723 7.3225C13.8942 7.69013 15.0146 8.68634 15.5866 9.82209C15.8721 10.3889 16.019 10.9863 15.8913 11.5572C15.7636 12.128 15.3597 12.6804 14.527 13.1508L14.5733 13.2295C15.4174 12.7527 15.8385 12.186 15.9722 11.588C16.1059 10.9901 15.9507 10.3689 15.6587 9.78924Z" fill="#3FB47C"/>
<path d="M13.6923 7.16165L14.2942 8.06275L14.7757 8.59155L15.1911 9.08429L15.5086 9.55961L15.6577 9.8772L15.8603 10.4352L15.9804 10.9286C16.0785 11.0953 15.9128 11.6728 15.8177 11.9407L15.433 12.5273C15.6376 12.4118 15.9568 11.9853 16.0908 11.7865L16.3993 10.3301L16.106 11.142L16.2002 9.51945L16.0018 10.9649L16.0054 10.7577L16.0332 9.3881L15.8347 10.2695L15.8553 8.7809L15.725 9.83918L15.5162 8.35702L15.6027 9.63133L15.2516 7.98341L15.3988 9.28491L14.9589 7.88208L15.2584 9.04627L14.7907 7.9771L14.9511 8.67628L14.3752 7.54513L14.6254 8.2141L14.0053 7.28224L14.3884 8.00953L13.6923 7.16165Z" fill="#3FB47C"/>
<path d="M13.5073 7.60317L14.3888 8.12001L15.1351 8.96229L15.7691 10.04L15.8587 10.2627L15.9535 10.5519L15.968 10.9462L16.0594 11.1016L16.0811 11.75L15.7177 12.1563L15.6135 11.3535L15.9299 11.7205L15.4352 10.8798L15.9458 11.52L15.3744 10.4067L15.9565 11.0832L15.1329 9.88253L15.8955 10.5528L14.9528 9.47685L15.7803 10.1295L14.6594 9.07774L15.4421 9.55469L14.503 8.81187L15.2603 9.24571L13.908 8.05657L14.8613 8.6956L13.5073 7.60317Z" fill="#3FB47C"/>
<path d="M7.42855 13.2429L7.63259 8.89233L10.0691 10.8571L12.6111 14.5528C11.9038 15.0985 10.1627 16.1433 8.85682 15.9562C7.55097 15.769 7.36054 14.0694 7.42855 13.2429Z" fill="#F8D74C"/>
<path d="M8.31908 9.44591L8.16222 12.59C8.09917 13.3102 8.2757 14.7914 9.48622 14.9545C10.3983 15.0773 11.5395 14.5908 12.3272 14.1399L10.0691 10.8571L8.31908 9.44591Z" fill="#485CC2"/>
<path d="M9.19776 10.1545L9.1416 11.2802C9.07855 12.0004 9.25509 13.4816 10.4656 13.6446C10.902 13.7034 11.3909 13.6227 11.8685 13.4731L10.0691 10.8571L9.19776 10.1545Z" fill="#D74B4B"/>
<path d="M16.7751 13.2429L16.5711 8.89233L14.1346 10.8571L11.5926 14.5528C12.2999 15.0985 14.041 16.1433 15.3469 15.9562C16.6527 15.769 16.8431 14.0694 16.7751 13.2429Z" fill="#F8D74C"/>
<path d="M15.8846 9.44591L16.0415 12.59C16.1045 13.3102 15.928 14.7914 14.7175 14.9545C13.8054 15.0773 12.6642 14.5908 11.8765 14.1399L14.1346 10.8571L15.8846 9.44591Z" fill="#485CC2"/>
<path d="M15.0059 10.1545L15.0621 11.2802C15.1251 12.0004 14.9486 13.4816 13.7381 13.6446C13.3016 13.7034 12.8127 13.6227 12.3352 13.4731L14.1346 10.8571L15.0059 10.1545Z" fill="#D74B4B"/>
<path d="M8.05994 5.78607C8.30018 5.66816 9.47568 5.21289 10.0334 5H11.063V5.19652C11.1059 5.32753 11.3119 5.58955 11.7924 5.58955H12.0927C12.5732 5.58955 12.7791 5.32753 12.822 5.19652V5H13.8516C14.4093 5.21289 15.5848 5.66816 15.8251 5.78607L13.8516 6.12998L12.4788 6.96518L13.0794 8.04603L12.393 7.94777L11.9425 7.29122L11.492 7.94777L10.8056 8.04603L11.063 6.96518L10.0334 6.12998L8.05994 5.78607Z" fill="#962122"/>
<ellipse cx="12.007" cy="5.88413" rx="0.343211" ry="0.294777" fill="#F9F9F9"/>
<path d="M11.1059 5.83513L10.9772 5.98252H11.7495L12.0069 5.68774H11.3633L11.1059 5.83513Z" fill="#E77D42"/>
<path d="M14.4955 11.0631C14.4955 13.0336 13.4125 14.631 12.0765 14.631C10.7405 14.631 9.65747 13.0336 9.65747 11.0631C9.65747 9.09254 10.7405 7.49512 12.0765 7.49512C13.4125 7.49512 14.4955 9.09254 14.4955 11.0631Z" fill="#64BEDB"/>
<path d="M12.051 12.949H12.0157V12.9766C11.9965 12.9601 11.9845 12.936 11.9845 12.9094C11.9845 12.8607 12.025 12.82 12.0765 12.82C12.128 12.82 12.1685 12.8607 12.1685 12.9094C12.1685 12.936 12.1565 12.9601 12.1373 12.9766V12.949H12.102H12.051Z" stroke="#333333" stroke-width="0.0705921"/>
<path d="M11.351 13.3086C11.1638 13.3086 10.8569 13.1921 10.7269 13.1339C10.7685 13.2337 10.9349 13.3418 11.0129 13.3834H13.1713V13.1339H12.8073L12.5992 13.2337H12.0271V13.3086H11.351Z" fill="#F9F9F9"/>
<path d="M11.0324 13.3834H13.1713V13.4832H11.2361L11.0324 13.3834Z" fill="#D74B4B"/>
<path fill-rule="evenodd" clip-rule="evenodd" d="M13.6597 13.5031C14.0786 12.8852 14.3427 12.023 14.3427 11.0631C14.3427 10.1031 14.0786 9.24086 13.6597 8.62298C13.2401 8.004 12.6772 7.64482 12.0765 7.64482C11.4757 7.64482 10.9129 8.004 10.4932 8.62298C10.0743 9.24086 9.81025 10.1031 9.81025 11.0631C9.81025 12.023 10.0743 12.8852 10.4932 13.5031C10.9129 14.1221 11.4757 14.4813 12.0765 14.4813C12.6772 14.4813 13.2401 14.1221 13.6597 13.5031ZM12.0765 14.631C13.4125 14.631 14.4955 13.0336 14.4955 11.0631C14.4955 9.09254 13.4125 7.49512 12.0765 7.49512C10.7405 7.49512 9.65747 9.09254 9.65747 11.0631C9.65747 13.0336 10.7405 14.631 12.0765 14.631Z" fill="#E6E6E6"/>
<path d="M11.9701 8.24824C11.9707 8.24196 11.9785 8.24196 11.9792 8.24824L12.0091 8.53853C12.0097 8.54399 12.0161 8.54502 12.0179 8.53994L12.1137 8.26987C12.1158 8.26403 12.1233 8.26649 12.1225 8.27274L12.0844 8.56171C12.0837 8.56716 12.0896 8.57017 12.0925 8.56584L12.2471 8.33602C12.2505 8.33105 12.2571 8.33578 12.2549 8.34155L12.1515 8.60778C12.1495 8.61279 12.1546 8.61756 12.1584 8.61432L12.3603 8.44179C12.3646 8.43806 12.37 8.44472 12.3665 8.44956L12.2055 8.67331C12.2024 8.67752 12.2062 8.6837 12.2106 8.68177L12.4448 8.57933C12.4499 8.57712 12.4535 8.58521 12.449 8.58877L12.2423 8.75343C12.2385 8.75654 12.2406 8.76366 12.2453 8.76319L12.4945 8.73844C12.4999 8.73791 12.5015 8.74683 12.4963 8.74885L12.2594 8.84222C12.2549 8.84398 12.2553 8.85152 12.26 8.85256L12.5056 8.90733C12.5109 8.90851 12.5104 8.9176 12.505 8.91793L12.2553 8.93308C12.2505 8.93337 12.2492 8.94077 12.2535 8.94322L12.4774 9.07345C12.4822 9.07627 12.4796 9.08486 12.4743 9.08347L12.2303 9.01928C12.2257 9.01807 12.2228 9.02479 12.2263 9.02848L12.4118 9.22451C12.4158 9.22875 12.4113 9.2362 12.4066 9.23319L12.1864 9.09442C12.1823 9.09181 12.1779 9.09733 12.1804 9.10199L12.3138 9.34928C12.3167 9.35463 12.3107 9.36039 12.3068 9.35599L12.1268 9.15293C12.1235 9.1491 12.1179 9.15303 12.1193 9.15831L12.1907 9.43852C12.1922 9.44459 12.1851 9.44822 12.1824 9.44276L12.056 9.19047C12.0536 9.18572 12.0474 9.18776 12.0474 9.19326L12.0515 9.48561C12.0516 9.49194 12.0439 9.49318 12.0425 9.48706L11.979 9.20425C11.9778 9.19893 11.9714 9.19893 11.9702 9.20425L11.9067 9.48706C11.9053 9.49318 11.8976 9.49194 11.8977 9.48561L11.9018 9.19326C11.9019 9.18776 11.8956 9.18572 11.8933 9.19047L11.7669 9.44276C11.7641 9.44822 11.757 9.44459 11.7585 9.43852L11.8299 9.15831C11.8313 9.15303 11.8258 9.1491 11.8224 9.15293L11.6424 9.35599C11.6385 9.36039 11.6325 9.35463 11.6354 9.34928L11.7688 9.10199C11.7713 9.09733 11.7669 9.09181 11.7628 9.09442L11.5427 9.23319C11.5379 9.2362 11.5334 9.22875 11.5374 9.22451L11.723 9.02848C11.7265 9.02479 11.7235 9.01807 11.7189 9.01928L11.4749 9.08347C11.4696 9.08486 11.467 9.07627 11.4719 9.07345L11.6958 8.94322C11.7 8.94077 11.6987 8.93337 11.694 8.93308L11.4442 8.91793C11.4388 8.9176 11.4383 8.90851 11.4436 8.90733L11.6893 8.85256C11.6939 8.85152 11.6943 8.84398 11.6899 8.84222L11.4529 8.74885C11.4477 8.74683 11.4493 8.73791 11.4547 8.73844L11.7039 8.76319C11.7086 8.76366 11.7108 8.75654 11.7069 8.75343L11.5002 8.58877C11.4957 8.58521 11.4993 8.57712 11.5044 8.57933L11.7386 8.68177C11.743 8.6837 11.7468 8.67752 11.7437 8.67331L11.5827 8.44956C11.5793 8.44472 11.5846 8.43806 11.589 8.44179L11.7909 8.61432C11.7947 8.61756 11.7997 8.61279 11.7977 8.60778L11.6943 8.34155C11.6921 8.33578 11.6988 8.33105 11.7021 8.33602L11.8567 8.56584C11.8596 8.57017 11.8656 8.56716 11.8648 8.56171L11.8267 8.27274C11.8259 8.26649 11.8334 8.26403 11.8355 8.26987L11.9313 8.53994C11.9331 8.54502 11.9395 8.54399 11.9401 8.53853L11.9701 8.24824Z" fill="#F8D74C"/>
<path fill-rule="evenodd" clip-rule="evenodd" d="M12.0046 8.53917L11.9746 8.24888L11.9446 8.53917C11.9435 8.5501 11.9307 8.55216 11.9271 8.54199L11.8312 8.27192L11.8694 8.5609C11.8708 8.57178 11.8589 8.57781 11.8531 8.56915L11.6985 8.33933L11.8019 8.60557C11.8058 8.61559 11.7958 8.62514 11.7882 8.61864L11.5863 8.44611L11.7472 8.66986C11.7533 8.67829 11.7458 8.69064 11.737 8.68678L11.5028 8.58435L11.7094 8.74901C11.7172 8.75521 11.7129 8.76946 11.7035 8.76853L11.4543 8.74378L11.6913 8.83715C11.7002 8.84067 11.6994 8.85575 11.6901 8.85781L11.4445 8.91259L11.6942 8.92774C11.7036 8.92831 11.7062 8.94311 11.6978 8.94802L11.4739 9.07825L11.7179 9.01406C11.7271 9.01164 11.733 9.02507 11.726 9.03245L11.5405 9.22848L11.7606 9.08971C11.7689 9.08448 11.7777 9.09553 11.7727 9.10485L11.6393 9.35214L11.8192 9.14908C11.826 9.14143 11.837 9.14929 11.8343 9.15984L11.7629 9.44005L11.8893 9.18776C11.8941 9.17826 11.9065 9.18234 11.9064 9.19335L11.9023 9.4857L11.9657 9.20289C11.9681 9.19224 11.9811 9.19224 11.9835 9.20289L12.047 9.4857L12.0429 9.19335C12.0427 9.18234 12.0551 9.17826 12.0599 9.18776L12.1863 9.44005L12.1149 9.15984C12.1122 9.14929 12.1233 9.14143 12.13 9.14908L12.31 9.35214L12.1765 9.10485C12.1715 9.09553 12.1803 9.08448 12.1886 9.08971L12.4087 9.22848L12.2232 9.03245C12.2162 9.02507 12.2221 9.01164 12.2313 9.01406L12.4753 9.07825L12.2514 8.94802C12.243 8.94311 12.2456 8.92831 12.255 8.92774L12.5048 8.91259L12.2591 8.85781C12.2499 8.85575 12.249 8.84067 12.2579 8.83715L12.4949 8.74378L12.2457 8.76853C12.2363 8.76946 12.232 8.75521 12.2398 8.74901L12.4464 8.58435L12.2122 8.68678C12.2034 8.69064 12.1959 8.67829 12.202 8.66986L12.363 8.44611L12.1611 8.61864C12.1535 8.62514 12.1434 8.61559 12.1473 8.60557L12.2507 8.33933L12.0961 8.56915C12.0903 8.57781 12.0784 8.57178 12.0799 8.5609L12.118 8.27192L12.0221 8.54199C12.0185 8.55216 12.0057 8.5501 12.0046 8.53917ZM11.9792 8.24824C11.9785 8.24196 11.9707 8.24196 11.9701 8.24824L11.9401 8.53853C11.9395 8.54399 11.9331 8.54502 11.9313 8.53994L11.8355 8.26987C11.8334 8.26403 11.8259 8.26649 11.8267 8.27274L11.8648 8.56171C11.8656 8.56716 11.8596 8.57017 11.8567 8.56584L11.7021 8.33602C11.6988 8.33105 11.6921 8.33578 11.6943 8.34155L11.7977 8.60778C11.7997 8.61279 11.7947 8.61756 11.7909 8.61432L11.589 8.44179C11.5846 8.43806 11.5793 8.44472 11.5827 8.44956L11.7437 8.67331C11.7468 8.67752 11.743 8.6837 11.7386 8.68177L11.5044 8.57933C11.4993 8.57712 11.4957 8.58521 11.5002 8.58877L11.7069 8.75343C11.7108 8.75654 11.7086 8.76366 11.7039 8.76319L11.4547 8.73844C11.4493 8.73791 11.4477 8.74683 11.4529 8.74885L11.6899 8.84222C11.6943 8.84398 11.6939 8.85152 11.6893 8.85256L11.4436 8.90733C11.4383 8.90851 11.4388 8.9176 11.4442 8.91793L11.694 8.93308C11.6987 8.93337 11.7 8.94077 11.6958 8.94322L11.4719 9.07345C11.467 9.07627 11.4696 9.08486 11.4749 9.08347L11.7189 9.01928C11.7235 9.01807 11.7265 9.02479 11.723 9.02848L11.5374 9.22451C11.5334 9.22875 11.5379 9.2362 11.5427 9.23319L11.7628 9.09442C11.7669 9.09181 11.7713 9.09733 11.7688 9.10199L11.6354 9.34928C11.6325 9.35463 11.6385 9.36039 11.6424 9.35599L11.8224 9.15293C11.8258 9.1491 11.8313 9.15303 11.8299 9.15831L11.7585 9.43852C11.757 9.44459 11.7641 9.44822 11.7669 9.44276L11.8933 9.19047C11.8956 9.18572 11.9019 9.18776 11.9018 9.19326L11.8977 9.48561C11.8976 9.49194 11.9053 9.49318 11.9067 9.48706L11.9702 9.20425C11.9714 9.19893 11.9778 9.19893 11.979 9.20425L12.0425 9.48706C12.0439 9.49318 12.0516 9.49194 12.0515 9.48561L12.0474 9.19326C12.0474 9.18776 12.0536 9.18572 12.056 9.19047L12.1824 9.44276C12.1851 9.44822 12.1922 9.44459 12.1907 9.43852L12.1193 9.15831C12.1179 9.15303 12.1235 9.1491 12.1268 9.15293L12.3068 9.35599C12.3107 9.36039 12.3167 9.35463 12.3138 9.34928L12.1804 9.10199C12.1779 9.09733 12.1823 9.09181 12.1864 9.09442L12.4066 9.23319C12.4113 9.2362 12.4158 9.22875 12.4118 9.22451L12.2263 9.02848C12.2228 9.02479 12.2257 9.01807 12.2303 9.01928L12.4743 9.08347C12.4796 9.08486 12.4822 9.07627 12.4774 9.07345L12.2535 8.94322C12.2492 8.94077 12.2505 8.93337 12.2553 8.93308L12.505 8.91793C12.5104 8.9176 12.5109 8.90851 12.5056 8.90733L12.26 8.85256C12.2553 8.85152 12.2549 8.84398 12.2594 8.84222L12.4963 8.74885C12.5015 8.74683 12.4999 8.73791 12.4945 8.73844L12.2453 8.76319C12.2406 8.76366 12.2385 8.75654 12.2423 8.75343L12.449 8.58877C12.4535 8.58521 12.4499 8.57712 12.4448 8.57933L12.2106 8.68177C12.2062 8.6837 12.2024 8.67752 12.2055 8.67331L12.3665 8.44956C12.37 8.44472 12.3646 8.43806 12.3603 8.44179L12.1584 8.61432C12.1546 8.61756 12.1495 8.61279 12.1515 8.60778L12.2549 8.34155C12.2571 8.33578 12.2505 8.33105 12.2471 8.33602L12.0925 8.56584C12.0896 8.57017 12.0837 8.56716 12.0844 8.56171L12.1225 8.27274C12.1233 8.26649 12.1158 8.26403 12.1137 8.26987L12.0179 8.53994C12.0161 8.54502 12.0097 8.54399 12.0091 8.53853L11.9792 8.24824Z" fill="#333333"/>
<path d="M11.8723 8.76746C11.895 8.74986 11.9246 8.75032 11.9469 8.76861C11.9549 8.7752 11.9597 8.78595 11.9597 8.79741V8.85473C11.9597 8.86225 11.9573 8.86951 11.9531 8.87514L11.9338 8.90067L11.9429 8.91012L11.9622 8.8846C11.9685 8.87635 11.9719 8.86573 11.9719 8.85473V8.79741C11.9719 8.7813 11.9652 8.76619 11.9539 8.75693C11.9275 8.73526 11.8925 8.73472 11.8656 8.75556L11.8477 8.76946L11.8544 8.78136L11.8723 8.76746Z" fill="#333333"/>
<path d="M12.0836 8.75556C12.0567 8.73472 12.0217 8.73526 11.9953 8.75693C11.984 8.76619 11.9773 8.7813 11.9773 8.79741V8.85473C11.9773 8.86573 11.9807 8.87635 11.987 8.8846L12.0063 8.91012L12.0154 8.90067L11.9961 8.87514C11.9919 8.86951 11.9895 8.86225 11.9895 8.85473V8.79741C11.9895 8.78595 11.9943 8.7752 12.0023 8.76861C12.0246 8.75032 12.0542 8.74986 12.0769 8.76746L12.0948 8.78136L12.1015 8.76946L12.0836 8.75556Z" fill="#333333"/>
<path fill-rule="evenodd" clip-rule="evenodd" d="M11.9054 8.85072C11.8781 8.85072 11.856 8.82026 11.856 8.82026C11.856 8.82026 11.8781 8.78981 11.9054 8.78981C11.9327 8.78981 11.9548 8.82026 11.9548 8.82026C11.9548 8.82026 11.9327 8.85072 11.9054 8.85072ZM11.8795 8.81946L11.8785 8.82026L11.8795 8.82107C11.8873 8.82772 11.8964 8.83287 11.9054 8.83287C11.9144 8.83287 11.9235 8.82772 11.9314 8.82107L11.9323 8.82026L11.9314 8.81946C11.9235 8.8128 11.9144 8.80765 11.9054 8.80765C11.8964 8.80765 11.8873 8.8128 11.8795 8.81946Z" fill="#333333"/>
<path fill-rule="evenodd" clip-rule="evenodd" d="M12.0443 8.85072C12.017 8.85072 11.9949 8.82026 11.9949 8.82026C11.9949 8.82026 12.017 8.78981 12.0443 8.78981C12.0716 8.78981 12.0938 8.82026 12.0938 8.82026C12.0938 8.82026 12.0716 8.85072 12.0443 8.85072ZM12.0184 8.81946L12.0175 8.82026L12.0184 8.82107C12.0262 8.82772 12.0354 8.83287 12.0443 8.83287C12.0533 8.83287 12.0625 8.82772 12.0703 8.82107L12.0712 8.82026L12.0703 8.81946C12.0625 8.8128 12.0533 8.80765 12.0443 8.80765C12.0354 8.80765 12.0262 8.8128 12.0184 8.81946Z" fill="#333333"/>
<path fill-rule="evenodd" clip-rule="evenodd" d="M11.948 8.93C11.9508 8.92767 11.9542 8.92643 11.9577 8.92643H11.9668C11.9713 8.92643 11.9749 8.93065 11.9749 8.93587V8.93814C11.9749 8.93937 11.9758 8.94037 11.9768 8.94037C11.9779 8.94037 11.9787 8.93937 11.9787 8.93814V8.93587C11.9787 8.93065 11.9823 8.92643 11.9868 8.92643H11.9959C11.9994 8.92643 12.0028 8.92767 12.0057 8.93L12.0328 8.95193C12.038 8.95617 12.0377 8.96532 12.0323 8.96916L11.9985 8.99301C11.9919 8.99761 11.9844 9.00005 11.9768 9.00005C11.9692 9.00005 11.9617 8.99761 11.9552 8.99301L11.9213 8.96916C11.9159 8.96532 11.9156 8.95617 11.9209 8.95193L11.948 8.93ZM11.9577 8.94427C11.9573 8.94427 11.957 8.94441 11.9566 8.94467L11.9378 8.95993L11.963 8.97772C11.9672 8.98065 11.972 8.9822 11.9768 8.9822C11.9817 8.9822 11.9864 8.98065 11.9906 8.97772L12.0158 8.95993L11.997 8.94467C11.9967 8.94441 11.9963 8.94427 11.9959 8.94427H11.9932C11.9909 8.95236 11.9845 8.95822 11.9768 8.95822C11.9692 8.95822 11.9627 8.95236 11.9605 8.94427H11.9577Z" fill="#333333"/>
<path d="M10.7014 12.8345C10.574 12.8761 10.2838 12.9742 10.1412 13.0341L10.0139 13.1089L9.60645 11.7117L9.7083 11.5121L9.86108 11.3125L10.0902 11.1877L10.956 11.2376L14.3681 11.3125V11.9363L13.8843 13.0341L12.8148 12.6099L13.2731 12.3854L12.3055 12.5101C12.2207 12.4519 12.0407 12.3255 12 12.2856C11.9592 12.2456 11.8302 12.2357 11.7708 12.2357L12.1273 12.1109H11.4398L11.2106 11.9363L11.0324 11.6369H10.8287L10.574 11.4123V11.5121L10.7014 11.6369C10.8966 11.8032 11.2565 12.1458 11.1342 12.1858H10.7778V12.2856L11.2106 12.4353H10.8287H10.4722L10.3703 12.56L10.7014 12.6099L11.0324 12.8345H10.7014Z" fill="#3FB47C"/>
<path d="M9.65746 15.2796L9.12274 14.3065H10.1922L9.86117 15.2796H9.65746Z" fill="#F9F9F9"/>
<path d="M9.75932 15.579C9.89236 15.579 10.0055 15.4957 10.0475 15.3794H14.852V15.1798H10.0475C10.0055 15.0635 9.89236 14.9802 9.75932 14.9802C9.63301 14.9802 9.5246 15.0553 9.47805 15.1624L9.3519 15.08C9.22459 15.1382 8.94959 15.2596 8.8681 15.2796L9.3519 15.4792L9.4831 15.4078C9.53211 15.509 9.63737 15.579 9.75932 15.579Z" fill="#E6E6E6"/>
<path d="M10.3195 14.9303C10.3195 14.7649 10.4563 14.6309 10.6251 14.6309H13.5788C13.7476 14.6309 13.8844 14.7649 13.8844 14.9303V15.579C13.8844 15.7444 13.7476 15.8784 13.5788 15.8784H10.6251C10.4563 15.8784 10.3195 15.7444 10.3195 15.579V14.9303Z" fill="#E77D42"/>
<path d="M9.93657 10.1457L9.75928 10.3229V11.4124L14.4445 11.4873V11.3607L14.0395 11.1582L13.533 11.2595L13.1278 11.057L12.7479 10.5254L12.5453 10.4242L12.4439 10.576L12.368 10.2723L12.1653 10.0951H11.9374L11.8614 9.94322L11.6335 9.86728L11.3802 9.94322H11.2536L10.9496 9.74072H10.7724L10.2405 10.0192L10.0379 10.0951L9.93657 10.1457Z" fill="#F9F9F9"/>
<path d="M0 18H24V24H0V18Z" fill="#D74B4B"/>
</svg>
