<svg width="32" height="24" viewBox="0 0 32 24" fill="none" xmlns="http://www.w3.org/2000/svg">
<rect width="32" height="24" rx="2" fill="#F8D74C"/>
<path d="M0 12H32V18H0V12Z" fill="#485CC2"/>
<path d="M0 18H32V24H0V18Z" fill="#D74B4B"/>
<path d="M15.2892 17.7418L16.051 15.3046V17.8745L15.5306 17.9945C15.3775 18.0298 15.2431 17.8891 15.2892 17.7418Z" fill="#D74B4B"/>
<path d="M16.8383 17.7418L16.051 15.3014V17.8745L16.5969 17.9945C16.75 18.0298 16.8844 17.8891 16.8383 17.7418Z" fill="#D74B4B"/>
<path d="M14.6367 17.257L15.4654 15.6539L16.2802 15.0801L16.0001 15.9034L15.72 17.4753L14.835 17.5461C14.6763 17.5588 14.5648 17.3962 14.6367 17.257Z" fill="#485CC2"/>
<path d="M17.4907 17.257L16.6621 15.6539L15.8473 15.0801L16.1274 15.9034L16.4075 17.4753L17.2924 17.5461C17.4511 17.5588 17.5627 17.3962 17.4907 17.257Z" fill="#485CC2"/>
<path d="M14.2803 16.6332L15.1089 15.0302L16.0255 14.7058L15.7454 15.5292L15.3635 16.8516L14.4786 16.9223C14.3198 16.935 14.2083 16.7724 14.2803 16.6332Z" fill="#F8D74C"/>
<path d="M17.8472 16.6332L17.0186 15.0302L16.1019 14.7058L16.382 15.5292L16.764 16.8516L17.6489 16.9223C17.8076 16.935 17.9192 16.7724 17.8472 16.6332Z" fill="#F8D74C"/>
<path d="M12.1924 11.9454L12.3964 7.59485L14.833 9.55962L17.375 13.2553C16.6676 13.801 14.9265 14.8458 13.6207 14.6587C12.3148 14.4716 12.1244 12.7719 12.1924 11.9454Z" fill="#F8D74C"/>
<path d="M13.0829 8.14842L12.9261 11.2926C12.863 12.0128 13.0396 13.4939 14.2501 13.657C15.1622 13.7799 16.3033 13.2933 17.091 12.8425L14.833 9.55962L13.0829 8.14842Z" fill="#485CC2"/>
<path d="M13.9616 8.85697L13.9055 9.9827C13.8424 10.7029 14.0189 12.1841 15.2295 12.3471C15.6659 12.4059 16.1548 12.3252 16.6323 12.1756L14.833 9.55962L13.9616 8.85697Z" fill="#D74B4B"/>
<path d="M20.1131 11.9454L19.9091 7.59485L17.4726 9.55962L14.9306 13.2553C15.6379 13.801 17.379 14.8458 18.6849 14.6587C19.9907 14.4716 20.1812 12.7719 20.1131 11.9454Z" fill="#F8D74C"/>
<path d="M19.2226 8.14842L19.3795 11.2926C19.4425 12.0128 19.266 13.4939 18.0555 13.657C17.1434 13.7799 16.0022 13.2933 15.2145 12.8425L17.4726 9.55962L19.2226 8.14842Z" fill="#485CC2"/>
<path d="M18.3439 8.85697L18.4001 9.9827C18.4631 10.7029 18.2866 12.1841 17.0761 12.3471C16.6396 12.4059 16.1507 12.3252 15.6732 12.1756L17.4726 9.55962L18.3439 8.85697Z" fill="#D74B4B"/>
<path fill-rule="evenodd" clip-rule="evenodd" d="M12.3412 9.78924C12.924 8.63206 14.0595 7.62392 14.5884 7.25135L14.6276 7.3225C14.1058 7.69013 12.9853 8.68634 12.4133 9.82209C12.1279 10.3889 11.981 10.9863 12.1086 11.5572C12.2363 12.128 12.6402 12.6804 13.473 13.1508L13.4266 13.2295C12.5825 12.7527 12.1615 12.186 12.0277 11.588C11.894 10.9901 12.0492 10.3689 12.3412 9.78924Z" fill="#3FB47C"/>
<path d="M14.3076 7.16165L13.7057 8.06275L13.2242 8.59155L12.8088 9.08429L12.4913 9.55961L12.3423 9.8772L12.1397 10.4352L12.0195 10.9286C11.9214 11.0953 12.0871 11.6728 12.1822 11.9407L12.5669 12.5273C12.3624 12.4118 12.0432 11.9853 11.9092 11.7865L11.6007 10.3301L11.894 11.142L11.7998 9.51945L11.9981 10.9649L11.9945 10.7577L11.9667 9.3881L12.1652 10.2695L12.1447 8.7809L12.275 9.83918L12.4837 8.35702L12.3973 9.63133L12.7484 7.98341L12.6011 9.28491L13.041 7.88208L12.7415 9.04627L13.2092 7.9771L13.0489 8.67628L13.6247 7.54513L13.3746 8.2141L13.9946 7.28224L13.6115 8.00953L14.3076 7.16165Z" fill="#3FB47C"/>
<path d="M14.4926 7.60317L13.6112 8.12001L12.8649 8.96229L12.2308 10.04L12.1413 10.2627L12.0464 10.5519L12.032 10.9462L11.9405 11.1016L11.9188 11.75L12.2822 12.1563L12.3864 11.3535L12.07 11.7205L12.5647 10.8798L12.0541 11.52L12.6255 10.4067L12.0434 11.0832L12.867 9.88253L12.1045 10.5528L13.0471 9.47685L12.2196 10.1295L13.3405 9.07774L12.5578 9.55469L13.497 8.81187L12.7396 9.24571L14.092 8.05657L13.1386 8.6956L14.4926 7.60317Z" fill="#3FB47C"/>
<path fill-rule="evenodd" clip-rule="evenodd" d="M19.6587 9.78924C19.0759 8.63206 17.9404 7.62392 17.4115 7.25135L17.3723 7.3225C17.8942 7.69013 19.0146 8.68634 19.5866 9.82209C19.8721 10.3889 20.019 10.9863 19.8913 11.5572C19.7636 12.128 19.3597 12.6804 18.527 13.1508L18.5733 13.2295C19.4174 12.7527 19.8385 12.186 19.9722 11.588C20.1059 10.9901 19.9507 10.3689 19.6587 9.78924Z" fill="#3FB47C"/>
<path d="M17.6923 7.16165L18.2942 8.06275L18.7757 8.59155L19.1911 9.08429L19.5086 9.55961L19.6577 9.8772L19.8603 10.4352L19.9804 10.9286C20.0785 11.0953 19.9128 11.6728 19.8177 11.9407L19.433 12.5273C19.6376 12.4118 19.9568 11.9853 20.0908 11.7865L20.3993 10.3301L20.106 11.142L20.2002 9.51945L20.0018 10.9649L20.0054 10.7577L20.0332 9.3881L19.8347 10.2695L19.8553 8.7809L19.725 9.83918L19.5162 8.35702L19.6027 9.63133L19.2516 7.98341L19.3988 9.28491L18.9589 7.88208L19.2584 9.04627L18.7907 7.9771L18.9511 8.67628L18.3752 7.54513L18.6254 8.2141L18.0053 7.28224L18.3884 8.00953L17.6923 7.16165Z" fill="#3FB47C"/>
<path d="M17.5073 7.60317L18.3888 8.12001L19.1351 8.96229L19.7691 10.04L19.8587 10.2627L19.9535 10.5519L19.968 10.9462L20.0594 11.1016L20.0811 11.75L19.7177 12.1563L19.6135 11.3535L19.9299 11.7205L19.4352 10.8798L19.9458 11.52L19.3744 10.4067L19.9565 11.0832L19.1329 9.88253L19.8955 10.5528L18.9528 9.47685L19.7803 10.1295L18.6594 9.07774L19.4421 9.55469L18.503 8.81187L19.2603 9.24571L17.908 8.05657L18.8613 8.6956L17.5073 7.60317Z" fill="#3FB47C"/>
<path d="M11.4285 13.2429L11.6326 8.89233L14.0691 10.8571L16.6111 14.5528C15.9038 15.0985 14.1627 16.1433 12.8568 15.9562C11.551 15.769 11.3605 14.0694 11.4285 13.2429Z" fill="#F8D74C"/>
<path d="M12.3191 9.44591L12.1622 12.59C12.0992 13.3102 12.2757 14.7914 13.4862 14.9545C14.3983 15.0773 15.5395 14.5908 16.3272 14.1399L14.0691 10.8571L12.3191 9.44591Z" fill="#485CC2"/>
<path d="M13.1978 10.1545L13.1416 11.2802C13.0786 12.0004 13.2551 13.4816 14.4656 13.6446C14.902 13.7034 15.3909 13.6227 15.8685 13.4731L14.0691 10.8571L13.1978 10.1545Z" fill="#D74B4B"/>
<path d="M20.7751 13.2429L20.5711 8.89233L18.1346 10.8571L15.5926 14.5528C16.2999 15.0985 18.041 16.1433 19.3469 15.9562C20.6527 15.769 20.8431 14.0694 20.7751 13.2429Z" fill="#F8D74C"/>
<path d="M19.8846 9.44591L20.0415 12.59C20.1045 13.3102 19.928 14.7914 18.7175 14.9545C17.8054 15.0773 16.6642 14.5908 15.8765 14.1399L18.1346 10.8571L19.8846 9.44591Z" fill="#485CC2"/>
<path d="M19.0059 10.1545L19.0621 11.2802C19.1251 12.0004 18.9486 13.4816 17.7381 13.6446C17.3016 13.7034 16.8127 13.6227 16.3352 13.4731L18.1346 10.8571L19.0059 10.1545Z" fill="#D74B4B"/>
<path d="M12.0599 5.78607C12.3002 5.66816 13.4757 5.21289 14.0334 5H15.063V5.19652C15.1059 5.32753 15.3119 5.58955 15.7924 5.58955H16.0927C16.5732 5.58955 16.7791 5.32753 16.822 5.19652V5H17.8516C18.4093 5.21289 19.5848 5.66816 19.8251 5.78607L17.8516 6.12998L16.4788 6.96518L17.0794 8.04603L16.393 7.94777L15.9425 7.29122L15.492 7.94777L14.8056 8.04603L15.063 6.96518L14.0334 6.12998L12.0599 5.78607Z" fill="#962122"/>
<ellipse cx="16.007" cy="5.88413" rx="0.343211" ry="0.294777" fill="#F9F9F9"/>
<path d="M15.1059 5.83513L14.9772 5.98252H15.7495L16.0069 5.68774H15.3633L15.1059 5.83513Z" fill="#E77D42"/>
<path d="M18.4955 11.0631C18.4955 13.0336 17.4125 14.631 16.0765 14.631C14.7405 14.631 13.6575 13.0336 13.6575 11.0631C13.6575 9.09254 14.7405 7.49512 16.0765 7.49512C17.4125 7.49512 18.4955 9.09254 18.4955 11.0631Z" fill="#64BEDB"/>
<path d="M16.051 12.949H16.0157V12.9766C15.9965 12.9601 15.9845 12.936 15.9845 12.9094C15.9845 12.8607 16.025 12.82 16.0765 12.82C16.128 12.82 16.1685 12.8607 16.1685 12.9094C16.1685 12.936 16.1565 12.9601 16.1373 12.9766V12.949H16.102H16.051Z" stroke="#333333" stroke-width="0.0705921"/>
<path d="M15.351 13.3086C15.1638 13.3086 14.8569 13.1921 14.7269 13.1339C14.7685 13.2337 14.9349 13.3418 15.0129 13.3834H17.1713V13.1339H16.8073L16.5992 13.2337H16.0271V13.3086H15.351Z" fill="#F9F9F9"/>
<path d="M15.0324 13.3834H17.1713V13.4832H15.2361L15.0324 13.3834Z" fill="#D74B4B"/>
<path fill-rule="evenodd" clip-rule="evenodd" d="M17.6597 13.5031C18.0786 12.8852 18.3427 12.023 18.3427 11.0631C18.3427 10.1031 18.0786 9.24086 17.6597 8.62298C17.2401 8.004 16.6772 7.64482 16.0765 7.64482C15.4757 7.64482 14.9129 8.004 14.4932 8.62298C14.0743 9.24086 13.8103 10.1031 13.8103 11.0631C13.8103 12.023 14.0743 12.8852 14.4932 13.5031C14.9129 14.1221 15.4757 14.4813 16.0765 14.4813C16.6772 14.4813 17.2401 14.1221 17.6597 13.5031ZM16.0765 14.631C17.4125 14.631 18.4955 13.0336 18.4955 11.0631C18.4955 9.09254 17.4125 7.49512 16.0765 7.49512C14.7405 7.49512 13.6575 9.09254 13.6575 11.0631C13.6575 13.0336 14.7405 14.631 16.0765 14.631Z" fill="#E6E6E6"/>
<path d="M15.9701 8.24824C15.9707 8.24196 15.9785 8.24196 15.9792 8.24824L16.0091 8.53853C16.0097 8.54399 16.0161 8.54502 16.0179 8.53994L16.1137 8.26987C16.1158 8.26403 16.1233 8.26649 16.1225 8.27274L16.0844 8.56171C16.0837 8.56716 16.0896 8.57017 16.0925 8.56584L16.2471 8.33602C16.2505 8.33105 16.2571 8.33578 16.2549 8.34155L16.1515 8.60778C16.1495 8.61279 16.1546 8.61756 16.1584 8.61432L16.3603 8.44179C16.3646 8.43806 16.37 8.44472 16.3665 8.44956L16.2055 8.67331C16.2024 8.67752 16.2062 8.6837 16.2106 8.68177L16.4448 8.57933C16.4499 8.57712 16.4535 8.58521 16.449 8.58877L16.2423 8.75343C16.2385 8.75654 16.2406 8.76366 16.2453 8.76319L16.4945 8.73844C16.4999 8.73791 16.5015 8.74683 16.4963 8.74885L16.2594 8.84222C16.2549 8.84398 16.2553 8.85152 16.26 8.85256L16.5056 8.90733C16.5109 8.90851 16.5104 8.9176 16.505 8.91793L16.2553 8.93308C16.2505 8.93337 16.2492 8.94077 16.2535 8.94322L16.4774 9.07345C16.4822 9.07627 16.4796 9.08486 16.4743 9.08347L16.2303 9.01928C16.2257 9.01807 16.2228 9.02479 16.2263 9.02848L16.4118 9.22451C16.4158 9.22875 16.4113 9.2362 16.4066 9.23319L16.1864 9.09442C16.1823 9.09181 16.1779 9.09733 16.1804 9.10199L16.3138 9.34928C16.3167 9.35463 16.3107 9.36039 16.3068 9.35599L16.1268 9.15293C16.1235 9.1491 16.1179 9.15303 16.1193 9.15831L16.1907 9.43852C16.1922 9.44459 16.1851 9.44822 16.1824 9.44276L16.056 9.19047C16.0536 9.18572 16.0474 9.18776 16.0474 9.19326L16.0515 9.48561C16.0516 9.49194 16.0439 9.49318 16.0425 9.48706L15.979 9.20425C15.9778 9.19893 15.9714 9.19893 15.9702 9.20425L15.9067 9.48706C15.9053 9.49318 15.8976 9.49194 15.8977 9.48561L15.9018 9.19326C15.9019 9.18776 15.8956 9.18572 15.8933 9.19047L15.7669 9.44276C15.7641 9.44822 15.757 9.44459 15.7585 9.43852L15.8299 9.15831C15.8313 9.15303 15.8258 9.1491 15.8224 9.15293L15.6424 9.35599C15.6385 9.36039 15.6325 9.35463 15.6354 9.34928L15.7688 9.10199C15.7713 9.09733 15.7669 9.09181 15.7628 9.09442L15.5427 9.23319C15.5379 9.2362 15.5334 9.22875 15.5374 9.22451L15.723 9.02848C15.7265 9.02479 15.7235 9.01807 15.7189 9.01928L15.4749 9.08347C15.4696 9.08486 15.467 9.07627 15.4719 9.07345L15.6958 8.94322C15.7 8.94077 15.6987 8.93337 15.694 8.93308L15.4442 8.91793C15.4388 8.9176 15.4383 8.90851 15.4436 8.90733L15.6893 8.85256C15.6939 8.85152 15.6943 8.84398 15.6899 8.84222L15.4529 8.74885C15.4477 8.74683 15.4493 8.73791 15.4547 8.73844L15.7039 8.76319C15.7086 8.76366 15.7108 8.75654 15.7069 8.75343L15.5002 8.58877C15.4957 8.58521 15.4993 8.57712 15.5044 8.57933L15.7386 8.68177C15.743 8.6837 15.7468 8.67752 15.7437 8.67331L15.5827 8.44956C15.5793 8.44472 15.5846 8.43806 15.589 8.44179L15.7909 8.61432C15.7947 8.61756 15.7997 8.61279 15.7977 8.60778L15.6943 8.34155C15.6921 8.33578 15.6988 8.33105 15.7021 8.33602L15.8567 8.56584C15.8596 8.57017 15.8656 8.56716 15.8648 8.56171L15.8267 8.27274C15.8259 8.26649 15.8334 8.26403 15.8355 8.26987L15.9313 8.53994C15.9331 8.54502 15.9395 8.54399 15.9401 8.53853L15.9701 8.24824Z" fill="#F8D74C"/>
<path fill-rule="evenodd" clip-rule="evenodd" d="M16.0046 8.53917L15.9746 8.24888L15.9446 8.53917C15.9435 8.5501 15.9307 8.55216 15.9271 8.54199L15.8312 8.27192L15.8694 8.5609C15.8708 8.57178 15.8589 8.57781 15.8531 8.56915L15.6985 8.33933L15.8019 8.60557C15.8058 8.61559 15.7958 8.62514 15.7882 8.61864L15.5863 8.44611L15.7472 8.66986C15.7533 8.67829 15.7458 8.69064 15.737 8.68678L15.5028 8.58435L15.7094 8.74901C15.7172 8.75521 15.7129 8.76946 15.7035 8.76853L15.4543 8.74378L15.6913 8.83715C15.7002 8.84067 15.6994 8.85575 15.6901 8.85781L15.4445 8.91259L15.6942 8.92774C15.7036 8.92831 15.7062 8.94311 15.6978 8.94802L15.4739 9.07825L15.7179 9.01406C15.7271 9.01164 15.733 9.02507 15.726 9.03245L15.5405 9.22848L15.7606 9.08971C15.7689 9.08448 15.7777 9.09553 15.7727 9.10485L15.6393 9.35214L15.8192 9.14908C15.826 9.14143 15.837 9.14929 15.8343 9.15984L15.7629 9.44005L15.8893 9.18776C15.8941 9.17826 15.9065 9.18234 15.9064 9.19335L15.9023 9.4857L15.9657 9.20289C15.9681 9.19224 15.9811 9.19224 15.9835 9.20289L16.047 9.4857L16.0429 9.19335C16.0427 9.18234 16.0551 9.17826 16.0599 9.18776L16.1863 9.44005L16.1149 9.15984C16.1122 9.14929 16.1233 9.14143 16.13 9.14908L16.31 9.35214L16.1765 9.10485C16.1715 9.09553 16.1803 9.08448 16.1886 9.08971L16.4087 9.22848L16.2232 9.03245C16.2162 9.02507 16.2221 9.01164 16.2313 9.01406L16.4753 9.07825L16.2514 8.94802C16.243 8.94311 16.2456 8.92831 16.255 8.92774L16.5048 8.91259L16.2591 8.85781C16.2499 8.85575 16.249 8.84067 16.2579 8.83715L16.4949 8.74378L16.2457 8.76853C16.2363 8.76946 16.232 8.75521 16.2398 8.74901L16.4464 8.58435L16.2122 8.68678C16.2034 8.69064 16.1959 8.67829 16.202 8.66986L16.363 8.44611L16.1611 8.61864C16.1535 8.62514 16.1434 8.61559 16.1473 8.60557L16.2507 8.33933L16.0961 8.56915C16.0903 8.57781 16.0784 8.57178 16.0799 8.5609L16.118 8.27192L16.0221 8.54199C16.0185 8.55216 16.0057 8.5501 16.0046 8.53917ZM15.9792 8.24824C15.9785 8.24196 15.9707 8.24196 15.9701 8.24824L15.9401 8.53853C15.9395 8.54399 15.9331 8.54502 15.9313 8.53994L15.8355 8.26987C15.8334 8.26403 15.8259 8.26649 15.8267 8.27274L15.8648 8.56171C15.8656 8.56716 15.8596 8.57017 15.8567 8.56584L15.7021 8.33602C15.6988 8.33105 15.6921 8.33578 15.6943 8.34155L15.7977 8.60778C15.7997 8.61279 15.7947 8.61756 15.7909 8.61432L15.589 8.44179C15.5846 8.43806 15.5793 8.44472 15.5827 8.44956L15.7437 8.67331C15.7468 8.67752 15.743 8.6837 15.7386 8.68177L15.5044 8.57933C15.4993 8.57712 15.4957 8.58521 15.5002 8.58877L15.7069 8.75343C15.7108 8.75654 15.7086 8.76366 15.7039 8.76319L15.4547 8.73844C15.4493 8.73791 15.4477 8.74683 15.4529 8.74885L15.6899 8.84222C15.6943 8.84398 15.6939 8.85152 15.6893 8.85256L15.4436 8.90733C15.4383 8.90851 15.4388 8.9176 15.4442 8.91793L15.694 8.93308C15.6987 8.93337 15.7 8.94077 15.6958 8.94322L15.4719 9.07345C15.467 9.07627 15.4696 9.08486 15.4749 9.08347L15.7189 9.01928C15.7235 9.01807 15.7265 9.02479 15.723 9.02848L15.5374 9.22451C15.5334 9.22875 15.5379 9.2362 15.5427 9.23319L15.7628 9.09442C15.7669 9.09181 15.7713 9.09733 15.7688 9.10199L15.6354 9.34928C15.6325 9.35463 15.6385 9.36039 15.6424 9.35599L15.8224 9.15293C15.8258 9.1491 15.8313 9.15303 15.8299 9.15831L15.7585 9.43852C15.757 9.44459 15.7641 9.44822 15.7669 9.44276L15.8933 9.19047C15.8956 9.18572 15.9019 9.18776 15.9018 9.19326L15.8977 9.48561C15.8976 9.49194 15.9053 9.49318 15.9067 9.48706L15.9702 9.20425C15.9714 9.19893 15.9778 9.19893 15.979 9.20425L16.0425 9.48706C16.0439 9.49318 16.0516 9.49194 16.0515 9.48561L16.0474 9.19326C16.0474 9.18776 16.0536 9.18572 16.056 9.19047L16.1824 9.44276C16.1851 9.44822 16.1922 9.44459 16.1907 9.43852L16.1193 9.15831C16.1179 9.15303 16.1235 9.1491 16.1268 9.15293L16.3068 9.35599C16.3107 9.36039 16.3167 9.35463 16.3138 9.34928L16.1804 9.10199C16.1779 9.09733 16.1823 9.09181 16.1864 9.09442L16.4066 9.23319C16.4113 9.2362 16.4158 9.22875 16.4118 9.22451L16.2263 9.02848C16.2228 9.02479 16.2257 9.01807 16.2303 9.01928L16.4743 9.08347C16.4796 9.08486 16.4822 9.07627 16.4774 9.07345L16.2535 8.94322C16.2492 8.94077 16.2505 8.93337 16.2553 8.93308L16.505 8.91793C16.5104 8.9176 16.5109 8.90851 16.5056 8.90733L16.26 8.85256C16.2553 8.85152 16.2549 8.84398 16.2594 8.84222L16.4963 8.74885C16.5015 8.74683 16.4999 8.73791 16.4945 8.73844L16.2453 8.76319C16.2406 8.76366 16.2385 8.75654 16.2423 8.75343L16.449 8.58877C16.4535 8.58521 16.4499 8.57712 16.4448 8.57933L16.2106 8.68177C16.2062 8.6837 16.2024 8.67752 16.2055 8.67331L16.3665 8.44956C16.37 8.44472 16.3646 8.43806 16.3603 8.44179L16.1584 8.61432C16.1546 8.61756 16.1495 8.61279 16.1515 8.60778L16.2549 8.34155C16.2571 8.33578 16.2505 8.33105 16.2471 8.33602L16.0925 8.56584C16.0896 8.57017 16.0837 8.56716 16.0844 8.56171L16.1225 8.27274C16.1233 8.26649 16.1158 8.26403 16.1137 8.26987L16.0179 8.53994C16.0161 8.54502 16.0097 8.54399 16.0091 8.53853L15.9792 8.24824Z" fill="#333333"/>
<path d="M15.8723 8.76746C15.895 8.74986 15.9246 8.75032 15.9469 8.76861C15.9549 8.7752 15.9597 8.78595 15.9597 8.79741V8.85473C15.9597 8.86225 15.9573 8.86951 15.9531 8.87514L15.9338 8.90067L15.9429 8.91012L15.9622 8.8846C15.9685 8.87635 15.9719 8.86573 15.9719 8.85473V8.79741C15.9719 8.7813 15.9652 8.76619 15.9539 8.75693C15.9275 8.73526 15.8925 8.73472 15.8656 8.75556L15.8477 8.76946L15.8544 8.78136L15.8723 8.76746Z" fill="#333333"/>
<path d="M16.0836 8.75556C16.0567 8.73472 16.0217 8.73526 15.9953 8.75693C15.984 8.76619 15.9773 8.7813 15.9773 8.79741V8.85473C15.9773 8.86573 15.9807 8.87635 15.987 8.8846L16.0063 8.91012L16.0154 8.90067L15.9961 8.87514C15.9919 8.86951 15.9895 8.86225 15.9895 8.85473V8.79741C15.9895 8.78595 15.9943 8.7752 16.0023 8.76861C16.0246 8.75032 16.0542 8.74986 16.0769 8.76746L16.0948 8.78136L16.1015 8.76946L16.0836 8.75556Z" fill="#333333"/>
<path fill-rule="evenodd" clip-rule="evenodd" d="M15.9054 8.85072C15.8781 8.85072 15.856 8.82026 15.856 8.82026C15.856 8.82026 15.8781 8.78981 15.9054 8.78981C15.9327 8.78981 15.9548 8.82026 15.9548 8.82026C15.9548 8.82026 15.9327 8.85072 15.9054 8.85072ZM15.8795 8.81946L15.8785 8.82026L15.8795 8.82107C15.8873 8.82772 15.8964 8.83287 15.9054 8.83287C15.9144 8.83287 15.9235 8.82772 15.9314 8.82107L15.9323 8.82026L15.9314 8.81946C15.9235 8.8128 15.9144 8.80765 15.9054 8.80765C15.8964 8.80765 15.8873 8.8128 15.8795 8.81946Z" fill="#333333"/>
<path fill-rule="evenodd" clip-rule="evenodd" d="M16.0443 8.85072C16.017 8.85072 15.9949 8.82026 15.9949 8.82026C15.9949 8.82026 16.017 8.78981 16.0443 8.78981C16.0716 8.78981 16.0938 8.82026 16.0938 8.82026C16.0938 8.82026 16.0716 8.85072 16.0443 8.85072ZM16.0184 8.81946L16.0175 8.82026L16.0184 8.82107C16.0262 8.82772 16.0354 8.83287 16.0443 8.83287C16.0533 8.83287 16.0625 8.82772 16.0703 8.82107L16.0712 8.82026L16.0703 8.81946C16.0625 8.8128 16.0533 8.80765 16.0443 8.80765C16.0354 8.80765 16.0262 8.8128 16.0184 8.81946Z" fill="#333333"/>
<path fill-rule="evenodd" clip-rule="evenodd" d="M15.948 8.93C15.9508 8.92767 15.9542 8.92643 15.9577 8.92643H15.9668C15.9713 8.92643 15.9749 8.93065 15.9749 8.93587V8.93814C15.9749 8.93937 15.9758 8.94037 15.9768 8.94037C15.9779 8.94037 15.9787 8.93937 15.9787 8.93814V8.93587C15.9787 8.93065 15.9823 8.92643 15.9868 8.92643H15.9959C15.9994 8.92643 16.0028 8.92767 16.0057 8.93L16.0328 8.95193C16.038 8.95617 16.0377 8.96532 16.0323 8.96916L15.9985 8.99301C15.9919 8.99761 15.9844 9.00005 15.9768 9.00005C15.9692 9.00005 15.9617 8.99761 15.9552 8.99301L15.9213 8.96916C15.9159 8.96532 15.9156 8.95617 15.9209 8.95193L15.948 8.93ZM15.9577 8.94427C15.9573 8.94427 15.957 8.94441 15.9566 8.94467L15.9378 8.95993L15.963 8.97772C15.9672 8.98065 15.972 8.9822 15.9768 8.9822C15.9817 8.9822 15.9864 8.98065 15.9906 8.97772L16.0158 8.95993L15.997 8.94467C15.9967 8.94441 15.9963 8.94427 15.9959 8.94427H15.9932C15.9909 8.95236 15.9845 8.95822 15.9768 8.95822C15.9692 8.95822 15.9627 8.95236 15.9605 8.94427H15.9577Z" fill="#333333"/>
<path d="M14.7014 12.8345C14.574 12.8761 14.2838 12.9742 14.1412 13.0341L14.0139 13.1089L13.6064 11.7117L13.7083 11.5121L13.8611 11.3125L14.0902 11.1877L14.956 11.2376L18.3681 11.3125V11.9363L17.8843 13.0341L16.8148 12.6099L17.2731 12.3854L16.3055 12.5101C16.2207 12.4519 16.0407 12.3255 16 12.2856C15.9592 12.2456 15.8302 12.2357 15.7708 12.2357L16.1273 12.1109H15.4398L15.2106 11.9363L15.0324 11.6369H14.8287L14.574 11.4123V11.5121L14.7014 11.6369C14.8966 11.8032 15.2565 12.1458 15.1342 12.1858H14.7778V12.2856L15.2106 12.4353H14.8287H14.4722L14.3703 12.56L14.7014 12.6099L15.0324 12.8345H14.7014Z" fill="#3FB47C"/>
<path d="M13.6575 15.2796L13.1227 14.3065H14.1922L13.8612 15.2796H13.6575Z" fill="#F9F9F9"/>
<path d="M13.7593 15.579C13.8924 15.579 14.0055 15.4957 14.0475 15.3794H18.852V15.1798H14.0475C14.0055 15.0635 13.8924 14.9802 13.7593 14.9802C13.633 14.9802 13.5246 15.0553 13.4781 15.1624L13.3519 15.08C13.2246 15.1382 12.9496 15.2596 12.8681 15.2796L13.3519 15.4792L13.4831 15.4078C13.5321 15.509 13.6374 15.579 13.7593 15.579Z" fill="#E6E6E6"/>
<path d="M14.3195 14.9303C14.3195 14.7649 14.4563 14.6309 14.6251 14.6309H17.5788C17.7476 14.6309 17.8844 14.7649 17.8844 14.9303V15.579C17.8844 15.7444 17.7476 15.8784 17.5788 15.8784H14.6251C14.4563 15.8784 14.3195 15.7444 14.3195 15.579V14.9303Z" fill="#E77D42"/>
<path d="M13.9366 10.1457L13.7593 10.3229V11.4124L18.4445 11.4873V11.3607L18.0395 11.1582L17.533 11.2595L17.1278 11.057L16.7479 10.5254L16.5453 10.4242L16.4439 10.576L16.368 10.2723L16.1653 10.0951H15.9374L15.8614 9.94322L15.6335 9.86728L15.3802 9.94322H15.2536L14.9496 9.74072H14.7724L14.2405 10.0192L14.0379 10.0951L13.9366 10.1457Z" fill="#F9F9F9"/>
</svg>
