<svg width="32" height="24" viewBox="0 0 32 24" fill="none" xmlns="http://www.w3.org/2000/svg">
<g clip-path="url(#clip0_440_1184)">
<rect width="32" height="24" rx="2" fill="#F9F9F9"/>
<path d="M0 16H32V24H0V16Z" fill="#64BEDB"/>
<path d="M0 0H32V8H0V0Z" fill="#64BEDB"/>
<path d="M15.9612 13.0835L15.7147 13.7917C15.696 13.8453 15.7131 13.9056 15.7565 13.9392L15.9508 14.0897C15.9712 14.1055 15.9958 14.114 16.0209 14.114H16.2596C16.2827 14.114 16.3052 14.1069 16.3246 14.0935L16.5577 13.9321C16.6006 13.9024 16.6211 13.8469 16.6085 13.794L16.4399 13.0835H15.9612Z" fill="#485CC2"/>
<path d="M16.4096 14.0346L16.2866 13.084H16.1173L15.8737 14.0211L15.8769 14.0325L15.9508 14.0897C15.9712 14.1055 15.9958 14.114 16.0209 14.114H16.2596C16.2827 14.114 16.3052 14.1069 16.3246 14.0935L16.4096 14.0346Z" fill="#F9F9F9"/>
<path d="M16.6418 11.9221L14.4253 9.80071C14.2037 10.486 14.0001 11.9835 14.9589 12.4918C15.9177 13.0001 16.4804 12.3238 16.6418 11.9221Z" fill="#485CC2"/>
<path d="M15.8806 12.638L15.8831 12.6358C15.5317 12.2526 15.362 11.8046 15.2961 11.3991C15.2468 11.096 15.2565 10.8227 15.2882 10.6266L15.0001 10.3508C14.9252 10.5925 14.8839 11.0006 14.9577 11.4541C15.0208 11.8422 15.1694 12.2715 15.4612 12.6631C15.6155 12.6844 15.7553 12.6727 15.8806 12.638Z" fill="#F9F9F9"/>
<path d="M15.701 11.9221L17.9175 9.80071C18.1391 10.486 18.3427 11.9835 17.3839 12.4918C16.4251 13.0001 15.8625 12.3238 15.701 11.9221Z" fill="#485CC2"/>
<path d="M16.4622 12.638L16.4598 12.6358C16.8111 12.2526 16.9808 11.8046 17.0468 11.3991C17.096 11.096 17.0863 10.8227 17.0546 10.6266L17.3427 10.3508C17.4177 10.5925 17.4589 11.0006 17.3852 11.4541C17.3221 11.8422 17.1735 12.2715 16.8816 12.6631C16.7274 12.6844 16.5875 12.6727 16.4622 12.638Z" fill="#F9F9F9"/>
<path d="M18.0938 10.1544L17.8547 10.087C18.0842 10.4643 18.3294 10.5758 18.4233 10.5844C18.6401 10.344 18.5739 9.86595 18.5136 9.65698L18.4233 9.84867L18.3276 9.71916L18.3011 9.90571L18.0938 9.68807L18.2001 10.0093L17.9503 9.84867L18.0938 10.1544Z" fill="#3FB47C"/>
<path d="M18.58 11.4694L18.375 11.3317C18.4704 11.7604 18.6668 11.9418 18.753 11.9789C19.0367 11.8177 19.1289 11.3438 19.1396 11.1269L18.9917 11.2809L18.943 11.1286L18.8573 11.2973L18.7312 11.0269L18.7279 11.3645L18.543 11.135L18.58 11.4694Z" fill="#3FB47C"/>
<path d="M18.5384 12.7478L18.3559 12.5827C18.3868 13.0204 18.5543 13.2275 18.6341 13.2764C18.9387 13.1568 19.1002 12.7009 19.1429 12.4878L18.9737 12.6194L18.9481 12.4617L18.8382 12.6167L18.7536 12.3314L18.7002 12.6649L18.5514 12.4118L18.5384 12.7478Z" fill="#3FB47C"/>
<path d="M18.0272 14.0041L18.0484 13.7622C17.7137 14.0553 17.6493 14.3115 17.6589 14.403C17.943 14.5635 18.411 14.407 18.6094 14.3086L18.399 14.2596L18.5106 14.1429L18.3178 14.1538L18.4963 13.9132L18.1939 14.0774L18.3068 13.8073L18.0272 14.0041Z" fill="#3FB47C"/>
<path fill-rule="evenodd" clip-rule="evenodd" d="M18.3065 9.9661L18.6878 11.2391C18.7388 11.4817 18.7968 11.9591 18.8119 12.5069C18.8216 12.8554 18.7226 13.1874 18.6125 13.4414C18.5574 13.5686 18.4993 13.6768 18.45 13.7583C18.4013 13.839 18.36 13.8957 18.3383 13.9186C18.0609 14.2102 17.7106 14.5511 16.9143 14.6284L16.9467 14.5624C17.7178 14.4876 18.0124 14.1532 18.2831 13.8687C18.299 13.8519 18.3369 13.801 18.3851 13.7211C18.4328 13.6421 18.4894 13.5368 18.5432 13.4128C18.6508 13.1645 18.7459 12.8433 18.7367 12.5089C18.7216 11.9651 18.664 11.4931 18.6142 11.2554L18.2342 9.98669L18.3065 9.9661Z" fill="#3FB47C"/>
<path d="M14.2491 10.1544L14.4882 10.087C14.2586 10.4643 14.0135 10.5758 13.9196 10.5844C13.7028 10.344 13.769 9.86595 13.8292 9.65698L13.9196 9.84867L14.0152 9.71916L14.0418 9.90571L14.2491 9.68807L14.1428 10.0093L14.3926 9.84867L14.2491 10.1544Z" fill="#3FB47C"/>
<path d="M13.7629 11.4694L13.9679 11.3317C13.8725 11.7604 13.6761 11.9418 13.5898 11.9789C13.3062 11.8177 13.2139 11.3438 13.2033 11.1269L13.3512 11.2809L13.3999 11.1286L13.4856 11.2973L13.6116 11.0269L13.615 11.3645L13.7999 11.135L13.7629 11.4694Z" fill="#3FB47C"/>
<path d="M13.8045 12.7478L13.987 12.5827C13.9561 13.0204 13.7886 13.2275 13.7087 13.2764C13.4041 13.1568 13.2427 12.7009 13.2 12.4878L13.3692 12.6194L13.3948 12.4617L13.5046 12.6167L13.5893 12.3314L13.6426 12.6649L13.7915 12.4118L13.8045 12.7478Z" fill="#3FB47C"/>
<path d="M14.3157 14.0041L14.2945 13.7622C14.6292 14.0553 14.6936 14.3115 14.684 14.403C14.3999 14.5635 13.9319 14.407 13.7334 14.3086L13.9439 14.2596L13.8322 14.1429L14.0251 14.1538L13.8465 13.9132L14.149 14.0774L14.0361 13.8073L14.3157 14.0041Z" fill="#3FB47C"/>
<path fill-rule="evenodd" clip-rule="evenodd" d="M14.0364 9.9661L13.6551 11.2391C13.6041 11.4817 13.5461 11.9591 13.5309 12.5069C13.5213 12.8554 13.6203 13.1874 13.7304 13.4414C13.7855 13.5686 13.8436 13.6768 13.8929 13.7583C13.9416 13.839 13.9828 13.8957 14.0046 13.9186C14.282 14.2102 14.6323 14.5511 15.4286 14.6284L15.3962 14.5624C14.6251 14.4876 14.3304 14.1532 14.0598 13.8687C14.0439 13.8519 14.006 13.801 13.9577 13.7211C13.9101 13.6421 13.8534 13.5368 13.7997 13.4128C13.6921 13.1645 13.5969 12.8433 13.6062 12.5089C13.6213 11.9651 13.6788 11.4931 13.7287 11.2554L14.1087 9.98669L14.0364 9.9661Z" fill="#3FB47C"/>
<path d="M16.3812 12.724L13.7725 11.1091C13.698 11.8255 13.8098 13.3327 14.8533 13.6308C15.8967 13.929 16.3067 13.1505 16.3812 12.724Z" fill="#485CC2"/>
<path d="M15.7852 13.5824L15.7872 13.5797C15.364 13.2779 15.1049 12.8748 14.9562 12.4919C14.845 12.2056 14.7978 11.9363 14.7881 11.7378L14.449 11.5279C14.4259 11.7799 14.4703 12.1876 14.6366 12.616C14.7789 12.9825 15.0134 13.3716 15.3802 13.6941C15.5355 13.6829 15.6698 13.6424 15.7852 13.5824Z" fill="#F9F9F9"/>
<path d="M15.9616 12.724L18.5703 11.1091C18.6448 11.8255 18.533 13.3327 17.4896 13.6308C16.4461 13.929 16.0362 13.1505 15.9616 12.724Z" fill="#485CC2"/>
<path d="M16.5576 13.5824L16.5557 13.5797C16.9789 13.2779 17.2379 12.8748 17.3866 12.4919C17.4978 12.2056 17.545 11.9363 17.5547 11.7378L17.8938 11.5279C17.917 11.7799 17.8726 12.1876 17.7062 12.616C17.5639 12.9825 17.3294 13.3716 16.9626 13.6941C16.8073 13.6829 16.673 13.6424 16.5576 13.5824Z" fill="#F9F9F9"/>
<path d="M15.8383 10.4189H16.088V9.21191C15.8211 9.4794 15.8627 10.128 15.8383 10.4189Z" fill="#485CC2"/>
<path d="M16.3387 10.4189H16.088V9.21191C16.355 9.4794 16.3143 10.128 16.3387 10.4189Z" fill="#485CC2"/>
<path fill-rule="evenodd" clip-rule="evenodd" d="M16.782 14.1709C16.8615 14.1808 16.9312 14.2276 16.9778 14.313C17.0159 14.3831 17.0353 14.4576 17.0226 14.5319C17.0098 14.6069 16.9682 14.6599 16.9246 14.6947C16.8429 14.76 16.7305 14.7815 16.6594 14.7858L16.6535 14.7862L16.4286 14.786C16.6133 14.9254 16.9289 15.0202 17.4316 14.8747L17.4857 15.1012C16.9071 15.2687 16.5172 15.1499 16.2814 14.9586C16.2273 15.0295 16.1589 15.0945 16.0739 15.1458C15.8332 15.2913 15.4843 15.313 15.003 15.0963L15.0834 14.8795C15.5287 15.0799 15.806 15.0406 15.9717 14.9405C16.036 14.9016 16.0871 14.8514 16.1269 14.7968C16.1243 14.7932 16.1217 14.7896 16.1192 14.786H15.5534L15.5413 14.7829C15.5106 14.7748 15.4751 14.7609 15.4417 14.7395C15.4088 14.7184 15.3717 14.6861 15.3468 14.6382C15.3201 14.5869 15.3117 14.5254 15.3281 14.4608C15.3435 14.4002 15.3787 14.3437 15.4271 14.2905C15.5557 14.1487 15.7316 14.1791 15.8577 14.2322C15.9892 14.2875 16.1126 14.3845 16.1869 14.4565L16.208 14.4769L16.2172 14.506C16.2214 14.5194 16.2269 14.5339 16.2338 14.5493C16.2354 14.5414 16.2367 14.5335 16.2378 14.5258L16.2432 14.489L16.2669 14.4624C16.3375 14.3832 16.4546 14.2747 16.5762 14.2148C16.6368 14.185 16.709 14.1619 16.782 14.1709ZM15.9517 14.5518C15.9001 14.513 15.8407 14.4757 15.7818 14.451C15.6757 14.4063 15.6126 14.4173 15.5774 14.4561C15.5439 14.493 15.5349 14.5157 15.5329 14.5238L15.5351 14.5265C15.5381 14.5295 15.5425 14.5331 15.5486 14.537C15.558 14.5431 15.569 14.5481 15.5798 14.5518H15.9517ZM16.4924 14.5518H16.6504C16.7057 14.548 16.7677 14.5308 16.7998 14.5051C16.8067 14.4996 16.8102 14.4952 16.8119 14.4926C16.8133 14.4905 16.8136 14.4887 16.8136 14.4887C16.8136 14.4887 16.8165 14.4722 16.7954 14.4335C16.7826 14.41 16.7712 14.4053 16.7583 14.4037C16.7387 14.4013 16.7071 14.4069 16.663 14.4286C16.6055 14.4569 16.5447 14.5036 16.4924 14.5518Z" fill="#485CC2"/>
<path fill-rule="evenodd" clip-rule="evenodd" d="M16 15.6571C18.0198 15.6571 19.6571 14.0198 19.6571 12C19.6571 9.98022 18.0198 8.34286 16 8.34286C13.9802 8.34286 12.3429 9.98022 12.3429 12C12.3429 14.0198 13.9802 15.6571 16 15.6571ZM16 16C18.2091 16 20 14.2091 20 12C20 9.79086 18.2091 8 16 8C13.7909 8 12 9.79086 12 12C12 14.2091 13.7909 16 16 16Z" fill="#F8D74C"/>
<path d="M16.092 9.99158L14.2063 13.163H17.9777L16.092 9.99158Z" fill="#E6E6E6"/>
<path d="M17.3322 12.0773H14.8519L14.2063 13.163H17.9777L17.3322 12.0773Z" fill="#64BEDB"/>
<path d="M16.0634 11.3916H16.1776V12.2488H16.0634V11.3916Z" fill="#F9F9F9"/>
<path d="M15.9776 11.1916L15.9491 11.3059H16.0062V11.3916L15.9776 11.4202V11.5059H16.2348V11.3345L16.1205 11.1631H16.0062L15.9776 11.1916Z" fill="#D74B4B"/>
<path fill-rule="evenodd" clip-rule="evenodd" d="M16.1205 11.6202C16.2783 11.6202 16.4062 11.4923 16.4062 11.3345C16.4062 11.1767 16.2783 11.0488 16.1205 11.0488C15.9627 11.0488 15.8348 11.1767 15.8348 11.3345C15.8348 11.4923 15.9627 11.6202 16.1205 11.6202ZM16.1205 11.7345C16.3414 11.7345 16.5205 11.5554 16.5205 11.3345C16.5205 11.1136 16.3414 10.9345 16.1205 10.9345C15.8996 10.9345 15.7205 11.1136 15.7205 11.3345C15.7205 11.5554 15.8996 11.7345 16.1205 11.7345Z" fill="#F9F9F9"/>
<path d="M16.6919 11.3345C16.6919 11.0189 16.4361 10.7631 16.1205 10.7631C15.8049 10.7631 15.5491 11.0189 15.5491 11.3345H15.6634C15.6634 11.082 15.868 10.8773 16.1205 10.8773C16.373 10.8773 16.5776 11.082 16.5776 11.3345H16.6919Z" fill="#D74B4B"/>
<path d="M14.7776 12.306L14.6062 12.5917L14.5776 12.6774L16.5491 12.6489L15.9776 12.2203L15.7205 11.9632L15.3491 11.8489L14.9776 12.2203L14.7776 12.306Z" fill="#F8D74C"/>
<path d="M15.4029 12.3701L15.2588 12.6065L15.2348 12.6774L16.8919 12.6538L16.4116 12.2991L16.1954 12.0863L15.8832 11.9917L15.571 12.2991L15.4029 12.3701Z" fill="#F8D74C"/>
<path d="M15.8998 12.3957L15.7706 12.6124L15.7491 12.6774L17.2348 12.6558L16.8041 12.3307L16.6103 12.1356L16.3304 12.0489L16.0505 12.3307L15.8998 12.3957Z" fill="#F8D74C"/>
<path d="M16.4994 12.4469L16.395 12.6242L16.3776 12.6774L17.5776 12.6597L17.2298 12.3937L17.0733 12.2341L16.8472 12.1632L16.6211 12.3937L16.4994 12.4469Z" fill="#F8D74C"/>
<circle cx="14.7999" cy="14.1714" r="0.0570278" fill="#D74B4B"/>
<circle r="0.0570278" transform="matrix(-1 0 0 1 17.4287 14.1714)" fill="#D74B4B"/>
<circle cx="14.057" cy="13.657" r="0.0570278" fill="#D74B4B"/>
<circle r="0.0570278" transform="matrix(-1 0 0 1 18.1715 13.657)" fill="#D74B4B"/>
<circle cx="13.5999" cy="13.8855" r="0.0570278" fill="#D74B4B"/>
<circle r="0.0570278" transform="matrix(-1 0 0 1 18.6287 13.8855)" fill="#D74B4B"/>
<circle cx="13.4284" cy="12.1143" r="0.0570278" fill="#D74B4B"/>
<circle r="0.0570278" transform="matrix(-1 0 0 1 18.4573 12.3999)" fill="#D74B4B"/>
<circle cx="13.8856" cy="11.2571" r="0.0570278" fill="#D74B4B"/>
<circle r="0.0570278" transform="matrix(-1 0 0 1 19.0287 11.0857)" fill="#D74B4B"/>
</g>
<defs>
<clipPath id="clip0_440_1184">
<rect width="32" height="24" rx="2" fill="white"/>
</clipPath>
</defs>
</svg>
