<svg width="24" height="24" viewBox="0 0 24 24" fill="none" xmlns="http://www.w3.org/2000/svg">
<g clip-path="url(#clip0_440_1182)">
<rect width="24" height="24" rx="12" fill="#F9F9F9"/>
<path d="M0 16H24V24H0V16Z" fill="#64BEDB"/>
<path d="M0 0H24V8H0V0Z" fill="#64BEDB"/>
<path d="M11.9613 13.0835L11.7147 13.7917C11.6961 13.8453 11.7132 13.9056 11.7565 13.9392L11.9508 14.0897C11.9712 14.1055 11.9958 14.114 12.021 14.114H12.2596C12.2827 14.114 12.3053 14.1069 12.3246 14.0935L12.5578 13.9321C12.6007 13.9024 12.6211 13.8469 12.6085 13.794L12.44 13.0835H11.9613Z" fill="#485CC2"/>
<path d="M12.4096 14.0346L12.2866 13.084H12.1174L11.8737 14.0211L11.8769 14.0325L11.9508 14.0897C11.9712 14.1055 11.9958 14.114 12.021 14.114H12.2596C12.2827 14.114 12.3053 14.1069 12.3246 14.0935L12.4096 14.0346Z" fill="#F9F9F9"/>
<path d="M12.6418 11.9221L10.4254 9.80071C10.2037 10.486 10.0001 11.9835 10.9589 12.4918C11.9177 13.0001 12.4804 12.3238 12.6418 11.9221Z" fill="#485CC2"/>
<path d="M11.8806 12.638L11.8831 12.6358C11.5318 12.2526 11.3621 11.8046 11.2961 11.3991C11.2468 11.096 11.2565 10.8227 11.2883 10.6266L11.0001 10.3508C10.9252 10.5925 10.884 11.0006 10.9577 11.4541C11.0208 11.8422 11.1694 12.2715 11.4612 12.6631C11.6155 12.6844 11.7553 12.6727 11.8806 12.638Z" fill="#F9F9F9"/>
<path d="M11.701 11.9221L13.9175 9.80071C14.1391 10.486 14.3427 11.9835 13.3839 12.4918C12.4251 13.0001 11.8625 12.3238 11.701 11.9221Z" fill="#485CC2"/>
<path d="M12.4622 12.638L12.4598 12.6358C12.8111 12.2526 12.9808 11.8046 13.0468 11.3991C13.096 11.096 13.0863 10.8227 13.0546 10.6266L13.3427 10.3508C13.4177 10.5925 13.4589 11.0006 13.3852 11.4541C13.3221 11.8422 13.1735 12.2715 12.8816 12.6631C12.7274 12.6844 12.5875 12.6727 12.4622 12.638Z" fill="#F9F9F9"/>
<path d="M14.0938 10.1544L13.8546 10.087C14.0842 10.4643 14.3294 10.5758 14.4233 10.5844C14.6401 10.344 14.5738 9.86595 14.5136 9.65698L14.4233 9.84867L14.3276 9.71916L14.301 9.90571L14.0938 9.68807L14.2001 10.0093L13.9503 9.84867L14.0938 10.1544Z" fill="#3FB47C"/>
<path d="M14.5799 11.4694L14.3749 11.3317C14.4703 11.7604 14.6667 11.9418 14.753 11.9789C15.0367 11.8177 15.1289 11.3438 15.1396 11.1269L14.9917 11.2809L14.9429 11.1286L14.8572 11.2973L14.7312 11.0269L14.7278 11.3645L14.543 11.135L14.5799 11.4694Z" fill="#3FB47C"/>
<path d="M14.5383 12.7478L14.3559 12.5827C14.3868 13.0204 14.5542 13.2275 14.6341 13.2764C14.9387 13.1568 15.1002 12.7009 15.1428 12.4878L14.9737 12.6194L14.948 12.4617L14.8382 12.6167L14.7536 12.3314L14.7002 12.6649L14.5513 12.4118L14.5383 12.7478Z" fill="#3FB47C"/>
<path d="M14.0272 14.0041L14.0484 13.7622C13.7136 14.0553 13.6492 14.3115 13.6589 14.403C13.943 14.5635 14.4109 14.407 14.6094 14.3086L14.399 14.2596L14.5106 14.1429L14.3178 14.1538L14.4963 13.9132L14.1939 14.0774L14.3068 13.8073L14.0272 14.0041Z" fill="#3FB47C"/>
<path fill-rule="evenodd" clip-rule="evenodd" d="M14.3065 9.9661L14.6877 11.2391C14.7388 11.4817 14.7967 11.9591 14.8119 12.5069C14.8216 12.8554 14.7226 13.1874 14.6125 13.4414C14.5574 13.5686 14.4992 13.6768 14.45 13.7583C14.4013 13.839 14.36 13.8957 14.3383 13.9186C14.0609 14.2102 13.7106 14.5511 12.9143 14.6284L12.9466 14.5624C13.7177 14.4876 14.0124 14.1532 14.2831 13.8687C14.299 13.8519 14.3369 13.801 14.3851 13.7211C14.4328 13.6421 14.4894 13.5368 14.5431 13.4128C14.6508 13.1645 14.7459 12.8433 14.7366 12.5089C14.7216 11.9651 14.664 11.4931 14.6142 11.2554L14.2342 9.98669L14.3065 9.9661Z" fill="#3FB47C"/>
<path d="M10.249 10.1544L10.4882 10.087C10.2586 10.4643 10.0134 10.5758 9.91956 10.5844C9.70274 10.344 9.76899 9.86595 9.82922 9.65698L9.91956 9.84867L10.0152 9.71916L10.0418 9.90571L10.249 9.68807L10.1428 10.0093L10.3925 9.84867L10.249 10.1544Z" fill="#3FB47C"/>
<path d="M9.76289 11.4694L9.96789 11.3317C9.87248 11.7604 9.67608 11.9418 9.58981 11.9789C9.30613 11.8177 9.21391 11.3438 9.20325 11.1269L9.35114 11.2809L9.39987 11.1286L9.48559 11.2973L9.61161 11.0269L9.615 11.3645L9.79983 11.135L9.76289 11.4694Z" fill="#3FB47C"/>
<path d="M9.80448 12.7478L9.98693 12.5827C9.95603 13.0204 9.78857 13.2275 9.7087 13.2764C9.40411 13.1568 9.24264 12.7009 9.19998 12.4878L9.36913 12.6194L9.39478 12.4617L9.5046 12.6167L9.58924 12.3314L9.6426 12.6649L9.7915 12.4118L9.80448 12.7478Z" fill="#3FB47C"/>
<path d="M10.3156 14.0041L10.2944 13.7622C10.6292 14.0553 10.6936 14.3115 10.684 14.403C10.3998 14.5635 9.93188 14.407 9.73341 14.3086L9.94384 14.2596L9.83221 14.1429L10.025 14.1538L9.84651 13.9132L10.149 14.0774L10.036 13.8073L10.3156 14.0041Z" fill="#3FB47C"/>
<path fill-rule="evenodd" clip-rule="evenodd" d="M10.0364 9.9661L9.65508 11.2391C9.60404 11.4817 9.54609 11.9591 9.53091 12.5069C9.52125 12.8554 9.62024 13.1874 9.73032 13.4414C9.78545 13.5686 9.84358 13.6768 9.89283 13.7583C9.94155 13.839 9.98281 13.8957 10.0046 13.9186C10.282 14.2102 10.6322 14.5511 11.4286 14.6284L11.3962 14.5624C10.6251 14.4876 10.3304 14.1532 10.0598 13.8687C10.0438 13.8519 10.0059 13.801 9.95772 13.7211C9.91002 13.6421 9.85341 13.5368 9.79968 13.4128C9.69206 13.1645 9.59691 12.8433 9.60618 12.5089C9.62125 11.9651 9.67882 11.4931 9.72866 11.2554L10.1086 9.98669L10.0364 9.9661Z" fill="#3FB47C"/>
<path d="M12.3812 12.724L9.77254 11.1091C9.69801 11.8255 9.80981 13.3327 10.8533 13.6308C11.8967 13.929 12.3067 13.1505 12.3812 12.724Z" fill="#485CC2"/>
<path d="M11.7852 13.5824L11.7872 13.5797C11.364 13.2779 11.1049 12.8748 10.9562 12.4919C10.845 12.2056 10.7978 11.9363 10.7881 11.7378L10.449 11.5279C10.4259 11.7799 10.4703 12.1876 10.6366 12.616C10.7789 12.9825 11.0134 13.3716 11.3802 13.6941C11.5355 13.6829 11.6698 13.6424 11.7852 13.5824Z" fill="#F9F9F9"/>
<path d="M11.9617 12.724L14.5703 11.1091C14.6449 11.8255 14.5331 13.3327 13.4896 13.6308C12.4461 13.929 12.0362 13.1505 11.9617 12.724Z" fill="#485CC2"/>
<path d="M12.5576 13.5824L12.5557 13.5797C12.9789 13.2779 13.238 12.8748 13.3867 12.4919C13.4978 12.2056 13.5451 11.9363 13.5548 11.7378L13.8938 11.5279C13.917 11.7799 13.8726 12.1876 13.7063 12.616C13.564 12.9825 13.3294 13.3716 12.9627 13.6941C12.8073 13.6829 12.673 13.6424 12.5576 13.5824Z" fill="#F9F9F9"/>
<path d="M11.8382 10.419H12.088V9.21204C11.821 9.47952 11.8626 10.1281 11.8382 10.419Z" fill="#485CC2"/>
<path d="M12.3387 10.419H12.088V9.21204C12.3549 9.47952 12.3143 10.1281 12.3387 10.419Z" fill="#485CC2"/>
<path fill-rule="evenodd" clip-rule="evenodd" d="M12.782 14.1709C12.8615 14.1808 12.9312 14.2276 12.9778 14.313C13.0159 14.3831 13.0353 14.4576 13.0226 14.5319C13.0098 14.6069 12.9682 14.6599 12.9246 14.6947C12.8429 14.76 12.7305 14.7815 12.6594 14.7858L12.6535 14.7862L12.4286 14.786C12.6133 14.9254 12.9289 15.0202 13.4316 14.8747L13.4857 15.1012C12.9071 15.2687 12.5172 15.1499 12.2814 14.9586C12.2273 15.0295 12.1589 15.0945 12.0739 15.1458C11.8332 15.2913 11.4843 15.313 11.003 15.0963L11.0834 14.8795C11.5287 15.0799 11.806 15.0406 11.9717 14.9405C12.036 14.9016 12.0871 14.8514 12.1269 14.7968C12.1243 14.7932 12.1217 14.7896 12.1192 14.786H11.5534L11.5413 14.7829C11.5106 14.7748 11.4751 14.7609 11.4417 14.7395C11.4088 14.7184 11.3717 14.6861 11.3468 14.6382C11.3201 14.5869 11.3117 14.5254 11.3281 14.4608C11.3435 14.4002 11.3787 14.3437 11.4271 14.2905C11.5557 14.1487 11.7316 14.1791 11.8577 14.2322C11.9892 14.2875 12.1126 14.3845 12.1869 14.4565L12.208 14.4769L12.2172 14.506C12.2214 14.5194 12.2269 14.5339 12.2338 14.5493C12.2354 14.5414 12.2367 14.5335 12.2378 14.5258L12.2432 14.489L12.2669 14.4624C12.3375 14.3832 12.4546 14.2747 12.5762 14.2148C12.6368 14.185 12.709 14.1619 12.782 14.1709ZM11.9517 14.5518C11.9001 14.513 11.8407 14.4757 11.7818 14.451C11.6757 14.4063 11.6126 14.4173 11.5774 14.4561C11.5439 14.493 11.5349 14.5157 11.5329 14.5238L11.5351 14.5265C11.5381 14.5295 11.5425 14.5331 11.5486 14.537C11.558 14.5431 11.569 14.5481 11.5798 14.5518H11.9517ZM12.4924 14.5518H12.6504C12.7057 14.548 12.7677 14.5308 12.7998 14.5051C12.8067 14.4996 12.8102 14.4952 12.8119 14.4926C12.8133 14.4905 12.8136 14.4887 12.8136 14.4887C12.8136 14.4887 12.8165 14.4722 12.7954 14.4335C12.7826 14.41 12.7712 14.4053 12.7583 14.4037C12.7387 14.4013 12.7071 14.4069 12.663 14.4286C12.6055 14.4569 12.5447 14.5036 12.4924 14.5518Z" fill="#485CC2"/>
<path fill-rule="evenodd" clip-rule="evenodd" d="M12 15.6571C14.0198 15.6571 15.6571 14.0198 15.6571 12C15.6571 9.98022 14.0198 8.34286 12 8.34286C9.98022 8.34286 8.34286 9.98022 8.34286 12C8.34286 14.0198 9.98022 15.6571 12 15.6571ZM12 16C14.2091 16 16 14.2091 16 12C16 9.79086 14.2091 8 12 8C9.79086 8 8 9.79086 8 12C8 14.2091 9.79086 16 12 16Z" fill="#F8D74C"/>
<path d="M12.092 9.99158L10.2063 13.163H13.9777L12.092 9.99158Z" fill="#E6E6E6"/>
<path d="M13.3322 12.0773H10.8519L10.2063 13.163H13.9777L13.3322 12.0773Z" fill="#64BEDB"/>
<path d="M12.0634 11.3916H12.1776V12.2488H12.0634V11.3916Z" fill="#F9F9F9"/>
<path d="M11.9776 11.1916L11.9491 11.3059H12.0062V11.3916L11.9776 11.4202V11.5059H12.2348V11.3345L12.1205 11.1631H12.0062L11.9776 11.1916Z" fill="#D74B4B"/>
<path fill-rule="evenodd" clip-rule="evenodd" d="M12.1205 11.6202C12.2783 11.6202 12.4062 11.4923 12.4062 11.3345C12.4062 11.1767 12.2783 11.0488 12.1205 11.0488C11.9627 11.0488 11.8348 11.1767 11.8348 11.3345C11.8348 11.4923 11.9627 11.6202 12.1205 11.6202ZM12.1205 11.7345C12.3414 11.7345 12.5205 11.5554 12.5205 11.3345C12.5205 11.1136 12.3414 10.9345 12.1205 10.9345C11.8996 10.9345 11.7205 11.1136 11.7205 11.3345C11.7205 11.5554 11.8996 11.7345 12.1205 11.7345Z" fill="#F9F9F9"/>
<path d="M12.6919 11.3345C12.6919 11.0189 12.4361 10.7631 12.1205 10.7631C11.8049 10.7631 11.5491 11.0189 11.5491 11.3345H11.6634C11.6634 11.082 11.868 10.8773 12.1205 10.8773C12.373 10.8773 12.5776 11.082 12.5776 11.3345H12.6919Z" fill="#D74B4B"/>
<path d="M10.7776 12.306L10.6062 12.5917L10.5776 12.6774L12.5491 12.6489L11.9776 12.2203L11.7205 11.9632L11.3491 11.8489L10.9776 12.2203L10.7776 12.306Z" fill="#F8D74C"/>
<path d="M11.4029 12.3701L11.2588 12.6065L11.2348 12.6774L12.8919 12.6538L12.4116 12.2991L12.1954 12.0863L11.8832 11.9917L11.571 12.2991L11.4029 12.3701Z" fill="#F8D74C"/>
<path d="M11.8998 12.3957L11.7706 12.6124L11.7491 12.6774L13.2348 12.6558L12.8041 12.3307L12.6103 12.1356L12.3304 12.0489L12.0505 12.3307L11.8998 12.3957Z" fill="#F8D74C"/>
<path d="M12.4994 12.4469L12.395 12.6242L12.3776 12.6774L13.5776 12.6597L13.2298 12.3937L13.0733 12.2341L12.8472 12.1632L12.6211 12.3937L12.4994 12.4469Z" fill="#F8D74C"/>
<circle cx="10.7999" cy="14.1714" r="0.0570278" fill="#D74B4B"/>
<circle r="0.0570278" transform="matrix(-1 0 0 1 13.4287 14.1714)" fill="#D74B4B"/>
<circle cx="10.057" cy="13.657" r="0.0570278" fill="#D74B4B"/>
<circle r="0.0570278" transform="matrix(-1 0 0 1 14.1715 13.657)" fill="#D74B4B"/>
<circle cx="9.59987" cy="13.8855" r="0.0570278" fill="#D74B4B"/>
<circle r="0.0570278" transform="matrix(-1 0 0 1 14.6287 13.8855)" fill="#D74B4B"/>
<circle cx="9.42846" cy="12.1143" r="0.0570278" fill="#D74B4B"/>
<circle r="0.0570278" transform="matrix(-1 0 0 1 14.4573 12.3999)" fill="#D74B4B"/>
<circle cx="9.88561" cy="11.2571" r="0.0570278" fill="#D74B4B"/>
<circle r="0.0570278" transform="matrix(-1 0 0 1 15.0287 11.0857)" fill="#D74B4B"/>
</g>
<defs>
<clipPath id="clip0_440_1182">
<rect width="24" height="24" rx="12" fill="white"/>
</clipPath>
</defs>
</svg>
