<svg width="24" height="24" viewBox="0 0 24 24" fill="none" xmlns="http://www.w3.org/2000/svg">
<rect width="24" height="24" rx="12" fill="#D74B4B"/>
<path d="M12.0045 20L12.3413 21.0365H13.4311L12.5494 21.6771L12.8862 22.7135L12.0045 22.0729L11.1228 22.7135L11.4596 21.6771L10.5779 21.0365H11.6677L12.0045 20Z" fill="#F8D74C"/>
<path d="M8.5 20L8.83677 21.0365H9.92659L9.04491 21.6771L9.38168 22.7135L8.5 22.0729L7.61832 22.7135L7.9551 21.6771L7.07342 21.0365H8.16323L8.5 20Z" fill="#F8D74C"/>
<path d="M15.5085 20L15.8453 21.0365H16.9351L16.0534 21.6771L16.3902 22.7135L15.5085 22.0729L14.6268 22.7135L14.9636 21.6771L14.0819 21.0365H15.1717L15.5085 20Z" fill="#F8D74C"/>
<path d="M12.0045 1L12.3413 2.03647H13.4311L12.5494 2.67705L12.8862 3.71353L12.0045 3.07295L11.1228 3.71353L11.4596 2.67705L10.5779 2.03647H11.6677L12.0045 1Z" fill="#F8D74C"/>
<path d="M8.5 1L8.83677 2.03647H9.92659L9.04491 2.67705L9.38168 3.71353L8.5 3.07295L7.61832 3.71353L7.9551 2.67705L7.07342 2.03647H8.16323L8.5 1Z" fill="#F8D74C"/>
<path d="M15.5085 1L15.8453 2.03647H16.9351L16.0534 2.67705L16.3902 3.71353L15.5085 3.07295L14.6268 3.71353L14.9636 2.67705L14.0819 2.03647H15.1717L15.5085 1Z" fill="#F8D74C"/>
<path d="M3 5H21V19H3V5Z" fill="#F8D74C"/>
<path d="M3 5L12 12L3 19V5Z" fill="#3FB47C"/>
<path d="M21 5L12 12L21 19V5Z" fill="#3FB47C"/>
<path d="M6.09063 12.0868C6.44353 12.8293 6.44744 13.6158 6.44744 13.6158C6.44744 13.6158 5.84011 13.1161 5.48721 12.3735C5.13431 11.631 5.30164 11.4755 5.40655 11.4256C5.51147 11.3757 5.89705 11.6795 6.09063 12.0868Z" fill="#D74B4B"/>
<path d="M6.09845 13.6894C5.57171 13.651 4.57859 13.1952 4.82 11.6797C4.8795 11.3062 5.06648 10.7904 4.96139 10.4591L5.41994 11.3097L5.76619 12.1525C5.73169 12.4854 5.74984 13.2589 6.09845 13.6894Z" fill="#F8D74C"/>
<path d="M6.74894 13.3703C7.05177 12.9376 7.32555 11.8797 5.998 11.1099C5.69331 10.9332 5.1519 10.7498 4.96139 10.4591L5.36927 11.305L5.76707 12.1421C6.04698 12.3255 6.63523 12.8281 6.74894 13.3703Z" fill="#F8D74C"/>
<path d="M15 12C15 13.6569 13.6569 15 12 15C10.3431 15 9 13.6569 9 12C9 10.3431 10.3431 9 12 9C13.6569 9 15 10.3431 15 12Z" fill="#D74B4B"/>
<path d="M12 10L12.449 11.382H13.9021L12.7265 12.2361L13.1756 13.618L12 12.7639L10.8244 13.618L11.2735 12.2361L10.0979 11.382H11.551L12 10Z" fill="#F8D74C"/>
</svg>
