<svg width="32" height="24" viewBox="0 0 32 24" fill="none" xmlns="http://www.w3.org/2000/svg">
<rect width="32" height="24" rx="2" fill="#D74B4B"/>
<path d="M5 5H27V19H5V5Z" fill="#F8D74C"/>
<path d="M5 5L16 12L5 19V5Z" fill="#3FB47C"/>
<path d="M27 5L16 12L27 19V5Z" fill="#3FB47C"/>
<path d="M8.09063 12.0868C8.44353 12.8293 8.44744 13.6158 8.44744 13.6158C8.44744 13.6158 7.84011 13.1161 7.48721 12.3735C7.13431 11.631 7.30164 11.4755 7.40655 11.4256C7.51147 11.3757 7.89705 11.6795 8.09063 12.0868Z" fill="#D74B4B"/>
<path d="M8.09845 13.6894C7.57171 13.651 6.57859 13.1952 6.82 11.6797C6.8795 11.3062 7.06648 10.7904 6.96139 10.4591L7.41994 11.3097L7.76619 12.1525C7.73169 12.4854 7.74984 13.2589 8.09845 13.6894Z" fill="#F8D74C"/>
<path d="M8.74894 13.3703C9.05177 12.9376 9.32555 11.8797 7.998 11.1099C7.69331 10.9332 7.1519 10.7498 6.96139 10.4591L7.36927 11.305L7.76707 12.1421C8.04698 12.3255 8.63523 12.8281 8.74894 13.3703Z" fill="#F8D74C"/>
<path d="M16 1.04016L16.3368 2.07664H17.4266L16.5449 2.71721L16.8817 3.75369L16 3.11311L15.1183 3.75369L15.4551 2.71721L14.5734 2.07664H15.6632L16 1.04016Z" fill="#F8D74C"/>
<path d="M16 19.96L16.3368 20.9964H17.4266L16.5449 21.637L16.8817 22.6735L16 22.0329L15.1183 22.6735L15.4551 21.637L14.5734 20.9964H15.6632L16 19.96Z" fill="#F8D74C"/>
<path d="M10.4955 1.04016L10.8323 2.07664H11.9221L11.0404 2.71721L11.3772 3.75369L10.4955 3.11311L9.61383 3.75369L9.9506 2.71721L9.06892 2.07664H10.1587L10.4955 1.04016Z" fill="#F8D74C"/>
<path d="M10.4955 19.96L10.8323 20.9964H11.9221L11.0404 21.637L11.3772 22.6735L10.4955 22.0329L9.61383 22.6735L9.9506 21.637L9.06892 20.9964H10.1587L10.4955 19.96Z" fill="#F8D74C"/>
<path d="M21.504 1.04016L21.8408 2.07664H22.9306L22.0489 2.71721L22.3857 3.75369L21.504 3.11311L20.6223 3.75369L20.9591 2.71721L20.0774 2.07664H21.1672L21.504 1.04016Z" fill="#F8D74C"/>
<path d="M21.504 19.96L21.8408 20.9964H22.9306L22.0489 21.637L22.3857 22.6735L21.504 22.0329L20.6223 22.6735L20.9591 21.637L20.0774 20.9964H21.1672L21.504 19.96Z" fill="#F8D74C"/>
<path d="M19 12C19 13.6569 17.6569 15 16 15C14.3431 15 13 13.6569 13 12C13 10.3431 14.3431 9 16 9C17.6569 9 19 10.3431 19 12Z" fill="#D74B4B"/>
<path d="M16 10L16.449 11.382H17.9021L16.7265 12.2361L17.1756 13.618L16 12.7639L14.8244 13.618L15.2735 12.2361L14.0979 11.382H15.551L16 10Z" fill="#F8D74C"/>
</svg>
