<svg width="32" height="24" viewBox="0 0 32 24" fill="none" xmlns="http://www.w3.org/2000/svg">
<rect width="32" height="24" rx="2" fill="#D74B4B"/>
<path d="M0 0H32V8H0V0Z" fill="#485CC2"/>
<path d="M15.8493 5.06957C15.8142 4.77264 15.7168 4.07401 15.6083 3.65482C15.4999 3.23564 15.4427 2.92125 15.4276 2.81646C15.3774 2.5894 15.3282 2.03049 15.533 1.61131C15.7891 1.08733 15.9096 1 16.015 1V1.01771C16.1178 1.0238 16.2385 1.12208 16.4855 1.62609C16.69 2.04348 16.6408 2.6 16.5907 2.82609C16.5757 2.93043 16.5185 3.24348 16.4103 3.66087C16.302 4.07826 16.2047 4.77391 16.1697 5.06956L15.8493 5.06957Z" fill="#F8D74C"/>
<path d="M14.0192 3.82784C14.1272 4.47144 14.6443 4.72561 14.8893 4.77225C14.7343 4.53906 14.5173 4.07269 14.8893 4.07269C15.2613 4.07269 15.4543 4.73727 15.5043 5.06956H15.7143L15.6843 4.77225C15.6543 4.56821 15.5343 4.03072 15.2943 3.51304C15.0543 2.99536 14.6543 2.92424 14.4843 2.95339C14.2842 2.97671 13.9112 3.18424 14.0192 3.82784Z" fill="#F8D74C"/>
<path d="M17.1107 4.77225C17.3557 4.72561 17.8728 4.47144 17.9808 3.82784C18.0888 3.18424 17.7158 2.97671 17.5157 2.95339C17.3457 2.92424 16.9457 2.99536 16.7057 3.51304C16.4657 4.03072 16.3457 4.56821 16.3157 4.77225L16.2857 5.06956H16.4957C16.5457 4.73727 16.7387 4.07269 17.1107 4.07269C17.4827 4.07269 17.2657 4.53906 17.1107 4.77225Z" fill="#F8D74C"/>
<path d="M15.1471 6.02609C15.3175 5.89275 15.6584 5.58087 15.6584 5.4H16.4103C16.4103 5.58087 16.7511 5.89275 16.9215 6.02609C16.6569 6.10956 16.3501 6.02609 16.2298 5.97391C16.3381 6.69739 16.1446 6.95942 16.0343 7C15.924 6.95942 15.7306 6.69739 15.8388 5.97391C15.7185 6.02609 15.4118 6.10956 15.1471 6.02609Z" fill="#F8D74C"/>
<path d="M16.6659 5.15652H15.3727V5.29565H16.6659V5.15652Z" fill="#F8D74C"/>
<path d="M7.84935 5.06957C7.8142 4.77264 7.7168 4.07401 7.60835 3.65482C7.4999 3.23564 7.44266 2.92125 7.4276 2.81646C7.37739 2.5894 7.32818 2.03049 7.53303 1.61131C7.7891 1.08733 7.9096 1 8.01504 1V1.01771C8.11784 1.0238 8.2385 1.12208 8.48545 1.62609C8.68996 2.04348 8.64084 2.6 8.59071 2.82609C8.57568 2.93043 8.51853 3.24348 8.41026 3.66087C8.30199 4.07826 8.20475 4.77391 8.16966 5.06956L7.84935 5.06957Z" fill="#F8D74C"/>
<path d="M6.01924 3.82784C6.12724 4.47144 6.64426 4.72561 6.88926 4.77225C6.73426 4.53906 6.51725 4.07269 6.88926 4.07269C7.26127 4.07269 7.45428 4.73727 7.50428 5.06956H7.71429L7.68428 4.77225C7.65428 4.56821 7.53428 4.03072 7.29427 3.51304C7.05427 2.99536 6.65426 2.92424 6.48425 2.95339C6.28425 2.97671 5.91124 3.18424 6.01924 3.82784Z" fill="#F8D74C"/>
<path d="M9.11074 4.77225C9.35574 4.72561 9.87276 4.47144 9.98076 3.82784C10.0888 3.18424 9.71575 2.97671 9.51575 2.95339C9.34574 2.92424 8.94573 2.99536 8.70573 3.51304C8.46572 4.03072 8.34572 4.56821 8.31572 4.77225L8.28571 5.06956H8.49572C8.54572 4.73727 8.73873 4.07269 9.11074 4.07269C9.48275 4.07269 9.26574 4.53906 9.11074 4.77225Z" fill="#F8D74C"/>
<path d="M7.14711 6.02609C7.31753 5.89275 7.65838 5.58087 7.65838 5.4H8.41026C8.41026 5.58087 8.75112 5.89275 8.92154 6.02609C8.65688 6.10956 8.35011 6.02609 8.22981 5.97391C8.33808 6.69739 8.1446 6.95942 8.03432 7C7.92405 6.95942 7.73056 6.69739 7.83884 5.97391C7.71853 6.02609 7.41177 6.10956 7.14711 6.02609Z" fill="#F8D74C"/>
<path d="M8.6659 5.15652H7.37267V5.29565H8.6659V5.15652Z" fill="#F8D74C"/>
<path d="M23.8493 5.06957C23.8142 4.77264 23.7168 4.07401 23.6083 3.65482C23.4999 3.23564 23.4427 2.92125 23.4276 2.81646C23.3774 2.5894 23.3282 2.03049 23.533 1.61131C23.7891 1.08733 23.9096 1 24.015 1V1.01771C24.1178 1.0238 24.2385 1.12208 24.4855 1.62609C24.69 2.04348 24.6408 2.6 24.5907 2.82609C24.5757 2.93043 24.5185 3.24348 24.4103 3.66087C24.302 4.07826 24.2048 4.77391 24.1697 5.06956L23.8493 5.06957Z" fill="#F8D74C"/>
<path d="M22.0192 3.82784C22.1272 4.47144 22.6443 4.72561 22.8893 4.77225C22.7343 4.53906 22.5173 4.07269 22.8893 4.07269C23.2613 4.07269 23.4543 4.73727 23.5043 5.06956H23.7143L23.6843 4.77225C23.6543 4.56821 23.5343 4.03072 23.2943 3.51304C23.0543 2.99536 22.6543 2.92424 22.4843 2.95339C22.2842 2.97671 21.9112 3.18424 22.0192 3.82784Z" fill="#F8D74C"/>
<path d="M25.1107 4.77225C25.3557 4.72561 25.8728 4.47144 25.9808 3.82784C26.0888 3.18424 25.7158 2.97671 25.5157 2.95339C25.3457 2.92424 24.9457 2.99536 24.7057 3.51304C24.4657 4.03072 24.3457 4.56821 24.3157 4.77225L24.2857 5.06956H24.4957C24.5457 4.73727 24.7387 4.07269 25.1107 4.07269C25.4827 4.07269 25.2657 4.53906 25.1107 4.77225Z" fill="#F8D74C"/>
<path d="M23.1471 6.02609C23.3175 5.89275 23.6584 5.58087 23.6584 5.4H24.4103C24.4103 5.58087 24.7511 5.89275 24.9215 6.02609C24.6569 6.10956 24.3501 6.02609 24.2298 5.97391C24.3381 6.69739 24.1446 6.95942 24.0343 7C23.924 6.95942 23.7306 6.69739 23.8388 5.97391C23.7185 6.02609 23.4118 6.10956 23.1471 6.02609Z" fill="#F8D74C"/>
<path d="M24.6659 5.15652H23.3727V5.29565H24.6659V5.15652Z" fill="#F8D74C"/>
<path d="M10.8582 8.95212L11.5217 9.80517L11.3855 10.2089C10.9563 9.63083 10.7528 9.18963 10.6942 8.95215L10.3058 9.04799C10.3985 9.42346 10.7309 10.076 11.4061 10.8788C12.0853 11.6864 13.1205 12.6571 14.6359 13.6665C17.0462 15.272 21.1121 17.4117 23.7462 18.7978C24.4047 19.1444 24.9739 19.4439 25.4052 19.6762L25.5948 19.324C25.1571 19.0883 24.5822 18.7857 23.9187 18.4365C21.2828 17.0493 17.2481 14.9259 14.8577 13.3336C13.3705 12.343 12.3646 11.397 11.7122 10.6213C11.7017 10.6089 11.6913 10.5965 11.681 10.5841L11.935 9.83117L11.9354 9.8302L12.1898 9.06296L11.8102 8.93703L11.6735 9.34894L11.1739 8.70654L10.8582 8.95212Z" fill="#3FB47C"/>
<path d="M7.83359 9.61094L8.33199 10.3585L8.59717 10.7823C8.09587 10.7124 7.62308 10.7527 7.19644 10.8573L6.1375 9.85476L5.8625 10.1452L6.75696 10.992C6.13425 11.222 5.64442 11.5728 5.35858 11.8586L5.64142 12.1415C6.27268 11.5102 8.00664 10.5373 9.8971 11.6716L24.8971 20.6716L25.1029 20.3286L10.2 11.3868V10.5H9.8V11.1621C9.57817 11.0511 9.35889 10.9653 9.14345 10.9012L8.71955 10.2238L8.93974 9.56324L8.56026 9.43675L8.43958 9.79881L8.16641 9.38906L7.83359 9.61094Z" fill="#3FB47C"/>
<path d="M10.0569 12.4424L9.15286 11.371L8.84714 11.629L9.44605 12.3388C9.19985 12.313 8.96368 12.3082 8.73793 12.3211L8.73997 12.3163L7.57912 11.8163L7.42088 12.1837L7.99745 12.432C7.77581 12.4868 7.56834 12.5585 7.3755 12.6426L6.10779 11.8315L5.89221 12.1685L6.96233 12.8531C6.44149 13.1593 6.06076 13.5484 5.83359 13.8891L6.16641 14.111C6.47473 13.6485 7.13424 13.0562 8.09776 12.8193C8.39683 12.7457 8.72737 12.7059 9.08819 12.7157L7.84 14.38L8.16 14.62L9.55835 12.7555C9.65009 12.7684 9.74351 12.7845 9.8386 12.804L9.84714 12.8141L9.8551 12.8074C10.4674 12.9352 11.1484 13.2037 11.894 13.6697C15.0924 15.6687 21.5578 19.8345 24.3914 21.668L24.6087 21.3322C21.7755 19.499 15.3076 15.3314 12.106 13.3305C11.3707 12.8709 10.6858 12.5893 10.0569 12.4424Z" fill="#3FB47C"/>
<path d="M15.9405 9.05288C15.949 8.98237 16.051 8.98237 16.0595 9.05288L16.4519 12.3105C16.4593 12.3718 16.5431 12.3834 16.5667 12.3263L17.8214 9.29561C17.8486 9.23001 17.9468 9.2576 17.936 9.3278L17.437 12.5707C17.4276 12.6318 17.5052 12.6656 17.5433 12.617L19.5672 10.038C19.6111 9.98215 19.6982 10.0353 19.6689 10.1L18.3155 13.0877C18.29 13.1439 18.3557 13.1975 18.4054 13.161L21.0485 11.2249C21.1057 11.183 21.1754 11.2578 21.1298 11.3121L19.0223 13.823C18.9826 13.8703 19.0314 13.9396 19.0892 13.918L22.1554 12.7684C22.2217 12.7435 22.2687 12.8344 22.2101 12.8744L19.5049 14.7222C19.454 14.757 19.4823 14.837 19.5438 14.8318L22.8057 14.554C22.8763 14.548 22.8971 14.6481 22.8299 14.6708L19.7276 15.7186C19.6692 15.7384 19.675 15.823 19.7355 15.8346L22.9513 16.4492C23.0209 16.4625 23.0139 16.5646 22.9431 16.5683L19.6739 16.7383C19.6123 16.7415 19.5951 16.8246 19.6503 16.8521L22.5813 18.3136C22.6448 18.3452 22.6106 18.4416 22.5415 18.426L19.3476 17.7056C19.2875 17.692 19.2485 17.7674 19.2943 17.8088L21.7232 20.0087C21.7758 20.0563 21.717 20.1399 21.6546 20.1062L18.7731 18.5488C18.7189 18.5195 18.6611 18.5815 18.694 18.6338L20.4407 21.4089C20.4785 21.469 20.3994 21.5335 20.3484 21.4842L17.9929 19.2054C17.9486 19.1625 17.8763 19.2066 17.8939 19.2658L18.8288 22.4104C18.8491 22.4785 18.7555 22.5192 18.7197 22.4579L17.065 19.6267C17.0338 19.5734 16.9523 19.5963 16.9533 19.6581L17.0071 22.9389C17.0083 23.0099 16.9072 23.0238 16.8892 22.9551L16.058 19.7814C16.0423 19.7216 15.9577 19.7216 15.942 19.7814L15.1108 22.9551C15.0928 23.0238 14.9917 23.0099 14.9929 22.9389L15.0467 19.6581C15.0477 19.5963 14.9662 19.5734 14.935 19.6267L13.2803 22.4579C13.2445 22.5192 13.1509 22.4785 13.1712 22.4104L14.1061 19.2658C14.1237 19.2066 14.0514 19.1625 14.0071 19.2054L11.6516 21.4842C11.6006 21.5335 11.5215 21.469 11.5593 21.4089L13.306 18.6338C13.3389 18.5815 13.2811 18.5195 13.2269 18.5488L10.3454 20.1062C10.283 20.1399 10.2242 20.0563 10.2768 20.0087L12.7057 17.8088C12.7515 17.7674 12.7125 17.692 12.6524 17.7056L9.45855 18.426C9.38942 18.4416 9.35525 18.3452 9.41869 18.3136L12.3497 16.8521C12.4049 16.8246 12.3877 16.7415 12.3261 16.7383L9.05685 16.5683C8.98609 16.5646 8.97912 16.4625 9.04873 16.4492L12.2645 15.8346C12.325 15.823 12.3308 15.7384 12.2724 15.7186L9.1701 14.6708C9.10295 14.6481 9.12371 14.548 9.19431 14.554L12.4562 14.8318C12.5177 14.837 12.546 14.757 12.4951 14.7222L9.78988 12.8744C9.73133 12.8344 9.77827 12.7435 9.84464 12.7684L12.9108 13.918C12.9686 13.9396 13.0174 13.8703 12.9777 13.823L10.8702 11.3121C10.8246 11.2578 10.8943 11.183 10.9515 11.2249L13.5946 13.161C13.6443 13.1975 13.71 13.1439 13.6845 13.0877L12.3311 10.1C12.3018 10.0353 12.3889 9.98215 12.4328 10.038L14.4567 12.617C14.4948 12.6656 14.5724 12.6318 14.563 12.5707L14.064 9.3278C14.0532 9.25761 14.1514 9.23001 14.1786 9.29561L15.4333 12.3263C15.4569 12.3834 15.5407 12.3718 15.5481 12.3105L15.9405 9.05288Z" fill="#F8D74C"/>
</svg>
