<svg width="24" height="24" viewBox="0 0 24 24" fill="none" xmlns="http://www.w3.org/2000/svg">
<rect width="24" height="24" rx="12" fill="#D74B4B"/>
<path d="M0 0H24V8H0V0Z" fill="#485CC2"/>
<path d="M11.8493 5.06957C11.8142 4.77264 11.7168 4.07401 11.6083 3.65482C11.4999 3.23564 11.4427 2.92125 11.4276 2.81646C11.3774 2.5894 11.3282 2.03049 11.533 1.61131C11.7891 1.08733 11.9096 1 12.015 1V1.01771C12.1178 1.0238 12.2385 1.12208 12.4855 1.62609C12.69 2.04348 12.6408 2.6 12.5907 2.82609C12.5757 2.93043 12.5185 3.24348 12.4103 3.66087C12.302 4.07826 12.2047 4.77391 12.1697 5.06956L11.8493 5.06957Z" fill="#F8D74C"/>
<path d="M10.0192 3.82784C10.1272 4.47144 10.6443 4.72561 10.8893 4.77225C10.7343 4.53906 10.5173 4.07269 10.8893 4.07269C11.2613 4.07269 11.4543 4.73727 11.5043 5.06956H11.7143L11.6843 4.77225C11.6543 4.56821 11.5343 4.03072 11.2943 3.51304C11.0543 2.99536 10.6543 2.92424 10.4843 2.95339C10.2842 2.97671 9.91124 3.18424 10.0192 3.82784Z" fill="#F8D74C"/>
<path d="M13.1107 4.77225C13.3557 4.72561 13.8728 4.47144 13.9808 3.82784C14.0888 3.18424 13.7158 2.97671 13.5157 2.95339C13.3457 2.92424 12.9457 2.99536 12.7057 3.51304C12.4657 4.03072 12.3457 4.56821 12.3157 4.77225L12.2857 5.06956H12.4957C12.5457 4.73727 12.7387 4.07269 13.1107 4.07269C13.4827 4.07269 13.2657 4.53906 13.1107 4.77225Z" fill="#F8D74C"/>
<path d="M11.1471 6.02609C11.3175 5.89275 11.6584 5.58087 11.6584 5.4H12.4103C12.4103 5.58087 12.7511 5.89275 12.9215 6.02609C12.6569 6.10956 12.3501 6.02609 12.2298 5.97391C12.3381 6.69739 12.1446 6.95942 12.0343 7C11.924 6.95942 11.7306 6.69739 11.8388 5.97391C11.7185 6.02609 11.4118 6.10956 11.1471 6.02609Z" fill="#F8D74C"/>
<path d="M12.6659 5.15652H11.3727V5.29565H12.6659V5.15652Z" fill="#F8D74C"/>
<path d="M6.84935 5.06957C6.8142 4.77264 6.7168 4.07401 6.60835 3.65482C6.4999 3.23564 6.44266 2.92125 6.4276 2.81646C6.37739 2.5894 6.32818 2.03049 6.53303 1.61131C6.7891 1.08733 6.9096 1 7.01504 1V1.01771C7.11784 1.0238 7.2385 1.12208 7.48545 1.62609C7.68996 2.04348 7.64084 2.6 7.59071 2.82609C7.57568 2.93043 7.51853 3.24348 7.41026 3.66087C7.30199 4.07826 7.20475 4.77391 7.16966 5.06956L6.84935 5.06957Z" fill="#F8D74C"/>
<path d="M5.01924 3.82784C5.12724 4.47144 5.64426 4.72561 5.88926 4.77225C5.73426 4.53906 5.51725 4.07269 5.88926 4.07269C6.26127 4.07269 6.45428 4.73727 6.50428 5.06956H6.71429L6.68428 4.77225C6.65428 4.56821 6.53428 4.03072 6.29427 3.51304C6.05427 2.99536 5.65426 2.92424 5.48425 2.95339C5.28425 2.97671 4.91124 3.18424 5.01924 3.82784Z" fill="#F8D74C"/>
<path d="M8.11074 4.77225C8.35574 4.72561 8.87276 4.47144 8.98076 3.82784C9.08876 3.18424 8.71575 2.97671 8.51575 2.95339C8.34574 2.92424 7.94573 2.99536 7.70573 3.51304C7.46572 4.03072 7.34572 4.56821 7.31572 4.77225L7.28571 5.06956H7.49572C7.54572 4.73727 7.73873 4.07269 8.11074 4.07269C8.48275 4.07269 8.26574 4.53906 8.11074 4.77225Z" fill="#F8D74C"/>
<path d="M6.14711 6.02609C6.31753 5.89275 6.65838 5.58087 6.65838 5.4H7.41026C7.41026 5.58087 7.75112 5.89275 7.92154 6.02609C7.65688 6.10956 7.35011 6.02609 7.22981 5.97391C7.33808 6.69739 7.1446 6.95942 7.03432 7C6.92405 6.95942 6.73056 6.69739 6.83884 5.97391C6.71853 6.02609 6.41177 6.10956 6.14711 6.02609Z" fill="#F8D74C"/>
<path d="M7.6659 5.15652H6.37267V5.29565H7.6659V5.15652Z" fill="#F8D74C"/>
<path d="M16.8493 5.06957C16.8142 4.77264 16.7168 4.07401 16.6083 3.65482C16.4999 3.23564 16.4427 2.92125 16.4276 2.81646C16.3774 2.5894 16.3282 2.03049 16.533 1.61131C16.7891 1.08733 16.9096 1 17.015 1V1.01771C17.1178 1.0238 17.2385 1.12208 17.4855 1.62609C17.69 2.04348 17.6408 2.6 17.5907 2.82609C17.5757 2.93043 17.5185 3.24348 17.4103 3.66087C17.302 4.07826 17.2047 4.77391 17.1697 5.06956L16.8493 5.06957Z" fill="#F8D74C"/>
<path d="M15.0192 3.82784C15.1272 4.47144 15.6443 4.72561 15.8893 4.77225C15.7343 4.53906 15.5173 4.07269 15.8893 4.07269C16.2613 4.07269 16.4543 4.73727 16.5043 5.06956H16.7143L16.6843 4.77225C16.6543 4.56821 16.5343 4.03072 16.2943 3.51304C16.0543 2.99536 15.6543 2.92424 15.4843 2.95339C15.2842 2.97671 14.9112 3.18424 15.0192 3.82784Z" fill="#F8D74C"/>
<path d="M18.1107 4.77225C18.3557 4.72561 18.8728 4.47144 18.9808 3.82784C19.0888 3.18424 18.7158 2.97671 18.5157 2.95339C18.3457 2.92424 17.9457 2.99536 17.7057 3.51304C17.4657 4.03072 17.3457 4.56821 17.3157 4.77225L17.2857 5.06956H17.4957C17.5457 4.73727 17.7387 4.07269 18.1107 4.07269C18.4827 4.07269 18.2657 4.53906 18.1107 4.77225Z" fill="#F8D74C"/>
<path d="M16.1471 6.02609C16.3175 5.89275 16.6584 5.58087 16.6584 5.4H17.4103C17.4103 5.58087 17.7511 5.89275 17.9215 6.02609C17.6569 6.10956 17.3501 6.02609 17.2298 5.97391C17.3381 6.69739 17.1446 6.95942 17.0343 7C16.924 6.95942 16.7306 6.69739 16.8388 5.97391C16.7185 6.02609 16.4118 6.10956 16.1471 6.02609Z" fill="#F8D74C"/>
<path d="M17.6659 5.15652H16.3727V5.29565H17.6659V5.15652Z" fill="#F8D74C"/>
<path d="M7.38147 8.24558L8.04495 9.09862L7.90875 9.50235C7.47959 8.92429 7.27608 8.48309 7.21747 8.24561L6.82912 8.34144C6.92178 8.71691 7.25416 9.36942 7.92935 10.1722C8.60859 10.9799 9.6438 11.9506 11.1592 12.96C13.5695 14.5655 17.6354 16.7051 20.2695 18.0913C20.928 18.4378 21.4972 18.7374 21.9285 18.9696L22.1181 18.6174C21.6804 18.3817 21.1055 18.0792 20.442 17.73C17.8061 16.3427 13.7714 14.2194 11.381 12.6271C9.89378 11.6365 8.88786 10.6905 8.23548 9.91478C8.225 9.90232 8.21462 9.88991 8.20433 9.87755L8.45832 9.12462L8.45865 9.12366L8.71313 8.35642L8.33346 8.23049L8.19685 8.64239L7.69721 8L7.38147 8.24558Z" fill="#3FB47C"/>
<path d="M4.35689 8.90439L4.85528 9.65199L5.12047 10.0758C4.61917 10.0059 4.14637 10.0462 3.71974 10.1507L2.66079 9.14822L2.3858 9.43869L3.28026 10.2855C2.65755 10.5155 2.16772 10.8663 1.88187 11.1521L2.16472 11.4349C2.79598 10.8037 4.52994 9.83075 6.4204 10.965L21.4204 19.965L21.6262 19.622L6.7233 10.6803V9.79345H6.3233V10.4555C6.10146 10.3446 5.88219 10.2588 5.66674 10.1947L5.24284 9.51727L5.46303 8.8567L5.08356 8.73021L4.96287 9.09227L4.68971 8.68251L4.35689 8.90439Z" fill="#3FB47C"/>
<path d="M6.58017 11.7359L5.67615 10.6645L5.37044 10.9224L5.96935 11.6322C5.72315 11.6065 5.48697 11.6016 5.26122 11.6145L5.26327 11.6098L4.10241 11.1098L3.94418 11.4771L4.52075 11.7255C4.29911 11.7803 4.09163 11.852 3.89879 11.9361L2.63108 11.125L2.41551 11.4619L3.48563 12.1466C2.96478 12.4528 2.58405 12.8418 2.35689 13.1826L2.68971 13.4045C2.99802 12.942 3.65754 12.3497 4.62105 12.1127C4.92013 12.0392 5.25067 11.9994 5.61149 12.0092L4.3633 13.6735L4.6833 13.9135L6.08164 12.049C6.17338 12.0619 6.26681 12.078 6.3619 12.0975L6.37044 12.1076L6.37839 12.1009C6.99068 12.2286 7.67172 12.4971 8.4173 12.9631C11.6157 14.9621 18.0811 19.128 20.9146 20.9614L21.1319 20.6256C18.2988 18.7924 11.8308 14.6249 8.6293 12.6239C7.894 12.1644 7.20912 11.8828 6.58017 11.7359Z" fill="#3FB47C"/>
<path d="M12.4638 8.34634C12.4723 8.27583 12.5743 8.27583 12.5828 8.34634L12.9752 11.6039C12.9825 11.6653 13.0664 11.6769 13.09 11.6198L14.3447 8.58907C14.3719 8.52347 14.4701 8.55106 14.4593 8.62126L13.9603 11.8642C13.9509 11.9252 14.0285 11.959 14.0666 11.9105L16.0905 9.33144C16.1343 9.27561 16.2215 9.32875 16.1922 9.39342L14.8388 12.3811C14.8133 12.4374 14.879 12.4909 14.9287 12.4545L17.5718 10.5184C17.629 10.4765 17.6987 10.5512 17.653 10.6056L15.5456 13.1165C15.5059 13.1638 15.5547 13.2331 15.6124 13.2114L18.6787 12.0619C18.745 12.037 18.792 12.1278 18.7334 12.1678L16.0282 14.0157C15.9773 14.0505 16.0056 14.1304 16.067 14.1252L19.329 13.8475C19.3996 13.8415 19.4203 13.9416 19.3532 13.9643L16.2509 15.0121C16.1925 15.0318 16.1983 15.1165 16.2588 15.128L19.4746 15.7427C19.5442 15.756 19.5372 15.858 19.4664 15.8617L16.1972 16.0318C16.1356 16.035 16.1184 16.118 16.1736 16.1456L19.1046 17.607C19.168 17.6386 19.1339 17.735 19.0647 17.7194L15.8709 16.9991C15.8108 16.9855 15.7718 17.0608 15.8176 17.1023L18.2465 19.3021C18.2991 19.3498 18.2403 19.4333 18.1779 19.3996L15.2964 17.8423C15.2421 17.813 15.1844 17.875 15.2173 17.9272L16.964 20.7024C17.0018 20.7625 16.9227 20.827 16.8717 20.7777L14.5162 18.4989C14.4719 18.456 14.3995 18.5001 14.4172 18.5593L15.3521 21.7039C15.3724 21.7719 15.2788 21.8127 15.2429 21.7514L13.5882 18.9202C13.5571 18.8668 13.4756 18.8897 13.4766 18.9515L13.5304 22.2323C13.5316 22.3033 13.4305 22.3173 13.4125 22.2486L12.5813 19.0749C12.5656 19.0151 12.481 19.0151 12.4653 19.0749L11.6341 22.2486C11.6161 22.3173 11.515 22.3033 11.5161 22.2323L11.57 18.9515C11.571 18.8897 11.4895 18.8668 11.4583 18.9202L9.80364 21.7514C9.76782 21.8127 9.67422 21.7719 9.69446 21.7039L10.6294 18.5593C10.647 18.5001 10.5747 18.456 10.5304 18.4989L8.17491 20.7777C8.12393 20.827 8.04477 20.7625 8.08258 20.7024L9.82932 17.9272C9.86222 17.875 9.80444 17.813 9.75017 17.8423L6.86869 19.3996C6.80632 19.4333 6.74747 19.3498 6.80005 19.3021L9.22901 17.1023C9.27475 17.0608 9.23581 16.9855 9.17566 16.9991L5.98184 17.7194C5.91271 17.735 5.87854 17.6386 5.94198 17.607L8.87302 16.1456C8.92822 16.118 8.911 16.035 8.84943 16.0318L5.58014 15.8617C5.50938 15.858 5.50242 15.756 5.57202 15.7427L8.78775 15.128C8.84832 15.1165 8.85409 15.0318 8.79567 15.0121L5.69339 13.9643C5.62624 13.9416 5.647 13.8415 5.7176 13.8475L8.97954 14.1252C9.04097 14.1304 9.06932 14.0505 9.01837 14.0157L6.31317 12.1678C6.25462 12.1278 6.30157 12.037 6.36793 12.0619L9.43414 13.2114C9.49189 13.2331 9.54071 13.1638 9.50102 13.1165L7.39354 10.6056C7.34792 10.5512 7.41757 10.4765 7.47478 10.5184L10.1179 12.4545C10.1676 12.4909 10.2333 12.4374 10.2078 12.3811L8.85435 9.39342C8.82505 9.32875 8.91224 9.27561 8.95605 9.33144L10.98 11.9105C11.0181 11.959 11.0957 11.9252 11.0863 11.8642L10.5873 8.62126C10.5765 8.55106 10.6747 8.52347 10.7019 8.58907L11.9565 11.6198C11.9802 11.6769 12.064 11.6653 12.0714 11.6039L12.4638 8.34634Z" fill="#F8D74C"/>
</svg>
