<svg width="24" height="24" viewBox="0 0 24 24" fill="none" xmlns="http://www.w3.org/2000/svg">
<rect width="24" height="24" rx="2" fill="#D74B4B"/>
<path d="M0 0H24V8H0V0Z" fill="#485CC2"/>
<path d="M11.8493 5.06957C11.8142 4.77264 11.7168 4.07401 11.6083 3.65482C11.4999 3.23564 11.4427 2.92125 11.4276 2.81646C11.3774 2.5894 11.3282 2.03049 11.533 1.61131C11.7891 1.08733 11.9096 1 12.015 1V1.01771C12.1178 1.0238 12.2385 1.12208 12.4855 1.62609C12.69 2.04348 12.6408 2.6 12.5907 2.82609C12.5757 2.93043 12.5185 3.24348 12.4103 3.66087C12.302 4.07826 12.2047 4.77391 12.1697 5.06956L11.8493 5.06957Z" fill="#F8D74C"/>
<path d="M10.0192 3.82784C10.1272 4.47144 10.6443 4.72561 10.8893 4.77225C10.7343 4.53906 10.5173 4.07269 10.8893 4.07269C11.2613 4.07269 11.4543 4.73727 11.5043 5.06956H11.7143L11.6843 4.77225C11.6543 4.56821 11.5343 4.03072 11.2943 3.51304C11.0543 2.99536 10.6543 2.92424 10.4843 2.95339C10.2842 2.97671 9.91124 3.18424 10.0192 3.82784Z" fill="#F8D74C"/>
<path d="M13.1107 4.77225C13.3557 4.72561 13.8728 4.47144 13.9808 3.82784C14.0888 3.18424 13.7158 2.97671 13.5157 2.95339C13.3457 2.92424 12.9457 2.99536 12.7057 3.51304C12.4657 4.03072 12.3457 4.56821 12.3157 4.77225L12.2857 5.06956H12.4957C12.5457 4.73727 12.7387 4.07269 13.1107 4.07269C13.4827 4.07269 13.2657 4.53906 13.1107 4.77225Z" fill="#F8D74C"/>
<path d="M11.1471 6.02609C11.3175 5.89275 11.6584 5.58087 11.6584 5.4H12.4103C12.4103 5.58087 12.7511 5.89275 12.9215 6.02609C12.6569 6.10956 12.3501 6.02609 12.2298 5.97391C12.3381 6.69739 12.1446 6.95942 12.0343 7C11.924 6.95942 11.7306 6.69739 11.8388 5.97391C11.7185 6.02609 11.4118 6.10956 11.1471 6.02609Z" fill="#F8D74C"/>
<path d="M12.6659 5.15652H11.3727V5.29565H12.6659V5.15652Z" fill="#F8D74C"/>
<path d="M4.84935 5.06957C4.8142 4.77264 4.7168 4.07401 4.60835 3.65482C4.4999 3.23564 4.44266 2.92125 4.4276 2.81646C4.37739 2.5894 4.32818 2.03049 4.53303 1.61131C4.7891 1.08733 4.9096 1 5.01504 1V1.01771C5.11784 1.0238 5.2385 1.12208 5.48545 1.62609C5.68996 2.04348 5.64084 2.6 5.59071 2.82609C5.57568 2.93043 5.51853 3.24348 5.41026 3.66087C5.30199 4.07826 5.20475 4.77391 5.16966 5.06956L4.84935 5.06957Z" fill="#F8D74C"/>
<path d="M3.01924 3.82784C3.12724 4.47144 3.64426 4.72561 3.88926 4.77225C3.73426 4.53906 3.51725 4.07269 3.88926 4.07269C4.26127 4.07269 4.45428 4.73727 4.50428 5.06956H4.71429L4.68428 4.77225C4.65428 4.56821 4.53428 4.03072 4.29427 3.51304C4.05427 2.99536 3.65426 2.92424 3.48425 2.95339C3.28425 2.97671 2.91124 3.18424 3.01924 3.82784Z" fill="#F8D74C"/>
<path d="M6.11074 4.77225C6.35574 4.72561 6.87276 4.47144 6.98076 3.82784C7.08876 3.18424 6.71575 2.97671 6.51575 2.95339C6.34574 2.92424 5.94573 2.99536 5.70573 3.51304C5.46572 4.03072 5.34572 4.56821 5.31572 4.77225L5.28571 5.06956H5.49572C5.54572 4.73727 5.73873 4.07269 6.11074 4.07269C6.48275 4.07269 6.26574 4.53906 6.11074 4.77225Z" fill="#F8D74C"/>
<path d="M4.14711 6.02609C4.31753 5.89275 4.65838 5.58087 4.65838 5.4H5.41026C5.41026 5.58087 5.75112 5.89275 5.92154 6.02609C5.65688 6.10956 5.35011 6.02609 5.22981 5.97391C5.33808 6.69739 5.1446 6.95942 5.03432 7C4.92405 6.95942 4.73056 6.69739 4.83884 5.97391C4.71853 6.02609 4.41177 6.10956 4.14711 6.02609Z" fill="#F8D74C"/>
<path d="M5.6659 5.15652H4.37267V5.29565H5.6659V5.15652Z" fill="#F8D74C"/>
<path d="M18.8493 5.06957C18.8142 4.77264 18.7168 4.07401 18.6083 3.65482C18.4999 3.23564 18.4427 2.92125 18.4276 2.81646C18.3774 2.5894 18.3282 2.03049 18.533 1.61131C18.7891 1.08733 18.9096 1 19.015 1V1.01771C19.1178 1.0238 19.2385 1.12208 19.4855 1.62609C19.69 2.04348 19.6408 2.6 19.5907 2.82609C19.5757 2.93043 19.5185 3.24348 19.4103 3.66087C19.302 4.07826 19.2048 4.77391 19.1697 5.06956L18.8493 5.06957Z" fill="#F8D74C"/>
<path d="M17.0192 3.82784C17.1272 4.47144 17.6443 4.72561 17.8893 4.77225C17.7343 4.53906 17.5173 4.07269 17.8893 4.07269C18.2613 4.07269 18.4543 4.73727 18.5043 5.06956H18.7143L18.6843 4.77225C18.6543 4.56821 18.5343 4.03072 18.2943 3.51304C18.0543 2.99536 17.6543 2.92424 17.4843 2.95339C17.2842 2.97671 16.9112 3.18424 17.0192 3.82784Z" fill="#F8D74C"/>
<path d="M20.1107 4.77225C20.3557 4.72561 20.8728 4.47144 20.9808 3.82784C21.0888 3.18424 20.7158 2.97671 20.5157 2.95339C20.3457 2.92424 19.9457 2.99536 19.7057 3.51304C19.4657 4.03072 19.3457 4.56821 19.3157 4.77225L19.2857 5.06956H19.4957C19.5457 4.73727 19.7387 4.07269 20.1107 4.07269C20.4827 4.07269 20.2657 4.53906 20.1107 4.77225Z" fill="#F8D74C"/>
<path d="M18.1471 6.02609C18.3175 5.89275 18.6584 5.58087 18.6584 5.4H19.4103C19.4103 5.58087 19.7511 5.89275 19.9215 6.02609C19.6569 6.10956 19.3501 6.02609 19.2298 5.97391C19.3381 6.69739 19.1446 6.95942 19.0343 7C18.924 6.95942 18.7306 6.69739 18.8388 5.97391C18.7185 6.02609 18.4118 6.10956 18.1471 6.02609Z" fill="#F8D74C"/>
<path d="M19.6659 5.15652H18.3727V5.29565H19.6659V5.15652Z" fill="#F8D74C"/>
<path d="M7.38147 8.95212L8.04496 9.80517L7.90876 10.2089C7.4796 9.63083 7.27608 9.18963 7.21748 8.95215L6.82913 9.04799C6.92179 9.42346 7.25417 10.076 7.92936 10.8788C8.6086 11.6864 9.64381 12.6571 11.1592 13.6665C13.5695 15.272 17.6354 17.4117 20.2695 18.7978C20.928 19.1444 21.4972 19.4439 21.9285 19.6762L22.1181 19.324C21.6804 19.0883 21.1055 18.7857 20.442 18.4365C17.8061 17.0493 13.7715 14.9259 11.381 13.3336C9.89379 12.343 8.88787 11.397 8.23549 10.6213C8.22501 10.6089 8.21463 10.5965 8.20434 10.5841L8.45833 9.83117L8.45866 9.8302L8.71313 9.06296L8.33347 8.93703L8.19685 9.34894L7.69721 8.70654L7.38147 8.95212Z" fill="#3FB47C"/>
<path d="M4.35689 9.61094L4.85529 10.3585L5.12048 10.7823C4.61917 10.7124 4.14638 10.7527 3.71975 10.8573L2.6608 9.85476L2.3858 10.1452L3.28026 10.992C2.65756 11.222 2.16772 11.5728 1.88188 11.8586L2.16472 12.1415C2.79598 11.5102 4.52994 10.5373 6.4204 11.6716L21.4204 20.6716L21.6262 20.3286L6.7233 11.3868V10.5H6.3233V11.1621C6.10147 11.0511 5.8822 10.9653 5.66675 10.9012L5.24285 10.2238L5.46304 9.56324L5.08357 9.43675L4.96288 9.79881L4.68971 9.38906L4.35689 9.61094Z" fill="#3FB47C"/>
<path d="M6.58017 12.4424L5.67616 11.371L5.37045 11.629L5.96936 12.3388C5.72316 12.313 5.48698 12.3082 5.26123 12.3211L5.26328 12.3163L4.10242 11.8163L3.94419 12.1837L4.52075 12.432C4.29911 12.4868 4.09164 12.5585 3.8988 12.6426L2.63109 11.8315L2.41551 12.1685L3.48564 12.8531C2.96479 13.1593 2.58406 13.5484 2.35689 13.8891L2.68971 14.111C2.99803 13.6485 3.65754 13.0562 4.62106 12.8193C4.92013 12.7457 5.25067 12.7059 5.61149 12.7157L4.3633 14.38L4.6833 14.62L6.08165 12.7555C6.17339 12.7684 6.26681 12.7845 6.3619 12.804L6.37045 12.8141L6.3784 12.8074C6.99069 12.9352 7.67173 13.2037 8.4173 13.6697C11.6158 15.6687 18.0811 19.8345 20.9147 21.668L21.132 21.3322C18.2988 19.499 11.8309 15.3314 8.6293 13.3305C7.89401 12.8709 7.20913 12.5893 6.58017 12.4424Z" fill="#3FB47C"/>
<path d="M12.4638 9.05288C12.4723 8.98237 12.5743 8.98237 12.5828 9.05288L12.9752 12.3105C12.9826 12.3718 13.0664 12.3834 13.09 12.3263L14.3447 9.29561C14.3719 9.23001 14.4701 9.2576 14.4593 9.3278L13.9603 12.5707C13.9509 12.6318 14.0285 12.6656 14.0666 12.617L16.0905 10.038C16.1344 9.98215 16.2215 10.0353 16.1922 10.1L14.8388 13.0877C14.8133 13.1439 14.879 13.1975 14.9287 13.161L17.5718 11.2249C17.629 11.183 17.6987 11.2578 17.6531 11.3121L15.5456 13.823C15.5059 13.8703 15.5547 13.9396 15.6125 13.918L18.6787 12.7684C18.745 12.7435 18.792 12.8344 18.7334 12.8744L16.0282 14.7222C15.9773 14.757 16.0056 14.837 16.0671 14.8318L19.329 14.554C19.3996 14.548 19.4204 14.6481 19.3532 14.6708L16.2509 15.7186C16.1925 15.7384 16.1983 15.823 16.2588 15.8346L19.4746 16.4492C19.5442 16.4625 19.5372 16.5646 19.4665 16.5683L16.1972 16.7383C16.1356 16.7415 16.1184 16.8246 16.1736 16.8521L19.1046 18.3136C19.1681 18.3452 19.1339 18.4416 19.0648 18.426L15.8709 17.7056C15.8108 17.692 15.7718 17.7674 15.8176 17.8088L18.2465 20.0087C18.2991 20.0563 18.2403 20.1399 18.1779 20.1062L15.2964 18.5488C15.2422 18.5195 15.1844 18.5815 15.2173 18.6338L16.964 21.4089C17.0018 21.469 16.9227 21.5335 16.8717 21.4842L14.5162 19.2054C14.4719 19.1625 14.3996 19.2066 14.4172 19.2658L15.3521 22.4104C15.3724 22.4785 15.2788 22.5192 15.243 22.4579L13.5883 19.6267C13.5571 19.5734 13.4756 19.5963 13.4766 19.6581L13.5305 22.9389C13.5316 23.0099 13.4305 23.0238 13.4125 22.9551L12.5813 19.7814C12.5656 19.7216 12.481 19.7216 12.4653 19.7814L11.6341 22.9551C11.6161 23.0238 11.515 23.0099 11.5162 22.9389L11.57 19.6581C11.571 19.5963 11.4895 19.5734 11.4584 19.6267L9.80365 22.4579C9.76783 22.5192 9.67424 22.4785 9.69447 22.4104L10.6294 19.2658C10.6471 19.2066 10.5747 19.1625 10.5304 19.2054L8.17492 21.4842C8.12394 21.5335 8.04479 21.469 8.08259 21.4089L9.82933 18.6338C9.86223 18.5815 9.80445 18.5195 9.75018 18.5488L6.8687 20.1062C6.80633 20.1399 6.74748 20.0563 6.80006 20.0087L9.22902 17.8088C9.27477 17.7674 9.23582 17.692 9.17567 17.7056L5.98185 18.426C5.91272 18.4416 5.87855 18.3452 5.94199 18.3136L8.87303 16.8521C8.92823 16.8246 8.91101 16.7415 8.84944 16.7383L5.58016 16.5683C5.50939 16.5646 5.50243 16.4625 5.57203 16.4492L8.78777 15.8346C8.84833 15.823 8.8541 15.7384 8.79568 15.7186L5.6934 14.6708C5.62625 14.6481 5.64701 14.548 5.71762 14.554L8.97955 14.8318C9.04098 14.837 9.06933 14.757 9.01838 14.7222L6.31319 12.8744C6.25463 12.8344 6.30158 12.7435 6.36795 12.7684L9.43415 13.918C9.4919 13.9396 9.54072 13.8703 9.50103 13.823L7.39355 11.3121C7.34793 11.2578 7.41758 11.183 7.47479 11.2249L10.1179 13.161C10.1676 13.1975 10.2333 13.1439 10.2078 13.0877L8.85436 10.1C8.82506 10.0353 8.91225 9.98215 8.95606 10.038L10.98 12.617C11.0181 12.6656 11.0957 12.6318 11.0863 12.5707L10.5873 9.3278C10.5765 9.25761 10.6747 9.23001 10.7019 9.29561L11.9566 12.3263C11.9802 12.3834 12.0641 12.3718 12.0714 12.3105L12.4638 9.05288Z" fill="#F8D74C"/>
</svg>
