<svg width="24" height="24" viewBox="0 0 24 24" fill="none" xmlns="http://www.w3.org/2000/svg">
<g clip-path="url(#clip0_440_1162)">
<rect width="24" height="24" rx="2" fill="#F9F9F9"/>
<rect width="8" height="24" fill="#64BEDB"/>
<rect x="16" width="8" height="24" fill="#64BEDB"/>
<path fill-rule="evenodd" clip-rule="evenodd" d="M8.87125 12.0549C8.61383 10.529 8.96625 8.75087 9.19685 8.01562L9.28165 8.05577C9.05411 8.78127 8.70736 10.5372 8.96002 12.0349C9.0861 12.7822 9.36048 13.46 9.86895 13.916C10.3773 14.3718 11.1268 14.6125 12.2141 14.4682L12.2255 14.5768C11.1233 14.7231 10.3483 14.4809 9.81568 14.0033C9.28319 13.5258 9.00021 12.8194 8.87125 12.0549Z" fill="#3FB47C"/>
<path d="M8.87746 8.13037L8.9419 9.42445L8.86187 10.2756L8.81783 11.0449L8.85186 11.7275L8.9325 12.1385L9.12871 12.8183L9.35637 13.3771C9.38048 13.607 9.92835 14.0422 10.1993 14.231L10.9546 14.5183C10.6875 14.5537 10.1021 14.3731 9.84276 14.2783L8.56152 13.1028L9.38722 13.6714L8.18902 12.1834L9.36162 13.4272L9.21634 13.2312L8.25238 11.9381L9.03865 12.6411L7.99985 11.2289L8.84463 12.1502L8.02091 10.5802L8.81457 11.8635L8.00804 10.0328L8.76447 11.3857L8.20749 9.72645L8.72996 11.0566L8.42712 9.69729L8.75882 10.4822L8.51286 8.98615L8.74139 9.80627L8.67251 8.46975L8.81889 9.44079L8.87746 8.13037Z" fill="#3FB47C"/>
<path d="M9.34989 8.42136L8.89425 9.54694L8.78576 10.8879L8.94162 12.3742L9.01197 12.6517L9.12296 12.9968L9.37986 13.385L9.40234 13.5994L9.82664 14.2364L10.4389 14.3661L9.98454 13.5221L9.94535 14.1001L9.82376 12.9405L9.79339 13.9193L9.55551 12.4436L9.48422 13.5082L9.4182 11.7685L9.17691 12.9561L9.30573 11.2508L8.99271 12.4681L9.30181 10.6585L8.90958 11.6752L9.26336 10.2918L8.86489 11.2491L9.2925 9.14238L8.8545 10.4365L9.34989 8.42136Z" fill="#3FB47C"/>
<path fill-rule="evenodd" clip-rule="evenodd" d="M15.1272 12.0549C15.3847 10.529 15.0322 8.75087 14.8017 8.01562L14.7168 8.05577C14.9444 8.78127 15.2911 10.5372 15.0385 12.0349C14.9124 12.7822 14.638 13.46 14.1295 13.916C13.6212 14.3718 12.8717 14.6125 11.7844 14.4682L11.773 14.5768C12.8752 14.7231 13.6502 14.4809 14.1828 14.0033C14.7153 13.5258 14.9983 12.8194 15.1272 12.0549Z" fill="#3FB47C"/>
<path d="M15.121 8.13037L15.0566 9.42445L15.1366 10.2756L15.1807 11.0449L15.1466 11.7275L15.066 12.1385L14.8698 12.8183L14.6421 13.3771C14.618 13.607 14.0701 14.0422 13.7992 14.231L13.0439 14.5183C13.311 14.5537 13.8964 14.3731 14.1557 14.2783L15.437 13.1028L14.6113 13.6714L15.8095 12.1834L14.6369 13.4272L14.7822 13.2312L15.7461 11.9381L14.9599 12.6411L15.9987 11.2289L15.1539 12.1502L15.9776 10.5802L15.1839 11.8635L15.9905 10.0328L15.234 11.3857L15.791 9.72645L15.2685 11.0566L15.5714 9.69729L15.2397 10.4822L15.4856 8.98615L15.2571 9.80627L15.326 8.46975L15.1796 9.44079L15.121 8.13037Z" fill="#3FB47C"/>
<path d="M14.6486 8.42136L15.1042 9.54694L15.2127 10.8879L15.0569 12.3742L14.9865 12.6517L14.8755 12.9968L14.6186 13.385L14.5962 13.5994L14.1719 14.2364L13.5596 14.3661L14.014 13.5221L14.0532 14.1001L14.1747 12.9405L14.2051 13.9193L14.443 12.4436L14.5143 13.5082L14.5803 11.7685L14.8216 12.9561L14.6928 11.2508L15.0058 12.4681L14.6967 10.6585L15.0889 11.6752L14.7351 10.2918L15.1336 11.2491L14.706 9.14238L15.144 10.4365L14.6486 8.42136Z" fill="#3FB47C"/>
<path d="M9.93759 13.1636L9.00827 14.2303L9.49616 14.7394L10.0538 14.0121V13.8667L10.3558 13.4788L10.9134 12.7273V12.3636L13.5387 9.64848L13.4225 9.47879L10.7043 12.2182L9.93759 13.1636Z" fill="#962122"/>
<path d="M9.91436 13.1394L10.4023 13.503L10.5184 13.4545L10.681 13.3576L10.6346 13.1394L10.8669 12.8L10.5184 12.4606L13.6781 9.21212L13.7246 9.26061L13.864 9.38182L15.0721 8L13.864 9.16364L13.7246 9.04242L10.3093 12.3636V12.7515L10.1467 12.9455H10.0073L9.91436 13.1394Z" fill="#E6E6E6"/>
<path d="M14.1428 13.1636L15.0721 14.2303L14.5842 14.7394L14.0266 14.0121V13.8667L13.7246 13.4788L13.167 12.7273V12.3636L10.5416 9.64848L10.6578 9.47879L13.3761 12.2182L14.1428 13.1636Z" fill="#962122"/>
<path d="M14.166 13.1394L13.6781 13.503L13.5619 13.4545L13.3993 13.3576L13.4458 13.1394L13.2134 12.8L13.5619 12.4606L10.4023 9.21212L10.3558 9.26061L10.2164 9.38182L9.00827 8L10.2164 9.16364L10.3558 9.04242L13.771 12.3636V12.7515L13.9337 12.9455H14.0731L14.166 13.1394Z" fill="#E6E6E6"/>
<path d="M13.2134 11.2L10.9134 13.8182L11.1457 13.9636L13.2134 11.2Z" fill="#E6E6E6"/>
<path d="M10.1235 14.2788V14.5939L10.2629 14.6667H10.4952L10.7507 14.4727L11.0992 14.1333H11.378V13.9636H11.1689L10.9366 13.8182L10.5416 14.2061H10.379L10.1235 14.2788Z" fill="#F8D74C"/>
<path d="M10.2605 13.9099C10.2327 13.9438 10.2213 13.9892 10.2297 14.0331L10.2861 14.3273H10.3558V14.0588C10.3558 14.001 10.3886 13.9487 10.4393 13.9255L10.6403 13.8337C10.6929 13.8097 10.7542 13.8218 10.7948 13.8641L10.8901 13.9636L10.9598 13.8909L10.838 13.7638C10.8119 13.7365 10.7764 13.7212 10.7395 13.7212H10.5281C10.5064 13.7212 10.4851 13.7265 10.4657 13.7366L10.381 13.7808C10.3643 13.7895 10.3496 13.8015 10.3375 13.8162L10.2605 13.9099Z" fill="#F8D74C"/>
<path d="M11.0295 11.2L13.3296 13.8182L13.0973 13.9636L11.0295 11.2Z" fill="#E6E6E6"/>
<path d="M14.1195 14.2788V14.5939L13.9801 14.6667H13.7478L13.4922 14.4727L13.1437 14.1333H12.865V13.9636H13.074L13.3064 13.8182L13.7013 14.2061H13.864L14.1195 14.2788Z" fill="#F8D74C"/>
<path d="M13.9824 13.9099C14.0103 13.9438 14.0217 13.9892 14.0133 14.0331L13.9569 14.3273H13.8872V14.0588C13.8872 14.001 13.8544 13.9487 13.8037 13.9255L13.6026 13.8337C13.5501 13.8097 13.4888 13.8218 13.4482 13.8641L13.3528 13.9636L13.2831 13.8909L13.4049 13.7638C13.4311 13.7365 13.4665 13.7212 13.5035 13.7212H13.7149C13.7365 13.7212 13.7579 13.7265 13.7772 13.7366L13.862 13.7808C13.8786 13.7895 13.8934 13.8015 13.9055 13.8162L13.9824 13.9099Z" fill="#F8D74C"/>
<path d="M11.0063 12.2183H11.3083C11.107 11.7334 10.6717 10.6619 10.5416 10.2546C10.4115 9.84735 10.7507 9.72937 10.9366 9.72129L13.0043 9.64856V10.0607C13.0043 10.1964 12.8494 10.2465 12.772 10.2546C12.9811 10.6506 13.4411 11.588 13.6084 12.1698C13.7757 12.7516 13.3838 12.9455 13.167 12.9698H10.9366C10.8591 12.9455 10.7043 12.8292 10.7043 12.5576C10.7043 12.2861 10.9056 12.2183 11.0063 12.2183Z" fill="#E6E6E6"/>
<path d="M11.1689 10.618H12.6559L12.7488 10.812H11.2619L11.1689 10.618Z" fill="#969696"/>
<path d="M11.3083 11.1029H12.7952L12.8882 11.2968H11.4013L11.3083 11.1029Z" fill="#969696"/>
<path d="M11.5871 11.5879H13.074L13.167 11.7818H11.6801L11.5871 11.5879Z" fill="#969696"/>
<path d="M12.0518 15.1757C13.8175 12.6933 13.562 10.8121 13.2135 10.1818L13.7014 10.3273L14.0499 11.3939C14.0731 11.6848 14.0824 12.4121 13.9337 12.9939C13.785 13.5757 13.2367 14.0929 12.9811 14.2788C13.4272 13.8327 13.6781 13.1232 13.7478 12.8242C13.7246 12.3959 13.6828 11.6315 13.7014 12C13.7246 12.4606 13.3529 13.1394 13.1438 13.6485C12.9765 14.0557 12.3461 14.8363 12.0518 15.1757Z" fill="#F8D74C"/>
<path d="M12.3771 9.81817C11.8567 9.66301 11.7885 9.23635 11.8195 9.04241L12.4932 9.18786L13.1902 9.81817C13.136 9.88281 12.8975 9.97332 12.3771 9.81817Z" fill="#D74B4B"/>
<path d="M11.8427 8.87271L11.8195 9.13938C12.3585 9.13938 12.865 9.62423 13.0508 9.86665L13.4226 10.5454C13.469 10.6505 13.562 10.9867 13.562 11.4909C13.562 11.9951 13.2522 12.5899 13.0973 12.8242C13.3575 12.6303 13.5155 12.2586 13.562 12.097C13.562 12.3103 13.469 12.7353 13.4226 12.9212L11.7962 16L13.2832 13.503C13.3374 13.3414 13.4969 12.9115 13.7014 12.4848C13.9058 12.0582 13.8795 11.3212 13.8408 11.006C13.864 11.1434 13.9197 11.5151 13.9569 11.903C13.9941 12.2909 13.6162 12.9858 13.4226 13.2848L13.8175 12.8727C13.802 12.9616 13.7618 13.1685 13.7246 13.2848C13.6317 13.8085 12.803 15.3131 12.4003 16C12.4313 15.9677 12.6512 15.6557 13.2832 14.6667C14.0731 13.4303 14.1892 12.3879 14.1196 11.3697C14.0638 10.5551 13.5697 9.91514 13.3296 9.69695C13.3219 9.68887 13.2692 9.59998 13.1205 9.30908C12.8603 8.95998 12.4855 8.87271 12.3306 8.87271C12.4421 8.79514 12.4235 8.59796 12.4003 8.50908C12.3848 8.43635 12.2981 8.29089 12.075 8.29089C11.852 8.29089 11.7962 8.48483 11.7962 8.5818V8.7515L11.6801 8.87271H11.8427Z" fill="#3FB47C"/>
<path d="M12.0286 8.5818C12.0286 8.60858 12.0078 8.63029 11.9821 8.63029C11.9565 8.63029 11.9356 8.60858 11.9356 8.5818C11.9356 8.55503 11.9565 8.53332 11.9821 8.53332C12.0078 8.53332 12.0286 8.55503 12.0286 8.5818Z" fill="#F8D74C"/>
</g>
<defs>
<clipPath id="clip0_440_1162">
<rect width="24" height="24" rx="2" fill="white"/>
</clipPath>
</defs>
</svg>
