<svg width="32" height="24" viewBox="0 0 32 24" fill="none" xmlns="http://www.w3.org/2000/svg">
<g clip-path="url(#clip0_440_1163)">
<rect width="32" height="24" rx="2" fill="#F9F9F9"/>
<rect width="10.6667" height="24" fill="#64BEDB"/>
<rect x="21.3333" width="10.6667" height="24" fill="#64BEDB"/>
<path fill-rule="evenodd" clip-rule="evenodd" d="M12.0893 12.0687C11.7675 10.1613 12.208 7.93859 12.4963 7.01953L12.6023 7.06971C12.3178 7.97658 11.8844 10.1715 12.2002 12.0436C12.3578 12.9778 12.7008 13.825 13.3364 14.395C13.9718 14.9648 14.9087 15.2657 16.2678 15.0852L16.2821 15.221C14.9044 15.4039 13.9356 15.1012 13.2698 14.5041C12.6042 13.9072 12.2505 13.0242 12.0893 12.0687Z" fill="#3FB47C"/>
<path d="M12.097 7.16296L12.1776 8.78056L12.0775 9.84447L12.0225 10.8061L12.065 11.6594L12.1658 12.1731L12.4111 13.0228L12.6957 13.7214C12.7258 14.0088 13.4106 14.5527 13.7493 14.7888L14.6934 15.1478C14.3596 15.1921 13.6278 14.9664 13.3036 14.8479L11.7021 13.3785L12.7342 14.0892L11.2365 12.2292L12.7022 13.784L12.5206 13.539L11.3157 11.9227L12.2985 12.8014L11 11.0361L12.056 12.1877L11.0263 10.2252L12.0184 11.8294L11.0102 9.54104L11.9558 11.2321L11.2595 9.15806L11.9126 10.8207L11.5341 9.12161L11.9487 10.1027L11.6413 8.23269L11.9269 9.25784L11.8408 7.58719L12.0238 8.80098L12.097 7.16296Z" fill="#3FB47C"/>
<path d="M12.6876 7.5267L12.118 8.93367L11.9824 10.6098L12.1772 12.4678L12.2651 12.8146L12.4039 13.2459L12.725 13.7313L12.7531 13.9993L13.2835 14.7955L14.0488 14.9577L13.4809 13.9026L13.4319 14.6251L13.2799 13.1757L13.2419 14.3991L12.9446 12.5545L12.8555 13.8852L12.7729 11.7106L12.4713 13.1951L12.6323 11.0635L12.2411 12.5851L12.6275 10.3231L12.1372 11.594L12.5794 9.86474L12.0813 11.0613L12.6158 8.42798L12.0683 10.0456L12.6876 7.5267Z" fill="#3FB47C"/>
<path fill-rule="evenodd" clip-rule="evenodd" d="M19.9092 12.0687C20.231 10.1613 19.7905 7.93859 19.5023 7.01953L19.3963 7.06971C19.6807 7.97658 20.1141 10.1715 19.7983 12.0436C19.6407 12.9778 19.2977 13.825 18.6621 14.395C18.0267 14.9648 17.0898 15.2657 15.7307 15.0852L15.7164 15.221C17.0941 15.4039 18.0629 15.1012 18.7287 14.5041C19.3943 13.9072 19.748 13.0242 19.9092 12.0687Z" fill="#3FB47C"/>
<path d="M19.9015 7.16296L19.8209 8.78056L19.921 9.84447L19.976 10.8061L19.9335 11.6594L19.8327 12.1731L19.5874 13.0228L19.3029 13.7214C19.2727 14.0088 18.5879 14.5527 18.2492 14.7888L17.3051 15.1478C17.6389 15.1921 18.3707 14.9664 18.6949 14.8479L20.2964 13.3785L19.2643 14.0892L20.762 12.2292L19.2963 13.784L19.4779 13.539L20.6828 11.9227L19.7 12.8014L20.9985 11.0361L19.9425 12.1877L20.9722 10.2252L19.9801 11.8294L20.9883 9.54104L20.0427 11.2321L20.739 9.15806L20.0859 10.8207L20.4644 9.12161L20.0498 10.1027L20.3572 8.23269L20.0716 9.25784L20.1577 7.58719L19.9747 8.80098L19.9015 7.16296Z" fill="#3FB47C"/>
<path d="M19.3109 7.5267L19.8805 8.93367L20.0161 10.6098L19.8213 12.4678L19.7334 12.8146L19.5946 13.2459L19.2735 13.7313L19.2454 13.9993L18.715 14.7955L17.9497 14.9577L18.5176 13.9026L18.5666 14.6251L18.7186 13.1757L18.7566 14.3991L19.0539 12.5545L19.143 13.8852L19.2256 11.7106L19.5272 13.1951L19.3662 11.0635L19.7574 12.5851L19.371 10.3231L19.8613 11.594L19.4191 9.86474L19.9172 11.0613L19.3827 8.42798L19.9302 10.0456L19.3109 7.5267Z" fill="#3FB47C"/>
<path d="M13.4222 13.4545L12.2605 14.7879L12.8704 15.4242L13.5674 14.5152V14.3333L13.9449 13.8485L14.6419 12.9091V12.4545L17.9236 9.06061L17.7784 8.84848L14.3805 12.2727L13.4222 13.4545Z" fill="#962122"/>
<path d="M13.3931 13.4242L14.003 13.8788L14.1482 13.8182L14.3515 13.697L14.2934 13.4242L14.5838 13L14.1482 12.5758L18.0978 8.51515L18.1559 8.57576L18.3302 8.72727L19.8403 7L18.3302 8.45455L18.1559 8.30303L13.8868 12.4545V12.9394L13.6836 13.1818H13.5093L13.3931 13.4242Z" fill="#E6E6E6"/>
<path d="M18.6786 13.4545L19.8403 14.7879L19.2304 15.4242L18.5334 14.5152V14.3333L18.1559 13.8485L17.4589 12.9091V12.4545L14.1773 9.06061L14.3225 8.84848L17.7203 12.2727L18.6786 13.4545Z" fill="#962122"/>
<path d="M18.7077 13.4242L18.0978 13.8788L17.9526 13.8182L17.7493 13.697L17.8074 13.4242L17.517 13L17.9526 12.5758L14.003 8.51515L13.9449 8.57576L13.7707 8.72727L12.2605 7L13.7707 8.45455L13.9449 8.30303L18.214 12.4545V12.9394L18.4173 13.1818H18.5915L18.7077 13.4242Z" fill="#E6E6E6"/>
<path d="M17.517 11L14.6419 14.2727L14.9323 14.4545L17.517 11Z" fill="#E6E6E6"/>
<path d="M13.6545 14.8485V15.2424L13.8288 15.3333H14.1192L14.4386 15.0909L14.8742 14.6667H15.2227V14.4545H14.9614L14.671 14.2727L14.1773 14.7576H13.974L13.6545 14.8485Z" fill="#F8D74C"/>
<path d="M13.8259 14.3873C13.791 14.4298 13.7768 14.4865 13.7873 14.5413L13.8578 14.9091H13.9449V14.5735C13.9449 14.5012 13.9859 14.4358 14.0493 14.4069L14.3006 14.2922C14.3663 14.2622 14.443 14.2772 14.4937 14.3302L14.6129 14.4545L14.7 14.3636L14.5477 14.2048C14.5151 14.1707 14.4707 14.1515 14.4245 14.1515H14.1603C14.1333 14.1515 14.1066 14.1581 14.0824 14.1707L13.9764 14.226C13.9556 14.2368 13.9371 14.2519 13.922 14.2703L13.8259 14.3873Z" fill="#F8D74C"/>
<path d="M14.7871 11L17.6622 14.2727L17.3718 14.4545L14.7871 11Z" fill="#E6E6E6"/>
<path d="M18.6496 14.8485V15.2424L18.4754 15.3333H18.1849L17.8655 15.0909L17.4299 14.6667H17.0814V14.4545H17.3427L17.6332 14.2727L18.1269 14.7576H18.3302L18.6496 14.8485Z" fill="#F8D74C"/>
<path d="M18.4782 14.3873C18.5131 14.4298 18.5273 14.4865 18.5168 14.5413L18.4463 14.9091H18.3592V14.5735C18.3592 14.5012 18.3182 14.4358 18.2548 14.4069L18.0035 14.2922C17.9378 14.2622 17.8612 14.2772 17.8104 14.3302L17.6912 14.4545L17.6041 14.3636L17.7564 14.2048C17.7891 14.1707 17.8334 14.1515 17.8796 14.1515H18.1438C18.1709 14.1515 18.1975 14.1581 18.2217 14.1707L18.3277 14.226C18.3485 14.2368 18.367 14.2519 18.3821 14.2703L18.4782 14.3873Z" fill="#F8D74C"/>
<path d="M14.7581 12.2728H15.1356C14.8839 11.6667 14.3399 10.3273 14.1772 9.81824C14.0146 9.30915 14.4386 9.16168 14.6709 9.15158L17.2556 9.06067V9.57582C17.2556 9.74552 17.062 9.80814 16.9652 9.81824C17.2266 10.3132 17.8016 11.4849 18.0107 12.2122C18.2198 12.9395 17.73 13.1819 17.4589 13.2122H14.6709C14.5741 13.1819 14.3805 13.0364 14.3805 12.697C14.3805 12.3576 14.6322 12.2728 14.7581 12.2728Z" fill="#E6E6E6"/>
<path d="M14.9613 10.2726H16.82L16.9362 10.515H15.0775L14.9613 10.2726Z" fill="#969696"/>
<path d="M15.1356 10.8787H16.9942L17.1104 11.1211H15.2518L15.1356 10.8787Z" fill="#969696"/>
<path d="M15.4841 11.4849H17.3427L17.4589 11.7273H15.6003L15.4841 11.4849Z" fill="#969696"/>
<path d="M16.0649 15.9697C18.2721 12.8667 17.9526 10.5152 17.517 9.72728L18.1269 9.9091L18.5625 11.2424C18.5915 11.6061 18.6031 12.5152 18.4173 13.2424C18.2314 13.9697 17.546 14.6162 17.2266 14.8485C17.7842 14.2909 18.0978 13.4041 18.1849 13.0303C18.1559 12.495 18.1036 11.5394 18.1269 12C18.1559 12.5758 17.6912 13.4243 17.4299 14.0606C17.2208 14.5697 16.4328 15.5455 16.0649 15.9697Z" fill="#F8D74C"/>
<path d="M16.4715 9.27274C15.821 9.0788 15.7358 8.54547 15.7745 8.30304L16.6167 8.48486L17.4879 9.27274C17.4202 9.35355 17.122 9.46668 16.4715 9.27274Z" fill="#D74B4B"/>
<path d="M15.8036 8.09092L15.7745 8.42425C16.4483 8.42425 17.0814 9.03031 17.3137 9.33334L17.7784 10.1818C17.8364 10.3131 17.9526 10.7333 17.9526 11.3636C17.9526 11.994 17.5654 12.7374 17.3718 13.0303C17.697 12.7879 17.8945 12.3232 17.9526 12.1212C17.9526 12.3879 17.8364 12.9192 17.7784 13.1515L15.7455 17L17.6041 13.8788C17.6719 13.6768 17.8713 13.1394 18.1269 12.6061C18.3824 12.0727 18.3495 11.1515 18.3011 10.7576C18.3301 10.9293 18.3998 11.394 18.4463 11.8788C18.4928 12.3636 18.0204 13.2323 17.7784 13.6061L18.2721 13.0909C18.2527 13.202 18.2024 13.4606 18.1559 13.6061C18.0397 14.2606 17.0039 16.1414 16.5005 17C16.5393 16.9596 16.8142 16.5697 17.6041 15.3333C18.5915 13.7879 18.7367 12.4849 18.6496 11.2121C18.5799 10.194 17.9623 9.39395 17.6622 9.12122C17.6525 9.11112 17.5867 9.00001 17.4008 8.63637C17.0756 8.20001 16.607 8.09092 16.4134 8.09092C16.5528 7.99395 16.5296 7.74749 16.5005 7.63637C16.4812 7.54547 16.3728 7.36365 16.094 7.36365C15.8152 7.36365 15.7455 7.60607 15.7455 7.72728V7.93941L15.6003 8.09092H15.8036Z" fill="#3FB47C"/>
<path d="M16.0359 7.72728C16.0359 7.76076 16.0099 7.78789 15.9778 7.78789C15.9457 7.78789 15.9197 7.76076 15.9197 7.72728C15.9197 7.69381 15.9457 7.66668 15.9778 7.66668C16.0099 7.66668 16.0359 7.69381 16.0359 7.72728Z" fill="#F8D74C"/>
</g>
<defs>
<clipPath id="clip0_440_1163">
<rect width="32" height="24" rx="2" fill="white"/>
</clipPath>
</defs>
</svg>
