<svg width="32" height="24" viewBox="0 0 32 24" fill="none" xmlns="http://www.w3.org/2000/svg">
<rect width="32" height="24" rx="2" fill="#D74B4B"/>
<path d="M0 0H32V12H0V0Z" fill="#485CC2"/>
<rect x="10" y="6" width="12" height="12" fill="#F9F9F9"/>
<path d="M14.0587 13.5679C13.689 12.6197 13.9838 11.3111 14.1775 10.7753L16.5533 13.7853C15.8758 14.1079 14.4283 14.5161 14.0587 13.5679Z" fill="#485CC2"/>
<path d="M16.5601 13.804L15.1309 14.2564L15.1335 14.0761C15.1411 13.5594 15.2848 13.0556 15.5478 12.6234L15.5875 12.5582L16.5601 13.804Z" fill="#D74B4B"/>
<path d="M13.7409 14.1855C13.2403 13.3098 13.3449 11.9679 13.4598 11.4064L16.237 13.9874C15.6136 14.4183 14.2416 15.0612 13.7409 14.1855Z" fill="#485CC2"/>
<path d="M16.2464 14.0047L14.8987 14.6883L14.8756 14.5098C14.8093 13.9979 14.8794 13.4764 15.0776 13.0058L15.1075 12.9347L16.2464 14.0047Z" fill="#D74B4B"/>
<path d="M13.5746 14.9398C12.9746 14.1398 12.9198 12.7945 12.9675 12.2218L16.027 14.4013C15.4595 14.9142 14.1746 15.7398 13.5746 14.9398Z" fill="#485CC2"/>
<path d="M16.0383 14.4173L14.7823 15.28L14.7383 15.106C14.6121 14.6074 14.62 14.0805 14.761 13.5865L14.7823 13.512L16.0383 14.4173Z" fill="#D74B4B"/>
<path d="M18.1602 13.5679C18.5299 12.6197 18.235 11.3111 18.0414 10.7753L15.6655 13.7853C16.3431 14.1079 17.7905 14.5161 18.1602 13.5679Z" fill="#485CC2"/>
<path d="M15.6588 13.804L17.088 14.2564L17.0854 14.0761C17.0778 13.5594 16.9341 13.0556 16.6711 12.6234L16.6314 12.5582L15.6588 13.804Z" fill="#D74B4B"/>
<path d="M18.4779 14.1855C18.9785 13.3098 18.8739 11.9679 18.759 11.4064L15.9819 13.9874C16.6053 14.4183 17.9773 15.0612 18.4779 14.1855Z" fill="#485CC2"/>
<path d="M15.9725 14.0047L17.3202 14.6883L17.3433 14.5098C17.4095 13.9979 17.3395 13.4764 17.1413 13.0058L17.1113 12.9347L15.9725 14.0047Z" fill="#D74B4B"/>
<path d="M18.6443 14.9398C19.2443 14.1398 19.299 12.7945 19.2514 12.2218L16.1919 14.4013C16.7594 14.9142 18.0443 15.7398 18.6443 14.9398Z" fill="#485CC2"/>
<path d="M16.1806 14.4173L17.4365 15.28L17.4806 15.106C17.6067 14.6074 17.5988 14.0805 17.4578 13.5865L17.4365 13.512L16.1806 14.4173Z" fill="#D74B4B"/>
<path d="M16.0818 8.47583C16.0295 10.4285 15.7138 14.3559 15.7138 14.4379H16.4506L16.0818 8.47583Z" fill="#E77D42"/>
<path fill-rule="evenodd" clip-rule="evenodd" d="M16.6953 10.534H13.9785C14.3122 10.1594 14.7971 9.92365 15.3369 9.92365C15.8767 9.92365 16.3616 10.1594 16.6953 10.534Z" fill="#3FB47C"/>
<path fill-rule="evenodd" clip-rule="evenodd" d="M16.3143 10.7204L14.1197 9.35588C14.5632 9.19914 15.0643 9.23858 15.5004 9.50968C15.9364 9.78077 16.2187 10.2285 16.3143 10.7204Z" fill="#3FB47C"/>
<path fill-rule="evenodd" clip-rule="evenodd" d="M16.056 10.7753L14.789 8.41184C15.2458 8.51488 15.6615 8.8189 15.9132 9.28844C16.165 9.75799 16.2016 10.2977 16.056 10.7753Z" fill="#3FB47C"/>
<path fill-rule="evenodd" clip-rule="evenodd" d="M15.8069 7.95459L15.8069 10.5304C16.1547 10.214 16.3735 9.75426 16.3735 9.24251C16.3735 8.73077 16.1547 8.27098 15.8069 7.95459Z" fill="#3FB47C"/>
<path fill-rule="evenodd" clip-rule="evenodd" d="M15.6337 10.4702L16.9008 8.10677C17.0463 8.58433 17.0097 9.12405 16.7579 9.5936C16.5062 10.0631 16.0905 10.3672 15.6337 10.4702Z" fill="#3FB47C"/>
<path fill-rule="evenodd" clip-rule="evenodd" d="M15.5828 10.192L17.7774 8.82752C17.6817 9.31947 17.3994 9.76716 16.9634 10.0383C16.5274 10.3093 16.0262 10.3488 15.5828 10.192Z" fill="#3FB47C"/>
<path fill-rule="evenodd" clip-rule="evenodd" d="M15.3259 9.92365L18.2011 9.92365C17.848 10.2982 17.3347 10.534 16.7635 10.534C16.1922 10.534 15.679 10.2982 15.3259 9.92365Z" fill="#3FB47C"/>
<path d="M11.0898 15.9545L12.4287 15.1895C12.8795 14.9149 13.986 14.3598 14.8057 14.3362C15.6253 14.3127 16.0033 14.3264 16.0898 14.3362V15.9545H11.0898Z" fill="#3FB47C"/>
<path d="M21.0898 15.9545L19.751 15.1895C19.3002 14.9149 18.1937 14.3598 17.374 14.3362C16.5543 14.3127 16.1763 14.3264 16.0898 14.3362V15.9545H21.0898Z" fill="#3FB47C"/>
<path d="M15.6588 14.1235C15.6588 14.0862 15.6789 14.0524 15.7103 14.0368C15.9396 13.9231 16.2032 13.9203 16.4346 14.029L16.4503 14.0363C16.484 14.0522 16.5057 14.088 16.5057 14.1275V15.0993C16.5057 15.1921 16.4408 15.2701 16.3551 15.2802L16.1649 15.3025C16.1024 15.3098 16.0393 15.3096 15.9768 15.3019L15.8084 15.281C15.7231 15.2704 15.6588 15.1927 15.6588 15.1003V14.1235Z" fill="#D74B4B"/>
<path d="M16.4245 14.1358C16.4245 14.2093 16.2654 14.2689 16.0691 14.2689C15.8729 14.2689 15.7138 14.2093 15.7138 14.1358C15.7138 14.0623 15.8729 14.0028 16.0691 14.0028C16.2654 14.0028 16.4245 14.0623 16.4245 14.1358Z" fill="#F9F9F9"/>
<path d="M12.924 13.5429C12.802 13.527 12.6911 13.6206 12.6763 13.7519C12.6615 13.8833 12.7484 14.0027 12.8704 14.0186L13.3604 14.0826C13.4855 13.8697 13.7061 13.7284 13.9573 13.7284C14.2691 13.7284 14.5336 13.946 14.6271 14.2479L14.9906 14.2953C15.1126 14.3112 15.2234 14.2176 15.2382 14.0863C15.253 13.9549 15.1661 13.8355 15.0441 13.8196L12.924 13.5429Z" fill="#F8D74C"/>
<path fill-rule="evenodd" clip-rule="evenodd" d="M13.9573 14.976C14.2073 14.976 14.4099 14.7578 14.4099 14.4886C14.4099 14.2195 14.2073 14.0013 13.9573 14.0013C13.7074 14.0013 13.5048 14.2195 13.5048 14.4886C13.5048 14.7578 13.7074 14.976 13.9573 14.976ZM13.9573 15.2489C14.3472 15.2489 14.6633 14.9085 14.6633 14.4886C14.6633 14.0687 14.3472 13.7284 13.9573 13.7284C13.5674 13.7284 13.2514 14.0687 13.2514 14.4886C13.2514 14.9085 13.5674 15.2489 13.9573 15.2489Z" fill="#F8D74C"/>
<path d="M13.9112 13.8623H14.0033V15.1149H13.9112V13.8623Z" fill="#F8D74C"/>
<path d="M14.5388 14.439V14.5383H13.3757V14.439L14.5388 14.439Z" fill="#F8D74C"/>
<path d="M14.3359 14.0107L14.4011 14.0809L13.5786 14.9665L13.5135 14.8963L14.3359 14.0107Z" fill="#F8D74C"/>
<path d="M14.4011 14.8964L14.3359 14.9666L13.5135 14.0809L13.5787 14.0107L14.4011 14.8964Z" fill="#F8D74C"/>
<path d="M19.2324 13.5429C19.3544 13.527 19.4653 13.6206 19.4801 13.7519C19.4948 13.8833 19.4079 14.0027 19.2859 14.0186L18.796 14.0826C18.6709 13.8697 18.4503 13.7284 18.1991 13.7284C17.8873 13.7284 17.6228 13.946 17.5292 14.2479L17.1658 14.2953C17.0438 14.3112 16.9329 14.2176 16.9182 14.0863C16.9034 13.9549 16.9903 13.8355 17.1123 13.8196L19.2324 13.5429Z" fill="#F8D74C"/>
<path fill-rule="evenodd" clip-rule="evenodd" d="M18.1991 14.976C17.9491 14.976 17.7465 14.7578 17.7465 14.4886C17.7465 14.2195 17.9491 14.0013 18.1991 14.0013C18.449 14.0013 18.6516 14.2195 18.6516 14.4886C18.6516 14.7578 18.449 14.976 18.1991 14.976ZM18.1991 15.2489C17.8092 15.2489 17.4931 14.9085 17.4931 14.4886C17.4931 14.0687 17.8092 13.7284 18.1991 13.7284C18.589 13.7284 18.905 14.0687 18.905 14.4886C18.905 14.9085 18.5889 15.2489 18.1991 15.2489Z" fill="#F8D74C"/>
<path d="M18.2452 13.8623H18.153V15.1149H18.2452V13.8623Z" fill="#F8D74C"/>
<path d="M17.6176 14.439V14.5383H18.7807V14.439L17.6176 14.439Z" fill="#F8D74C"/>
<path d="M17.8205 14.0107L17.7553 14.0809L18.5777 14.9665L18.6429 14.8963L17.8205 14.0107Z" fill="#F8D74C"/>
<path d="M17.7553 14.8964L17.8205 14.9666L18.6429 14.0809L18.5777 14.0107L17.7553 14.8964Z" fill="#F8D74C"/>
<path fill-rule="evenodd" clip-rule="evenodd" d="M18.3343 15.6119L17.8342 15.6897C16.6061 15.8807 15.3587 15.8797 14.1308 15.6865L13.6561 15.6119L13.7172 15.1618L14.1918 15.2365C15.3795 15.4233 16.5859 15.4243 17.7739 15.2395L18.2739 15.1617L18.3343 15.6119Z" fill="#F9F9F9"/>
</svg>
