<svg width="24" height="24" viewBox="0 0 24 24" fill="none" xmlns="http://www.w3.org/2000/svg">
<rect width="24" height="24" rx="2" fill="#D74B4B"/>
<path d="M0 0H24V12H0V0Z" fill="#485CC2"/>
<rect x="6" y="6" width="12" height="12" fill="#F9F9F9"/>
<path d="M9.96881 13.6133C9.59912 12.6651 9.894 11.3565 10.0877 10.8207L12.4635 13.8307C11.786 14.1533 10.3385 14.5615 9.96881 13.6133Z" fill="#485CC2"/>
<path d="M12.4703 13.8494L11.041 14.3018L11.0437 14.1215C11.0513 13.6048 11.1949 13.101 11.458 12.6688L11.4977 12.6036L12.4703 13.8494Z" fill="#D74B4B"/>
<path d="M9.6511 14.2309C9.15049 13.3552 9.2551 12.0133 9.36998 11.4518L12.1472 14.0328C11.5237 14.4637 10.1517 15.1066 9.6511 14.2309Z" fill="#485CC2"/>
<path d="M12.1565 14.0501L10.8088 14.7338L10.7857 14.5552C10.7195 14.0433 10.7896 13.5218 10.9878 13.0512L11.0177 12.9801L12.1565 14.0501Z" fill="#D74B4B"/>
<path d="M9.48475 14.9852C8.88475 14.1852 8.82999 12.8399 8.87761 12.2672L11.9371 14.4468C11.3697 14.9596 10.0848 15.7852 9.48475 14.9852Z" fill="#485CC2"/>
<path d="M11.9485 14.4627L10.6925 15.3254L10.6485 15.1514C10.5223 14.6528 10.5302 14.1259 10.6712 13.6319L10.6925 13.5574L11.9485 14.4627Z" fill="#D74B4B"/>
<path d="M14.0704 13.6133C14.4401 12.6651 14.1452 11.3565 13.9515 10.8207L11.5757 13.8307C12.2532 14.1533 13.7007 14.5615 14.0704 13.6133Z" fill="#485CC2"/>
<path d="M11.5689 13.8494L12.9982 14.3018L12.9955 14.1215C12.9879 13.6048 12.8442 13.101 12.5812 12.6688L12.5415 12.6036L11.5689 13.8494Z" fill="#D74B4B"/>
<path d="M14.3881 14.2309C14.8887 13.3552 14.7841 12.0133 14.6692 11.4518L11.892 14.0328C12.5154 14.4637 13.8875 15.1066 14.3881 14.2309Z" fill="#485CC2"/>
<path d="M11.8827 14.0501L13.2303 14.7338L13.2535 14.5552C13.3197 14.0433 13.2496 13.5218 13.0514 13.0512L13.0215 12.9801L11.8827 14.0501Z" fill="#D74B4B"/>
<path d="M14.5544 14.9852C15.1544 14.1852 15.2092 12.8399 15.1616 12.2672L12.102 14.4468C12.6695 14.9596 13.9544 15.7852 14.5544 14.9852Z" fill="#485CC2"/>
<path d="M12.0907 14.4627L13.3467 15.3254L13.3907 15.1514C13.5169 14.6528 13.509 14.1259 13.368 13.6319L13.3467 13.5574L12.0907 14.4627Z" fill="#D74B4B"/>
<path d="M11.992 8.52124C11.9396 10.474 11.624 14.4013 11.624 14.4833H12.3608L11.992 8.52124Z" fill="#E77D42"/>
<path fill-rule="evenodd" clip-rule="evenodd" d="M12.6055 10.5794H9.88861C10.2223 10.2048 10.7073 9.96906 11.2471 9.96906C11.7868 9.96906 12.2718 10.2048 12.6055 10.5794Z" fill="#3FB47C"/>
<path fill-rule="evenodd" clip-rule="evenodd" d="M12.2245 10.7658L10.0299 9.40129C10.4733 9.24455 10.9745 9.28399 11.4105 9.55509C11.8465 9.82618 12.1288 10.2739 12.2245 10.7658Z" fill="#3FB47C"/>
<path fill-rule="evenodd" clip-rule="evenodd" d="M11.9662 10.8207L10.6991 8.45725C11.156 8.56029 11.5717 8.86431 11.8234 9.33385C12.0751 9.8034 12.1118 10.3431 11.9662 10.8207Z" fill="#3FB47C"/>
<path fill-rule="evenodd" clip-rule="evenodd" d="M11.7171 8L11.7171 10.5758C12.0648 10.2595 12.2837 9.79967 12.2837 9.28792C12.2837 8.77618 12.0648 8.31639 11.7171 8Z" fill="#3FB47C"/>
<path fill-rule="evenodd" clip-rule="evenodd" d="M11.5438 10.5156L12.8109 8.15218C12.9565 8.62974 12.9198 9.16946 12.6681 9.63901C12.4164 10.1086 12.0007 10.4126 11.5438 10.5156Z" fill="#3FB47C"/>
<path fill-rule="evenodd" clip-rule="evenodd" d="M11.493 10.2375L13.6876 8.87293C13.5919 9.36488 13.3096 9.81257 12.8736 10.0837C12.4376 10.3548 11.9364 10.3942 11.493 10.2375Z" fill="#3FB47C"/>
<path fill-rule="evenodd" clip-rule="evenodd" d="M11.236 9.96906L14.1113 9.96906C13.7581 10.3436 13.2449 10.5794 12.6736 10.5794C12.1024 10.5794 11.5892 10.3436 11.236 9.96906Z" fill="#3FB47C"/>
<path d="M7 16L8.33883 15.2349C8.78964 14.9603 9.89617 14.4052 10.7158 14.3816C11.5355 14.3581 11.9135 14.3718 12 14.3816V16H7Z" fill="#3FB47C"/>
<path d="M17 16L15.6612 15.2349C15.2104 14.9603 14.1038 14.4052 13.2842 14.3816C12.4645 14.3581 12.0865 14.3718 12 14.3816V16H17Z" fill="#3FB47C"/>
<path d="M11.5689 14.1689C11.5689 14.1316 11.589 14.0978 11.6204 14.0822C11.8498 13.9686 12.1133 13.9657 12.3448 14.0744L12.3604 14.0818C12.3941 14.0976 12.4159 14.1334 12.4159 14.1729V15.1447C12.4159 15.2375 12.351 15.3155 12.2653 15.3256L12.0751 15.3479C12.0125 15.3552 11.9494 15.355 11.8869 15.3473L11.7185 15.3264C11.6333 15.3159 11.5689 15.2381 11.5689 15.1457V14.1689Z" fill="#D74B4B"/>
<path d="M12.3346 14.1812C12.3346 14.2547 12.1755 14.3143 11.9793 14.3143C11.7831 14.3143 11.624 14.2547 11.624 14.1812C11.624 14.1077 11.7831 14.0482 11.9793 14.0482C12.1755 14.0482 12.3346 14.1077 12.3346 14.1812Z" fill="#F9F9F9"/>
<path d="M8.83411 13.5883C8.71213 13.5724 8.60126 13.666 8.58648 13.7973C8.57169 13.9287 8.6586 14.0481 8.78058 14.064L9.27053 14.128C9.39564 13.9151 9.61622 13.7738 9.86746 13.7738C10.1792 13.7738 10.4438 13.9914 10.5373 14.2933L10.9007 14.3407C11.0227 14.3566 11.1336 14.263 11.1484 14.1317C11.1632 14.0003 11.0762 13.8809 10.9543 13.865L8.83411 13.5883Z" fill="#F8D74C"/>
<path fill-rule="evenodd" clip-rule="evenodd" d="M9.86748 15.0214C10.1174 15.0214 10.32 14.8032 10.32 14.534C10.32 14.2649 10.1174 14.0467 9.86748 14.0467C9.61754 14.0467 9.41493 14.2649 9.41493 14.534C9.41493 14.8032 9.61754 15.0214 9.86748 15.0214ZM9.86748 15.2943C10.2574 15.2943 10.5734 14.9539 10.5734 14.534C10.5734 14.1142 10.2573 13.7738 9.86746 13.7738C9.47757 13.7738 9.16152 14.1142 9.16152 14.534C9.16152 14.9539 9.47759 15.2943 9.86748 15.2943Z" fill="#F8D74C"/>
<path d="M9.82131 13.9078H9.91349V15.1603H9.82131V13.9078Z" fill="#F8D74C"/>
<path d="M10.449 14.4844V14.5837H9.28588V14.4844L10.449 14.4844Z" fill="#F8D74C"/>
<path d="M10.246 14.0561L10.3112 14.1263L9.4888 15.012L9.42362 14.9418L10.246 14.0561Z" fill="#F8D74C"/>
<path d="M10.3112 14.9418L10.2461 15.012L9.42363 14.1263L9.48881 14.0561L10.3112 14.9418Z" fill="#F8D74C"/>
<path d="M15.1426 13.5883C15.2646 13.5724 15.3754 13.666 15.3902 13.7973C15.405 13.9287 15.3181 14.0481 15.1961 14.064L14.7062 14.128C14.581 13.9151 14.3605 13.7738 14.1092 13.7738C13.7975 13.7738 13.5329 13.9914 13.4394 14.2933L13.0759 14.3407C12.954 14.3566 12.8431 14.263 12.8283 14.1317C12.8135 14.0003 12.9004 13.8809 13.0224 13.865L15.1426 13.5883Z" fill="#F8D74C"/>
<path fill-rule="evenodd" clip-rule="evenodd" d="M14.1092 15.0214C13.8593 15.0214 13.6567 14.8032 13.6567 14.534C13.6567 14.2649 13.8593 14.0467 14.1092 14.0467C14.3591 14.0467 14.5618 14.2649 14.5618 14.534C14.5618 14.8032 14.3591 15.0214 14.1092 15.0214ZM14.1092 15.2943C13.7193 15.2943 13.4033 14.9539 13.4033 14.534C13.4033 14.1142 13.7193 13.7738 14.1092 13.7738C14.4991 13.7738 14.8152 14.1142 14.8152 14.534C14.8152 14.9539 14.4991 15.2943 14.1092 15.2943Z" fill="#F8D74C"/>
<path d="M14.1554 13.9078H14.0632V15.1603H14.1554V13.9078Z" fill="#F8D74C"/>
<path d="M13.5277 14.4844V14.5837H14.6908V14.4844L13.5277 14.4844Z" fill="#F8D74C"/>
<path d="M13.7306 14.0561L13.6655 14.1263L14.4879 15.012L14.5531 14.9418L13.7306 14.0561Z" fill="#F8D74C"/>
<path d="M13.6654 14.9418L13.7306 15.012L14.5531 14.1263L14.4879 14.0561L13.6654 14.9418Z" fill="#F8D74C"/>
<path fill-rule="evenodd" clip-rule="evenodd" d="M14.2444 15.6573L13.7444 15.7351C12.5162 15.9262 11.2688 15.9251 10.0409 15.7319L9.56628 15.6573L9.62733 15.2072L10.102 15.2819C11.2896 15.4687 12.4961 15.4697 13.684 15.2849L14.1841 15.2072L14.2444 15.6573Z" fill="#F9F9F9"/>
</svg>
