<svg width="32" height="24" viewBox="0 0 32 24" fill="none" xmlns="http://www.w3.org/2000/svg">
<g clip-path="url(#clip0_440_1153)">
<rect width="32" height="24" rx="2" fill="#F9F9F9"/>
<path d="M0 16H32V24H0V16Z" fill="#485CC2"/>
<path d="M0 0H32V8H0V0Z" fill="#485CC2"/>
<path d="M16 11L16.2245 11.691H16.9511L16.3633 12.118L16.5878 12.809L16 12.382L15.4122 12.809L15.6367 12.118L15.049 11.691H15.7755L16 11Z" fill="#485CC2"/>
<path d="M12 9.5L12.2245 10.191H12.9511L12.3633 10.618L12.5878 11.309L12 10.882L11.4122 11.309L11.6367 10.618L11.049 10.191H11.7755L12 9.5Z" fill="#485CC2"/>
<path d="M20 9.5L20.2245 10.191H20.9511L20.3633 10.618L20.5878 11.309L20 10.882L19.4122 11.309L19.6367 10.618L19.049 10.191H19.7755L20 9.5Z" fill="#485CC2"/>
<path d="M12 12.5L12.2245 13.191H12.9511L12.3633 13.618L12.5878 14.309L12 13.882L11.4122 14.309L11.6367 13.618L11.049 13.191H11.7755L12 12.5Z" fill="#485CC2"/>
<path d="M20 12.5L20.2245 13.191H20.9511L20.3633 13.618L20.5878 14.309L20 13.882L19.4122 14.309L19.6367 13.618L19.049 13.191H19.7755L20 12.5Z" fill="#485CC2"/>
</g>
<defs>
<clipPath id="clip0_440_1153">
<rect width="32" height="24" rx="2" fill="white"/>
</clipPath>
</defs>
</svg>
