<svg width="24" height="24" viewBox="0 0 24 24" fill="none" xmlns="http://www.w3.org/2000/svg">
<g clip-path="url(#clip0_440_1151)">
<rect width="24" height="24" rx="12" fill="#F9F9F9"/>
<path d="M12 11.5L12.2245 12.191H12.9511L12.3633 12.618L12.5878 13.309L12 12.882L11.4122 13.309L11.6367 12.618L11.049 12.191H11.7755L12 11.5Z" fill="#485CC2"/>
<path d="M8.00001 10L8.22452 10.691H8.95106L8.36328 11.118L8.58779 11.809L8.00001 11.382L7.41222 11.809L7.63674 11.118L7.04895 10.691H7.77549L8.00001 10Z" fill="#485CC2"/>
<path d="M16 10L16.2245 10.691H16.9511L16.3633 11.118L16.5878 11.809L16 11.382L15.4122 11.809L15.6367 11.118L15.049 10.691H15.7755L16 10Z" fill="#485CC2"/>
<path d="M8.00001 13L8.22452 13.691H8.95106L8.36328 14.118L8.58779 14.809L8.00001 14.382L7.41222 14.809L7.63674 14.118L7.04895 13.691H7.77549L8.00001 13Z" fill="#485CC2"/>
<path d="M16 13L16.2245 13.691H16.9511L16.3633 14.118L16.5878 14.809L16 14.382L15.4122 14.809L15.6367 14.118L15.049 13.691H15.7755L16 13Z" fill="#485CC2"/>
<path d="M0 16H24V24H0V16Z" fill="#485CC2"/>
<path d="M0 0H24V8H0V0Z" fill="#485CC2"/>
</g>
<defs>
<clipPath id="clip0_440_1151">
<rect width="24" height="24" rx="12" fill="white"/>
</clipPath>
</defs>
</svg>
