<svg width="32" height="24" viewBox="0 0 32 24" fill="none" xmlns="http://www.w3.org/2000/svg">
<g clip-path="url(#clip0_440_1181)">
<rect width="32" height="24" rx="2" fill="#485CC2"/>
<path d="M14 24H18V14H32V10H18V3.49692e-07L14 0L14 10H0V14H14L14 24Z" fill="#F9F9F9"/>
<path fill-rule="evenodd" clip-rule="evenodd" d="M5.74149 2.32696C5.67255 2.38064 5.71276 2.44912 5.74149 2.47665C5.75167 2.49762 5.765 2.51693 5.78084 2.53469C5.36554 2.67112 4.75769 2.62367 4.49206 2.57989C4.54806 2.6377 4.65182 2.69 4.6967 2.70893L4.4382 2.66764C4.44538 2.69 4.53622 2.7461 4.84211 2.79152C5.13215 2.83459 5.6646 2.714 5.93172 2.63832C6.05356 2.69295 6.19898 2.71516 6.28542 2.71925C6.52956 2.71581 7.07601 2.7048 7.30866 2.68828C7.5304 2.67254 7.77628 2.65867 7.88589 2.65294C7.92258 2.66587 7.95113 2.67989 7.97289 2.69338C8.03579 2.73237 8.05057 2.77084 8.05455 2.79944C8.06013 2.83956 8.05773 2.88365 8.00168 2.9496C7.93422 3.02897 7.784 3.14365 7.4632 3.27438C7.13309 3.40892 6.88788 3.51821 6.73444 3.64975C6.64669 3.72497 6.58136 3.81252 6.54279 3.91907C6.50676 4.0186 6.50084 4.11707 6.50084 4.2007C6.50084 4.37527 6.58832 4.50801 6.69318 4.59621C6.79062 4.67817 6.90728 4.72681 7.00315 4.75735C7.17521 4.81216 7.36223 4.83249 7.44262 4.84123C7.45056 4.8421 7.45746 4.84285 7.4632 4.84351L8.73284 5.01083C8.7663 5.01991 8.79515 5.02883 8.821 5.0395C8.85159 5.05214 8.86727 5.06302 8.87425 5.06939C8.87804 5.07284 8.87822 5.07358 8.87865 5.07536C8.8786 5.07514 8.8787 5.07555 8.87865 5.07536C8.87983 5.0799 8.88535 5.106 8.86957 5.16411C8.86415 5.18409 8.83901 5.22896 8.70542 5.27627C8.6003 5.31349 8.48925 5.33144 8.38164 5.34883C8.35712 5.3528 8.33278 5.35673 8.30873 5.36086L6.55323 5.61532L6.53871 5.61884C6.34138 5.66665 6.05436 5.77958 5.82293 5.97544C5.63019 6.13856 5.46242 6.37385 5.44209 6.67658L5.44101 6.67663C5.43668 6.6941 5.42574 6.70377 5.40759 6.70417C5.23729 6.70797 5.0932 6.79059 4.98603 6.85204C4.94747 6.87415 4.91369 6.89351 4.88519 6.90548C4.50175 7.06653 4.14379 7.0655 4.01275 7.04485L4.00647 7.04293L4 7.05541C4.44171 7.26581 5.02204 7.29557 5.57878 7.25819C5.69347 7.4632 5.86401 7.61508 6.03727 7.72259C6.29355 7.88162 6.57674 7.95837 6.76886 7.98193L6.77919 7.98319L6.78958 7.98379C7.11706 8.00246 7.63884 8.01097 8.14931 7.97594C8.4046 7.95842 8.66271 7.92965 8.89506 7.88412C9.12227 7.8396 9.34803 7.7748 9.52353 7.67414C9.83761 7.49401 10.0252 7.25053 9.99726 6.96147C9.9728 6.70817 9.78882 6.53378 9.66358 6.45133C9.35669 6.24929 8.97378 6.19401 8.61178 6.19755C8.24515 6.20113 7.85985 6.26574 7.51612 6.33966C7.47111 6.34934 7.42393 6.35959 7.37481 6.37026C7.0169 6.448 6.55568 6.54818 6.07765 6.61421C6.10541 6.54226 6.15723 6.47753 6.22929 6.41655C6.36434 6.30225 6.54688 6.22601 6.67576 6.1927L8.40903 5.94146L8.4133 5.94072C8.42703 5.93835 8.44396 5.93567 8.4635 5.93259C8.56947 5.91586 8.75229 5.887 8.91818 5.82825C9.11171 5.75972 9.38098 5.61705 9.46372 5.31233C9.4991 5.18203 9.50583 5.0546 9.47469 4.93429C9.44296 4.81171 9.37676 4.71542 9.29748 4.64311C9.15194 4.51036 8.96235 4.4608 8.87655 4.43837L8.8566 4.43316L7.54203 4.25991L7.5397 4.25964C7.53062 4.25858 7.52098 4.25749 7.51084 4.25634C7.42488 4.24664 7.30351 4.23293 7.19679 4.19894C7.18128 4.19399 7.16781 4.18913 7.1562 4.18449C7.13046 4.1742 7.11469 4.14847 7.12006 4.12224C7.12109 4.11719 7.12208 4.11398 7.12281 4.11196C7.12359 4.10982 7.1242 4.10865 7.12552 4.10682C7.12714 4.10457 7.13196 4.09844 7.14373 4.08835C7.20705 4.03407 7.3496 3.96011 7.70343 3.81591C8.0666 3.66791 8.32028 3.50643 8.47767 3.32125C8.64646 3.12266 8.68984 2.91382 8.66311 2.72166C8.63477 2.51798 8.51611 2.32933 8.3063 2.19927C8.10398 2.07386 7.83343 2.01209 7.50254 2.01209C7.43524 2.01209 7.36555 2.01442 7.29438 2.01876L7.2925 2.01725L6.80781 2.00692C6.48468 1.96976 6.15258 2.09123 6.02692 2.15662C5.9605 2.19103 5.81042 2.27327 5.74149 2.32696ZM6.29666 7.1776C6.32013 7.19551 6.34494 7.2125 6.37093 7.22863C6.5333 7.32939 6.71983 7.38112 6.83723 7.39701C7.14421 7.41402 7.63249 7.42145 8.10547 7.389C8.34479 7.37257 8.57454 7.34631 8.77209 7.3076C8.97478 7.26789 9.12099 7.21926 9.20829 7.16919C9.31368 7.10875 9.35817 7.06091 9.37536 7.0358C9.38347 7.02396 9.3854 7.01741 9.38575 7.01612C9.38572 7.01626 9.38582 7.01584 9.38575 7.01612C9.38571 7.01586 9.38577 7.01473 9.38557 7.01399C9.38526 7.01283 9.38467 7.01099 9.38358 7.00846C9.38133 7.00323 9.37726 6.99583 9.37042 6.98675C9.35588 6.96745 9.33527 6.94907 9.31598 6.93638C9.15971 6.8335 8.92545 6.78296 8.61804 6.78597C8.31525 6.78893 7.97889 6.84322 7.65052 6.91383C7.6067 6.92326 7.56013 6.93338 7.51111 6.94404C7.18676 7.01457 6.75479 7.1085 6.29666 7.1776ZM6.7755 2.23404C6.7755 2.26825 6.70798 2.29599 6.6247 2.29599C6.54142 2.29599 6.47391 2.26825 6.47391 2.23404C6.47391 2.19983 6.54142 2.1721 6.6247 2.1721C6.70798 2.1721 6.7755 2.19983 6.7755 2.23404Z" fill="#F9F9F9"/>
<path fill-rule="evenodd" clip-rule="evenodd" d="M5.74149 16.327C5.67255 16.3806 5.71276 16.4491 5.74149 16.4766C5.75167 16.4976 5.765 16.5169 5.78084 16.5347C5.36554 16.6711 4.75769 16.6237 4.49206 16.5799C4.54806 16.6377 4.65182 16.69 4.6967 16.7089L4.4382 16.6676C4.44538 16.69 4.53622 16.7461 4.84211 16.7915C5.13215 16.8346 5.6646 16.714 5.93172 16.6383C6.05356 16.693 6.19898 16.7152 6.28542 16.7193C6.52956 16.7158 7.07601 16.7048 7.30866 16.6883C7.5304 16.6725 7.77628 16.6587 7.88589 16.6529C7.92258 16.6659 7.95113 16.6799 7.97289 16.6934C8.03579 16.7324 8.05057 16.7708 8.05455 16.7994C8.06013 16.8396 8.05773 16.8837 8.00168 16.9496C7.93422 17.029 7.784 17.1436 7.4632 17.2744C7.13309 17.4089 6.88788 17.5182 6.73444 17.6497C6.64669 17.725 6.58136 17.8125 6.54279 17.9191C6.50676 18.0186 6.50084 18.1171 6.50084 18.2007C6.50084 18.3753 6.58832 18.508 6.69318 18.5962C6.79062 18.6782 6.90728 18.7268 7.00315 18.7573C7.17521 18.8122 7.36223 18.8325 7.44262 18.8412C7.45056 18.8421 7.45746 18.8428 7.4632 18.8435L8.73284 19.0108C8.7663 19.0199 8.79515 19.0288 8.821 19.0395C8.85159 19.0521 8.86727 19.063 8.87425 19.0694C8.87804 19.0728 8.87822 19.0736 8.87865 19.0754C8.8786 19.0751 8.8787 19.0756 8.87865 19.0754C8.87983 19.0799 8.88535 19.106 8.86957 19.1641C8.86415 19.1841 8.83901 19.229 8.70542 19.2763C8.6003 19.3135 8.48925 19.3314 8.38164 19.3488C8.35712 19.3528 8.33278 19.3567 8.30873 19.3609L6.55323 19.6153L6.53871 19.6188C6.34138 19.6666 6.05436 19.7796 5.82293 19.9754C5.63019 20.1386 5.46242 20.3738 5.44209 20.6766L5.44101 20.6766C5.43668 20.6941 5.42574 20.7038 5.40759 20.7042C5.23729 20.708 5.0932 20.7906 4.98603 20.852C4.94747 20.8741 4.91369 20.8935 4.88519 20.9055C4.50175 21.0665 4.14379 21.0655 4.01275 21.0449L4.00647 21.0429L4 21.0554C4.44171 21.2658 5.02204 21.2956 5.57878 21.2582C5.69347 21.4632 5.86401 21.6151 6.03727 21.7226C6.29355 21.8816 6.57674 21.9584 6.76886 21.9819L6.77919 21.9832L6.78958 21.9838C7.11706 22.0025 7.63884 22.011 8.14931 21.9759C8.4046 21.9584 8.66271 21.9297 8.89506 21.8841C9.12227 21.8396 9.34803 21.7748 9.52353 21.6741C9.83761 21.494 10.0252 21.2505 9.99726 20.9615C9.9728 20.7082 9.78882 20.5338 9.66358 20.4513C9.35669 20.2493 8.97378 20.194 8.61178 20.1976C8.24515 20.2011 7.85985 20.2657 7.51612 20.3397C7.47111 20.3493 7.42393 20.3596 7.37481 20.3703C7.0169 20.448 6.55568 20.5482 6.07765 20.6142C6.10541 20.5423 6.15723 20.4775 6.22929 20.4165C6.36434 20.3022 6.54688 20.226 6.67576 20.1927L8.40903 19.9415L8.4133 19.9407C8.42703 19.9383 8.44396 19.9357 8.4635 19.9326C8.56947 19.9159 8.75229 19.887 8.91818 19.8283C9.11171 19.7597 9.38098 19.617 9.46372 19.3123C9.4991 19.182 9.50583 19.0546 9.47469 18.9343C9.44296 18.8117 9.37676 18.7154 9.29748 18.6431C9.15194 18.5104 8.96235 18.4608 8.87655 18.4384L8.8566 18.4332L7.54203 18.2599L7.5397 18.2596C7.53062 18.2586 7.52098 18.2575 7.51084 18.2563C7.42488 18.2466 7.30351 18.2329 7.19679 18.1989C7.18128 18.194 7.16781 18.1891 7.1562 18.1845C7.13046 18.1742 7.11469 18.1485 7.12006 18.1222C7.12109 18.1172 7.12208 18.114 7.12281 18.112C7.12359 18.1098 7.1242 18.1087 7.12552 18.1068C7.12714 18.1046 7.13196 18.0984 7.14373 18.0884C7.20705 18.0341 7.3496 17.9601 7.70343 17.8159C8.0666 17.6679 8.32028 17.5064 8.47767 17.3213C8.64646 17.1227 8.68984 16.9138 8.66311 16.7217C8.63477 16.518 8.51611 16.3293 8.3063 16.1993C8.10398 16.0739 7.83343 16.0121 7.50254 16.0121C7.43524 16.0121 7.36555 16.0144 7.29438 16.0188L7.2925 16.0172L6.80781 16.0069C6.48468 15.9698 6.15258 16.0912 6.02692 16.1566C5.9605 16.191 5.81042 16.2733 5.74149 16.327ZM6.29666 21.1776C6.32013 21.1955 6.34494 21.2125 6.37093 21.2286C6.5333 21.3294 6.71983 21.3811 6.83723 21.397C7.14421 21.414 7.63249 21.4214 8.10547 21.389C8.34479 21.3726 8.57454 21.3463 8.77209 21.3076C8.97478 21.2679 9.12099 21.2193 9.20829 21.1692C9.31368 21.1087 9.35817 21.0609 9.37536 21.0358C9.38347 21.024 9.3854 21.0174 9.38575 21.0161C9.38572 21.0163 9.38582 21.0158 9.38575 21.0161C9.38571 21.0159 9.38577 21.0147 9.38557 21.014C9.38526 21.0128 9.38467 21.011 9.38358 21.0085C9.38133 21.0032 9.37726 20.9958 9.37042 20.9867C9.35588 20.9674 9.33527 20.9491 9.31598 20.9364C9.15971 20.8335 8.92545 20.783 8.61804 20.786C8.31525 20.7889 7.97889 20.8432 7.65052 20.9138C7.6067 20.9233 7.56013 20.9334 7.51111 20.944C7.18676 21.0146 6.75479 21.1085 6.29666 21.1776ZM6.7755 16.234C6.7755 16.2683 6.70798 16.296 6.6247 16.296C6.54142 16.296 6.47391 16.2683 6.47391 16.234C6.47391 16.1998 6.54142 16.1721 6.6247 16.1721C6.70798 16.1721 6.7755 16.1998 6.7755 16.234Z" fill="#F9F9F9"/>
<path fill-rule="evenodd" clip-rule="evenodd" d="M23.7415 2.32696C23.6726 2.38064 23.7128 2.44912 23.7415 2.47665C23.7517 2.49762 23.765 2.51693 23.7808 2.53469C23.3655 2.67112 22.7577 2.62367 22.4921 2.57989C22.5481 2.6377 22.6518 2.69 22.6967 2.70893L22.4382 2.66764C22.4454 2.69 22.5362 2.7461 22.8421 2.79152C23.1322 2.83459 23.6646 2.714 23.9317 2.63832C24.0536 2.69295 24.199 2.71516 24.2854 2.71925C24.5296 2.71581 25.076 2.7048 25.3087 2.68828C25.5304 2.67254 25.7763 2.65867 25.8859 2.65294C25.9226 2.66587 25.9511 2.67989 25.9729 2.69338C26.0358 2.73237 26.0506 2.77084 26.0545 2.79944C26.0601 2.83956 26.0577 2.88365 26.0017 2.9496C25.9342 3.02897 25.784 3.14365 25.4632 3.27438C25.1331 3.40892 24.8879 3.51821 24.7344 3.64975C24.6467 3.72497 24.5814 3.81252 24.5428 3.91907C24.5068 4.0186 24.5008 4.11707 24.5008 4.2007C24.5008 4.37527 24.5883 4.50801 24.6932 4.59621C24.7906 4.67817 24.9073 4.72681 25.0032 4.75735C25.1752 4.81216 25.3622 4.83249 25.4426 4.84123C25.4506 4.8421 25.4575 4.84285 25.4632 4.84351L26.7328 5.01083C26.7663 5.01991 26.7951 5.02883 26.821 5.0395C26.8516 5.05214 26.8673 5.06302 26.8743 5.06939C26.878 5.07284 26.8782 5.07358 26.8787 5.07536C26.8786 5.07514 26.8787 5.07555 26.8787 5.07536C26.8798 5.0799 26.8854 5.106 26.8696 5.16411C26.8641 5.18409 26.839 5.22896 26.7054 5.27627C26.6003 5.31349 26.4892 5.33144 26.3816 5.34883C26.3571 5.3528 26.3328 5.35673 26.3087 5.36086L24.5532 5.61532L24.5387 5.61884C24.3414 5.66665 24.0544 5.77958 23.8229 5.97544C23.6302 6.13856 23.4624 6.37385 23.4421 6.67658L23.441 6.67663C23.4367 6.6941 23.4257 6.70377 23.4076 6.70417C23.2373 6.70797 23.0932 6.79059 22.986 6.85204C22.9475 6.87415 22.9137 6.89351 22.8852 6.90548C22.5017 7.06653 22.1438 7.0655 22.0127 7.04485L22.0065 7.04293L22 7.05541C22.4417 7.26581 23.022 7.29557 23.5788 7.25819C23.6935 7.4632 23.864 7.61508 24.0373 7.72259C24.2936 7.88162 24.5767 7.95837 24.7689 7.98193L24.7792 7.98319L24.7896 7.98379C25.1171 8.00246 25.6388 8.01097 26.1493 7.97594C26.4046 7.95842 26.6627 7.92965 26.8951 7.88412C27.1223 7.8396 27.348 7.7748 27.5235 7.67414C27.8376 7.49401 28.0252 7.25053 27.9973 6.96147C27.9728 6.70817 27.7888 6.53378 27.6636 6.45133C27.3567 6.24929 26.9738 6.19401 26.6118 6.19755C26.2451 6.20113 25.8598 6.26574 25.5161 6.33966C25.4711 6.34934 25.4239 6.35959 25.3748 6.37026C25.0169 6.448 24.5557 6.54818 24.0776 6.61421C24.1054 6.54226 24.1572 6.47753 24.2293 6.41655C24.3643 6.30225 24.5469 6.22601 24.6758 6.1927L26.409 5.94146L26.4133 5.94072C26.427 5.93835 26.444 5.93567 26.4635 5.93259C26.5695 5.91586 26.7523 5.887 26.9182 5.82825C27.1117 5.75972 27.381 5.61705 27.4637 5.31233C27.4991 5.18203 27.5058 5.0546 27.4747 4.93429C27.443 4.81171 27.3768 4.71542 27.2975 4.64311C27.1519 4.51036 26.9623 4.4608 26.8766 4.43837L26.8566 4.43316L25.542 4.25991L25.5397 4.25964C25.5306 4.25858 25.521 4.25749 25.5108 4.25634C25.4249 4.24664 25.3035 4.23293 25.1968 4.19894C25.1813 4.19399 25.1678 4.18913 25.1562 4.18449C25.1305 4.1742 25.1147 4.14847 25.1201 4.12224C25.1211 4.11719 25.1221 4.11398 25.1228 4.11196C25.1236 4.10982 25.1242 4.10865 25.1255 4.10682C25.1271 4.10457 25.132 4.09844 25.1437 4.08835C25.2071 4.03407 25.3496 3.96011 25.7034 3.81591C26.0666 3.66791 26.3203 3.50643 26.4777 3.32125C26.6465 3.12266 26.6898 2.91382 26.6631 2.72166C26.6348 2.51798 26.5161 2.32933 26.3063 2.19927C26.104 2.07386 25.8334 2.01209 25.5025 2.01209C25.4352 2.01209 25.3656 2.01442 25.2944 2.01876L25.2925 2.01725L24.8078 2.00692C24.4847 1.96976 24.1526 2.09123 24.0269 2.15662C23.9605 2.19103 23.8104 2.27327 23.7415 2.32696ZM24.2967 7.1776C24.3201 7.19551 24.3449 7.2125 24.3709 7.22863C24.5333 7.32939 24.7198 7.38112 24.8372 7.39701C25.1442 7.41402 25.6325 7.42145 26.1055 7.389C26.3448 7.37257 26.5745 7.34631 26.7721 7.3076C26.9748 7.26789 27.121 7.21926 27.2083 7.16919C27.3137 7.10875 27.3582 7.06091 27.3754 7.0358C27.3835 7.02396 27.3854 7.01741 27.3857 7.01612C27.3857 7.01626 27.3858 7.01584 27.3857 7.01612C27.3857 7.01586 27.3858 7.01473 27.3856 7.01399C27.3853 7.01283 27.3847 7.01099 27.3836 7.00846C27.3813 7.00323 27.3773 6.99583 27.3704 6.98675C27.3559 6.96745 27.3353 6.94907 27.316 6.93638C27.1597 6.8335 26.9254 6.78296 26.618 6.78597C26.3153 6.78893 25.9789 6.84322 25.6505 6.91383C25.6067 6.92326 25.5601 6.93338 25.5111 6.94404C25.1868 7.01457 24.7548 7.1085 24.2967 7.1776ZM24.7755 2.23404C24.7755 2.26825 24.708 2.29599 24.6247 2.29599C24.5414 2.29599 24.4739 2.26825 24.4739 2.23404C24.4739 2.19983 24.5414 2.1721 24.6247 2.1721C24.708 2.1721 24.7755 2.19983 24.7755 2.23404Z" fill="#F9F9F9"/>
<path fill-rule="evenodd" clip-rule="evenodd" d="M23.7415 16.327C23.6726 16.3806 23.7128 16.4491 23.7415 16.4766C23.7517 16.4976 23.765 16.5169 23.7808 16.5347C23.3655 16.6711 22.7577 16.6237 22.4921 16.5799C22.5481 16.6377 22.6518 16.69 22.6967 16.7089L22.4382 16.6676C22.4454 16.69 22.5362 16.7461 22.8421 16.7915C23.1322 16.8346 23.6646 16.714 23.9317 16.6383C24.0536 16.693 24.199 16.7152 24.2854 16.7193C24.5296 16.7158 25.076 16.7048 25.3087 16.6883C25.5304 16.6725 25.7763 16.6587 25.8859 16.6529C25.9226 16.6659 25.9511 16.6799 25.9729 16.6934C26.0358 16.7324 26.0506 16.7708 26.0545 16.7994C26.0601 16.8396 26.0577 16.8837 26.0017 16.9496C25.9342 17.029 25.784 17.1436 25.4632 17.2744C25.1331 17.4089 24.8879 17.5182 24.7344 17.6497C24.6467 17.725 24.5814 17.8125 24.5428 17.9191C24.5068 18.0186 24.5008 18.1171 24.5008 18.2007C24.5008 18.3753 24.5883 18.508 24.6932 18.5962C24.7906 18.6782 24.9073 18.7268 25.0032 18.7573C25.1752 18.8122 25.3622 18.8325 25.4426 18.8412C25.4506 18.8421 25.4575 18.8428 25.4632 18.8435L26.7328 19.0108C26.7663 19.0199 26.7951 19.0288 26.821 19.0395C26.8516 19.0521 26.8673 19.063 26.8743 19.0694C26.878 19.0728 26.8782 19.0736 26.8787 19.0754C26.8786 19.0751 26.8787 19.0756 26.8787 19.0754C26.8798 19.0799 26.8854 19.106 26.8696 19.1641C26.8641 19.1841 26.839 19.229 26.7054 19.2763C26.6003 19.3135 26.4892 19.3314 26.3816 19.3488C26.3571 19.3528 26.3328 19.3567 26.3087 19.3609L24.5532 19.6153L24.5387 19.6188C24.3414 19.6666 24.0544 19.7796 23.8229 19.9754C23.6302 20.1386 23.4624 20.3738 23.4421 20.6766L23.441 20.6766C23.4367 20.6941 23.4257 20.7038 23.4076 20.7042C23.2373 20.708 23.0932 20.7906 22.986 20.852C22.9475 20.8741 22.9137 20.8935 22.8852 20.9055C22.5017 21.0665 22.1438 21.0655 22.0127 21.0449L22.0065 21.0429L22 21.0554C22.4417 21.2658 23.022 21.2956 23.5788 21.2582C23.6935 21.4632 23.864 21.6151 24.0373 21.7226C24.2936 21.8816 24.5767 21.9584 24.7689 21.9819L24.7792 21.9832L24.7896 21.9838C25.1171 22.0025 25.6388 22.011 26.1493 21.9759C26.4046 21.9584 26.6627 21.9297 26.8951 21.8841C27.1223 21.8396 27.348 21.7748 27.5235 21.6741C27.8376 21.494 28.0252 21.2505 27.9973 20.9615C27.9728 20.7082 27.7888 20.5338 27.6636 20.4513C27.3567 20.2493 26.9738 20.194 26.6118 20.1976C26.2451 20.2011 25.8598 20.2657 25.5161 20.3397C25.4711 20.3493 25.4239 20.3596 25.3748 20.3703C25.0169 20.448 24.5557 20.5482 24.0776 20.6142C24.1054 20.5423 24.1572 20.4775 24.2293 20.4165C24.3643 20.3022 24.5469 20.226 24.6758 20.1927L26.409 19.9415L26.4133 19.9407C26.427 19.9383 26.444 19.9357 26.4635 19.9326C26.5695 19.9159 26.7523 19.887 26.9182 19.8283C27.1117 19.7597 27.381 19.617 27.4637 19.3123C27.4991 19.182 27.5058 19.0546 27.4747 18.9343C27.443 18.8117 27.3768 18.7154 27.2975 18.6431C27.1519 18.5104 26.9623 18.4608 26.8766 18.4384L26.8566 18.4332L25.542 18.2599L25.5397 18.2596C25.5306 18.2586 25.521 18.2575 25.5108 18.2563C25.4249 18.2466 25.3035 18.2329 25.1968 18.1989C25.1813 18.194 25.1678 18.1891 25.1562 18.1845C25.1305 18.1742 25.1147 18.1485 25.1201 18.1222C25.1211 18.1172 25.1221 18.114 25.1228 18.112C25.1236 18.1098 25.1242 18.1087 25.1255 18.1068C25.1271 18.1046 25.132 18.0984 25.1437 18.0884C25.2071 18.0341 25.3496 17.9601 25.7034 17.8159C26.0666 17.6679 26.3203 17.5064 26.4777 17.3213C26.6465 17.1227 26.6898 16.9138 26.6631 16.7217C26.6348 16.518 26.5161 16.3293 26.3063 16.1993C26.104 16.0739 25.8334 16.0121 25.5025 16.0121C25.4352 16.0121 25.3656 16.0144 25.2944 16.0188L25.2925 16.0172L24.8078 16.0069C24.4847 15.9698 24.1526 16.0912 24.0269 16.1566C23.9605 16.191 23.8104 16.2733 23.7415 16.327ZM24.2967 21.1776C24.3201 21.1955 24.3449 21.2125 24.3709 21.2286C24.5333 21.3294 24.7198 21.3811 24.8372 21.397C25.1442 21.414 25.6325 21.4214 26.1055 21.389C26.3448 21.3726 26.5745 21.3463 26.7721 21.3076C26.9748 21.2679 27.121 21.2193 27.2083 21.1692C27.3137 21.1087 27.3582 21.0609 27.3754 21.0358C27.3835 21.024 27.3854 21.0174 27.3857 21.0161C27.3857 21.0163 27.3858 21.0158 27.3857 21.0161C27.3857 21.0159 27.3858 21.0147 27.3856 21.014C27.3853 21.0128 27.3847 21.011 27.3836 21.0085C27.3813 21.0032 27.3773 20.9958 27.3704 20.9867C27.3559 20.9674 27.3353 20.9491 27.316 20.9364C27.1597 20.8335 26.9254 20.783 26.618 20.786C26.3153 20.7889 25.9789 20.8432 25.6505 20.9138C25.6067 20.9233 25.5601 20.9334 25.5111 20.944C25.1868 21.0146 24.7548 21.1085 24.2967 21.1776ZM24.7755 16.234C24.7755 16.2683 24.708 16.296 24.6247 16.296C24.5414 16.296 24.4739 16.2683 24.4739 16.234C24.4739 16.1998 24.5414 16.1721 24.6247 16.1721C24.708 16.1721 24.7755 16.1998 24.7755 16.234Z" fill="#F9F9F9"/>
</g>
<defs>
<clipPath id="clip0_440_1181">
<rect width="32" height="24" rx="2" fill="white"/>
</clipPath>
</defs>
</svg>
