<svg width="24" height="24" viewBox="0 0 24 24" fill="none" xmlns="http://www.w3.org/2000/svg">
<g clip-path="url(#clip0_440_1179)">
<rect width="24" height="24" rx="2" fill="#485CC2"/>
<path d="M10 24H14V14H28V10H14V3.49692e-07L10 0L10 10H-4V14H10L10 24Z" fill="#F9F9F9"/>
<path fill-rule="evenodd" clip-rule="evenodd" d="M3.74149 2.32696C3.67255 2.38064 3.71276 2.44912 3.74149 2.47665C3.75167 2.49762 3.765 2.51693 3.78084 2.53469C3.36554 2.67112 2.75769 2.62367 2.49206 2.57989C2.54806 2.6377 2.65182 2.69 2.6967 2.70893L2.4382 2.66764C2.44538 2.69 2.53622 2.7461 2.84211 2.79152C3.13215 2.83459 3.6646 2.714 3.93172 2.63832C4.05356 2.69295 4.19898 2.71516 4.28542 2.71925C4.52956 2.71581 5.07601 2.7048 5.30866 2.68828C5.5304 2.67254 5.77628 2.65867 5.88589 2.65294C5.92258 2.66587 5.95113 2.67989 5.97289 2.69338C6.03579 2.73237 6.05057 2.77084 6.05455 2.79944C6.06013 2.83956 6.05773 2.88365 6.00168 2.9496C5.93422 3.02897 5.784 3.14365 5.4632 3.27438C5.13309 3.40892 4.88788 3.51821 4.73444 3.64975C4.64669 3.72497 4.58136 3.81252 4.54279 3.91907C4.50676 4.0186 4.50084 4.11707 4.50084 4.2007C4.50084 4.37527 4.58832 4.50801 4.69318 4.59621C4.79062 4.67817 4.90728 4.72681 5.00315 4.75735C5.17521 4.81216 5.36223 4.83249 5.44262 4.84123C5.45056 4.8421 5.45746 4.84285 5.4632 4.84351L6.73284 5.01083C6.7663 5.01991 6.79515 5.02883 6.821 5.0395C6.85159 5.05214 6.86727 5.06302 6.87425 5.06939C6.87804 5.07284 6.87822 5.07358 6.87865 5.07536C6.8786 5.07514 6.8787 5.07555 6.87865 5.07536C6.87983 5.0799 6.88535 5.106 6.86957 5.16411C6.86415 5.18409 6.83901 5.22896 6.70542 5.27627C6.6003 5.31349 6.48925 5.33144 6.38164 5.34883C6.35712 5.3528 6.33278 5.35673 6.30873 5.36086L4.55323 5.61532L4.53871 5.61884C4.34138 5.66665 4.05436 5.77958 3.82293 5.97544C3.63019 6.13856 3.46242 6.37385 3.44209 6.67658L3.44101 6.67663C3.43668 6.6941 3.42574 6.70377 3.40759 6.70417C3.23729 6.70797 3.0932 6.79059 2.98603 6.85204C2.94747 6.87415 2.91369 6.89351 2.88519 6.90548C2.50175 7.06653 2.14379 7.0655 2.01275 7.04485L2.00647 7.04293L2 7.05541C2.44171 7.26581 3.02204 7.29557 3.57878 7.25819C3.69347 7.4632 3.86401 7.61508 4.03727 7.72259C4.29355 7.88162 4.57674 7.95837 4.76886 7.98193L4.77919 7.98319L4.78958 7.98379C5.11706 8.00246 5.63884 8.01097 6.14931 7.97594C6.4046 7.95842 6.66271 7.92965 6.89506 7.88412C7.12227 7.8396 7.34803 7.7748 7.52353 7.67414C7.83761 7.49401 8.02518 7.25053 7.99726 6.96147C7.9728 6.70817 7.78882 6.53378 7.66358 6.45133C7.35669 6.24929 6.97378 6.19401 6.61178 6.19755C6.24515 6.20113 5.85985 6.26574 5.51612 6.33966C5.47111 6.34934 5.42393 6.35959 5.37481 6.37026C5.0169 6.448 4.55568 6.54818 4.07765 6.61421C4.10541 6.54226 4.15723 6.47753 4.22929 6.41655C4.36434 6.30225 4.54688 6.22601 4.67576 6.1927L6.40903 5.94146L6.4133 5.94072C6.42703 5.93835 6.44396 5.93567 6.4635 5.93259C6.56947 5.91586 6.75229 5.887 6.91818 5.82825C7.11171 5.75972 7.38098 5.61705 7.46372 5.31233C7.4991 5.18203 7.50583 5.0546 7.47469 4.93429C7.44296 4.81171 7.37676 4.71542 7.29748 4.64311C7.15194 4.51036 6.96235 4.4608 6.87655 4.43837L6.8566 4.43316L5.54203 4.25991L5.5397 4.25964C5.53062 4.25858 5.52098 4.25749 5.51084 4.25634C5.42488 4.24664 5.30351 4.23293 5.19679 4.19894C5.18128 4.19399 5.16781 4.18913 5.1562 4.18449C5.13046 4.1742 5.11469 4.14847 5.12006 4.12224C5.12109 4.11719 5.12208 4.11398 5.12281 4.11196C5.12359 4.10982 5.1242 4.10865 5.12552 4.10682C5.12714 4.10457 5.13196 4.09844 5.14373 4.08835C5.20705 4.03407 5.3496 3.96011 5.70343 3.81591C6.0666 3.66791 6.32028 3.50643 6.47767 3.32125C6.64646 3.12266 6.68984 2.91382 6.66311 2.72166C6.63477 2.51798 6.51611 2.32933 6.3063 2.19927C6.10398 2.07386 5.83343 2.01209 5.50254 2.01209C5.43524 2.01209 5.36555 2.01442 5.29438 2.01876L5.2925 2.01725L4.80781 2.00692C4.48468 1.96976 4.15258 2.09123 4.02692 2.15662C3.9605 2.19103 3.81042 2.27327 3.74149 2.32696ZM4.29666 7.1776C4.32013 7.19551 4.34494 7.2125 4.37093 7.22863C4.5333 7.32939 4.71983 7.38112 4.83723 7.39701C5.14421 7.41402 5.63249 7.42145 6.10547 7.389C6.34479 7.37257 6.57454 7.34631 6.77209 7.3076C6.97478 7.26789 7.12099 7.21926 7.20829 7.16919C7.31368 7.10875 7.35817 7.06091 7.37536 7.0358C7.38347 7.02396 7.3854 7.01741 7.38575 7.01612C7.38572 7.01626 7.38582 7.01584 7.38575 7.01612C7.38571 7.01586 7.38577 7.01473 7.38557 7.01399C7.38526 7.01283 7.38467 7.01099 7.38358 7.00846C7.38133 7.00323 7.37726 6.99583 7.37042 6.98675C7.35588 6.96745 7.33527 6.94907 7.31598 6.93638C7.15971 6.8335 6.92545 6.78296 6.61804 6.78597C6.31525 6.78893 5.97889 6.84322 5.65052 6.91383C5.6067 6.92326 5.56013 6.93338 5.51111 6.94404C5.18676 7.01457 4.75479 7.1085 4.29666 7.1776ZM4.7755 2.23404C4.7755 2.26825 4.70798 2.29599 4.6247 2.29599C4.54142 2.29599 4.47391 2.26825 4.47391 2.23404C4.47391 2.19983 4.54142 2.1721 4.6247 2.1721C4.70798 2.1721 4.7755 2.19983 4.7755 2.23404Z" fill="#F9F9F9"/>
<path fill-rule="evenodd" clip-rule="evenodd" d="M3.74149 16.327C3.67255 16.3806 3.71276 16.4491 3.74149 16.4766C3.75167 16.4976 3.765 16.5169 3.78084 16.5347C3.36554 16.6711 2.75769 16.6237 2.49206 16.5799C2.54806 16.6377 2.65182 16.69 2.6967 16.7089L2.4382 16.6676C2.44538 16.69 2.53622 16.7461 2.84211 16.7915C3.13215 16.8346 3.6646 16.714 3.93172 16.6383C4.05356 16.693 4.19898 16.7152 4.28542 16.7193C4.52956 16.7158 5.07601 16.7048 5.30866 16.6883C5.5304 16.6725 5.77628 16.6587 5.88589 16.6529C5.92258 16.6659 5.95113 16.6799 5.97289 16.6934C6.03579 16.7324 6.05057 16.7708 6.05455 16.7994C6.06013 16.8396 6.05773 16.8837 6.00168 16.9496C5.93422 17.029 5.784 17.1436 5.4632 17.2744C5.13309 17.4089 4.88788 17.5182 4.73444 17.6497C4.64669 17.725 4.58136 17.8125 4.54279 17.9191C4.50676 18.0186 4.50084 18.1171 4.50084 18.2007C4.50084 18.3753 4.58832 18.508 4.69318 18.5962C4.79062 18.6782 4.90728 18.7268 5.00315 18.7573C5.17521 18.8122 5.36223 18.8325 5.44262 18.8412C5.45056 18.8421 5.45746 18.8428 5.4632 18.8435L6.73284 19.0108C6.7663 19.0199 6.79515 19.0288 6.821 19.0395C6.85159 19.0521 6.86727 19.063 6.87425 19.0694C6.87804 19.0728 6.87822 19.0736 6.87865 19.0754C6.8786 19.0751 6.8787 19.0756 6.87865 19.0754C6.87983 19.0799 6.88535 19.106 6.86957 19.1641C6.86415 19.1841 6.83901 19.229 6.70542 19.2763C6.6003 19.3135 6.48925 19.3314 6.38164 19.3488C6.35712 19.3528 6.33278 19.3567 6.30873 19.3609L4.55323 19.6153L4.53871 19.6188C4.34138 19.6666 4.05436 19.7796 3.82293 19.9754C3.63019 20.1386 3.46242 20.3738 3.44209 20.6766L3.44101 20.6766C3.43668 20.6941 3.42574 20.7038 3.40759 20.7042C3.23729 20.708 3.0932 20.7906 2.98603 20.852C2.94747 20.8741 2.91369 20.8935 2.88519 20.9055C2.50175 21.0665 2.14379 21.0655 2.01275 21.0449L2.00647 21.0429L2 21.0554C2.44171 21.2658 3.02204 21.2956 3.57878 21.2582C3.69347 21.4632 3.86401 21.6151 4.03727 21.7226C4.29355 21.8816 4.57674 21.9584 4.76886 21.9819L4.77919 21.9832L4.78958 21.9838C5.11706 22.0025 5.63884 22.011 6.14931 21.9759C6.4046 21.9584 6.66271 21.9297 6.89506 21.8841C7.12227 21.8396 7.34803 21.7748 7.52353 21.6741C7.83761 21.494 8.02518 21.2505 7.99726 20.9615C7.9728 20.7082 7.78882 20.5338 7.66358 20.4513C7.35669 20.2493 6.97378 20.194 6.61178 20.1976C6.24515 20.2011 5.85985 20.2657 5.51612 20.3397C5.47111 20.3493 5.42393 20.3596 5.37481 20.3703C5.0169 20.448 4.55568 20.5482 4.07765 20.6142C4.10541 20.5423 4.15723 20.4775 4.22929 20.4165C4.36434 20.3022 4.54688 20.226 4.67576 20.1927L6.40903 19.9415L6.4133 19.9407C6.42703 19.9383 6.44396 19.9357 6.4635 19.9326C6.56947 19.9159 6.75229 19.887 6.91818 19.8283C7.11171 19.7597 7.38098 19.617 7.46372 19.3123C7.4991 19.182 7.50583 19.0546 7.47469 18.9343C7.44296 18.8117 7.37676 18.7154 7.29748 18.6431C7.15194 18.5104 6.96235 18.4608 6.87655 18.4384L6.8566 18.4332L5.54203 18.2599L5.5397 18.2596C5.53062 18.2586 5.52098 18.2575 5.51084 18.2563C5.42488 18.2466 5.30351 18.2329 5.19679 18.1989C5.18128 18.194 5.16781 18.1891 5.1562 18.1845C5.13046 18.1742 5.11469 18.1485 5.12006 18.1222C5.12109 18.1172 5.12208 18.114 5.12281 18.112C5.12359 18.1098 5.1242 18.1087 5.12552 18.1068C5.12714 18.1046 5.13196 18.0984 5.14373 18.0884C5.20705 18.0341 5.3496 17.9601 5.70343 17.8159C6.0666 17.6679 6.32028 17.5064 6.47767 17.3213C6.64646 17.1227 6.68984 16.9138 6.66311 16.7217C6.63477 16.518 6.51611 16.3293 6.3063 16.1993C6.10398 16.0739 5.83343 16.0121 5.50254 16.0121C5.43524 16.0121 5.36555 16.0144 5.29438 16.0188L5.2925 16.0172L4.80781 16.0069C4.48468 15.9698 4.15258 16.0912 4.02692 16.1566C3.9605 16.191 3.81042 16.2733 3.74149 16.327ZM4.29666 21.1776C4.32013 21.1955 4.34494 21.2125 4.37093 21.2286C4.5333 21.3294 4.71983 21.3811 4.83723 21.397C5.14421 21.414 5.63249 21.4214 6.10547 21.389C6.34479 21.3726 6.57454 21.3463 6.77209 21.3076C6.97478 21.2679 7.12099 21.2193 7.20829 21.1692C7.31368 21.1087 7.35817 21.0609 7.37536 21.0358C7.38347 21.024 7.3854 21.0174 7.38575 21.0161C7.38572 21.0163 7.38582 21.0158 7.38575 21.0161C7.38571 21.0159 7.38577 21.0147 7.38557 21.014C7.38526 21.0128 7.38467 21.011 7.38358 21.0085C7.38133 21.0032 7.37726 20.9958 7.37042 20.9867C7.35588 20.9674 7.33527 20.9491 7.31598 20.9364C7.15971 20.8335 6.92545 20.783 6.61804 20.786C6.31525 20.7889 5.97889 20.8432 5.65052 20.9138C5.6067 20.9233 5.56013 20.9334 5.51111 20.944C5.18676 21.0146 4.75479 21.1085 4.29666 21.1776ZM4.7755 16.234C4.7755 16.2683 4.70798 16.296 4.6247 16.296C4.54142 16.296 4.47391 16.2683 4.47391 16.234C4.47391 16.1998 4.54142 16.1721 4.6247 16.1721C4.70798 16.1721 4.7755 16.1998 4.7755 16.234Z" fill="#F9F9F9"/>
<path fill-rule="evenodd" clip-rule="evenodd" d="M17.7415 2.32696C17.6726 2.38064 17.7128 2.44912 17.7415 2.47665C17.7517 2.49762 17.765 2.51693 17.7808 2.53469C17.3655 2.67112 16.7577 2.62367 16.4921 2.57989C16.5481 2.6377 16.6518 2.69 16.6967 2.70893L16.4382 2.66764C16.4454 2.69 16.5362 2.7461 16.8421 2.79152C17.1322 2.83459 17.6646 2.714 17.9317 2.63832C18.0536 2.69295 18.199 2.71516 18.2854 2.71925C18.5296 2.71581 19.076 2.7048 19.3087 2.68828C19.5304 2.67254 19.7763 2.65867 19.8859 2.65294C19.9226 2.66587 19.9511 2.67989 19.9729 2.69338C20.0358 2.73237 20.0506 2.77084 20.0545 2.79944C20.0601 2.83956 20.0577 2.88365 20.0017 2.9496C19.9342 3.02897 19.784 3.14365 19.4632 3.27438C19.1331 3.40892 18.8879 3.51821 18.7344 3.64975C18.6467 3.72497 18.5814 3.81252 18.5428 3.91907C18.5068 4.0186 18.5008 4.11707 18.5008 4.2007C18.5008 4.37527 18.5883 4.50801 18.6932 4.59621C18.7906 4.67817 18.9073 4.72681 19.0032 4.75735C19.1752 4.81216 19.3622 4.83249 19.4426 4.84123C19.4506 4.8421 19.4575 4.84285 19.4632 4.84351L20.7328 5.01083C20.7663 5.01991 20.7951 5.02883 20.821 5.0395C20.8516 5.05214 20.8673 5.06302 20.8743 5.06939C20.878 5.07284 20.8782 5.07358 20.8787 5.07536C20.8786 5.07514 20.8787 5.07555 20.8787 5.07536C20.8798 5.0799 20.8854 5.106 20.8696 5.16411C20.8641 5.18409 20.839 5.22896 20.7054 5.27627C20.6003 5.31349 20.4892 5.33144 20.3816 5.34883C20.3571 5.3528 20.3328 5.35673 20.3087 5.36086L18.5532 5.61532L18.5387 5.61884C18.3414 5.66665 18.0544 5.77958 17.8229 5.97544C17.6302 6.13856 17.4624 6.37385 17.4421 6.67658L17.441 6.67663C17.4367 6.6941 17.4257 6.70377 17.4076 6.70417C17.2373 6.70797 17.0932 6.79059 16.986 6.85204C16.9475 6.87415 16.9137 6.89351 16.8852 6.90548C16.5017 7.06653 16.1438 7.0655 16.0127 7.04485L16.0065 7.04293L16 7.05541C16.4417 7.26581 17.022 7.29557 17.5788 7.25819C17.6935 7.4632 17.864 7.61508 18.0373 7.72259C18.2936 7.88162 18.5767 7.95837 18.7689 7.98193L18.7792 7.98319L18.7896 7.98379C19.1171 8.00246 19.6388 8.01097 20.1493 7.97594C20.4046 7.95842 20.6627 7.92965 20.8951 7.88412C21.1223 7.8396 21.348 7.7748 21.5235 7.67414C21.8376 7.49401 22.0252 7.25053 21.9973 6.96147C21.9728 6.70817 21.7888 6.53378 21.6636 6.45133C21.3567 6.24929 20.9738 6.19401 20.6118 6.19755C20.2451 6.20113 19.8598 6.26574 19.5161 6.33966C19.4711 6.34934 19.4239 6.35959 19.3748 6.37026C19.0169 6.448 18.5557 6.54818 18.0776 6.61421C18.1054 6.54226 18.1572 6.47753 18.2293 6.41655C18.3643 6.30225 18.5469 6.22601 18.6758 6.1927L20.409 5.94146L20.4133 5.94072C20.427 5.93835 20.444 5.93567 20.4635 5.93259C20.5695 5.91586 20.7523 5.887 20.9182 5.82825C21.1117 5.75972 21.381 5.61705 21.4637 5.31233C21.4991 5.18203 21.5058 5.0546 21.4747 4.93429C21.443 4.81171 21.3768 4.71542 21.2975 4.64311C21.1519 4.51036 20.9623 4.4608 20.8766 4.43837L20.8566 4.43316L19.542 4.25991L19.5397 4.25964C19.5306 4.25858 19.521 4.25749 19.5108 4.25634C19.4249 4.24664 19.3035 4.23293 19.1968 4.19894C19.1813 4.19399 19.1678 4.18913 19.1562 4.18449C19.1305 4.1742 19.1147 4.14847 19.1201 4.12224C19.1211 4.11719 19.1221 4.11398 19.1228 4.11196C19.1236 4.10982 19.1242 4.10865 19.1255 4.10682C19.1271 4.10457 19.132 4.09844 19.1437 4.08835C19.2071 4.03407 19.3496 3.96011 19.7034 3.81591C20.0666 3.66791 20.3203 3.50643 20.4777 3.32125C20.6465 3.12266 20.6898 2.91382 20.6631 2.72166C20.6348 2.51798 20.5161 2.32933 20.3063 2.19927C20.104 2.07386 19.8334 2.01209 19.5025 2.01209C19.4352 2.01209 19.3656 2.01442 19.2944 2.01876L19.2925 2.01725L18.8078 2.00692C18.4847 1.96976 18.1526 2.09123 18.0269 2.15662C17.9605 2.19103 17.8104 2.27327 17.7415 2.32696ZM18.2967 7.1776C18.3201 7.19551 18.3449 7.2125 18.3709 7.22863C18.5333 7.32939 18.7198 7.38112 18.8372 7.39701C19.1442 7.41402 19.6325 7.42145 20.1055 7.389C20.3448 7.37257 20.5745 7.34631 20.7721 7.3076C20.9748 7.26789 21.121 7.21926 21.2083 7.16919C21.3137 7.10875 21.3582 7.06091 21.3754 7.0358C21.3835 7.02396 21.3854 7.01741 21.3857 7.01612C21.3857 7.01626 21.3858 7.01584 21.3857 7.01612C21.3857 7.01586 21.3858 7.01473 21.3856 7.01399C21.3853 7.01283 21.3847 7.01099 21.3836 7.00846C21.3813 7.00323 21.3773 6.99583 21.3704 6.98675C21.3559 6.96745 21.3353 6.94907 21.316 6.93638C21.1597 6.8335 20.9254 6.78296 20.618 6.78597C20.3153 6.78893 19.9789 6.84322 19.6505 6.91383C19.6067 6.92326 19.5601 6.93338 19.5111 6.94404C19.1868 7.01457 18.7548 7.1085 18.2967 7.1776ZM18.7755 2.23404C18.7755 2.26825 18.708 2.29599 18.6247 2.29599C18.5414 2.29599 18.4739 2.26825 18.4739 2.23404C18.4739 2.19983 18.5414 2.1721 18.6247 2.1721C18.708 2.1721 18.7755 2.19983 18.7755 2.23404Z" fill="#F9F9F9"/>
<path fill-rule="evenodd" clip-rule="evenodd" d="M17.7415 16.327C17.6726 16.3806 17.7128 16.4491 17.7415 16.4766C17.7517 16.4976 17.765 16.5169 17.7808 16.5347C17.3655 16.6711 16.7577 16.6237 16.4921 16.5799C16.5481 16.6377 16.6518 16.69 16.6967 16.7089L16.4382 16.6676C16.4454 16.69 16.5362 16.7461 16.8421 16.7915C17.1322 16.8346 17.6646 16.714 17.9317 16.6383C18.0536 16.693 18.199 16.7152 18.2854 16.7193C18.5296 16.7158 19.076 16.7048 19.3087 16.6883C19.5304 16.6725 19.7763 16.6587 19.8859 16.6529C19.9226 16.6659 19.9511 16.6799 19.9729 16.6934C20.0358 16.7324 20.0506 16.7708 20.0545 16.7994C20.0601 16.8396 20.0577 16.8837 20.0017 16.9496C19.9342 17.029 19.784 17.1436 19.4632 17.2744C19.1331 17.4089 18.8879 17.5182 18.7344 17.6497C18.6467 17.725 18.5814 17.8125 18.5428 17.9191C18.5068 18.0186 18.5008 18.1171 18.5008 18.2007C18.5008 18.3753 18.5883 18.508 18.6932 18.5962C18.7906 18.6782 18.9073 18.7268 19.0032 18.7573C19.1752 18.8122 19.3622 18.8325 19.4426 18.8412C19.4506 18.8421 19.4575 18.8428 19.4632 18.8435L20.7328 19.0108C20.7663 19.0199 20.7951 19.0288 20.821 19.0395C20.8516 19.0521 20.8673 19.063 20.8743 19.0694C20.878 19.0728 20.8782 19.0736 20.8787 19.0754C20.8786 19.0751 20.8787 19.0756 20.8787 19.0754C20.8798 19.0799 20.8854 19.106 20.8696 19.1641C20.8641 19.1841 20.839 19.229 20.7054 19.2763C20.6003 19.3135 20.4892 19.3314 20.3816 19.3488C20.3571 19.3528 20.3328 19.3567 20.3087 19.3609L18.5532 19.6153L18.5387 19.6188C18.3414 19.6666 18.0544 19.7796 17.8229 19.9754C17.6302 20.1386 17.4624 20.3738 17.4421 20.6766L17.441 20.6766C17.4367 20.6941 17.4257 20.7038 17.4076 20.7042C17.2373 20.708 17.0932 20.7906 16.986 20.852C16.9475 20.8741 16.9137 20.8935 16.8852 20.9055C16.5017 21.0665 16.1438 21.0655 16.0127 21.0449L16.0065 21.0429L16 21.0554C16.4417 21.2658 17.022 21.2956 17.5788 21.2582C17.6935 21.4632 17.864 21.6151 18.0373 21.7226C18.2936 21.8816 18.5767 21.9584 18.7689 21.9819L18.7792 21.9832L18.7896 21.9838C19.1171 22.0025 19.6388 22.011 20.1493 21.9759C20.4046 21.9584 20.6627 21.9297 20.8951 21.8841C21.1223 21.8396 21.348 21.7748 21.5235 21.6741C21.8376 21.494 22.0252 21.2505 21.9973 20.9615C21.9728 20.7082 21.7888 20.5338 21.6636 20.4513C21.3567 20.2493 20.9738 20.194 20.6118 20.1976C20.2451 20.2011 19.8598 20.2657 19.5161 20.3397C19.4711 20.3493 19.4239 20.3596 19.3748 20.3703C19.0169 20.448 18.5557 20.5482 18.0776 20.6142C18.1054 20.5423 18.1572 20.4775 18.2293 20.4165C18.3643 20.3022 18.5469 20.226 18.6758 20.1927L20.409 19.9415L20.4133 19.9407C20.427 19.9383 20.444 19.9357 20.4635 19.9326C20.5695 19.9159 20.7523 19.887 20.9182 19.8283C21.1117 19.7597 21.381 19.617 21.4637 19.3123C21.4991 19.182 21.5058 19.0546 21.4747 18.9343C21.443 18.8117 21.3768 18.7154 21.2975 18.6431C21.1519 18.5104 20.9623 18.4608 20.8766 18.4384L20.8566 18.4332L19.542 18.2599L19.5397 18.2596C19.5306 18.2586 19.521 18.2575 19.5108 18.2563C19.4249 18.2466 19.3035 18.2329 19.1968 18.1989C19.1813 18.194 19.1678 18.1891 19.1562 18.1845C19.1305 18.1742 19.1147 18.1485 19.1201 18.1222C19.1211 18.1172 19.1221 18.114 19.1228 18.112C19.1236 18.1098 19.1242 18.1087 19.1255 18.1068C19.1271 18.1046 19.132 18.0984 19.1437 18.0884C19.2071 18.0341 19.3496 17.9601 19.7034 17.8159C20.0666 17.6679 20.3203 17.5064 20.4777 17.3213C20.6465 17.1227 20.6898 16.9138 20.6631 16.7217C20.6348 16.518 20.5161 16.3293 20.3063 16.1993C20.104 16.0739 19.8334 16.0121 19.5025 16.0121C19.4352 16.0121 19.3656 16.0144 19.2944 16.0188L19.2925 16.0172L18.8078 16.0069C18.4847 15.9698 18.1526 16.0912 18.0269 16.1566C17.9605 16.191 17.8104 16.2733 17.7415 16.327ZM18.2967 21.1776C18.3201 21.1955 18.3449 21.2125 18.3709 21.2286C18.5333 21.3294 18.7198 21.3811 18.8372 21.397C19.1442 21.414 19.6325 21.4214 20.1055 21.389C20.3448 21.3726 20.5745 21.3463 20.7721 21.3076C20.9748 21.2679 21.121 21.2193 21.2083 21.1692C21.3137 21.1087 21.3582 21.0609 21.3754 21.0358C21.3835 21.024 21.3854 21.0174 21.3857 21.0161C21.3857 21.0163 21.3858 21.0158 21.3857 21.0161C21.3857 21.0159 21.3858 21.0147 21.3856 21.014C21.3853 21.0128 21.3847 21.011 21.3836 21.0085C21.3813 21.0032 21.3773 20.9958 21.3704 20.9867C21.3559 20.9674 21.3353 20.9491 21.316 20.9364C21.1597 20.8335 20.9254 20.783 20.618 20.786C20.3153 20.7889 19.9789 20.8432 19.6505 20.9138C19.6067 20.9233 19.5601 20.9334 19.5111 20.944C19.1868 21.0146 18.7548 21.1085 18.2967 21.1776ZM18.7755 16.234C18.7755 16.2683 18.708 16.296 18.6247 16.296C18.5414 16.296 18.4739 16.2683 18.4739 16.234C18.4739 16.1998 18.5414 16.1721 18.6247 16.1721C18.708 16.1721 18.7755 16.1998 18.7755 16.234Z" fill="#F9F9F9"/>
</g>
<defs>
<clipPath id="clip0_440_1179">
<rect width="24" height="24" rx="2" fill="white"/>
</clipPath>
</defs>
</svg>
