<svg width="24" height="24" viewBox="0 0 24 24" fill="none" xmlns="http://www.w3.org/2000/svg">
<g clip-path="url(#clip0_440_1177)">
<rect width="24" height="24" rx="12" fill="#485CC2"/>
<path d="M10 24H14V14H28V10H14V3.49692e-07L10 0L10 10H-4V14H10L10 24Z" fill="#F9F9F9"/>
<path fill-rule="evenodd" clip-rule="evenodd" d="M4.74149 3.32696C4.67255 3.38064 4.71276 3.44912 4.74149 3.47665C4.75167 3.49762 4.765 3.51693 4.78084 3.53469C4.36554 3.67112 3.75769 3.62367 3.49206 3.57989C3.54806 3.6377 3.65182 3.69 3.6967 3.70893L3.4382 3.66764C3.44538 3.69 3.53622 3.7461 3.84211 3.79152C4.13215 3.83459 4.6646 3.714 4.93172 3.63832C5.05356 3.69295 5.19898 3.71516 5.28542 3.71925C5.52956 3.71581 6.07601 3.7048 6.30866 3.68828C6.5304 3.67254 6.77628 3.65867 6.88589 3.65294C6.92258 3.66587 6.95113 3.67989 6.97289 3.69338C7.03579 3.73237 7.05057 3.77084 7.05455 3.79944C7.06013 3.83956 7.05773 3.88365 7.00168 3.9496C6.93422 4.02897 6.784 4.14365 6.4632 4.27438C6.13309 4.40892 5.88788 4.51821 5.73444 4.64975C5.64669 4.72497 5.58136 4.81252 5.54279 4.91907C5.50676 5.0186 5.50084 5.11707 5.50084 5.2007C5.50084 5.37527 5.58832 5.50801 5.69318 5.59621C5.79062 5.67817 5.90728 5.72681 6.00315 5.75735C6.17521 5.81216 6.36223 5.83249 6.44262 5.84123C6.45056 5.8421 6.45746 5.84285 6.4632 5.84351L7.73284 6.01083C7.7663 6.01991 7.79515 6.02883 7.821 6.0395C7.85159 6.05214 7.86727 6.06302 7.87425 6.06939C7.87804 6.07284 7.87822 6.07358 7.87865 6.07536C7.8786 6.07514 7.8787 6.07555 7.87865 6.07536C7.87983 6.0799 7.88535 6.106 7.86957 6.16411C7.86415 6.18409 7.83901 6.22896 7.70542 6.27627C7.6003 6.31349 7.48925 6.33144 7.38164 6.34883C7.35712 6.3528 7.33278 6.35673 7.30873 6.36086L5.55323 6.61532L5.53871 6.61884C5.34138 6.66665 5.05436 6.77958 4.82293 6.97544C4.63019 7.13856 4.46242 7.37385 4.44209 7.67658L4.44101 7.67663C4.43668 7.6941 4.42574 7.70377 4.40759 7.70417C4.23729 7.70797 4.0932 7.79059 3.98603 7.85204C3.94747 7.87415 3.91369 7.89351 3.88519 7.90548C3.50175 8.06653 3.14379 8.0655 3.01275 8.04485L3.00647 8.04293L3 8.05541C3.44171 8.26581 4.02204 8.29557 4.57878 8.25819C4.69347 8.4632 4.86401 8.61508 5.03727 8.72259C5.29355 8.88162 5.57674 8.95837 5.76886 8.98193L5.77919 8.98319L5.78958 8.98379C6.11706 9.00246 6.63884 9.01097 7.14931 8.97594C7.4046 8.95842 7.66271 8.92965 7.89506 8.88412C8.12227 8.8396 8.34803 8.7748 8.52353 8.67414C8.83761 8.49401 9.02518 8.25053 8.99726 7.96147C8.9728 7.70817 8.78882 7.53378 8.66358 7.45133C8.35669 7.24929 7.97378 7.19401 7.61178 7.19755C7.24515 7.20113 6.85985 7.26574 6.51612 7.33966C6.47111 7.34934 6.42393 7.35959 6.37481 7.37026C6.0169 7.448 5.55568 7.54818 5.07765 7.61421C5.10541 7.54226 5.15723 7.47753 5.22929 7.41655C5.36434 7.30225 5.54688 7.22601 5.67576 7.1927L7.40903 6.94146L7.4133 6.94072C7.42703 6.93835 7.44396 6.93567 7.4635 6.93259C7.56947 6.91586 7.75229 6.887 7.91818 6.82825C8.11171 6.75972 8.38098 6.61705 8.46372 6.31233C8.4991 6.18203 8.50583 6.0546 8.47469 5.93429C8.44296 5.81171 8.37676 5.71542 8.29748 5.64311C8.15194 5.51036 7.96235 5.4608 7.87655 5.43837L7.8566 5.43316L6.54203 5.25991L6.5397 5.25964C6.53062 5.25858 6.52098 5.25749 6.51084 5.25634C6.42488 5.24664 6.30351 5.23293 6.19679 5.19894C6.18128 5.19399 6.16781 5.18913 6.1562 5.18449C6.13046 5.1742 6.11469 5.14847 6.12006 5.12224C6.12109 5.11719 6.12208 5.11398 6.12281 5.11196C6.12359 5.10982 6.1242 5.10865 6.12552 5.10682C6.12714 5.10457 6.13196 5.09844 6.14373 5.08835C6.20705 5.03407 6.3496 4.96011 6.70343 4.81591C7.0666 4.66791 7.32028 4.50643 7.47767 4.32125C7.64646 4.12266 7.68984 3.91382 7.66311 3.72166C7.63477 3.51798 7.51611 3.32933 7.3063 3.19927C7.10398 3.07386 6.83343 3.01209 6.50254 3.01209C6.43524 3.01209 6.36555 3.01442 6.29438 3.01876L6.2925 3.01725L5.80781 3.00692C5.48468 2.96976 5.15258 3.09123 5.02692 3.15662C4.9605 3.19103 4.81042 3.27327 4.74149 3.32696ZM5.29666 8.1776C5.32013 8.19551 5.34494 8.2125 5.37093 8.22863C5.5333 8.32939 5.71983 8.38112 5.83723 8.39701C6.14421 8.41402 6.63249 8.42145 7.10547 8.389C7.34479 8.37257 7.57454 8.34631 7.77209 8.3076C7.97478 8.26789 8.12099 8.21926 8.20829 8.16919C8.31368 8.10875 8.35817 8.06091 8.37536 8.0358C8.38347 8.02396 8.3854 8.01741 8.38575 8.01612C8.38572 8.01626 8.38582 8.01584 8.38575 8.01612C8.38571 8.01586 8.38577 8.01473 8.38557 8.01399C8.38526 8.01283 8.38467 8.01099 8.38358 8.00846C8.38133 8.00323 8.37726 7.99583 8.37042 7.98675C8.35588 7.96745 8.33527 7.94907 8.31598 7.93638C8.15971 7.8335 7.92545 7.78296 7.61804 7.78597C7.31525 7.78893 6.97889 7.84322 6.65052 7.91383C6.6067 7.92326 6.56013 7.93338 6.51111 7.94404C6.18676 8.01457 5.75479 8.1085 5.29666 8.1776ZM5.7755 3.23404C5.7755 3.26825 5.70798 3.29599 5.6247 3.29599C5.54142 3.29599 5.47391 3.26825 5.47391 3.23404C5.47391 3.19983 5.54142 3.1721 5.6247 3.1721C5.70798 3.1721 5.7755 3.19983 5.7755 3.23404Z" fill="#F9F9F9"/>
<path fill-rule="evenodd" clip-rule="evenodd" d="M4.74149 15.327C4.67255 15.3806 4.71276 15.4491 4.74149 15.4766C4.75167 15.4976 4.765 15.5169 4.78084 15.5347C4.36554 15.6711 3.75769 15.6237 3.49206 15.5799C3.54806 15.6377 3.65182 15.69 3.6967 15.7089L3.4382 15.6676C3.44538 15.69 3.53622 15.7461 3.84211 15.7915C4.13215 15.8346 4.6646 15.714 4.93172 15.6383C5.05356 15.693 5.19898 15.7152 5.28542 15.7193C5.52956 15.7158 6.07601 15.7048 6.30866 15.6883C6.5304 15.6725 6.77628 15.6587 6.88589 15.6529C6.92258 15.6659 6.95113 15.6799 6.97289 15.6934C7.03579 15.7324 7.05057 15.7708 7.05455 15.7994C7.06013 15.8396 7.05773 15.8837 7.00168 15.9496C6.93422 16.029 6.784 16.1436 6.4632 16.2744C6.13309 16.4089 5.88788 16.5182 5.73444 16.6497C5.64669 16.725 5.58136 16.8125 5.54279 16.9191C5.50676 17.0186 5.50084 17.1171 5.50084 17.2007C5.50084 17.3753 5.58832 17.508 5.69318 17.5962C5.79062 17.6782 5.90728 17.7268 6.00315 17.7573C6.17521 17.8122 6.36223 17.8325 6.44262 17.8412C6.45056 17.8421 6.45746 17.8428 6.4632 17.8435L7.73284 18.0108C7.7663 18.0199 7.79515 18.0288 7.821 18.0395C7.85159 18.0521 7.86727 18.063 7.87425 18.0694C7.87804 18.0728 7.87822 18.0736 7.87865 18.0754C7.8786 18.0751 7.8787 18.0756 7.87865 18.0754C7.87983 18.0799 7.88535 18.106 7.86957 18.1641C7.86415 18.1841 7.83901 18.229 7.70542 18.2763C7.6003 18.3135 7.48925 18.3314 7.38164 18.3488C7.35712 18.3528 7.33278 18.3567 7.30873 18.3609L5.55323 18.6153L5.53871 18.6188C5.34138 18.6666 5.05436 18.7796 4.82293 18.9754C4.63019 19.1386 4.46242 19.3738 4.44209 19.6766L4.44101 19.6766C4.43668 19.6941 4.42574 19.7038 4.40759 19.7042C4.23729 19.708 4.0932 19.7906 3.98603 19.852C3.94747 19.8741 3.91369 19.8935 3.88519 19.9055C3.50175 20.0665 3.14379 20.0655 3.01275 20.0449L3.00647 20.0429L3 20.0554C3.44171 20.2658 4.02204 20.2956 4.57878 20.2582C4.69347 20.4632 4.86401 20.6151 5.03727 20.7226C5.29355 20.8816 5.57674 20.9584 5.76886 20.9819L5.77919 20.9832L5.78958 20.9838C6.11706 21.0025 6.63884 21.011 7.14931 20.9759C7.4046 20.9584 7.66271 20.9297 7.89506 20.8841C8.12227 20.8396 8.34803 20.7748 8.52353 20.6741C8.83761 20.494 9.02518 20.2505 8.99726 19.9615C8.9728 19.7082 8.78882 19.5338 8.66358 19.4513C8.35669 19.2493 7.97378 19.194 7.61178 19.1976C7.24515 19.2011 6.85985 19.2657 6.51612 19.3397C6.47111 19.3493 6.42393 19.3596 6.37481 19.3703C6.0169 19.448 5.55568 19.5482 5.07765 19.6142C5.10541 19.5423 5.15723 19.4775 5.22929 19.4165C5.36434 19.3022 5.54688 19.226 5.67576 19.1927L7.40903 18.9415L7.4133 18.9407C7.42703 18.9383 7.44396 18.9357 7.4635 18.9326C7.56947 18.9159 7.75229 18.887 7.91818 18.8282C8.11171 18.7597 8.38098 18.617 8.46372 18.3123C8.4991 18.182 8.50583 18.0546 8.47469 17.9343C8.44296 17.8117 8.37676 17.7154 8.29748 17.6431C8.15194 17.5104 7.96235 17.4608 7.87655 17.4384L7.8566 17.4332L6.54203 17.2599L6.5397 17.2596C6.53062 17.2586 6.52098 17.2575 6.51084 17.2563C6.42488 17.2466 6.30351 17.2329 6.19679 17.1989C6.18128 17.194 6.16781 17.1891 6.1562 17.1845C6.13046 17.1742 6.11469 17.1485 6.12006 17.1222C6.12109 17.1172 6.12208 17.114 6.12281 17.112C6.12359 17.1098 6.1242 17.1087 6.12552 17.1068C6.12714 17.1046 6.13196 17.0984 6.14373 17.0884C6.20705 17.0341 6.3496 16.9601 6.70343 16.8159C7.0666 16.6679 7.32028 16.5064 7.47767 16.3213C7.64646 16.1227 7.68984 15.9138 7.66311 15.7217C7.63477 15.518 7.51611 15.3293 7.3063 15.1993C7.10398 15.0739 6.83343 15.0121 6.50254 15.0121C6.43524 15.0121 6.36555 15.0144 6.29438 15.0188L6.2925 15.0172L5.80781 15.0069C5.48468 14.9698 5.15258 15.0912 5.02692 15.1566C4.9605 15.191 4.81042 15.2733 4.74149 15.327ZM5.29666 20.1776C5.32013 20.1955 5.34494 20.2125 5.37093 20.2286C5.5333 20.3294 5.71983 20.3811 5.83723 20.397C6.14421 20.414 6.63249 20.4214 7.10547 20.389C7.34479 20.3726 7.57454 20.3463 7.77209 20.3076C7.97478 20.2679 8.12099 20.2193 8.20829 20.1692C8.31368 20.1087 8.35817 20.0609 8.37536 20.0358C8.38347 20.024 8.3854 20.0174 8.38575 20.0161C8.38572 20.0163 8.38582 20.0158 8.38575 20.0161C8.38571 20.0159 8.38577 20.0147 8.38557 20.014C8.38526 20.0128 8.38467 20.011 8.38358 20.0085C8.38133 20.0032 8.37726 19.9958 8.37042 19.9867C8.35588 19.9674 8.33527 19.9491 8.31598 19.9364C8.15971 19.8335 7.92545 19.783 7.61804 19.786C7.31525 19.7889 6.97889 19.8432 6.65052 19.9138C6.6067 19.9233 6.56013 19.9334 6.51111 19.944C6.18676 20.0146 5.75479 20.1085 5.29666 20.1776ZM5.7755 15.234C5.7755 15.2683 5.70798 15.296 5.6247 15.296C5.54142 15.296 5.47391 15.2683 5.47391 15.234C5.47391 15.1998 5.54142 15.1721 5.6247 15.1721C5.70798 15.1721 5.7755 15.1998 5.7755 15.234Z" fill="#F9F9F9"/>
<path fill-rule="evenodd" clip-rule="evenodd" d="M16.7415 3.32696C16.6726 3.38064 16.7128 3.44912 16.7415 3.47665C16.7517 3.49762 16.765 3.51693 16.7808 3.53469C16.3655 3.67112 15.7577 3.62367 15.4921 3.57989C15.5481 3.6377 15.6518 3.69 15.6967 3.70893L15.4382 3.66764C15.4454 3.69 15.5362 3.7461 15.8421 3.79152C16.1322 3.83459 16.6646 3.714 16.9317 3.63832C17.0536 3.69295 17.199 3.71516 17.2854 3.71925C17.5296 3.71581 18.076 3.7048 18.3087 3.68828C18.5304 3.67254 18.7763 3.65867 18.8859 3.65294C18.9226 3.66587 18.9511 3.67989 18.9729 3.69338C19.0358 3.73237 19.0506 3.77084 19.0545 3.79944C19.0601 3.83956 19.0577 3.88365 19.0017 3.9496C18.9342 4.02897 18.784 4.14365 18.4632 4.27438C18.1331 4.40892 17.8879 4.51821 17.7344 4.64975C17.6467 4.72497 17.5814 4.81252 17.5428 4.91907C17.5068 5.0186 17.5008 5.11707 17.5008 5.2007C17.5008 5.37527 17.5883 5.50801 17.6932 5.59621C17.7906 5.67817 17.9073 5.72681 18.0032 5.75735C18.1752 5.81216 18.3622 5.83249 18.4426 5.84123C18.4506 5.8421 18.4575 5.84285 18.4632 5.84351L19.7328 6.01083C19.7663 6.01991 19.7951 6.02883 19.821 6.0395C19.8516 6.05214 19.8673 6.06302 19.8743 6.06939C19.878 6.07284 19.8782 6.07358 19.8787 6.07536C19.8786 6.07514 19.8787 6.07555 19.8787 6.07536C19.8798 6.0799 19.8854 6.106 19.8696 6.16411C19.8641 6.18409 19.839 6.22896 19.7054 6.27627C19.6003 6.31349 19.4892 6.33144 19.3816 6.34883C19.3571 6.3528 19.3328 6.35673 19.3087 6.36086L17.5532 6.61532L17.5387 6.61884C17.3414 6.66665 17.0544 6.77958 16.8229 6.97544C16.6302 7.13856 16.4624 7.37385 16.4421 7.67658L16.441 7.67663C16.4367 7.6941 16.4257 7.70377 16.4076 7.70417C16.2373 7.70797 16.0932 7.79059 15.986 7.85204C15.9475 7.87415 15.9137 7.89351 15.8852 7.90548C15.5017 8.06653 15.1438 8.0655 15.0127 8.04485L15.0065 8.04293L15 8.05541C15.4417 8.26581 16.022 8.29557 16.5788 8.25819C16.6935 8.4632 16.864 8.61508 17.0373 8.72259C17.2936 8.88162 17.5767 8.95837 17.7689 8.98193L17.7792 8.98319L17.7896 8.98379C18.1171 9.00246 18.6388 9.01097 19.1493 8.97594C19.4046 8.95842 19.6627 8.92965 19.8951 8.88412C20.1223 8.8396 20.348 8.7748 20.5235 8.67414C20.8376 8.49401 21.0252 8.25053 20.9973 7.96147C20.9728 7.70817 20.7888 7.53378 20.6636 7.45133C20.3567 7.24929 19.9738 7.19401 19.6118 7.19755C19.2451 7.20113 18.8598 7.26574 18.5161 7.33966C18.4711 7.34934 18.4239 7.35959 18.3748 7.37026C18.0169 7.448 17.5557 7.54818 17.0776 7.61421C17.1054 7.54226 17.1572 7.47753 17.2293 7.41655C17.3643 7.30225 17.5469 7.22601 17.6758 7.1927L19.409 6.94146L19.4133 6.94072C19.427 6.93835 19.444 6.93567 19.4635 6.93259C19.5695 6.91586 19.7523 6.887 19.9182 6.82825C20.1117 6.75972 20.381 6.61705 20.4637 6.31233C20.4991 6.18203 20.5058 6.0546 20.4747 5.93429C20.443 5.81171 20.3768 5.71542 20.2975 5.64311C20.1519 5.51036 19.9623 5.4608 19.8766 5.43837L19.8566 5.43316L18.542 5.25991L18.5397 5.25964C18.5306 5.25858 18.521 5.25749 18.5108 5.25634C18.4249 5.24664 18.3035 5.23293 18.1968 5.19894C18.1813 5.19399 18.1678 5.18913 18.1562 5.18449C18.1305 5.1742 18.1147 5.14847 18.1201 5.12224C18.1211 5.11719 18.1221 5.11398 18.1228 5.11196C18.1236 5.10982 18.1242 5.10865 18.1255 5.10682C18.1271 5.10457 18.132 5.09844 18.1437 5.08835C18.2071 5.03407 18.3496 4.96011 18.7034 4.81591C19.0666 4.66791 19.3203 4.50643 19.4777 4.32125C19.6465 4.12266 19.6898 3.91382 19.6631 3.72166C19.6348 3.51798 19.5161 3.32933 19.3063 3.19927C19.104 3.07386 18.8334 3.01209 18.5025 3.01209C18.4352 3.01209 18.3656 3.01442 18.2944 3.01876L18.2925 3.01725L17.8078 3.00692C17.4847 2.96976 17.1526 3.09123 17.0269 3.15662C16.9605 3.19103 16.8104 3.27327 16.7415 3.32696ZM17.2967 8.1776C17.3201 8.19551 17.3449 8.2125 17.3709 8.22863C17.5333 8.32939 17.7198 8.38112 17.8372 8.39701C18.1442 8.41402 18.6325 8.42145 19.1055 8.389C19.3448 8.37257 19.5745 8.34631 19.7721 8.3076C19.9748 8.26789 20.121 8.21926 20.2083 8.16919C20.3137 8.10875 20.3582 8.06091 20.3754 8.0358C20.3835 8.02396 20.3854 8.01741 20.3857 8.01612C20.3857 8.01626 20.3858 8.01584 20.3857 8.01612C20.3857 8.01586 20.3858 8.01473 20.3856 8.01399C20.3853 8.01283 20.3847 8.01099 20.3836 8.00846C20.3813 8.00323 20.3773 7.99583 20.3704 7.98675C20.3559 7.96745 20.3353 7.94907 20.316 7.93638C20.1597 7.8335 19.9254 7.78296 19.618 7.78597C19.3153 7.78893 18.9789 7.84322 18.6505 7.91383C18.6067 7.92326 18.5601 7.93338 18.5111 7.94404C18.1868 8.01457 17.7548 8.1085 17.2967 8.1776ZM17.7755 3.23404C17.7755 3.26825 17.708 3.29599 17.6247 3.29599C17.5414 3.29599 17.4739 3.26825 17.4739 3.23404C17.4739 3.19983 17.5414 3.1721 17.6247 3.1721C17.708 3.1721 17.7755 3.19983 17.7755 3.23404Z" fill="#F9F9F9"/>
<path fill-rule="evenodd" clip-rule="evenodd" d="M16.7415 15.327C16.6726 15.3806 16.7128 15.4491 16.7415 15.4766C16.7517 15.4976 16.765 15.5169 16.7808 15.5347C16.3655 15.6711 15.7577 15.6237 15.4921 15.5799C15.5481 15.6377 15.6518 15.69 15.6967 15.7089L15.4382 15.6676C15.4454 15.69 15.5362 15.7461 15.8421 15.7915C16.1322 15.8346 16.6646 15.714 16.9317 15.6383C17.0536 15.693 17.199 15.7152 17.2854 15.7193C17.5296 15.7158 18.076 15.7048 18.3087 15.6883C18.5304 15.6725 18.7763 15.6587 18.8859 15.6529C18.9226 15.6659 18.9511 15.6799 18.9729 15.6934C19.0358 15.7324 19.0506 15.7708 19.0545 15.7994C19.0601 15.8396 19.0577 15.8837 19.0017 15.9496C18.9342 16.029 18.784 16.1436 18.4632 16.2744C18.1331 16.4089 17.8879 16.5182 17.7344 16.6497C17.6467 16.725 17.5814 16.8125 17.5428 16.9191C17.5068 17.0186 17.5008 17.1171 17.5008 17.2007C17.5008 17.3753 17.5883 17.508 17.6932 17.5962C17.7906 17.6782 17.9073 17.7268 18.0032 17.7573C18.1752 17.8122 18.3622 17.8325 18.4426 17.8412C18.4506 17.8421 18.4575 17.8428 18.4632 17.8435L19.7328 18.0108C19.7663 18.0199 19.7951 18.0288 19.821 18.0395C19.8516 18.0521 19.8673 18.063 19.8743 18.0694C19.878 18.0728 19.8782 18.0736 19.8787 18.0754C19.8786 18.0751 19.8787 18.0756 19.8787 18.0754C19.8798 18.0799 19.8854 18.106 19.8696 18.1641C19.8641 18.1841 19.839 18.229 19.7054 18.2763C19.6003 18.3135 19.4892 18.3314 19.3816 18.3488C19.3571 18.3528 19.3328 18.3567 19.3087 18.3609L17.5532 18.6153L17.5387 18.6188C17.3414 18.6666 17.0544 18.7796 16.8229 18.9754C16.6302 19.1386 16.4624 19.3738 16.4421 19.6766L16.441 19.6766C16.4367 19.6941 16.4257 19.7038 16.4076 19.7042C16.2373 19.708 16.0932 19.7906 15.986 19.852C15.9475 19.8741 15.9137 19.8935 15.8852 19.9055C15.5017 20.0665 15.1438 20.0655 15.0127 20.0449L15.0065 20.0429L15 20.0554C15.4417 20.2658 16.022 20.2956 16.5788 20.2582C16.6935 20.4632 16.864 20.6151 17.0373 20.7226C17.2936 20.8816 17.5767 20.9584 17.7689 20.9819L17.7792 20.9832L17.7896 20.9838C18.1171 21.0025 18.6388 21.011 19.1493 20.9759C19.4046 20.9584 19.6627 20.9297 19.8951 20.8841C20.1223 20.8396 20.348 20.7748 20.5235 20.6741C20.8376 20.494 21.0252 20.2505 20.9973 19.9615C20.9728 19.7082 20.7888 19.5338 20.6636 19.4513C20.3567 19.2493 19.9738 19.194 19.6118 19.1976C19.2451 19.2011 18.8598 19.2657 18.5161 19.3397C18.4711 19.3493 18.4239 19.3596 18.3748 19.3703C18.0169 19.448 17.5557 19.5482 17.0776 19.6142C17.1054 19.5423 17.1572 19.4775 17.2293 19.4165C17.3643 19.3022 17.5469 19.226 17.6758 19.1927L19.409 18.9415L19.4133 18.9407C19.427 18.9383 19.444 18.9357 19.4635 18.9326C19.5695 18.9159 19.7523 18.887 19.9182 18.8282C20.1117 18.7597 20.381 18.617 20.4637 18.3123C20.4991 18.182 20.5058 18.0546 20.4747 17.9343C20.443 17.8117 20.3768 17.7154 20.2975 17.6431C20.1519 17.5104 19.9623 17.4608 19.8766 17.4384L19.8566 17.4332L18.542 17.2599L18.5397 17.2596C18.5306 17.2586 18.521 17.2575 18.5108 17.2563C18.4249 17.2466 18.3035 17.2329 18.1968 17.1989C18.1813 17.194 18.1678 17.1891 18.1562 17.1845C18.1305 17.1742 18.1147 17.1485 18.1201 17.1222C18.1211 17.1172 18.1221 17.114 18.1228 17.112C18.1236 17.1098 18.1242 17.1087 18.1255 17.1068C18.1271 17.1046 18.132 17.0984 18.1437 17.0884C18.2071 17.0341 18.3496 16.9601 18.7034 16.8159C19.0666 16.6679 19.3203 16.5064 19.4777 16.3213C19.6465 16.1227 19.6898 15.9138 19.6631 15.7217C19.6348 15.518 19.5161 15.3293 19.3063 15.1993C19.104 15.0739 18.8334 15.0121 18.5025 15.0121C18.4352 15.0121 18.3656 15.0144 18.2944 15.0188L18.2925 15.0172L17.8078 15.0069C17.4847 14.9698 17.1526 15.0912 17.0269 15.1566C16.9605 15.191 16.8104 15.2733 16.7415 15.327ZM17.2967 20.1776C17.3201 20.1955 17.3449 20.2125 17.3709 20.2286C17.5333 20.3294 17.7198 20.3811 17.8372 20.397C18.1442 20.414 18.6325 20.4214 19.1055 20.389C19.3448 20.3726 19.5745 20.3463 19.7721 20.3076C19.9748 20.2679 20.121 20.2193 20.2083 20.1692C20.3137 20.1087 20.3582 20.0609 20.3754 20.0358C20.3835 20.024 20.3854 20.0174 20.3857 20.0161C20.3857 20.0163 20.3858 20.0158 20.3857 20.0161C20.3857 20.0159 20.3858 20.0147 20.3856 20.014C20.3853 20.0128 20.3847 20.011 20.3836 20.0085C20.3813 20.0032 20.3773 19.9958 20.3704 19.9867C20.3559 19.9674 20.3353 19.9491 20.316 19.9364C20.1597 19.8335 19.9254 19.783 19.618 19.786C19.3153 19.7889 18.9789 19.8432 18.6505 19.9138C18.6067 19.9233 18.5601 19.9334 18.5111 19.944C18.1868 20.0146 17.7548 20.1085 17.2967 20.1776ZM17.7755 15.234C17.7755 15.2683 17.708 15.296 17.6247 15.296C17.5414 15.296 17.4739 15.2683 17.4739 15.234C17.4739 15.1998 17.5414 15.1721 17.6247 15.1721C17.708 15.1721 17.7755 15.1998 17.7755 15.234Z" fill="#F9F9F9"/>
</g>
<defs>
<clipPath id="clip0_440_1177">
<rect width="24" height="24" rx="12" fill="white"/>
</clipPath>
</defs>
</svg>
