<svg width="24" height="24" viewBox="0 0 24 24" fill="none" xmlns="http://www.w3.org/2000/svg">
<g clip-path="url(#clip0_440_1173)">
<rect width="24" height="24" rx="2" fill="#F9F9F9"/>
<rect width="8" height="24" fill="#3FB47C"/>
<rect x="16" width="8" height="24" fill="#D74B4B"/>
<path d="M9.99002 13.3745C9.99002 13.4637 9.94972 13.5359 9.90002 13.5359C9.89771 13.5359 9.89542 13.5357 9.89316 13.5354L9.83456 13.7176L9.72532 13.6938C9.70839 13.7339 9.65697 13.7564 9.6006 13.7454C9.53596 13.7327 9.48929 13.6807 9.49636 13.6292C9.50343 13.5777 9.56156 13.5462 9.6262 13.5589C9.68394 13.5702 9.72733 13.6129 9.73092 13.6586L9.81548 13.677L9.86496 13.5232C9.83267 13.4987 9.81002 13.4414 9.81002 13.3745C9.81002 13.2854 9.85031 13.2132 9.90002 13.2132C9.94972 13.2132 9.99002 13.2854 9.99002 13.3745Z" fill="#F8D74C"/>
<path d="M10.6594 14.1155C10.6879 14.1782 10.6827 14.2474 10.6477 14.2702C10.6461 14.2712 10.6444 14.2722 10.6428 14.273L10.6598 14.4279L10.5754 14.4611C10.5763 14.4971 10.5474 14.5365 10.5042 14.5545C10.4547 14.5751 10.4052 14.5599 10.3937 14.5204C10.3822 14.4809 10.413 14.4322 10.4625 14.4116C10.5067 14.3931 10.5509 14.4033 10.5681 14.4338L10.6334 14.4081L10.619 14.2773C10.5885 14.2748 10.5542 14.2449 10.5328 14.1979C10.5042 14.1352 10.5095 14.0659 10.5444 14.0432C10.5794 14.0205 10.6308 14.0529 10.6594 14.1155Z" fill="#F8D74C"/>
<path d="M9.54771 12.5643C9.52578 12.6248 9.48063 12.6597 9.44688 12.6422C9.44531 12.6414 9.44379 12.6405 9.44233 12.6395L9.35771 12.7426L9.28937 12.688C9.268 12.7093 9.22754 12.7065 9.19198 12.6792C9.1512 12.6479 9.13232 12.5961 9.1498 12.5636C9.16728 12.5311 9.21451 12.5302 9.25528 12.5615C9.2917 12.5895 9.31066 12.6338 9.30184 12.6661L9.35474 12.7083L9.42619 12.6213C9.4103 12.5933 9.40903 12.5464 9.42548 12.501C9.44742 12.4405 9.49256 12.4056 9.52632 12.4231C9.56007 12.4406 9.56965 12.5038 9.54771 12.5643Z" fill="#F8D74C"/>
<path d="M14.01 13.3745C14.01 13.4637 14.0503 13.5359 14.1 13.5359C14.1023 13.5359 14.1046 13.5357 14.1068 13.5354L14.1654 13.7176L14.2747 13.6938C14.2916 13.7339 14.343 13.7564 14.3994 13.7454C14.464 13.7327 14.5107 13.6807 14.5036 13.6292C14.4966 13.5777 14.4384 13.5462 14.3738 13.5589C14.3161 13.5702 14.2727 13.6129 14.2691 13.6586L14.1845 13.677L14.135 13.5232C14.1673 13.4987 14.19 13.4414 14.19 13.3745C14.19 13.2854 14.1497 13.2132 14.1 13.2132C14.0503 13.2132 14.01 13.2854 14.01 13.3745Z" fill="#F8D74C"/>
<path d="M13.3406 14.1155C13.3121 14.1782 13.3173 14.2474 13.3523 14.2702C13.3539 14.2712 13.3556 14.2722 13.3572 14.273L13.3402 14.4279L13.4246 14.4611C13.4237 14.4971 13.4526 14.5365 13.4958 14.5545C13.5453 14.5751 13.5948 14.5599 13.6063 14.5204C13.6178 14.4809 13.587 14.4322 13.5375 14.4116C13.4933 14.3931 13.4491 14.4033 13.4319 14.4338L13.3666 14.4081L13.381 14.2773C13.4115 14.2748 13.4458 14.2449 13.4672 14.1979C13.4958 14.1352 13.4905 14.0659 13.4556 14.0432C13.4206 14.0205 13.3692 14.0529 13.3406 14.1155Z" fill="#F8D74C"/>
<path d="M14.4523 12.5643C14.4742 12.6248 14.5194 12.6597 14.5531 12.6422C14.5547 12.6414 14.5562 12.6405 14.5577 12.6395L14.6423 12.7426L14.7106 12.688C14.732 12.7093 14.7725 12.7065 14.808 12.6792C14.8488 12.6479 14.8677 12.5961 14.8502 12.5636C14.8327 12.5311 14.7855 12.5302 14.7447 12.5615C14.7083 12.5895 14.6893 12.6338 14.6982 12.6661L14.6453 12.7083L14.5738 12.6213C14.5897 12.5933 14.591 12.5464 14.5745 12.501C14.5526 12.4405 14.5074 12.4056 14.4737 12.4231C14.4399 12.4406 14.4304 12.5038 14.4523 12.5643Z" fill="#F8D74C"/>
<path d="M9.34326 12.821L9.42085 12.995L9.29378 13.015L9.2761 13.1278L9.38548 13.2207L9.29281 13.2797L9.30865 13.3915L9.76212 13.57L9.67672 13.0352L9.61845 13.1333L9.6485 12.9719L9.58502 12.8295L9.55323 12.9107L9.50039 12.6396L9.34326 12.821Z" fill="#3FB47C"/>
<path d="M9.896 13.8845L10.0249 14.0076L9.9149 14.0861L9.93606 14.1981L10.0673 14.2316L10.0018 14.3296L10.0534 14.4248L10.5289 14.3739L10.2732 13.9233L10.2522 14.041L10.2263 13.8786L10.1208 13.7779L10.1185 13.8675L9.98016 13.6436L9.896 13.8845Z" fill="#3FB47C"/>
<path fill-rule="evenodd" clip-rule="evenodd" d="M9.54196 13.2339C9.31114 12.7487 9.1755 12.2384 9.1352 11.9433L9.16481 11.9375C9.2045 12.2281 9.33886 12.7344 9.56804 13.2161C9.79736 13.6982 10.1201 14.1526 10.5354 14.3441L10.5357 14.3442C10.7301 14.4395 11.2949 14.7014 12 14.7014V14.7373C11.2893 14.7373 10.7202 14.4734 10.5245 14.3775C10.0998 14.1816 9.77262 13.7187 9.54196 13.2339Z" fill="#3FB47C"/>
<path d="M9.255 11.7073V11.9046L9.135 11.8508L9.075 11.9404L9.135 12.0838H9.03L9 12.1914L9.33 12.6038L9.465 12.0838L9.375 12.1376L9.465 12.0121V11.8508L9.405 11.9046L9.465 11.6356L9.255 11.7073Z" fill="#3FB47C"/>
<path d="M10.7326 14.6531L10.897 14.6708L10.8414 14.8088L10.9107 14.8883L11.0356 14.8297L11.0262 14.9547L11.1131 15.0001L11.4863 14.6442L11.0652 14.4369L11.102 14.5488L11.0055 14.4304L10.871 14.416L10.9104 14.4922L10.6917 14.3967L10.7326 14.6531Z" fill="#3FB47C"/>
<path d="M14.6567 12.821L14.5792 12.995L14.7062 13.015L14.7239 13.1278L14.6145 13.2207L14.7072 13.2797L14.6913 13.3915L14.2379 13.57L14.3233 13.0352L14.3816 13.1333L14.3515 12.9719L14.415 12.8295L14.4468 12.9107L14.4996 12.6396L14.6567 12.821Z" fill="#3FB47C"/>
<path d="M14.104 13.8845L13.9751 14.0076L14.0851 14.0861L14.0639 14.1981L13.9327 14.2316L13.9982 14.3296L13.9466 14.4248L13.4711 14.3739L13.7268 13.9233L13.7478 14.041L13.7737 13.8786L13.8792 13.7779L13.8815 13.8675L14.0198 13.6436L14.104 13.8845Z" fill="#3FB47C"/>
<path fill-rule="evenodd" clip-rule="evenodd" d="M14.458 13.2339C14.6889 12.7487 14.8245 12.2384 14.8648 11.9433L14.8352 11.9375C14.7955 12.2281 14.6611 12.7344 14.432 13.2161C14.2026 13.6982 13.8799 14.1526 13.4646 14.3441L13.4643 14.3442C13.2699 14.4395 12.7051 14.7014 12 14.7014V14.7373C12.7107 14.7373 13.2798 14.4734 13.4755 14.3775C13.9002 14.1816 14.2274 13.7187 14.458 13.2339Z" fill="#3FB47C"/>
<path d="M14.745 11.7073V11.9046L14.865 11.8508L14.925 11.9404L14.865 12.0838H14.97L15 12.1914L14.67 12.6038L14.535 12.0838L14.625 12.1376L14.535 12.0121V11.8508L14.595 11.9046L14.535 11.6356L14.745 11.7073Z" fill="#3FB47C"/>
<path d="M13.2674 14.6531L13.103 14.6708L13.1586 14.8088L13.0893 14.8883L12.9644 14.8297L12.9738 14.9547L12.8869 15.0001L12.5137 14.6442L12.9348 14.4369L12.898 14.5488L12.9945 14.4304L13.129 14.416L13.0896 14.4922L13.3083 14.3967L13.2674 14.6531Z" fill="#3FB47C"/>
<path d="M11.9098 14.54H12.0596V14.8986H11.9098V14.54Z" fill="#F9F9F9"/>
<path d="M11.76 14.54H11.9098V14.8986H11.76V14.54Z" fill="#485CC2"/>
<path d="M12.0596 14.54H12.2094V14.8986H12.0596V14.54Z" fill="#D74B4B"/>
<path d="M10.635 13.3926L11.04 13.6436L11.13 13.5719H11.175L11.28 13.7512H12.03L12.51 13.9663L12.54 13.787H12.66L12.75 13.8229L13.005 13.7512V13.9663L12.855 14.0201V14.1994L12.555 14.289L12.51 14.3249L12.465 14.3428H12.03L11.445 14.2532H11.175V14.1098L11.22 14.0739L11.04 13.8588H10.785L10.74 13.7512H10.785L10.545 13.4823L10.635 13.3926Z" fill="#64BEDB"/>
<path d="M10.68 13.4105C10.68 13.4798 10.633 13.536 10.575 13.536C10.517 13.536 10.47 13.4798 10.47 13.4105C10.47 13.3412 10.517 13.285 10.575 13.285C10.633 13.285 10.68 13.3412 10.68 13.4105Z" fill="#962122"/>
<path d="M11.22 14.1994C11.22 14.2687 11.173 14.3249 11.115 14.3249C11.057 14.3249 11.01 14.2687 11.01 14.1994C11.01 14.1301 11.057 14.0739 11.115 14.0739C11.173 14.0739 11.22 14.1301 11.22 14.1994Z" fill="#962122"/>
<path d="M13.17 13.8408C13.17 13.9101 13.123 13.9663 13.065 13.9663C13.007 13.9663 12.96 13.9101 12.96 13.8408C12.96 13.7715 13.007 13.7153 13.065 13.7153C13.123 13.7153 13.17 13.7715 13.17 13.8408Z" fill="#962122"/>
<path d="M11.22 13.5181C11.22 13.5676 11.1864 13.6078 11.145 13.6078C11.1036 13.6078 11.07 13.5676 11.07 13.5181C11.07 13.4686 11.1036 13.4285 11.145 13.4285C11.1864 13.4285 11.22 13.4686 11.22 13.5181Z" fill="#E6E6E6"/>
<path d="M10.8 13.805C10.8 13.8545 10.7664 13.8946 10.725 13.8946C10.6836 13.8946 10.65 13.8545 10.65 13.805C10.65 13.7555 10.6836 13.7153 10.725 13.7153C10.7664 13.7153 10.8 13.7555 10.8 13.805Z" fill="#E6E6E6"/>
<path d="M12.96 14.1277C12.96 14.1772 12.9264 14.2173 12.885 14.2173C12.8436 14.2173 12.81 14.1772 12.81 14.1277C12.81 14.0782 12.8436 14.038 12.885 14.038C12.9264 14.038 12.96 14.0782 12.96 14.1277Z" fill="#E6E6E6"/>
<path d="M12.345 12.8547V12.7113H12.51L12.645 12.8547L12.855 12.8906L12.93 12.9802L12.825 13.1775H12.075V12.9085L12.345 12.8547Z" fill="#F8D74C"/>
<path d="M10.335 12.3348H10.125L10.05 12.3528L10.035 12.7113L10.305 12.9803H10.515L10.665 12.8727L10.56 12.5858L10.335 12.3348Z" fill="#3FB47C"/>
<path d="M10.71 12.7113L10.53 12.801L10.44 12.8548L10.74 13.2313L11.115 13.2671H11.355L11.325 13.0161L10.95 12.7113H10.71Z" fill="#3FB47C"/>
<path d="M11.505 12.8368L11.265 13.052L11.16 13.1596L11.34 13.4285L11.76 13.4644L11.985 13.4285C11.995 13.4942 12.012 13.6293 12 13.6436C11.988 13.658 12.245 13.6377 12.375 13.6257L12.585 13.5361L12.75 13.5002L12.885 13.5719L13.365 13.5899L13.56 13.4285L13.53 13.1596L13.365 12.9982L13.23 13.052L13.005 13.3209L12.87 13.3568V13.2134L12.75 13.0341L12.12 12.9982L11.985 13.1237L11.97 12.9982L11.505 12.8368Z" fill="#3FB47C"/>
<path d="M10.08 11.9941L9.84 12.1914L10.11 12.532L10.215 12.4424L10.08 11.9941Z" fill="#D74B4B"/>
<path d="M10.935 12.5499L10.98 12.8727V12.9264H11.1V12.7651L11.22 12.6396L11.1 12.4424L10.935 12.5499Z" fill="#D74B4B"/>
<path d="M13.545 13.0161L13.44 13.1237V13.2312L13.485 13.3029L13.665 13.1237L13.8 13.0878L13.59 12.8368L13.545 13.0161Z" fill="#D74B4B"/>
<path d="M11.43 13.7154C11.43 13.656 11.4703 13.6078 11.52 13.6078H12.48C12.5297 13.6078 12.57 13.656 12.57 13.7154V14.2891C12.57 14.3485 12.5297 14.3967 12.48 14.3967H11.52C11.4703 14.3967 11.43 14.3485 11.43 14.2891V13.7154Z" fill="#F8D74C"/>
<path d="M10.7849 9.8247L10.7399 9.53784L10.695 9.62749L10.7849 9.8247Z" fill="#969696"/>
<path fill-rule="evenodd" clip-rule="evenodd" d="M10.665 9.5737L10.425 9.71713C10.36 9.75896 10.26 9.88208 10.38 10.0398V10.2729L10.515 10.3984L10.695 10.3805L10.92 10.3088C10.98 10.3626 11.064 10.5024 10.92 10.6315C10.776 10.7606 10.61 10.9602 10.545 11.0439C10.475 11.1694 10.386 11.4634 10.59 11.6355C10.794 11.8076 10.945 11.7909 10.995 11.761C11.035 11.761 11.106 11.7825 11.07 11.8686C11.034 11.9546 10.835 12.0479 10.74 12.0837C10.7 12.0957 10.62 12.0873 10.62 11.9582C10.62 11.8291 10.51 11.6893 10.455 11.6355C10.41 11.6355 10.326 11.5889 10.35 11.4024C10.38 11.1694 10.365 11.008 10.275 10.9363C10.203 10.8789 10.035 10.8168 9.96002 10.7929C9.91502 10.7929 9.83402 10.8215 9.87002 10.9363C9.90602 11.051 10.075 11.0558 10.155 11.0439C10.19 11.0498 10.254 11.112 10.23 11.3128C10.2 11.5638 10.215 11.7431 10.335 11.8507C10.4018 11.9105 10.4314 11.9149 10.4446 11.9348C10.455 11.9506 10.455 11.9763 10.455 12.0479C10.455 12.2092 10.5 12.3885 10.62 12.3706C10.755 12.3706 11.1 12.3527 11.31 11.9044C11.345 11.7909 11.373 11.553 11.205 11.51C11.1256 11.4897 11.0462 11.4975 10.9757 11.5045C10.8598 11.516 10.768 11.5251 10.74 11.4024C10.704 11.2447 10.755 11.1335 10.785 11.0976L11.145 10.7211C11.215 10.6494 11.307 10.4594 11.115 10.2729C10.923 10.0865 10.745 10.0996 10.68 10.1295C10.625 10.1355 10.533 10.1295 10.605 10.0578C10.677 9.98606 10.755 9.93228 10.785 9.91435L10.575 9.9502L10.68 9.68127L10.74 9.53784L10.665 9.5737ZM10.5162 9.80108C10.5392 9.77965 10.5511 9.75218 10.5429 9.73971C10.5348 9.72724 10.5096 9.7345 10.4867 9.75592C10.4638 9.77734 10.4518 9.80482 10.46 9.81729C10.4682 9.82976 10.4933 9.8225 10.5162 9.80108Z" fill="#3FB47C"/>
<path d="M10.755 10.1475L10.875 9.98618L10.89 9.95032L11.07 10.022L11.145 9.98618C11.22 9.99215 11.373 10.0041 11.385 10.0041C11.397 10.0041 11.45 10.0519 11.475 10.0758L11.46 10.0937L11.205 10.3985L11.145 10.3089L11.25 10.1655L11.145 10.1475C11.125 10.1595 11.082 10.1834 11.07 10.1834C11.058 10.1834 10.935 10.3029 10.875 10.3627L10.92 10.5599C10.885 10.5479 10.803 10.5133 10.755 10.4703C10.647 10.3555 10.71 10.2073 10.755 10.1475Z" fill="#F8D74C"/>
<path fill-rule="evenodd" clip-rule="evenodd" d="M10.875 9.98609L10.905 9.86058L11.055 9.69922L11.07 9.50201L11.205 9.62751V9.39443L11.295 9.50201L11.34 9.26893L11.385 9.46615L11.475 9.34065L11.595 9.46615L11.715 9.57372H11.91L12.06 9.8068L12.12 9.73508L11.985 9.50201L11.685 9.39443V9.19722L12.12 9C12.335 9.01793 12.855 9.12192 13.215 9.39443C13.575 9.66695 13.915 10.4044 14.04 10.7391C14.115 11.0319 14.214 11.8184 14.01 12.6216H13.92V11.4742L13.755 11.1694V12.4603L13.62 12.3348L13.56 11.4742L13.47 11.3845L13.5 12.012L12.675 11.2411H12.6L12.72 11.6714V11.761L13.8 12.6933C13.71 12.7411 13.407 12.8368 12.915 12.8368L12.675 12.6216L12.645 12.7651L12.255 12.8009L11.94 12.281V12.514H11.475L11.715 12.281L11.475 12.1196L11.415 11.4742C11.315 11.3965 11.142 11.1407 11.25 10.7391C11.325 10.6196 11.475 10.3554 11.475 10.255C11.475 10.2355 11.4754 10.2177 11.4757 10.2015C11.4775 10.1136 11.4783 10.0729 11.415 10.0578C11.355 10.0435 11.15 10.0518 11.055 10.0578L10.875 9.98609ZM11.1308 9.90551C11.1622 9.87982 11.1801 9.84574 11.1707 9.8294C11.1613 9.81306 11.1283 9.82064 11.0969 9.84634C11.0655 9.87203 11.0476 9.9061 11.057 9.92245C11.0663 9.93879 11.0994 9.93121 11.1308 9.90551Z" fill="#E77D42"/>
<path d="M10.725 12.0659L10.905 11.8507H11.085L11.01 11.9941L11.13 12.1734C11.1691 12.1267 11.255 12.0171 11.2925 11.9452L11.4 11.9941L11.34 12.1555L11.595 12.0659L11.79 12.2989L11.7 12.4782H11.55L11.22 12.2989L11.085 12.3348L11.025 12.2451L10.785 12.3348L10.725 12.2989V12.0659Z" fill="#F8D74C"/>
</g>
<defs>
<clipPath id="clip0_440_1173">
<rect width="24" height="24" rx="2" fill="white"/>
</clipPath>
</defs>
</svg>
