<svg width="32" height="24" viewBox="0 0 32 24" fill="none" xmlns="http://www.w3.org/2000/svg">
<g clip-path="url(#clip0_440_1175)">
<rect width="32" height="24" rx="2" fill="#F9F9F9"/>
<rect width="10.6667" height="24" fill="#3FB47C"/>
<rect x="21.3333" width="10.6667" height="24" fill="#D74B4B"/>
<path d="M13.32 13.8328C13.32 13.9517 13.2663 14.048 13.2 14.048C13.1969 14.048 13.1939 14.0478 13.1909 14.0474L13.1127 14.2902L12.9671 14.2585C12.9445 14.312 12.8759 14.342 12.8008 14.3273C12.7146 14.3104 12.6524 14.241 12.6618 14.1723C12.6712 14.1037 12.7487 14.0617 12.8349 14.0786C12.9119 14.0937 12.9697 14.1506 12.9745 14.2116L13.0873 14.2361L13.1532 14.0311C13.1102 13.9984 13.08 13.9219 13.08 13.8328C13.08 13.714 13.1337 13.6177 13.2 13.6177C13.2663 13.6177 13.32 13.714 13.32 13.8328Z" fill="#F8D74C"/>
<path d="M14.2125 14.8208C14.2505 14.9044 14.2436 14.9967 14.1969 15.027C14.1948 15.0284 14.1926 15.0297 14.1903 15.0308L14.2131 15.2373L14.1005 15.2817C14.1018 15.3296 14.0632 15.3821 14.0056 15.4061C13.9396 15.4336 13.8736 15.4133 13.8582 15.3607C13.8429 15.308 13.8839 15.2431 13.95 15.2155C14.0089 15.1909 14.0679 15.2045 14.0907 15.2452L14.1779 15.2109L14.1586 15.0365C14.1179 15.0332 14.0722 14.9933 14.0437 14.9306C14.0056 14.847 14.0126 14.7547 14.0592 14.7244C14.1058 14.6941 14.1744 14.7373 14.2125 14.8208Z" fill="#F8D74C"/>
<path d="M12.7303 12.7525C12.701 12.8332 12.6408 12.8797 12.5958 12.8564C12.5937 12.8554 12.5917 12.8541 12.5897 12.8528L12.4769 12.9902L12.3858 12.9175C12.3573 12.9459 12.3034 12.9422 12.2559 12.9057C12.2016 12.8639 12.1764 12.7949 12.1997 12.7516C12.223 12.7083 12.286 12.707 12.3403 12.7488C12.3889 12.7862 12.4142 12.8452 12.4024 12.8882L12.473 12.9445L12.5682 12.8285C12.547 12.7912 12.5453 12.7286 12.5673 12.6681C12.5965 12.5875 12.6567 12.5409 12.7017 12.5642C12.7467 12.5875 12.7595 12.6719 12.7303 12.7525Z" fill="#F8D74C"/>
<path d="M18.68 13.8328C18.68 13.9517 18.7337 14.048 18.8 14.048C18.8031 14.048 18.8061 14.0478 18.8091 14.0474L18.8873 14.2902L19.0329 14.2585C19.0555 14.312 19.1241 14.342 19.1992 14.3273C19.2854 14.3104 19.3476 14.241 19.3382 14.1723C19.3288 14.1037 19.2513 14.0617 19.1651 14.0786C19.0881 14.0937 19.0303 14.1506 19.0255 14.2116L18.9127 14.2361L18.8468 14.0311C18.8898 13.9984 18.92 13.9219 18.92 13.8328C18.92 13.714 18.8663 13.6177 18.8 13.6177C18.7337 13.6177 18.68 13.714 18.68 13.8328Z" fill="#F8D74C"/>
<path d="M17.7875 14.8208C17.7495 14.9044 17.7564 14.9967 17.8031 15.027C17.8052 15.0284 17.8074 15.0297 17.8097 15.0308L17.7869 15.2373L17.8995 15.2817C17.8982 15.3296 17.9368 15.3821 17.9944 15.4061C18.0604 15.4336 18.1264 15.4133 18.1418 15.3607C18.1571 15.308 18.1161 15.2431 18.05 15.2155C17.9911 15.1909 17.9321 15.2045 17.9093 15.2452L17.8221 15.2109L17.8414 15.0365C17.8821 15.0332 17.9278 14.9933 17.9563 14.9306C17.9944 14.847 17.9874 14.7547 17.9408 14.7244C17.8942 14.6941 17.8256 14.7373 17.7875 14.8208Z" fill="#F8D74C"/>
<path d="M19.2697 12.7525C19.299 12.8332 19.3592 12.8797 19.4042 12.8564C19.4063 12.8554 19.4083 12.8541 19.4103 12.8528L19.5231 12.9902L19.6142 12.9175C19.6427 12.9459 19.6966 12.9422 19.7441 12.9057C19.7984 12.8639 19.8236 12.7949 19.8003 12.7516C19.777 12.7083 19.714 12.707 19.6597 12.7488C19.6111 12.7862 19.5858 12.8452 19.5976 12.8882L19.527 12.9445L19.4318 12.8285C19.453 12.7912 19.4547 12.7286 19.4327 12.6681C19.4035 12.5875 19.3433 12.5409 19.2983 12.5642C19.2533 12.5875 19.2405 12.6719 19.2697 12.7525Z" fill="#F8D74C"/>
<path d="M12.4577 13.0945L12.5611 13.3266L12.3917 13.3532L12.3681 13.5036L12.514 13.6275L12.3904 13.7061L12.4115 13.8552L13.0162 14.0931L12.9023 13.3802L12.8246 13.5109L12.8647 13.2958L12.78 13.1059L12.7376 13.2141L12.6672 12.8527L12.4577 13.0945Z" fill="#3FB47C"/>
<path d="M13.1947 14.5126L13.3666 14.6767L13.2199 14.7814L13.2481 14.9307L13.423 14.9753L13.3357 15.106L13.4045 15.2329L14.0385 15.165L13.6976 14.5643L13.6696 14.7212L13.6351 14.5047L13.4944 14.3704L13.4914 14.4899L13.3069 14.1914L13.1947 14.5126Z" fill="#3FB47C"/>
<path fill-rule="evenodd" clip-rule="evenodd" d="M12.7226 13.645C12.4149 12.9981 12.234 12.3177 12.1803 11.9243L12.2197 11.9166C12.2727 12.304 12.4518 12.9791 12.7574 13.6214C13.0631 14.2641 13.4935 14.8701 14.0472 15.1253L14.0476 15.1255C14.3068 15.2526 15.0599 15.6018 16 15.6018V15.6496C15.0523 15.6496 14.2936 15.2978 14.0326 15.1698C13.4664 14.9087 13.0302 14.2915 12.7226 13.645Z" fill="#3FB47C"/>
<path d="M12.34 11.6097V11.8726L12.18 11.8009L12.1 11.9204L12.18 12.1117H12.04L12 12.2551L12.44 12.8049L12.62 12.1117L12.5 12.1834L12.62 12.016V11.8009L12.54 11.8726L12.62 11.514L12.34 11.6097Z" fill="#3FB47C"/>
<path d="M14.3102 15.5373L14.5293 15.5609L14.4552 15.745L14.5476 15.8509L14.7141 15.7728L14.7016 15.9395L14.8175 16L15.3151 15.5255L14.7536 15.2491L14.8026 15.3983L14.6739 15.2405L14.4947 15.2212L14.5472 15.3228L14.2556 15.1954L14.3102 15.5373Z" fill="#3FB47C"/>
<path d="M19.5423 13.0945L19.4389 13.3266L19.6083 13.3532L19.6319 13.5036L19.486 13.6275L19.6096 13.7061L19.5885 13.8552L18.9838 14.0931L19.0977 13.3802L19.1754 13.5109L19.1353 13.2958L19.22 13.1059L19.2624 13.2141L19.3328 12.8527L19.5423 13.0945Z" fill="#3FB47C"/>
<path d="M18.8053 14.5126L18.6334 14.6767L18.7801 14.7814L18.7519 14.9307L18.577 14.9753L18.6643 15.106L18.5955 15.2329L17.9615 15.165L18.3024 14.5643L18.3304 14.7212L18.3649 14.5047L18.5056 14.3704L18.5086 14.4899L18.6931 14.1914L18.8053 14.5126Z" fill="#3FB47C"/>
<path fill-rule="evenodd" clip-rule="evenodd" d="M19.2774 13.645C19.5851 12.9981 19.766 12.3177 19.8197 11.9243L19.7803 11.9166C19.7273 12.304 19.5482 12.9791 19.2426 13.6214C18.9369 14.2641 18.5065 14.8701 17.9528 15.1253L17.9524 15.1255C17.6932 15.2526 16.9401 15.6018 16 15.6018V15.6496C16.9477 15.6496 17.7064 15.2978 17.9674 15.1698C18.5336 14.9087 18.9698 14.2915 19.2774 13.645Z" fill="#3FB47C"/>
<path d="M19.66 11.6097V11.8726L19.82 11.8009L19.9 11.9204L19.82 12.1117H19.96L20 12.2551L19.56 12.8049L19.38 12.1117L19.5 12.1834L19.38 12.016V11.8009L19.46 11.8726L19.38 11.514L19.66 11.6097Z" fill="#3FB47C"/>
<path d="M17.6898 15.5373L17.4707 15.5609L17.5448 15.745L17.4524 15.8509L17.2859 15.7728L17.2984 15.9395L17.1825 16L16.6849 15.5255L17.2464 15.2491L17.1974 15.3983L17.3261 15.2405L17.5053 15.2212L17.4528 15.3228L17.7444 15.1954L17.6898 15.5373Z" fill="#3FB47C"/>
<path d="M15.8797 15.3867H16.0794V15.8648H15.8797V15.3867Z" fill="#F9F9F9"/>
<path d="M15.68 15.3867H15.8797V15.8648H15.68V15.3867Z" fill="#485CC2"/>
<path d="M16.0794 15.3867H16.2791V15.8648H16.0794V15.3867Z" fill="#D74B4B"/>
<path d="M14.18 13.8567L14.72 14.1914L14.84 14.0957H14.9L15.04 14.3348H16.04L16.68 14.6217L16.72 14.3826H16.88L17 14.4304L17.34 14.3348V14.6217L17.14 14.6934V14.9324L16.74 15.0519L16.68 15.0998L16.62 15.1237H16.04L15.26 15.0041H14.9V14.8129L14.96 14.7651L14.72 14.4782H14.38L14.32 14.3348H14.38L14.06 13.9762L14.18 13.8567Z" fill="#64BEDB"/>
<path d="M14.24 13.8806C14.24 13.973 14.1773 14.0479 14.1 14.0479C14.0227 14.0479 13.96 13.973 13.96 13.8806C13.96 13.7882 14.0227 13.7133 14.1 13.7133C14.1773 13.7133 14.24 13.7882 14.24 13.8806Z" fill="#962122"/>
<path d="M14.96 14.9324C14.96 15.0248 14.8973 15.0998 14.82 15.0998C14.7427 15.0998 14.68 15.0248 14.68 14.9324C14.68 14.84 14.7427 14.7651 14.82 14.7651C14.8973 14.7651 14.96 14.84 14.96 14.9324Z" fill="#962122"/>
<path d="M17.56 14.4543C17.56 14.5467 17.4973 14.6217 17.42 14.6217C17.3427 14.6217 17.28 14.5467 17.28 14.4543C17.28 14.3619 17.3427 14.287 17.42 14.287C17.4973 14.287 17.56 14.3619 17.56 14.4543Z" fill="#962122"/>
<path d="M14.96 14.024C14.96 14.09 14.9152 14.1435 14.86 14.1435C14.8048 14.1435 14.76 14.09 14.76 14.024C14.76 13.958 14.8048 13.9045 14.86 13.9045C14.9152 13.9045 14.96 13.958 14.96 14.024Z" fill="#E6E6E6"/>
<path d="M14.4 14.4065C14.4 14.4725 14.3552 14.526 14.3 14.526C14.2448 14.526 14.2 14.4725 14.2 14.4065C14.2 14.3405 14.2448 14.287 14.3 14.287C14.3552 14.287 14.4 14.3405 14.4 14.4065Z" fill="#E6E6E6"/>
<path d="M17.28 14.8368C17.28 14.9028 17.2352 14.9563 17.18 14.9563C17.1248 14.9563 17.08 14.9028 17.08 14.8368C17.08 14.7708 17.1248 14.7173 17.18 14.7173C17.2352 14.7173 17.28 14.7708 17.28 14.8368Z" fill="#E6E6E6"/>
<path d="M16.46 13.1396V12.9484H16.68L16.86 13.1396L17.14 13.1874L17.24 13.3069L17.1 13.5699H16.1V13.2113L16.46 13.1396Z" fill="#F8D74C"/>
<path d="M13.78 12.4464H13.5L13.4 12.4703L13.38 12.9484L13.74 13.307H14.02L14.22 13.1636L14.08 12.7811L13.78 12.4464Z" fill="#3FB47C"/>
<path d="M14.28 12.9484L14.04 13.0679L13.92 13.1397L14.32 13.6417L14.82 13.6895H15.14L15.1 13.3548L14.6 12.9484H14.28Z" fill="#3FB47C"/>
<path d="M15.34 13.1158L15.02 13.4026L14.88 13.546L15.12 13.9046L15.68 13.9524L15.98 13.9046C15.9933 13.9923 16.016 14.1724 16 14.1915C15.984 14.2106 16.3267 14.1835 16.5 14.1676L16.78 14.0481L17 14.0002L17.18 14.0959L17.82 14.1198L18.08 13.9046L18.04 13.546L17.82 13.3309L17.64 13.4026L17.34 13.7612L17.16 13.809V13.6178L17 13.3787L16.16 13.3309L15.98 13.4982L15.96 13.3309L15.34 13.1158Z" fill="#3FB47C"/>
<path d="M13.44 11.9922L13.12 12.2551L13.48 12.7093L13.62 12.5898L13.44 11.9922Z" fill="#D74B4B"/>
<path d="M14.58 12.7332L14.64 13.1635V13.2353H14.8V13.0201L14.96 12.8528L14.8 12.5898L14.58 12.7332Z" fill="#D74B4B"/>
<path d="M18.06 13.3548L17.92 13.4982V13.6416L17.98 13.7373L18.22 13.4982L18.4 13.4504L18.12 13.1157L18.06 13.3548Z" fill="#D74B4B"/>
<path d="M15.24 14.2871C15.24 14.2079 15.2937 14.1437 15.36 14.1437H16.64C16.7063 14.1437 16.76 14.2079 16.76 14.2871V15.0521C16.76 15.1313 16.7063 15.1955 16.64 15.1955H15.36C15.2937 15.1955 15.24 15.1313 15.24 15.0521V14.2871Z" fill="#F8D74C"/>
<path d="M14.3798 9.09952L14.3199 8.71704L14.26 8.83657L14.3798 9.09952Z" fill="#969696"/>
<path fill-rule="evenodd" clip-rule="evenodd" d="M14.22 8.76485L13.9 8.95609C13.8133 9.01187 13.68 9.17602 13.84 9.38638V9.69715L14.02 9.86449L14.26 9.84058L14.56 9.74496C14.64 9.81668 14.752 10.0031 14.56 10.1753C14.368 10.3474 14.1467 10.6135 14.06 10.7251C13.9667 10.8924 13.848 11.2844 14.12 11.5139C14.392 11.7434 14.5933 11.7211 14.66 11.6813C14.7133 11.6813 14.808 11.71 14.76 11.8247C14.712 11.9394 14.4467 12.0638 14.32 12.1116C14.2667 12.1275 14.16 12.1163 14.16 11.9442C14.16 11.7721 14.0133 11.5857 13.94 11.5139C13.88 11.5139 13.768 11.4518 13.8 11.2032C13.84 10.8924 13.82 10.6773 13.7 10.5816C13.604 10.5051 13.38 10.4223 13.28 10.3904C13.22 10.3904 13.112 10.4286 13.16 10.5816C13.208 10.7346 13.4333 10.741 13.54 10.7251C13.5867 10.733 13.672 10.8159 13.64 11.0836C13.6 11.4183 13.62 11.6574 13.78 11.8008C13.869 11.8806 13.9085 11.8864 13.926 11.9129C13.94 11.9341 13.94 11.9683 13.94 12.0638C13.94 12.2789 14 12.518 14.16 12.494C14.34 12.494 14.8 12.4701 15.08 11.8725C15.1267 11.7211 15.164 11.404 14.94 11.3466C14.8341 11.3195 14.7282 11.33 14.6343 11.3393C14.4797 11.3546 14.3573 11.3667 14.32 11.2032C14.272 10.9928 14.34 10.8446 14.38 10.7968L14.86 10.2948C14.9533 10.1992 15.076 9.94576 14.82 9.69715C14.564 9.44854 14.3267 9.46607 14.24 9.50591C14.1667 9.51388 14.044 9.50591 14.14 9.41029C14.236 9.31467 14.34 9.24295 14.38 9.21905L14.1 9.26686L14.24 8.90828L14.32 8.71704L14.22 8.76485ZM14.0216 9.06802C14.0522 9.03946 14.0681 9.00282 14.0572 8.9862C14.0463 8.96957 14.0128 8.97925 13.9822 9.00781C13.9517 9.03638 13.9357 9.07301 13.9466 9.08964C13.9575 9.10627 13.9911 9.09659 14.0216 9.06802Z" fill="#3FB47C"/>
<path d="M14.34 9.52992L14.5 9.31478L14.52 9.26697L14.76 9.36259L14.86 9.31478C14.96 9.32275 15.164 9.33868 15.18 9.33868C15.196 9.33868 15.2667 9.40243 15.3 9.4343L15.28 9.45821L14.94 9.8646L14.86 9.74507L15 9.55383L14.86 9.52992C14.8333 9.54586 14.776 9.57773 14.76 9.57773C14.744 9.57773 14.58 9.7371 14.5 9.81678L14.56 10.0797C14.5133 10.0638 14.404 10.0176 14.34 9.96022C14.196 9.80722 14.28 9.60961 14.34 9.52992Z" fill="#F8D74C"/>
<path fill-rule="evenodd" clip-rule="evenodd" d="M14.5 9.31478L14.54 9.14744L14.74 8.9323L14.76 8.66934L14.94 8.83668V8.52591L15.06 8.66934L15.12 8.35858L15.18 8.62153L15.3 8.4542L15.46 8.62153L15.62 8.76496H15.88L16.08 9.07573L16.16 8.98011L15.98 8.66934L15.58 8.52591V8.26296L16.16 8C16.4467 8.02391 17.14 8.16255 17.62 8.52591C18.1 8.88927 18.5533 9.87257 18.72 10.3188C18.82 10.7092 18.952 11.7579 18.68 12.8288H18.56V11.2989L18.34 10.8925V12.6137L18.16 12.4463L18.08 11.2989L17.96 11.1794L18 12.0161L16.9 10.9881H16.8L16.96 11.5619V11.6814L18.4 12.9244C18.28 12.9882 17.876 13.1157 17.22 13.1157L16.9 12.8288L16.86 13.0201L16.34 13.0679L15.92 12.3746V12.6854H15.3L15.62 12.3746L15.3 12.1595L15.22 11.2989C15.0867 11.1953 14.856 10.8543 15 10.3188C15.1 10.1594 15.3 9.80723 15.3 9.67336C15.3 9.6473 15.3005 9.62356 15.3009 9.60196C15.3033 9.48484 15.3044 9.43058 15.22 9.4104C15.14 9.39128 14.8667 9.40243 14.74 9.4104L14.5 9.31478ZM14.841 9.20735C14.8829 9.17309 14.9067 9.12766 14.8943 9.10587C14.8818 9.08408 14.8377 9.09419 14.7959 9.12845C14.754 9.1627 14.7302 9.20814 14.7426 9.22993C14.7551 9.25172 14.7992 9.24161 14.841 9.20735Z" fill="#E77D42"/>
<path d="M14.3 12.0878L14.54 11.8009H14.78L14.68 11.9921L14.84 12.2312C14.8921 12.1689 15.0067 12.0227 15.0567 11.9269L15.2 11.9921L15.12 12.2073L15.46 12.0878L15.72 12.3985L15.6 12.6376H15.4L14.96 12.3985L14.78 12.4463L14.7 12.3268L14.38 12.4463L14.3 12.3985V12.0878Z" fill="#F8D74C"/>
</g>
<defs>
<clipPath id="clip0_440_1175">
<rect width="32" height="24" rx="2" fill="white"/>
</clipPath>
</defs>
</svg>
