<svg width="24" height="24" viewBox="0 0 24 24" fill="none" xmlns="http://www.w3.org/2000/svg">
<g clip-path="url(#clip0_440_1147)">
<rect width="24" height="24" rx="2" fill="#F9F9F9"/>
<path d="M0 16H24V24H0V16Z" fill="#485CC2"/>
<path d="M0 0H24V8H0V0Z" fill="#485CC2"/>
<path d="M12.098 9L9.05139 14H15.0514L12.098 9Z" fill="#64BEDB"/>
<path d="M14.3053 12.681H9.85968L12.098 9L14.3053 12.681Z" fill="#E6E6E6"/>
<mask id="mask0_440_1147" style="mask-type:alpha" maskUnits="userSpaceOnUse" x="9" y="9" width="6" height="4">
<path d="M14.3053 12.681H9.85968L12.098 9L14.3053 12.681Z" fill="#F9F9F9"/>
</mask>
<g mask="url(#mask0_440_1147)">
<path d="M12.0669 10.9631L11.9426 8.8772H12.2534L12.0669 10.9631Z" fill="#64BEDB"/>
<path d="M12.0669 12.2821L11.9426 14.368H12.2534L12.0669 12.2821Z" fill="#64BEDB"/>
<path d="M12.7664 11.5919L14.8804 11.4692V11.776L12.7664 11.5919Z" fill="#64BEDB"/>
<path d="M11.4296 11.5919L9.31561 11.4692L9.31561 11.776L11.4296 11.5919Z" fill="#64BEDB"/>
<path d="M12.5486 11.1346L13.9555 9.57286L14.1754 9.78976L12.5486 11.1346Z" fill="#64BEDB"/>
<path d="M11.6034 12.0673L10.0206 13.4554L10.2405 13.6723L11.6034 12.0673Z" fill="#64BEDB"/>
<path d="M12.5926 12.0673L14.1754 13.4554L13.9555 13.6723L12.5926 12.0673Z" fill="#64BEDB"/>
<path d="M11.6474 11.1346L10.2405 9.57286L10.0206 9.78976L11.6474 11.1346Z" fill="#64BEDB"/>
<path d="M12.707 11.349L14.6234 10.46L14.7389 10.7448L12.707 11.349Z" fill="#64BEDB"/>
<path d="M11.4659 11.8392L9.45711 12.5004L9.57263 12.7852L11.4659 11.8392Z" fill="#64BEDB"/>
<path d="M12.3752 12.2235L13.2763 14.1144L12.9877 14.2284L12.3752 12.2235Z" fill="#64BEDB"/>
<path d="M11.8785 10.9989L11.2084 9.0168L10.9197 9.13079L11.8785 10.9989Z" fill="#64BEDB"/>
<path d="M12.7231 11.8581L14.7106 12.5793L14.5863 12.8605L12.7231 11.8581Z" fill="#64BEDB"/>
<path d="M11.4978 11.3309L9.60968 10.3847L9.48542 10.6658L11.4978 11.3309Z" fill="#64BEDB"/>
<path d="M11.8593 12.2394L11.1284 14.2005L10.8434 14.0779L11.8593 12.2394Z" fill="#64BEDB"/>
<path d="M12.3937 11.0303L13.3526 9.16735L13.0676 9.04474L12.3937 11.0303Z" fill="#64BEDB"/>
<path d="M12.0358 11.2086L11.9115 11.27V11.3313H12.098V11.4233H11.8493V11.7608H11.9426L12.0047 11.9755H12.1602V11.7608H12.3156V11.3006H12.2534V11.2086H12.0358Z" fill="#D74B4B"/>
</g>
<path d="M9.64201 13.1717C9.57984 13.1717 9.54875 13.3251 9.48657 13.3558V13.4478L14.585 13.4171L11.1032 12.957L10.7612 12.3435H10.5747L10.1394 12.957C9.99434 13.0286 9.69175 13.1717 9.64201 13.1717Z" fill="#3FB47C"/>
<path d="M10.7327 13.2375C10.6819 13.2375 10.6565 13.3689 10.6057 13.3952V13.4478L12.4089 13.3952L11.9263 13.0534L11.647 12.5276H11.4946L11.1391 13.0534C11.0205 13.1148 10.7734 13.2375 10.7327 13.2375Z" fill="#3FB47C"/>
<path d="M12.9089 13.2375C12.8581 13.2375 12.8327 13.3689 12.7819 13.3952V13.4171H14.585L14.1025 13.0534L13.8231 12.5276H13.6708L13.3152 13.0534C13.1967 13.1148 12.9495 13.2375 12.9089 13.2375Z" fill="#3FB47C"/>
<path d="M12.3318 13.2042C12.288 13.2042 12.2661 13.3181 12.2223 13.3409V13.3865L13.7767 13.3409L13.3608 13.0447L13.1199 12.5889H12.9886L12.6821 13.0447C12.5799 13.0978 12.3668 13.2042 12.3318 13.2042Z" fill="#3FB47C"/>
<path d="M11.6032 13.12C11.5524 13.12 11.527 13.2866 11.4762 13.3199V13.3865L14.585 13.4171L12.7968 12.8869L12.5174 12.2208H12.3651L12.0095 12.8869C11.891 12.9646 11.6438 13.12 11.6032 13.12Z" fill="#3FB47C"/>
<path fill-rule="evenodd" clip-rule="evenodd" d="M12 15.6712C14.0276 15.6712 15.6712 14.0276 15.6712 12C15.6712 9.97243 14.0276 8.32877 12 8.32877C9.97243 8.32877 8.32877 9.97243 8.32877 12C8.32877 14.0276 9.97243 15.6712 12 15.6712ZM12 16C14.2091 16 16 14.2091 16 12C16 9.79086 14.2091 8 12 8C9.79086 8 8 9.79086 8 12C8 14.2091 9.79086 16 12 16Z" fill="#F8D74C"/>
</g>
<defs>
<clipPath id="clip0_440_1147">
<rect width="24" height="24" rx="2" fill="white"/>
</clipPath>
</defs>
</svg>
