<svg width="32" height="24" viewBox="0 0 32 24" fill="none" xmlns="http://www.w3.org/2000/svg">
<g clip-path="url(#clip0_440_1170)">
<rect width="32" height="24" rx="2" fill="#F9F9F9"/>
<path d="M0 16H32V24H0V16Z" fill="#485CC2"/>
<path d="M0 0H32V8H0V0Z" fill="#485CC2"/>
<path d="M16.098 9L13.0514 14H19.0514L16.098 9Z" fill="#64BEDB"/>
<path d="M18.3053 12.681H13.8597L16.098 9L18.3053 12.681Z" fill="#E6E6E6"/>
<mask id="mask0_440_1170" style="mask-type:alpha" maskUnits="userSpaceOnUse" x="13" y="9" width="6" height="4">
<path d="M18.3053 12.681H13.8597L16.098 9L18.3053 12.681Z" fill="#F9F9F9"/>
</mask>
<g mask="url(#mask0_440_1170)">
<path d="M16.0669 10.9631L15.9426 8.8772H16.2534L16.0669 10.9631Z" fill="#64BEDB"/>
<path d="M16.0669 12.2821L15.9426 14.368H16.2534L16.0669 12.2821Z" fill="#64BEDB"/>
<path d="M16.7664 11.5919L18.8804 11.4692V11.776L16.7664 11.5919Z" fill="#64BEDB"/>
<path d="M15.4296 11.5919L13.3156 11.4692L13.3156 11.776L15.4296 11.5919Z" fill="#64BEDB"/>
<path d="M16.5486 11.1346L17.9555 9.57286L18.1754 9.78976L16.5486 11.1346Z" fill="#64BEDB"/>
<path d="M15.6034 12.0673L14.0206 13.4554L14.2405 13.6723L15.6034 12.0673Z" fill="#64BEDB"/>
<path d="M16.5926 12.0673L18.1754 13.4554L17.9555 13.6723L16.5926 12.0673Z" fill="#64BEDB"/>
<path d="M15.6474 11.1346L14.2405 9.57286L14.0206 9.78976L15.6474 11.1346Z" fill="#64BEDB"/>
<path d="M16.707 11.349L18.6234 10.46L18.7389 10.7448L16.707 11.349Z" fill="#64BEDB"/>
<path d="M15.4659 11.8392L13.4571 12.5004L13.5726 12.7852L15.4659 11.8392Z" fill="#64BEDB"/>
<path d="M16.3752 12.2235L17.2763 14.1144L16.9877 14.2284L16.3752 12.2235Z" fill="#64BEDB"/>
<path d="M15.8785 10.9989L15.2084 9.0168L14.9197 9.13079L15.8785 10.9989Z" fill="#64BEDB"/>
<path d="M16.7231 11.8581L18.7106 12.5793L18.5863 12.8605L16.7231 11.8581Z" fill="#64BEDB"/>
<path d="M15.4978 11.3309L13.6097 10.3847L13.4854 10.6658L15.4978 11.3309Z" fill="#64BEDB"/>
<path d="M15.8593 12.2394L15.1284 14.2005L14.8434 14.0779L15.8593 12.2394Z" fill="#64BEDB"/>
<path d="M16.3937 11.0303L17.3526 9.16735L17.0676 9.04474L16.3937 11.0303Z" fill="#64BEDB"/>
<path d="M16.0358 11.2086L15.9115 11.27V11.3313H16.098V11.4233H15.8493V11.7608H15.9426L16.0047 11.9755H16.1602V11.7608H16.3156V11.3006H16.2534V11.2086H16.0358Z" fill="#D74B4B"/>
</g>
<path d="M13.642 13.1717C13.5798 13.1717 13.5487 13.3251 13.4866 13.3558V13.4478L18.585 13.4171L15.1032 12.957L14.7612 12.3435H14.5747L14.1394 12.957C13.9943 13.0286 13.6918 13.1717 13.642 13.1717Z" fill="#3FB47C"/>
<path d="M14.7327 13.2375C14.6819 13.2375 14.6565 13.3689 14.6057 13.3952V13.4478L16.4089 13.3952L15.9263 13.0534L15.647 12.5276H15.4946L15.1391 13.0534C15.0205 13.1148 14.7734 13.2375 14.7327 13.2375Z" fill="#3FB47C"/>
<path d="M16.9089 13.2375C16.8581 13.2375 16.8327 13.3689 16.7819 13.3952V13.4171H18.585L18.1025 13.0534L17.8231 12.5276H17.6708L17.3152 13.0534C17.1967 13.1148 16.9495 13.2375 16.9089 13.2375Z" fill="#3FB47C"/>
<path d="M16.3318 13.2042C16.288 13.2042 16.2661 13.3181 16.2223 13.3409V13.3865L17.7767 13.3409L17.3608 13.0447L17.1199 12.5889H16.9886L16.6821 13.0447C16.5799 13.0978 16.3668 13.2042 16.3318 13.2042Z" fill="#3FB47C"/>
<path d="M15.6032 13.12C15.5524 13.12 15.527 13.2866 15.4762 13.3199V13.3865L18.585 13.4171L16.7968 12.8869L16.5174 12.2208H16.3651L16.0095 12.8869C15.891 12.9646 15.6438 13.12 15.6032 13.12Z" fill="#3FB47C"/>
<path fill-rule="evenodd" clip-rule="evenodd" d="M16 15.6712C18.0276 15.6712 19.6712 14.0276 19.6712 12C19.6712 9.97243 18.0276 8.32877 16 8.32877C13.9724 8.32877 12.3288 9.97243 12.3288 12C12.3288 14.0276 13.9724 15.6712 16 15.6712ZM16 16C18.2091 16 20 14.2091 20 12C20 9.79086 18.2091 8 16 8C13.7909 8 12 9.79086 12 12C12 14.2091 13.7909 16 16 16Z" fill="#F8D74C"/>
</g>
<defs>
<clipPath id="clip0_440_1170">
<rect width="32" height="24" rx="2" fill="white"/>
</clipPath>
</defs>
</svg>
