<svg width="24" height="24" viewBox="0 0 24 24" fill="none" xmlns="http://www.w3.org/2000/svg">
<g clip-path="url(#clip0_440_1143)">
<rect width="24" height="24" rx="12" fill="#F9F9F9"/>
<path d="M0 16H24V24H0V16Z" fill="#485CC2"/>
<path d="M0 0H24V8H0V0Z" fill="#D74B4B"/>
<path d="M10.4721 12.7079C10.3708 12.4887 10.3177 12.2548 10.3032 12.0015C10.2935 12.0064 10.2501 12.0161 10.2066 11.9576C10.1487 11.8699 10.1053 11.5874 10.1053 11.5874C10.1053 11.5874 10.1777 11.6556 10.2308 11.7335C10.279 11.8017 10.2983 11.9284 10.3032 11.9771C10.3032 11.9528 10.3032 11.9235 10.3032 11.8992C10.3032 11.7871 10.3128 11.6751 10.3273 11.563C10.3128 11.5581 10.279 11.5484 10.2549 11.4899C10.2163 11.3925 10.2404 11.105 10.2404 11.105C10.2404 11.105 10.2935 11.1879 10.3273 11.2804C10.3466 11.3291 10.3466 11.3925 10.3466 11.4461C10.3708 11.3438 10.3997 11.2414 10.4335 11.144C10.419 11.1391 10.3852 11.1196 10.3708 11.0563C10.3514 10.954 10.4239 10.6763 10.4239 10.6763C10.4239 10.6763 10.4625 10.7689 10.477 10.8712C10.4866 10.9394 10.4721 11.0222 10.4576 11.0807C10.5059 10.9686 10.559 10.8614 10.6266 10.7591C10.6169 10.7542 10.5783 10.7299 10.5783 10.6568C10.5783 10.5496 10.7038 10.2963 10.7038 10.2963C10.7038 10.2963 10.7231 10.3986 10.7183 10.496C10.7183 10.5788 10.6652 10.686 10.6411 10.7299C10.6845 10.6665 10.728 10.6032 10.7811 10.5447C10.7907 10.5058 10.8293 10.4181 10.9355 10.345C11.061 10.2622 11.2638 10.1842 11.2638 10.1842C11.2638 10.1842 11.0417 10.3986 10.9307 10.4814C10.8631 10.535 10.8052 10.5545 10.7859 10.5594C10.6507 10.7153 10.5445 10.8955 10.4673 11.0855C10.4963 11.0368 10.5445 10.9735 10.5976 10.954C10.6797 10.9248 10.7666 10.9345 10.7666 10.9345C10.7666 10.9345 10.6169 11.1002 10.5397 11.144C10.4914 11.1684 10.4576 11.1586 10.4432 11.1489C10.3997 11.2707 10.3611 11.3974 10.3418 11.5289C10.3563 11.4753 10.3949 11.3681 10.4576 11.3291C10.5301 11.2853 10.6169 11.2756 10.6169 11.2756C10.6169 11.2756 10.5011 11.4704 10.4335 11.5338C10.3901 11.5727 10.3466 11.563 10.337 11.5581C10.3225 11.6653 10.3128 11.7774 10.3128 11.8846C10.3128 11.9187 10.3128 11.9479 10.3128 11.982C10.3128 11.9576 10.3321 11.7969 10.3997 11.7335C10.4625 11.6751 10.5494 11.6458 10.5494 11.6458C10.5494 11.6458 10.4673 11.8651 10.4094 11.9382C10.3659 11.9917 10.3225 11.9869 10.3177 11.982C10.3225 12.1233 10.3466 12.2597 10.3804 12.3864C10.3756 12.3523 10.3708 12.2012 10.4239 12.133C10.477 12.06 10.5542 12.0112 10.5542 12.0112C10.5542 12.0112 10.5107 12.2451 10.4673 12.3279C10.4335 12.3913 10.3901 12.3913 10.3852 12.3913C10.419 12.5131 10.4625 12.63 10.5204 12.742C10.5107 12.6885 10.4914 12.5764 10.5252 12.5082C10.5638 12.4254 10.6314 12.362 10.6314 12.362C10.6314 12.362 10.6266 12.6008 10.5976 12.6933C10.5832 12.7469 10.5494 12.7664 10.5349 12.7713C10.6025 12.898 10.6845 13.0149 10.7859 13.1269C10.7666 13.0782 10.7231 12.9662 10.7473 12.8882C10.7714 12.7956 10.8293 12.7177 10.8293 12.7177C10.8293 12.7177 10.868 12.9515 10.8535 13.049C10.8486 13.1075 10.8197 13.1318 10.8052 13.1416C10.8197 13.1562 10.8293 13.1708 10.8438 13.1854C10.9114 13.2536 10.9838 13.3169 11.061 13.3754C11.0272 13.3267 10.979 13.2536 10.979 13.1854C10.979 13.088 11.0128 13.0003 11.0128 13.0003C11.0128 13.0003 11.1093 13.2146 11.1238 13.3121C11.1334 13.3657 11.1141 13.3949 11.1045 13.4095C11.1914 13.4729 11.2783 13.5264 11.3748 13.5752C11.3362 13.5459 11.2396 13.468 11.2203 13.3803C11.201 13.2877 11.2203 13.1903 11.2203 13.1903C11.2203 13.1903 11.3603 13.3754 11.3941 13.468C11.4182 13.5313 11.3941 13.5703 11.3893 13.58C11.4858 13.6288 11.5872 13.6726 11.6886 13.7116C11.6403 13.6872 11.5341 13.6239 11.5051 13.5508C11.4713 13.4631 11.4713 13.3657 11.4713 13.3657C11.4713 13.3657 11.6451 13.5264 11.6982 13.6141C11.732 13.6726 11.7175 13.7165 11.7127 13.7262C11.8334 13.7701 11.9589 13.8042 12.0892 13.8285C12.3306 13.8724 12.4706 13.9698 12.5526 14.0478C12.5478 14.0478 12.543 14.0526 12.5381 14.0526C12.4609 13.9747 12.3209 13.887 12.0892 13.8431C11.9589 13.8188 11.8334 13.7847 11.7127 13.7408C11.7127 13.7554 11.6982 13.7993 11.6306 13.8188C11.5293 13.848 11.2541 13.7701 11.2541 13.7701C11.2541 13.7701 11.341 13.7262 11.4327 13.7018C11.5003 13.6872 11.5969 13.7067 11.6548 13.7213C11.5582 13.6872 11.4665 13.6434 11.3796 13.5995C11.3796 13.6044 11.3652 13.658 11.2927 13.6629C11.1914 13.6726 10.95 13.5606 10.95 13.5606C10.95 13.5606 11.0369 13.5313 11.1286 13.5216C11.1962 13.5167 11.2879 13.5508 11.341 13.5752C11.2493 13.5264 11.1624 13.4729 11.0852 13.4144C11.0803 13.429 11.0562 13.4631 10.9935 13.4582C10.9017 13.4875 10.6797 13.3316 10.6797 13.3316C10.6797 13.3316 10.7714 13.3169 10.8583 13.3218C10.9017 13.3267 10.95 13.3462 10.9935 13.3705C10.9355 13.3218 10.8824 13.2731 10.8342 13.2244C10.8197 13.2098 10.8052 13.1951 10.7955 13.1805C10.7859 13.1903 10.7569 13.2244 10.699 13.2098C10.6073 13.1854 10.4142 12.9905 10.4142 12.9905C10.4142 12.9905 10.5059 12.9905 10.5928 13.0149C10.6411 13.0295 10.6893 13.0636 10.728 13.0977C10.6507 13.0051 10.5832 12.9028 10.5301 12.8005C10.5204 12.8103 10.4818 12.8297 10.4335 12.8005C10.3514 12.7518 10.2115 12.5082 10.2115 12.5082C10.2115 12.5082 10.2983 12.5374 10.3756 12.5813C10.4094 12.6154 10.4432 12.6641 10.4721 12.7079Z" fill="#377649"/>
<path d="M13.4608 12.7079C13.5589 12.4887 13.6102 12.2548 13.6243 12.0015C13.6336 12.0064 13.6756 12.0161 13.7177 11.9576C13.7737 11.8699 13.8158 11.5874 13.8158 11.5874C13.8158 11.5874 13.7457 11.6556 13.6943 11.7335C13.6476 11.8017 13.6289 11.9284 13.6243 11.9771C13.6243 11.9528 13.6243 11.9235 13.6243 11.8992C13.6243 11.7871 13.6149 11.6751 13.6009 11.563C13.6149 11.5581 13.6476 11.5484 13.671 11.4899C13.7083 11.3925 13.685 11.105 13.685 11.105C13.685 11.105 13.6336 11.1879 13.6009 11.2804C13.5822 11.3291 13.5822 11.3925 13.5822 11.4461C13.5589 11.3438 13.5308 11.2414 13.4981 11.144C13.5121 11.1391 13.5448 11.1196 13.5589 11.0563C13.5775 10.954 13.5075 10.6763 13.5075 10.6763C13.5075 10.6763 13.4701 10.7689 13.4561 10.8712C13.4467 10.9394 13.4608 11.0222 13.4748 11.0807C13.4281 10.9686 13.3767 10.8614 13.3113 10.7591C13.3206 10.7542 13.358 10.7299 13.358 10.6568C13.358 10.5496 13.2365 10.2963 13.2365 10.2963C13.2365 10.2963 13.2178 10.3986 13.2225 10.496C13.2225 10.5788 13.2739 10.686 13.2973 10.7299C13.2552 10.6665 13.2132 10.6032 13.1618 10.5447C13.1524 10.5058 13.1151 10.4181 13.0123 10.345C12.8908 10.2622 12.6946 10.1842 12.6946 10.1842C12.6946 10.1842 12.9095 10.3986 13.017 10.4814C13.0824 10.535 13.1384 10.5545 13.1571 10.5594C13.2879 10.7153 13.3907 10.8955 13.4654 11.0855C13.4374 11.0368 13.3907 10.9735 13.3393 10.954C13.2599 10.9248 13.1758 10.9345 13.1758 10.9345C13.1758 10.9345 13.3206 11.1002 13.3954 11.144C13.4421 11.1684 13.4748 11.1586 13.4888 11.1489C13.5308 11.2707 13.5682 11.3974 13.5869 11.5289C13.5729 11.4753 13.5355 11.3681 13.4748 11.3291C13.4047 11.2853 13.3206 11.2756 13.3206 11.2756C13.3206 11.2756 13.4327 11.4704 13.4981 11.5338C13.5402 11.5727 13.5822 11.563 13.5916 11.5581C13.6056 11.6653 13.6149 11.7774 13.6149 11.8846C13.6149 11.9187 13.6149 11.9479 13.6149 11.982C13.6149 11.9576 13.5962 11.7969 13.5308 11.7335C13.4701 11.6751 13.386 11.6458 13.386 11.6458C13.386 11.6458 13.4654 11.8651 13.5215 11.9382C13.5635 11.9917 13.6056 11.9869 13.6102 11.982C13.6056 12.1233 13.5822 12.2597 13.5495 12.3864C13.5542 12.3523 13.5589 12.2012 13.5075 12.133C13.4561 12.06 13.3813 12.0112 13.3813 12.0112C13.3813 12.0112 13.4234 12.2451 13.4654 12.3279C13.4981 12.3913 13.5402 12.3913 13.5448 12.3913C13.5121 12.5131 13.4701 12.63 13.414 12.742C13.4234 12.6885 13.4421 12.5764 13.4094 12.5082C13.372 12.4254 13.3066 12.362 13.3066 12.362C13.3066 12.362 13.3113 12.6008 13.3393 12.6933C13.3533 12.7469 13.386 12.7664 13.4 12.7713C13.3346 12.898 13.2552 13.0149 13.1571 13.1269C13.1758 13.0782 13.2178 12.9662 13.1945 12.8882C13.1711 12.7956 13.1151 12.7177 13.1151 12.7177C13.1151 12.7177 13.0777 12.9515 13.0917 13.049C13.0964 13.1075 13.1244 13.1318 13.1384 13.1416C13.1244 13.1562 13.1151 13.1708 13.1011 13.1854C13.0357 13.2536 12.9656 13.3169 12.8908 13.3754C12.9235 13.3267 12.9703 13.2536 12.9703 13.1854C12.9703 13.088 12.9376 13.0003 12.9376 13.0003C12.9376 13.0003 12.8441 13.2146 12.8301 13.3121C12.8208 13.3657 12.8395 13.3949 12.8488 13.4095C12.7647 13.4729 12.6806 13.5264 12.5872 13.5752C12.6246 13.5459 12.718 13.468 12.7367 13.3803C12.7554 13.2877 12.7367 13.1903 12.7367 13.1903C12.7367 13.1903 12.6012 13.3754 12.5685 13.468C12.5452 13.5313 12.5685 13.5703 12.5732 13.58C12.4798 13.6288 12.3817 13.6726 12.2836 13.7116C12.3303 13.6872 12.433 13.6239 12.4611 13.5508C12.4938 13.4631 12.4938 13.3657 12.4938 13.3657C12.4938 13.3657 12.3256 13.5264 12.2742 13.6141C12.2415 13.6726 12.2555 13.7165 12.2602 13.7262C12.1434 13.7701 12.022 13.8042 11.8958 13.8285C11.6623 13.8724 11.5268 13.9698 11.4474 14.0478C11.452 14.0478 11.4567 14.0526 11.4614 14.0526C11.5361 13.9747 11.6716 13.887 11.8958 13.8431C12.022 13.8188 12.1434 13.7847 12.2602 13.7408C12.2602 13.7554 12.2742 13.7993 12.3396 13.8188C12.4377 13.848 12.704 13.7701 12.704 13.7701C12.704 13.7701 12.6199 13.7262 12.5311 13.7018C12.4657 13.6872 12.3723 13.7067 12.3163 13.7213C12.4097 13.6872 12.4984 13.6434 12.5825 13.5995C12.5825 13.6044 12.5965 13.658 12.6666 13.6629C12.7647 13.6726 12.9983 13.5606 12.9983 13.5606C12.9983 13.5606 12.9142 13.5313 12.8254 13.5216C12.76 13.5167 12.6713 13.5508 12.6199 13.5752C12.7087 13.5264 12.7927 13.4729 12.8675 13.4144C12.8722 13.429 12.8955 13.4631 12.9562 13.4582C13.045 13.4875 13.2599 13.3316 13.2599 13.3316C13.2599 13.3316 13.1711 13.3169 13.087 13.3218C13.045 13.3267 12.9983 13.3462 12.9562 13.3705C13.0123 13.3218 13.0637 13.2731 13.1104 13.2244C13.1244 13.2098 13.1384 13.1951 13.1478 13.1805C13.1571 13.1903 13.1851 13.2244 13.2412 13.2098C13.33 13.1854 13.5168 12.9905 13.5168 12.9905C13.5168 12.9905 13.4281 12.9905 13.344 13.0149C13.2973 13.0295 13.2505 13.0636 13.2132 13.0977C13.2879 13.0051 13.3533 12.9028 13.4047 12.8005C13.414 12.8103 13.4514 12.8297 13.4981 12.8005C13.5775 12.7518 13.713 12.5082 13.713 12.5082C13.713 12.5082 13.6289 12.5374 13.5542 12.5813C13.5215 12.6154 13.4888 12.6641 13.4608 12.7079Z" fill="#377649"/>
<path d="M12 11.0526L12.2127 11.7072H12.901L12.3442 12.1118L12.5569 12.7664L12 12.3619L11.4432 12.7664L11.6559 12.1118L11.099 11.7072H11.7873L12 11.0526Z" fill="#F8D74C"/>
<path fill-rule="evenodd" clip-rule="evenodd" d="M12 14.5263C13.3952 14.5263 14.5263 13.3952 14.5263 12C14.5263 10.6048 13.3952 9.47368 12 9.47368C10.6048 9.47368 9.47368 10.6048 9.47368 12C9.47368 13.3952 10.6048 14.5263 12 14.5263ZM12 14.6053C13.4388 14.6053 14.6053 13.4388 14.6053 12C14.6053 10.5612 13.4388 9.39474 12 9.39474C10.5612 9.39474 9.39474 10.5612 9.39474 12C9.39474 13.4388 10.5612 14.6053 12 14.6053Z" fill="#333333"/>
<path fill-rule="evenodd" clip-rule="evenodd" d="M12 14.7632C13.5261 14.7632 14.7632 13.5261 14.7632 12C14.7632 10.474 13.5261 9.23684 12 9.23684C10.474 9.23684 9.23684 10.474 9.23684 12C9.23684 13.5261 10.474 14.7632 12 14.7632ZM12 15C13.6569 15 15 13.6569 15 12C15 10.3431 13.6569 9 12 9C10.3431 9 9 10.3431 9 12C9 13.6569 10.3431 15 12 15Z" fill="#333333"/>
</g>
<defs>
<clipPath id="clip0_440_1143">
<rect width="24" height="24" rx="12" fill="white"/>
</clipPath>
</defs>
</svg>
