<svg width="32" height="24" viewBox="0 0 32 24" fill="none" xmlns="http://www.w3.org/2000/svg">
<g clip-path="url(#clip0_440_1164)">
<rect width="32" height="24" rx="2" fill="#F9F9F9"/>
<path d="M0 16H32V24H0V16Z" fill="#485CC2"/>
<path d="M0 0H32V8H0V0Z" fill="#D74B4B"/>
<path d="M14.4721 12.7079C14.3708 12.4887 14.3177 12.2548 14.3032 12.0015C14.2935 12.0064 14.2501 12.0161 14.2066 11.9576C14.1487 11.8699 14.1053 11.5874 14.1053 11.5874C14.1053 11.5874 14.1777 11.6556 14.2308 11.7335C14.279 11.8017 14.2983 11.9284 14.3032 11.9771C14.3032 11.9528 14.3032 11.9235 14.3032 11.8992C14.3032 11.7871 14.3128 11.6751 14.3273 11.563C14.3128 11.5581 14.279 11.5484 14.2549 11.4899C14.2163 11.3925 14.2404 11.105 14.2404 11.105C14.2404 11.105 14.2935 11.1879 14.3273 11.2804C14.3466 11.3291 14.3466 11.3925 14.3466 11.4461C14.3708 11.3438 14.3997 11.2414 14.4335 11.144C14.419 11.1391 14.3852 11.1196 14.3708 11.0563C14.3514 10.954 14.4239 10.6763 14.4239 10.6763C14.4239 10.6763 14.4625 10.7689 14.477 10.8712C14.4866 10.9394 14.4721 11.0222 14.4576 11.0807C14.5059 10.9686 14.559 10.8614 14.6266 10.7591C14.6169 10.7542 14.5783 10.7299 14.5783 10.6568C14.5783 10.5496 14.7038 10.2963 14.7038 10.2963C14.7038 10.2963 14.7231 10.3986 14.7183 10.496C14.7183 10.5788 14.6652 10.686 14.6411 10.7299C14.6845 10.6665 14.728 10.6032 14.7811 10.5447C14.7907 10.5058 14.8293 10.4181 14.9355 10.345C15.061 10.2622 15.2638 10.1842 15.2638 10.1842C15.2638 10.1842 15.0417 10.3986 14.9307 10.4814C14.8631 10.535 14.8052 10.5545 14.7859 10.5594C14.6507 10.7153 14.5445 10.8955 14.4673 11.0855C14.4963 11.0368 14.5445 10.9735 14.5976 10.954C14.6797 10.9248 14.7666 10.9345 14.7666 10.9345C14.7666 10.9345 14.6169 11.1002 14.5397 11.144C14.4914 11.1684 14.4576 11.1586 14.4432 11.1489C14.3997 11.2707 14.3611 11.3974 14.3418 11.5289C14.3563 11.4753 14.3949 11.3681 14.4576 11.3291C14.5301 11.2853 14.6169 11.2756 14.6169 11.2756C14.6169 11.2756 14.5011 11.4704 14.4335 11.5338C14.3901 11.5727 14.3466 11.563 14.337 11.5581C14.3225 11.6653 14.3128 11.7774 14.3128 11.8846C14.3128 11.9187 14.3128 11.9479 14.3128 11.982C14.3128 11.9576 14.3321 11.7969 14.3997 11.7335C14.4625 11.6751 14.5494 11.6458 14.5494 11.6458C14.5494 11.6458 14.4673 11.8651 14.4094 11.9382C14.3659 11.9917 14.3225 11.9869 14.3177 11.982C14.3225 12.1233 14.3466 12.2597 14.3804 12.3864C14.3756 12.3523 14.3708 12.2012 14.4239 12.133C14.477 12.06 14.5542 12.0112 14.5542 12.0112C14.5542 12.0112 14.5107 12.2451 14.4673 12.3279C14.4335 12.3913 14.3901 12.3913 14.3852 12.3913C14.419 12.5131 14.4625 12.63 14.5204 12.742C14.5107 12.6885 14.4914 12.5764 14.5252 12.5082C14.5638 12.4254 14.6314 12.362 14.6314 12.362C14.6314 12.362 14.6266 12.6008 14.5976 12.6933C14.5832 12.7469 14.5494 12.7664 14.5349 12.7713C14.6025 12.898 14.6845 13.0149 14.7859 13.1269C14.7666 13.0782 14.7231 12.9662 14.7473 12.8882C14.7714 12.7956 14.8293 12.7177 14.8293 12.7177C14.8293 12.7177 14.868 12.9515 14.8535 13.049C14.8486 13.1075 14.8197 13.1318 14.8052 13.1416C14.8197 13.1562 14.8293 13.1708 14.8438 13.1854C14.9114 13.2536 14.9838 13.3169 15.061 13.3754C15.0272 13.3267 14.979 13.2536 14.979 13.1854C14.979 13.088 15.0128 13.0003 15.0128 13.0003C15.0128 13.0003 15.1093 13.2146 15.1238 13.3121C15.1334 13.3657 15.1141 13.3949 15.1045 13.4095C15.1914 13.4729 15.2783 13.5264 15.3748 13.5752C15.3362 13.5459 15.2396 13.468 15.2203 13.3803C15.201 13.2877 15.2203 13.1903 15.2203 13.1903C15.2203 13.1903 15.3603 13.3754 15.3941 13.468C15.4182 13.5313 15.3941 13.5703 15.3893 13.58C15.4858 13.6288 15.5872 13.6726 15.6886 13.7116C15.6403 13.6872 15.5341 13.6239 15.5051 13.5508C15.4713 13.4631 15.4713 13.3657 15.4713 13.3657C15.4713 13.3657 15.6451 13.5264 15.6982 13.6141C15.732 13.6726 15.7175 13.7165 15.7127 13.7262C15.8334 13.7701 15.9589 13.8042 16.0892 13.8285C16.3306 13.8724 16.4706 13.9698 16.5526 14.0478C16.5478 14.0478 16.543 14.0526 16.5381 14.0526C16.4609 13.9747 16.3209 13.887 16.0892 13.8431C15.9589 13.8188 15.8334 13.7847 15.7127 13.7408C15.7127 13.7554 15.6982 13.7993 15.6306 13.8188C15.5293 13.848 15.2541 13.7701 15.2541 13.7701C15.2541 13.7701 15.341 13.7262 15.4327 13.7018C15.5003 13.6872 15.5969 13.7067 15.6548 13.7213C15.5582 13.6872 15.4665 13.6434 15.3796 13.5995C15.3796 13.6044 15.3652 13.658 15.2927 13.6629C15.1914 13.6726 14.95 13.5606 14.95 13.5606C14.95 13.5606 15.0369 13.5313 15.1286 13.5216C15.1962 13.5167 15.2879 13.5508 15.341 13.5752C15.2493 13.5264 15.1624 13.4729 15.0852 13.4144C15.0803 13.429 15.0562 13.4631 14.9935 13.4582C14.9017 13.4875 14.6797 13.3316 14.6797 13.3316C14.6797 13.3316 14.7714 13.3169 14.8583 13.3218C14.9017 13.3267 14.95 13.3462 14.9935 13.3705C14.9355 13.3218 14.8824 13.2731 14.8342 13.2244C14.8197 13.2098 14.8052 13.1951 14.7955 13.1805C14.7859 13.1903 14.7569 13.2244 14.699 13.2098C14.6073 13.1854 14.4142 12.9905 14.4142 12.9905C14.4142 12.9905 14.5059 12.9905 14.5928 13.0149C14.6411 13.0295 14.6893 13.0636 14.728 13.0977C14.6507 13.0051 14.5832 12.9028 14.5301 12.8005C14.5204 12.8103 14.4818 12.8297 14.4335 12.8005C14.3514 12.7518 14.2115 12.5082 14.2115 12.5082C14.2115 12.5082 14.2983 12.5374 14.3756 12.5813C14.4094 12.6154 14.4432 12.6641 14.4721 12.7079Z" fill="#377649"/>
<path d="M17.4608 12.7079C17.5589 12.4887 17.6102 12.2548 17.6243 12.0015C17.6336 12.0064 17.6756 12.0161 17.7177 11.9576C17.7737 11.8699 17.8158 11.5874 17.8158 11.5874C17.8158 11.5874 17.7457 11.6556 17.6943 11.7335C17.6476 11.8017 17.6289 11.9284 17.6243 11.9771C17.6243 11.9528 17.6243 11.9235 17.6243 11.8992C17.6243 11.7871 17.6149 11.6751 17.6009 11.563C17.6149 11.5581 17.6476 11.5484 17.671 11.4899C17.7083 11.3925 17.685 11.105 17.685 11.105C17.685 11.105 17.6336 11.1879 17.6009 11.2804C17.5822 11.3291 17.5822 11.3925 17.5822 11.4461C17.5589 11.3438 17.5308 11.2414 17.4981 11.144C17.5121 11.1391 17.5448 11.1196 17.5589 11.0563C17.5775 10.954 17.5075 10.6763 17.5075 10.6763C17.5075 10.6763 17.4701 10.7689 17.4561 10.8712C17.4467 10.9394 17.4608 11.0222 17.4748 11.0807C17.4281 10.9686 17.3767 10.8614 17.3113 10.7591C17.3206 10.7542 17.358 10.7299 17.358 10.6568C17.358 10.5496 17.2365 10.2963 17.2365 10.2963C17.2365 10.2963 17.2178 10.3986 17.2225 10.496C17.2225 10.5788 17.2739 10.686 17.2973 10.7299C17.2552 10.6665 17.2132 10.6032 17.1618 10.5447C17.1524 10.5058 17.1151 10.4181 17.0123 10.345C16.8908 10.2622 16.6946 10.1842 16.6946 10.1842C16.6946 10.1842 16.9095 10.3986 17.017 10.4814C17.0824 10.535 17.1384 10.5545 17.1571 10.5594C17.2879 10.7153 17.3907 10.8955 17.4654 11.0855C17.4374 11.0368 17.3907 10.9735 17.3393 10.954C17.2599 10.9248 17.1758 10.9345 17.1758 10.9345C17.1758 10.9345 17.3206 11.1002 17.3954 11.144C17.4421 11.1684 17.4748 11.1586 17.4888 11.1489C17.5308 11.2707 17.5682 11.3974 17.5869 11.5289C17.5729 11.4753 17.5355 11.3681 17.4748 11.3291C17.4047 11.2853 17.3206 11.2756 17.3206 11.2756C17.3206 11.2756 17.4327 11.4704 17.4981 11.5338C17.5402 11.5727 17.5822 11.563 17.5916 11.5581C17.6056 11.6653 17.6149 11.7774 17.6149 11.8846C17.6149 11.9187 17.6149 11.9479 17.6149 11.982C17.6149 11.9576 17.5962 11.7969 17.5308 11.7335C17.4701 11.6751 17.386 11.6458 17.386 11.6458C17.386 11.6458 17.4654 11.8651 17.5215 11.9382C17.5635 11.9917 17.6056 11.9869 17.6102 11.982C17.6056 12.1233 17.5822 12.2597 17.5495 12.3864C17.5542 12.3523 17.5589 12.2012 17.5075 12.133C17.4561 12.06 17.3813 12.0112 17.3813 12.0112C17.3813 12.0112 17.4234 12.2451 17.4654 12.3279C17.4981 12.3913 17.5402 12.3913 17.5448 12.3913C17.5121 12.5131 17.4701 12.63 17.414 12.742C17.4234 12.6885 17.4421 12.5764 17.4094 12.5082C17.372 12.4254 17.3066 12.362 17.3066 12.362C17.3066 12.362 17.3113 12.6008 17.3393 12.6933C17.3533 12.7469 17.386 12.7664 17.4 12.7713C17.3346 12.898 17.2552 13.0149 17.1571 13.1269C17.1758 13.0782 17.2178 12.9662 17.1945 12.8882C17.1711 12.7956 17.1151 12.7177 17.1151 12.7177C17.1151 12.7177 17.0777 12.9515 17.0917 13.049C17.0964 13.1075 17.1244 13.1318 17.1384 13.1416C17.1244 13.1562 17.1151 13.1708 17.1011 13.1854C17.0357 13.2536 16.9656 13.3169 16.8908 13.3754C16.9235 13.3267 16.9703 13.2536 16.9703 13.1854C16.9703 13.088 16.9376 13.0003 16.9376 13.0003C16.9376 13.0003 16.8441 13.2146 16.8301 13.3121C16.8208 13.3657 16.8395 13.3949 16.8488 13.4095C16.7647 13.4729 16.6806 13.5264 16.5872 13.5752C16.6246 13.5459 16.718 13.468 16.7367 13.3803C16.7554 13.2877 16.7367 13.1903 16.7367 13.1903C16.7367 13.1903 16.6012 13.3754 16.5685 13.468C16.5452 13.5313 16.5685 13.5703 16.5732 13.58C16.4798 13.6288 16.3817 13.6726 16.2836 13.7116C16.3303 13.6872 16.433 13.6239 16.4611 13.5508C16.4938 13.4631 16.4938 13.3657 16.4938 13.3657C16.4938 13.3657 16.3256 13.5264 16.2742 13.6141C16.2415 13.6726 16.2555 13.7165 16.2602 13.7262C16.1434 13.7701 16.022 13.8042 15.8958 13.8285C15.6623 13.8724 15.5268 13.9698 15.4474 14.0478C15.452 14.0478 15.4567 14.0526 15.4614 14.0526C15.5361 13.9747 15.6716 13.887 15.8958 13.8431C16.022 13.8188 16.1434 13.7847 16.2602 13.7408C16.2602 13.7554 16.2742 13.7993 16.3396 13.8188C16.4377 13.848 16.704 13.7701 16.704 13.7701C16.704 13.7701 16.6199 13.7262 16.5311 13.7018C16.4657 13.6872 16.3723 13.7067 16.3163 13.7213C16.4097 13.6872 16.4984 13.6434 16.5825 13.5995C16.5825 13.6044 16.5965 13.658 16.6666 13.6629C16.7647 13.6726 16.9983 13.5606 16.9983 13.5606C16.9983 13.5606 16.9142 13.5313 16.8254 13.5216C16.76 13.5167 16.6713 13.5508 16.6199 13.5752C16.7087 13.5264 16.7927 13.4729 16.8675 13.4144C16.8722 13.429 16.8955 13.4631 16.9562 13.4582C17.045 13.4875 17.2599 13.3316 17.2599 13.3316C17.2599 13.3316 17.1711 13.3169 17.087 13.3218C17.045 13.3267 16.9983 13.3462 16.9562 13.3705C17.0123 13.3218 17.0637 13.2731 17.1104 13.2244C17.1244 13.2098 17.1384 13.1951 17.1478 13.1805C17.1571 13.1903 17.1851 13.2244 17.2412 13.2098C17.33 13.1854 17.5168 12.9905 17.5168 12.9905C17.5168 12.9905 17.4281 12.9905 17.344 13.0149C17.2973 13.0295 17.2505 13.0636 17.2132 13.0977C17.2879 13.0051 17.3533 12.9028 17.4047 12.8005C17.414 12.8103 17.4514 12.8297 17.4981 12.8005C17.5775 12.7518 17.713 12.5082 17.713 12.5082C17.713 12.5082 17.6289 12.5374 17.5542 12.5813C17.5215 12.6154 17.4888 12.6641 17.4608 12.7079Z" fill="#377649"/>
<path d="M16 11.0526L16.2127 11.7072H16.901L16.3442 12.1118L16.5569 12.7664L16 12.3619L15.4432 12.7664L15.6559 12.1118L15.099 11.7072H15.7873L16 11.0526Z" fill="#F8D74C"/>
<path fill-rule="evenodd" clip-rule="evenodd" d="M16 14.5263C17.3952 14.5263 18.5263 13.3952 18.5263 12C18.5263 10.6048 17.3952 9.47368 16 9.47368C14.6048 9.47368 13.4737 10.6048 13.4737 12C13.4737 13.3952 14.6048 14.5263 16 14.5263ZM16 14.6053C17.4388 14.6053 18.6053 13.4388 18.6053 12C18.6053 10.5612 17.4388 9.39474 16 9.39474C14.5612 9.39474 13.3947 10.5612 13.3947 12C13.3947 13.4388 14.5612 14.6053 16 14.6053Z" fill="#333333"/>
<path fill-rule="evenodd" clip-rule="evenodd" d="M16 14.7632C17.5261 14.7632 18.7632 13.5261 18.7632 12C18.7632 10.474 17.5261 9.23684 16 9.23684C14.474 9.23684 13.2368 10.474 13.2368 12C13.2368 13.5261 14.474 14.7632 16 14.7632ZM16 15C17.6569 15 19 13.6569 19 12C19 10.3431 17.6569 9 16 9C14.3431 9 13 10.3431 13 12C13 13.6569 14.3431 15 16 15Z" fill="#333333"/>
</g>
<defs>
<clipPath id="clip0_440_1164">
<rect width="32" height="24" rx="2" fill="white"/>
</clipPath>
</defs>
</svg>
