<svg width="32" height="24" viewBox="0 0 32 24" fill="none" xmlns="http://www.w3.org/2000/svg">
<g clip-path="url(#clip0_440_1142)">
<rect width="32" height="24" rx="2" fill="#F9F9F9"/>
<path d="M0 24L-1.04907e-06 0L10.6667 -4.66255e-07L10.6667 24L0 24Z" fill="#D74B4B"/>
<path d="M21.3333 24L21.3333 0L32 -4.66255e-07L32 24L21.3333 24Z" fill="#D74B4B"/>
<path fill-rule="evenodd" clip-rule="evenodd" d="M16.0603 9.67999C16.3791 9.67999 16.6375 9.39712 16.6375 9.04818C16.6375 8.69923 16.3791 8.41636 16.0603 8.41636C15.7415 8.41636 15.483 8.69923 15.483 9.04818C15.483 9.39712 15.7415 9.67999 16.0603 9.67999ZM16.0603 10.0964C16.5892 10.0964 17.0179 9.62707 17.0179 9.04818C17.0179 8.46928 16.5892 8 16.0603 8C15.5314 8 15.1026 8.46928 15.1026 9.04818C15.1026 9.62707 15.5314 10.0964 16.0603 10.0964Z" fill="#3FB47C"/>
<path d="M16.046 14.4921C15.9796 14.4058 15.7694 14.233 15.4588 14.233H14.9096C14.575 14.1743 13.9058 13.862 13.9058 13.0825C13.9158 12.9991 13.9614 12.785 14.0631 12.5958C14.1647 12.4066 14.236 12.031 14.2588 11.8668H16.046V14.4921Z" fill="#D74B4B"/>
<path d="M16.046 14.4921C16.1123 14.4058 16.3226 14.233 16.6331 14.233H17.1824C17.517 14.1743 18.1862 13.862 18.1862 13.0825C18.1761 12.9991 18.1305 12.785 18.0288 12.5958C17.9272 12.4066 17.856 12.031 17.8331 11.8668H16.046V14.4921Z" fill="#D74B4B"/>
<path d="M16.0649 11.8698H14.2562C14.2562 10.8914 14.0794 10.4948 13.991 10.4188L14.6539 9.65173C15.3206 10.0331 15.8724 9.81065 16.0649 9.65173V11.8698Z" fill="#64BEDB"/>
<path d="M16.046 11.8668L17.8355 11.8668C17.8355 10.8883 18.0104 10.4917 18.0979 10.4157L17.442 9.64868C16.7824 10.0301 16.2365 9.8076 16.046 9.64868L16.046 11.8668Z" fill="#F8D74C"/>
<path d="M14.7306 12.8666C14.489 13.272 14.6769 13.5276 14.8011 13.6047C15.0205 13.741 15.4402 13.725 15.7573 13.6047C15.9916 13.5158 16.0089 13.4078 16.0089 13.2962L16.0089 13.2945C16.0089 13.2033 16.0089 13.1098 16.3209 13.2412C16.635 13.3734 16.8745 13.4652 16.955 13.4946C17.0758 13.5313 17.3536 13.543 17.4986 13.2962C17.6435 13.0495 17.4851 12.8335 17.3878 12.7564C17.2738 12.7087 17.1872 12.7752 17.2671 12.8666C17.4442 13.0693 17.3409 13.2008 17.2671 13.2412C17.2201 13.2999 17.0476 13.3337 16.7336 12.9988C16.4196 12.6639 16.0089 12.3268 15.6667 12.3268C15.4553 12.3378 14.9722 12.4612 14.7306 12.8666Z" fill="#F8D74C"/>
<path d="M16.9205 11.1086H17.1336V11.6493H16.9205V11.1086Z" fill="#E77D42"/>
<path d="M16.8528 11.2782H17.2886L17.337 11.1192H17.4823L17.5307 10.9708C17.605 10.9496 17.7361 10.8394 17.6663 10.568L17.5888 10.4089C17.5598 10.4089 17.4862 10.3814 17.4242 10.2711C17.3622 10.1609 17.3403 10.1051 17.337 10.091H17.1917L17.124 10.038C17.0594 10.0627 16.9302 10.1228 16.9302 10.1652C16.9302 10.2075 16.8786 10.1828 16.8528 10.1652L16.7862 10.2561C16.7684 10.2398 16.7364 10.2365 16.6991 10.2414C16.6684 10.2455 16.634 10.255 16.601 10.2672C16.5437 10.2884 16.4904 10.3175 16.4666 10.3398C16.3988 10.4034 16.4557 10.6103 16.3588 10.6527C16.2814 10.6867 16.3266 10.7092 16.3588 10.7163L16.4557 10.8223V11.0343L16.601 11.1192L16.8528 11.2782Z" fill="#3FB47C"/>
<path d="M14.786 10.4914L14.5942 10.7031L14.6251 10.8056L14.8478 10.8503C14.837 10.9199 14.8952 11.0592 15.2144 11.0592C15.5337 11.0592 15.6186 10.7371 15.6211 10.5761L15.6414 10.2934H15.813V10.2437L15.7574 10.189L15.6211 10.0682L15.497 10.038C15.5101 10.1307 15.5286 10.3439 15.497 10.4552C15.4654 10.5664 15.3785 10.5821 15.339 10.5761L15.1246 10.4914H14.786Z" fill="#F8D74C"/>
<path d="M14.6854 10.7642H14.9175L14.7643 11.6493H14.6854V10.7642Z" fill="#F8D74C"/>
<path d="M15.1634 10.7642H15.3954L15.2423 11.6493H15.1634V10.7642Z" fill="#F8D74C"/>
<path fill-rule="evenodd" clip-rule="evenodd" d="M12.819 12.4627C12.7173 10.9883 13.2797 9.35197 13.6008 8.68604L13.6849 8.73462C13.368 9.39172 12.814 11.0077 12.9138 12.4549C12.9636 13.177 13.1758 13.852 13.6565 14.3468C14.1371 14.8414 14.893 15.1629 16.0435 15.1629V15.267C14.8773 15.267 14.095 14.9409 13.5914 14.4226C13.0879 13.9045 12.8699 13.2013 12.819 12.4627Z" fill="#3FB47C"/>
<path fill-rule="evenodd" clip-rule="evenodd" d="M16.8067 14.5519C16.9135 14.565 17.007 14.6274 17.0695 14.7413C17.1207 14.8347 17.1466 14.9341 17.1297 15.0331C17.1125 15.1331 17.0566 15.2038 16.9982 15.2502C16.8885 15.3372 16.7377 15.3659 16.6423 15.3717L16.6344 15.3722L16.3326 15.372C16.5805 15.5578 17.004 15.6842 17.6786 15.4901L17.7511 15.7922C16.9747 16.0155 16.4514 15.8572 16.1351 15.6021C16.0624 15.6966 15.9706 15.7832 15.8566 15.8517C15.5336 16.0457 15.0654 16.0745 14.4195 15.7857L14.5274 15.4966C15.125 15.7638 15.4971 15.7114 15.7194 15.5779C15.8057 15.5261 15.8743 15.4592 15.9277 15.3863C15.9242 15.3815 15.9207 15.3767 15.9173 15.372H15.1581L15.1419 15.3678C15.1006 15.3571 15.053 15.3385 15.0082 15.3099C14.9641 15.2819 14.9143 15.2388 14.8809 15.1749C14.845 15.1064 14.8338 15.0245 14.8558 14.9384C14.8764 14.8576 14.9237 14.7823 14.9886 14.7112C15.1613 14.5223 15.3972 14.5628 15.5664 14.6335C15.7429 14.7073 15.9085 14.8366 16.0082 14.9326L16.0365 14.9598L16.0488 14.9987C16.0545 15.0164 16.0619 15.0358 16.0712 15.0564C16.0732 15.0458 16.075 15.0353 16.0765 15.025L16.0838 14.9759L16.1156 14.9404C16.2104 14.8349 16.3675 14.6902 16.5307 14.6104C16.612 14.5706 16.7088 14.5399 16.8067 14.5519ZM15.6925 15.0597C15.6233 15.008 15.5437 14.9583 15.4646 14.9252C15.3223 14.8658 15.2376 14.8804 15.1903 14.9321C15.1453 14.9814 15.1333 15.0116 15.1306 15.0224L15.1336 15.0259C15.1376 15.03 15.1435 15.0348 15.1516 15.04C15.1642 15.048 15.179 15.0548 15.1936 15.0597H15.6925ZM16.4181 15.0597H16.6302C16.7045 15.0546 16.7876 15.0316 16.8307 14.9974C16.8399 14.9901 16.8447 14.9843 16.8469 14.9808C16.8488 14.9779 16.8493 14.9755 16.8493 14.9755C16.8493 14.9755 16.8531 14.9535 16.8248 14.902C16.8077 14.8706 16.7923 14.8643 16.7749 14.8622C16.7488 14.859 16.7063 14.8665 16.6471 14.8954C16.57 14.9332 16.4884 14.9955 16.4181 15.0597Z" fill="#D74B4B"/>
<path d="M13.2549 8.7544L13.1806 9.98551L13.0039 10.7799L12.8738 11.5014L12.8346 12.1508L12.8738 12.5494L13.0041 13.2164L13.1806 13.7732C13.1806 13.9935 13.7047 14.4735 13.9668 14.6859L14.7236 15.0522C14.441 15.0522 13.8498 14.808 13.5895 14.6859L12.3811 13.4142L13.1806 14.0551L12.093 12.4985L13.1806 13.8211L13.0504 13.6177L12.1859 12.2747L12.9295 13.0377L12 11.5726L12.7808 12.5494L12.093 10.9622L12.7808 12.2747L12.1394 10.4433L12.7808 11.8168L12.3811 10.1788L12.7808 11.5014L12.6135 10.1788L12.8738 10.9622L12.7808 9.51744L12.9295 10.3212L13.0039 9.04942L13.0504 9.98551L13.2549 8.7544Z" fill="#3FB47C"/>
<path d="M13.7161 9.0887L13.1174 10.0953L12.8575 11.349V12.7733L12.9005 13.0443L12.9786 13.3844L13.2042 13.7836L13.2735 13.989L13.6949 14.4883L14.202 14.8437L13.8202 13.989L13.7161 14.5303V13.4192L13.5773 14.3404L13.4905 12.9159L13.2997 13.913L13.4211 12.2606L13.0394 13.3527L13.3604 11.7573L12.9005 12.8684L13.4211 11.197L12.9005 12.1086L13.4211 10.8456L12.9005 11.7003L13.5773 9.76293L12.9786 10.931L13.7161 9.0887Z" fill="#3FB47C"/>
<path d="M18.6167 9.1015L18.3013 9.0097C18.6041 9.52356 18.9273 9.67547 19.0511 9.68719C19.337 9.35971 19.2497 8.70858 19.1703 8.42395L19.0511 8.68504L18.925 8.50864L18.89 8.76273L18.6167 8.46629L18.7568 8.90388L18.4275 8.68504L18.6167 9.1015Z" fill="#3FB47C"/>
<path d="M19.2577 10.8925L18.9874 10.705C19.1132 11.2889 19.3722 11.536 19.486 11.5865C19.86 11.367 19.9816 10.7214 19.9957 10.4261L19.8007 10.6358L19.7364 10.4283L19.6234 10.6582L19.4572 10.2899L19.4527 10.7497L19.209 10.4372L19.2577 10.8925Z" fill="#3FB47C"/>
<path d="M19.2029 12.6339L18.9623 12.409C19.0031 13.005 19.2239 13.2872 19.3292 13.3538C19.7308 13.1909 19.9437 12.5699 20 12.2797L19.777 12.4589L19.7431 12.2442L19.5983 12.4552L19.4867 12.0666L19.4163 12.5209L19.22 12.1762L19.2029 12.6339Z" fill="#3FB47C"/>
<path d="M18.5289 14.3449L18.5568 14.0155C18.1154 14.4147 18.0305 14.7637 18.0432 14.8883C18.4178 15.1069 19.0349 14.8937 19.2966 14.7597L19.0191 14.693L19.1663 14.534L18.9121 14.5489L19.1475 14.2211L18.7486 14.4449L18.8976 14.0769L18.5289 14.3449Z" fill="#3FB47C"/>
<path fill-rule="evenodd" clip-rule="evenodd" d="M18.8971 8.84499L19.3999 10.5789C19.4672 10.9093 19.5436 11.5596 19.5636 12.3057C19.5764 12.7803 19.4458 13.2326 19.3007 13.5786C19.228 13.7518 19.1513 13.8991 19.0864 14.0102C19.0221 14.1201 18.9677 14.1973 18.9391 14.2285C18.5733 14.6257 18.1114 15.09 17.0613 15.1953L17.104 15.1055C18.1208 15.0035 18.5094 14.5481 18.8663 14.1605C18.8873 14.1377 18.9372 14.0683 19.0008 13.9595C19.0637 13.8519 19.1384 13.7085 19.2092 13.5396C19.3511 13.2014 19.4766 12.7639 19.4644 12.3084C19.4445 11.5678 19.3686 10.9248 19.3029 10.601L18.8018 8.87303L18.8971 8.84499Z" fill="#3FB47C"/>
</g>
<defs>
<clipPath id="clip0_440_1142">
<rect width="32" height="24" rx="2" fill="white"/>
</clipPath>
</defs>
</svg>
