<svg width="24" height="24" viewBox="0 0 24 24" fill="none" xmlns="http://www.w3.org/2000/svg">
<g clip-path="url(#clip0_440_1140)">
<rect width="24" height="24" rx="12" fill="#F9F9F9"/>
<path d="M0 24L-1.04907e-06 0L8 -3.49691e-07L8 24L0 24Z" fill="#D74B4B"/>
<path d="M16 24L16 0L24 -3.49691e-07L24 24L16 24Z" fill="#D74B4B"/>
<path fill-rule="evenodd" clip-rule="evenodd" d="M12.0603 9.67999C12.3791 9.67999 12.6375 9.39712 12.6375 9.04818C12.6375 8.69923 12.3791 8.41636 12.0603 8.41636C11.7415 8.41636 11.483 8.69923 11.483 9.04818C11.483 9.39712 11.7415 9.67999 12.0603 9.67999ZM12.0603 10.0964C12.5892 10.0964 13.0179 9.62707 13.0179 9.04818C13.0179 8.46928 12.5892 8 12.0603 8C11.5314 8 11.1026 8.46928 11.1026 9.04818C11.1026 9.62707 11.5314 10.0964 12.0603 10.0964Z" fill="#3FB47C"/>
<path d="M12.046 14.4921C11.9796 14.4058 11.7694 14.233 11.4588 14.233H10.9096C10.575 14.1743 9.90576 13.862 9.90576 13.0825C9.91584 12.9991 9.96142 12.785 10.0631 12.5958C10.1647 12.4066 10.236 12.031 10.2588 11.8668H12.046V14.4921Z" fill="#D74B4B"/>
<path d="M12.046 14.4921C12.1123 14.4058 12.3226 14.233 12.6331 14.233H13.1824C13.517 14.1743 14.1862 13.862 14.1862 13.0825C14.1761 12.9991 14.1305 12.785 14.0288 12.5958C13.9272 12.4066 13.856 12.031 13.8331 11.8668H12.046V14.4921Z" fill="#D74B4B"/>
<path d="M12.0649 11.8698H10.2562C10.2562 10.8914 10.0794 10.4948 9.99103 10.4188L10.6539 9.65173C11.3206 10.0331 11.8724 9.81065 12.0649 9.65173V11.8698Z" fill="#64BEDB"/>
<path d="M12.046 11.8668L13.8355 11.8668C13.8355 10.8883 14.0104 10.4917 14.0979 10.4157L13.442 9.64868C12.7824 10.0301 12.2365 9.8076 12.046 9.64868L12.046 11.8668Z" fill="#F8D74C"/>
<path d="M10.7306 12.8666C10.489 13.272 10.6769 13.5276 10.8011 13.6047C11.0205 13.741 11.4402 13.725 11.7573 13.6047C11.9916 13.5158 12.0089 13.4078 12.0089 13.2962L12.0089 13.2945C12.0089 13.2033 12.0089 13.1098 12.3209 13.2412C12.635 13.3734 12.8745 13.4652 12.955 13.4946C13.0758 13.5313 13.3536 13.543 13.4986 13.2962C13.6435 13.0495 13.4851 12.8335 13.3878 12.7564C13.2738 12.7087 13.1872 12.7752 13.2671 12.8666C13.4442 13.0693 13.3409 13.2008 13.2671 13.2412C13.2201 13.2999 13.0476 13.3337 12.7336 12.9988C12.4196 12.6639 12.0089 12.3268 11.6667 12.3268C11.4553 12.3378 10.9722 12.4612 10.7306 12.8666Z" fill="#F8D74C"/>
<path d="M12.9205 11.1086H13.1336V11.6493H12.9205V11.1086Z" fill="#E77D42"/>
<path d="M12.8528 11.2782H13.2886L13.337 11.1192H13.4823L13.5307 10.9708C13.605 10.9496 13.7361 10.8394 13.6663 10.568L13.5888 10.4089C13.5598 10.4089 13.4862 10.3814 13.4242 10.2711C13.3622 10.1609 13.3403 10.1051 13.337 10.091H13.1918L13.124 10.038C13.0594 10.0627 12.9302 10.1228 12.9302 10.1652C12.9302 10.2075 12.8786 10.1828 12.8528 10.1652L12.7862 10.2561C12.7684 10.2398 12.7364 10.2365 12.6991 10.2414C12.6684 10.2455 12.634 10.255 12.601 10.2672C12.5437 10.2884 12.4904 10.3175 12.4666 10.3398C12.3988 10.4034 12.4557 10.6103 12.3589 10.6527C12.2814 10.6867 12.3266 10.7092 12.3589 10.7163L12.4557 10.8223V11.0343L12.601 11.1192L12.8528 11.2782Z" fill="#3FB47C"/>
<path d="M10.786 10.4914L10.5942 10.7031L10.6251 10.8056L10.8478 10.8503C10.837 10.9199 10.8952 11.0592 11.2144 11.0592C11.5337 11.0592 11.6186 10.7371 11.6211 10.5761L11.6414 10.2934H11.813V10.2437L11.7574 10.189L11.6211 10.0682L11.497 10.038C11.5101 10.1307 11.5286 10.3439 11.497 10.4552C11.4654 10.5664 11.3785 10.5821 11.339 10.5761L11.1246 10.4914H10.786Z" fill="#F8D74C"/>
<path d="M10.6854 10.7642H10.9175L10.7643 11.6493H10.6854V10.7642Z" fill="#F8D74C"/>
<path d="M11.1634 10.7642H11.3954L11.2423 11.6493H11.1634V10.7642Z" fill="#F8D74C"/>
<path fill-rule="evenodd" clip-rule="evenodd" d="M8.81899 12.4627C8.71732 10.9883 9.27968 9.35197 9.60078 8.68604L9.68489 8.73462C9.36804 9.39172 8.81403 11.0077 8.91382 12.4549C8.96361 13.177 9.17579 13.852 9.65652 14.3468C10.1371 14.8414 10.893 15.1629 12.0435 15.1629V15.267C10.8773 15.267 10.095 14.9409 9.59138 14.4226C9.08793 13.9045 8.86992 13.2013 8.81899 12.4627Z" fill="#3FB47C"/>
<path fill-rule="evenodd" clip-rule="evenodd" d="M12.8067 14.5519C12.9135 14.565 13.007 14.6274 13.0695 14.7413C13.1207 14.8347 13.1466 14.9341 13.1297 15.0331C13.1125 15.1331 13.0566 15.2038 12.9982 15.2502C12.8885 15.3372 12.7377 15.3659 12.6423 15.3717L12.6344 15.3722L12.3326 15.372C12.5805 15.5578 13.004 15.6842 13.6786 15.4901L13.7511 15.7922C12.9747 16.0155 12.4514 15.8572 12.1351 15.6021C12.0624 15.6966 11.9706 15.7832 11.8566 15.8517C11.5336 16.0457 11.0654 16.0745 10.4195 15.7857L10.5274 15.4966C11.125 15.7638 11.4971 15.7114 11.7194 15.5779C11.8057 15.5261 11.8743 15.4592 11.9277 15.3863C11.9242 15.3815 11.9207 15.3767 11.9173 15.372H11.1581L11.1419 15.3678C11.1006 15.3571 11.053 15.3385 11.0082 15.3099C10.9641 15.2819 10.9143 15.2388 10.8809 15.1749C10.845 15.1064 10.8338 15.0245 10.8558 14.9384C10.8764 14.8576 10.9237 14.7823 10.9886 14.7112C11.1613 14.5223 11.3972 14.5628 11.5664 14.6335C11.7429 14.7073 11.9085 14.8366 12.0082 14.9326L12.0365 14.9598L12.0488 14.9987C12.0545 15.0164 12.0619 15.0358 12.0712 15.0564C12.0732 15.0458 12.075 15.0353 12.0765 15.025L12.0838 14.9759L12.1156 14.9404C12.2104 14.8349 12.3675 14.6902 12.5307 14.6104C12.612 14.5706 12.7088 14.5399 12.8067 14.5519ZM11.6925 15.0597C11.6233 15.008 11.5437 14.9583 11.4646 14.9252C11.3223 14.8658 11.2376 14.8804 11.1903 14.9321C11.1453 14.9814 11.1333 15.0116 11.1306 15.0224L11.1336 15.0259C11.1376 15.03 11.1435 15.0348 11.1516 15.04C11.1642 15.048 11.179 15.0548 11.1936 15.0597H11.6925ZM12.4181 15.0597H12.6302C12.7045 15.0546 12.7876 15.0316 12.8307 14.9974C12.8399 14.9901 12.8447 14.9843 12.8469 14.9808C12.8488 14.9779 12.8493 14.9755 12.8493 14.9755C12.8493 14.9755 12.8531 14.9535 12.8248 14.902C12.8077 14.8706 12.7923 14.8643 12.7749 14.8622C12.7488 14.859 12.7063 14.8665 12.6471 14.8954C12.57 14.9332 12.4884 14.9955 12.4181 15.0597Z" fill="#D74B4B"/>
<path d="M9.25492 8.7544L9.18056 9.98551L9.0039 10.7799L8.87376 11.5014L8.83458 12.1508L8.87376 12.5494L9.00414 13.2164L9.18056 13.7732C9.18056 13.9935 9.7047 14.4735 9.96677 14.6859L10.7236 15.0522C10.441 15.0522 9.8498 14.808 9.58953 14.6859L8.38109 13.4142L9.18056 14.0551L8.09297 12.4985L9.18056 13.8211L9.0504 13.6177L8.18592 12.2747L8.92953 13.0377L8 11.5726L8.78079 12.5494L8.09297 10.9622L8.78079 12.2747L8.13942 10.4433L8.78079 11.8168L8.38109 10.1788L8.78079 11.5014L8.61349 10.1788L8.87376 10.9622L8.78079 9.51744L8.92953 10.3212L9.0039 9.04942L9.0504 9.98551L9.25492 8.7544Z" fill="#3FB47C"/>
<path d="M9.7161 9.0887L9.11743 10.0953L8.85748 11.349V12.7733L8.90053 13.0443L8.97861 13.3844L9.20421 13.7836L9.27346 13.989L9.69487 14.4883L10.202 14.8437L9.82024 13.989L9.7161 14.5303V13.4192L9.5773 14.3404L9.49054 12.9159L9.29965 13.913L9.42112 12.2606L9.03935 13.3527L9.36039 11.7573L8.90053 12.8684L9.42112 11.197L8.90053 12.1086L9.42112 10.8456L8.90053 11.7003L9.5773 9.76293L8.97861 10.931L9.7161 9.0887Z" fill="#3FB47C"/>
<path d="M14.6167 9.1015L14.3013 9.0097C14.6041 9.52356 14.9273 9.67547 15.0511 9.68719C15.337 9.35971 15.2497 8.70858 15.1703 8.42395L15.0511 8.68504L14.925 8.50864L14.89 8.76273L14.6167 8.46629L14.7568 8.90388L14.4275 8.68504L14.6167 9.1015Z" fill="#3FB47C"/>
<path d="M15.2577 10.8925L14.9874 10.705C15.1132 11.2889 15.3722 11.536 15.486 11.5865C15.86 11.367 15.9816 10.7214 15.9957 10.4261L15.8007 10.6358L15.7364 10.4283L15.6234 10.6582L15.4572 10.2899L15.4527 10.7497L15.209 10.4372L15.2577 10.8925Z" fill="#3FB47C"/>
<path d="M15.2029 12.6339L14.9623 12.409C15.0031 13.005 15.2239 13.2872 15.3292 13.3538C15.7308 13.1909 15.9437 12.5699 16 12.2797L15.777 12.4589L15.7431 12.2442L15.5983 12.4552L15.4867 12.0666L15.4163 12.5209L15.22 12.1762L15.2029 12.6339Z" fill="#3FB47C"/>
<path d="M14.5289 14.3449L14.5568 14.0155C14.1154 14.4147 14.0305 14.7637 14.0432 14.8883C14.4178 15.1069 15.0349 14.8937 15.2966 14.7597L15.0191 14.693L15.1663 14.534L14.9121 14.5489L15.1475 14.2211L14.7486 14.4449L14.8976 14.0769L14.5289 14.3449Z" fill="#3FB47C"/>
<path fill-rule="evenodd" clip-rule="evenodd" d="M14.8971 8.84499L15.3999 10.5789C15.4672 10.9093 15.5436 11.5596 15.5636 12.3057C15.5764 12.7803 15.4458 13.2326 15.3007 13.5786C15.228 13.7518 15.1513 13.8991 15.0864 14.0102C15.0221 14.1201 14.9677 14.1973 14.9391 14.2285C14.5733 14.6257 14.1114 15.09 13.0613 15.1953L13.104 15.1055C14.1208 15.0035 14.5094 14.5481 14.8663 14.1605C14.8873 14.1377 14.9372 14.0683 15.0008 13.9595C15.0637 13.8519 15.1384 13.7085 15.2092 13.5396C15.3511 13.2014 15.4766 12.7639 15.4644 12.3084C15.4445 11.5678 15.3686 10.9248 15.3029 10.601L14.8018 8.87303L14.8971 8.84499Z" fill="#3FB47C"/>
</g>
<defs>
<clipPath id="clip0_440_1140">
<rect width="24" height="24" rx="12" fill="white"/>
</clipPath>
</defs>
</svg>
