<svg width="32" height="24" viewBox="0 0 32 24" fill="none" xmlns="http://www.w3.org/2000/svg">
<g clip-path="url(#clip0_440_1130)">
<rect width="32" height="24" rx="2" fill="#F8D74C"/>
<path d="M0 24L-1.04907e-06 0L8 -3.49691e-07L8 24L0 24Z" fill="#485CC2"/>
<path d="M24 24L24 0L32 -3.49691e-07L32 24L24 24Z" fill="#3FB47C"/>
<path d="M18.1538 7L16.472 10.1783L18.1538 13.2927L20 10.1783L18.1538 7Z" fill="#3FB47C"/>
<path d="M13.6818 7L12 10.1783L13.6818 13.2927L15.528 10.1783L13.6818 7Z" fill="#3FB47C"/>
<path d="M14.2857 13.8856L15.9675 10.7073L17.8137 13.8856L15.9675 17L14.2857 13.8856Z" fill="#3FB47C"/>
</g>
<defs>
<clipPath id="clip0_440_1130">
<rect width="32" height="24" rx="2" fill="white"/>
</clipPath>
</defs>
</svg>
