<svg width="32" height="24" viewBox="0 0 32 24" fill="none" xmlns="http://www.w3.org/2000/svg">
<rect width="32" height="24" rx="2" fill="#F9F9F9"/>
<path d="M7.42569 11.5757C7.2233 11.1041 6.64473 10.8824 6.38074 10.8305C6.45363 11.0973 6.68156 11.651 7.01011 11.7313C7.33866 11.8117 7.72109 12.0015 7.87124 12.0864C7.90215 12.0931 7.97731 12.076 8.03065 11.9539C7.67867 11.9183 7.48068 11.687 7.42569 11.5757Z" fill="#3FB47C"/>
<path d="M8.25729 11.4704C8.11256 10.9775 8.41486 10.4316 8.5841 10.2202C8.69783 10.472 8.87515 11.0443 8.67455 11.3195C8.47395 11.5946 8.30162 11.9886 8.24052 12.1512C8.2211 12.1764 8.15265 12.2122 8.03422 12.1533C8.28124 11.8973 8.28586 11.5913 8.25729 11.4704Z" fill="#3FB47C"/>
<path d="M7.83638 12.6007C7.63399 12.129 7.05542 11.9073 6.79143 11.8554C6.86432 12.1222 7.09225 12.6759 7.4208 12.7563C7.74935 12.8366 8.13178 13.0264 8.28193 13.1113C8.31284 13.118 8.388 13.1009 8.44134 12.9789C8.08936 12.9433 7.89137 12.7119 7.83638 12.6007Z" fill="#3FB47C"/>
<path d="M8.66798 12.4953C8.52325 12.0024 8.82555 11.4565 8.99479 11.2451C9.10852 11.4969 9.28584 12.0692 9.08524 12.3444C8.88464 12.6195 8.71231 13.0135 8.65122 13.1761C8.63179 13.2013 8.56334 13.2371 8.44491 13.1783C8.69193 12.9222 8.69655 12.6163 8.66798 12.4953Z" fill="#3FB47C"/>
<path d="M8.32656 13.7169C8.12417 13.2453 7.5456 13.0235 7.28161 12.9716C7.3545 13.2384 7.58243 13.7921 7.91098 13.8725C8.23954 13.9529 8.62196 14.1427 8.77211 14.2275C8.80302 14.2342 8.87818 14.2171 8.93153 14.0951C8.57954 14.0595 8.38155 13.8281 8.32656 13.7169Z" fill="#3FB47C"/>
<path d="M9.15816 13.6115C9.01344 13.1187 9.31573 12.5727 9.48497 12.3614C9.59871 12.6131 9.77602 13.1855 9.57542 13.4606C9.37482 13.7358 9.20249 14.1297 9.1414 14.2923C9.12197 14.3176 9.05352 14.3533 8.9351 14.2945C9.18211 14.0384 9.18673 13.7325 9.15816 13.6115Z" fill="#3FB47C"/>
<path d="M8.82789 14.667C8.61157 14.2018 8.02667 13.9977 7.76126 13.9539C7.84205 14.2183 8.08634 14.7648 8.41713 14.8352C8.74793 14.9056 9.13583 15.0836 9.28842 15.1639C9.31952 15.1697 9.39414 15.1503 9.44383 15.0267C9.09095 15.0018 8.88617 14.7765 8.82789 14.667Z" fill="#3FB47C"/>
<path d="M9.65599 14.5364C9.49667 14.0482 9.7826 13.4933 9.94548 13.2769C10.0666 13.5251 10.2609 14.0918 10.0686 14.3729C9.87624 14.654 9.7157 15.0531 9.65947 15.2174C9.64081 15.2432 9.57345 15.2811 9.45333 15.2259C9.69262 14.9624 9.68814 14.6565 9.65599 14.5364Z" fill="#3FB47C"/>
<path d="M9.35628 15.5502C9.08735 15.1139 8.48277 14.9808 8.2141 14.9688C8.32509 15.2219 8.63125 15.7355 8.96793 15.766C9.30462 15.7966 9.71053 15.9273 9.87141 15.9888C9.90296 15.9908 9.9748 15.9627 10.0098 15.834C9.65645 15.8513 9.42689 15.652 9.35628 15.5502Z" fill="#3FB47C"/>
<path d="M10.1634 15.322C9.94844 14.8561 10.1678 14.271 10.3044 14.0368C10.4536 14.2688 10.7124 14.8084 10.5541 15.1105C10.3958 15.4125 10.2828 15.8279 10.2461 15.9978C10.2306 16.0257 10.1681 16.0712 10.0424 16.0307C10.2494 15.7406 10.2093 15.4374 10.1634 15.322Z" fill="#3FB47C"/>
<path d="M7.75227 10.6285C7.89319 10.1345 7.58669 9.591 7.41582 9.38098C7.30404 9.63364 7.13114 10.2073 7.33386 10.4809C7.53658 10.7545 7.71195 11.1471 7.77429 11.3092C7.79391 11.3342 7.86263 11.3695 7.9806 11.3097C7.73161 11.0556 7.72464 10.7497 7.75227 10.6285Z" fill="#3FB47C"/>
<path fill-rule="evenodd" clip-rule="evenodd" d="M7.76798 10.2762C8.86541 13.8523 10.5251 16.4223 11.7762 18.155L11.3768 18.45C10.1093 16.6945 8.41559 14.0738 7.29566 10.4244L7.76798 10.2762Z" fill="#3FB47C"/>
<path d="M24.6661 12.033H24.0238L25.7965 9.56335L25.29 12.7648L24.9408 12.1506C24.0336 14.6139 22.9696 16.446 21.994 17.8677L22.1812 18.2558L20.8068 20L20.7695 19.1228L19.9201 19.1596L21.175 17.5854L21.6076 17.5666C22.5996 16.1755 23.7453 14.4485 24.6661 12.033Z" fill="#485CC2"/>
<path fill-rule="evenodd" clip-rule="evenodd" d="M2.86163 4L12.2592 6.78599L11.873 8.73878L14.3686 8.44491L15.6063 5.87468C15.6492 5.71846 15.5908 5.40601 15.0141 5.40601C14.4374 5.40601 14.3123 5.56276 14.3218 5.64114C14.289 5.39091 14.3025 4.89044 14.6187 4.89044H15.0141C15.1267 4.85603 15.3722 4.73842 15.4539 4.54324C15.5355 4.34805 15.8281 4.24921 15.9642 4.22419C16.3446 4.16789 17.1686 4.26172 17.421 5.0875C17.6386 5.79952 18.1019 7.41376 18.3919 8.43245L20.9934 8.73878L20.6072 6.78599L30.0048 4L29.2324 6.34335L23.7483 9.91046L21.6371 12.1236L20.0665 11.9934L19.3714 12.1236L21.5084 15.0398L21.04 14.9487L21.7916 15.7428H22.5897L23.4394 16.0813V16.8364L22.9759 17.2269L22.4247 17.2269L22.6573 16.8364L22.2954 16.579L22 17L21.5084 16.2636L20.3755 15.4125V15.9511L18.4445 14.1545H18.1098L20.0665 16.5239L16.4438 19.604L12.7999 16.5239L14.7566 14.1545H14.4219L12.4909 15.9511V15.4125L11.3581 16.2636L11.0055 17.0401L10.6629 16.5239L10.2767 16.8364L10.5337 17.2269H9.8905L9.42705 16.8364V16.0813L10.2767 15.7428H11.0748L11.8264 14.9487L11.3581 15.0398L13.495 12.1236L12.7999 11.9934L11.2293 12.1236L9.11809 9.91046L3.63404 6.34335L2.86163 4ZM17.1676 8.86897H15.6988L16.4332 15.1709L17.1676 8.86897ZM16.292 4.75907C16.292 4.79376 16.1625 4.89982 16.0028 4.89982C15.8431 4.89982 15.7137 4.79272 15.7137 4.75907C15.7137 4.72541 15.8431 4.61831 16.0028 4.61831C16.1625 4.61831 16.292 4.72437 16.292 4.75907Z" fill="#F8D74C"/>
<rect x="28.8663" y="8.91821" width="0.910977" height="5.29127" fill="#64BEDB"/>
<path d="M2 8.91052H2.9399L4.12878 12.3465L5.39381 8.91052L6.25757 8.91052L4.73927 13.3859V14.1763H3.50222V13.3526H3.50701L2 8.91052Z" fill="#64BEDB"/>
<path d="M12.7259 10.3938H20.2867C20.2867 13.4358 17.7665 15.1331 16.5063 15.6015C15.2462 15.1331 12.7259 13.4358 12.7259 10.3938Z" fill="#F9F9F9"/>
<path d="M13.8749 13.6473C13.6591 13.3753 13.4612 13.076 13.2927 12.7493V10.3938H13.8749V13.6473Z" fill="#D74B4B"/>
<path d="M15.0186 14.7594C14.8231 14.6111 14.627 14.4456 14.4364 14.2628V10.3938H15.0186V14.7594Z" fill="#D74B4B"/>
<path d="M16.1623 15.4564C15.9806 15.3714 15.784 15.2668 15.5801 15.1424V10.3938H16.1623V15.4564Z" fill="#D74B4B"/>
<path d="M17.306 15.2176C17.0998 15.337 16.903 15.4356 16.7238 15.5136V10.3938H17.306V15.2176Z" fill="#D74B4B"/>
<path d="M18.4498 14.3809C18.2578 14.5554 18.0617 14.7127 17.8675 14.853V10.3938H18.4498V14.3809Z" fill="#D74B4B"/>
<path d="M19.5935 12.9802C19.4202 13.2787 19.2228 13.5523 19.0112 13.8014V10.3938H19.5935V12.9802Z" fill="#D74B4B"/>
<path d="M12.7259 7.65771L13.4903 7.81329C14.2334 7.96453 14.9988 7.96453 15.7419 7.81329L16.5063 7.65771L17.2707 7.81329C18.0138 7.96453 18.7793 7.96453 19.5224 7.81329L20.2867 7.65771V10.3938H12.7259V7.65771Z" fill="#485CC2"/>
</svg>
