<svg width="24" height="24" viewBox="0 0 24 24" fill="none" xmlns="http://www.w3.org/2000/svg">
<rect width="24" height="24" rx="2" fill="#F9F9F9"/>
<path d="M5.8748 11.6818C5.73026 11.3281 5.31707 11.1618 5.12854 11.1229C5.1806 11.323 5.34337 11.7383 5.57801 11.7986C5.81265 11.8588 6.08577 12.0012 6.19299 12.0648C6.21507 12.0699 6.26875 12.057 6.30684 11.9655C6.05547 11.9388 5.91408 11.7653 5.8748 11.6818Z" fill="#3FB47C"/>
<path d="M6.4687 11.6028C6.36534 11.2332 6.58123 10.8237 6.70209 10.6652C6.78332 10.854 6.90995 11.2833 6.76669 11.4896C6.62343 11.696 6.50035 11.9915 6.45672 12.1134C6.44285 12.1323 6.39397 12.1592 6.30939 12.1151C6.4858 11.923 6.4891 11.6935 6.4687 11.6028Z" fill="#3FB47C"/>
<path d="M6.1681 12.4505C6.02356 12.0968 5.61037 11.9305 5.42184 11.8916C5.4739 12.0917 5.63667 12.507 5.87131 12.5672C6.10595 12.6275 6.37906 12.7699 6.48629 12.8335C6.50837 12.8385 6.56204 12.8257 6.60014 12.7342C6.34877 12.7075 6.20737 12.534 6.1681 12.4505Z" fill="#3FB47C"/>
<path d="M6.762 12.3715C6.65864 12.0019 6.87453 11.5924 6.99539 11.4339C7.07661 11.6227 7.20325 12.052 7.05998 12.2583C6.91672 12.4647 6.79365 12.7602 6.75002 12.8821C6.73615 12.901 6.68727 12.9278 6.60269 12.8837C6.7791 12.6917 6.7824 12.4622 6.762 12.3715Z" fill="#3FB47C"/>
<path d="M6.51817 13.2877C6.37363 12.934 5.96044 12.7677 5.77191 12.7288C5.82397 12.9289 5.98674 13.3441 6.22138 13.4044C6.45602 13.4647 6.72913 13.6071 6.83636 13.6707C6.85844 13.6757 6.91211 13.6629 6.95021 13.5714C6.69884 13.5447 6.55744 13.3712 6.51817 13.2877Z" fill="#3FB47C"/>
<path d="M7.11206 13.2087C7.00871 12.8391 7.22459 12.4296 7.34546 12.2711C7.42668 12.4599 7.55331 12.8892 7.41005 13.0955C7.26679 13.3019 7.14372 13.5974 7.10009 13.7193C7.08622 13.7382 7.03733 13.765 6.95276 13.7209C7.12917 13.5289 7.13247 13.2994 7.11206 13.2087Z" fill="#3FB47C"/>
<path d="M6.8762 14.0003C6.72171 13.6514 6.304 13.4983 6.11445 13.4655C6.17215 13.6638 6.34661 14.0737 6.58285 14.1265C6.81909 14.1792 7.09611 14.3128 7.20509 14.373C7.2273 14.3773 7.28059 14.3628 7.31608 14.2701C7.06406 14.2514 6.91782 14.0825 6.8762 14.0003Z" fill="#3FB47C"/>
<path d="M7.46759 13.9024C7.35381 13.5362 7.55801 13.12 7.67433 12.9577C7.76087 13.1439 7.89959 13.5689 7.76224 13.7797C7.62489 13.9906 7.51024 14.2898 7.47008 14.4131C7.45675 14.4325 7.40865 14.4608 7.32286 14.4195C7.49375 14.2219 7.49055 13.9924 7.46759 13.9024Z" fill="#3FB47C"/>
<path d="M7.25355 14.6627C7.06149 14.3355 6.62973 14.2357 6.43785 14.2267C6.51712 14.4165 6.73577 14.8017 6.97621 14.8246C7.21666 14.8475 7.50655 14.9455 7.62144 14.9917C7.64397 14.9932 7.69528 14.9721 7.72025 14.8756C7.46792 14.8886 7.30398 14.7391 7.25355 14.6627Z" fill="#3FB47C"/>
<path d="M7.82999 14.4915C7.67645 14.1421 7.83313 13.7033 7.93067 13.5276C8.03722 13.7017 8.22206 14.1064 8.10901 14.3329C7.99596 14.5595 7.91525 14.871 7.88903 14.9984C7.87794 15.0193 7.83331 15.0535 7.74353 15.0231C7.89136 14.8055 7.86276 14.5781 7.82999 14.4915Z" fill="#3FB47C"/>
<path d="M6.10803 10.9714C6.20867 10.6009 5.98978 10.1933 5.86776 10.0358C5.78792 10.2253 5.66445 10.6555 5.80922 10.8607C5.95399 11.0659 6.07923 11.3603 6.12376 11.4819C6.13777 11.5007 6.18685 11.5271 6.2711 11.4823C6.09328 11.2917 6.0883 11.0623 6.10803 10.9714Z" fill="#3FB47C"/>
<path fill-rule="evenodd" clip-rule="evenodd" d="M6.11925 10.7072C6.90299 13.3893 8.08829 15.3168 8.98173 16.6164L8.69649 16.8375C7.79132 15.5209 6.58175 13.5554 5.78194 10.8184L6.11925 10.7072Z" fill="#3FB47C"/>
<path d="M18.1872 12.0247H17.7285L18.9945 10.1725L18.6328 12.5735L18.3834 12.1129C17.7355 13.9604 16.9756 15.3345 16.2789 16.4008L16.4126 16.6919L15.431 18L15.4044 17.3421L14.7978 17.3697L15.694 16.189L16.0029 16.1749C16.7114 15.1316 17.5296 13.8363 18.1872 12.0247Z" fill="#485CC2"/>
<path fill-rule="evenodd" clip-rule="evenodd" d="M2.61548 6L9.32684 8.0895L9.05103 9.55411L10.8333 9.33371L11.7172 7.40602C11.7478 7.28885 11.7061 7.05452 11.2943 7.05452C10.8824 7.05452 10.7931 7.17208 10.7999 7.23086C10.7764 7.04319 10.786 6.66783 11.0119 6.66783H11.2943C11.3747 6.64203 11.55 6.55382 11.6083 6.40743C11.6666 6.26104 11.8756 6.18691 11.9728 6.16814C12.2445 6.12592 12.833 6.19629 13.0132 6.81563C13.1686 7.34965 13.4994 8.56033 13.7066 9.32436L15.5645 9.55411L15.2887 8.0895L22 6L21.4484 7.75753L17.5319 10.4329L16.0242 12.0928L14.9025 11.9951L14.4061 12.0928L15.9322 14.2799L15.5977 14.2116L16.1345 14.8072H16.7045L17.3113 15.061V15.6273L16.9803 15.9203H16.5859L16.7461 15.6523L16.4844 15.4414L16.2578 15.793L15.9322 15.1977L15.1232 14.5594V14.9634L13.7441 13.6159H13.5051L14.9025 15.393L12.3153 17.7031L9.71297 15.393L11.1104 13.6159H10.8714L9.49232 14.9634V14.5594L8.68328 15.1977L8.43151 15.7802L8.18682 15.393L7.91102 15.6273L8.09455 15.9203H7.63521L7.30423 15.6273V15.061L7.91102 14.8072H8.48102L9.01777 14.2116L8.68328 14.2799L10.2094 12.0928L9.71297 11.9951L8.59134 12.0928L7.08359 10.4329L3.1671 7.75753L2.61548 6ZM12.8323 9.65175H11.7832L12.3077 14.3782L12.8323 9.65175ZM12.2069 6.5693C12.2069 6.59532 12.1144 6.67487 12.0004 6.67487C11.8863 6.67487 11.7939 6.59455 11.7939 6.5693C11.7939 6.54406 11.8863 6.46373 12.0004 6.46373C12.1144 6.46373 12.2069 6.54328 12.2069 6.5693Z" fill="#F8D74C"/>
<rect x="21.1868" y="9.6886" width="0.650695" height="3.96917" fill="#64BEDB"/>
<path d="M2 9.68286H2.67136L3.52055 12.2603L4.42414 9.68286L5.04111 9.68286L3.95661 13.04V13.6329H3.07301V13.015H3.07643L2 9.68286Z" fill="#64BEDB"/>
<path d="M9.65997 10.7954H15.0596C15.0596 13.0769 13.2597 14.3498 12.3598 14.7012C11.4599 14.3498 9.65997 13.0769 9.65997 10.7954Z" fill="#F9F9F9"/>
<path d="M10.4806 13.2355C10.3265 13.0315 10.1851 12.8071 10.0648 12.562V10.7954H10.4806V13.2355Z" fill="#D74B4B"/>
<path d="M11.2974 14.0696C11.1577 13.9583 11.0177 13.8342 10.8815 13.6971V10.7954H11.2974V14.0696Z" fill="#D74B4B"/>
<path d="M12.1142 14.5924C11.9844 14.5286 11.844 14.4501 11.6983 14.3568V10.7954H12.1142V14.5924Z" fill="#D74B4B"/>
<path d="M12.9309 14.4132C12.7837 14.5028 12.6431 14.5768 12.5151 14.6352V10.7954H12.9309V14.4132Z" fill="#D74B4B"/>
<path d="M13.7477 13.7857C13.6106 13.9166 13.4706 14.0346 13.3319 14.1398V10.7954H13.7477V13.7857Z" fill="#D74B4B"/>
<path d="M14.5645 12.7352C14.4408 12.959 14.2998 13.1643 14.1487 13.351V10.7954H14.5645V12.7352Z" fill="#D74B4B"/>
<path d="M9.65997 8.74329L10.2059 8.85997C10.7366 8.9734 11.2832 8.9734 11.8139 8.85997L12.3598 8.74329L12.9057 8.85997C13.4364 8.9734 13.983 8.9734 14.5137 8.85997L15.0596 8.74329V10.7954H9.65997V8.74329Z" fill="#485CC2"/>
</svg>
