<svg width="32" height="24" viewBox="0 0 32 24" fill="none" xmlns="http://www.w3.org/2000/svg">
<g clip-path="url(#clip0_440_1121)">
<rect width="32" height="24" rx="2" fill="#F9F9F9"/>
<path d="M32 0H0V2H32V0Z" fill="#D74B4B"/>
<path d="M32 4.40002H0V6.40002H32V4.40002Z" fill="#D74B4B"/>
<path d="M0 8.80005H32V10.8H0V8.80005Z" fill="#D74B4B"/>
<path d="M32 13.2001H0V15.2001H32V13.2001Z" fill="#D74B4B"/>
<path d="M0 17.6001H32V19.6001H0V17.6001Z" fill="#D74B4B"/>
<path d="M32 22.0001H0V24.0001H32V22.0001Z" fill="#D74B4B"/>
<path d="M0 0H17V15.2031H0V0Z" fill="#485CC2"/>
<path d="M2.61168 1.34629L2.5 1L2.38832 1.34629L2.02447 1.34549L2.3193 1.55871L2.20611 1.90451L2.5 1.69L2.79389 1.90451L2.6807 1.55871L2.97553 1.34549L2.61168 1.34629Z" fill="#F9F9F9"/>
<path d="M1.5 3L1.61168 3.34629L1.97553 3.34549L1.6807 3.55871L1.79389 3.90451L1.5 3.69L1.20611 3.90451L1.3193 3.55871L1.02447 3.34549L1.38832 3.34629L1.5 3Z" fill="#F9F9F9"/>
<path d="M2.61168 5.84629L2.5 5.5L2.38832 5.84629L2.02447 5.84549L2.3193 6.05871L2.20611 6.40451L2.5 6.19L2.79389 6.40451L2.6807 6.05871L2.97553 5.84549L2.61168 5.84629Z" fill="#F9F9F9"/>
<path d="M2.61168 10.3463L2.5 10L2.38832 10.3463L2.02447 10.3455L2.3193 10.5587L2.20611 10.9045L2.5 10.69L2.79389 10.9045L2.6807 10.5587L2.97553 10.3455L2.61168 10.3463Z" fill="#F9F9F9"/>
<path d="M1.61168 8.34629L1.5 8L1.38832 8.34629L1.02447 8.34549L1.3193 8.55871L1.20611 8.90451L1.5 8.69L1.79389 8.90451L1.6807 8.55871L1.97553 8.34549L1.61168 8.34629Z" fill="#F9F9F9"/>
<path d="M1.5 12L1.61168 12.3463L1.97553 12.3455L1.6807 12.5587L1.79389 12.9045L1.5 12.69L1.20611 12.9045L1.3193 12.5587L1.02447 12.3455L1.38832 12.3463L1.5 12Z" fill="#F9F9F9"/>
<path d="M5.61168 5.84629L5.5 5.5L5.38832 5.84629L5.02447 5.84549L5.3193 6.05871L5.20611 6.40451L5.5 6.19L5.79389 6.40451L5.6807 6.05871L5.97553 5.84549L5.61168 5.84629Z" fill="#F9F9F9"/>
<path d="M5.5 10L5.61168 10.3463L5.97553 10.3455L5.6807 10.5587L5.79389 10.9045L5.5 10.69L5.20611 10.9045L5.3193 10.5587L5.02447 10.3455L5.38832 10.3463L5.5 10Z" fill="#F9F9F9"/>
<path d="M4.11749 3.34629L4.00581 3L3.89413 3.34629L3.53028 3.34549L3.82511 3.55871L3.71191 3.90451L4.00581 3.69L4.2997 3.90451L4.18651 3.55871L4.48134 3.34549L4.11749 3.34629Z" fill="#F9F9F9"/>
<path d="M4.00581 8L4.11749 8.34629L4.48134 8.34549L4.18651 8.55871L4.2997 8.90451L4.00581 8.69L3.71191 8.90451L3.82511 8.55871L3.53028 8.34549L3.89413 8.34629L4.00581 8Z" fill="#F9F9F9"/>
<path d="M4.11749 12.3463L4.00581 12L3.89413 12.3463L3.53028 12.3455L3.82511 12.5587L3.71191 12.9045L4.00581 12.69L4.2997 12.9045L4.18651 12.5587L4.48134 12.3455L4.11749 12.3463Z" fill="#F9F9F9"/>
<path d="M8.5 5.5L8.61168 5.84629L8.97553 5.84549L8.6807 6.05871L8.79389 6.40451L8.5 6.19L8.20611 6.40451L8.3193 6.05871L8.02447 5.84549L8.38832 5.84629L8.5 5.5Z" fill="#F9F9F9"/>
<path d="M8.61168 10.3463L8.5 10L8.38832 10.3463L8.02447 10.3455L8.3193 10.5587L8.20611 10.9045L8.5 10.69L8.79389 10.9045L8.6807 10.5587L8.97553 10.3455L8.61168 10.3463Z" fill="#F9F9F9"/>
<path d="M7.00581 3L7.11749 3.34629L7.48134 3.34549L7.18651 3.55871L7.2997 3.90451L7.00581 3.69L6.71192 3.90451L6.82511 3.55871L6.53028 3.34549L6.89413 3.34629L7.00581 3Z" fill="#F9F9F9"/>
<path d="M7.11749 8.34629L7.00581 8L6.89413 8.34629L6.53028 8.34549L6.82511 8.55871L6.71192 8.90451L7.00581 8.69L7.2997 8.90451L7.18651 8.55871L7.48134 8.34549L7.11749 8.34629Z" fill="#F9F9F9"/>
<path d="M7.00581 12L7.11749 12.3463L7.48134 12.3455L7.18651 12.5587L7.2997 12.9045L7.00581 12.69L6.71192 12.9045L6.82511 12.5587L6.53028 12.3455L6.89413 12.3463L7.00581 12Z" fill="#F9F9F9"/>
<path d="M11.6117 5.84629L11.5 5.5L11.3883 5.84629L11.0245 5.84549L11.3193 6.05871L11.2061 6.40451L11.5 6.19L11.7939 6.40451L11.6807 6.05871L11.9755 5.84549L11.6117 5.84629Z" fill="#F9F9F9"/>
<path d="M11.5 10L11.6117 10.3463L11.9755 10.3455L11.6807 10.5587L11.7939 10.9045L11.5 10.69L11.2061 10.9045L11.3193 10.5587L11.0245 10.3455L11.3883 10.3463L11.5 10Z" fill="#F9F9F9"/>
<path d="M10.1175 3.34629L10.0058 3L9.89413 3.34629L9.53028 3.34549L9.82511 3.55871L9.71191 3.90451L10.0058 3.69L10.2997 3.90451L10.1865 3.55871L10.4813 3.34549L10.1175 3.34629Z" fill="#F9F9F9"/>
<path d="M10.0058 8L10.1175 8.34629L10.4813 8.34549L10.1865 8.55871L10.2997 8.90451L10.0058 8.69L9.71191 8.90451L9.82511 8.55871L9.53028 8.34549L9.89413 8.34629L10.0058 8Z" fill="#F9F9F9"/>
<path d="M10.1175 12.3463L10.0058 12L9.89413 12.3463L9.53028 12.3455L9.82511 12.5587L9.71191 12.9045L10.0058 12.69L10.2997 12.9045L10.1865 12.5587L10.4813 12.3455L10.1175 12.3463Z" fill="#F9F9F9"/>
<path d="M14.5 5.5L14.6117 5.84629L14.9755 5.84549L14.6807 6.05871L14.7939 6.40451L14.5 6.19L14.2061 6.40451L14.3193 6.05871L14.0245 5.84549L14.3883 5.84629L14.5 5.5Z" fill="#F9F9F9"/>
<path d="M14.6117 10.3463L14.5 10L14.3883 10.3463L14.0245 10.3455L14.3193 10.5587L14.2061 10.9045L14.5 10.69L14.7939 10.9045L14.6807 10.5587L14.9755 10.3455L14.6117 10.3463Z" fill="#F9F9F9"/>
<path d="M13.0058 3L13.1175 3.34629L13.4813 3.34549L13.1865 3.55871L13.2997 3.90451L13.0058 3.69L12.7119 3.90451L12.8251 3.55871L12.5303 3.34549L12.8941 3.34629L13.0058 3Z" fill="#F9F9F9"/>
<path d="M13.1175 8.34629L13.0058 8L12.8941 8.34629L12.5303 8.34549L12.8251 8.55871L12.7119 8.90451L13.0058 8.69L13.2997 8.90451L13.1865 8.55871L13.4813 8.34549L13.1175 8.34629Z" fill="#F9F9F9"/>
<path d="M13.0058 12L13.1175 12.3463L13.4813 12.3455L13.1865 12.5587L13.2997 12.9045L13.0058 12.69L12.7119 12.9045L12.8251 12.5587L12.5303 12.3455L12.8941 12.3463L13.0058 12Z" fill="#F9F9F9"/>
<path d="M5.5 1L5.61168 1.34629L5.97553 1.34549L5.6807 1.55871L5.79389 1.90451L5.5 1.69L5.20611 1.90451L5.3193 1.55871L5.02447 1.34549L5.38832 1.34629L5.5 1Z" fill="#F9F9F9"/>
<path d="M8.61168 1.34629L8.5 1L8.38832 1.34629L8.02447 1.34549L8.3193 1.55871L8.20611 1.90451L8.5 1.69L8.79389 1.90451L8.6807 1.55871L8.97553 1.34549L8.61168 1.34629Z" fill="#F9F9F9"/>
<path d="M11.5 1L11.6117 1.34629L11.9755 1.34549L11.6807 1.55871L11.7939 1.90451L11.5 1.69L11.2061 1.90451L11.3193 1.55871L11.0245 1.34549L11.3883 1.34629L11.5 1Z" fill="#F9F9F9"/>
<path d="M14.6117 1.34629L14.5 1L14.3883 1.34629L14.0245 1.34549L14.3193 1.55871L14.2061 1.90451L14.5 1.69L14.7939 1.90451L14.6807 1.55871L14.9755 1.34549L14.6117 1.34629Z" fill="#F9F9F9"/>
</g>
<defs>
<clipPath id="clip0_440_1121">
<rect width="32" height="24" rx="2" fill="white"/>
</clipPath>
</defs>
</svg>
