<svg width="24" height="24" viewBox="0 0 24 24" fill="none" xmlns="http://www.w3.org/2000/svg">
<g clip-path="url(#clip0_440_1120)">
<rect width="24" height="24" rx="2" fill="#F9F9F9"/>
<path d="M24 0H0V1.99999H24V0Z" fill="#D74B4B"/>
<path d="M24 4.4H0V6.39999H24V4.4Z" fill="#D74B4B"/>
<path d="M0 8.8H24V10.8H0V8.8Z" fill="#D74B4B"/>
<path d="M24 13.2H0V15.2H24V13.2Z" fill="#D74B4B"/>
<path d="M0 17.6H24V19.6H0V17.6Z" fill="#D74B4B"/>
<path d="M24 22H0V24H24V22Z" fill="#D74B4B"/>
<path d="M0 0H14.0245V15.2031H0V0Z" fill="#485CC2"/>
<path d="M2.31883 1.39254L2.43051 1.73883L2.79435 1.73803L2.49953 1.95126L2.61272 2.29705L2.31883 2.08254L2.02493 2.29705L2.13813 1.95126L1.8433 1.73803L2.20715 1.73883L2.31883 1.39254Z" fill="#F9F9F9"/>
<path d="M1.43051 3.73883L1.31883 3.39254L1.20715 3.73883L0.843298 3.73803L1.13813 3.95126L1.02493 4.29705L1.31883 4.08254L1.61272 4.29705L1.49953 3.95126L1.79435 3.73803L1.43051 3.73883Z" fill="#F9F9F9"/>
<path d="M2.31883 5.89254L2.43051 6.23883L2.79435 6.23803L2.49953 6.45126L2.61272 6.79705L2.31883 6.58254L2.02493 6.79705L2.13813 6.45126L1.8433 6.23803L2.20715 6.23883L2.31883 5.89254Z" fill="#F9F9F9"/>
<path d="M2.31883 10.3925L2.43051 10.7388L2.79435 10.738L2.49953 10.9513L2.61272 11.2971L2.31883 11.0825L2.02493 11.2971L2.13813 10.9513L1.8433 10.738L2.20715 10.7388L2.31883 10.3925Z" fill="#F9F9F9"/>
<path d="M1.31883 8.39254L1.43051 8.73883L1.79435 8.73803L1.49953 8.95126L1.61272 9.29705L1.31883 9.08254L1.02493 9.29705L1.13813 8.95126L0.843298 8.73803L1.20715 8.73883L1.31883 8.39254Z" fill="#F9F9F9"/>
<path d="M1.43051 12.7388L1.31883 12.3925L1.20715 12.7388L0.843298 12.738L1.13813 12.9513L1.02493 13.2971L1.31883 13.0825L1.61272 13.2971L1.49953 12.9513L1.79435 12.738L1.43051 12.7388Z" fill="#F9F9F9"/>
<path d="M5.31883 5.89254L5.43051 6.23883L5.79435 6.23803L5.49953 6.45126L5.61272 6.79705L5.31883 6.58254L5.02493 6.79705L5.13813 6.45126L4.8433 6.23803L5.20715 6.23883L5.31883 5.89254Z" fill="#F9F9F9"/>
<path d="M5.43051 10.7388L5.31883 10.3925L5.20715 10.7388L4.8433 10.738L5.13813 10.9513L5.02493 11.2971L5.31883 11.0825L5.61272 11.2971L5.49953 10.9513L5.79435 10.738L5.43051 10.7388Z" fill="#F9F9F9"/>
<path d="M3.82464 3.39254L3.93632 3.73883L4.30016 3.73803L4.00534 3.95126L4.11853 4.29705L3.82464 4.08254L3.53074 4.29705L3.64394 3.95126L3.34911 3.73803L3.71296 3.73883L3.82464 3.39254Z" fill="#F9F9F9"/>
<path d="M3.93632 8.73883L3.82464 8.39254L3.71296 8.73883L3.34911 8.73803L3.64394 8.95126L3.53074 9.29705L3.82464 9.08254L4.11853 9.29705L4.00534 8.95126L4.30016 8.73803L3.93632 8.73883Z" fill="#F9F9F9"/>
<path d="M3.82464 12.3925L3.93632 12.7388L4.30016 12.738L4.00534 12.9513L4.11853 13.2971L3.82464 13.0825L3.53074 13.2971L3.64394 12.9513L3.34911 12.738L3.71296 12.7388L3.82464 12.3925Z" fill="#F9F9F9"/>
<path d="M8.43051 6.23883L8.31883 5.89254L8.20715 6.23883L7.8433 6.23803L8.13813 6.45126L8.02494 6.79705L8.31883 6.58254L8.61272 6.79705L8.49953 6.45126L8.79436 6.23803L8.43051 6.23883Z" fill="#F9F9F9"/>
<path d="M8.31883 10.3925L8.43051 10.7388L8.79436 10.738L8.49953 10.9513L8.61272 11.2971L8.31883 11.0825L8.02494 11.2971L8.13813 10.9513L7.8433 10.738L8.20715 10.7388L8.31883 10.3925Z" fill="#F9F9F9"/>
<path d="M6.93632 3.73883L6.82464 3.39254L6.71296 3.73883L6.34911 3.73803L6.64394 3.95126L6.53074 4.29705L6.82464 4.08254L7.11853 4.29705L7.00534 3.95126L7.30016 3.73803L6.93632 3.73883Z" fill="#F9F9F9"/>
<path d="M6.82464 8.39254L6.93632 8.73883L7.30016 8.73803L7.00534 8.95126L7.11853 9.29705L6.82464 9.08254L6.53074 9.29705L6.64394 8.95126L6.34911 8.73803L6.71296 8.73883L6.82464 8.39254Z" fill="#F9F9F9"/>
<path d="M6.93632 12.7388L6.82464 12.3925L6.71296 12.7388L6.34911 12.738L6.64394 12.9513L6.53074 13.2971L6.82464 13.0825L7.11853 13.2971L7.00534 12.9513L7.30016 12.738L6.93632 12.7388Z" fill="#F9F9F9"/>
<path d="M11.3188 5.89254L11.4305 6.23883L11.7944 6.23803L11.4995 6.45126L11.6127 6.79705L11.3188 6.58254L11.0249 6.79705L11.1381 6.45126L10.8433 6.23803L11.2072 6.23883L11.3188 5.89254Z" fill="#F9F9F9"/>
<path d="M11.4305 10.7388L11.3188 10.3925L11.2072 10.7388L10.8433 10.738L11.1381 10.9513L11.0249 11.2971L11.3188 11.0825L11.6127 11.2971L11.4995 10.9513L11.7944 10.738L11.4305 10.7388Z" fill="#F9F9F9"/>
<path d="M9.82464 3.39254L9.93632 3.73883L10.3002 3.73803L10.0053 3.95126L10.1185 4.29705L9.82464 4.08254L9.53074 4.29705L9.64394 3.95126L9.34911 3.73803L9.71296 3.73883L9.82464 3.39254Z" fill="#F9F9F9"/>
<path d="M9.93632 8.73883L9.82464 8.39254L9.71296 8.73883L9.34911 8.73803L9.64394 8.95126L9.53074 9.29705L9.82464 9.08254L10.1185 9.29705L10.0053 8.95126L10.3002 8.73803L9.93632 8.73883Z" fill="#F9F9F9"/>
<path d="M9.82464 12.3925L9.93632 12.7388L10.3002 12.738L10.0053 12.9513L10.1185 13.2971L9.82464 13.0825L9.53074 13.2971L9.64394 12.9513L9.34911 12.738L9.71296 12.7388L9.82464 12.3925Z" fill="#F9F9F9"/>
<path d="M12.9363 3.73883L12.8246 3.39254L12.713 3.73883L12.3491 3.73803L12.6439 3.95126L12.5307 4.29705L12.8246 4.08254L13.1185 4.29705L13.0053 3.95126L13.3002 3.73803L12.9363 3.73883Z" fill="#F9F9F9"/>
<path d="M12.8246 8.39254L12.9363 8.73883L13.3002 8.73803L13.0053 8.95126L13.1185 9.29705L12.8246 9.08254L12.5307 9.29705L12.6439 8.95126L12.3491 8.73803L12.713 8.73883L12.8246 8.39254Z" fill="#F9F9F9"/>
<path d="M12.9363 12.7388L12.8246 12.3925L12.713 12.7388L12.3491 12.738L12.6439 12.9513L12.5307 13.2971L12.8246 13.0825L13.1185 13.2971L13.0053 12.9513L13.3002 12.738L12.9363 12.7388Z" fill="#F9F9F9"/>
<path d="M5.43051 1.73883L5.31883 1.39254L5.20715 1.73883L4.8433 1.73803L5.13813 1.95126L5.02493 2.29705L5.31883 2.08254L5.61272 2.29705L5.49953 1.95126L5.79435 1.73803L5.43051 1.73883Z" fill="#F9F9F9"/>
<path d="M8.31883 1.39254L8.43051 1.73883L8.79436 1.73803L8.49953 1.95126L8.61272 2.29705L8.31883 2.08254L8.02494 2.29705L8.13813 1.95126L7.8433 1.73803L8.20715 1.73883L8.31883 1.39254Z" fill="#F9F9F9"/>
<path d="M11.4305 1.73883L11.3188 1.39254L11.2072 1.73883L10.8433 1.73803L11.1381 1.95126L11.0249 2.29705L11.3188 2.08254L11.6127 2.29705L11.4995 1.95126L11.7944 1.73803L11.4305 1.73883Z" fill="#F9F9F9"/>
</g>
<defs>
<clipPath id="clip0_440_1120">
<rect width="24" height="24" rx="2" fill="white"/>
</clipPath>
</defs>
</svg>
