<svg width="24" height="24" viewBox="0 0 24 24" fill="none" xmlns="http://www.w3.org/2000/svg">
<rect width="24" height="24" rx="2" fill="#F9F9F9"/>
<path d="M13 3H24V6H13V3Z" fill="#485CC2"/>
<path d="M13 8H24V11H13V8Z" fill="#485CC2"/>
<path d="M0 13H24V16H0V13Z" fill="#485CC2"/>
<path d="M0 18H24V21H0V18Z" fill="#485CC2"/>
<path d="M6.46174 2.034C6.4672 1.98867 6.5328 1.98867 6.53826 2.034L6.79048 4.12817C6.79523 4.16761 6.84915 4.17504 6.86434 4.13835L7.6709 2.19004C7.68836 2.14786 7.75153 2.1656 7.74459 2.21073L7.42376 4.29545C7.41772 4.33471 7.46763 4.35645 7.49214 4.32522L8.79323 2.66727C8.82139 2.63139 8.87744 2.66555 8.85861 2.70712L7.98852 4.62778C7.97214 4.66395 8.01435 4.69838 8.04635 4.67494L9.74547 3.43031C9.78225 3.40337 9.82703 3.45142 9.7977 3.48636L8.44289 5.10051C8.41738 5.13091 8.44876 5.17547 8.48588 5.16155L10.457 4.42256C10.4997 4.40657 10.5299 4.46495 10.4922 4.49066L8.75317 5.67858C8.72041 5.70095 8.73864 5.75235 8.77813 5.74899L10.8751 5.57043C10.9205 5.56657 10.9338 5.63094 10.8907 5.64552L8.89633 6.31912C8.85877 6.3318 8.86248 6.38622 8.90142 6.39366L10.9687 6.78879C11.0134 6.79735 11.0089 6.86294 10.9635 6.86531L8.86177 6.97462C8.82219 6.97668 8.81112 7.03008 8.8466 7.04778L10.7308 7.98728C10.7716 8.00762 10.7497 8.06957 10.7052 8.05955L8.65205 7.59646C8.61338 7.58774 8.58835 7.63617 8.61775 7.66281L10.1792 9.07701C10.213 9.10763 10.1752 9.16134 10.1351 9.13967L8.28272 8.13854C8.24784 8.11968 8.21069 8.15955 8.23184 8.19315L9.35474 9.97717C9.37905 10.0158 9.32816 10.0573 9.29539 10.0256L7.78118 8.56064C7.75266 8.53305 7.70616 8.56139 7.71748 8.59946L8.31853 10.621C8.33154 10.6647 8.27138 10.6909 8.24835 10.6515L7.18461 8.83145C7.16458 8.79718 7.11218 8.81189 7.11283 8.85161L7.14745 10.9607C7.1482 11.0064 7.08321 11.0153 7.07165 10.9712L6.53727 8.9309C6.52721 8.89248 6.47279 8.89248 6.46273 8.9309L5.92835 10.9712C5.91679 11.0153 5.8518 11.0064 5.85255 10.9607L5.88717 8.85161C5.88782 8.81189 5.83542 8.79718 5.81539 8.83145L4.75165 10.6515C4.72862 10.6909 4.66846 10.6647 4.68147 10.621L5.28252 8.59946C5.29384 8.56139 5.24734 8.53305 5.21882 8.56064L3.70461 10.0256C3.67184 10.0573 3.62095 10.0158 3.64526 9.97717L4.76816 8.19315C4.78931 8.15955 4.75216 8.11968 4.71728 8.13854L2.8649 9.13967C2.8248 9.16134 2.78697 9.10763 2.82077 9.07701L4.38225 7.66281C4.41165 7.63617 4.38662 7.58774 4.34795 7.59646L2.29478 8.05955C2.25034 8.06957 2.22837 8.00762 2.26916 7.98728L4.1534 7.04778C4.18888 7.03008 4.17781 6.97668 4.13823 6.97462L2.03655 6.86531C1.99106 6.86294 1.98658 6.79735 2.03133 6.78879L4.09858 6.39366C4.13752 6.38622 4.14123 6.3318 4.10367 6.31912L2.10935 5.64552C2.06618 5.63094 2.07953 5.56657 2.12491 5.57043L4.22187 5.74899C4.26136 5.75235 4.27959 5.70095 4.24683 5.67858L2.50778 4.49066C2.47014 4.46495 2.50032 4.40657 2.54298 4.42256L4.51412 5.16155C4.55124 5.17547 4.58262 5.13091 4.55711 5.10051L3.2023 3.48636C3.17297 3.45142 3.21775 3.40337 3.25453 3.43031L4.95365 4.67494C4.98565 4.69838 5.02786 4.66395 5.01148 4.62778L4.14139 2.70712C4.12256 2.66555 4.17861 2.63139 4.20677 2.66727L5.50786 4.32522C5.53237 4.35645 5.58228 4.33471 5.57624 4.29545L5.25541 2.21073C5.24847 2.1656 5.31164 2.14786 5.3291 2.19004L6.13566 4.13835C6.15085 4.17504 6.20477 4.16761 6.20952 4.12817L6.46174 2.034Z" fill="#F8D74C"/>
<path fill-rule="evenodd" clip-rule="evenodd" d="M6.75222 4.1328L6.5 2.03863L6.24778 4.1328C6.23828 4.21168 6.13045 4.22654 6.10007 4.15315L5.2935 2.20484L5.61433 4.28956C5.62641 4.36809 5.52658 4.41155 5.47758 4.3491L4.17648 2.69115L5.04657 4.61181C5.07934 4.68416 4.99491 4.753 4.93091 4.70612L3.23179 3.4615L4.5866 5.07564C4.63763 5.13644 4.57486 5.22557 4.50062 5.19773L2.52948 4.45874L4.26854 5.64666C4.33404 5.69141 4.29759 5.7942 4.21861 5.78747L2.12165 5.60892L4.11598 6.28251C4.19109 6.30789 4.18367 6.41672 4.1058 6.43161L2.03854 6.82674L4.14023 6.93604C4.21939 6.94016 4.24153 7.04697 4.17056 7.08236L2.28632 8.02187L4.33949 7.55878C4.41683 7.54134 4.4669 7.6382 4.40808 7.69147L2.84661 9.10567L4.69899 8.10454C4.76876 8.06683 4.84305 8.14656 4.80075 8.21376L3.67785 9.99778L5.19206 8.53284C5.2491 8.47767 5.34209 8.53435 5.31945 8.61049L4.7184 10.632L5.78214 8.81193C5.8222 8.74337 5.92701 8.77281 5.9257 8.85225L5.89108 10.9613L6.42545 8.9211C6.44558 8.84425 6.55442 8.84425 6.57455 8.9211L7.10892 10.9613L7.0743 8.85225C7.07299 8.7728 7.1778 8.74337 7.21786 8.81193L8.2816 10.632L7.68055 8.61049C7.65791 8.53435 7.75091 8.47767 7.80794 8.53284L9.32215 9.99778L8.19925 8.21376C8.15695 8.14656 8.23124 8.06683 8.30101 8.10454L10.1534 9.10567L8.59192 7.69147C8.5331 7.6382 8.58318 7.54134 8.66051 7.55878L10.7137 8.02187L8.82944 7.08236C8.75847 7.04697 8.78061 6.94016 8.85977 6.93604L10.9615 6.82674L8.8942 6.43161C8.81633 6.41672 8.8089 6.30789 8.88402 6.28251L10.8783 5.60892L8.78139 5.78747C8.70241 5.7942 8.66596 5.69141 8.73146 5.64666L10.4705 4.45874L8.49938 5.19773C8.42514 5.22557 8.36237 5.13644 8.4134 5.07564L9.76821 3.4615L8.06909 4.70612C8.00509 4.753 7.92066 4.68416 7.95344 4.61181L8.82352 2.69115L7.52243 4.3491C7.47342 4.41155 7.37359 4.36809 7.38567 4.28956L7.7065 2.20484L6.89993 4.15315C6.86955 4.22654 6.76172 4.21168 6.75222 4.1328ZM6.53826 2.034C6.5328 1.98867 6.4672 1.98867 6.46174 2.034L6.20952 4.12817C6.20477 4.16761 6.15085 4.17504 6.13566 4.13835L5.3291 2.19004C5.31164 2.14786 5.24847 2.1656 5.25541 2.21073L5.57624 4.29545C5.58228 4.33471 5.53237 4.35645 5.50786 4.32522L4.20677 2.66727C4.17861 2.63139 4.12256 2.66555 4.14139 2.70712L5.01148 4.62778C5.02786 4.66395 4.98565 4.69838 4.95365 4.67494L3.25453 3.43031C3.21775 3.40337 3.17297 3.45142 3.2023 3.48636L4.55711 5.10051C4.58262 5.13091 4.55124 5.17547 4.51412 5.16155L2.54298 4.42256C2.50032 4.40657 2.47014 4.46495 2.50778 4.49066L4.24683 5.67858C4.27959 5.70095 4.26136 5.75235 4.22187 5.74899L2.12491 5.57043C2.07953 5.56657 2.06618 5.63094 2.10935 5.64552L4.10367 6.31912C4.14123 6.3318 4.13752 6.38622 4.09858 6.39366L2.03133 6.78879C1.98658 6.79735 1.99106 6.86294 2.03655 6.86531L4.13823 6.97462C4.17781 6.97668 4.18888 7.03008 4.1534 7.04778L2.26916 7.98728C2.22837 8.00762 2.25034 8.06957 2.29478 8.05955L4.34795 7.59646C4.38662 7.58774 4.41165 7.63617 4.38225 7.66281L2.82077 9.07701C2.78697 9.10763 2.8248 9.16134 2.8649 9.13967L4.71728 8.13854C4.75216 8.11968 4.78931 8.15955 4.76816 8.19315L3.64526 9.97717C3.62095 10.0158 3.67184 10.0573 3.70461 10.0256L5.21882 8.56064C5.24734 8.53305 5.29384 8.56139 5.28252 8.59946L4.68147 10.621C4.66846 10.6647 4.72862 10.6909 4.75165 10.6515L5.81539 8.83145C5.83542 8.79718 5.88782 8.81189 5.88717 8.85161L5.85255 10.9607C5.8518 11.0064 5.91679 11.0153 5.92835 10.9712L6.46273 8.9309C6.47279 8.89248 6.52721 8.89248 6.53727 8.9309L7.07165 10.9712C7.08321 11.0153 7.1482 11.0064 7.14745 10.9607L7.11283 8.85161C7.11218 8.81189 7.16458 8.79718 7.18461 8.83145L8.24835 10.6515C8.27138 10.6909 8.33154 10.6647 8.31853 10.621L7.71748 8.59946C7.70616 8.56139 7.75266 8.53305 7.78118 8.56064L9.29539 10.0256C9.32816 10.0573 9.37905 10.0158 9.35474 9.97717L8.23184 8.19315C8.21069 8.15955 8.24784 8.11968 8.28272 8.13854L10.1351 9.13967C10.1752 9.16134 10.213 9.10763 10.1792 9.07701L8.61775 7.66281C8.58835 7.63617 8.61338 7.58774 8.65205 7.59646L10.7052 8.05955C10.7497 8.06957 10.7716 8.00762 10.7308 7.98728L8.8466 7.04778C8.81112 7.03008 8.82219 6.97668 8.86177 6.97462L10.9635 6.86531C11.0089 6.86294 11.0134 6.79735 10.9687 6.78879L8.90142 6.39366C8.86248 6.38622 8.85877 6.3318 8.89633 6.31912L10.8907 5.64552C10.9338 5.63094 10.9205 5.56657 10.8751 5.57043L8.77813 5.74899C8.73864 5.75235 8.72041 5.70095 8.75317 5.67858L10.4922 4.49066C10.5299 4.46495 10.4997 4.40657 10.457 4.42256L8.48588 5.16155C8.44876 5.17547 8.41738 5.13091 8.44289 5.10051L9.7977 3.48636C9.82703 3.45142 9.78225 3.40337 9.74547 3.43031L8.04635 4.67494C8.01435 4.69838 7.97214 4.66395 7.98852 4.62778L8.85861 2.70712C8.87744 2.66555 8.82139 2.63139 8.79323 2.66727L7.49214 4.32522C7.46763 4.35645 7.41772 4.33471 7.42376 4.29545L7.74459 2.21073C7.75153 2.1656 7.68836 2.14786 7.6709 2.19004L6.86434 4.13835C6.84915 4.17504 6.79523 4.16761 6.79048 4.12817L6.53826 2.034Z" fill="#962122"/>
<path d="M5.63938 5.77975C5.83028 5.65283 6.07927 5.65613 6.26676 5.78807C6.3343 5.8356 6.37451 5.91314 6.37451 5.99586V6.40937C6.37451 6.46361 6.35473 6.51598 6.3189 6.55662L6.15657 6.74075L6.23358 6.80895L6.39591 6.62483C6.44833 6.56536 6.47727 6.48873 6.47727 6.40937V5.99586C6.47727 5.87958 6.42075 5.77059 6.32581 5.70377C6.1037 5.54746 5.80873 5.54355 5.58257 5.69391L5.43171 5.79421L5.48852 5.88005L5.63938 5.77975Z" fill="#962122"/>
<path d="M7.41739 5.69391C7.19123 5.54355 6.89626 5.54746 6.67415 5.70377C6.57921 5.77059 6.52269 5.87958 6.52269 5.99586V6.40937C6.52269 6.48873 6.55163 6.56536 6.60406 6.62483L6.76638 6.80895L6.84339 6.74075L6.68106 6.55662C6.64523 6.51598 6.62545 6.46361 6.62545 6.40937V5.99586C6.62545 5.91314 6.66566 5.8356 6.73321 5.78807C6.92069 5.65613 7.16968 5.65283 7.36058 5.77975L7.51144 5.88005L7.56825 5.79421L7.41739 5.69391Z" fill="#962122"/>
<path fill-rule="evenodd" clip-rule="evenodd" d="M5.91768 6.38043C5.68801 6.38043 5.50183 6.1607 5.50183 6.1607C5.50183 6.1607 5.68801 5.94098 5.91768 5.94098C6.14735 5.94098 6.33353 6.1607 6.33353 6.1607C6.33353 6.1607 6.14735 6.38043 5.91768 6.38043ZM5.69925 6.15492L5.69145 6.1607L5.69925 6.16649C5.76506 6.21453 5.84224 6.25167 5.91768 6.25167C5.99312 6.25167 6.0703 6.21453 6.13611 6.16649L6.14391 6.1607L6.13611 6.15492C6.0703 6.10688 5.99312 6.06973 5.91768 6.06973C5.84224 6.06973 5.76506 6.10688 5.69925 6.15492Z" fill="#962122"/>
<path fill-rule="evenodd" clip-rule="evenodd" d="M7.08683 6.38043C6.85716 6.38043 6.67098 6.1607 6.67098 6.1607C6.67098 6.1607 6.85716 5.94098 7.08683 5.94098C7.3165 5.94098 7.50268 6.1607 7.50268 6.1607C7.50268 6.1607 7.3165 6.38043 7.08683 6.38043ZM6.8684 6.15492L6.8606 6.1607L6.8684 6.16649C6.93421 6.21453 7.01139 6.25167 7.08683 6.25167C7.16227 6.25167 7.23945 6.21453 7.30526 6.16649L7.31306 6.1607L7.30526 6.15492C7.23945 6.10688 7.16227 6.06973 7.08683 6.06973C7.01139 6.06973 6.93421 6.10688 6.8684 6.15492Z" fill="#962122"/>
<path fill-rule="evenodd" clip-rule="evenodd" d="M6.27568 6.95235C6.29985 6.93558 6.32854 6.92659 6.35794 6.92659H6.43451C6.47204 6.92659 6.50246 6.95708 6.50246 6.99469V7.01109C6.50246 7.01997 6.50965 7.02718 6.51852 7.02718C6.52738 7.02718 6.53457 7.01997 6.53457 7.01109V6.99469C6.53457 6.95708 6.56499 6.92659 6.60252 6.92659H6.67909C6.70849 6.92659 6.73719 6.93558 6.76136 6.95235L6.98935 7.11056C7.03345 7.14115 7.03137 7.20716 6.98544 7.23491L6.70072 7.40692C6.64572 7.44014 6.58273 7.4577 6.51852 7.4577C6.4543 7.4577 6.39131 7.44014 6.33631 7.40692L6.0516 7.23491C6.00566 7.20716 6.00358 7.14115 6.04768 7.11056L6.27568 6.95235ZM6.35794 7.05534C6.35467 7.05534 6.35148 7.05634 6.34879 7.05821L6.19016 7.16829L6.40263 7.29665C6.43761 7.31778 6.47767 7.32895 6.51852 7.32895C6.55936 7.32895 6.59943 7.31778 6.63441 7.29665L6.84687 7.16829L6.68824 7.05821C6.68555 7.05634 6.68236 7.05534 6.67909 7.05534H6.65616C6.6375 7.11369 6.58293 7.15593 6.51852 7.15593C6.4541 7.15593 6.39953 7.11369 6.38087 7.05534H6.35794Z" fill="#962122"/>
</svg>
