<svg width="32" height="24" viewBox="0 0 32 24" fill="none" xmlns="http://www.w3.org/2000/svg">
<g clip-path="url(#clip0_440_1115)">
<rect width="32" height="24" rx="2" fill="#485CC2"/>
<path d="M0 0H32V8H0V0Z" fill="#F8D74C"/>
<path d="M0 16H32V24H0V16Z" fill="#D74B4B"/>
<path d="M16 9.52441L16.2245 10.2154H16.9511L16.3633 10.6424L16.5878 11.3334L16 10.9064L15.4122 11.3334L15.6367 10.6424L15.0489 10.2154H15.7755L16 9.52441Z" fill="#F9F9F9"/>
<path d="M18.8284 10.696L18.4986 11.3434L19.0123 11.8571L18.2947 11.7434L17.9649 12.3908L17.8512 11.6732L17.1336 11.5595L17.781 11.2297L17.6673 10.5121L18.1811 11.0258L18.8284 10.696Z" fill="#F9F9F9"/>
<path d="M19.309 13.7489L20 13.5244L19.309 13.2999V12.5734L18.882 13.1611L18.191 12.9366L18.618 13.5244L18.191 14.1122L18.882 13.8877L19.309 14.4755V13.7489Z" fill="#F9F9F9"/>
<path d="M12 13.5244L12.691 13.2999V12.5734L13.118 13.1611L13.809 12.9366L13.382 13.5244L13.809 14.1122L13.118 13.8877L12.691 14.4755V13.7489L12 13.5244Z" fill="#F9F9F9"/>
<path d="M13.8189 11.0258L13.1716 10.696L13.5014 11.3433L12.9877 11.8571L13.7053 11.7434L14.0351 12.3908L14.1488 11.6732L14.8664 11.5595L14.219 11.2297L14.3327 10.5121L13.8189 11.0258Z" fill="#F9F9F9"/>
</g>
<defs>
<clipPath id="clip0_440_1115">
<rect width="32" height="24" rx="2" fill="white"/>
</clipPath>
</defs>
</svg>
