<svg width="24" height="24" viewBox="0 0 24 24" fill="none" xmlns="http://www.w3.org/2000/svg">
<g clip-path="url(#clip0_440_1113)">
<rect width="24" height="24" rx="12" fill="#485CC2"/>
<path d="M0 0H24V8H0V0Z" fill="#F8D74C"/>
<path d="M0 16H24V24H0V16Z" fill="#D74B4B"/>
<path d="M12 9.52441L12.2245 10.2154H12.9511L12.3633 10.6424L12.5878 11.3334L12 10.9064L11.4122 11.3334L11.6367 10.6424L11.0489 10.2154H11.7755L12 9.52441Z" fill="#F9F9F9"/>
<path d="M14.8284 10.696L14.4986 11.3434L15.0123 11.8571L14.2947 11.7434L13.9649 12.3908L13.8512 11.6732L13.1336 11.5595L13.781 11.2297L13.6673 10.5121L14.1811 11.0258L14.8284 10.696Z" fill="#F9F9F9"/>
<path d="M15.309 13.7489L16 13.5244L15.309 13.2999V12.5734L14.882 13.1611L14.191 12.9366L14.618 13.5244L14.191 14.1122L14.882 13.8877L15.309 14.4755V13.7489Z" fill="#F9F9F9"/>
<path d="M8 13.5244L8.69098 13.2999V12.5734L9.11803 13.1611L9.80902 12.9366L9.38197 13.5244L9.80902 14.1122L9.11803 13.8877L8.69098 14.4755V13.7489L8 13.5244Z" fill="#F9F9F9"/>
<path d="M9.81894 11.0258L9.17158 10.696L9.50143 11.3433L8.98768 11.8571L9.70528 11.7434L10.0351 12.3908L10.1488 11.6732L10.8664 11.5595L10.219 11.2297L10.3327 10.5121L9.81894 11.0258Z" fill="#F9F9F9"/>
</g>
<defs>
<clipPath id="clip0_440_1113">
<rect width="24" height="24" rx="12" fill="white"/>
</clipPath>
</defs>
</svg>
