<svg width="24" height="24" viewBox="0 0 24 24" fill="none" xmlns="http://www.w3.org/2000/svg">
<rect width="24" height="24" rx="12" fill="#485CC2"/>
<path d="M7.99998 14L8.58572 15.7837L10.3455 15.1295L9.31613 16.6996L10.9248 17.6676L9.05545 17.8417L9.30163 19.7029L7.99998 18.35L6.69833 19.7029L6.94451 17.8417L5.0752 17.6676L6.68383 16.6996L5.65448 15.1295L7.41424 15.7837L7.99998 14Z" fill="#F9F9F9"/>
<path d="M18.3125 3L18.5687 3.78037L19.3386 3.49417L18.8883 4.18107L19.5921 4.60456L18.7742 4.68075L18.882 5.49502L18.3125 4.90313L17.743 5.49502L17.8507 4.68075L17.0329 4.60456L17.7367 4.18107L17.2863 3.49417L18.0562 3.78037L18.3125 3Z" fill="#F9F9F9"/>
<path d="M15.3125 8L15.5687 8.78037L16.3386 8.49417L15.8883 9.18107L16.5921 9.60456L15.7742 9.68075L15.882 10.495L15.3125 9.90312L14.743 10.495L14.8507 9.68075L14.0329 9.60456L14.7367 9.18107L14.2863 8.49417L15.0562 8.78037L15.3125 8Z" fill="#F9F9F9"/>
<path d="M22.1875 7.375L22.4437 8.15537L23.2136 7.86917L22.7633 8.55607L23.4671 8.97956L22.6492 9.05575L22.757 9.87002L22.1875 9.27812L21.618 9.87002L21.7257 9.05575L20.9079 8.97956L21.6117 8.55607L21.1613 7.86917L21.9312 8.15537L22.1875 7.375Z" fill="#F9F9F9"/>
<path d="M18.3125 16L18.5687 16.7804L19.3386 16.4942L18.8883 17.1811L19.5921 17.6046L18.7742 17.6807L18.882 18.495L18.3125 17.9031L17.743 18.495L17.8507 17.6807L17.0329 17.6046L17.7367 17.1811L17.2863 16.4942L18.0562 16.7804L18.3125 16Z" fill="#F9F9F9"/>
<path d="M19.875 11L20.1064 11.5564L20.7072 11.6046L20.2495 11.9967L20.3893 12.5829L19.875 12.2688L19.3607 12.5829L19.5005 11.9967L19.0428 11.6046L19.6435 11.5564L19.875 11Z" fill="#F9F9F9"/>
<g clip-path="url(#clip0_440_1612)">
<path fill-rule="evenodd" clip-rule="evenodd" d="M13.6094 0.916585L0.609375 11.9166L-0.609375 10.0833L12.3906 -0.916748L13.6094 0.916585Z" fill="#F9F9F9"/>
<path fill-rule="evenodd" clip-rule="evenodd" d="M-0.609375 0.916585L12.3906 11.9166L13.6094 10.0833L0.609375 -0.916748L-0.609375 0.916585Z" fill="#F9F9F9"/>
<path fill-rule="evenodd" clip-rule="evenodd" d="M12.8172 11.7333L-0.182813 0.733252L0.182813 0.183252L13.1828 11.1833L12.8172 11.7333Z" fill="#D74B4B"/>
<path fill-rule="evenodd" clip-rule="evenodd" d="M-0.225756 11.7352L13.5867 0.276861L13.2258 -0.277024L-0.586744 11.1813L-0.225756 11.7352Z" fill="#D74B4B"/>
<path d="M7.71875 1.20206e-07L7.71875 11H5.28125L5.28125 0L7.71875 1.20206e-07Z" fill="#F9F9F9"/>
<path d="M0 4.125H13V6.875H0V4.125Z" fill="#F9F9F9"/>
<path d="M0 4.58333H13V6.41667H0V4.58333Z" fill="#D74B4B"/>
<path d="M7.3125 8.01377e-08L7.3125 11H5.6875L5.6875 0L7.3125 8.01377e-08Z" fill="#D74B4B"/>
</g>
<defs>
<clipPath id="clip0_440_1612">
<rect width="13" height="11" fill="white"/>
</clipPath>
</defs>
</svg>
