<svg width="32" height="24" viewBox="0 0 32 24" fill="none" xmlns="http://www.w3.org/2000/svg">
<rect width="32" height="24" rx="2" fill="#485CC2"/>
<g clip-path="url(#clip0_440_1588)">
<path fill-rule="evenodd" clip-rule="evenodd" d="M16.75 1L0.75 13L-0.75 11L15.25 -1L16.75 1Z" fill="#F9F9F9"/>
<path fill-rule="evenodd" clip-rule="evenodd" d="M-0.75 1L15.25 13L16.75 11L0.75 -1L-0.75 1Z" fill="#F9F9F9"/>
<path fill-rule="evenodd" clip-rule="evenodd" d="M15.775 12.8L-0.225 0.8L0.225 0.2L16.225 12.2L15.775 12.8Z" fill="#D74B4B"/>
<path fill-rule="evenodd" clip-rule="evenodd" d="M-0.277853 12.8021L16.7221 0.302119L16.2779 -0.302119L-0.722147 12.1979L-0.277853 12.8021Z" fill="#D74B4B"/>
<path d="M9.5 1.31134e-07L9.5 12H6.5L6.5 0L9.5 1.31134e-07Z" fill="#F9F9F9"/>
<path d="M0 4.5H16V7.5H0V4.5Z" fill="#F9F9F9"/>
<path d="M0 5H16V7H0V5Z" fill="#D74B4B"/>
<path d="M9 8.74229e-08L9 12H7L7 0L9 8.74229e-08Z" fill="#D74B4B"/>
</g>
<path d="M19.8629 9L20.1979 10.0389L21.2895 10.0365L20.405 10.6761L20.7446 11.7135L19.8629 11.07L18.9812 11.7135L19.3208 10.6761L18.4363 10.0365L19.5279 10.0389L19.8629 9Z" fill="#D74B4B"/>
<path d="M24.0102 4.22656L24.3452 5.26542L25.4368 5.26304L24.5523 5.9027L24.8919 6.94009L24.0102 6.29656L23.1285 6.94009L23.4681 5.9027L22.5836 5.26304L23.6752 5.26542L24.0102 4.22656Z" fill="#D74B4B"/>
<path d="M24.0102 17.071L24.3452 18.1099L25.4368 18.1075L24.5523 18.7471L24.8919 19.7845L24.0102 19.141L23.1285 19.7845L23.4681 18.7471L22.5836 18.1075L23.6752 18.1099L24.0102 17.071Z" fill="#D74B4B"/>
<path d="M28.2783 9L28.6133 10.0389L29.7049 10.0365L28.8204 10.6761L29.1599 11.7135L28.2783 11.07L27.3966 11.7135L27.7362 10.6761L26.8517 10.0365L27.9432 10.0389L28.2783 9Z" fill="#D74B4B"/>
<defs>
<clipPath id="clip0_440_1588">
<rect width="16" height="12" fill="white"/>
</clipPath>
</defs>
</svg>
