<svg width="24" height="24" viewBox="0 0 24 24" fill="none" xmlns="http://www.w3.org/2000/svg">
<rect width="24" height="24" rx="12" fill="#D74B4B"/>
<path fill-rule="evenodd" clip-rule="evenodd" d="M11.5488 8.06876C12.5303 8.06876 13.4277 8.4284 14.1165 9.0231C13.2293 7.88373 11.8445 7.15088 10.2885 7.15088C7.61045 7.15088 5.43945 9.32187 5.43945 11.9999C5.43945 14.678 7.61045 16.849 10.2885 16.849C11.8444 16.849 13.2292 16.1162 14.1164 14.9769C13.4276 15.5715 12.5302 15.9311 11.5488 15.9311C9.3777 15.9311 7.61764 14.1711 7.61764 12C7.61764 9.82881 9.3777 8.06876 11.5488 8.06876ZM16.8311 11.0004L15.7622 9.53911L15.768 11.3496L14.0479 11.9146L15.7716 12.4686L15.7775 14.2791L16.8369 12.811L18.5607 13.3649L17.4917 11.9036L18.5512 10.4354L16.8311 11.0004Z" fill="#F9F9F9"/>
</svg>
