<svg width="24" height="24" viewBox="0 0 24 24" fill="none" xmlns="http://www.w3.org/2000/svg">
<rect width="24" height="24" rx="12" fill="#D74B4B"/>
<path d="M11.3431 7.32932L11.6608 7.49263C11.6988 7.5122 11.6911 7.56875 11.6492 7.57737C11.616 7.5842 11.6018 7.62366 11.6229 7.65011L11.9999 8.12144V17.7496L11.3257 16.9191C11.2687 16.8488 11.266 16.7489 11.3191 16.6756L11.618 16.2637C11.6338 16.2419 11.6424 16.2156 11.6424 16.1887C11.6424 16.0755 11.5058 16.0183 11.4251 16.0978L11.0487 16.4687C10.9613 16.5548 10.8179 16.5427 10.7461 16.4434L10.7054 16.387C10.6423 16.2996 10.6599 16.1777 10.7452 16.1117L11.3375 15.6537C11.3911 15.6123 11.4072 15.5384 11.3758 15.4785C11.3386 15.4074 11.2492 15.3823 11.1804 15.4236L10.5536 15.7997C10.4735 15.8477 10.3701 15.8286 10.3125 15.7551C10.2417 15.6647 10.2694 15.5323 10.3704 15.4779L10.9979 15.1397C11.0791 15.0959 11.1032 14.9906 11.049 14.9159C11.0052 14.8555 10.9241 14.8357 10.8574 14.869L10.2916 15.1518C10.1971 15.199 10.0822 15.1646 10.0292 15.0733L9.98705 15.0007C9.928 14.8989 9.96907 14.7685 10.0757 14.7189L11.085 14.2499C11.1278 14.23 11.1622 14.1955 11.1821 14.1526L11.4423 13.5912C11.4836 13.5023 11.4543 13.3966 11.3731 13.3416L11.2793 13.278C11.204 13.2268 11.1036 13.2331 11.0351 13.2932L10.462 13.7965C10.4304 13.8242 10.4083 13.8613 10.399 13.9023L10.3442 14.1426C10.3102 14.2917 10.1281 14.349 10.0148 14.2462L9.8829 14.1265L8.96505 14.3713L9.40687 14.6047L9.38482 14.6464L9.43006 14.6704C9.58038 14.75 9.63773 14.9363 9.55815 15.0866L9.24095 14.9187L9.22001 14.9584L8.42496 14.5383L7.71216 14.9543L7.68922 14.915L7.38382 15.0937C7.2979 14.9469 7.34725 14.7583 7.49404 14.6724L7.534 14.649L7.51055 14.6088L7.68058 14.5096H7.17311V14.463H6.81293C6.81293 14.2929 6.95081 14.155 7.1209 14.155H7.17311V14.1096H7.77618L7.49805 13.9184L7.52351 13.8813L7.22832 13.6796C7.32428 13.5392 7.51592 13.5031 7.65635 13.5991L7.69798 13.6275L7.72466 13.5887L8.45757 14.0926L9.53023 13.8066L9.48006 13.7611C9.3581 13.6504 9.41463 13.4481 9.57627 13.4166L9.94585 13.3448C9.97415 13.3393 10.0009 13.3277 10.0243 13.3109L10.6521 12.86C10.7044 12.8224 10.7354 12.7619 10.7354 12.6975V12.2627C10.7354 12.1523 10.6459 12.0627 10.5354 12.0627H10.4681C10.3577 12.0627 10.2681 12.1523 10.2681 12.2627V12.6046C10.2681 12.7126 10.1806 12.8001 10.0726 12.8001C9.96462 12.8001 9.87708 12.7126 9.87708 12.6046V12.2627C9.87708 12.1523 9.78678 12.0627 9.67632 12.0627C9.65384 12.0627 9.63138 12.0665 9.61016 12.0739L7.51084 12.8083C7.4294 12.8368 7.33888 12.8098 7.28628 12.7414L7.22117 12.6568C7.13442 12.544 7.18986 12.3792 7.32716 12.3419L8.64227 11.9839C8.71351 11.9645 8.76294 11.8998 8.76294 11.8259C8.76294 11.7267 8.67527 11.6503 8.57693 11.6638L7.20791 11.8526C7.08773 11.8692 6.98059 11.7758 6.98059 11.6545V11.5967C6.98059 11.4935 7.05907 11.4073 7.16178 11.3976L8.61033 11.2608C8.69684 11.2526 8.76294 11.18 8.76294 11.0931C8.76294 11 8.68752 10.9246 8.59449 10.9246H7.18059C7.07013 10.9246 6.98059 10.8351 6.98059 10.7246V10.6115C6.98059 10.5011 7.07013 10.4115 7.18059 10.4115H8.61422C8.69635 10.4115 8.76294 10.345 8.76294 10.2628C8.76294 10.1849 8.70279 10.1202 8.62507 10.1145L7.16599 10.0077C7.06148 10.0001 6.98059 9.91304 6.98059 9.80825V9.74175C6.98059 9.62169 7.08563 9.52869 7.2048 9.54323L8.59725 9.71306C8.68532 9.72381 8.76294 9.65508 8.76294 9.56636C8.76294 9.4994 8.71792 9.4408 8.65323 9.42355L7.12906 9.01711C7.04151 8.99377 6.98059 8.91448 6.98059 8.82387V8.7354C6.98059 8.60143 7.10974 8.50534 7.23806 8.54383L8.61912 8.95814C8.6908 8.97965 8.76294 8.92597 8.76294 8.85114C8.76294 8.80255 8.73154 8.75954 8.68527 8.74473L7.11963 8.24374C7.0368 8.21723 6.98059 8.14023 6.98059 8.05325V7.97418C6.98059 7.83869 7.11249 7.7424 7.24154 7.7837L8.61468 8.22309C8.688 8.24656 8.76294 8.19185 8.76294 8.11487C8.76294 8.07506 8.7421 8.03815 8.70801 8.01758L7.07727 7.03372C7.01727 6.99752 6.98059 6.93255 6.98059 6.86247V6.76334C6.98059 6.6068 7.15232 6.51094 7.28557 6.59311L8.67207 7.4481C8.71177 7.47259 8.76294 7.44403 8.76294 7.39738C8.76294 7.36447 8.78962 7.33779 8.82253 7.33779H8.90558C8.92519 7.33779 8.94458 7.34183 8.96256 7.34966L9.72955 7.68385C9.7543 7.69464 9.77661 7.71032 9.79513 7.72995L10.1225 8.07693C10.1575 8.11405 10.177 8.16315 10.177 8.21418V8.74188C10.177 8.85233 10.2666 8.94188 10.377 8.94188H10.7731C10.8835 8.94188 10.9731 8.85233 10.9731 8.74188V8.19434C10.9731 8.15544 10.9618 8.11739 10.9405 8.08484L10.7605 7.80976C10.744 7.78457 10.7221 7.76343 10.6963 7.7479L10.1466 7.41706C10.1313 7.40782 10.1148 7.40069 10.0975 7.39585L9.14308 7.12795C9.12206 7.12205 9.10753 7.10288 9.10753 7.08105C9.10753 7.05074 9.13492 7.02778 9.16477 7.03309L9.45595 7.08486C9.55308 7.10212 9.64222 7.02743 9.64222 6.92878C9.64222 6.87951 9.61931 6.83304 9.58023 6.80303L9.45333 6.70562C9.41212 6.67399 9.35726 6.66652 9.3091 6.68598L9.27201 6.70097C9.19336 6.73276 9.10753 6.67487 9.10753 6.59004C9.10753 6.52396 9.1611 6.4704 9.22718 6.4704H9.52751C9.59556 6.4704 9.65553 6.42567 9.67493 6.36044C9.69434 6.29521 9.7543 6.25049 9.82236 6.25049H10.1514C10.1684 6.25049 10.1854 6.25267 10.2019 6.25698L11.0964 6.49069C11.2009 6.51799 11.2263 6.65473 11.1385 6.71765C11.0702 6.7666 11.0671 6.86709 11.1323 6.92013L11.4 7.13802C11.4381 7.16903 11.4161 7.2307 11.367 7.2307C11.3122 7.2307 11.2944 7.30428 11.3431 7.32932Z" fill="#333333"/>
<path d="M12.6568 7.32939L12.3391 7.49271C12.3011 7.51227 12.3088 7.56882 12.3507 7.57745C12.3839 7.58428 12.3981 7.62374 12.377 7.65019L11.9999 8.12144V17.7496L12.6742 16.9192C12.7312 16.8489 12.734 16.749 12.6808 16.6757L12.3819 16.2637C12.3661 16.2419 12.3576 16.2157 12.3576 16.1888C12.3576 16.0755 12.4941 16.0184 12.5748 16.0979L12.9513 16.4688C13.0386 16.5548 13.182 16.5428 13.2538 16.4435L13.2945 16.3871C13.3576 16.2996 13.34 16.1778 13.2547 16.1118L12.6624 15.6537C12.6088 15.6123 12.5927 15.5385 12.6241 15.4786C12.6613 15.4075 12.7507 15.3824 12.8196 15.4237L13.4463 15.7997C13.5264 15.8478 13.6298 15.8287 13.6874 15.7551C13.7582 15.6648 13.7305 15.5324 13.6295 15.478L13.002 15.1398C12.9208 15.096 12.8967 14.9907 12.9509 14.916C12.9947 14.8556 13.0758 14.8357 13.1425 14.8691L13.7083 15.1519C13.8028 15.1991 13.9177 15.1647 13.9707 15.0733L14.0129 15.0007C14.0719 14.899 14.0308 14.7685 13.9242 14.719L12.915 14.25C12.8721 14.2301 12.8377 14.1956 12.8178 14.1527L12.5576 13.5913C12.5164 13.5023 12.5457 13.3966 12.6268 13.3416L12.7206 13.278C12.7959 13.2269 12.8963 13.2332 12.9648 13.2933L13.5379 13.7965C13.5695 13.8243 13.5916 13.8613 13.6009 13.9024L13.6557 14.1426C13.6897 14.2918 13.8718 14.3491 13.9851 14.2463L14.117 14.1266L15.0349 14.3713L14.593 14.6048L14.6151 14.6465L14.5699 14.6705C14.4195 14.75 14.3622 14.9364 14.4418 15.0867L14.759 14.9188L14.7799 14.9584L15.575 14.5384L16.2878 14.9543L16.3107 14.915L16.6161 15.0938C16.702 14.947 16.6527 14.7583 16.5059 14.6724L16.4659 14.649L16.4894 14.6089L16.3193 14.5096H16.8268V14.4631H17.187C17.187 14.293 17.0491 14.1551 16.879 14.1551H16.8268V14.1096H16.2237L16.5019 13.9184L16.4764 13.8814L16.7716 13.6797C16.6756 13.5392 16.484 13.5032 16.3436 13.5992L16.3019 13.6276L16.2752 13.5888L15.5423 14.0927L14.4697 13.8067L14.5199 13.7612C14.6418 13.6505 14.5853 13.4481 14.4236 13.4167L14.0541 13.3448C14.0258 13.3393 13.999 13.3278 13.9756 13.311L13.3478 12.86C13.2955 12.8225 13.2645 12.762 13.2645 12.6976V12.2628C13.2645 12.1523 13.354 12.0628 13.4645 12.0628H13.5318C13.6422 12.0628 13.7318 12.1523 13.7318 12.2628V12.6047C13.7318 12.7127 13.8193 12.8002 13.9273 12.8002C14.0353 12.8002 14.1228 12.7127 14.1228 12.6047V12.2628C14.1228 12.1523 14.2131 12.0628 14.3236 12.0628C14.3461 12.0628 14.3685 12.0666 14.3897 12.074L16.4891 12.8083C16.5705 12.8368 16.661 12.8099 16.7136 12.7415L16.7787 12.6569C16.8655 12.5441 16.81 12.3793 16.6727 12.3419L15.3576 11.9839C15.2864 11.9645 15.237 11.8998 15.237 11.826C15.237 11.7267 15.3246 11.6503 15.423 11.6639L16.792 11.8527C16.9122 11.8693 17.0193 11.7759 17.0193 11.6546V11.5968C17.0193 11.4936 16.9408 11.4074 16.8381 11.3977L15.3896 11.2608C15.3031 11.2527 15.237 11.18 15.237 11.0931C15.237 11.0001 15.3124 10.9247 15.4054 10.9247H16.8193C16.9298 10.9247 17.0193 10.8351 17.0193 10.7247V10.6116C17.0193 10.5012 16.9298 10.4116 16.8193 10.4116H15.3857C15.3036 10.4116 15.237 10.345 15.237 10.2629C15.237 10.185 15.2971 10.1203 15.3748 10.1146L16.8339 10.0078C16.9384 10.0001 17.0193 9.91312 17.0193 9.80832V9.74183C17.0193 9.62177 16.9143 9.52876 16.7951 9.5433L15.4027 9.71314C15.3146 9.72388 15.237 9.65515 15.237 9.56643C15.237 9.49947 15.282 9.44088 15.3467 9.42363L16.8709 9.01719C16.9584 8.99384 17.0193 8.91455 17.0193 8.82394V8.73547C17.0193 8.6015 16.8902 8.50541 16.7619 8.54391L15.3808 8.95822C15.3091 8.97972 15.237 8.92605 15.237 8.85121C15.237 8.80263 15.2684 8.75961 15.3146 8.74481L16.8803 8.24381C16.9631 8.21731 17.0193 8.1403 17.0193 8.05333V7.97426C17.0193 7.83876 16.8874 7.74248 16.7584 7.78377L15.3852 8.22317C15.3119 8.24663 15.237 8.19193 15.237 8.11495C15.237 8.07513 15.2578 8.03822 15.2919 8.01765L16.9226 7.03379C16.9826 6.99759 17.0193 6.93262 17.0193 6.86255V6.76342C17.0193 6.60687 16.8476 6.51102 16.7143 6.59318L15.3278 7.44818C15.2881 7.47266 15.237 7.4441 15.237 7.39746C15.237 7.36455 15.2103 7.33787 15.1774 7.33787H15.0943C15.0747 7.33787 15.0553 7.34191 15.0373 7.34974L14.2704 7.68393C14.2456 7.69471 14.2233 7.71039 14.2048 7.73003L13.8774 8.07701C13.8424 8.11412 13.8229 8.16323 13.8229 8.21426V8.74195C13.8229 8.85241 13.7333 8.94195 13.6229 8.94195H13.2268C13.1164 8.94195 13.0268 8.85241 13.0268 8.74195V8.19441C13.0268 8.15552 13.0382 8.11746 13.0595 8.08492L13.2394 7.80983C13.2559 7.78465 13.2779 7.7635 13.3036 7.74798L13.8533 7.41713C13.8686 7.4079 13.8851 7.40077 13.9024 7.39593L14.8568 7.12802C14.8778 7.12212 14.8924 7.10296 14.8924 7.08113C14.8924 7.05081 14.865 7.02786 14.8351 7.03317L14.544 7.08493C14.4468 7.1022 14.3577 7.02751 14.3577 6.92885C14.3577 6.87958 14.3806 6.83311 14.4197 6.80311L14.5466 6.70569C14.5878 6.67406 14.6426 6.66659 14.6908 6.68606L14.7279 6.70105C14.8065 6.73283 14.8924 6.67495 14.8924 6.59012C14.8924 6.52404 14.8388 6.47047 14.7727 6.47047H14.4724C14.4043 6.47047 14.3444 6.42575 14.325 6.36052C14.3056 6.29529 14.2456 6.25056 14.1776 6.25056H13.8486C13.8315 6.25056 13.8145 6.25275 13.798 6.25706L12.9035 6.49077C12.799 6.51807 12.7736 6.65481 12.8614 6.71772C12.9297 6.76667 12.9328 6.86716 12.8676 6.92021L12.5999 7.13809C12.5619 7.1691 12.5838 7.23077 12.6329 7.23077C12.6877 7.23077 12.7055 7.30435 12.6568 7.32939Z" fill="#333333"/>
</svg>
