<svg width="24" height="24" viewBox="0 0 24 24" fill="none" xmlns="http://www.w3.org/2000/svg">
<rect width="24" height="24" rx="2" fill="#D74B4B"/>
<path fill-rule="evenodd" clip-rule="evenodd" d="M11.3432 7.32932L11.6608 7.49263C11.6989 7.5122 11.6912 7.56875 11.6492 7.57737C11.6161 7.5842 11.6018 7.62366 11.623 7.65011L11.9999 8.12144V17.7496L11.3258 16.9191C11.2687 16.8488 11.266 16.7489 11.3192 16.6756L11.6181 16.2637C11.6339 16.2419 11.6424 16.2156 11.6424 16.1887C11.6424 16.0755 11.5059 16.0183 11.4252 16.0978L11.0487 16.4687C10.9614 16.5548 10.818 16.5427 10.7462 16.4434L10.7055 16.387C10.6423 16.2996 10.6599 16.1777 10.7453 16.1117L11.3376 15.6537C11.3911 15.6123 11.4073 15.5384 11.3759 15.4785C11.3386 15.4074 11.2492 15.3823 11.1804 15.4236L10.5536 15.7997C10.4735 15.8477 10.3702 15.8286 10.3126 15.7551C10.2418 15.6647 10.2695 15.5323 10.3705 15.4779L10.998 15.1397C11.0792 15.0959 11.1033 14.9906 11.0491 14.9159C11.0053 14.8555 10.9242 14.8357 10.8575 14.869L10.2916 15.1518C10.1972 15.199 10.0823 15.1646 10.0293 15.0733L9.98711 15.0007C9.92806 14.8989 9.96913 14.7685 10.0758 14.7189L11.085 14.2499C11.1279 14.23 11.1623 14.1955 11.1822 14.1526L11.4424 13.5912C11.4836 13.5023 11.4543 13.3966 11.3732 13.3416L11.2794 13.278C11.204 13.2268 11.1036 13.2331 11.0352 13.2932L10.4621 13.7965C10.4304 13.8242 10.4084 13.8613 10.399 13.9023L10.3442 14.1426C10.3102 14.2917 10.1282 14.349 10.0149 14.2462L9.88296 14.1265L8.96511 14.3713L9.40693 14.6047L9.38488 14.6464L9.43012 14.6704C9.58044 14.75 9.63779 14.9363 9.55821 15.0866L9.24101 14.9187L9.22007 14.9584L8.42502 14.5383L7.71222 14.9543L7.68928 14.915L7.38389 15.0937C7.29796 14.9469 7.34731 14.7583 7.4941 14.6724L7.53406 14.649L7.51061 14.6088L7.68064 14.5096H7.17317V14.463H6.81299C6.81299 14.2929 6.95087 14.155 7.12096 14.155H7.17317V14.1096H7.77625L7.49811 13.9184L7.52357 13.8813L7.22838 13.6796C7.32434 13.5392 7.51598 13.5031 7.65641 13.5991L7.69804 13.6275L7.72472 13.5887L8.45763 14.0926L9.53029 13.8066L9.48012 13.7611C9.35816 13.6504 9.41469 13.4481 9.57633 13.4166L9.94591 13.3448C9.97421 13.3393 10.001 13.3277 10.0244 13.3109L10.6522 12.86C10.7045 12.8224 10.7355 12.7619 10.7355 12.6975V12.2627C10.7355 12.1523 10.646 12.0627 10.5355 12.0627H10.4682C10.3577 12.0627 10.2682 12.1523 10.2682 12.2627V12.6046C10.2682 12.7126 10.1806 12.8001 10.0727 12.8001C9.96468 12.8001 9.87714 12.7126 9.87714 12.6046V12.2627C9.87714 12.1523 9.78684 12.0627 9.67638 12.0627C9.6539 12.0627 9.63144 12.0665 9.61022 12.0739L7.5109 12.8083C7.42946 12.8368 7.33894 12.8098 7.28634 12.7414L7.22124 12.6568C7.13448 12.544 7.18993 12.3792 7.32723 12.3419L8.64233 11.9839C8.71357 11.9645 8.763 11.8998 8.763 11.8259C8.763 11.7267 8.67533 11.6503 8.57699 11.6638L7.20797 11.8526C7.08779 11.8692 6.98065 11.7758 6.98065 11.6545V11.5967C6.98065 11.4935 7.05913 11.4073 7.16184 11.3976L8.61039 11.2608C8.6969 11.2526 8.763 11.18 8.763 11.0931C8.763 11 8.68758 10.9246 8.59455 10.9246H7.18065C7.07019 10.9246 6.98065 10.8351 6.98065 10.7246V10.6115C6.98065 10.5011 7.07019 10.4115 7.18065 10.4115H8.61428C8.69642 10.4115 8.763 10.345 8.763 10.2628C8.763 10.1849 8.70285 10.1202 8.62513 10.1145L7.16605 10.0077C7.06154 10.0001 6.98065 9.91304 6.98065 9.80825V9.74175C6.98065 9.62169 7.08569 9.52869 7.20486 9.54323L8.59731 9.71306C8.68538 9.72381 8.763 9.65508 8.763 9.56636C8.763 9.4994 8.71799 9.4408 8.65329 9.42355L7.12912 9.01711C7.04157 8.99377 6.98065 8.91448 6.98065 8.82387V8.7354C6.98065 8.60143 7.1098 8.50534 7.23812 8.54383L8.61918 8.95814C8.69086 8.97965 8.763 8.92597 8.763 8.85114C8.763 8.80255 8.7316 8.75954 8.68533 8.74473L7.1197 8.24374C7.03686 8.21723 6.98065 8.14023 6.98065 8.05325V7.97418C6.98065 7.83869 7.11255 7.7424 7.2416 7.7837L8.61474 8.22309C8.68806 8.24656 8.763 8.19185 8.763 8.11487C8.763 8.07506 8.74216 8.03815 8.70807 8.01758L7.07733 7.03372C7.01733 6.99752 6.98065 6.93255 6.98065 6.86247V6.76334C6.98065 6.6068 7.15238 6.51094 7.28563 6.59311L8.67213 7.4481C8.71183 7.47259 8.763 7.44403 8.763 7.39738C8.763 7.36447 8.78968 7.33779 8.82259 7.33779H8.90564C8.92525 7.33779 8.94464 7.34183 8.96262 7.34966L9.72961 7.68385C9.75436 7.69464 9.77667 7.71032 9.79519 7.72995L10.1226 8.07693C10.1576 8.11405 10.1771 8.16315 10.1771 8.21418V8.74188C10.1771 8.85233 10.2666 8.94188 10.3771 8.94188H10.7732C10.8836 8.94188 10.9732 8.85233 10.9732 8.74188V8.19434C10.9732 8.15544 10.9618 8.11739 10.9405 8.08484L10.7605 7.80976C10.7441 7.78457 10.7221 7.76343 10.6963 7.7479L10.1467 7.41706C10.1314 7.40782 10.1148 7.40069 10.0976 7.39585L9.14314 7.12795C9.12212 7.12205 9.10759 7.10288 9.10759 7.08105C9.10759 7.05074 9.13498 7.02778 9.16483 7.03309L9.45601 7.08486C9.55314 7.10212 9.64228 7.02743 9.64228 6.92878C9.64228 6.87951 9.61937 6.83304 9.58029 6.80303L9.45339 6.70562C9.41219 6.67399 9.35732 6.66652 9.30916 6.68598L9.27207 6.70097C9.19342 6.73276 9.10759 6.67487 9.10759 6.59004C9.10759 6.52396 9.16116 6.4704 9.22724 6.4704H9.52757C9.59562 6.4704 9.65559 6.42567 9.67499 6.36044C9.6944 6.29521 9.75436 6.25049 9.82242 6.25049H10.1514C10.1685 6.25049 10.1855 6.25267 10.202 6.25698L11.0965 6.49069C11.201 6.51799 11.2263 6.65473 11.1385 6.71765C11.0702 6.7666 11.0672 6.86709 11.1323 6.92013L11.4 7.13802C11.4381 7.16903 11.4162 7.2307 11.3671 7.2307C11.3123 7.2307 11.2945 7.30428 11.3432 7.32932ZM12.6568 7.32939L12.3392 7.49271C12.3011 7.51227 12.3089 7.56882 12.3508 7.57745C12.384 7.58428 12.3982 7.62374 12.3771 7.65019L12.0001 8.12152V17.7497L12.6742 16.9192C12.7313 16.8489 12.734 16.749 12.6808 16.6757L12.3819 16.2637C12.3661 16.2419 12.3576 16.2157 12.3576 16.1888C12.3576 16.0755 12.4942 16.0184 12.5748 16.0979L12.9513 16.4688C13.0386 16.5548 13.1821 16.5428 13.2538 16.4435L13.2945 16.3871C13.3577 16.2996 13.3401 16.1778 13.2547 16.1118L12.6624 15.6537C12.6089 15.6123 12.5928 15.5385 12.6242 15.4786C12.6614 15.4075 12.7508 15.3824 12.8196 15.4237L13.4464 15.7997C13.5265 15.8478 13.6298 15.8287 13.6874 15.7551C13.7582 15.6648 13.7306 15.5324 13.6295 15.478L13.002 15.1398C12.9208 15.096 12.8968 14.9907 12.9509 14.916C12.9947 14.8556 13.0758 14.8357 13.1426 14.8691L13.7084 15.1519C13.8029 15.1991 13.9177 15.1647 13.9708 15.0733L14.0129 15.0007C14.072 14.899 14.0309 14.7685 13.9242 14.719L12.915 14.25C12.8721 14.2301 12.8377 14.1956 12.8178 14.1527L12.5576 13.5913C12.5164 13.5023 12.5457 13.3966 12.6268 13.3416L12.7206 13.278C12.796 13.2269 12.8964 13.2332 12.9648 13.2933L13.538 13.7965C13.5696 13.8243 13.5916 13.8613 13.601 13.9024L13.6558 14.1426C13.6898 14.2918 13.8719 14.3491 13.9852 14.2463L14.1171 14.1266L15.0349 14.3713L14.5931 14.6048L14.6152 14.6465L14.5699 14.6705C14.4196 14.75 14.3622 14.9364 14.4418 15.0867L14.759 14.9188L14.78 14.9584L15.575 14.5384L16.2878 14.9543L16.3108 14.915L16.6161 15.0938C16.7021 14.947 16.6527 14.7583 16.5059 14.6724L16.466 14.649L16.4894 14.6089L16.3194 14.5096H16.8269V14.4631H17.187C17.187 14.293 17.0492 14.1551 16.8791 14.1551H16.8269V14.1096H16.2238L16.5019 13.9184L16.4765 13.8814L16.7717 13.6797C16.6757 13.5392 16.484 13.5032 16.3436 13.5992L16.302 13.6276L16.2753 13.5888L15.5424 14.0927L14.4697 13.8067L14.5199 13.7612C14.6419 13.6505 14.5853 13.4481 14.4237 13.4167L14.0541 13.3448C14.0258 13.3393 13.999 13.3278 13.9756 13.311L13.3478 12.86C13.2955 12.8225 13.2645 12.762 13.2645 12.6976V12.2628C13.2645 12.1523 13.3541 12.0628 13.4645 12.0628H13.5318C13.6423 12.0628 13.7318 12.1523 13.7318 12.2628V12.6047C13.7318 12.7127 13.8194 12.8002 13.9274 12.8002C14.0354 12.8002 14.1229 12.7127 14.1229 12.6047V12.2628C14.1229 12.1523 14.2132 12.0628 14.3236 12.0628C14.3461 12.0628 14.3686 12.0666 14.3898 12.074L16.4891 12.8083C16.5706 12.8368 16.6611 12.8099 16.7137 12.7415L16.7788 12.6569C16.8656 12.5441 16.8101 12.3793 16.6728 12.3419L15.3577 11.9839C15.2865 11.9645 15.237 11.8998 15.237 11.826C15.237 11.7267 15.3247 11.6503 15.423 11.6639L16.7921 11.8527C16.9122 11.8693 17.0194 11.7759 17.0194 11.6546V11.5968C17.0194 11.4936 16.9409 11.4074 16.8382 11.3977L15.3896 11.2608C15.3031 11.2527 15.237 11.18 15.237 11.0931C15.237 11.0001 15.3124 10.9247 15.4055 10.9247H16.8194C16.9298 10.9247 17.0194 10.8351 17.0194 10.7247V10.6116C17.0194 10.5012 16.9298 10.4116 16.8194 10.4116H15.3858C15.3036 10.4116 15.237 10.345 15.237 10.2629C15.237 10.185 15.2972 10.1203 15.3749 10.1146L16.834 10.0078C16.9385 10.0001 17.0194 9.91312 17.0194 9.80832V9.74183C17.0194 9.62177 16.9143 9.52876 16.7952 9.5433L15.4027 9.71314C15.3146 9.72388 15.237 9.65515 15.237 9.56643C15.237 9.49947 15.282 9.44088 15.3467 9.42363L16.8709 9.01719C16.9585 8.99384 17.0194 8.91455 17.0194 8.82394V8.73547C17.0194 8.6015 16.8902 8.50541 16.7619 8.54391L15.3808 8.95822C15.3092 8.97972 15.237 8.92605 15.237 8.85121C15.237 8.80263 15.2684 8.75961 15.3147 8.74481L16.8803 8.24381C16.9632 8.21731 17.0194 8.1403 17.0194 8.05333V7.97426C17.0194 7.83876 16.8875 7.74248 16.7584 7.78377L15.3853 8.22317C15.312 8.24663 15.237 8.19193 15.237 8.11495C15.237 8.07513 15.2579 8.03822 15.292 8.01765L16.9227 7.03379C16.9827 6.99759 17.0194 6.93262 17.0194 6.86255V6.76342C17.0194 6.60687 16.8477 6.51102 16.7144 6.59318L15.3279 7.44818C15.2882 7.47266 15.237 7.4441 15.237 7.39746C15.237 7.36455 15.2103 7.33787 15.1774 7.33787H15.0944C15.0748 7.33787 15.0554 7.34191 15.0374 7.34974L14.2704 7.68393C14.2457 7.69471 14.2234 7.71039 14.2048 7.73003L13.8775 8.07701C13.8424 8.11412 13.8229 8.16323 13.8229 8.21426V8.74195C13.8229 8.85241 13.7334 8.94195 13.6229 8.94195H13.2269C13.1164 8.94195 13.0269 8.85241 13.0269 8.74195V8.19441C13.0269 8.15552 13.0382 8.11746 13.0595 8.08492L13.2395 7.80983C13.256 7.78465 13.2779 7.7635 13.3037 7.74798L13.8533 7.41713C13.8687 7.4079 13.8852 7.40077 13.9024 7.39593L14.8569 7.12802C14.8779 7.12212 14.8924 7.10296 14.8924 7.08113C14.8924 7.05081 14.865 7.02786 14.8352 7.03317L14.544 7.08493C14.4469 7.1022 14.3577 7.02751 14.3577 6.92885C14.3577 6.87958 14.3807 6.83311 14.4197 6.80311L14.5466 6.70569C14.5878 6.67406 14.6427 6.66659 14.6909 6.68606L14.728 6.70105C14.8066 6.73283 14.8924 6.67495 14.8924 6.59012C14.8924 6.52404 14.8389 6.47047 14.7728 6.47047H14.4725C14.4044 6.47047 14.3444 6.42575 14.325 6.36052C14.3056 6.29529 14.2457 6.25056 14.1776 6.25056H13.8486C13.8316 6.25056 13.8146 6.25275 13.7981 6.25706L12.9035 6.49077C12.799 6.51807 12.7737 6.65481 12.8615 6.71772C12.9298 6.76667 12.9329 6.86716 12.8677 6.92021L12.6 7.13809C12.5619 7.1691 12.5838 7.23077 12.633 7.23077C12.6877 7.23077 12.7055 7.30435 12.6568 7.32939Z" fill="#333333"/>
</svg>
