<svg width="32" height="24" viewBox="0 0 32 24" fill="none" xmlns="http://www.w3.org/2000/svg">
<rect width="32" height="24" rx="2" fill="#D74B4B"/>
<path fill-rule="evenodd" clip-rule="evenodd" d="M15.3432 7.32932L15.6608 7.49263C15.6989 7.5122 15.6912 7.56875 15.6492 7.57737C15.6161 7.5842 15.6018 7.62366 15.623 7.65011L15.9999 8.12144V17.7496L15.3258 16.9191C15.2687 16.8488 15.266 16.7489 15.3192 16.6756L15.6181 16.2637C15.6339 16.2419 15.6424 16.2156 15.6424 16.1887C15.6424 16.0755 15.5059 16.0183 15.4252 16.0978L15.0487 16.4687C14.9614 16.5548 14.818 16.5427 14.7462 16.4434L14.7055 16.387C14.6423 16.2996 14.6599 16.1777 14.7453 16.1117L15.3376 15.6537C15.3911 15.6123 15.4073 15.5384 15.3759 15.4785C15.3386 15.4074 15.2492 15.3823 15.1804 15.4236L14.5536 15.7997C14.4735 15.8477 14.3702 15.8286 14.3126 15.7551C14.2418 15.6647 14.2695 15.5323 14.3705 15.4779L14.998 15.1397C15.0792 15.0959 15.1033 14.9906 15.0491 14.9159C15.0053 14.8555 14.9242 14.8357 14.8575 14.869L14.2916 15.1518C14.1972 15.199 14.0823 15.1646 14.0293 15.0733L13.9871 15.0007C13.9281 14.8989 13.9691 14.7685 14.0758 14.7189L15.085 14.2499C15.1279 14.23 15.1623 14.1955 15.1822 14.1526L15.4424 13.5912C15.4836 13.5023 15.4543 13.3966 15.3732 13.3416L15.2794 13.278C15.204 13.2268 15.1036 13.2331 15.0352 13.2932L14.4621 13.7965C14.4304 13.8242 14.4084 13.8613 14.399 13.9023L14.3442 14.1426C14.3102 14.2917 14.1282 14.349 14.0149 14.2462L13.883 14.1265L12.9651 14.3713L13.4069 14.6047L13.3849 14.6464L13.4301 14.6704C13.5804 14.75 13.6378 14.9363 13.5582 15.0866L13.241 14.9187L13.2201 14.9584L12.425 14.5383L11.7122 14.9543L11.6893 14.915L11.3839 15.0937C11.298 14.9469 11.3473 14.7583 11.4941 14.6724L11.5341 14.649L11.5106 14.6088L11.6806 14.5096H11.1732V14.463H10.813C10.813 14.2929 10.9509 14.155 11.121 14.155H11.1732V14.1096H11.7762L11.4981 13.9184L11.5236 13.8813L11.2284 13.6796C11.3243 13.5392 11.516 13.5031 11.6564 13.5991L11.698 13.6275L11.7247 13.5887L12.4576 14.0926L13.5303 13.8066L13.4801 13.7611C13.3582 13.6504 13.4147 13.4481 13.5763 13.4166L13.9459 13.3448C13.9742 13.3393 14.001 13.3277 14.0244 13.3109L14.6522 12.86C14.7045 12.8224 14.7355 12.7619 14.7355 12.6975V12.2627C14.7355 12.1523 14.646 12.0627 14.5355 12.0627H14.4682C14.3577 12.0627 14.2682 12.1523 14.2682 12.2627V12.6046C14.2682 12.7126 14.1806 12.8001 14.0727 12.8001C13.9647 12.8001 13.8771 12.7126 13.8771 12.6046V12.2627C13.8771 12.1523 13.7868 12.0627 13.6764 12.0627C13.6539 12.0627 13.6314 12.0665 13.6102 12.0739L11.5109 12.8083C11.4295 12.8368 11.3389 12.8098 11.2863 12.7414L11.2212 12.6568C11.1345 12.544 11.1899 12.3792 11.3272 12.3419L12.6423 11.9839C12.7136 11.9645 12.763 11.8998 12.763 11.8259C12.763 11.7267 12.6753 11.6503 12.577 11.6638L11.208 11.8526C11.0878 11.8692 10.9806 11.7758 10.9806 11.6545V11.5967C10.9806 11.4935 11.0591 11.4073 11.1618 11.3976L12.6104 11.2608C12.6969 11.2526 12.763 11.18 12.763 11.0931C12.763 11 12.6876 10.9246 12.5945 10.9246H11.1806C11.0702 10.9246 10.9806 10.8351 10.9806 10.7246V10.6115C10.9806 10.5011 11.0702 10.4115 11.1806 10.4115H12.6143C12.6964 10.4115 12.763 10.345 12.763 10.2628C12.763 10.1849 12.7029 10.1202 12.6251 10.1145L11.1661 10.0077C11.0615 10.0001 10.9806 9.91304 10.9806 9.80825V9.74175C10.9806 9.62169 11.0857 9.52869 11.2049 9.54323L12.5973 9.71306C12.6854 9.72381 12.763 9.65508 12.763 9.56636C12.763 9.4994 12.718 9.4408 12.6533 9.42355L11.1291 9.01711C11.0416 8.99377 10.9806 8.91448 10.9806 8.82387V8.7354C10.9806 8.60143 11.1098 8.50534 11.2381 8.54383L12.6192 8.95814C12.6909 8.97965 12.763 8.92597 12.763 8.85114C12.763 8.80255 12.7316 8.75954 12.6853 8.74473L11.1197 8.24374C11.0369 8.21723 10.9806 8.14023 10.9806 8.05325V7.97418C10.9806 7.83869 11.1126 7.7424 11.2416 7.7837L12.6147 8.22309C12.6881 8.24656 12.763 8.19185 12.763 8.11487C12.763 8.07506 12.7422 8.03815 12.7081 8.01758L11.0773 7.03372C11.0173 6.99752 10.9806 6.93255 10.9806 6.86247V6.76334C10.9806 6.6068 11.1524 6.51094 11.2856 6.59311L12.6721 7.4481C12.7118 7.47259 12.763 7.44403 12.763 7.39738C12.763 7.36447 12.7897 7.33779 12.8226 7.33779H12.9056C12.9252 7.33779 12.9446 7.34183 12.9626 7.34966L13.7296 7.68385C13.7544 7.69464 13.7767 7.71032 13.7952 7.72995L14.1226 8.07693C14.1576 8.11405 14.1771 8.16315 14.1771 8.21418V8.74188C14.1771 8.85233 14.2666 8.94188 14.3771 8.94188H14.7732C14.8836 8.94188 14.9732 8.85233 14.9732 8.74188V8.19434C14.9732 8.15544 14.9618 8.11739 14.9405 8.08484L14.7605 7.80976C14.7441 7.78457 14.7221 7.76343 14.6963 7.7479L14.1467 7.41706C14.1314 7.40782 14.1148 7.40069 14.0976 7.39585L13.1431 7.12795C13.1221 7.12205 13.1076 7.10288 13.1076 7.08105C13.1076 7.05074 13.135 7.02778 13.1648 7.03309L13.456 7.08486C13.5531 7.10212 13.6423 7.02743 13.6423 6.92878C13.6423 6.87951 13.6194 6.83304 13.5803 6.80303L13.4534 6.70562C13.4122 6.67399 13.3573 6.66652 13.3092 6.68598L13.2721 6.70097C13.1934 6.73276 13.1076 6.67487 13.1076 6.59004C13.1076 6.52396 13.1612 6.4704 13.2272 6.4704H13.5276C13.5956 6.4704 13.6556 6.42567 13.675 6.36044C13.6944 6.29521 13.7544 6.25049 13.8224 6.25049H14.1514C14.1685 6.25049 14.1855 6.25267 14.202 6.25698L15.0965 6.49069C15.201 6.51799 15.2263 6.65473 15.1385 6.71765C15.0702 6.7666 15.0672 6.86709 15.1323 6.92013L15.4 7.13802C15.4381 7.16903 15.4162 7.2307 15.3671 7.2307C15.3123 7.2307 15.2945 7.30428 15.3432 7.32932ZM16.6568 7.32939L16.3392 7.49271C16.3011 7.51227 16.3089 7.56882 16.3508 7.57745C16.384 7.58428 16.3982 7.62374 16.3771 7.65019L16.0001 8.12152V17.7497L16.6742 16.9192C16.7313 16.8489 16.734 16.749 16.6808 16.6757L16.3819 16.2637C16.3661 16.2419 16.3576 16.2157 16.3576 16.1888C16.3576 16.0755 16.4942 16.0184 16.5748 16.0979L16.9513 16.4688C17.0386 16.5548 17.1821 16.5428 17.2538 16.4435L17.2945 16.3871C17.3577 16.2996 17.3401 16.1778 17.2547 16.1118L16.6624 15.6537C16.6089 15.6123 16.5928 15.5385 16.6242 15.4786C16.6614 15.4075 16.7508 15.3824 16.8196 15.4237L17.4464 15.7997C17.5265 15.8478 17.6298 15.8287 17.6874 15.7551C17.7582 15.6648 17.7306 15.5324 17.6295 15.478L17.002 15.1398C16.9208 15.096 16.8968 14.9907 16.9509 14.916C16.9947 14.8556 17.0758 14.8357 17.1426 14.8691L17.7084 15.1519C17.8029 15.1991 17.9177 15.1647 17.9708 15.0733L18.0129 15.0007C18.072 14.899 18.0309 14.7685 17.9242 14.719L16.915 14.25C16.8721 14.2301 16.8377 14.1956 16.8178 14.1527L16.5576 13.5913C16.5164 13.5023 16.5457 13.3966 16.6268 13.3416L16.7206 13.278C16.796 13.2269 16.8964 13.2332 16.9648 13.2933L17.538 13.7965C17.5696 13.8243 17.5916 13.8613 17.601 13.9024L17.6558 14.1426C17.6898 14.2918 17.8719 14.3491 17.9852 14.2463L18.1171 14.1266L19.0349 14.3713L18.5931 14.6048L18.6152 14.6465L18.5699 14.6705C18.4196 14.75 18.3622 14.9364 18.4418 15.0867L18.759 14.9188L18.78 14.9584L19.575 14.5384L20.2878 14.9543L20.3108 14.915L20.6161 15.0938C20.7021 14.947 20.6527 14.7583 20.5059 14.6724L20.466 14.649L20.4894 14.6089L20.3194 14.5096H20.8269V14.4631H21.187C21.187 14.293 21.0492 14.1551 20.8791 14.1551H20.8269V14.1096H20.2238L20.5019 13.9184L20.4765 13.8814L20.7717 13.6797C20.6757 13.5392 20.484 13.5032 20.3436 13.5992L20.302 13.6276L20.2753 13.5888L19.5424 14.0927L18.4697 13.8067L18.5199 13.7612C18.6419 13.6505 18.5853 13.4481 18.4237 13.4167L18.0541 13.3448C18.0258 13.3393 17.999 13.3278 17.9756 13.311L17.3478 12.86C17.2955 12.8225 17.2645 12.762 17.2645 12.6976V12.2628C17.2645 12.1523 17.3541 12.0628 17.4645 12.0628H17.5318C17.6423 12.0628 17.7318 12.1523 17.7318 12.2628V12.6047C17.7318 12.7127 17.8194 12.8002 17.9274 12.8002C18.0354 12.8002 18.1229 12.7127 18.1229 12.6047V12.2628C18.1229 12.1523 18.2132 12.0628 18.3236 12.0628C18.3461 12.0628 18.3686 12.0666 18.3898 12.074L20.4891 12.8083C20.5706 12.8368 20.6611 12.8099 20.7137 12.7415L20.7788 12.6569C20.8656 12.5441 20.8101 12.3793 20.6728 12.3419L19.3577 11.9839C19.2865 11.9645 19.237 11.8998 19.237 11.826C19.237 11.7267 19.3247 11.6503 19.423 11.6639L20.7921 11.8527C20.9122 11.8693 21.0194 11.7759 21.0194 11.6546V11.5968C21.0194 11.4936 20.9409 11.4074 20.8382 11.3977L19.3896 11.2608C19.3031 11.2527 19.237 11.18 19.237 11.0931C19.237 11.0001 19.3124 10.9247 19.4055 10.9247H20.8194C20.9298 10.9247 21.0194 10.8351 21.0194 10.7247V10.6116C21.0194 10.5012 20.9298 10.4116 20.8194 10.4116H19.3858C19.3036 10.4116 19.237 10.345 19.237 10.2629C19.237 10.185 19.2972 10.1203 19.3749 10.1146L20.834 10.0078C20.9385 10.0001 21.0194 9.91312 21.0194 9.80832V9.74183C21.0194 9.62177 20.9143 9.52876 20.7952 9.5433L19.4027 9.71314C19.3146 9.72388 19.237 9.65515 19.237 9.56643C19.237 9.49947 19.282 9.44088 19.3467 9.42363L20.8709 9.01719C20.9585 8.99384 21.0194 8.91455 21.0194 8.82394V8.73547C21.0194 8.6015 20.8902 8.50541 20.7619 8.54391L19.3808 8.95822C19.3092 8.97972 19.237 8.92605 19.237 8.85121C19.237 8.80263 19.2684 8.75961 19.3147 8.74481L20.8803 8.24381C20.9632 8.21731 21.0194 8.1403 21.0194 8.05333V7.97426C21.0194 7.83876 20.8875 7.74248 20.7584 7.78377L19.3853 8.22317C19.312 8.24663 19.237 8.19193 19.237 8.11495C19.237 8.07513 19.2579 8.03822 19.292 8.01765L20.9227 7.03379C20.9827 6.99759 21.0194 6.93262 21.0194 6.86255V6.76342C21.0194 6.60687 20.8477 6.51102 20.7144 6.59318L19.3279 7.44818C19.2882 7.47266 19.237 7.4441 19.237 7.39746C19.237 7.36455 19.2103 7.33787 19.1774 7.33787H19.0944C19.0748 7.33787 19.0554 7.34191 19.0374 7.34974L18.2704 7.68393C18.2457 7.69471 18.2234 7.71039 18.2048 7.73003L17.8775 8.07701C17.8424 8.11412 17.8229 8.16323 17.8229 8.21426V8.74195C17.8229 8.85241 17.7334 8.94195 17.6229 8.94195H17.2269C17.1164 8.94195 17.0269 8.85241 17.0269 8.74195V8.19441C17.0269 8.15552 17.0382 8.11746 17.0595 8.08492L17.2395 7.80983C17.256 7.78465 17.2779 7.7635 17.3037 7.74798L17.8533 7.41713C17.8687 7.4079 17.8852 7.40077 17.9024 7.39593L18.8569 7.12802C18.8779 7.12212 18.8924 7.10296 18.8924 7.08113C18.8924 7.05081 18.865 7.02786 18.8352 7.03317L18.544 7.08493C18.4469 7.1022 18.3577 7.02751 18.3577 6.92885C18.3577 6.87958 18.3807 6.83311 18.4197 6.80311L18.5466 6.70569C18.5878 6.67406 18.6427 6.66659 18.6909 6.68606L18.728 6.70105C18.8066 6.73283 18.8924 6.67495 18.8924 6.59012C18.8924 6.52404 18.8389 6.47047 18.7728 6.47047H18.4725C18.4044 6.47047 18.3444 6.42575 18.325 6.36052C18.3056 6.29529 18.2457 6.25056 18.1776 6.25056H17.8486C17.8316 6.25056 17.8146 6.25275 17.7981 6.25706L16.9035 6.49077C16.799 6.51807 16.7737 6.65481 16.8615 6.71772C16.9298 6.76667 16.9329 6.86716 16.8677 6.92021L16.6 7.13809C16.5619 7.1691 16.5838 7.23077 16.633 7.23077C16.6877 7.23077 16.7055 7.30435 16.6568 7.32939Z" fill="#333333"/>
</svg>
