<svg width="24" height="24" viewBox="0 0 24 24" fill="none" xmlns="http://www.w3.org/2000/svg">
<g clip-path="url(#clip0_440_1544)">
<rect width="24" height="24" rx="12" fill="#F8D74C"/>
<path d="M0 24L-1.04907e-06 0L8 -3.49691e-07L8 24L0 24Z" fill="#485CC2"/>
<path d="M16 24L16 0L24 -3.49691e-07L24 24L16 24Z" fill="#D74B4B"/>
<path fill-rule="evenodd" clip-rule="evenodd" d="M11.7118 9.13573L11.5458 9.04096C11.4309 8.97531 11.2842 8.98967 11.1857 9.07622C11.1238 9.13061 11.0886 9.20715 11.0886 9.28733V9.33203C11.0886 9.39711 11.106 9.46112 11.1392 9.51801L11.1743 9.57802C11.1845 9.59555 11.1899 9.61528 11.1899 9.63534C11.1899 9.68614 11.1557 9.73125 11.1051 9.74731L10.9693 9.79038C10.9166 9.80711 10.8588 9.80056 10.8116 9.77252C10.7571 9.7401 10.724 9.68326 10.724 9.62211V9.53803C10.724 9.46887 10.6996 9.4017 10.6547 9.34733C10.5642 9.2377 10.4076 9.19949 10.2728 9.25412L9.58019 9.53479C9.47549 9.57722 9.40754 9.67505 9.40754 9.78334C9.40754 9.86541 9.44673 9.94302 9.51406 9.99428L9.77878 10.1958C9.80112 10.2129 9.81975 10.2338 9.83364 10.2576C9.91507 10.3971 9.80908 10.5686 9.6414 10.5686H9.62887C9.58998 10.5686 9.55174 10.5781 9.51781 10.5962L9.27553 10.7253C9.14056 10.7972 9.04428 10.9226 9.01186 11.0665C8.96924 11.2558 9.04336 11.4539 9.20355 11.5732L9.32546 11.664C9.37727 11.7026 9.40754 11.7617 9.40754 11.8244V11.8463C9.40754 11.9028 9.43816 11.9554 9.48855 11.9854C9.53895 12.0154 9.56956 12.0679 9.56956 12.1245V12.1685V12.4333C9.56956 12.5 9.51276 12.5541 9.44268 12.5541C9.41969 12.5541 9.39712 12.56 9.37741 12.5713L9.34101 12.592C9.25663 12.6402 9.20501 12.727 9.20501 12.8207V12.9691C9.20501 13.0231 9.23269 13.0737 9.27916 13.1046C9.35212 13.1532 9.37469 13.2465 9.33144 13.3206L9.28975 13.392C9.2382 13.4803 9.24601 13.5892 9.3097 13.67L9.56172 13.9898C9.71966 14.1903 9.96752 14.3082 10.2307 14.3082H10.9492C11.0262 14.3082 11.0886 14.3676 11.0886 14.4409C11.0886 14.4552 11.091 14.4693 11.0957 14.4828L11.1471 14.6294C11.175 14.7091 11.2268 14.7793 11.2961 14.8314L11.4774 14.9676C11.5345 15.0105 11.6151 15.0108 11.6725 14.9683L11.6948 14.9518C11.7324 14.924 11.7839 14.9207 11.8249 14.9435C11.9025 14.9866 12 14.9333 12 14.8478V9.34268C12 9.24264 11.9148 9.16155 11.8097 9.16155C11.7752 9.16155 11.7413 9.15262 11.7118 9.13573ZM12.2882 9.13573L12.4542 9.04096C12.5691 8.97531 12.7158 8.98967 12.8143 9.07622C12.8762 9.13061 12.9114 9.20715 12.9114 9.28733V9.33203C12.9114 9.39711 12.894 9.46112 12.8608 9.51801L12.8257 9.57802C12.8155 9.59555 12.8101 9.61528 12.8101 9.63534C12.8101 9.68614 12.8443 9.73125 12.8949 9.74731L13.0307 9.79038C13.0834 9.80711 13.1412 9.80056 13.1884 9.77252C13.2429 9.7401 13.276 9.68326 13.276 9.62211V9.53803C13.276 9.46887 13.3004 9.4017 13.3453 9.34733C13.4358 9.2377 13.5924 9.19949 13.7272 9.25412L14.4198 9.53479C14.5245 9.57722 14.5925 9.67505 14.5925 9.78334C14.5925 9.86541 14.5533 9.94302 14.4859 9.99428L14.2212 10.1958C14.1989 10.2129 14.1803 10.2338 14.1664 10.2576C14.0849 10.3971 14.1909 10.5686 14.3586 10.5686H14.3711C14.41 10.5686 14.4483 10.5781 14.4822 10.5962L14.7245 10.7253C14.8594 10.7972 14.9557 10.9226 14.9881 11.0665C15.0308 11.2558 14.9566 11.4539 14.7964 11.5732L14.6745 11.664C14.6227 11.7026 14.5925 11.7617 14.5925 11.8244V11.8463C14.5925 11.9028 14.5618 11.9554 14.5114 11.9854C14.4611 12.0154 14.4304 12.0679 14.4304 12.1245V12.1685V12.4333C14.4304 12.5 14.4872 12.5541 14.5573 12.5541C14.5803 12.5541 14.6029 12.56 14.6226 12.5713L14.659 12.592C14.7434 12.6402 14.795 12.727 14.795 12.8207V12.9691C14.795 13.0231 14.7673 13.0737 14.7208 13.1046C14.6479 13.1532 14.6253 13.2465 14.6686 13.3206L14.7103 13.392C14.7618 13.4803 14.754 13.5892 14.6903 13.67L14.4383 13.9898C14.2803 14.1903 14.0325 14.3082 13.7693 14.3082H13.0508C12.9738 14.3082 12.9114 14.3676 12.9114 14.4409C12.9114 14.4552 12.909 14.4693 12.9043 14.4828L12.8529 14.6294C12.825 14.7091 12.7732 14.7793 12.7039 14.8314L12.5226 14.9676C12.4655 15.0105 12.3849 15.0108 12.3275 14.9683L12.3052 14.9518C12.2676 14.924 12.2161 14.9207 12.1751 14.9435C12.0975 14.9866 12 14.9333 12 14.8478V9.34268C12 9.24264 12.0852 9.16155 12.1903 9.16155C12.2248 9.16155 12.2587 9.15262 12.2882 9.13573Z" fill="#E77D42"/>
<path d="M10.2158 10.0752H11.9042V11.6821H10.2158V10.0752Z" fill="#D74B4B"/>
<path d="M12.0621 10.0752H13.7505V11.6821H12.0621V10.0752Z" fill="#F8D74C"/>
<path d="M12.0621 11.7976H13.7505V12.6086C13.7505 13.0482 13.3761 13.4045 12.9143 13.4045H12.0621V11.7976Z" fill="#F8D74C"/>
<path d="M12.2686 10.0752H12.5115V11.6821H12.2686V10.0752Z" fill="#D74B4B"/>
<path d="M12.7849 10.0752H13.0278V11.6821H12.7849V10.0752Z" fill="#D74B4B"/>
<path d="M13.3012 10.0752H13.5442V11.6821H13.3012V10.0752Z" fill="#D74B4B"/>
<path d="M10.2158 11.7974H11.9042V13.4043H11.052C10.5902 13.4043 10.2158 13.0479 10.2158 12.6084V11.7974Z" fill="#F8D74C"/>
<mask id="mask0_440_1544" style="mask-type:alpha" maskUnits="userSpaceOnUse" x="10" y="11" width="2" height="3">
<path d="M10.2158 11.7974H11.9042V13.4043H11.052C10.5902 13.4043 10.2158 13.0479 10.2158 12.6084V11.7974Z" fill="#F8D74C"/>
</mask>
<g mask="url(#mask0_440_1544)">
<path d="M10.4222 11.7974H10.6652V13.4043H10.4222V11.7974Z" fill="#D74B4B"/>
<path d="M10.9385 11.7974H11.1814V13.4043H10.9385V11.7974Z" fill="#D74B4B"/>
<path d="M11.4549 11.7974H11.6978V13.4043H11.4549V11.7974Z" fill="#D74B4B"/>
</g>
<path fill-rule="evenodd" clip-rule="evenodd" d="M12.7028 12.4168C12.7018 12.4191 12.7021 12.4219 12.7038 12.424L12.7609 12.4945L12.6581 12.5698L12.6011 12.4994C12.5598 12.4485 12.5636 12.3766 12.6099 12.3297C12.613 12.3267 12.6127 12.3218 12.6093 12.319L12.549 12.2701C12.5434 12.2656 12.5364 12.2631 12.5291 12.2631H12.4754C12.4165 12.2631 12.3687 12.2177 12.3687 12.1616C12.3687 12.1262 12.388 12.0934 12.4197 12.075L12.5032 12.0264C12.5312 12.0101 12.5634 12.0015 12.5962 12.0015H12.6695C12.7188 12.0015 12.7602 12.0339 12.7714 12.0776H13.1063C13.1733 12.0776 13.2368 12.1062 13.2792 12.1555L13.3123 12.1939C13.3611 12.2506 13.3607 12.3321 13.3115 12.3883C13.3069 12.3935 13.3044 12.4001 13.3044 12.4069V12.5588H13.1746V12.4238C13.1657 12.4896 13.1354 12.5516 13.0874 12.6008L12.9923 12.5168C13.0196 12.4887 13.0377 12.454 13.0445 12.4168H12.9033V12.5321H12.7736V12.4168H12.7028Z" fill="#D74B4B"/>
<path fill-rule="evenodd" clip-rule="evenodd" d="M12.7028 13.0911C12.7018 13.0934 12.7021 13.0962 12.7038 13.0983L12.7609 13.1687L12.6581 13.2441L12.6011 13.1737C12.5598 13.1227 12.5636 13.0508 12.6099 13.004C12.613 13.0009 12.6127 12.996 12.6093 12.9933L12.549 12.9444C12.5434 12.9399 12.5364 12.9374 12.5291 12.9374H12.4754C12.4165 12.9374 12.3687 12.892 12.3687 12.8359C12.3687 12.8005 12.388 12.7677 12.4197 12.7493L12.5032 12.7007C12.5312 12.6844 12.5634 12.6757 12.5962 12.6757H12.6695C12.7188 12.6757 12.7602 12.7082 12.7714 12.7518H13.1063C13.1733 12.7518 13.2368 12.7804 13.2792 12.8298L13.3123 12.8682C13.3611 12.9248 13.3607 13.0064 13.3115 13.0626C13.3069 13.0678 13.3044 13.0744 13.3044 13.0812V13.233H13.1746V13.098C13.1657 13.1639 13.1354 13.2259 13.0874 13.2751L12.9923 13.191C13.0196 13.163 13.0377 13.1282 13.0445 13.0911H12.9033V13.2064H12.7736V13.0911H12.7028Z" fill="#D74B4B"/>
<path fill-rule="evenodd" clip-rule="evenodd" d="M11.5645 10.3525C11.5193 10.3525 11.4827 10.3874 11.4827 10.4304V10.4494C11.4827 10.496 11.4633 10.5408 11.4288 10.5738L10.4561 11.5055L10.3968 11.4494L11.3695 10.5177C11.3884 10.4996 11.3991 10.475 11.3991 10.4494V10.4304C11.3991 10.3435 11.4732 10.2729 11.5645 10.2729C11.6559 10.2729 11.73 10.3435 11.73 10.4304V10.5058H11.6464V10.4304C11.6464 10.3874 11.6097 10.3525 11.5645 10.3525Z" fill="#F8D74C"/>
<path d="M11.2872 11.2599H10.8473L10.6355 10.7791L11.0673 10.2827L11.499 10.7791L11.2872 11.2599Z" fill="#F8D74C"/>
<path fill-rule="evenodd" clip-rule="evenodd" d="M11.0673 10.1831L11.5764 10.7684L11.3317 11.3238H10.8029L10.5582 10.7684L11.0673 10.1831ZM10.7129 10.7902L10.8919 11.1965H11.2427L11.4217 10.7902L11.0673 10.3828L10.7129 10.7902Z" fill="#F9F9F9"/>
<path fill-rule="evenodd" clip-rule="evenodd" d="M11.0337 11.2524V10.2988H11.1173V11.2524H11.0337ZM10.505 11.247C10.4925 11.2349 10.4727 11.233 10.4579 11.2424C10.4404 11.2535 10.436 11.2762 10.4482 11.2925L10.523 11.392L10.4549 11.4383L10.3802 11.3387C10.3405 11.2859 10.3547 11.2122 10.4115 11.1762C10.4597 11.1456 10.5239 11.1518 10.5646 11.1911L10.7932 11.4117C10.8026 11.4208 10.8154 11.4259 10.8288 11.4259C10.8565 11.4259 10.8789 11.4046 10.8789 11.3783V11.2911H10.9625V11.3783C10.9625 11.4486 10.9027 11.5055 10.8288 11.5055C10.793 11.5055 10.7587 11.4919 10.7336 11.4676L10.505 11.247Z" fill="#F9F9F9"/>
<path fill-rule="evenodd" clip-rule="evenodd" d="M11.6459 11.247C11.6585 11.2349 11.6783 11.233 11.6931 11.2424C11.7106 11.2535 11.715 11.2762 11.7027 11.2925L11.628 11.3921L11.696 11.4383L11.7708 11.3388C11.8105 11.2859 11.7963 11.2123 11.7395 11.1762C11.6913 11.1456 11.6271 11.1519 11.5864 11.1911L11.3578 11.4118C11.3484 11.4209 11.3356 11.426 11.3222 11.426C11.2945 11.426 11.2721 11.4046 11.2721 11.3783V11.2911H11.1885V11.3783C11.1885 11.4486 11.2483 11.5056 11.3222 11.5056C11.3579 11.5056 11.3922 11.4919 11.4174 11.4677L11.6459 11.247Z" fill="#F9F9F9"/>
</g>
<defs>
<clipPath id="clip0_440_1544">
<rect width="24" height="24" rx="12" fill="white"/>
</clipPath>
</defs>
</svg>
