<svg width="32" height="24" viewBox="0 0 32 24" fill="none" xmlns="http://www.w3.org/2000/svg">
<g clip-path="url(#clip0_440_1552)">
<rect width="32" height="24" rx="2" fill="#F8D74C"/>
<path fill-rule="evenodd" clip-rule="evenodd" d="M15.6157 8.18097L15.3944 8.05461C15.2412 7.96707 15.0456 7.98622 14.9143 8.10163C14.8317 8.17415 14.7848 8.2762 14.7848 8.38311V8.44271C14.7848 8.52948 14.808 8.61483 14.8523 8.69068L14.899 8.77069C14.9127 8.79407 14.9198 8.82037 14.9198 8.84712C14.9198 8.91486 14.8743 8.975 14.8068 8.99642L14.6258 9.05383C14.5555 9.07614 14.4784 9.06741 14.4155 9.03002C14.3428 8.9868 14.2987 8.91101 14.2987 8.82948V8.71738C14.2987 8.62515 14.2662 8.53561 14.2063 8.4631C14.0855 8.31693 13.8768 8.26599 13.6971 8.33883L12.7736 8.71306C12.634 8.76962 12.5434 8.90006 12.5434 9.04446C12.5434 9.15387 12.5956 9.25736 12.6854 9.32571L13.0384 9.59446C13.0682 9.61714 13.093 9.64512 13.1115 9.67685C13.2201 9.86285 13.0788 10.0914 12.8552 10.0914H12.8385C12.7866 10.0914 12.7357 10.1041 12.6904 10.1282L12.3674 10.3004C12.1874 10.3963 12.059 10.5634 12.0158 10.7554C11.959 11.0078 12.0578 11.2719 12.2714 11.431L12.4339 11.552C12.503 11.6035 12.5434 11.6823 12.5434 11.7658V11.795C12.5434 11.8705 12.5842 11.9406 12.6514 11.9805C12.7186 12.0205 12.7594 12.0906 12.7594 12.166V12.2247V12.5777C12.7594 12.6667 12.6837 12.7387 12.5902 12.7387C12.5596 12.7387 12.5295 12.7467 12.5032 12.7617L12.4547 12.7894C12.3422 12.8536 12.2733 12.9693 12.2733 13.0942V13.2921C12.2733 13.3641 12.3102 13.4316 12.3722 13.4729C12.4695 13.5377 12.4996 13.662 12.4419 13.7607L12.3863 13.856C12.3176 13.9737 12.328 14.1189 12.4129 14.2267L12.749 14.6531C12.9595 14.9203 13.29 15.0776 13.641 15.0776H14.5989C14.7016 15.0776 14.7848 15.1568 14.7848 15.2545C14.7848 15.2735 14.788 15.2924 14.7943 15.3105L14.8627 15.5058C14.9 15.6121 14.9691 15.7058 15.0615 15.7752L15.3032 15.9568C15.3794 16.0141 15.4868 16.0144 15.5634 15.9577L15.5931 15.9357C15.6432 15.8987 15.7118 15.8943 15.7666 15.9247C15.8701 15.9821 16 15.9111 16 15.7971V8.45691C16 8.32352 15.8864 8.2154 15.7462 8.2154C15.7002 8.2154 15.6551 8.2035 15.6157 8.18097ZM16.3843 8.18097L16.6056 8.05461C16.7588 7.96707 16.9544 7.98622 17.0857 8.10163C17.1683 8.17415 17.2152 8.2762 17.2152 8.38311V8.44271C17.2152 8.52948 17.192 8.61483 17.1477 8.69068L17.101 8.77069C17.0873 8.79407 17.0802 8.82037 17.0802 8.84712C17.0802 8.91486 17.1257 8.975 17.1932 8.99642L17.3742 9.05383C17.4445 9.07614 17.5216 9.06741 17.5845 9.03002C17.6572 8.9868 17.7013 8.91101 17.7013 8.82948V8.71738C17.7013 8.62515 17.7338 8.53561 17.7937 8.4631C17.9145 8.31693 18.1232 8.26599 18.3029 8.33883L19.2264 8.71306C19.366 8.76962 19.4566 8.90006 19.4566 9.04446C19.4566 9.15387 19.4044 9.25736 19.3146 9.32571L18.9616 9.59446C18.9318 9.61714 18.907 9.64512 18.8885 9.67685C18.7799 9.86285 18.9212 10.0914 19.1448 10.0914H19.1615C19.2134 10.0914 19.2643 10.1041 19.3096 10.1282L19.6326 10.3004C19.8126 10.3963 19.941 10.5634 19.9842 10.7554C20.041 11.0078 19.9422 11.2719 19.7286 11.431L19.5661 11.552C19.497 11.6035 19.4566 11.6823 19.4566 11.7658V11.795C19.4566 11.8705 19.4158 11.9406 19.3486 11.9805C19.2814 12.0205 19.2406 12.0906 19.2406 12.166V12.2247V12.5777C19.2406 12.6667 19.3163 12.7387 19.4098 12.7387C19.4404 12.7387 19.4705 12.7467 19.4968 12.7617L19.5453 12.7894C19.6578 12.8536 19.7267 12.9693 19.7267 13.0942V13.2921C19.7267 13.3641 19.6898 13.4316 19.6278 13.4729C19.5305 13.5377 19.5004 13.662 19.5581 13.7607L19.6137 13.856C19.6824 13.9737 19.672 14.1189 19.5871 14.2267L19.251 14.6531C19.0405 14.9203 18.71 15.0776 18.359 15.0776H17.4011C17.2984 15.0776 17.2152 15.1568 17.2152 15.2545C17.2152 15.2735 17.212 15.2924 17.2057 15.3105L17.1373 15.5058C17.1 15.6121 17.0309 15.7058 16.9385 15.7752L16.6968 15.9568C16.6206 16.0141 16.5132 16.0144 16.4366 15.9577L16.4069 15.9357C16.3568 15.8987 16.2882 15.8943 16.2334 15.9247C16.1299 15.9821 16 15.9111 16 15.7971V8.45691C16 8.32352 16.1136 8.2154 16.2538 8.2154C16.2998 8.2154 16.3449 8.2035 16.3843 8.18097Z" fill="#E77D42"/>
<path d="M13.6211 9.43359H15.8723V11.5762H13.6211V9.43359Z" fill="#D74B4B"/>
<path d="M16.0828 9.43359H18.334V11.5762H16.0828V9.43359Z" fill="#F8D74C"/>
<path d="M16.0828 11.7302H18.334V12.8115C18.334 13.3976 17.8348 13.8727 17.219 13.8727H16.0828V11.7302Z" fill="#F8D74C"/>
<path d="M16.3582 9.43359H16.6821V11.5762H16.3582V9.43359Z" fill="#D74B4B"/>
<path d="M17.0465 9.43359H17.3704V11.5762H17.0465V9.43359Z" fill="#D74B4B"/>
<path d="M17.735 9.43359H18.0589V11.5762H17.735V9.43359Z" fill="#D74B4B"/>
<path d="M13.621 11.73H15.8722V13.8726H14.7361C14.1202 13.8726 13.621 13.3974 13.621 12.8113V11.73Z" fill="#F8D74C"/>
<mask id="mask0_440_1552" style="mask-type:alpha" maskUnits="userSpaceOnUse" x="13" y="11" width="3" height="3">
<path d="M13.621 11.73H15.8722V13.8726H14.7361C14.1202 13.8726 13.621 13.3974 13.621 12.8113V11.73Z" fill="#F8D74C"/>
</mask>
<g mask="url(#mask0_440_1552)">
<path d="M13.8963 11.73H14.2202V13.8726H13.8963V11.73Z" fill="#D74B4B"/>
<path d="M14.5846 11.73H14.9085V13.8726H14.5846V11.73Z" fill="#D74B4B"/>
<path d="M15.2731 11.73H15.597V13.8726H15.2731V11.73Z" fill="#D74B4B"/>
</g>
<path fill-rule="evenodd" clip-rule="evenodd" d="M16.937 12.5557C16.9357 12.5589 16.9362 12.5625 16.9385 12.5654L17.0145 12.6593L16.8775 12.7598L16.8015 12.6659C16.7465 12.5979 16.7514 12.5021 16.8132 12.4397C16.8173 12.4355 16.8169 12.429 16.8124 12.4253L16.732 12.3601C16.7246 12.3542 16.7152 12.3509 16.7055 12.3509H16.6339C16.5553 12.3509 16.4916 12.2902 16.4916 12.2155C16.4916 12.1683 16.5174 12.1246 16.5597 12.1L16.671 12.0352C16.7083 12.0135 16.7512 12.002 16.7949 12.002H16.8927C16.9585 12.002 17.0136 12.0452 17.0285 12.1034H17.4751C17.5644 12.1034 17.649 12.1415 17.7057 12.2073L17.7498 12.2586C17.8148 12.3341 17.8143 12.4428 17.7487 12.5178C17.7426 12.5247 17.7392 12.5335 17.7392 12.5426V12.745H17.5662V12.565C17.5542 12.6528 17.5138 12.7355 17.4499 12.801L17.3231 12.689C17.3595 12.6516 17.3836 12.6053 17.3927 12.5557H17.2044V12.7095H17.0314V12.5557H16.937Z" fill="#D74B4B"/>
<path fill-rule="evenodd" clip-rule="evenodd" d="M16.937 13.4547C16.9357 13.4579 16.9362 13.4616 16.9385 13.4644L17.0145 13.5583L16.8775 13.6588L16.8015 13.5649C16.7465 13.497 16.7514 13.4011 16.8132 13.3387C16.8173 13.3346 16.8169 13.328 16.8124 13.3244L16.732 13.2592C16.7246 13.2532 16.7152 13.2499 16.7055 13.2499H16.6339C16.5553 13.2499 16.4916 13.1893 16.4916 13.1145C16.4916 13.0674 16.5174 13.0236 16.5597 12.999L16.671 12.9342C16.7083 12.9125 16.7512 12.901 16.7949 12.901H16.8927C16.9585 12.901 17.0136 12.9442 17.0285 13.0024H17.4751C17.5644 13.0024 17.649 13.0406 17.7057 13.1063L17.7498 13.1576C17.8148 13.2331 17.8143 13.3418 17.7487 13.4168C17.7426 13.4238 17.7392 13.4326 17.7392 13.4416V13.6441H17.5662V13.464C17.5542 13.5519 17.5138 13.6345 17.4499 13.7001L17.3231 13.588C17.3595 13.5507 17.3836 13.5043 17.3927 13.4547H17.2044V13.6086H17.0314V13.4547H16.937Z" fill="#D74B4B"/>
<path fill-rule="evenodd" clip-rule="evenodd" d="M15.4194 9.8029C15.3592 9.8029 15.3103 9.84939 15.3103 9.90674V9.93208C15.3103 9.99423 15.2845 10.0539 15.2385 10.0979L13.9415 11.3402L13.8624 11.2654L15.1594 10.0231C15.1846 9.99893 15.1988 9.9662 15.1988 9.93208V9.90674C15.1988 9.79078 15.2976 9.69678 15.4194 9.69678C15.5413 9.69678 15.64 9.79078 15.64 9.90674V10.0072H15.5285V9.90674C15.5285 9.84939 15.4797 9.8029 15.4194 9.8029Z" fill="#F8D74C"/>
<path d="M15.0496 11.0129H14.4631L14.1807 10.3718L14.7564 9.70996L15.3321 10.3718L15.0496 11.0129Z" fill="#F8D74C"/>
<path fill-rule="evenodd" clip-rule="evenodd" d="M14.7564 9.57715L15.4352 10.3575L15.109 11.0981H14.4038L14.0776 10.3575L14.7564 9.57715ZM14.2839 10.3866L14.5225 10.9283H14.9903L15.2289 10.3866L14.7564 9.84341L14.2839 10.3866Z" fill="#F9F9F9"/>
<path fill-rule="evenodd" clip-rule="evenodd" d="M14.7116 11.0029V9.73146H14.8231V11.0029H14.7116ZM14.0067 10.9957C13.99 10.9795 13.9636 10.977 13.9438 10.9895C13.9205 11.0043 13.9147 11.0346 13.931 11.0563L14.0307 11.189L13.94 11.2507L13.8403 11.118C13.7874 11.0475 13.8063 10.9493 13.882 10.9013C13.9462 10.8605 14.0319 10.8688 14.0861 10.9212L14.3909 11.2153C14.4034 11.2275 14.4206 11.2343 14.4384 11.2343C14.4753 11.2343 14.5052 11.2058 14.5052 11.1707V11.0545H14.6167V11.1707C14.6167 11.2644 14.5369 11.3404 14.4384 11.3404C14.3907 11.3404 14.345 11.3222 14.3115 11.2898L14.0067 10.9957Z" fill="#F9F9F9"/>
<path fill-rule="evenodd" clip-rule="evenodd" d="M15.5279 10.9957C15.5447 10.9796 15.571 10.977 15.5908 10.9896C15.6141 11.0044 15.62 11.0346 15.6037 11.0563L15.504 11.1891L15.5947 11.2508L15.6944 11.118C15.7473 11.0475 15.7284 10.9494 15.6527 10.9013C15.5884 10.8605 15.5028 10.8688 15.4485 10.9212L15.1438 11.2154C15.1312 11.2275 15.1141 11.2343 15.0962 11.2343C15.0594 11.2343 15.0295 11.2059 15.0295 11.1708V11.0545H14.918V11.1708C14.918 11.2645 14.9978 11.3404 15.0962 11.3404C15.144 11.3404 15.1897 11.3222 15.2232 11.2899L15.5279 10.9957Z" fill="#F9F9F9"/>
<rect y="24" width="24" height="10.6667" transform="rotate(-90 0 24)" fill="#485CC2"/>
<rect x="21.3333" y="24" width="24" height="10.6667" transform="rotate(-90 21.3333 24)" fill="#D74B4B"/>
</g>
<defs>
<clipPath id="clip0_440_1552">
<rect width="32" height="24" rx="2" fill="white"/>
</clipPath>
</defs>
</svg>
