<svg width="24" height="24" viewBox="0 0 24 24" fill="none" xmlns="http://www.w3.org/2000/svg">
<g clip-path="url(#clip0_440_1542)">
<rect width="24" height="24" rx="2" fill="#F9F9F9"/>
<rect x="7" width="17" height="17" fill="#D74B4B"/>
<rect x="7" y="17" width="17" height="7" fill="#3FB47C"/>
<path d="M1.89282 0.394852L1.60521 0.394852V2.50438e-08L1.89282 0V0.394852Z" fill="#D74B4B"/>
<path d="M1.58194 3.97981H1.86955V4.37466H1.58194V3.97981Z" fill="#D74B4B"/>
<path d="M1.29309 3.58463H1.02932V2.79492H1.03126V2.62923H0.635125V1.76754H1.03126V1.57893H1.02932V1.18408H1.60522V1.57893H1.42779L1.42779 2.79492H1.60522V3.18977H1.87048V2.79492H2.04915L2.04915 1.57893H1.87048V1.18408H2.44638V1.57893L2.44567 1.76754H2.84181V2.62923H2.44567V2.79492L2.44638 3.18977L2.44544 3.58463H2.15843V3.97916H1.29309V3.58463Z" fill="#D74B4B"/>
<path d="M2.44544 0.789062H2.18169V0.39502L1.31636 0.39502V0.789063H1.02932V1.18408H2.44638L2.44544 0.789062Z" fill="#D74B4B"/>
<path d="M2.84195 2.05523V2.34163H3.23847V2.05523H2.84195Z" fill="#D74B4B"/>
<path d="M0.634987 2.34163V2.05523H0.238464L0.238464 2.34163H0.634987Z" fill="#D74B4B"/>
<path d="M1.88123 2.36848H1.59362V1.97363H1.88123V2.36848Z" fill="#D74B4B"/>
<path d="M1.89282 13.8787H1.60521V13.4839H1.89282V13.8787Z" fill="#D74B4B"/>
<path d="M1.58194 17.4637H1.86955V17.8586H1.58194V17.4637Z" fill="#D74B4B"/>
<path d="M1.29309 17.0685H1.02932V16.2788H1.03126V16.1131H0.635125V15.2514H1.03126V15.0628H1.02932V14.668H1.60522V15.0628H1.42779L1.42779 16.2788H1.60522V16.6737H1.87048V16.2788H2.04915L2.04915 15.0628H1.87048V14.668H2.44638V15.0628L2.44567 15.2514H2.84181V16.1131H2.44567V16.2788L2.44638 16.6737L2.44544 17.0685H2.15843V17.463H1.29309V17.0685Z" fill="#D74B4B"/>
<path d="M2.44544 14.2729H2.18169V13.8789H1.31636V14.2729H1.02932V14.668H2.44638L2.44544 14.2729Z" fill="#D74B4B"/>
<path d="M2.84195 15.5391V15.8255H3.23847V15.5391H2.84195Z" fill="#D74B4B"/>
<path d="M0.634987 15.8255V15.5391H0.238464L0.238464 15.8255H0.634987Z" fill="#D74B4B"/>
<path d="M1.88123 15.8524H1.59362V15.4575H1.88123V15.8524Z" fill="#D74B4B"/>
<path d="M1.89282 7.30452H1.60521V6.90967H1.89282V7.30452Z" fill="#D74B4B"/>
<path d="M1.58194 10.8895H1.86955V11.2843H1.58194V10.8895Z" fill="#D74B4B"/>
<path d="M1.29309 10.4943H1.02932V9.70459H1.03126V9.53889H0.635125V8.67721H1.03126V8.4886H1.02932V8.09375H1.60522V8.4886H1.42779L1.42779 9.70459H1.60522V10.0994H1.87048V9.70459H2.04915L2.04915 8.4886H1.87048V8.09375H2.44638V8.4886L2.44567 8.67721H2.84181V9.53889H2.44567V9.70459L2.44638 10.0994L2.44544 10.4943H2.15843V10.8888H1.29309V10.4943Z" fill="#D74B4B"/>
<path d="M2.44544 7.69873H2.18169V7.30469H1.31636V7.69873H1.02932V8.09375H2.44638L2.44544 7.69873Z" fill="#D74B4B"/>
<path d="M2.84195 8.9649V9.2513H3.23847V8.9649H2.84195Z" fill="#D74B4B"/>
<path d="M0.634987 9.2513V8.9649H0.238464L0.238464 9.2513H0.634987Z" fill="#D74B4B"/>
<path d="M1.88123 9.27815H1.59362V8.8833H1.88123V9.27815Z" fill="#D74B4B"/>
<path d="M1.89282 20.7884H1.60521V20.3936H1.89282V20.7884Z" fill="#D74B4B"/>
<path d="M1.58194 24.3734H1.86955V24.7682H1.58194V24.3734Z" fill="#D74B4B"/>
<path d="M1.29309 23.9782H1.02932V23.1885H1.03126V23.0228H0.635125V22.1611H1.03126V21.9725H1.02932V21.5776H1.60522V21.9725H1.42779L1.42779 23.1885H1.60522V23.5833H1.87048V23.1885H2.04915L2.04915 21.9725H1.87048V21.5776H2.44638V21.9725L2.44567 22.1611H2.84181V23.0228H2.44567V23.1885L2.44638 23.5833L2.44544 23.9782H2.15843V24.3727H1.29309V23.9782Z" fill="#D74B4B"/>
<path d="M2.44544 21.1826H2.18169V20.7886H1.31636V21.1826H1.02932V21.5776H2.44638L2.44544 21.1826Z" fill="#D74B4B"/>
<path d="M2.84195 22.4488V22.7352H3.23847V22.4488H2.84195Z" fill="#D74B4B"/>
<path d="M0.634987 22.7352V22.4488H0.238464L0.238464 22.7352H0.634987Z" fill="#D74B4B"/>
<path d="M1.88123 22.762H1.59362V22.3672H1.88123V22.762Z" fill="#D74B4B"/>
<path d="M5.36972 0.394852L5.08211 0.394852V2.50438e-08L5.36972 0V0.394852Z" fill="#D74B4B"/>
<path d="M5.05884 3.97981H5.34645V4.37466H5.05884V3.97981Z" fill="#D74B4B"/>
<path d="M4.76999 3.58463H4.50622V2.79492H4.50816V2.62923H4.11202V1.76754H4.50816V1.57893H4.50622V1.18408H5.08212V1.57893H4.90468V2.79492H5.08212V3.18977H5.34738V2.79492H5.52605V1.57893H5.34738V1.18408H5.92328V1.57893L5.92257 1.76754H6.31871V2.62923H5.92257V2.79492L5.92328 3.18977L5.92234 3.58463H5.63533V3.97916H4.76999V3.58463Z" fill="#D74B4B"/>
<path d="M5.92234 0.789062H5.65859V0.39502L4.79326 0.39502V0.789063H4.50622V1.18408H5.92328L5.92234 0.789062Z" fill="#D74B4B"/>
<path d="M6.31885 2.05523V2.34163H6.71537V2.05523H6.31885Z" fill="#D74B4B"/>
<path d="M4.11188 2.34163V2.05523H3.71536V2.34163H4.11188Z" fill="#D74B4B"/>
<path d="M5.35812 2.36848H5.07051V1.97363H5.35812V2.36848Z" fill="#D74B4B"/>
<path d="M5.36972 13.8787H5.08211V13.4839H5.36972V13.8787Z" fill="#D74B4B"/>
<path d="M5.05884 17.4637H5.34645V17.8586H5.05884V17.4637Z" fill="#D74B4B"/>
<path d="M4.76999 17.0685H4.50622V16.2788H4.50816V16.1131H4.11202V15.2514H4.50816V15.0628H4.50622V14.668H5.08212V15.0628H4.90468V16.2788H5.08212V16.6737H5.34738V16.2788H5.52605V15.0628H5.34738V14.668H5.92328V15.0628L5.92257 15.2514H6.31871V16.1131H5.92257V16.2788L5.92328 16.6737L5.92234 17.0685H5.63533V17.463H4.76999V17.0685Z" fill="#D74B4B"/>
<path d="M5.92234 14.2729H5.65859V13.8789H4.79326V14.2729H4.50622V14.668H5.92328L5.92234 14.2729Z" fill="#D74B4B"/>
<path d="M6.31885 15.5391V15.8255H6.71537V15.5391H6.31885Z" fill="#D74B4B"/>
<path d="M4.11188 15.8255V15.5391H3.71536V15.8255H4.11188Z" fill="#D74B4B"/>
<path d="M5.35812 15.8524H5.07051V15.4575H5.35812V15.8524Z" fill="#D74B4B"/>
<path d="M5.36972 7.30452H5.08211V6.90967H5.36972V7.30452Z" fill="#D74B4B"/>
<path d="M5.05884 10.8895H5.34645V11.2843H5.05884V10.8895Z" fill="#D74B4B"/>
<path d="M4.76999 10.4943H4.50622V9.70459H4.50816V9.53889H4.11202V8.67721H4.50816V8.4886H4.50622V8.09375H5.08212V8.4886H4.90468V9.70459H5.08212V10.0994H5.34738V9.70459H5.52605V8.4886H5.34738V8.09375H5.92328V8.4886L5.92257 8.67721H6.31871V9.53889H5.92257V9.70459L5.92328 10.0994L5.92234 10.4943H5.63533V10.8888H4.76999V10.4943Z" fill="#D74B4B"/>
<path d="M5.92234 7.69873H5.65859V7.30469H4.79326V7.69873H4.50622V8.09375H5.92328L5.92234 7.69873Z" fill="#D74B4B"/>
<path d="M6.31885 8.9649V9.2513H6.71537V8.9649H6.31885Z" fill="#D74B4B"/>
<path d="M4.11188 9.2513V8.9649H3.71536V9.2513H4.11188Z" fill="#D74B4B"/>
<path d="M5.35812 9.27815H5.07051V8.8833H5.35812V9.27815Z" fill="#D74B4B"/>
<path d="M5.36972 20.7884H5.08211V20.3936H5.36972V20.7884Z" fill="#D74B4B"/>
<path d="M5.05884 24.3734H5.34645V24.7682H5.05884V24.3734Z" fill="#D74B4B"/>
<path d="M4.76999 23.9782H4.50622V23.1885H4.50816V23.0228H4.11202V22.1611H4.50816V21.9725H4.50622V21.5776H5.08212V21.9725H4.90468V23.1885H5.08212V23.5833H5.34738V23.1885H5.52605V21.9725H5.34738V21.5776H5.92328V21.9725L5.92257 22.1611H6.31871V23.0228H5.92257V23.1885L5.92328 23.5833L5.92234 23.9782H5.63533V24.3727H4.76999V23.9782Z" fill="#D74B4B"/>
<path d="M5.92234 21.1826H5.65859V20.7886H4.79326V21.1826H4.50622V21.5776H5.92328L5.92234 21.1826Z" fill="#D74B4B"/>
<path d="M6.31885 22.4488V22.7352H6.71537V22.4488H6.31885Z" fill="#D74B4B"/>
<path d="M4.11188 22.7352V22.4488H3.71536V22.7352H4.11188Z" fill="#D74B4B"/>
<path d="M5.35812 22.762H5.07051V22.3672H5.35812V22.762Z" fill="#D74B4B"/>
<path d="M0.958677 4.60332H0.792011V4.37451H0.958677V4.60332Z" fill="#D74B4B"/>
<path d="M0.778524 6.68079H0.945191V6.9096H0.778524V6.68079Z" fill="#D74B4B"/>
<path d="M0.611149 6.45187H0.458281V5.99425H0.459417V5.89837H0.229869L0.229869 5.39903H0.459417V5.28945H0.458281V5.06064H0.792007V5.28945H0.689196V5.99425H0.792007V6.22306H0.94574V5.99425H1.04927V5.28945H0.94574V5.06064H1.27947V5.28945L1.27905 5.39903H1.5086V5.89837H1.27905V5.99425L1.27947 6.22306L1.2789 6.45187H1.1126V6.68027H0.611149V6.45187Z" fill="#D74B4B"/>
<path d="M1.27891 4.83178H1.12608V4.60338H0.624632V4.83178H0.458283L0.458281 5.06064H1.27947L1.27891 4.83178Z" fill="#D74B4B"/>
<path d="M1.50869 5.5654V5.73137H1.73847V5.5654H1.50869Z" fill="#D74B4B"/>
<path d="M0.229779 5.73137V5.5654H7.28505e-09L0 5.73137H0.229779Z" fill="#D74B4B"/>
<path d="M0.951965 5.74719H0.785298V5.51837H0.951965V5.74719Z" fill="#D74B4B"/>
<path d="M0.958677 18.0872H0.792011V17.8584H0.958677V18.0872Z" fill="#D74B4B"/>
<path d="M0.778524 20.1647H0.945191V20.3935H0.778524V20.1647Z" fill="#D74B4B"/>
<path d="M0.611149 19.9358H0.458281V19.4781H0.459417V19.3823H0.229869L0.229869 18.8829H0.459417V18.7733H0.458281V18.5445H0.792007V18.7733H0.689196V19.4781H0.792007V19.7069H0.94574V19.4781H1.04927V18.7733H0.94574V18.5445H1.27947V18.7733L1.27905 18.8829H1.5086V19.3823H1.27905V19.4781L1.27947 19.7069L1.2789 19.9358H1.1126V20.1642H0.611149V19.9358Z" fill="#D74B4B"/>
<path d="M1.27891 18.3157H1.12608V18.0873L0.624632 18.0873V18.3157H0.458283L0.458281 18.5445H1.27947L1.27891 18.3157Z" fill="#D74B4B"/>
<path d="M1.50869 19.0493V19.2153H1.73847V19.0493H1.50869Z" fill="#D74B4B"/>
<path d="M0.229779 19.2153V19.0493H7.28505e-09L0 19.2153H0.229779Z" fill="#D74B4B"/>
<path d="M0.951965 19.2311H0.785298V19.0023H0.951965V19.2311Z" fill="#D74B4B"/>
<path d="M0.958677 11.1775H0.792011V10.9487H0.958677V11.1775Z" fill="#D74B4B"/>
<path d="M0.778524 13.255H0.945191V13.4838H0.778524V13.255Z" fill="#D74B4B"/>
<path d="M0.611149 13.0261H0.458281V12.5685H0.459417V12.4726H0.229869L0.229869 11.9732H0.459417V11.8637H0.458281V11.6349H0.792007V11.8637H0.689196V12.5685H0.792007V12.7973H0.94574V12.5685H1.04927V11.8637H0.94574V11.6349H1.27947V11.8637L1.27905 11.9732H1.5086V12.4726H1.27905V12.5685L1.27947 12.7973L1.2789 13.0261H1.1126V13.2545H0.611149V13.0261Z" fill="#D74B4B"/>
<path d="M1.27891 11.406H1.12608V11.1776H0.624632V11.406H0.458283L0.458281 11.6349H1.27947L1.27891 11.406Z" fill="#D74B4B"/>
<path d="M1.50869 12.1396V12.3056H1.73847V12.1396H1.50869Z" fill="#D74B4B"/>
<path d="M0.229779 12.3056V12.1396H7.28505e-09L0 12.3056H0.229779Z" fill="#D74B4B"/>
<path d="M0.951965 12.3214H0.785298V12.0926H0.951965V12.3214Z" fill="#D74B4B"/>
<path d="M2.69714 4.60332H2.53048V4.37451H2.69714V4.60332Z" fill="#D74B4B"/>
<path d="M2.51699 6.68079H2.68366V6.9096H2.51699V6.68079Z" fill="#D74B4B"/>
<path d="M2.34961 6.45187H2.19675V5.99425H2.19788V5.89837H1.96833V5.39903H2.19788V5.28945H2.19675V5.06064H2.53047V5.28945H2.42766V5.99425H2.53047V6.22306H2.6842V5.99425H2.78773V5.28945H2.6842V5.06064H3.01793V5.28945L3.01751 5.39903H3.24706V5.89837H3.01751V5.99425L3.01793 6.22306L3.01737 6.45187H2.85106V6.68027H2.34961V6.45187Z" fill="#D74B4B"/>
<path d="M3.01737 4.83178H2.86455V4.60338H2.3631V4.83178H2.19675L2.19675 5.06064H3.01793L3.01737 4.83178Z" fill="#D74B4B"/>
<path d="M3.24715 5.5654V5.73137H3.47693V5.5654H3.24715Z" fill="#D74B4B"/>
<path d="M1.96824 5.73137V5.5654H1.73847V5.73137H1.96824Z" fill="#D74B4B"/>
<path d="M2.69043 5.74719H2.52376V5.51837H2.69043V5.74719Z" fill="#D74B4B"/>
<path d="M2.69714 18.0872H2.53048V17.8584H2.69714V18.0872Z" fill="#D74B4B"/>
<path d="M2.51699 20.1647H2.68366V20.3935H2.51699V20.1647Z" fill="#D74B4B"/>
<path d="M2.34961 19.9358H2.19675V19.4781H2.19788V19.3823H1.96833V18.8829H2.19788V18.7733H2.19675V18.5445H2.53047V18.7733H2.42766V19.4781H2.53047V19.7069H2.6842V19.4781H2.78773V18.7733H2.6842V18.5445H3.01793V18.7733L3.01751 18.8829H3.24706V19.3823H3.01751V19.4781L3.01793 19.7069L3.01737 19.9358H2.85106V20.1642H2.34961V19.9358Z" fill="#D74B4B"/>
<path d="M3.01737 18.3157H2.86455V18.0873L2.3631 18.0873V18.3157H2.19675L2.19675 18.5445H3.01793L3.01737 18.3157Z" fill="#D74B4B"/>
<path d="M3.24715 19.0493V19.2153H3.47693V19.0493H3.24715Z" fill="#D74B4B"/>
<path d="M1.96824 19.2153V19.0493H1.73847V19.2153H1.96824Z" fill="#D74B4B"/>
<path d="M2.69043 19.2311H2.52376V19.0023H2.69043V19.2311Z" fill="#D74B4B"/>
<path d="M2.69714 11.1775H2.53048V10.9487H2.69714V11.1775Z" fill="#D74B4B"/>
<path d="M2.51699 13.255H2.68366V13.4838H2.51699V13.255Z" fill="#D74B4B"/>
<path d="M2.34961 13.0261H2.19675V12.5685H2.19788V12.4726H1.96833V11.9732H2.19788V11.8637H2.19675V11.6349H2.53047V11.8637H2.42766V12.5685H2.53047V12.7973H2.6842V12.5685H2.78773V11.8637H2.6842V11.6349H3.01793V11.8637L3.01751 11.9732H3.24706V12.4726H3.01751V12.5685L3.01793 12.7973L3.01737 13.0261H2.85106V13.2545H2.34961V13.0261Z" fill="#D74B4B"/>
<path d="M3.01737 11.406H2.86455V11.1776H2.3631V11.406H2.19675L2.19675 11.6349H3.01793L3.01737 11.406Z" fill="#D74B4B"/>
<path d="M3.24715 12.1396V12.3056H3.47693V12.1396H3.24715Z" fill="#D74B4B"/>
<path d="M1.96824 12.3056V12.1396H1.73847V12.3056H1.96824Z" fill="#D74B4B"/>
<path d="M2.69043 12.3214H2.52376V12.0926H2.69043V12.3214Z" fill="#D74B4B"/>
<path d="M4.43559 4.60332H4.26892V4.37451H4.43559V4.60332Z" fill="#D74B4B"/>
<path d="M4.25544 6.68079H4.4221V6.9096H4.25544V6.68079Z" fill="#D74B4B"/>
<path d="M4.08806 6.45187H3.93519V5.99425H3.93633V5.89837H3.70678V5.39903H3.93633V5.28945H3.93519V5.06064H4.26892V5.28945H4.16611V5.99425H4.26892V6.22306H4.42265V5.99425H4.52618V5.28945H4.42265V5.06064H4.75638V5.28945L4.75596 5.39903H4.98551V5.89837H4.75596V5.99425L4.75638 6.22306L4.75582 6.45187H4.58951V6.68027H4.08806V6.45187Z" fill="#D74B4B"/>
<path d="M4.75582 4.83178H4.603V4.60338H4.10155V4.83178H3.9352L3.93519 5.06064H4.75638L4.75582 4.83178Z" fill="#D74B4B"/>
<path d="M4.9856 5.5654V5.73137H5.21538V5.5654H4.9856Z" fill="#D74B4B"/>
<path d="M3.70669 5.73137V5.5654H3.47693V5.73137H3.70669Z" fill="#D74B4B"/>
<path d="M4.42888 5.74719H4.26221V5.51837H4.42888V5.74719Z" fill="#D74B4B"/>
<path d="M4.43559 18.0872H4.26892V17.8584H4.43559V18.0872Z" fill="#D74B4B"/>
<path d="M4.25544 20.1647H4.4221V20.3935H4.25544V20.1647Z" fill="#D74B4B"/>
<path d="M4.08806 19.9358H3.93519V19.4781H3.93633V19.3823H3.70678V18.8829H3.93633V18.7733H3.93519V18.5445H4.26892V18.7733H4.16611V19.4781H4.26892V19.7069H4.42265V19.4781H4.52618V18.7733H4.42265V18.5445H4.75638V18.7733L4.75596 18.8829H4.98551V19.3823H4.75596V19.4781L4.75638 19.7069L4.75582 19.9358H4.58951V20.1642H4.08806V19.9358Z" fill="#D74B4B"/>
<path d="M4.75582 18.3157H4.603V18.0873L4.10155 18.0873V18.3157H3.9352L3.93519 18.5445H4.75638L4.75582 18.3157Z" fill="#D74B4B"/>
<path d="M4.9856 19.0493V19.2153H5.21538V19.0493H4.9856Z" fill="#D74B4B"/>
<path d="M3.70669 19.2153V19.0493H3.47693V19.2153H3.70669Z" fill="#D74B4B"/>
<path d="M4.42888 19.2311H4.26221V19.0023H4.42888V19.2311Z" fill="#D74B4B"/>
<path d="M4.43559 11.1775H4.26892V10.9487H4.43559V11.1775Z" fill="#D74B4B"/>
<path d="M4.25544 13.255H4.4221V13.4838H4.25544V13.255Z" fill="#D74B4B"/>
<path d="M4.08806 13.0261H3.93519V12.5685H3.93633V12.4726H3.70678V11.9732H3.93633V11.8637H3.93519V11.6349H4.26892V11.8637H4.16611V12.5685H4.26892V12.7973H4.42265V12.5685H4.52618V11.8637H4.42265V11.6349H4.75638V11.8637L4.75596 11.9732H4.98551V12.4726H4.75596V12.5685L4.75638 12.7973L4.75582 13.0261H4.58951V13.2545H4.08806V13.0261Z" fill="#D74B4B"/>
<path d="M4.75582 11.406H4.603V11.1776H4.10155V11.406H3.9352L3.93519 11.6349H4.75638L4.75582 11.406Z" fill="#D74B4B"/>
<path d="M4.9856 12.1396V12.3056H5.21538V12.1396H4.9856Z" fill="#D74B4B"/>
<path d="M3.70669 12.3056V12.1396H3.47693V12.3056H3.70669Z" fill="#D74B4B"/>
<path d="M4.42888 12.3214H4.26221V12.0926H4.42888V12.3214Z" fill="#D74B4B"/>
<path d="M6.17404 4.60332H6.00737V4.37451H6.17404V4.60332Z" fill="#D74B4B"/>
<path d="M5.99389 6.68079H6.16055V6.9096H5.99389V6.68079Z" fill="#D74B4B"/>
<path d="M5.82651 6.45187H5.67364V5.99425H5.67478V5.89837H5.44523V5.39903H5.67478V5.28945H5.67364V5.06064H6.00737V5.28945H5.90456V5.99425H6.00737V6.22306H6.1611V5.99425H6.26463V5.28945H6.1611V5.06064H6.49483V5.28945L6.49441 5.39903H6.72396V5.89837H6.49441V5.99425L6.49483 6.22306L6.49427 6.45187H6.32796V6.68027H5.82651V6.45187Z" fill="#D74B4B"/>
<path d="M6.49427 4.83178H6.34144V4.60338H5.83999V4.83178H5.67365L5.67364 5.06064H6.49483L6.49427 4.83178Z" fill="#D74B4B"/>
<path d="M6.72405 5.5654V5.73137H6.95383V5.5654H6.72405Z" fill="#D74B4B"/>
<path d="M5.44514 5.73137V5.5654H5.21538V5.73137H5.44514Z" fill="#D74B4B"/>
<path d="M6.16733 5.74719H6.00066V5.51837H6.16733V5.74719Z" fill="#D74B4B"/>
<path d="M6.17404 18.0872H6.00737V17.8584H6.17404V18.0872Z" fill="#D74B4B"/>
<path d="M5.99389 20.1647H6.16055V20.3935H5.99389V20.1647Z" fill="#D74B4B"/>
<path d="M5.82651 19.9358H5.67364V19.4781H5.67478V19.3823H5.44523V18.8829H5.67478V18.7733H5.67364V18.5445H6.00737V18.7733H5.90456V19.4781H6.00737V19.7069H6.1611V19.4781H6.26463V18.7733H6.1611V18.5445H6.49483V18.7733L6.49441 18.8829H6.72396V19.3823H6.49441V19.4781L6.49483 19.7069L6.49427 19.9358H6.32796V20.1642H5.82651V19.9358Z" fill="#D74B4B"/>
<path d="M6.49427 18.3157H6.34144V18.0873L5.83999 18.0873V18.3157H5.67365L5.67364 18.5445H6.49483L6.49427 18.3157Z" fill="#D74B4B"/>
<path d="M6.72405 19.0493V19.2153H6.95383V19.0493H6.72405Z" fill="#D74B4B"/>
<path d="M5.44514 19.2153V19.0493H5.21538V19.2153H5.44514Z" fill="#D74B4B"/>
<path d="M6.16733 19.2311H6.00066V19.0023H6.16733V19.2311Z" fill="#D74B4B"/>
<path d="M6.17404 11.1775H6.00737V10.9487H6.17404V11.1775Z" fill="#D74B4B"/>
<path d="M5.99389 13.255H6.16055V13.4838H5.99389V13.255Z" fill="#D74B4B"/>
<path d="M5.82651 13.0261H5.67364V12.5685H5.67478V12.4726H5.44523V11.9732H5.67478V11.8637H5.67364V11.6349H6.00737V11.8637H5.90456V12.5685H6.00737V12.7973H6.1611V12.5685H6.26463V11.8637H6.1611V11.6349H6.49483V11.8637L6.49441 11.9732H6.72396V12.4726H6.49441V12.5685L6.49483 12.7973L6.49427 13.0261H6.32796V13.2545H5.82651V13.0261Z" fill="#D74B4B"/>
<path d="M6.49427 11.406H6.34144V11.1776H5.83999V11.406H5.67365L5.67364 11.6349H6.49483L6.49427 11.406Z" fill="#D74B4B"/>
<path d="M6.72405 12.1396V12.3056H6.95383V12.1396H6.72405Z" fill="#D74B4B"/>
<path d="M5.44514 12.3056V12.1396H5.21538V12.3056H5.44514Z" fill="#D74B4B"/>
<path d="M6.16733 12.3214H6.00066V12.0926H6.16733V12.3214Z" fill="#D74B4B"/>
</g>
<defs>
<clipPath id="clip0_440_1542">
<rect width="24" height="24" rx="2" fill="white"/>
</clipPath>
</defs>
</svg>
