<svg width="32" height="24" viewBox="0 0 32 24" fill="none" xmlns="http://www.w3.org/2000/svg">
<rect width="32" height="24" rx="2" fill="#485CC2"/>
<path d="M6 0H26V24L6 0Z" fill="#F8D74C"/>
<path d="M5.2 0L5.48214 0.811672L6.34127 0.82918L5.65651 1.34833L5.90534 2.17082L5.2 1.68L4.49466 2.17082L4.74349 1.34833L4.05873 0.82918L4.91786 0.811672L5.2 0Z" fill="#F9F9F9"/>
<path d="M6.57825 2.18506L6.86039 2.99673L7.71952 3.01424L7.03476 3.53339L7.28359 4.35588L6.57825 3.86506L5.87291 4.35588L6.12174 3.53339L5.43698 3.01424L6.29611 2.99673L6.57825 2.18506Z" fill="#F9F9F9"/>
<path d="M8.40959 4.35889L8.69173 5.17056L9.55086 5.18807L8.8661 5.70721L9.11494 6.52971L8.40959 6.03889L7.70425 6.52971L7.95309 5.70721L7.26833 5.18807L8.12746 5.17056L8.40959 4.35889Z" fill="#F9F9F9"/>
<path d="M10.225 6.52441L10.5072 7.33609L11.3663 7.35359L10.6815 7.87274L10.9304 8.69523L10.225 8.20441L9.51968 8.69523L9.76852 7.87274L9.08376 7.35359L9.94289 7.33609L10.225 6.52441Z" fill="#F9F9F9"/>
<path d="M12.0382 8.68896L12.3204 9.50064L13.1795 9.51814L12.4947 10.0373L12.7436 10.8598L12.0382 10.369L11.3329 10.8598L11.5817 10.0373L10.897 9.51814L11.7561 9.50064L12.0382 8.68896Z" fill="#F9F9F9"/>
<path d="M13.8607 10.8672L14.1428 11.6789L15.002 11.6964L14.3172 12.2155L14.566 13.038L13.8607 12.5472L13.1554 13.038L13.4042 12.2155L12.7194 11.6964L13.5786 11.6789L13.8607 10.8672Z" fill="#F9F9F9"/>
<path d="M15.6614 13.0244L15.9436 13.8361L16.8027 13.8536L16.1179 14.3727L16.3668 15.1952L15.6614 14.7044L14.9561 15.1952L15.2049 14.3727L14.5202 13.8536L15.3793 13.8361L15.6614 13.0244Z" fill="#F9F9F9"/>
<path d="M17.4718 15.1909L17.7539 16.0026L18.613 16.0201L17.9283 16.5392L18.1771 17.3617L17.4718 16.8709L16.7664 17.3617L17.0153 16.5392L16.3305 16.0201L17.1896 16.0026L17.4718 15.1909Z" fill="#F9F9F9"/>
<path d="M19.2821 17.3672L19.5643 18.1789L20.4234 18.1964L19.7386 18.7155L19.9875 19.538L19.2821 19.0472L18.5768 19.538L18.8256 18.7155L18.1409 18.1964L19 18.1789L19.2821 17.3672Z" fill="#F9F9F9"/>
<path d="M21.0925 19.5435L21.3746 20.3551L22.2337 20.3726L21.549 20.8918L21.7978 21.7143L21.0925 21.2235L20.3871 21.7143L20.636 20.8918L19.9512 20.3726L20.8103 20.3551L21.0925 19.5435Z" fill="#F9F9F9"/>
<path d="M22.9028 21.71L23.185 22.5216L24.0441 22.5391L23.3593 23.0583L23.6082 23.8808L22.9028 23.39L22.1975 23.8808L22.4463 23.0583L21.7616 22.5391L22.6207 22.5216L22.9028 21.71Z" fill="#F9F9F9"/>
</svg>
