<svg width="24" height="24" viewBox="0 0 24 24" fill="none" xmlns="http://www.w3.org/2000/svg">
<g clip-path="url(#clip0_440_1546)">
<rect width="24" height="24" rx="2" fill="#485CC2"/>
<path d="M1.23599 0H21.236V24L1.23599 0Z" fill="#F8D74C"/>
<path d="M0.436007 0L0.718144 0.811672L1.57727 0.82918L0.892514 1.34833L1.14135 2.17082L0.436007 1.68L-0.269336 2.17082L-0.0205005 1.34833L-0.705261 0.82918L0.15387 0.811672L0.436007 0Z" fill="#F9F9F9"/>
<path d="M1.81426 2.18506L2.09639 2.99673L2.95552 3.01424L2.27076 3.53339L2.5196 4.35588L1.81426 3.86506L1.10891 4.35588L1.35775 3.53339L0.672989 3.01424L1.53212 2.99673L1.81426 2.18506Z" fill="#F9F9F9"/>
<path d="M3.6456 4.35889L3.92774 5.17056L4.78687 5.18807L4.10211 5.70721L4.35094 6.52971L3.6456 6.03889L2.94026 6.52971L3.18909 5.70721L2.50433 5.18807L3.36346 5.17056L3.6456 4.35889Z" fill="#F9F9F9"/>
<path d="M5.46103 6.52441L5.74317 7.33609L6.6023 7.35359L5.91754 7.87274L6.16637 8.69523L5.46103 8.20441L4.75569 8.69523L5.00452 7.87274L4.31976 7.35359L5.17889 7.33609L5.46103 6.52441Z" fill="#F9F9F9"/>
<path d="M7.27423 8.68896L7.55637 9.50064L8.4155 9.51814L7.73074 10.0373L7.97958 10.8598L7.27423 10.369L6.56889 10.8598L6.81773 10.0373L6.13297 9.51814L6.9921 9.50064L7.27423 8.68896Z" fill="#F9F9F9"/>
<path d="M9.09671 10.8672L9.37885 11.6789L10.238 11.6964L9.55322 12.2155L9.80205 13.038L9.09671 12.5472L8.39137 13.038L8.64021 12.2155L7.95544 11.6964L8.81458 11.6789L9.09671 10.8672Z" fill="#F9F9F9"/>
<path d="M10.8974 13.0244L11.1796 13.8361L12.0387 13.8536L11.3539 14.3727L11.6028 15.1952L10.8974 14.7044L10.1921 15.1952L10.4409 14.3727L9.75616 13.8536L10.6153 13.8361L10.8974 13.0244Z" fill="#F9F9F9"/>
<path d="M12.7078 15.1909L12.9899 16.0026L13.849 16.0201L13.1643 16.5392L13.4131 17.3617L12.7078 16.8709L12.0024 17.3617L12.2513 16.5392L11.5665 16.0201L12.4256 16.0026L12.7078 15.1909Z" fill="#F9F9F9"/>
<path d="M14.5181 17.3672L14.8003 18.1789L15.6594 18.1964L14.9746 18.7155L15.2235 19.538L14.5181 19.0472L13.8128 19.538L14.0616 18.7155L13.3769 18.1964L14.236 18.1789L14.5181 17.3672Z" fill="#F9F9F9"/>
<path d="M16.3285 19.5435L16.6106 20.3551L17.4697 20.3726L16.785 20.8918L17.0338 21.7143L16.3285 21.2235L15.6231 21.7143L15.872 20.8918L15.1872 20.3726L16.0463 20.3551L16.3285 19.5435Z" fill="#F9F9F9"/>
<path d="M18.1388 21.71L18.421 22.5216L19.2801 22.5391L18.5953 23.0583L18.8442 23.8808L18.1388 23.39L17.4335 23.8808L17.6823 23.0583L16.9976 22.5391L17.8567 22.5216L18.1388 21.71Z" fill="#F9F9F9"/>
</g>
<defs>
<clipPath id="clip0_440_1546">
<rect width="24" height="24" rx="2" fill="white"/>
</clipPath>
</defs>
</svg>
