<svg width="32" height="24" viewBox="0 0 32 24" fill="none" xmlns="http://www.w3.org/2000/svg">
<g clip-path="url(#clip0_440_1520)">
<rect width="32" height="24" rx="2" fill="#F9F9F9"/>
<path d="M0 16H32V24H0V16Z" fill="#485CC2"/>
<path d="M0 0H32V8H0V0Z" fill="#D74B4B"/>
<path d="M11.2764 9.19092H20.6197V14.7517C20.6197 17.3317 18.5281 19.4233 15.948 19.4233L-nan -nanL15.948 19.4233C13.3679 19.4233 11.2764 17.3317 11.2764 14.7517V9.19092Z" fill="#F9F9F9"/>
<path fill-rule="evenodd" clip-rule="evenodd" d="M20.4197 9.39092H11.4764V14.7517C11.4764 17.2213 13.4784 19.2233 15.948 19.2233C18.4177 19.2233 20.4197 17.2213 20.4197 14.7517V9.39092ZM11.2764 9.19092V14.7517C11.2764 17.3317 13.3679 19.4233 15.948 19.4233C18.5281 19.4233 20.6197 17.3317 20.6197 14.7517V9.19092H11.2764Z" fill="#D74B4B"/>
<mask id="mask0_440_1520" style="mask-type:alpha" maskUnits="userSpaceOnUse" x="11" y="9" width="10" height="11">
<path d="M11.5371 9.44434H20.3425V14.7538C20.3425 17.1854 18.3713 19.1566 15.9397 19.1565L-nan -nanL15.9397 19.1565C13.5081 19.1565 11.537 17.1853 11.537 14.7537L11.5371 9.44434Z" fill="#3FB47C"/>
</mask>
<g mask="url(#mask0_440_1520)">
<path fill-rule="evenodd" clip-rule="evenodd" d="M11.5411 9.44385H13.3068V11.3892H15.0641V13.3345H13.3068V15.2798H15.0641V17.2251H13.3068V19.1704H11.5411V17.2251H13.2985V15.2798H11.5411V13.3345H13.2985V11.3892H11.5411V9.44385ZM16.8297 17.2251H15.0641V19.1704H16.8297V17.2251ZM16.8297 15.2798V17.2251H18.5867V19.1704H20.3524V17.2251H18.5953V15.2798H20.3524V13.3345H18.5953V11.3892H20.3524V9.44385H18.5867V11.3892H16.8297V9.44385H15.0641V11.3892H16.8297V13.3345H15.0641V15.2798H16.8297ZM16.8297 15.2798H18.5867V13.3345H16.8297V15.2798Z" fill="#D74B4B"/>
</g>
<path fill-rule="evenodd" clip-rule="evenodd" d="M10.5247 6.72603L11.2786 5.50972L12.6286 5.98241L13.5941 4.89392L14.8719 5.64332L15.9971 4.70691L16 4.70932L16.0029 4.70691L17.1281 5.64332L18.4059 4.89392L19.3714 5.98241L20.7214 5.50972L21.4753 6.72603L20.4539 9.085C18.5211 8.25167 17.4363 8.17367 16 8.17095C14.5637 8.17367 13.4789 8.25167 11.5461 9.085L10.5247 6.72603Z" fill="#64BEDB"/>
<path fill-rule="evenodd" clip-rule="evenodd" d="M16 4.57892L16.0027 4.57666L17.1381 5.52153L18.4262 4.76609L19.4016 5.86586L20.7641 5.38882L21.5879 6.71779L20.5059 9.21636L20.4143 9.17683C18.4972 8.35028 17.4266 8.27366 16 8.27095C14.5733 8.27366 13.5028 8.35028 11.5857 9.17683L11.494 9.21636L10.4121 6.71779L11.2358 5.38882L12.5983 5.86586L13.5738 4.76609L14.8619 5.52153L15.9973 4.57666L16 4.57892ZM15.9969 4.83716L14.8819 5.7651L13.6144 5.02175L12.6589 6.09897L11.3213 5.63063L10.6372 6.73427L11.5983 8.95389C13.4898 8.15062 14.5767 8.07365 15.9998 8.07095C17.4229 8.07365 18.5102 8.15062 20.4017 8.95389L21.3628 6.73427L20.6787 5.63063L19.3411 6.09897L18.3856 5.02175L17.1181 5.7651L16.0031 4.83716L16 4.83973L15.9969 4.83716Z" fill="#F9F9F9"/>
<path d="M11.5518 6.33393L11.7742 6.57817L12.0548 6.40393L11.9544 6.71861L12.2456 6.87448L11.9229 6.94493L11.9335 7.27504L11.7112 7.03081L11.4306 7.20504L11.5309 6.89037L11.2398 6.73449L11.5624 6.66405L11.5518 6.33393Z" fill="#F8D74C"/>
<path d="M15.5791 5.89002L15.651 6.08494L15.8557 6.04971L15.7228 6.20941L15.8557 6.3691L15.651 6.33388L15.5791 6.5288L15.5072 6.33388L15.3025 6.3691L15.4354 6.20941L15.3025 6.04971L15.5072 6.08494L15.5791 5.89002Z" fill="#F8D74C"/>
<path d="M16.4209 5.89002L16.4927 6.08494L16.6975 6.04971L16.5646 6.20941L16.6975 6.3691L16.4927 6.33388L16.4209 6.5288L16.349 6.33388L16.1443 6.3691L16.2772 6.20941L16.1443 6.04971L16.349 6.08494L16.4209 5.89002Z" fill="#F8D74C"/>
<path d="M16 6.70349L16.0719 6.89841L16.2766 6.86319L16.1437 7.02288L16.2766 7.18258L16.0719 7.14735L16 7.34227L15.9281 7.14735L15.7234 7.18258L15.8563 7.02288L15.7234 6.86319L15.9281 6.89841L16 6.70349Z" fill="#F8D74C"/>
<path d="M19.9781 6.33393L20.2005 6.57817L20.481 6.40393L20.3807 6.71861L20.6719 6.87448L20.3492 6.94493L20.3598 7.27504L20.1375 7.03081L19.8569 7.20504L19.9572 6.89037L19.666 6.73449L19.9887 6.66405L19.9781 6.33393Z" fill="#F8D74C"/>
<path d="M13.3984 8.33484L12.6513 6.09998L13.6122 5.01404L14.8818 5.76404L15.0117 8.10046C14.4634 8.13272 13.9334 8.21055 13.3984 8.33484Z" fill="#485CC2"/>
<path d="M12.6957 6.24033L13.1086 6.13534C13.5461 6.02411 13.9922 5.9501 14.4422 5.91411L14.8795 5.87914L14.925 6.51494L14.6191 6.53836C14.1343 6.5755 13.6539 6.65675 13.1838 6.78113L12.8989 6.8565L12.6957 6.24033Z" fill="#D74B4B"/>
<path d="M13.0716 7.35971L13.3438 7.28727C13.7778 7.17175 14.2208 7.09299 14.6681 7.05182L14.9541 7.0255L14.9943 7.65697L14.8291 7.67261C14.3572 7.7173 13.8901 7.80385 13.4335 7.93125L13.2713 7.97649L13.0716 7.35971Z" fill="#D74B4B"/>
<path d="M20.8096 7.89808L20.4954 7.74635C20.1015 7.55618 19.6926 7.39863 19.273 7.2753L18.9438 7.17853L18.7443 7.76746L19.0783 7.8703C19.4672 7.99098 19.8464 8.14118 20.2124 8.31959L20.5512 8.48472L20.8096 7.89808Z" fill="#D74B4B"/>
<path fill-rule="evenodd" clip-rule="evenodd" d="M20.8536 7.7987L20.5398 7.65623C20.1424 7.4642 19.7298 7.3052 19.3063 7.18084L18.9809 7.07233L18.7247 7.87174L19.0536 7.96724C19.4364 8.08594 19.8096 8.2338 20.1698 8.40951L20.5178 8.56048L20.8536 7.7987ZM20.8096 7.89808L20.4964 7.74629C20.1038 7.55663 19.6964 7.3996 19.2781 7.27678L18.9499 7.18041L18.7586 7.77106L19.0833 7.87174C19.4709 7.99195 19.8488 8.14167 20.2136 8.31961L20.5512 8.48472L20.8096 7.89808Z" fill="#F9F9F9"/>
<path d="M18.6211 8.33875L19.3516 6.09998L18.3907 5.01404L17.1212 5.76404L16.9883 8.09265C17.5394 8.12507 18.0845 8.20919 18.6211 8.33875Z" fill="#485CC2"/>
<path fill-rule="evenodd" clip-rule="evenodd" d="M17.837 6.01074L17.9683 6.729L17.9333 6.77629L18.3916 6.82949L18.4813 6.7445L18.6403 6.6299L18.8157 6.87325L18.673 6.9761L18.4962 7.14365L18.4222 7.13505L18.2188 7.57554L17.9464 7.4498L18.1086 7.09865L17.9913 7.08504L17.7627 7.576L17.4907 7.44934L17.6773 7.0486L17.3832 7.01446L17.6498 6.6549L17.6202 6.49325L17.5059 6.56265L17.3502 6.30619L17.837 6.01074Z" fill="#F8D74C"/>
<path fill-rule="evenodd" clip-rule="evenodd" d="M17.9973 6.06885L18.5853 6.40281L18.5359 6.48977L17.9866 6.1778L17.7866 6.24448L17.755 6.14961L17.9973 6.06885Z" fill="#D74B4B"/>
<path fill-rule="evenodd" clip-rule="evenodd" d="M17.9228 5.94791L18.4189 6.078L18.3936 6.17473L17.9395 6.05567L17.7608 6.16863L17.7074 6.0841L17.9228 5.94791Z" fill="#D74B4B"/>
</g>
<defs>
<clipPath id="clip0_440_1520">
<rect width="32" height="24" rx="2" fill="white"/>
</clipPath>
</defs>
</svg>
