<svg width="24" height="24" viewBox="0 0 24 24" fill="none" xmlns="http://www.w3.org/2000/svg">
<g clip-path="url(#clip0_440_1518)">
<rect width="24" height="24" rx="2" fill="#F9F9F9"/>
<rect y="16" width="24" height="8" fill="#485CC2"/>
<rect width="24" height="8" fill="#D74B4B"/>
<path d="M7.41211 9.19092H16.7554V14.7517C16.7554 17.3317 14.6639 19.4233 12.0838 19.4233L-nan -nanL12.0838 19.4233C9.50369 19.4233 7.41211 17.3317 7.41211 14.7517V9.19092Z" fill="#F9F9F9"/>
<path fill-rule="evenodd" clip-rule="evenodd" d="M16.5554 9.39092H7.61211V14.7517C7.61211 17.2213 9.61414 19.2233 12.0838 19.2233C14.5534 19.2233 16.5554 17.2213 16.5554 14.7517V9.39092ZM7.41211 9.19092V14.7517C7.41211 17.3317 9.50369 19.4233 12.0838 19.4233C14.6639 19.4233 16.7554 17.3317 16.7554 14.7517V9.19092H7.41211Z" fill="#D74B4B"/>
<mask id="mask0_440_1518" style="mask-type:alpha" maskUnits="userSpaceOnUse" x="7" y="9" width="10" height="11">
<path d="M7.67286 9.44434H16.4783V14.7538C16.4783 17.1854 14.507 19.1566 12.0754 19.1565L-nan -nanL12.0754 19.1565C9.64387 19.1565 7.67276 17.1853 7.67279 14.7537L7.67286 9.44434Z" fill="#3FB47C"/>
</mask>
<g mask="url(#mask0_440_1518)">
<path fill-rule="evenodd" clip-rule="evenodd" d="M7.67688 9.44385H9.4425V11.3892H11.1998V13.3345H9.4425V15.2798H11.1998V17.2251H9.4425V19.1704H7.67688V17.2251H9.4342V15.2798H7.67688V13.3345H9.4342V11.3892H7.67688V9.44385ZM12.9655 17.2251H11.1998V19.1704H12.9655V17.2251ZM12.9655 15.2798V17.2251H14.7225V19.1704H16.4881V17.2251H14.7311V15.2798H16.4881V13.3345H14.7311V11.3892H16.4881V9.44385H14.7225V11.3892H12.9655V9.44385H11.1998V11.3892H12.9655V13.3345H11.1998V15.2798H12.9655ZM12.9655 15.2798H14.7225V13.3345H12.9655V15.2798Z" fill="#D74B4B"/>
</g>
<path fill-rule="evenodd" clip-rule="evenodd" d="M6.52465 6.72603L7.27856 5.50972L8.62863 5.98241L9.59408 4.89392L10.8719 5.64332L11.9971 4.70691L12 4.70932L12.0029 4.70691L13.1281 5.64332L14.4059 4.89392L15.3714 5.98241L16.7214 5.50972L17.4753 6.72603L16.4539 9.085C14.5211 8.25167 13.4363 8.17367 12 8.17095C10.5637 8.17367 9.47893 8.25167 7.54613 9.085L6.52465 6.72603Z" fill="#64BEDB"/>
<path fill-rule="evenodd" clip-rule="evenodd" d="M12 4.57892L12.0027 4.57666L13.1381 5.52153L14.4262 4.76609L15.4016 5.86586L16.7641 5.38882L17.5879 6.71779L16.5059 9.21636L16.4143 9.17683C14.4972 8.35028 13.4266 8.27366 12 8.27095C10.5733 8.27366 9.50281 8.35028 7.58573 9.17683L7.49404 9.21636L6.41211 6.71779L7.23585 5.38882L8.59834 5.86586L9.57379 4.76609L10.8619 5.52153L11.9973 4.57666L12 4.57892ZM11.9969 4.83716L10.8819 5.7651L9.61437 5.02175L8.65892 6.09897L7.32127 5.63063L6.63719 6.73427L7.59833 8.95389C9.4898 8.15062 10.5767 8.07365 11.9998 8.07095C13.4229 8.07365 14.5102 8.15062 16.4017 8.95389L17.3628 6.73427L16.6787 5.63063L15.3411 6.09897L14.3856 5.02175L13.1181 5.7651L12.0031 4.83716L12 4.83973L11.9969 4.83716Z" fill="#F9F9F9"/>
<path d="M7.55184 6.33393L7.77419 6.57817L8.05478 6.40393L7.95444 6.71861L8.24562 6.87448L7.92294 6.94493L7.93354 7.27504L7.71119 7.03081L7.4306 7.20504L7.53094 6.89037L7.23976 6.73449L7.56244 6.66405L7.55184 6.33393Z" fill="#F8D74C"/>
<path d="M11.5791 5.89002L11.651 6.08494L11.8557 6.04971L11.7228 6.20941L11.8557 6.3691L11.651 6.33388L11.5791 6.5288L11.5072 6.33388L11.3025 6.3691L11.4354 6.20941L11.3025 6.04971L11.5072 6.08494L11.5791 5.89002Z" fill="#F8D74C"/>
<path d="M12.4209 5.89002L12.4927 6.08494L12.6975 6.04971L12.5646 6.20941L12.6975 6.3691L12.4927 6.33388L12.4209 6.5288L12.349 6.33388L12.1443 6.3691L12.2772 6.20941L12.1443 6.04971L12.349 6.08494L12.4209 5.89002Z" fill="#F8D74C"/>
<path d="M12 6.70349L12.0719 6.89841L12.2766 6.86319L12.1437 7.02288L12.2766 7.18258L12.0719 7.14735L12 7.34227L11.9281 7.14735L11.7234 7.18258L11.8563 7.02288L11.7234 6.86319L11.9281 6.89841L12 6.70349Z" fill="#F8D74C"/>
<path d="M15.9781 6.33393L16.2005 6.57817L16.481 6.40393L16.3807 6.71861L16.6719 6.87448L16.3492 6.94493L16.3598 7.27504L16.1375 7.03081L15.8569 7.20504L15.9572 6.89037L15.666 6.73449L15.9887 6.66405L15.9781 6.33393Z" fill="#F8D74C"/>
<path d="M9.39843 8.33484L8.6513 6.09998L9.61224 5.01404L10.8818 5.76404L11.0117 8.10046C10.4634 8.13272 9.93343 8.21055 9.39843 8.33484Z" fill="#485CC2"/>
<path d="M8.6957 6.24033L9.10862 6.13534C9.5461 6.02411 9.99221 5.9501 10.4422 5.91411L10.8795 5.87914L10.925 6.51494L10.6191 6.53836C10.1343 6.5755 9.65388 6.65675 9.18381 6.78113L8.89891 6.8565L8.6957 6.24033Z" fill="#D74B4B"/>
<path d="M9.07161 7.35971L9.3438 7.28727C9.77785 7.17175 10.2208 7.09299 10.6681 7.05182L10.9541 7.0255L10.9943 7.65697L10.8291 7.67261C10.3572 7.7173 9.8901 7.80385 9.43346 7.93125L9.27128 7.97649L9.07161 7.35971Z" fill="#D74B4B"/>
<path d="M16.8096 7.89808L16.4954 7.74635C16.1015 7.55618 15.6926 7.39863 15.273 7.2753L14.9438 7.17853L14.7443 7.76746L15.0783 7.8703C15.4672 7.99098 15.8464 8.14118 16.2124 8.31959L16.5512 8.48472L16.8096 7.89808Z" fill="#D74B4B"/>
<path fill-rule="evenodd" clip-rule="evenodd" d="M16.8536 7.7987L16.5398 7.65623C16.1424 7.4642 15.7298 7.3052 15.3063 7.18084L14.9809 7.07233L14.7247 7.87174L15.0536 7.96724C15.4364 8.08594 15.8096 8.2338 16.1698 8.40951L16.5178 8.56048L16.8536 7.7987ZM16.8096 7.89808L16.4964 7.74629C16.1038 7.55663 15.6964 7.3996 15.2781 7.27678L14.9499 7.18041L14.7586 7.77106L15.0833 7.87174C15.4709 7.99195 15.8488 8.14167 16.2136 8.31961L16.5512 8.48472L16.8096 7.89808Z" fill="#F9F9F9"/>
<path d="M14.6211 8.33875L15.3516 6.09998L14.3907 5.01404L13.1212 5.76404L12.9883 8.09265C13.5394 8.12507 14.0845 8.20919 14.6211 8.33875Z" fill="#485CC2"/>
<path fill-rule="evenodd" clip-rule="evenodd" d="M13.837 6.01074L13.9683 6.729L13.9333 6.77629L14.3916 6.82949L14.4813 6.7445L14.6403 6.6299L14.8157 6.87325L14.673 6.9761L14.4962 7.14365L14.4222 7.13505L14.2188 7.57554L13.9464 7.4498L14.1086 7.09865L13.9913 7.08504L13.7627 7.576L13.4907 7.44934L13.6773 7.0486L13.3832 7.01446L13.6498 6.6549L13.6202 6.49325L13.5059 6.56265L13.3502 6.30619L13.837 6.01074Z" fill="#F8D74C"/>
<path fill-rule="evenodd" clip-rule="evenodd" d="M13.9973 6.06885L14.5853 6.40281L14.5359 6.48977L13.9866 6.1778L13.7866 6.24448L13.755 6.14961L13.9973 6.06885Z" fill="#D74B4B"/>
<path fill-rule="evenodd" clip-rule="evenodd" d="M13.9228 5.94791L14.4189 6.078L14.3936 6.17473L13.9395 6.05567L13.7608 6.16863L13.7074 6.0841L13.9228 5.94791Z" fill="#D74B4B"/>
</g>
<defs>
<clipPath id="clip0_440_1518">
<rect width="24" height="24" rx="2" fill="white"/>
</clipPath>
</defs>
</svg>
