<svg width="32" height="24" viewBox="0 0 32 24" fill="none" xmlns="http://www.w3.org/2000/svg">
<rect width="32" height="24" rx="2" fill="#485CC2"/>
<path d="M16.2645 3.64517L15.9824 2.8335L15.7003 3.64517L14.8411 3.66268L15.5259 4.18182L15.2771 5.00432L15.9824 4.5135L16.6877 5.00432L16.4389 4.18182L17.1237 3.66268L16.2645 3.64517Z" fill="#F8D74C"/>
<path d="M16.2645 19.5783L15.9824 18.7666L15.7003 19.5783L14.8411 19.5958L15.5259 20.1149L15.2771 20.9374L15.9824 20.4466L16.6877 20.9374L16.4389 20.1149L17.1237 19.5958L16.2645 19.5783Z" fill="#F8D74C"/>
<path d="M11.9815 3.85107L12.2637 4.66275L13.1228 4.68025L12.438 5.1994L12.6869 6.02189L11.9815 5.53107L11.2762 6.02189L11.525 5.1994L10.8403 4.68025L11.6994 4.66275L11.9815 3.85107Z" fill="#F8D74C"/>
<path d="M12.2637 18.5607L11.9815 17.749L11.6994 18.5607L10.8403 18.5782L11.525 19.0974L11.2762 19.9198L11.9815 19.429L12.6869 19.9198L12.438 19.0974L13.1228 18.5782L12.2637 18.5607Z" fill="#F8D74C"/>
<path d="M9.06864 6.83398L9.35077 7.64566L10.2099 7.66316L9.52514 8.18231L9.77398 9.0048L9.06864 8.51398L8.36329 9.0048L8.61213 8.18231L7.92737 7.66316L8.7865 7.64566L9.06864 6.83398Z" fill="#F8D74C"/>
<path d="M9.35077 15.5959L9.06864 14.7842L8.7865 15.5959L7.92737 15.6134L8.61213 16.1325L8.36329 16.955L9.06864 16.4642L9.77398 16.955L9.52514 16.1325L10.2099 15.6134L9.35077 15.5959Z" fill="#F8D74C"/>
<path d="M7.86862 10.8091L8.15076 11.6208L9.00989 11.6383L8.32513 12.1574L8.57397 12.9799L7.86862 12.4891L7.16328 12.9799L7.41212 12.1574L6.72736 11.6383L7.58649 11.6208L7.86862 10.8091Z" fill="#F8D74C"/>
<path d="M24.4135 11.6208L24.1313 10.8091L23.8492 11.6208L22.9901 11.6383L23.6748 12.1574L23.426 12.9799L24.1313 12.4891L24.8367 12.9799L24.5878 12.1574L25.2726 11.6383L24.4135 11.6208Z" fill="#F8D74C"/>
<path d="M22.9313 6.83398L23.2134 7.64566L24.0726 7.66316L23.3878 8.18231L23.6367 9.0048L22.9313 8.51398L22.226 9.0048L22.4748 8.18231L21.79 7.66316L22.6492 7.64566L22.9313 6.83398Z" fill="#F8D74C"/>
<path d="M23.2134 15.5959L22.9313 14.7842L22.6492 15.5959L21.79 15.6134L22.4748 16.1325L22.226 16.955L22.9313 16.4642L23.6367 16.955L23.3878 16.1325L24.0726 15.6134L23.2134 15.5959Z" fill="#F8D74C"/>
<path d="M19.9834 3.85107L20.2656 4.66275L21.1247 4.68025L20.4399 5.1994L20.6888 6.02189L19.9834 5.53107L19.2781 6.02189L19.5269 5.1994L18.8422 4.68025L19.7013 4.66275L19.9834 3.85107Z" fill="#F8D74C"/>
<path d="M20.2656 18.5607L19.9834 17.749L19.7013 18.5607L18.8422 18.5782L19.5269 19.0974L19.2781 19.9198L19.9834 19.429L20.6888 19.9198L20.4399 19.0974L21.1247 18.5782L20.2656 18.5607Z" fill="#F8D74C"/>
</svg>
