<svg width="24" height="24" viewBox="0 0 24 24" fill="none" xmlns="http://www.w3.org/2000/svg">
<rect width="24" height="24" rx="12" fill="#485CC2"/>
<path d="M12.5372 3.81167L12.255 3L11.9729 3.81167L11.1138 3.82918L11.7985 4.34833L11.5497 5.17082L12.255 4.68L12.9604 5.17082L12.7115 4.34833L13.3963 3.82918L12.5372 3.81167Z" fill="#F8D74C"/>
<path d="M12.5372 19.7448L12.255 18.9331L11.9729 19.7448L11.1138 19.7623L11.7985 20.2814L11.5497 21.1039L12.255 20.6131L12.9604 21.1039L12.7115 20.2814L13.3963 19.7623L12.5372 19.7448Z" fill="#F8D74C"/>
<path d="M8.25418 4.01758L8.53632 4.82925L9.39545 4.84676L8.71069 5.36591L8.95953 6.1884L8.25418 5.69758L7.54884 6.1884L7.79768 5.36591L7.11292 4.84676L7.97205 4.82925L8.25418 4.01758Z" fill="#F8D74C"/>
<path d="M8.53632 18.7272L8.25418 17.9155L7.97205 18.7272L7.11292 18.7447L7.79768 19.2639L7.54884 20.0863L8.25418 19.5955L8.95953 20.0863L8.71069 19.2639L9.39545 18.7447L8.53632 18.7272Z" fill="#F8D74C"/>
<path d="M5.34128 7.00049L5.62342 7.81216L6.48255 7.82967L5.79779 8.34882L6.04662 9.17131L5.34128 8.68049L4.63594 9.17131L4.88477 8.34882L4.20001 7.82967L5.05914 7.81216L5.34128 7.00049Z" fill="#F8D74C"/>
<path d="M5.62342 15.7624L5.34128 14.9507L5.05914 15.7624L4.20001 15.7799L4.88477 16.299L4.63594 17.1215L5.34128 16.6307L6.04662 17.1215L5.79779 16.299L6.48255 15.7799L5.62342 15.7624Z" fill="#F8D74C"/>
<path d="M4.14127 10.9756L4.4234 11.7873L5.28254 11.8048L4.59778 12.3239L4.84661 13.1464L4.14127 12.6556L3.43593 13.1464L3.68476 12.3239L3 11.8048L3.85913 11.7873L4.14127 10.9756Z" fill="#F8D74C"/>
<path d="M20.6861 11.7873L20.404 10.9756L20.1218 11.7873L19.2627 11.8048L19.9475 12.3239L19.6986 13.1464L20.404 12.6556L21.1093 13.1464L20.8605 12.3239L21.5452 11.8048L20.6861 11.7873Z" fill="#F8D74C"/>
<path d="M19.204 7.00049L19.4861 7.81216L20.3452 7.82967L19.6605 8.34882L19.9093 9.17131L19.204 8.68049L18.4986 9.17131L18.7474 8.34882L18.0627 7.82967L18.9218 7.81216L19.204 7.00049Z" fill="#F8D74C"/>
<path d="M19.4861 15.7624L19.204 14.9507L18.9218 15.7624L18.0627 15.7799L18.7474 16.299L18.4986 17.1215L19.204 16.6307L19.9093 17.1215L19.6605 16.299L20.3452 15.7799L19.4861 15.7624Z" fill="#F8D74C"/>
<path d="M16.2561 4.01758L16.5382 4.82925L17.3973 4.84676L16.7126 5.36591L16.9614 6.1884L16.2561 5.69758L15.5507 6.1884L15.7996 5.36591L15.1148 4.84676L15.9739 4.82925L16.2561 4.01758Z" fill="#F8D74C"/>
<path d="M16.5382 18.7272L16.2561 17.9155L15.9739 18.7272L15.1148 18.7447L15.7996 19.2639L15.5507 20.0863L16.2561 19.5955L16.9614 20.0863L16.7126 19.2639L17.3973 18.7447L16.5382 18.7272Z" fill="#F8D74C"/>
</svg>
