<svg width="24" height="24" viewBox="0 0 24 24" fill="none" xmlns="http://www.w3.org/2000/svg">
<g clip-path="url(#clip0_440_1545)">
<rect width="24" height="24" rx="12" fill="#F9F9F9"/>
<path d="M0 16H32V24H0V16Z" fill="#D74B4B"/>
<path d="M5.06048 7.91323H10.3595V13.3582H5.06048V7.91323Z" fill="#D74B4B"/>
<path d="M6.07178 3.75208H8.45879V7.62203H6.07178V3.75208Z" fill="#D74B4B"/>
<path d="M4.0774 13.5749H11.3785V14.4295H4.0774V13.5749Z" fill="#D74B4B"/>
<path d="M4.08245 13.5751L4.95652 13.3582H10.462L11.3816 13.5751H4.08245Z" fill="#D74B4B"/>
<path d="M5.87048 3.44976H8.66V3.75212H5.87048V3.44976Z" fill="#D74B4B"/>
<path fill-rule="evenodd" clip-rule="evenodd" d="M6.05106 2.72198H5.45894V3.4496L8.66 3.44976L8.868 3.4496V2.72198H8.41232V3.13634H7.69152V2.72198H6.78041V3.13634H6.05106V2.72198Z" fill="#D74B4B"/>
<path d="M13.6405 8.0049H18.9395V13.3425H13.6405V8.0049Z" fill="#D74B4B"/>
<path d="M14.6518 3.84236H17.0388V7.77527H14.6518V3.84236Z" fill="#D74B4B"/>
<path d="M12.6574 13.6647H19.9585V14.4296H12.6574V13.6647Z" fill="#D74B4B"/>
<path d="M12.6624 13.6655L13.5365 13.3426H19.042L19.9616 13.6655H12.6624Z" fill="#D74B4B"/>
<path d="M14.4505 3.54004H17.24V3.8424H14.4505V3.54004Z" fill="#D74B4B"/>
<path fill-rule="evenodd" clip-rule="evenodd" d="M14.6311 2.81226H14.0389V3.53988L17.24 3.54004L17.448 3.53988V2.81226H16.9923V3.22661H16.2715V2.81226H15.3604V3.22661H14.6311V2.81226Z" fill="#D74B4B"/>
<path d="M9.83219 2.94013H13.1845V7.50707H9.83219V2.94013Z" fill="#D74B4B"/>
<path fill-rule="evenodd" clip-rule="evenodd" d="M8.15508 7.03915H8.72215V7.39795H9.5672V7.03915H10.6538V7.39795H12.3384V7.03915H13.425V7.39795H14.4664V7.03915H15.0313L15.0312 8.11486H8.15508V7.03915Z" fill="#D74B4B"/>
<path fill-rule="evenodd" clip-rule="evenodd" d="M14.0195 7.39795H17.3072V7.03915H18.3938V7.39795H19.4351V7.03915H20L19.9999 8.11486H14.0195V7.39795Z" fill="#D74B4B"/>
<path fill-rule="evenodd" clip-rule="evenodd" d="M9.98046 7.39795H6.33887V7.03915H5.60622V7.39795H4.56485V7.03915H3.99999L4.00004 8.11486H9.98046V7.39795Z" fill="#D74B4B"/>
<path d="M8.25038 8.21286H14.7666V8.52768H8.25038V8.21286Z" fill="#D74B4B"/>
<path fill-rule="evenodd" clip-rule="evenodd" d="M9.12859 2H9.66712V2.37408L10.4376 2.37408V2H11.1004V2.37408H11.9165V2H12.5793V2.37408L13.3504 2.37408V2H13.8925V2.58889H9.12859V2Z" fill="#D74B4B"/>
<path d="M9.52369 2.58871H13.4972V3.03599H9.52369V2.58871Z" fill="#D74B4B"/>
<path d="M8.85558 8.00499H14.1546V13.9722H8.85558V8.00499Z" fill="#D74B4B"/>
<path d="M7.8725 13.8833H15.1736V14.4302H7.8725V13.8833Z" fill="#D74B4B"/>
<path d="M7.87755 13.787L8.75163 13.4537H14.2571L15.1767 13.787H7.87755Z" fill="#D74B4B"/>
<path d="M6.29185 11.597C6.29185 11.1425 6.67207 10.7741 7.14109 10.7741C7.61012 10.7741 7.99033 11.1425 7.99033 11.597V13.3583H6.29185V11.597Z" fill="#333333"/>
<path d="M6.5519 5.93867C6.5519 5.58811 6.86975 5.30393 7.26185 5.30393C7.65394 5.30393 7.97179 5.58811 7.97179 5.93867V7.3975H6.5519V5.93867Z" fill="#333333"/>
<path d="M14.8719 11.6535C14.8719 11.2177 15.2521 10.8643 15.7211 10.8643C16.1901 10.8643 16.5703 11.2177 16.5703 11.6535V13.3426H14.8719V11.6535Z" fill="#333333"/>
<path d="M15.1319 5.93866C15.1319 5.58811 15.4498 5.30393 15.8418 5.30393C16.2339 5.30393 16.5518 5.58811 16.5518 5.93866V7.39746H15.1319V5.93866Z" fill="#333333"/>
<path d="M10.643 5.77246C10.643 5.35312 11.0232 5.01318 11.4922 5.01318C11.9612 5.01318 12.3414 5.35313 12.3414 5.77246V7.3975H10.643V5.77246Z" fill="#333333"/>
<path d="M10.0501 11.5966C10.0501 10.8768 10.7027 10.2933 11.5078 10.2933C12.3128 10.2933 12.9654 10.8768 12.9654 11.5966V13.3582H10.0501V11.5966Z" fill="#333333"/>
<path fill-rule="evenodd" clip-rule="evenodd" d="M11.0064 15.1339C11.0064 14.7885 11.3212 14.5086 11.7095 14.5086C12.0979 14.5086 12.4127 14.7885 12.4127 15.1339V15.7013C12.4127 16.0466 12.0979 16.3266 11.7095 16.3266C11.3212 16.3266 11.0064 16.0466 11.0064 15.7013V15.1339ZM11.7095 14.8858C11.5555 14.8858 11.4306 14.9969 11.4306 15.1339V15.7013C11.4306 15.8383 11.5555 15.9494 11.7095 15.9494C11.8636 15.9494 11.9885 15.8383 11.9885 15.7013V15.1339C11.9885 14.9969 11.8636 14.8858 11.7095 14.8858Z" fill="#F8D74C"/>
<path fill-rule="evenodd" clip-rule="evenodd" d="M14.352 16.4323L11.8705 17.4656L9.23189 16.2716L11.7134 15.2382L14.352 16.4323ZM11.7056 15.658L10.1984 16.2857L11.8783 17.0459L13.3855 16.4182L11.7056 15.658Z" fill="#F8D74C"/>
<path d="M11.5457 17.0915H12.0381V22H11.5457V17.0915Z" fill="#F8D74C"/>
<path fill-rule="evenodd" clip-rule="evenodd" d="M9.62927 20.9045H10.1217V21.2582H10.8864V20.9045H11.3788V21.696H9.62927V20.9045Z" fill="#F8D74C"/>
<path fill-rule="evenodd" clip-rule="evenodd" d="M11.2475 14.0514L10.049 13.3495L10.049 12.9185L11.6218 13.8124L12.9706 12.9185V13.3496L12.0154 14.0255L12.0877 14.0646C12.2361 14.145 12.3267 14.2883 12.3267 14.4428C12.3267 14.6873 12.1038 14.8856 11.8289 14.8856H11.5168C11.2367 14.8856 11.0097 14.6837 11.0097 14.4346C11.0097 14.2894 11.0883 14.153 11.221 14.0683L11.2475 14.0514ZM11.6411 14.2645L11.4684 14.3747C11.4467 14.3886 11.4339 14.4109 11.4339 14.4346C11.4339 14.4753 11.471 14.5083 11.5168 14.5083H11.8289C11.8695 14.5083 11.9025 14.479 11.9025 14.4428C11.9025 14.42 11.8891 14.3988 11.8672 14.3869L11.6411 14.2645Z" fill="#F8D74C"/>
<path fill-rule="evenodd" clip-rule="evenodd" d="M11.3788 20.724H10.8865V20.3703H10.1217L10.1217 20.724H9.62932L9.62932 19.9325H11.3788V20.724Z" fill="#F8D74C"/>
</g>
<defs>
<clipPath id="clip0_440_1545">
<rect width="24" height="24" rx="12" fill="white"/>
</clipPath>
</defs>
</svg>
