<svg width="32" height="24" viewBox="0 0 32 24" fill="none" xmlns="http://www.w3.org/2000/svg">
<rect width="32" height="24" rx="2" fill="#F9F9F9"/>
<path d="M0 16H32V24H0V16Z" fill="#D74B4B"/>
<path d="M9.06048 7.91323H14.3595V13.3582H9.06048V7.91323Z" fill="#D74B4B"/>
<path d="M10.0718 3.75208H12.4588V7.62203H10.0718V3.75208Z" fill="#D74B4B"/>
<path d="M8.0774 13.5749H15.3785V14.4295H8.0774V13.5749Z" fill="#D74B4B"/>
<path d="M8.08245 13.5751L8.95653 13.3582H14.462L15.3816 13.5751H8.08245Z" fill="#D74B4B"/>
<path d="M9.87048 3.44976H12.66V3.75212H9.87048V3.44976Z" fill="#D74B4B"/>
<path fill-rule="evenodd" clip-rule="evenodd" d="M10.0511 2.72198H9.45895V3.4496L12.66 3.44976L12.868 3.4496V2.72198H12.4123V3.13634H11.6915V2.72198H10.7804V3.13634H10.0511V2.72198Z" fill="#D74B4B"/>
<path d="M17.6405 8.0049H22.9395V13.3425H17.6405V8.0049Z" fill="#D74B4B"/>
<path d="M18.6518 3.84236H21.0388V7.77527H18.6518V3.84236Z" fill="#D74B4B"/>
<path d="M16.6574 13.6647H23.9585V14.4296H16.6574V13.6647Z" fill="#D74B4B"/>
<path d="M16.6625 13.6655L17.5365 13.3426H23.042L23.9616 13.6655H16.6625Z" fill="#D74B4B"/>
<path d="M18.4505 3.54004H21.24V3.8424H18.4505V3.54004Z" fill="#D74B4B"/>
<path fill-rule="evenodd" clip-rule="evenodd" d="M18.6311 2.81226H18.0389V3.53988L21.24 3.54004L21.448 3.53988V2.81226H20.9923V3.22661H20.2715V2.81226H19.3604V3.22661H18.6311V2.81226Z" fill="#D74B4B"/>
<path d="M13.8322 2.94013H17.1846V7.50707H13.8322V2.94013Z" fill="#D74B4B"/>
<path fill-rule="evenodd" clip-rule="evenodd" d="M12.1551 7.03915H12.7222V7.39795H13.5672V7.03915H14.6538V7.39795H16.3384V7.03915H17.4251V7.39795H18.4664V7.03915H19.0313L19.0312 8.11486H12.1551V7.03915Z" fill="#D74B4B"/>
<path fill-rule="evenodd" clip-rule="evenodd" d="M18.0195 7.39795H21.3072V7.03915H22.3938V7.39795H23.4351V7.03915H24L24 8.11486H18.0195V7.39795Z" fill="#D74B4B"/>
<path fill-rule="evenodd" clip-rule="evenodd" d="M13.9805 7.39795H10.3389V7.03915H9.60623V7.39795H8.56486V7.03915H8L8.00005 8.11486H13.9805V7.39795Z" fill="#D74B4B"/>
<path d="M12.2504 8.21286H18.7666V8.52768H12.2504V8.21286Z" fill="#D74B4B"/>
<path fill-rule="evenodd" clip-rule="evenodd" d="M13.1286 2H13.6671V2.37408L14.4376 2.37408V2H15.1004V2.37408H15.9165V2H16.5793V2.37408L17.3504 2.37408V2H17.8925V2.58889H13.1286V2Z" fill="#D74B4B"/>
<path d="M13.5237 2.58871H17.4972V3.03599H13.5237V2.58871Z" fill="#D74B4B"/>
<path d="M12.8556 8.00499H18.1546V13.9722H12.8556V8.00499Z" fill="#D74B4B"/>
<path d="M11.8725 13.8833H19.1736V14.4302H11.8725V13.8833Z" fill="#D74B4B"/>
<path d="M11.8776 13.787L12.7516 13.4537H18.2571L19.1767 13.787H11.8776Z" fill="#D74B4B"/>
<path d="M10.2919 11.597C10.2919 11.1425 10.6721 10.7741 11.1411 10.7741C11.6101 10.7741 11.9903 11.1425 11.9903 11.597V13.3583H10.2919V11.597Z" fill="#333333"/>
<path d="M10.5519 5.93867C10.5519 5.58811 10.8698 5.30393 11.2618 5.30393C11.6539 5.30393 11.9718 5.58811 11.9718 5.93867V7.3975H10.5519V5.93867Z" fill="#333333"/>
<path d="M18.8719 11.6535C18.8719 11.2177 19.2521 10.8643 19.7211 10.8643C20.1901 10.8643 20.5703 11.2177 20.5703 11.6535V13.3426H18.8719V11.6535Z" fill="#333333"/>
<path d="M19.1319 5.93866C19.1319 5.58811 19.4498 5.30393 19.8418 5.30393C20.2339 5.30393 20.5518 5.58811 20.5518 5.93866V7.39746H19.1319V5.93866Z" fill="#333333"/>
<path d="M14.643 5.77246C14.643 5.35312 15.0232 5.01318 15.4922 5.01318C15.9612 5.01318 16.3414 5.35313 16.3414 5.77246V7.3975H14.643V5.77246Z" fill="#333333"/>
<path d="M14.0501 11.5966C14.0501 10.8768 14.7027 10.2933 15.5078 10.2933C16.3128 10.2933 16.9654 10.8768 16.9654 11.5966V13.3582H14.0501V11.5966Z" fill="#333333"/>
<path fill-rule="evenodd" clip-rule="evenodd" d="M15.0064 15.1339C15.0064 14.7885 15.3212 14.5086 15.7095 14.5086C16.0979 14.5086 16.4127 14.7885 16.4127 15.1339V15.7013C16.4127 16.0466 16.0979 16.3266 15.7095 16.3266C15.3212 16.3266 15.0064 16.0466 15.0064 15.7013V15.1339ZM15.7095 14.8858C15.5555 14.8858 15.4306 14.9969 15.4306 15.1339V15.7013C15.4306 15.8383 15.5555 15.9494 15.7095 15.9494C15.8636 15.9494 15.9885 15.8383 15.9885 15.7013V15.1339C15.9885 14.9969 15.8636 14.8858 15.7095 14.8858Z" fill="#F8D74C"/>
<path fill-rule="evenodd" clip-rule="evenodd" d="M18.352 16.4323L15.8705 17.4656L13.2319 16.2716L15.7134 15.2382L18.352 16.4323ZM15.7056 15.658L14.1984 16.2857L15.8783 17.0459L17.3855 16.4182L15.7056 15.658Z" fill="#F8D74C"/>
<path d="M15.5457 17.0915H16.0381V22H15.5457V17.0915Z" fill="#F8D74C"/>
<path fill-rule="evenodd" clip-rule="evenodd" d="M13.6293 20.9045H14.1217V21.2582H14.8864V20.9045H15.3788V21.696H13.6293V20.9045Z" fill="#F8D74C"/>
<path fill-rule="evenodd" clip-rule="evenodd" d="M15.2475 14.0514L14.049 13.3495L14.049 12.9185L15.6218 13.8124L16.9706 12.9185V13.3496L16.0154 14.0255L16.0877 14.0646C16.2361 14.145 16.3267 14.2883 16.3267 14.4428C16.3267 14.6873 16.1038 14.8856 15.8289 14.8856H15.5168C15.2367 14.8856 15.0097 14.6837 15.0097 14.4346C15.0097 14.2894 15.0883 14.153 15.221 14.0683L15.2475 14.0514ZM15.6411 14.2645L15.4684 14.3747C15.4467 14.3886 15.4339 14.4109 15.4339 14.4346C15.4339 14.4753 15.471 14.5083 15.5168 14.5083H15.8289C15.8695 14.5083 15.9025 14.479 15.9025 14.4428C15.9025 14.42 15.8891 14.3988 15.8672 14.3869L15.6411 14.2645Z" fill="#F8D74C"/>
<path fill-rule="evenodd" clip-rule="evenodd" d="M15.3788 20.724H14.8865V20.3703H14.1217L14.1217 20.724H13.6293L13.6293 19.9325H15.3788V20.724Z" fill="#F8D74C"/>
</svg>
