<svg width="24" height="24" viewBox="0 0 24 24" fill="none" xmlns="http://www.w3.org/2000/svg">
<g clip-path="url(#clip0_440_1506)">
<rect width="24" height="24" rx="2" fill="#F9F9F9"/>
<path d="M0 16H24V24H0V16Z" fill="#3FB47C"/>
<path d="M0 0H24V8H0V0Z" fill="#D74B4B"/>
<path d="M8.59912 10.2749H15.4009V16.2136C15.4009 16.9136 14.9888 17.5519 14.3405 17.8561L12.2037 18.8587C12.075 18.9191 11.925 18.9191 11.7963 18.8587L9.65949 17.8561C9.01117 17.5519 8.59912 16.9136 8.59912 16.2136V10.2749Z" fill="#D74B4B"/>
<path opacity="0.2" fill-rule="evenodd" clip-rule="evenodd" d="M8.5 10.1777H15.5V16.2128C15.5 16.9499 15.0662 17.6219 14.3836 17.9421L12.2468 18.9448C12.0909 19.0179 11.9091 19.0179 11.7532 18.9448L9.61642 17.9421C8.93383 17.6219 8.5 16.9499 8.5 16.2128V10.1777ZM8.59912 10.2741V16.2128C8.59912 16.9128 9.01117 17.5511 9.65949 17.8553L11.7963 18.8579C11.925 18.9183 12.075 18.9183 12.2037 18.8579L14.3405 17.8553C14.9888 17.5511 15.4009 16.9129 15.4009 16.2128V10.2741H8.59912Z" fill="#F9F9F9"/>
<mask id="mask0_440_1506" style="mask-type:alpha" maskUnits="userSpaceOnUse" x="8" y="10" width="8" height="9">
<path d="M8.59912 10.2749H15.4009V16.2136C15.4009 16.9136 14.9888 17.5519 14.3405 17.8561L12.2037 18.8587C12.075 18.9191 11.925 18.9191 11.7963 18.8587L9.65949 17.8561C9.01117 17.5519 8.59912 16.9136 8.59912 16.2136V10.2749Z" fill="#D74B4B"/>
</mask>
<g mask="url(#mask0_440_1506)">
<path d="M8.59912 11.4701H12V12.5462H8.59912V11.4701Z" fill="#F9F9F9"/>
<path d="M14.2352 10.7026L14.2352 16.2021H13.3381L13.3381 10.7026L14.2352 10.7026Z" fill="#F9F9F9"/>
<path d="M15.0436 12.4444L12.5319 12.4444V11.572L15.0436 11.572V12.4444Z" fill="#F9F9F9"/>
<path d="M15.0436 13.8886L12.5319 13.8886V13.0162L15.0436 13.0162V13.8886Z" fill="#F9F9F9"/>
<path d="M8.59912 13.5968H12V14.673H8.59912V13.5968Z" fill="#F9F9F9"/>
<path d="M8.59912 15.7236H12V16.7997H8.59912V15.7236Z" fill="#F9F9F9"/>
<path d="M8.59912 17.8784H12V18.9545H8.59912V17.8784Z" fill="#F9F9F9"/>
<path fill-rule="evenodd" clip-rule="evenodd" d="M11.6143 19.4384C11.9519 20.3583 12.8558 21.0168 13.9177 21.0168C15.2681 21.0168 16.3628 19.9522 16.3628 18.6389C16.3628 17.6101 15.6909 16.7339 14.7506 16.4026C14.5614 16.0703 14.203 15.8462 13.7921 15.8462C13.3266 15.8462 12.9287 16.1337 12.7674 16.5401C12.4694 16.6949 12.2083 16.908 12 17.1637V19.4384H11.6143Z" fill="#3FB47C"/>
<path fill-rule="evenodd" clip-rule="evenodd" d="M12.6904 15.1641L13.046 16.1276H13.5259L13.5259 16.1275H13.5468V16.1276H14.0267V16.1275H14.0475L14.0475 16.1276H14.5274L14.883 15.1641L14.4031 15.1641L14.2197 15.6608H14.0267L14.0267 15.1641L13.5468 15.1641L13.5468 15.6608H13.3536L13.1703 15.1641H12.6904Z" fill="#F8D74C"/>
</g>
<path d="M9.04047 9.157H14.958V9.9438H9.04047V9.157Z" fill="#F8D74C"/>
<path d="M9.27717 9.04269C9.27717 9.10564 9.22418 9.15667 9.15882 9.15667C9.09345 9.15667 9.04047 9.10564 9.04047 9.04269C9.04047 8.97974 9.09345 8.92871 9.15882 8.92871C9.22418 8.92871 9.27717 8.97974 9.27717 9.04269Z" fill="#E77D42"/>
<path d="M11.1708 9.04283C11.1708 9.10578 11.1178 9.15681 11.0525 9.15681C10.9871 9.15681 10.9341 9.10578 10.9341 9.04283C10.9341 8.97988 10.9871 8.92885 11.0525 8.92885C11.1178 8.92885 11.1708 8.97988 11.1708 9.04283Z" fill="#E77D42"/>
<path d="M13.0644 9.04283C13.0644 9.10578 13.0114 9.15681 12.9461 9.15681C12.8807 9.15681 12.8277 9.10578 12.8277 9.04283C12.8277 8.97988 12.8807 8.92885 12.9461 8.92885C13.0114 8.92885 13.0644 8.97988 13.0644 9.04283Z" fill="#E77D42"/>
<path d="M9.75062 9.04283C9.75062 9.10578 9.69763 9.15681 9.63227 9.15681C9.5669 9.15681 9.51392 9.10578 9.51392 9.04283C9.51392 8.97988 9.5669 8.92885 9.63227 8.92885C9.69763 8.92885 9.75062 8.97988 9.75062 9.04283Z" fill="#E77D42"/>
<path d="M11.6442 9.04283C11.6442 9.10578 11.5912 9.15681 11.5259 9.15681C11.4605 9.15681 11.4075 9.10578 11.4075 9.04283C11.4075 8.97988 11.4605 8.92885 11.5259 8.92885C11.5912 8.92885 11.6442 8.97988 11.6442 9.04283Z" fill="#E77D42"/>
<path d="M13.5378 9.04283C13.5378 9.10578 13.4848 9.15681 13.4195 9.15681C13.3541 9.15681 13.3011 9.10578 13.3011 9.04283C13.3011 8.97988 13.3541 8.92885 13.4195 8.92885C13.4848 8.92885 13.5378 8.97988 13.5378 9.04283Z" fill="#E77D42"/>
<path d="M10.224 9.04283C10.224 9.10578 10.171 9.15681 10.1057 9.15681C10.0403 9.15681 9.98731 9.10578 9.98731 9.04283C9.98731 8.97988 10.0403 8.92885 10.1057 8.92885C10.171 8.92885 10.224 8.97988 10.224 9.04283Z" fill="#E77D42"/>
<path d="M12.1176 9.04283C12.1176 9.10578 12.0646 9.15681 11.9993 9.15681C11.9339 9.15681 11.8809 9.10578 11.8809 9.04283C11.8809 8.97988 11.9339 8.92885 11.9993 8.92885C12.0646 8.92885 12.1176 8.97988 12.1176 9.04283Z" fill="#E77D42"/>
<path d="M14.0112 9.04283C14.0112 9.10578 13.9582 9.15681 13.8929 9.15681C13.8275 9.15681 13.7745 9.10578 13.7745 9.04283C13.7745 8.97988 13.8275 8.92885 13.8929 8.92885C13.9582 8.92885 14.0112 8.97988 14.0112 9.04283Z" fill="#E77D42"/>
<path d="M10.6974 9.04283C10.6974 9.10578 10.6444 9.15681 10.5791 9.15681C10.5137 9.15681 10.4607 9.10578 10.4607 9.04283C10.4607 8.97988 10.5137 8.92885 10.5791 8.92885C10.6444 8.92885 10.6974 8.97988 10.6974 9.04283Z" fill="#E77D42"/>
<path d="M12.591 9.04283C12.591 9.10578 12.538 9.15681 12.4727 9.15681C12.4073 9.15681 12.3543 9.10578 12.3543 9.04283C12.3543 8.97988 12.4073 8.92885 12.4727 8.92885C12.538 8.92885 12.591 8.97988 12.591 9.04283Z" fill="#E77D42"/>
<path d="M14.4846 9.04283C14.4846 9.10578 14.4316 9.15681 14.3663 9.15681C14.3009 9.15681 14.2479 9.10578 14.2479 9.04283C14.2479 8.97988 14.3009 8.92885 14.3663 8.92885C14.4316 8.92885 14.4846 8.97988 14.4846 9.04283Z" fill="#E77D42"/>
<path d="M9.51392 9.04283C9.51392 9.10578 9.46092 9.15681 9.39555 9.15681C9.33019 9.15681 9.27717 9.10564 9.27717 9.04269C9.27717 8.97974 9.33019 8.92885 9.39555 8.92885C9.46092 8.92885 9.51392 8.97988 9.51392 9.04283Z" fill="#E77D42"/>
<path d="M11.4075 9.04283C11.4075 9.10578 11.3545 9.15681 11.2892 9.15681C11.2238 9.15681 11.1708 9.10578 11.1708 9.04283C11.1708 8.97988 11.2238 8.92885 11.2892 8.92885C11.3545 8.92885 11.4075 8.97988 11.4075 9.04283Z" fill="#E77D42"/>
<path d="M13.3011 9.04283C13.3011 9.10578 13.2481 9.15681 13.1827 9.15681C13.1174 9.15681 13.0644 9.10578 13.0644 9.04283C13.0644 8.97988 13.1174 8.92885 13.1827 8.92885C13.2481 8.92885 13.3011 8.97988 13.3011 9.04283Z" fill="#E77D42"/>
<path d="M9.98731 9.04283C9.98731 9.10578 9.93431 9.15681 9.86895 9.15681C9.80358 9.15681 9.75062 9.10578 9.75062 9.04283C9.75062 8.97988 9.80358 8.92885 9.86895 8.92885C9.93431 8.92885 9.98731 8.97988 9.98731 9.04283Z" fill="#E77D42"/>
<path d="M11.8809 9.04283C11.8809 9.10578 11.8279 9.15681 11.7626 9.15681C11.6972 9.15681 11.6442 9.10578 11.6442 9.04283C11.6442 8.97988 11.6972 8.92885 11.7626 8.92885C11.8279 8.92885 11.8809 8.97988 11.8809 9.04283Z" fill="#E77D42"/>
<path d="M13.7745 9.04283C13.7745 9.10578 13.7215 9.15681 13.6562 9.15681C13.5908 9.15681 13.5378 9.10578 13.5378 9.04283C13.5378 8.97988 13.5908 8.92885 13.6562 8.92885C13.7215 8.92885 13.7745 8.97988 13.7745 9.04283Z" fill="#E77D42"/>
<path d="M10.4607 9.04283C10.4607 9.10578 10.4077 9.15681 10.3423 9.15681C10.277 9.15681 10.224 9.10578 10.224 9.04283C10.224 8.97988 10.277 8.92885 10.3423 8.92885C10.4077 8.92885 10.4607 8.97988 10.4607 9.04283Z" fill="#E77D42"/>
<path d="M12.3543 9.04283C12.3543 9.10578 12.3013 9.15681 12.236 9.15681C12.1706 9.15681 12.1176 9.10578 12.1176 9.04283C12.1176 8.97988 12.1706 8.92885 12.236 8.92885C12.3013 8.92885 12.3543 8.97988 12.3543 9.04283Z" fill="#E77D42"/>
<path d="M14.2479 9.04283C14.2479 9.10578 14.1949 9.15681 14.1296 9.15681C14.0642 9.15681 14.0112 9.10578 14.0112 9.04283C14.0112 8.97988 14.0642 8.92885 14.1296 8.92885C14.1949 8.92885 14.2479 8.97988 14.2479 9.04283Z" fill="#E77D42"/>
<path d="M10.9341 9.04283C10.9341 9.10578 10.8811 9.15681 10.8158 9.15681C10.7504 9.15681 10.6974 9.10578 10.6974 9.04283C10.6974 8.97988 10.7504 8.92885 10.8158 8.92885C10.8811 8.92885 10.9341 8.97988 10.9341 9.04283Z" fill="#E77D42"/>
<path d="M12.8277 9.04283C12.8277 9.10578 12.7747 9.15681 12.7093 9.15681C12.644 9.15681 12.591 9.10578 12.591 9.04283C12.591 8.97988 12.644 8.92885 12.7093 8.92885C12.7747 8.92885 12.8277 8.97988 12.8277 9.04283Z" fill="#E77D42"/>
<path d="M14.7213 9.04283C14.7213 9.10578 14.6683 9.15681 14.603 9.15681C14.5376 9.15681 14.4846 9.10578 14.4846 9.04283C14.4846 8.97988 14.5376 8.92885 14.603 8.92885C14.6683 8.92885 14.7213 8.97988 14.7213 9.04283Z" fill="#E77D42"/>
<path d="M14.958 9.04283C14.958 9.10578 14.905 9.15681 14.8397 9.15681C14.7743 9.15681 14.7213 9.10578 14.7213 9.04283C14.7213 8.97988 14.7743 8.92885 14.8397 8.92885C14.905 8.92885 14.958 8.97988 14.958 9.04283Z" fill="#E77D42"/>
<path d="M9.27717 10.0575C9.27717 10.1205 9.22418 10.1715 9.15882 10.1715C9.09345 10.1715 9.04047 10.1205 9.04047 10.0575C9.04047 9.99456 9.09345 9.94353 9.15882 9.94353C9.22418 9.94353 9.27717 9.99456 9.27717 10.0575Z" fill="#E77D42"/>
<path d="M11.1708 10.0576C11.1708 10.1205 11.1178 10.1716 11.0525 10.1716C10.9871 10.1716 10.9341 10.1205 10.9341 10.0576C10.9341 9.99463 10.9871 9.9436 11.0525 9.9436C11.1178 9.9436 11.1708 9.99463 11.1708 10.0576Z" fill="#E77D42"/>
<path d="M13.0644 10.0576C13.0644 10.1205 13.0114 10.1716 12.9461 10.1716C12.8807 10.1716 12.8277 10.1205 12.8277 10.0576C12.8277 9.99463 12.8807 9.9436 12.9461 9.9436C13.0114 9.9436 13.0644 9.99463 13.0644 10.0576Z" fill="#E77D42"/>
<path d="M9.75062 10.0576C9.75062 10.1205 9.69763 10.1716 9.63227 10.1716C9.5669 10.1716 9.51392 10.1205 9.51392 10.0576C9.51392 9.99463 9.5669 9.9436 9.63227 9.9436C9.69763 9.9436 9.75062 9.99463 9.75062 10.0576Z" fill="#E77D42"/>
<path d="M11.6442 10.0576C11.6442 10.1205 11.5912 10.1716 11.5259 10.1716C11.4605 10.1716 11.4075 10.1205 11.4075 10.0576C11.4075 9.99463 11.4605 9.9436 11.5259 9.9436C11.5912 9.9436 11.6442 9.99463 11.6442 10.0576Z" fill="#E77D42"/>
<path d="M13.5378 10.0576C13.5378 10.1205 13.4848 10.1716 13.4195 10.1716C13.3541 10.1716 13.3011 10.1205 13.3011 10.0576C13.3011 9.99463 13.3541 9.9436 13.4195 9.9436C13.4848 9.9436 13.5378 9.99463 13.5378 10.0576Z" fill="#E77D42"/>
<path d="M10.224 10.0576C10.224 10.1205 10.171 10.1716 10.1057 10.1716C10.0403 10.1716 9.98731 10.1205 9.98731 10.0576C9.98731 9.99463 10.0403 9.9436 10.1057 9.9436C10.171 9.9436 10.224 9.99463 10.224 10.0576Z" fill="#E77D42"/>
<path d="M12.1176 10.0576C12.1176 10.1205 12.0646 10.1716 11.9993 10.1716C11.9339 10.1716 11.8809 10.1205 11.8809 10.0576C11.8809 9.99463 11.9339 9.9436 11.9993 9.9436C12.0646 9.9436 12.1176 9.99463 12.1176 10.0576Z" fill="#E77D42"/>
<path d="M14.0112 10.0576C14.0112 10.1205 13.9582 10.1716 13.8929 10.1716C13.8275 10.1716 13.7745 10.1205 13.7745 10.0576C13.7745 9.99463 13.8275 9.9436 13.8929 9.9436C13.9582 9.9436 14.0112 9.99463 14.0112 10.0576Z" fill="#E77D42"/>
<path d="M10.6974 10.0576C10.6974 10.1205 10.6444 10.1716 10.5791 10.1716C10.5137 10.1716 10.4607 10.1205 10.4607 10.0576C10.4607 9.99463 10.5137 9.9436 10.5791 9.9436C10.6444 9.9436 10.6974 9.99463 10.6974 10.0576Z" fill="#E77D42"/>
<path d="M12.591 10.0576C12.591 10.1205 12.538 10.1716 12.4727 10.1716C12.4073 10.1716 12.3543 10.1205 12.3543 10.0576C12.3543 9.99463 12.4073 9.9436 12.4727 9.9436C12.538 9.9436 12.591 9.99463 12.591 10.0576Z" fill="#E77D42"/>
<path d="M14.4846 10.0576C14.4846 10.1205 14.4316 10.1716 14.3663 10.1716C14.3009 10.1716 14.2479 10.1205 14.2479 10.0576C14.2479 9.99463 14.3009 9.9436 14.3663 9.9436C14.4316 9.9436 14.4846 9.99463 14.4846 10.0576Z" fill="#E77D42"/>
<path d="M9.51392 10.0576C9.51392 10.1205 9.46092 10.1716 9.39555 10.1716C9.33019 10.1716 9.27717 10.1205 9.27717 10.0575C9.27717 9.99456 9.33019 9.9436 9.39555 9.9436C9.46092 9.9436 9.51392 9.99463 9.51392 10.0576Z" fill="#E77D42"/>
<path d="M11.4075 10.0576C11.4075 10.1205 11.3545 10.1716 11.2892 10.1716C11.2238 10.1716 11.1708 10.1205 11.1708 10.0576C11.1708 9.99463 11.2238 9.9436 11.2892 9.9436C11.3545 9.9436 11.4075 9.99463 11.4075 10.0576Z" fill="#E77D42"/>
<path d="M13.3011 10.0576C13.3011 10.1205 13.2481 10.1716 13.1827 10.1716C13.1174 10.1716 13.0644 10.1205 13.0644 10.0576C13.0644 9.99463 13.1174 9.9436 13.1827 9.9436C13.2481 9.9436 13.3011 9.99463 13.3011 10.0576Z" fill="#E77D42"/>
<path d="M9.98731 10.0576C9.98731 10.1205 9.93431 10.1716 9.86895 10.1716C9.80358 10.1716 9.75062 10.1205 9.75062 10.0576C9.75062 9.99463 9.80358 9.9436 9.86895 9.9436C9.93431 9.9436 9.98731 9.99463 9.98731 10.0576Z" fill="#E77D42"/>
<path d="M11.8809 10.0576C11.8809 10.1205 11.8279 10.1716 11.7626 10.1716C11.6972 10.1716 11.6442 10.1205 11.6442 10.0576C11.6442 9.99463 11.6972 9.9436 11.7626 9.9436C11.8279 9.9436 11.8809 9.99463 11.8809 10.0576Z" fill="#E77D42"/>
<path d="M13.7745 10.0576C13.7745 10.1205 13.7215 10.1716 13.6562 10.1716C13.5908 10.1716 13.5378 10.1205 13.5378 10.0576C13.5378 9.99463 13.5908 9.9436 13.6562 9.9436C13.7215 9.9436 13.7745 9.99463 13.7745 10.0576Z" fill="#E77D42"/>
<path d="M10.4607 10.0576C10.4607 10.1205 10.4077 10.1716 10.3423 10.1716C10.277 10.1716 10.224 10.1205 10.224 10.0576C10.224 9.99463 10.277 9.9436 10.3423 9.9436C10.4077 9.9436 10.4607 9.99463 10.4607 10.0576Z" fill="#E77D42"/>
<path d="M12.3543 10.0576C12.3543 10.1205 12.3013 10.1716 12.236 10.1716C12.1706 10.1716 12.1176 10.1205 12.1176 10.0576C12.1176 9.99463 12.1706 9.9436 12.236 9.9436C12.3013 9.9436 12.3543 9.99463 12.3543 10.0576Z" fill="#E77D42"/>
<path d="M14.2479 10.0576C14.2479 10.1205 14.1949 10.1716 14.1296 10.1716C14.0642 10.1716 14.0112 10.1205 14.0112 10.0576C14.0112 9.99463 14.0642 9.9436 14.1296 9.9436C14.1949 9.9436 14.2479 9.99463 14.2479 10.0576Z" fill="#E77D42"/>
<path d="M10.9341 10.0576C10.9341 10.1205 10.8811 10.1716 10.8158 10.1716C10.7504 10.1716 10.6974 10.1205 10.6974 10.0576C10.6974 9.99463 10.7504 9.9436 10.8158 9.9436C10.8811 9.9436 10.9341 9.99463 10.9341 10.0576Z" fill="#E77D42"/>
<path d="M12.8277 10.0576C12.8277 10.1205 12.7747 10.1716 12.7093 10.1716C12.644 10.1716 12.591 10.1205 12.591 10.0576C12.591 9.99463 12.644 9.9436 12.7093 9.9436C12.7747 9.9436 12.8277 9.99463 12.8277 10.0576Z" fill="#E77D42"/>
<path d="M14.7213 10.0576C14.7213 10.1205 14.6683 10.1716 14.603 10.1716C14.5376 10.1716 14.4846 10.1205 14.4846 10.0576C14.4846 9.99463 14.5376 9.9436 14.603 9.9436C14.6683 9.9436 14.7213 9.99463 14.7213 10.0576Z" fill="#E77D42"/>
<path d="M14.958 10.0576C14.958 10.1205 14.905 10.1716 14.8397 10.1716C14.7743 10.1716 14.7213 10.1205 14.7213 10.0576C14.7213 9.99463 14.7743 9.9436 14.8397 9.9436C14.905 9.9436 14.958 9.99463 14.958 10.0576Z" fill="#E77D42"/>
<path fill-rule="evenodd" clip-rule="evenodd" d="M11.9007 6.14203C10.3007 6.14202 9.00367 7.40344 9.00367 8.95948H8.94507C8.94507 7.37197 10.2684 6.08503 11.9007 6.08504L12.2618 6.08504C13.8044 6.08504 15.0549 7.30119 15.0549 8.80139H14.9963C14.9963 7.33267 13.772 6.14203 12.2618 6.14203L11.9007 6.14203Z" fill="#F8D74C"/>
<path fill-rule="evenodd" clip-rule="evenodd" d="M9.04952 8.92829C9.04952 8.92825 9.04952 8.92833 9.04952 8.92829L14.9918 8.92841C14.9918 8.92846 14.9918 8.92837 14.9918 8.92841L9.04952 8.92829ZM9.18663 8.25717L9.53765 8.91685L9.96762 8.1088L10.3976 8.91685L10.8275 8.1088L11.2575 8.91691L11.6875 8.1088L12.1175 8.91685L12.5475 8.1088L12.9775 8.91691L13.4075 8.1088L13.8374 8.91685L14.2674 8.1088L14.6974 8.9169L14.9226 8.49363C14.6144 7.21229 13.4321 6.25803 12.0207 6.25803C10.6975 6.25803 9.5757 7.09664 9.18663 8.25717Z" fill="#F8D74C"/>
<path fill-rule="evenodd" clip-rule="evenodd" d="M11.6742 5.08104C11.6831 5.10685 11.6823 5.13353 11.6738 5.1574L11.7613 5.41176L11.9985 5.33459C12.013 5.31385 12.0343 5.29739 12.0607 5.28882C12.1246 5.26804 12.1937 5.30156 12.2151 5.3637C12.2364 5.42584 12.202 5.49306 12.1381 5.51384C12.1113 5.52254 12.0837 5.52173 12.059 5.51328L11.8226 5.59015L12.0374 6.2145C12.0589 6.22859 12.076 6.24946 12.0849 6.27527C12.1063 6.33741 12.0718 6.40463 12.0079 6.42541C11.944 6.4462 11.8749 6.41267 11.8535 6.35053C11.8446 6.32471 11.8454 6.298 11.8539 6.27412L11.6392 5.64981L11.3999 5.72764C11.3855 5.74878 11.3639 5.76557 11.3372 5.77425C11.2733 5.79504 11.2042 5.76151 11.1828 5.69937C11.1614 5.63724 11.1959 5.57002 11.2598 5.54923C11.2862 5.54065 11.3135 5.54133 11.3379 5.54947L11.5779 5.47142L11.4904 5.21711C11.4688 5.20301 11.4517 5.18213 11.4428 5.1563C11.4214 5.09416 11.4559 5.02694 11.5198 5.00616C11.5837 4.98538 11.6528 5.0189 11.6742 5.08104Z" fill="#F8D74C"/>
</g>
<defs>
<clipPath id="clip0_440_1506">
<rect width="24" height="24" rx="2" fill="white"/>
</clipPath>
</defs>
</svg>
