<svg width="32" height="24" viewBox="0 0 32 24" fill="none" xmlns="http://www.w3.org/2000/svg">
<g clip-path="url(#clip0_440_1508)">
<rect width="32" height="24" rx="2" fill="#F9F9F9"/>
<path d="M0 16H32V24H0V16Z" fill="#3FB47C"/>
<path d="M0 0H32V8H0V0Z" fill="#D74B4B"/>
<path d="M12.5991 10.2749H19.4009V16.2136C19.4009 16.9136 18.9888 17.5519 18.3405 17.8561L16.2037 18.8587C16.075 18.9191 15.925 18.9191 15.7963 18.8587L13.6595 17.8561C13.0112 17.5519 12.5991 16.9136 12.5991 16.2136V10.2749Z" fill="#D74B4B"/>
<path opacity="0.2" fill-rule="evenodd" clip-rule="evenodd" d="M12.5 10.1777H19.5V16.2128C19.5 16.9499 19.0662 17.6219 18.3836 17.9421L16.2468 18.9448C16.0909 19.0179 15.9091 19.0179 15.7532 18.9448L13.6164 17.9421C12.9338 17.6219 12.5 16.9499 12.5 16.2128V10.1777ZM12.5991 10.2741V16.2128C12.5991 16.9128 13.0112 17.5511 13.6595 17.8553L15.7963 18.8579C15.925 18.9183 16.075 18.9183 16.2037 18.8579L18.3405 17.8553C18.9888 17.5511 19.4009 16.9129 19.4009 16.2128V10.2741H12.5991Z" fill="#F9F9F9"/>
<mask id="mask0_440_1508" style="mask-type:alpha" maskUnits="userSpaceOnUse" x="12" y="10" width="8" height="9">
<path d="M12.5991 10.2749H19.4009V16.2136C19.4009 16.9136 18.9888 17.5519 18.3405 17.8561L16.2037 18.8587C16.075 18.9191 15.925 18.9191 15.7963 18.8587L13.6595 17.8561C13.0112 17.5519 12.5991 16.9136 12.5991 16.2136V10.2749Z" fill="#D74B4B"/>
</mask>
<g mask="url(#mask0_440_1508)">
<path d="M12.5991 11.4701H16V12.5462H12.5991V11.4701Z" fill="#F9F9F9"/>
<path d="M18.2352 10.7026L18.2352 16.2021H17.3381L17.3381 10.7026L18.2352 10.7026Z" fill="#F9F9F9"/>
<path d="M19.0436 12.4444L16.5319 12.4444V11.572L19.0436 11.572V12.4444Z" fill="#F9F9F9"/>
<path d="M19.0436 13.8886L16.5319 13.8886V13.0162L19.0436 13.0162V13.8886Z" fill="#F9F9F9"/>
<path d="M12.5991 13.5968H16V14.673H12.5991V13.5968Z" fill="#F9F9F9"/>
<path d="M12.5991 15.7236H16V16.7997H12.5991V15.7236Z" fill="#F9F9F9"/>
<path d="M12.5991 17.8784H16V18.9545H12.5991V17.8784Z" fill="#F9F9F9"/>
<path fill-rule="evenodd" clip-rule="evenodd" d="M15.6143 19.4384C15.9519 20.3583 16.8558 21.0168 17.9177 21.0168C19.2681 21.0168 20.3628 19.9522 20.3628 18.6389C20.3628 17.6101 19.6909 16.7339 18.7506 16.4026C18.5614 16.0703 18.203 15.8462 17.7921 15.8462C17.3266 15.8462 16.9287 16.1337 16.7674 16.5401C16.4694 16.6949 16.2083 16.908 16 17.1637V19.4384H15.6143Z" fill="#3FB47C"/>
<path fill-rule="evenodd" clip-rule="evenodd" d="M16.6904 15.1641L17.046 16.1276H17.5259L17.5259 16.1275H17.5468V16.1276H18.0267V16.1275H18.0475L18.0475 16.1276H18.5274L18.883 15.1641L18.4031 15.1641L18.2197 15.6608H18.0267L18.0267 15.1641L17.5468 15.1641L17.5468 15.6608H17.3536L17.1703 15.1641H16.6904Z" fill="#F8D74C"/>
</g>
<path d="M13.0405 9.157H18.958V9.9438H13.0405V9.157Z" fill="#F8D74C"/>
<path d="M13.2772 9.04269C13.2772 9.10564 13.2242 9.15667 13.1588 9.15667C13.0935 9.15667 13.0405 9.10564 13.0405 9.04269C13.0405 8.97974 13.0935 8.92871 13.1588 8.92871C13.2242 8.92871 13.2772 8.97974 13.2772 9.04269Z" fill="#E77D42"/>
<path d="M15.1708 9.04283C15.1708 9.10578 15.1178 9.15681 15.0525 9.15681C14.9871 9.15681 14.9341 9.10578 14.9341 9.04283C14.9341 8.97988 14.9871 8.92885 15.0525 8.92885C15.1178 8.92885 15.1708 8.97988 15.1708 9.04283Z" fill="#E77D42"/>
<path d="M17.0644 9.04283C17.0644 9.10578 17.0114 9.15681 16.9461 9.15681C16.8807 9.15681 16.8277 9.10578 16.8277 9.04283C16.8277 8.97988 16.8807 8.92885 16.9461 8.92885C17.0114 8.92885 17.0644 8.97988 17.0644 9.04283Z" fill="#E77D42"/>
<path d="M13.7506 9.04283C13.7506 9.10578 13.6976 9.15681 13.6323 9.15681C13.5669 9.15681 13.5139 9.10578 13.5139 9.04283C13.5139 8.97988 13.5669 8.92885 13.6323 8.92885C13.6976 8.92885 13.7506 8.97988 13.7506 9.04283Z" fill="#E77D42"/>
<path d="M15.6442 9.04283C15.6442 9.10578 15.5912 9.15681 15.5259 9.15681C15.4605 9.15681 15.4075 9.10578 15.4075 9.04283C15.4075 8.97988 15.4605 8.92885 15.5259 8.92885C15.5912 8.92885 15.6442 8.97988 15.6442 9.04283Z" fill="#E77D42"/>
<path d="M17.5378 9.04283C17.5378 9.10578 17.4848 9.15681 17.4195 9.15681C17.3541 9.15681 17.3011 9.10578 17.3011 9.04283C17.3011 8.97988 17.3541 8.92885 17.4195 8.92885C17.4848 8.92885 17.5378 8.97988 17.5378 9.04283Z" fill="#E77D42"/>
<path d="M14.224 9.04283C14.224 9.10578 14.171 9.15681 14.1057 9.15681C14.0403 9.15681 13.9873 9.10578 13.9873 9.04283C13.9873 8.97988 14.0403 8.92885 14.1057 8.92885C14.171 8.92885 14.224 8.97988 14.224 9.04283Z" fill="#E77D42"/>
<path d="M16.1176 9.04283C16.1176 9.10578 16.0646 9.15681 15.9993 9.15681C15.9339 9.15681 15.8809 9.10578 15.8809 9.04283C15.8809 8.97988 15.9339 8.92885 15.9993 8.92885C16.0646 8.92885 16.1176 8.97988 16.1176 9.04283Z" fill="#E77D42"/>
<path d="M18.0112 9.04283C18.0112 9.10578 17.9582 9.15681 17.8929 9.15681C17.8275 9.15681 17.7745 9.10578 17.7745 9.04283C17.7745 8.97988 17.8275 8.92885 17.8929 8.92885C17.9582 8.92885 18.0112 8.97988 18.0112 9.04283Z" fill="#E77D42"/>
<path d="M14.6974 9.04283C14.6974 9.10578 14.6444 9.15681 14.5791 9.15681C14.5137 9.15681 14.4607 9.10578 14.4607 9.04283C14.4607 8.97988 14.5137 8.92885 14.5791 8.92885C14.6444 8.92885 14.6974 8.97988 14.6974 9.04283Z" fill="#E77D42"/>
<path d="M16.591 9.04283C16.591 9.10578 16.538 9.15681 16.4727 9.15681C16.4073 9.15681 16.3543 9.10578 16.3543 9.04283C16.3543 8.97988 16.4073 8.92885 16.4727 8.92885C16.538 8.92885 16.591 8.97988 16.591 9.04283Z" fill="#E77D42"/>
<path d="M18.4846 9.04283C18.4846 9.10578 18.4316 9.15681 18.3663 9.15681C18.3009 9.15681 18.2479 9.10578 18.2479 9.04283C18.2479 8.97988 18.3009 8.92885 18.3663 8.92885C18.4316 8.92885 18.4846 8.97988 18.4846 9.04283Z" fill="#E77D42"/>
<path d="M13.5139 9.04283C13.5139 9.10578 13.4609 9.15681 13.3956 9.15681C13.3302 9.15681 13.2772 9.10564 13.2772 9.04269C13.2772 8.97974 13.3302 8.92885 13.3956 8.92885C13.4609 8.92885 13.5139 8.97988 13.5139 9.04283Z" fill="#E77D42"/>
<path d="M15.4075 9.04283C15.4075 9.10578 15.3545 9.15681 15.2892 9.15681C15.2238 9.15681 15.1708 9.10578 15.1708 9.04283C15.1708 8.97988 15.2238 8.92885 15.2892 8.92885C15.3545 8.92885 15.4075 8.97988 15.4075 9.04283Z" fill="#E77D42"/>
<path d="M17.3011 9.04283C17.3011 9.10578 17.2481 9.15681 17.1827 9.15681C17.1174 9.15681 17.0644 9.10578 17.0644 9.04283C17.0644 8.97988 17.1174 8.92885 17.1827 8.92885C17.2481 8.92885 17.3011 8.97988 17.3011 9.04283Z" fill="#E77D42"/>
<path d="M13.9873 9.04283C13.9873 9.10578 13.9343 9.15681 13.8689 9.15681C13.8036 9.15681 13.7506 9.10578 13.7506 9.04283C13.7506 8.97988 13.8036 8.92885 13.8689 8.92885C13.9343 8.92885 13.9873 8.97988 13.9873 9.04283Z" fill="#E77D42"/>
<path d="M15.8809 9.04283C15.8809 9.10578 15.8279 9.15681 15.7626 9.15681C15.6972 9.15681 15.6442 9.10578 15.6442 9.04283C15.6442 8.97988 15.6972 8.92885 15.7626 8.92885C15.8279 8.92885 15.8809 8.97988 15.8809 9.04283Z" fill="#E77D42"/>
<path d="M17.7745 9.04283C17.7745 9.10578 17.7215 9.15681 17.6562 9.15681C17.5908 9.15681 17.5378 9.10578 17.5378 9.04283C17.5378 8.97988 17.5908 8.92885 17.6562 8.92885C17.7215 8.92885 17.7745 8.97988 17.7745 9.04283Z" fill="#E77D42"/>
<path d="M14.4607 9.04283C14.4607 9.10578 14.4077 9.15681 14.3423 9.15681C14.277 9.15681 14.224 9.10578 14.224 9.04283C14.224 8.97988 14.277 8.92885 14.3423 8.92885C14.4077 8.92885 14.4607 8.97988 14.4607 9.04283Z" fill="#E77D42"/>
<path d="M16.3543 9.04283C16.3543 9.10578 16.3013 9.15681 16.236 9.15681C16.1706 9.15681 16.1176 9.10578 16.1176 9.04283C16.1176 8.97988 16.1706 8.92885 16.236 8.92885C16.3013 8.92885 16.3543 8.97988 16.3543 9.04283Z" fill="#E77D42"/>
<path d="M18.2479 9.04283C18.2479 9.10578 18.1949 9.15681 18.1296 9.15681C18.0642 9.15681 18.0112 9.10578 18.0112 9.04283C18.0112 8.97988 18.0642 8.92885 18.1296 8.92885C18.1949 8.92885 18.2479 8.97988 18.2479 9.04283Z" fill="#E77D42"/>
<path d="M14.9341 9.04283C14.9341 9.10578 14.8811 9.15681 14.8158 9.15681C14.7504 9.15681 14.6974 9.10578 14.6974 9.04283C14.6974 8.97988 14.7504 8.92885 14.8158 8.92885C14.8811 8.92885 14.9341 8.97988 14.9341 9.04283Z" fill="#E77D42"/>
<path d="M16.8277 9.04283C16.8277 9.10578 16.7747 9.15681 16.7093 9.15681C16.644 9.15681 16.591 9.10578 16.591 9.04283C16.591 8.97988 16.644 8.92885 16.7093 8.92885C16.7747 8.92885 16.8277 8.97988 16.8277 9.04283Z" fill="#E77D42"/>
<path d="M18.7213 9.04283C18.7213 9.10578 18.6683 9.15681 18.603 9.15681C18.5376 9.15681 18.4846 9.10578 18.4846 9.04283C18.4846 8.97988 18.5376 8.92885 18.603 8.92885C18.6683 8.92885 18.7213 8.97988 18.7213 9.04283Z" fill="#E77D42"/>
<path d="M18.958 9.04283C18.958 9.10578 18.905 9.15681 18.8397 9.15681C18.7743 9.15681 18.7213 9.10578 18.7213 9.04283C18.7213 8.97988 18.7743 8.92885 18.8397 8.92885C18.905 8.92885 18.958 8.97988 18.958 9.04283Z" fill="#E77D42"/>
<path d="M13.2772 10.0575C13.2772 10.1205 13.2242 10.1715 13.1588 10.1715C13.0935 10.1715 13.0405 10.1205 13.0405 10.0575C13.0405 9.99456 13.0935 9.94353 13.1588 9.94353C13.2242 9.94353 13.2772 9.99456 13.2772 10.0575Z" fill="#E77D42"/>
<path d="M15.1708 10.0576C15.1708 10.1205 15.1178 10.1716 15.0525 10.1716C14.9871 10.1716 14.9341 10.1205 14.9341 10.0576C14.9341 9.99463 14.9871 9.9436 15.0525 9.9436C15.1178 9.9436 15.1708 9.99463 15.1708 10.0576Z" fill="#E77D42"/>
<path d="M17.0644 10.0576C17.0644 10.1205 17.0114 10.1716 16.9461 10.1716C16.8807 10.1716 16.8277 10.1205 16.8277 10.0576C16.8277 9.99463 16.8807 9.9436 16.9461 9.9436C17.0114 9.9436 17.0644 9.99463 17.0644 10.0576Z" fill="#E77D42"/>
<path d="M13.7506 10.0576C13.7506 10.1205 13.6976 10.1716 13.6323 10.1716C13.5669 10.1716 13.5139 10.1205 13.5139 10.0576C13.5139 9.99463 13.5669 9.9436 13.6323 9.9436C13.6976 9.9436 13.7506 9.99463 13.7506 10.0576Z" fill="#E77D42"/>
<path d="M15.6442 10.0576C15.6442 10.1205 15.5912 10.1716 15.5259 10.1716C15.4605 10.1716 15.4075 10.1205 15.4075 10.0576C15.4075 9.99463 15.4605 9.9436 15.5259 9.9436C15.5912 9.9436 15.6442 9.99463 15.6442 10.0576Z" fill="#E77D42"/>
<path d="M17.5378 10.0576C17.5378 10.1205 17.4848 10.1716 17.4195 10.1716C17.3541 10.1716 17.3011 10.1205 17.3011 10.0576C17.3011 9.99463 17.3541 9.9436 17.4195 9.9436C17.4848 9.9436 17.5378 9.99463 17.5378 10.0576Z" fill="#E77D42"/>
<path d="M14.224 10.0576C14.224 10.1205 14.171 10.1716 14.1057 10.1716C14.0403 10.1716 13.9873 10.1205 13.9873 10.0576C13.9873 9.99463 14.0403 9.9436 14.1057 9.9436C14.171 9.9436 14.224 9.99463 14.224 10.0576Z" fill="#E77D42"/>
<path d="M16.1176 10.0576C16.1176 10.1205 16.0646 10.1716 15.9993 10.1716C15.9339 10.1716 15.8809 10.1205 15.8809 10.0576C15.8809 9.99463 15.9339 9.9436 15.9993 9.9436C16.0646 9.9436 16.1176 9.99463 16.1176 10.0576Z" fill="#E77D42"/>
<path d="M18.0112 10.0576C18.0112 10.1205 17.9582 10.1716 17.8929 10.1716C17.8275 10.1716 17.7745 10.1205 17.7745 10.0576C17.7745 9.99463 17.8275 9.9436 17.8929 9.9436C17.9582 9.9436 18.0112 9.99463 18.0112 10.0576Z" fill="#E77D42"/>
<path d="M14.6974 10.0576C14.6974 10.1205 14.6444 10.1716 14.5791 10.1716C14.5137 10.1716 14.4607 10.1205 14.4607 10.0576C14.4607 9.99463 14.5137 9.9436 14.5791 9.9436C14.6444 9.9436 14.6974 9.99463 14.6974 10.0576Z" fill="#E77D42"/>
<path d="M16.591 10.0576C16.591 10.1205 16.538 10.1716 16.4727 10.1716C16.4073 10.1716 16.3543 10.1205 16.3543 10.0576C16.3543 9.99463 16.4073 9.9436 16.4727 9.9436C16.538 9.9436 16.591 9.99463 16.591 10.0576Z" fill="#E77D42"/>
<path d="M18.4846 10.0576C18.4846 10.1205 18.4316 10.1716 18.3663 10.1716C18.3009 10.1716 18.2479 10.1205 18.2479 10.0576C18.2479 9.99463 18.3009 9.9436 18.3663 9.9436C18.4316 9.9436 18.4846 9.99463 18.4846 10.0576Z" fill="#E77D42"/>
<path d="M13.5139 10.0576C13.5139 10.1205 13.4609 10.1716 13.3956 10.1716C13.3302 10.1716 13.2772 10.1205 13.2772 10.0575C13.2772 9.99456 13.3302 9.9436 13.3956 9.9436C13.4609 9.9436 13.5139 9.99463 13.5139 10.0576Z" fill="#E77D42"/>
<path d="M15.4075 10.0576C15.4075 10.1205 15.3545 10.1716 15.2892 10.1716C15.2238 10.1716 15.1708 10.1205 15.1708 10.0576C15.1708 9.99463 15.2238 9.9436 15.2892 9.9436C15.3545 9.9436 15.4075 9.99463 15.4075 10.0576Z" fill="#E77D42"/>
<path d="M17.3011 10.0576C17.3011 10.1205 17.2481 10.1716 17.1827 10.1716C17.1174 10.1716 17.0644 10.1205 17.0644 10.0576C17.0644 9.99463 17.1174 9.9436 17.1827 9.9436C17.2481 9.9436 17.3011 9.99463 17.3011 10.0576Z" fill="#E77D42"/>
<path d="M13.9873 10.0576C13.9873 10.1205 13.9343 10.1716 13.8689 10.1716C13.8036 10.1716 13.7506 10.1205 13.7506 10.0576C13.7506 9.99463 13.8036 9.9436 13.8689 9.9436C13.9343 9.9436 13.9873 9.99463 13.9873 10.0576Z" fill="#E77D42"/>
<path d="M15.8809 10.0576C15.8809 10.1205 15.8279 10.1716 15.7626 10.1716C15.6972 10.1716 15.6442 10.1205 15.6442 10.0576C15.6442 9.99463 15.6972 9.9436 15.7626 9.9436C15.8279 9.9436 15.8809 9.99463 15.8809 10.0576Z" fill="#E77D42"/>
<path d="M17.7745 10.0576C17.7745 10.1205 17.7215 10.1716 17.6562 10.1716C17.5908 10.1716 17.5378 10.1205 17.5378 10.0576C17.5378 9.99463 17.5908 9.9436 17.6562 9.9436C17.7215 9.9436 17.7745 9.99463 17.7745 10.0576Z" fill="#E77D42"/>
<path d="M14.4607 10.0576C14.4607 10.1205 14.4077 10.1716 14.3423 10.1716C14.277 10.1716 14.224 10.1205 14.224 10.0576C14.224 9.99463 14.277 9.9436 14.3423 9.9436C14.4077 9.9436 14.4607 9.99463 14.4607 10.0576Z" fill="#E77D42"/>
<path d="M16.3543 10.0576C16.3543 10.1205 16.3013 10.1716 16.236 10.1716C16.1706 10.1716 16.1176 10.1205 16.1176 10.0576C16.1176 9.99463 16.1706 9.9436 16.236 9.9436C16.3013 9.9436 16.3543 9.99463 16.3543 10.0576Z" fill="#E77D42"/>
<path d="M18.2479 10.0576C18.2479 10.1205 18.1949 10.1716 18.1296 10.1716C18.0642 10.1716 18.0112 10.1205 18.0112 10.0576C18.0112 9.99463 18.0642 9.9436 18.1296 9.9436C18.1949 9.9436 18.2479 9.99463 18.2479 10.0576Z" fill="#E77D42"/>
<path d="M14.9341 10.0576C14.9341 10.1205 14.8811 10.1716 14.8158 10.1716C14.7504 10.1716 14.6974 10.1205 14.6974 10.0576C14.6974 9.99463 14.7504 9.9436 14.8158 9.9436C14.8811 9.9436 14.9341 9.99463 14.9341 10.0576Z" fill="#E77D42"/>
<path d="M16.8277 10.0576C16.8277 10.1205 16.7747 10.1716 16.7093 10.1716C16.644 10.1716 16.591 10.1205 16.591 10.0576C16.591 9.99463 16.644 9.9436 16.7093 9.9436C16.7747 9.9436 16.8277 9.99463 16.8277 10.0576Z" fill="#E77D42"/>
<path d="M18.7213 10.0576C18.7213 10.1205 18.6683 10.1716 18.603 10.1716C18.5376 10.1716 18.4846 10.1205 18.4846 10.0576C18.4846 9.99463 18.5376 9.9436 18.603 9.9436C18.6683 9.9436 18.7213 9.99463 18.7213 10.0576Z" fill="#E77D42"/>
<path d="M18.958 10.0576C18.958 10.1205 18.905 10.1716 18.8397 10.1716C18.7743 10.1716 18.7213 10.1205 18.7213 10.0576C18.7213 9.99463 18.7743 9.9436 18.8397 9.9436C18.905 9.9436 18.958 9.99463 18.958 10.0576Z" fill="#E77D42"/>
<path fill-rule="evenodd" clip-rule="evenodd" d="M15.9007 6.14203C14.3007 6.14202 13.0037 7.40344 13.0037 8.95948H12.9451C12.9451 7.37197 14.2684 6.08503 15.9007 6.08504L16.2618 6.08504C17.8044 6.08504 19.0549 7.30119 19.0549 8.80139H18.9963C18.9963 7.33267 17.772 6.14203 16.2618 6.14203L15.9007 6.14203Z" fill="#F8D74C"/>
<path fill-rule="evenodd" clip-rule="evenodd" d="M13.0495 8.92829C13.0495 8.92825 13.0495 8.92833 13.0495 8.92829L18.9918 8.92841C18.9918 8.92846 18.9918 8.92837 18.9918 8.92841L13.0495 8.92829ZM13.1866 8.25717L13.5376 8.91685L13.9676 8.1088L14.3976 8.91685L14.8275 8.1088L15.2575 8.91691L15.6875 8.1088L16.1175 8.91685L16.5475 8.1088L16.9775 8.91691L17.4075 8.1088L17.8374 8.91685L18.2674 8.1088L18.6974 8.9169L18.9226 8.49363C18.6144 7.21229 17.4321 6.25803 16.0207 6.25803C14.6975 6.25803 13.5757 7.09664 13.1866 8.25717Z" fill="#F8D74C"/>
<path fill-rule="evenodd" clip-rule="evenodd" d="M15.6742 5.08104C15.6831 5.10685 15.6823 5.13353 15.6738 5.1574L15.7613 5.41176L15.9985 5.33459C16.013 5.31385 16.0343 5.29739 16.0607 5.28882C16.1246 5.26804 16.1937 5.30156 16.2151 5.3637C16.2364 5.42584 16.202 5.49306 16.1381 5.51384C16.1113 5.52254 16.0837 5.52173 16.059 5.51328L15.8226 5.59015L16.0374 6.2145C16.0589 6.22859 16.076 6.24946 16.0849 6.27527C16.1063 6.33741 16.0718 6.40463 16.0079 6.42541C15.944 6.4462 15.8749 6.41267 15.8535 6.35053C15.8446 6.32471 15.8454 6.298 15.8539 6.27412L15.6392 5.64981L15.3999 5.72764C15.3855 5.74878 15.3639 5.76557 15.3372 5.77425C15.2733 5.79504 15.2042 5.76151 15.1828 5.69937C15.1614 5.63724 15.1959 5.57002 15.2598 5.54923C15.2862 5.54065 15.3135 5.54133 15.3379 5.54947L15.5779 5.47142L15.4904 5.21711C15.4688 5.20301 15.4517 5.18213 15.4428 5.1563C15.4214 5.09416 15.4559 5.02694 15.5198 5.00616C15.5837 4.98538 15.6528 5.0189 15.6742 5.08104Z" fill="#F8D74C"/>
</g>
<defs>
<clipPath id="clip0_440_1508">
<rect width="32" height="24" rx="2" fill="white"/>
</clipPath>
</defs>
</svg>
