<svg width="32" height="24" viewBox="0 0 32 24" fill="none" xmlns="http://www.w3.org/2000/svg">
<rect width="32" height="24" rx="2" fill="#D74B4B"/>
<path d="M0 0H32V12H0V0Z" fill="#485CC2"/>
<path d="M3.97143 7.25709C3.88487 7.06738 3.61086 6.46684 3.61086 5.63535C3.61086 4.86513 4.22929 4.57984 4.53851 4.53347C4.84773 4.46571 5.6866 4.42863 6.56834 4.82239L7.00001 5.02562L7.43169 4.82239C8.31343 4.42863 9.1523 4.46571 9.46152 4.53347C9.77074 4.57984 10.3892 4.86513 10.3892 5.63535C10.3892 6.46684 10.1152 7.06738 10.0286 7.25709C10.0149 7.28704 10.0059 7.30676 10.0034 7.31552L9.81972 7.73272H4.18031L3.9966 7.31552C3.9941 7.30676 3.9851 7.28704 3.97143 7.25709Z" fill="#F8D74C"/>
<path d="M3.97143 7.25709C3.88487 7.06738 3.61086 6.46684 3.61086 5.63535C3.61086 4.86513 4.22929 4.57984 4.53851 4.53347C4.84773 4.46571 5.6866 4.42863 6.56834 4.82239L7.00001 5.02562L7.43169 4.82239C8.31343 4.42863 9.1523 4.46571 9.46152 4.53347C9.77074 4.57984 10.3892 4.86513 10.3892 5.63535C10.3892 6.46684 10.1152 7.06738 10.0286 7.25709C10.0149 7.28704 10.0059 7.30676 10.0034 7.31552L9.81972 7.73272H4.18031L3.9966 7.31552C3.9941 7.30676 3.9851 7.28704 3.97143 7.25709Z" fill="#333333"/>
<path fill-rule="evenodd" clip-rule="evenodd" d="M4.59575 4.9548L4.58523 4.95638C4.48117 4.97198 4.31398 5.03241 4.18205 5.15078C4.06222 5.2583 3.97686 5.4051 3.97686 5.63535C3.97686 6.35899 4.21525 6.88301 4.29462 7.05695L4.29556 7.05902C4.3016 7.07225 4.30859 7.08757 4.31435 7.10074C4.31448 7.10104 4.31465 7.10143 4.31486 7.1019C4.31684 7.10638 4.32227 7.11869 4.32854 7.13516L4.40391 7.30633H9.59612L9.67149 7.13516C9.67776 7.11868 9.68319 7.10637 9.68517 7.1019C9.68538 7.10142 9.68555 7.10104 9.68568 7.10074C9.69144 7.08757 9.69842 7.07226 9.70446 7.05903L9.70541 7.05695C9.78477 6.88301 10.0232 6.35899 10.0232 5.63535C10.0232 5.4051 9.93781 5.2583 9.81798 5.15078C9.68604 5.03241 9.51885 4.97198 9.41479 4.95638L9.40428 4.9548L9.39386 4.95252C9.14396 4.89775 8.3762 4.85819 7.5657 5.21919L7.00001 5.48551L6.43432 5.21919C5.62383 4.85819 4.85607 4.89775 4.60617 4.95252L4.59575 4.9548ZM6.56834 4.82239C5.6866 4.42863 4.84773 4.46571 4.53851 4.53347C4.22929 4.57984 3.61086 4.86513 3.61086 5.63535C3.61086 6.46684 3.88487 7.06738 3.97143 7.25709C3.9851 7.28704 3.9941 7.30676 3.9966 7.31552L4.18031 7.73272H9.81972L10.0034 7.31552C10.0059 7.30676 10.0149 7.28704 10.0286 7.25709C10.1152 7.06738 10.3892 6.46684 10.3892 5.63535C10.3892 4.86513 9.77074 4.57984 9.46152 4.53347C9.1523 4.46571 8.31343 4.42863 7.43169 4.82239L7.00001 5.02562L6.56834 4.82239Z" fill="#F8D74C"/>
<path fill-rule="evenodd" clip-rule="evenodd" d="M3 7.03481L4.03272 9.27139C4.4109 9.51426 5.53381 10 7 10V6.47541C6.68 6.47545 6.04 6.68226 6.04 7.50919C5.97612 7.16459 5.6196 6.28057 4.98337 6.47541C4.39264 6.65631 4.3997 7.15968 4.40373 7.44692C4.40404 7.46904 4.40434 7.48988 4.40434 7.50919C4.22348 7.17775 3.68941 6.61887 3 7.03481ZM9.59566 7.50919C9.77652 7.17775 10.3106 6.61887 11 7.03481L9.96728 9.27139C9.5891 9.51426 8.46618 10 7 10V6.47541C7.32 6.47545 7.96 6.68226 7.96 7.50919C8.02388 7.16459 8.3804 6.28057 9.01663 6.47541C9.60736 6.65631 9.6003 7.15968 9.59627 7.44692C9.59596 7.46904 9.59566 7.48988 9.59566 7.50919Z" fill="#F8D74C"/>
<path fill-rule="evenodd" clip-rule="evenodd" d="M6.75265 2.31646L6.94209 2L7.12795 2.31646L6.9552 2.6377C7.04636 2.64517 7.1214 2.72073 7.14307 2.821L7.35671 2.66207L7.62835 2.88277L7.35671 3.09929L7.1425 2.94295C7.12718 3.01064 7.08749 3.06679 7.03502 3.09791V3.54591C7.22081 3.59592 7.35932 3.78988 7.35932 4.02152C7.35932 4.29111 7.17172 4.50966 6.94031 4.50966C6.70889 4.50966 6.5213 4.29111 6.5213 4.02152C6.5213 3.78988 6.65979 3.59593 6.84558 3.54591V3.09791C6.7912 3.06566 6.75054 3.00651 6.73652 2.93551L6.53104 3.09929L6.23438 2.88277L6.53104 2.66207L6.736 2.82858C6.75567 2.72338 6.8337 2.64356 6.9286 2.63746L6.75265 2.31646Z" fill="#F8D74C"/>
<path d="M3.61084 6.45623C3.61084 6.5866 3.52013 6.69228 3.40823 6.69228C3.29632 6.69228 3.20561 6.5866 3.20561 6.45623C3.20561 6.32587 3.29632 6.22019 3.40823 6.22019C3.52013 6.22019 3.61084 6.32587 3.61084 6.45623Z" fill="#F8D74C"/>
<path d="M3.53414 5.98414C3.53414 6.11451 3.44342 6.22019 3.33152 6.22019C3.21962 6.22019 3.1289 6.11451 3.1289 5.98414C3.1289 5.85378 3.21962 5.7481 3.33152 5.7481C3.44342 5.7481 3.53414 5.85378 3.53414 5.98414Z" fill="#F8D74C"/>
<path d="M3.51135 5.51205C3.51135 5.64242 3.42063 5.7481 3.30873 5.7481C3.19683 5.7481 3.10611 5.64242 3.10611 5.51205C3.10611 5.38169 3.19683 5.27601 3.30873 5.27601C3.42063 5.27601 3.51135 5.38169 3.51135 5.51205Z" fill="#F8D74C"/>
<path d="M3.65924 5.03996C3.65924 5.17033 3.56852 5.27601 3.45662 5.27601C3.34472 5.27601 3.254 5.17033 3.254 5.03996C3.254 4.9096 3.34472 4.80392 3.45662 4.80392C3.56852 4.80392 3.65924 4.9096 3.65924 5.03996Z" fill="#F8D74C"/>
<path d="M3.91659 4.64855C3.91659 4.77891 3.82587 4.88459 3.71397 4.88459C3.60207 4.88459 3.51135 4.77891 3.51135 4.64855C3.51135 4.51818 3.60207 4.4125 3.71397 4.4125C3.82587 4.4125 3.91659 4.51818 3.91659 4.64855Z" fill="#F8D74C"/>
<path d="M4.27759 4.38778C4.27759 4.51814 4.18687 4.62383 4.07497 4.62383C3.96307 4.62383 3.87235 4.51814 3.87235 4.38778C3.87235 4.25742 3.96307 4.15173 4.07497 4.15173C4.18687 4.15173 4.27759 4.25742 4.27759 4.38778Z" fill="#F8D74C"/>
<path d="M4.68283 4.22538C4.68283 4.35575 4.59211 4.46143 4.48021 4.46143C4.3683 4.46143 4.27759 4.35575 4.27759 4.22538C4.27759 4.09502 4.3683 3.98934 4.48021 3.98934C4.59211 3.98934 4.68283 4.09502 4.68283 4.22538Z" fill="#F8D74C"/>
<path d="M5.13319 4.20456C5.13319 4.33493 5.04247 4.44061 4.93057 4.44061C4.81867 4.44061 4.72795 4.33493 4.72795 4.20456C4.72795 4.0742 4.81867 3.96852 4.93057 3.96852C5.04247 3.96852 5.13319 4.0742 5.13319 4.20456Z" fill="#F8D74C"/>
<path d="M5.58327 4.22538C5.58327 4.35575 5.49255 4.46143 5.38065 4.46143C5.26875 4.46143 5.17803 4.35575 5.17803 4.22538C5.17803 4.09502 5.26875 3.98934 5.38065 3.98934C5.49255 3.98934 5.58327 4.09502 5.58327 4.22538Z" fill="#F8D74C"/>
<path d="M6.01218 4.3045C6.01218 4.43486 5.92147 4.54055 5.80957 4.54055C5.69766 4.54055 5.60695 4.43486 5.60695 4.3045C5.60695 4.17414 5.69766 4.06845 5.80957 4.06845C5.92147 4.06845 6.01218 4.17414 6.01218 4.3045Z" fill="#F8D74C"/>
<path d="M6.41742 4.41901C6.41742 4.54937 6.3267 4.65506 6.2148 4.65506C6.1029 4.65506 6.01218 4.54937 6.01218 4.41901C6.01218 4.28865 6.1029 4.18296 6.2148 4.18296C6.3267 4.18296 6.41742 4.28865 6.41742 4.41901Z" fill="#F8D74C"/>
<path d="M6.82266 4.55226C6.82266 4.68262 6.73194 4.7883 6.62004 4.7883C6.50814 4.7883 6.41742 4.68262 6.41742 4.55226C6.41742 4.42189 6.50814 4.31621 6.62004 4.31621C6.73194 4.31621 6.82266 4.42189 6.82266 4.55226Z" fill="#F8D74C"/>
<path d="M7.0456 5.63887C7.0456 5.6829 7.01496 5.71859 6.97717 5.71859C6.93938 5.71859 6.90875 5.6829 6.90875 5.63887C6.90875 5.59485 6.93938 5.55916 6.97717 5.55916C7.01496 5.55916 7.0456 5.59485 7.0456 5.63887Z" fill="#F8D74C"/>
<path d="M7.0456 6.08077C7.0456 6.1248 7.01496 6.16049 6.97717 6.16049C6.93938 6.16049 6.90875 6.1248 6.90875 6.08077C6.90875 6.03675 6.93938 6.00106 6.97717 6.00106C7.01496 6.00106 7.0456 6.03675 7.0456 6.08077Z" fill="#F8D74C"/>
<path d="M7.0456 6.25618C7.0456 6.30021 7.01496 6.3359 6.97717 6.3359C6.93938 6.3359 6.90875 6.30021 6.90875 6.25618C6.90875 6.21216 6.93938 6.17647 6.97717 6.17647C7.01496 6.17647 7.0456 6.21216 7.0456 6.25618Z" fill="#F8D74C"/>
<path d="M7.08452 5.85963C7.08452 5.9287 7.03646 5.98469 6.97717 5.98469C6.91788 5.98469 6.86982 5.9287 6.86982 5.85963C6.86982 5.79056 6.91788 5.73457 6.97717 5.73457C7.03646 5.73457 7.08452 5.79056 7.08452 5.85963Z" fill="#F8D74C"/>
<path d="M7.51196 4.58661C7.51196 4.71697 7.42125 4.82266 7.30935 4.82266C7.19744 4.82266 7.10673 4.71697 7.10673 4.58661C7.10673 4.45625 7.19744 4.35056 7.30935 4.35056C7.42125 4.35056 7.51196 4.45625 7.51196 4.58661Z" fill="#F8D74C"/>
<path d="M7.9172 4.44087C7.9172 4.57123 7.82649 4.67692 7.71458 4.67692C7.60268 4.67692 7.51196 4.57123 7.51196 4.44087C7.51196 4.31051 7.60268 4.20483 7.71458 4.20483C7.82649 4.20483 7.9172 4.31051 7.9172 4.44087Z" fill="#F8D74C"/>
<path d="M8.32244 4.31595C8.32244 4.44632 8.23172 4.552 8.11982 4.552C8.00792 4.552 7.9172 4.44632 7.9172 4.31595C7.9172 4.18559 8.00792 4.07991 8.11982 4.07991C8.23172 4.07991 8.32244 4.18559 8.32244 4.31595Z" fill="#F8D74C"/>
<path d="M8.72767 4.23267C8.72767 4.36304 8.63696 4.46872 8.52505 4.46872C8.41315 4.46872 8.32244 4.36304 8.32244 4.23267C8.32244 4.10231 8.41315 3.99663 8.52505 3.99663C8.63696 3.99663 8.72767 4.10231 8.72767 4.23267Z" fill="#F8D74C"/>
<path d="M9.13291 4.1827C9.13291 4.31307 9.04219 4.41875 8.93029 4.41875C8.81839 4.41875 8.72767 4.31307 8.72767 4.1827C8.72767 4.05234 8.81839 3.94666 8.93029 3.94666C9.04219 3.94666 9.13291 4.05234 9.13291 4.1827Z" fill="#F8D74C"/>
<path d="M9.55736 4.20456C9.55736 4.33493 9.46664 4.44061 9.35474 4.44061C9.24283 4.44061 9.15212 4.33493 9.15212 4.20456C9.15212 4.0742 9.24283 3.96852 9.35474 3.96852C9.46664 3.96852 9.55736 4.0742 9.55736 4.20456Z" fill="#F8D74C"/>
<path d="M9.9818 4.3503C9.9818 4.48067 9.89109 4.58635 9.77918 4.58635C9.66728 4.58635 9.57657 4.48067 9.57657 4.3503C9.57657 4.21994 9.66728 4.11426 9.77918 4.11426C9.89109 4.11426 9.9818 4.21994 9.9818 4.3503Z" fill="#F8D74C"/>
<path d="M10.3679 4.54081C10.3679 4.67117 10.2772 4.77685 10.1653 4.77685C10.0534 4.77685 9.9627 4.67117 9.9627 4.54081C9.9627 4.41044 10.0534 4.30476 10.1653 4.30476C10.2772 4.30476 10.3679 4.41044 10.3679 4.54081Z" fill="#F8D74C"/>
<path d="M10.6228 4.91296C10.6228 5.04333 10.5321 5.14901 10.4202 5.14901C10.3083 5.14901 10.2176 5.04333 10.2176 4.91296C10.2176 4.7826 10.3083 4.67692 10.4202 4.67692C10.5321 4.67692 10.6228 4.7826 10.6228 4.91296Z" fill="#F8D74C"/>
<path d="M10.8254 5.38505C10.8254 5.51542 10.7347 5.6211 10.6228 5.6211C10.5109 5.6211 10.4202 5.51542 10.4202 5.38505C10.4202 5.25469 10.5109 5.14901 10.6228 5.14901C10.7347 5.14901 10.8254 5.25469 10.8254 5.38505Z" fill="#F8D74C"/>
<path d="M10.8254 5.87536C10.8254 6.00572 10.7347 6.11141 10.6228 6.11141C10.5109 6.11141 10.4202 6.00572 10.4202 5.87536C10.4202 5.745 10.5109 5.63931 10.6228 5.63931C10.7347 5.63931 10.8254 5.745 10.8254 5.87536Z" fill="#F8D74C"/>
<path d="M10.7732 6.36567C10.7732 6.49603 10.6825 6.60171 10.5706 6.60171C10.4587 6.60171 10.3679 6.49603 10.3679 6.36567C10.3679 6.2353 10.4587 6.12962 10.5706 6.12962C10.6825 6.12962 10.7732 6.2353 10.7732 6.36567Z" fill="#F8D74C"/>
<path d="M6.977 8.56263C6.977 8.03071 6.68555 7.51098 6.53982 7.31761C6.87016 7.70244 6.96892 7.30821 6.977 7.06299C6.977 7.62888 7.26845 7.46852 7.41417 7.31761C7.10816 7.67411 6.99522 8.29617 6.977 8.56263Z" fill="#333333"/>
<path d="M5.51634 8.53691C5.39816 8.02311 5.00117 7.60897 4.81745 7.46612C5.22203 7.73824 5.22984 7.32766 5.18317 7.08836C5.30889 7.63497 5.55478 7.3922 5.66201 7.20249C5.44562 7.63911 5.47474 8.27403 5.51634 8.53691Z" fill="#333333"/>
<path d="M8.43767 8.53691C8.55584 8.02311 8.95283 7.60897 9.13655 7.46612C8.73197 7.73824 8.72417 7.32766 8.77084 7.08836C8.64511 7.63497 8.39923 7.3922 8.292 7.20249C8.50838 7.63911 8.47927 8.27403 8.43767 8.53691Z" fill="#333333"/>
<path d="M9.58048 8.69931C9.77622 8.3075 10.1822 8.07023 10.3607 8.00057C9.97572 8.11906 10.048 7.77936 10.1323 7.59469C9.92409 8.01152 9.76842 7.74785 9.71662 7.56391C9.81084 7.97933 9.66512 8.49393 9.58048 8.69931Z" fill="#333333"/>
<path d="M4.37386 8.69931C4.17812 8.3075 3.77219 8.07023 3.59369 8.00057C3.97862 8.11906 3.9063 7.77936 3.82202 7.59469C4.03026 8.01152 4.18592 7.74785 4.23772 7.56391C4.1435 7.97933 4.28922 8.49393 4.37386 8.69931Z" fill="#333333"/>
<path d="M9.38252 9.22329C9.38252 9.39218 8.33046 9.71094 7.03268 9.71094C5.7349 9.71094 4.68284 9.39218 4.68284 9.22329C4.68284 9.0544 5.7349 8.91748 7.03268 8.91748C8.33046 8.91748 9.38252 9.0544 9.38252 9.22329Z" fill="#333333"/>
<path d="M4.45596 5.40863C4.36454 5.52162 4.31105 5.65842 4.31105 5.80582V6.28399C4.31105 6.37144 4.36997 6.44722 4.45596 6.48431V5.40863Z" fill="#F8D74C"/>
<path d="M4.73337 6.4651L4.71833 6.47325C4.67648 6.49594 4.62796 6.50817 4.57833 6.50857V5.28883C4.62532 5.25211 4.67732 5.21995 4.73337 5.19315V6.4651Z" fill="#F8D74C"/>
<path d="M5.01035 6.31498L4.85532 6.39901V5.14549C4.90495 5.13012 4.9568 5.11866 5.01035 5.11155V6.31498Z" fill="#F8D74C"/>
<path d="M5.28738 6.27003C5.23779 6.25667 5.18415 6.2546 5.13234 6.26504V5.10309L5.13946 5.10307H5.28738V6.27003Z" fill="#F8D74C"/>
<path d="M5.56436 6.47785C5.51817 6.45618 5.479 6.42387 5.45211 6.38352C5.43998 6.36532 5.42556 6.34895 5.40933 6.33451V5.10307H5.47526C5.50537 5.10307 5.53509 5.10443 5.56436 5.10708V6.47785Z" fill="#F8D74C"/>
<path d="M5.80956 6.50858H5.70478C5.68776 6.50858 5.67095 6.50732 5.65452 6.50487V5.11956C5.70835 5.12964 5.76022 5.14415 5.80956 5.16263V6.50858Z" fill="#F8D74C"/>
<path d="M6.05494 6.45649C6.00759 6.47895 5.95535 6.49487 5.89991 6.50281V5.20229C5.95628 5.23089 6.0083 5.26502 6.05494 5.30378V6.45649Z" fill="#F8D74C"/>
<path d="M6.30029 6.14587C6.28624 6.24667 6.22924 6.3363 6.14526 6.40125V5.39243C6.23099 5.49225 6.28648 5.61196 6.30029 5.74187V6.14587Z" fill="#F8D74C"/>
<path d="M9.5774 5.40859C9.66882 5.52159 9.72231 5.65839 9.72231 5.80579V6.28396C9.72231 6.3714 9.6634 6.44718 9.5774 6.48427V5.40859Z" fill="#F8D74C"/>
<path d="M9.3 6.46506L9.31503 6.47321C9.35689 6.4959 9.4054 6.50813 9.45503 6.50853V5.28879C9.40805 5.25207 9.35604 5.21991 9.3 5.19312V6.46506Z" fill="#F8D74C"/>
<path d="M9.02301 6.31494L9.17804 6.39897V5.14546C9.12841 5.13008 9.07656 5.11862 9.02301 5.11151V6.31494Z" fill="#F8D74C"/>
<path d="M8.74599 6.26999C8.79558 6.25664 8.84922 6.25456 8.90102 6.26501V5.10305L8.8939 5.10303H8.74599V6.26999Z" fill="#F8D74C"/>
<path d="M8.469 6.47781C8.5152 6.45615 8.55437 6.42384 8.58125 6.38348C8.59338 6.36528 8.6078 6.34891 8.62404 6.33448V5.10303H8.5581C8.528 5.10303 8.49827 5.10439 8.469 5.10704V6.47781Z" fill="#F8D74C"/>
<path d="M8.22381 6.50854H8.32858C8.3456 6.50854 8.36241 6.50728 8.37884 6.50483V5.11952C8.32501 5.1296 8.27314 5.14411 8.22381 5.16259V6.50854Z" fill="#F8D74C"/>
<path d="M7.97842 6.45645C8.02577 6.47891 8.07801 6.49483 8.13345 6.50278V5.20225C8.07709 5.23086 8.02506 5.26498 7.97842 5.30374V6.45645Z" fill="#F8D74C"/>
<path d="M7.73307 6.14584C7.74713 6.24663 7.80412 6.33627 7.8881 6.40121V5.39239C7.80237 5.49221 7.74688 5.61193 7.73307 5.74183V6.14584Z" fill="#F8D74C"/>
</svg>
