<svg width="32" height="24" viewBox="0 0 32 24" fill="none" xmlns="http://www.w3.org/2000/svg">
<g clip-path="url(#clip0_440_1461)">
<rect width="32" height="24" rx="2" fill="#D74B4B"/>
<path d="M16.0167 12.0013L16.1817 12.0166L15.912 12.1157L16.6788 14.7996L18.5673 26.5284L13.7963 24.4907L15.8641 12.1332L15.5084 12.2639L14.2933 14.6008L-1.85868 27.1744L-5.18848 24.1431L15.0191 12.4436L13.7465 12.911L-6.23218 14.6505L-5.28789 10.0283L15.9529 11.9954L-4.93823 0.0576172L0.561768 -1.44238L14.0618 9.55762L15.9672 11.9394L15.9683 11.9385L13.6472 -0.358233L18.9152 -2.34619L16.0051 11.9086L30.7434 -0.0599513L39.7388 -1.00439L18.4679 11.5196L15.9954 11.9559L15.9924 11.9709L16.0167 12.0013Z" fill="#F8D74C"/>
<path d="M31.5883 25.9323L16.6291 14.1535L16.9273 12.9609L36.6576 24.3916L31.5883 25.9323Z" fill="#F8D74C"/>
<path d="M16.2315 11.9668L40.385 9.73047L37.9001 14.7002L17.2256 12.8116L16.2315 11.9668Z" fill="#F8D74C"/>
<path d="M20 12.0002C20 14.2093 18.2091 16.0002 16 16.0002C13.7909 16.0002 12 14.2093 12 12.0002C12 9.79106 13.7909 8.0002 16 8.0002C18.2091 8.0002 20 9.79106 20 12.0002Z" fill="#D74B4B"/>
<path d="M19.5 12.0001C19.5 13.9331 17.933 15.5001 16 15.5001C14.067 15.5001 12.5 13.9331 12.5 12.0001C12.5 10.0671 14.067 8.50012 16 8.50012C17.933 8.50012 19.5 10.0671 19.5 12.0001Z" fill="#F8D74C"/>
</g>
<defs>
<clipPath id="clip0_440_1461">
<rect width="32" height="24" rx="2" fill="white"/>
</clipPath>
</defs>
</svg>
