<svg width="24" height="24" viewBox="0 0 24 24" fill="none" xmlns="http://www.w3.org/2000/svg">
<g clip-path="url(#clip0_440_1460)">
<rect width="24" height="24" rx="2" fill="#D74B4B"/>
<path d="M12.1036 12.0013L12.2686 12.0166L11.9988 12.1157L12.7656 14.7996L14.6542 26.5284L9.88312 24.4907L11.951 12.1332L11.5952 12.2639L10.3801 14.6008L-5.77183 27.1744L-9.10162 24.1431L11.1059 12.4436L9.8334 12.911L-10.1453 14.6505L-9.20103 10.0283L12.0398 11.9954L-8.85138 0.0576172L-3.35138 -1.44238L10.1486 9.55762L12.0541 11.9394L12.0551 11.9385L9.73407 -0.358233L15.0021 -2.34619L12.092 11.9086L26.8303 -0.0599513L35.8257 -1.00439L14.5548 11.5196L12.0823 11.9559L12.0792 11.9709L12.1036 12.0013Z" fill="#F8D74C"/>
<path d="M27.6752 25.9323L12.716 14.1535L13.0142 12.9609L32.7444 24.3916L27.6752 25.9323Z" fill="#F8D74C"/>
<path d="M12.3184 11.9668L36.4719 9.73047L33.987 14.7002L13.3125 12.8116L12.3184 11.9668Z" fill="#F8D74C"/>
<path d="M16 12.4141C16 14.6232 14.2092 16.4141 12 16.4141C9.79088 16.4141 8.00002 14.6232 8.00002 12.4141C8.00002 10.2049 9.79088 8.41406 12 8.41406C14.2092 8.41406 16 10.2049 16 12.4141Z" fill="#D74B4B"/>
<path d="M15.5 12.4141C15.5 14.3471 13.933 15.9141 12 15.9141C10.067 15.9141 8.50002 14.3471 8.50002 12.4141C8.50002 10.4811 10.067 8.91406 12 8.91406C13.933 8.91406 15.5 10.4811 15.5 12.4141Z" fill="#F8D74C"/>
</g>
<defs>
<clipPath id="clip0_440_1460">
<rect width="24" height="24" rx="2" fill="white"/>
</clipPath>
</defs>
</svg>
