<svg width="24" height="24" viewBox="0 0 24 24" fill="none" xmlns="http://www.w3.org/2000/svg">
<g clip-path="url(#clip0_440_1456)">
<rect width="24" height="24" rx="2" fill="#F9F9F9"/>
<path d="M12 24L12 0L24 1.43099e-07L24 24L12 24Z" fill="#D74B4B"/>
<path fill-rule="evenodd" clip-rule="evenodd" d="M5.08836 3H6.91169V4.59016H7.04901C7.2483 4.59016 7.40986 4.75172 7.40986 4.95101V5.08835H9V6.91168H7.40986V7.049C7.40986 7.24829 7.2483 7.40985 7.04901 7.40985H6.91169V9H5.08836V7.40985H4.95102C4.75173 7.40985 4.59017 7.24829 4.59017 7.049V6.91168H3L3 5.08835H4.59017V4.95101C4.59017 4.75172 4.75173 4.59016 4.95102 4.59016H5.08836V3Z" fill="#E6E6E6"/>
<path fill-rule="evenodd" clip-rule="evenodd" d="M5.08836 4.59016H4.95102C4.75173 4.59016 4.59017 4.75172 4.59017 4.95101V5.08835H3L3 6.91168H4.59017V7.049C4.59017 7.24829 4.75173 7.40985 4.95102 7.40985H5.08836V9H6.91169V7.40985H7.04901C7.2483 7.40985 7.40986 7.24829 7.40986 7.049V6.91168H9V5.08835H7.40986V4.95101C7.40986 4.75172 7.2483 4.59016 7.04901 4.59016H6.91169V3H5.08836V4.59016ZM5.17857 3.09021V4.68037H4.95102C4.80155 4.68037 4.68038 4.80154 4.68038 4.95101V5.17856H3.09021L3.09021 6.82146H4.68038V7.049C4.68038 7.19847 4.80155 7.31964 4.95102 7.31964H5.17857V8.90979H6.82147V7.31964H7.04901C7.19848 7.31964 7.31965 7.19847 7.31965 7.049V6.82147H8.90979V5.17856H7.31965V4.95101C7.31965 4.80154 7.19848 4.68037 7.04901 4.68037H6.82147V3.09021H5.17857Z" fill="#D74B4B"/>
<path d="M7.39324 5.99973C7.39324 6.76922 6.76944 7.39301 5.99996 7.39301C5.23047 7.39301 4.60667 6.76922 4.60667 5.99973C4.60667 5.23024 5.23047 4.60645 5.99996 4.60645C6.76944 4.60645 7.39324 5.23024 7.39324 5.99973Z" fill="#F9F9F9"/>
<path fill-rule="evenodd" clip-rule="evenodd" d="M6.70805 6.26523C6.7304 6.25958 6.76728 6.26416 6.76728 6.26416C6.76728 6.26416 6.77051 6.2795 6.76082 6.28462C6.77158 6.29081 6.81035 6.28892 6.81035 6.28892C6.81035 6.28892 6.79527 6.3005 6.78774 6.30508C6.80173 6.30642 6.81896 6.32446 6.81896 6.32446C6.81896 6.32446 6.78666 6.32984 6.77266 6.32231C6.78128 6.33953 6.7802 6.35461 6.7802 6.35461C6.7802 6.35461 6.72797 6.34169 6.70913 6.30723" fill="#969696"/>
<path fill-rule="evenodd" clip-rule="evenodd" d="M6.62083 6.23616C6.60818 6.26739 6.5153 6.20924 6.5153 6.20924C6.5153 6.20924 6.55622 6.27412 6.6176 6.28139" fill="#969696"/>
<path fill-rule="evenodd" clip-rule="evenodd" d="M5.46111 6.83164H6.54868L6.63268 6.76487L6.49269 6.6895L6.27733 6.61627L6.19118 6.56889L6.03182 6.57751L5.89829 6.64858L5.71524 6.67011L5.67216 6.71965L5.53649 6.73042L5.32328 6.72611L5.67862 6.7821L5.38573 6.76703L5.46111 6.83164Z" fill="#969696"/>
<path fill-rule="evenodd" clip-rule="evenodd" d="M6.04689 6.51936C5.91068 6.44614 5.87083 6.6265 5.81215 6.67011C5.89129 6.68357 5.95437 6.63081 6.02221 6.59474C6.07365 6.73482 6.15134 6.62058 6.15134 6.62058C6.15134 6.62058 6.23587 6.75464 6.3484 6.6938C6.37909 6.71696 6.41301 6.69596 6.41301 6.69596C6.41301 6.69596 6.45393 6.7035 6.46254 6.68519C6.48408 6.69273 6.50777 6.66581 6.50777 6.66581C6.50777 6.66581 6.55461 6.66635 6.56376 6.64212C6.63321 6.6545 6.72528 6.49998 6.72528 6.49998L6.75328 6.44614L6.7942 6.43752C6.7942 6.43752 6.79689 6.4106 6.77481 6.41168C6.77428 6.39553 6.76028 6.38691 6.74036 6.39014C6.74413 6.38045 6.72959 6.37292 6.72959 6.37292C6.69082 6.38261 6.68867 6.4806 6.68867 6.4806C6.68867 6.4806 6.62083 6.53228 6.59606 6.5452C6.59499 6.48921 6.50131 6.4133 6.52069 6.37722C6.54007 6.34115 6.60091 6.43268 6.65421 6.41599C6.70751 6.3993 6.7337 6.32996 6.73605 6.276C6.72097 6.23939 6.68436 6.17909 6.68436 6.17909L6.6499 6.17694L6.61975 6.10371C6.61975 6.10371 6.55622 6.14517 6.5573 6.18124C6.55838 6.21732 6.62406 6.24801 6.62406 6.24801C6.62406 6.24801 6.58618 6.27168 6.55084 6.26093C6.54761 6.29754 6.59391 6.29054 6.61114 6.29108C6.61975 6.31746 6.6456 6.332 6.6456 6.332C6.6456 6.332 6.66175 6.37238 6.61975 6.36861C6.57776 6.36484 6.52821 6.26808 6.469 6.31261C6.40601 6.35999 6.497 6.44614 6.497 6.44614C6.497 6.44614 6.44154 6.47521 6.4087 6.54951C6.27464 6.43645 6.19603 6.48921 6.04689 6.51936Z" fill="#969696"/>
<path fill-rule="evenodd" clip-rule="evenodd" d="M5.85091 6.32769C5.90691 6.38045 5.86786 6.46816 5.88968 6.4849C5.91283 6.50267 5.94567 6.47629 5.94567 6.47629C6.00436 6.4919 6.10935 6.45906 6.10935 6.45906C6.15555 6.4849 6.13731 6.44677 6.16534 6.44829C6.19011 6.51182 6.27302 6.49998 6.27302 6.49998C6.27302 6.49998 6.19711 6.42245 6.15027 6.40091C6.11419 6.42245 6.0092 6.42568 5.9909 6.42245C5.9705 6.41885 5.98336 6.39391 5.97367 6.37938C6.01227 6.3418 5.98175 6.24854 5.96075 6.21355C5.87518 6.15654 5.77295 6.25422 5.85091 6.32769Z" fill="#969696"/>
<path fill-rule="evenodd" clip-rule="evenodd" d="M5.47865 6.1698C5.40822 6.18884 5.28601 6.07881 5.2289 6.12107C5.1718 6.16333 5.19845 6.26727 5.23652 6.31904C5.27371 6.36963 5.18208 6.38795 5.15733 6.41803C5.13407 6.4463 5.16495 6.47894 5.16495 6.47894L5.19083 6.49569L5.18626 6.53376L5.19997 6.57945C5.19997 6.57945 5.21253 6.59049 5.21672 6.5764C5.22852 6.5882 5.21797 6.62233 5.24718 6.62665C5.23672 6.6048 5.25479 6.54442 5.25479 6.54442C5.25479 6.54442 5.30581 6.54823 5.31875 6.52615C5.3317 6.50407 5.30657 6.4561 5.30657 6.4561H5.3218C5.30467 6.44429 5.29895 6.40889 5.29895 6.40889C5.29895 6.40889 5.36977 6.38643 5.36901 6.33275C5.36824 6.27907 5.25403 6.22196 5.29591 6.19417C5.34236 6.16333 5.42307 6.27412 5.49236 6.2231C5.56092 6.17262 5.51672 6.22158 5.51672 6.22158C5.51672 6.22158 5.54806 6.15104 5.47865 6.1698Z" fill="#969696"/>
<path fill-rule="evenodd" clip-rule="evenodd" d="M5.8423 5.41563C5.74808 5.37633 5.5556 5.37391 5.44819 5.32088C5.40108 5.32384 5.38008 5.36099 5.3782 5.37579C5.32893 5.37337 5.29555 5.4509 5.30282 5.46624C5.21317 5.4299 5.17145 5.57177 5.20052 5.60085C5.12407 5.60408 5.13349 5.7018 5.12622 5.72898C5.10173 5.78848 5.13168 5.8085 5.18006 5.78713C5.18733 5.81298 5.17716 5.82745 5.1553 5.83236C5.288 5.98422 5.363 5.7389 5.47942 5.73975C5.62476 5.6972 5.68186 5.62561 5.68186 5.62561L5.73893 5.63315L5.8423 5.41563Z" fill="#969696"/>
<path d="M6.10289 5.30688C6.10289 5.38359 6.0407 5.44578 5.96398 5.44578C5.88726 5.44578 5.82507 5.38359 5.82507 5.30688C5.82507 5.23016 5.88726 5.16797 5.96398 5.16797C6.0407 5.16797 6.10289 5.23016 6.10289 5.30688Z" fill="#969696"/>
<path fill-rule="evenodd" clip-rule="evenodd" d="M5.71954 6.40091C5.6334 6.3853 5.49072 6.29592 5.47619 6.17909C5.55641 5.86412 5.97023 6.0286 6.00593 5.7917C5.99684 5.63541 6.02482 5.48069 6.1115 5.34995C6.15188 5.2988 6.20411 5.28534 6.20411 5.28534C6.20411 5.28534 6.21346 5.3187 6.1998 5.34133C6.26818 5.3338 6.36186 5.37202 6.42593 5.37579C6.44477 5.41402 6.44316 5.42802 6.43885 5.45117C6.43454 5.47432 6.4087 5.4684 6.4087 5.4684C6.39199 5.48425 6.3719 5.50038 6.32686 5.49209C6.29294 5.51793 6.22134 5.52439 6.22134 5.52439C6.22134 5.52439 6.37101 5.68214 6.34625 5.73114C6.37747 5.74568 6.42378 5.81513 6.42378 5.81513C6.42378 5.81513 6.52607 5.76129 6.55945 5.71176C6.61868 5.71176 6.71559 5.77367 6.76405 5.78067C6.82327 5.82859 6.8825 5.87758 6.8825 5.87758C6.8825 5.87758 6.81196 5.92389 6.78128 5.86251C6.74413 5.86574 6.6639 5.7769 6.55299 5.80436C6.54976 5.90289 6.441 5.97234 6.441 5.97234C6.441 5.97234 6.54252 5.95814 6.59822 5.99173C6.65583 6.04018 6.74036 6.10587 6.74036 6.10587L6.81573 6.23508C6.81573 6.23508 6.74682 6.24693 6.72097 6.15755C6.69513 6.2297 6.69405 6.11287 6.59176 6.05849C6.56053 6.06226 6.54492 6.06441 6.51853 6.04341C6.44477 6.06333 6.35755 6.10641 6.25364 6.0951C6.17988 6.11825 6.12604 6.17963 6.0512 6.21355C5.97636 6.24747 5.95429 6.23078 5.95429 6.23078L5.89399 6.23293C5.88529 6.26923 5.89022 6.32446 5.85737 6.33415C5.87837 6.35676 5.8423 6.45314 5.80569 6.46983C5.82292 6.53174 5.87339 6.5507 5.92629 6.58182C5.92629 6.58182 5.97313 6.56028 6.00382 6.58828C6.03451 6.61627 6.06628 6.69596 6.06628 6.69596C6.06628 6.69596 6.0024 6.70027 5.98228 6.69165C5.96217 6.68303 5.96021 6.66204 5.93706 6.66796C5.79115 6.53821 5.71421 6.58982 5.70016 6.56028C5.68577 6.53001 5.73462 6.45098 5.71954 6.40091Z" fill="#969696"/>
<path fill-rule="evenodd" clip-rule="evenodd" d="M5.36901 5.8226C5.37662 5.81308 5.42992 5.83326 5.42992 5.83326L5.52738 5.89417L5.72535 6.02209L5.7954 6.12412L5.669 6.083L5.49388 5.93224L5.39946 5.87133C5.39946 5.87133 5.36139 5.83212 5.36901 5.8226Z" fill="#969696"/>
<path fill-rule="evenodd" clip-rule="evenodd" d="M6.54007 6.14679C6.47169 6.12956 6.30317 6.33415 6.30317 6.33415L6.43024 6.47198C6.43024 6.47198 6.43401 6.23724 6.54007 6.14679Z" fill="#969696"/>
<path fill-rule="evenodd" clip-rule="evenodd" d="M5.70662 5.57608C5.66933 5.62386 5.666 5.72018 5.71451 5.75903C5.71908 5.8175 5.76879 5.93543 5.80784 5.9465C5.85051 5.9586 6.02105 5.99819 6.08781 5.98742C6.07504 6.09562 6.15995 6.18247 6.23856 6.23939C6.23799 6.2491 6.23786 6.26095 6.24694 6.27296C6.25574 6.28458 6.29705 6.28672 6.29887 6.28031C6.31719 6.30606 6.40593 6.31736 6.41235 6.30589C6.41861 6.29473 6.28183 6.19953 6.25149 6.17048C6.22571 6.12239 6.17689 6.01523 6.16534 5.92927C6.09821 5.8494 5.98296 5.851 5.98296 5.851L5.98659 5.69453L5.99305 5.51793L5.9306 5.48563C5.9306 5.48563 5.94319 5.47989 5.94998 5.47271C5.96515 5.47923 5.99365 5.44875 5.99736 5.44014C6.01173 5.44523 6.02474 5.44516 6.02725 5.43749C6.02947 5.43071 6.03204 5.40053 6.03728 5.38493C6.0844 5.34345 6.0304 5.25548 5.95836 5.25404C5.88707 5.25259 5.87108 5.33907 5.87245 5.34564C5.87915 5.37277 5.8777 5.38645 5.87245 5.39302C5.86708 5.39974 5.8423 5.41456 5.8423 5.41456C5.8423 5.41456 5.80246 5.39571 5.754 5.41456C5.70555 5.4334 5.65117 5.45871 5.64847 5.48993C5.6264 5.49316 5.59033 5.5217 5.58387 5.54593C5.56448 5.54216 5.53918 5.55831 5.49772 5.62561C5.42342 5.65845 5.41911 5.81728 5.41911 5.81728C5.41911 5.81728 5.39906 5.84649 5.39812 5.86197C5.39717 5.87745 5.40512 5.89158 5.41481 5.88889C5.41588 5.89912 5.42934 5.90827 5.43527 5.90504C5.43742 5.91527 5.4522 5.92099 5.46111 5.91958C5.46192 5.92658 5.49059 5.92483 5.49288 5.9185C5.4954 5.91152 5.49004 5.8766 5.49341 5.87382C5.49651 5.87126 5.52033 5.88943 5.5268 5.88458C5.53326 5.87974 5.52556 5.86422 5.52195 5.8582C5.51872 5.85282 5.49826 5.8469 5.49341 5.82159C5.48857 5.79629 5.50634 5.76129 5.50634 5.76129C5.50634 5.76129 5.5871 5.69776 5.59625 5.64338C5.65709 5.6493 5.68926 5.59613 5.70662 5.57608Z" fill="#969696"/>
<path fill-rule="evenodd" clip-rule="evenodd" d="M5.5434 5.37031C5.56184 5.32522 5.65117 5.30742 5.65117 5.30742C5.65117 5.30742 5.67499 5.24469 5.76477 5.28211C5.79855 5.256 5.88752 5.29342 5.88752 5.29342C5.88752 5.29342 5.92084 5.24903 5.96452 5.25411C6.04541 5.26354 6.05887 5.3377 6.05389 5.35049C6.00961 5.36166 5.93289 5.3145 5.8746 5.32787C5.84055 5.34712 5.78536 5.36745 5.76477 5.39518C5.71079 5.40083 5.63049 5.36748 5.5434 5.37031Z" fill="#969696"/>
<path fill-rule="evenodd" clip-rule="evenodd" d="M5.74529 5.48778C5.76548 5.4754 5.815 5.45363 5.84866 5.48024C5.88393 5.5182 5.93803 5.55347 5.93803 5.55347L5.99941 5.57931L6.02741 5.59654L6.0091 5.87759C5.95229 5.81945 5.89905 5.80928 5.85835 5.74083C5.83655 5.71149 5.85324 5.64096 5.81528 5.59439C5.77732 5.54781 5.73694 5.51632 5.74529 5.48778Z" fill="#969696"/>
<path fill-rule="evenodd" clip-rule="evenodd" d="M5.8822 5.50433C5.8822 5.50433 5.91437 5.49823 5.92332 5.50585C5.93455 5.50965 5.9454 5.51289 5.94844 5.5226C5.96063 5.52622 5.969 5.5325 5.969 5.54163C5.98042 5.54468 5.98499 5.56524 5.98499 5.56524L5.97433 5.58123C5.97433 5.58123 5.96215 5.56981 5.96063 5.55762C5.95292 5.55383 5.93588 5.54982 5.93169 5.53859C5.91837 5.53726 5.9098 5.5304 5.90733 5.51879C5.89495 5.52165 5.8822 5.50433 5.8822 5.50433Z" fill="#969696"/>
<path fill-rule="evenodd" clip-rule="evenodd" d="M6.15457 5.32088C6.13627 5.30042 6.10396 5.31549 6.10396 5.31549L6.01782 5.46409L5.98013 5.49532L5.9769 5.61161L6.00813 5.72037L5.99736 5.80436C5.99736 5.80436 6.04074 5.76366 6.04582 5.74083C6.05066 5.71903 6.02966 5.64823 6.02966 5.64823C6.02966 5.64823 6.00382 5.60408 6.03505 5.52224C6.06628 5.4404 6.13734 5.37256 6.15457 5.32088Z" fill="#969696"/>
<path fill-rule="evenodd" clip-rule="evenodd" d="M6.36714 5.45332C6.36714 5.45332 6.23264 5.64553 6.01244 5.71391C5.9516 5.72845 5.97367 5.57177 5.97367 5.57177L5.95859 5.57608C5.95859 5.57608 5.92468 5.72952 6.00597 5.73114C6.22726 5.68753 6.39329 5.45457 6.39329 5.45457L6.36714 5.45332Z" fill="#969696"/>
<path fill-rule="evenodd" clip-rule="evenodd" d="M6.45823 6.55813C6.45823 6.55813 6.43777 6.5732 6.41085 6.55813C6.39686 6.52582 6.35917 6.52367 6.35917 6.52367C6.35917 6.52367 6.33489 6.45393 6.29671 6.47414C6.29079 6.43806 6.24933 6.45691 6.24933 6.45691C6.24933 6.45691 6.24826 6.40468 6.1998 6.41168C6.21595 6.35192 6.13304 6.35569 6.13304 6.35569C6.13304 6.35569 6.13035 6.28839 6.00813 6.30185C6.27141 6.18394 6.47977 6.48706 6.47977 6.48706" fill="#969696"/>
<path fill-rule="evenodd" clip-rule="evenodd" d="M6.58314 6.58397C6.58314 6.58397 6.64398 6.65235 6.67575 6.65289C6.70751 6.65342 6.71021 6.58612 6.71021 6.58612C6.71021 6.58612 6.72044 6.6152 6.73605 6.60766C6.73443 6.62812 6.75543 6.6335 6.75543 6.6335C6.75543 6.6335 6.70051 6.7611 6.54438 6.63996" fill="#969696"/>
<path fill-rule="evenodd" clip-rule="evenodd" d="M6.10719 6.60981L6.08566 6.69811C6.08566 6.69811 6.0582 6.72288 6.06628 6.72826C6.07435 6.73365 6.11796 6.71965 6.11796 6.71965C6.11796 6.71965 6.1858 6.71157 6.20626 6.69165C6.22026 6.72342 6.25149 6.72611 6.25149 6.72611C6.25149 6.72611 6.25364 6.71265 6.24933 6.70457C6.26441 6.70726 6.27733 6.70242 6.27733 6.70242C6.27733 6.70242 6.28594 6.67765 6.26656 6.66796C6.26872 6.64966 6.27787 6.6335 6.24503 6.63566C6.2208 6.6615 6.16104 6.69111 6.14596 6.68088C6.13088 6.67065 6.20518 6.63781 6.18472 6.59474" fill="#969696"/>
</g>
<defs>
<clipPath id="clip0_440_1456">
<rect width="24" height="24" rx="2" fill="white"/>
</clipPath>
</defs>
</svg>
