<svg width="32" height="24" viewBox="0 0 32 24" fill="none" xmlns="http://www.w3.org/2000/svg">
<g clip-path="url(#clip0_440_1454)">
<rect width="32" height="24" rx="2" fill="#F8D74C"/>
<path d="M0 24L-1.04907e-06 0L10.6667 -4.66255e-07L10.6667 24L0 24Z" fill="#485CC2"/>
<path d="M21.3333 24L21.3333 0L32 -4.66255e-07L32 24L21.3333 24Z" fill="#D74B4B"/>
<path d="M17.4878 14.7042L17.6221 14.548L17.6413 14.3623L17.8366 14.2411L17.9216 14.0957L17.6734 14.4582L17.5953 14.3822L17.6957 14.2428L17.7849 14.1506L17.9433 14.0957L17.9668 14.2323L17.9528 14.1506L18.0263 14.261L18.0345 14.4355L17.9433 14.5801L17.8344 14.5498L18.0345 14.1776L18.0182 14.3443L17.987 14.5588L17.8145 14.6574L17.7221 14.8375L17.5953 14.7654L17.5977 14.7618L17.4878 14.7042Z" fill="#962122"/>
<path d="M14.2686 13.9652L14.6753 13.3774C14.6898 13.3565 14.7164 13.3455 14.743 13.3495L14.9489 13.3804C14.9994 13.388 15.0226 13.4424 14.9912 13.4794L14.4423 14.1257C14.4364 14.1326 14.4322 14.1406 14.4299 14.1491L14.3787 14.3431C14.3758 14.3541 14.3697 14.3642 14.3609 14.3722L14.1548 14.5614C14.129 14.5851 14.0874 14.5856 14.0609 14.5626L13.8423 14.3725C13.8329 14.3643 13.8263 14.3538 13.8232 14.3422L13.7808 14.1815C13.7737 14.1547 13.7868 14.1268 13.8129 14.1132L14.0266 14.0019C14.0367 13.9966 14.0481 13.9938 14.0598 13.9938H14.2118C14.2348 13.9938 14.2562 13.983 14.2686 13.9652Z" fill="#D74B4B"/>
<path d="M17.7435 13.9652L17.3368 13.3774C17.3223 13.3565 17.2957 13.3455 17.2691 13.3495L17.0632 13.3804C17.0127 13.388 16.9895 13.4424 17.021 13.4794L17.5699 14.1257C17.5757 14.1326 17.5799 14.1406 17.5822 14.1491L17.6334 14.3431C17.6363 14.3541 17.6425 14.3642 17.6512 14.3722L17.8573 14.5614C17.8831 14.5851 17.9247 14.5856 17.9512 14.5626L18.1698 14.3725C18.1792 14.3643 18.1859 14.3538 18.1889 14.3422L18.2314 14.1815C18.2384 14.1547 18.2253 14.1268 18.1992 14.1132L17.9856 14.0019C17.9754 13.9966 17.964 13.9938 17.9523 13.9938H17.8004C17.7773 13.9938 17.7559 13.983 17.7435 13.9652Z" fill="#D74B4B"/>
<path fill-rule="evenodd" clip-rule="evenodd" d="M13.0268 9.4129L13.6485 8.64395C13.6728 8.61389 13.7204 8.61042 13.7496 8.63659L14.2857 9.11756C14.2986 9.12918 14.3059 9.14512 14.3059 9.16176V9.47842C14.3059 9.50281 14.3216 9.52492 14.3458 9.53485L15.1536 9.86574C15.1852 9.87868 15.2223 9.86754 15.2394 9.83997L15.5895 9.27758C15.5953 9.26824 15.5983 9.25768 15.5983 9.24692V8.77922C15.5983 8.76244 15.5909 8.74638 15.5777 8.73474L15.2092 8.40846L15.5632 8.47797L15.5553 8.42293C15.5521 8.40034 15.5356 8.38122 15.5124 8.37317L15.2092 8.26809L15.5149 8.12769L15.6555 8.04156C15.6998 8.01446 15.7518 8 15.805 8H15.9924C16.1623 8 16.3259 8.05901 16.4504 8.16519L16.4851 8.19475C16.5399 8.24152 16.5711 8.30714 16.5711 8.37587V8.90551C16.5711 8.91416 16.5691 8.9227 16.5653 8.9306L16.4174 9.23641C16.4091 9.25344 16.4097 9.27298 16.4189 9.28958L16.7391 9.86583L16.8369 9.87796L17.6751 9.53464C17.6993 9.52471 17.7149 9.5026 17.7149 9.47821V9.16154C17.7149 9.14491 17.7222 9.12897 17.7352 9.11734L18.2713 8.63637C18.3004 8.61021 18.348 8.61367 18.3723 8.64374L18.9941 9.41269C19.0027 9.42334 19.0073 9.43625 19.0073 9.44952V14.6601L17.7423 12.8116C17.7261 12.788 17.6948 12.7773 17.6658 12.7853L17.2065 12.9128C17.1626 12.925 17.1445 12.9731 17.1709 13.0075L17.4787 13.4097H17.298V13.5883L17.1174 13.4097V13.7286L16.8318 13.4306C16.819 13.4173 16.8006 13.4097 16.7812 13.4097H16.4235C16.3697 13.4097 16.3376 13.4648 16.3676 13.5058L17.437 14.973C17.4593 15.0035 17.4478 15.045 17.4124 15.062L16.9802 15.2704C16.9482 15.2858 16.9086 15.2752 16.8905 15.2464L16.1724 14.0987L16.7903 15.3691C16.8029 15.3948 16.7948 15.4251 16.7707 15.4427L16.0152 15.9928V16L16.0103 15.9964L16.0056 15.9998V15.993L15.2502 15.4429C15.2261 15.4253 15.218 15.395 15.2305 15.3693L15.8485 14.0989L15.1303 15.2467C15.1123 15.2755 15.0727 15.286 15.0407 15.2706L14.6085 15.0623C14.5731 15.0452 14.5616 15.0037 14.5838 14.9732L15.6533 13.506C15.6832 13.465 15.6512 13.4099 15.5974 13.4099H15.2396C15.2203 13.4099 15.2019 13.4175 15.1891 13.4308L14.9035 13.7289V13.4099L14.7228 13.5885V13.4099H14.5422L14.85 13.0077C14.8763 12.9733 14.8583 12.9252 14.8144 12.913L14.3551 12.7856C14.3261 12.7775 14.2948 12.7883 14.2786 12.8118L13.0136 14.6603V9.44973C13.0136 9.43647 13.0182 9.42355 13.0268 9.4129Z" fill="#E77D42"/>
<path d="M15.5475 8.47353L15.1978 8.40836L15.4318 8.60389L15.5475 8.47353Z" fill="#D74B4B"/>
<path d="M15.1653 8.19067C15.0389 8.21122 15.0321 8.30726 15.0445 8.35271C15.0891 8.28423 15.1809 8.2731 15.2211 8.27609L15.5373 8.38989V8.1223C15.466 8.13652 15.2918 8.17012 15.1653 8.19067Z" fill="#D74B4B"/>
<path d="M14.1214 9.77539H17.8994L17.7252 9.98771V11.4739V12.8155C17.7252 12.9152 17.66 13.0052 17.5598 13.0436L16.0037 13.6406L14.455 13.0437C14.3551 13.0052 14.29 12.9154 14.29 12.8158V11.4739V9.98771L14.1214 9.77539Z" fill="#485CC2"/>
<path fill-rule="evenodd" clip-rule="evenodd" d="M17.8994 9.77539H14.1214L14.29 9.98771V11.4739V11.7078H17.7252V11.4739V9.98771L17.8994 9.77539Z" fill="#D74B4B"/>
<path d="M15.2389 12.511C15.2389 12.6301 15.1337 12.7267 15.0039 12.7267C14.8742 12.7267 14.769 12.6301 14.769 12.511C14.769 12.3919 14.8742 12.2953 15.0039 12.2953C15.1337 12.2953 15.2389 12.3919 15.2389 12.511Z" fill="#333333"/>
<path fill-rule="evenodd" clip-rule="evenodd" d="M14.9128 10.7787C14.8548 10.4757 15.1749 10.1916 15.3422 10.0874L15.2125 10.3768C15.1906 10.4299 15.1473 10.5757 15.1494 10.7341C15.1515 10.8924 15.2905 11.0318 15.3597 11.0817C15.3773 11.0905 15.4329 11.1116 15.5151 11.1251C15.5973 11.1386 15.6368 11.1597 15.6463 11.1686C15.6726 11.1773 15.7315 11.1894 15.7567 11.1686C15.782 11.1477 15.8181 11.1309 15.8329 11.1251C15.8496 11.1227 15.8866 11.1246 15.9014 11.1517C15.9161 11.1787 15.9934 11.1916 16.0302 11.1946C16.067 11.1916 16.1443 11.1787 16.159 11.1517C16.1737 11.1246 16.2108 11.1227 16.2274 11.1251C16.2423 11.1309 16.2784 11.1477 16.3036 11.1686C16.3289 11.1894 16.3878 11.1773 16.414 11.1686C16.4235 11.1597 16.4631 11.1386 16.5453 11.1251C16.6275 11.1116 16.6831 11.0905 16.7006 11.0817C16.7699 11.0318 16.9089 10.8924 16.911 10.7341C16.9131 10.5757 16.8698 10.4299 16.8479 10.3768L16.7182 10.0874C16.8855 10.1916 17.2056 10.4757 17.1476 10.7787C17.0896 11.0817 16.8148 11.2667 16.6847 11.3213L16.5453 11.3725L16.6847 11.649C16.5602 11.6575 16.3022 11.7278 16.2665 11.9408C16.2308 12.1538 16.2256 12.4597 16.2274 12.586C16.2404 12.6508 16.2944 12.7908 16.4059 12.8317C16.5174 12.8727 16.5081 12.9614 16.4895 13.0007C16.4579 13.0161 16.378 13.0529 16.3111 13.0775C16.2442 13.1021 16.1865 13.1526 16.1661 13.1748C16.1453 13.1812 16.0954 13.1939 16.0617 13.1939H15.9986C15.965 13.1939 15.915 13.1812 15.8943 13.1748C15.8738 13.1526 15.8162 13.1021 15.7493 13.0775C15.6824 13.0529 15.6024 13.0161 15.5708 13.0007C15.5523 12.9614 15.543 12.8727 15.6545 12.8317C15.766 12.7908 15.8199 12.6508 15.8329 12.586C15.8348 12.4597 15.8296 12.1538 15.7939 11.9408C15.7582 11.7278 15.5002 11.6575 15.3757 11.649L15.5151 11.3725L15.3757 11.3213C15.2455 11.2667 14.9708 11.0817 14.9128 10.7787ZM15.5027 12.1484C15.5561 12.1493 15.6658 12.1731 15.6767 12.2609C15.6876 12.3487 15.6812 12.4856 15.6767 12.543C15.6699 12.5743 15.6385 12.6489 15.5675 12.6965C15.5652 12.5911 15.5491 12.3339 15.5027 12.1484ZM16.3643 12.2609C16.3752 12.1731 16.4848 12.1493 16.5383 12.1484C16.4919 12.3339 16.4757 12.5911 16.4735 12.6965C16.4025 12.6489 16.3711 12.5743 16.3643 12.543C16.3597 12.4856 16.3534 12.3487 16.3643 12.2609ZM15.6105 11.9384L15.5391 11.8729L15.4677 11.9384L15.5391 12.004L15.6105 11.9384ZM14.8816 11.2899L15.1921 11.4747L14.8816 11.6689L14.5396 11.4754L14.8816 11.2899ZM17.4812 11.4747L17.1707 11.2899L16.8287 11.4754L17.1707 11.6689L17.4812 11.4747ZM16.5019 11.8729L16.4305 11.9384L16.5019 12.004L16.5733 11.9384L16.5019 11.8729ZM16.8919 12.6745C16.8919 12.7223 16.9037 12.7675 16.9247 12.8079C16.8167 12.7694 16.7401 12.673 16.7401 12.5602C16.7401 12.4134 16.8697 12.2944 17.0296 12.2944C17.1052 12.2944 17.1741 12.3211 17.2257 12.3647C17.041 12.3665 16.8919 12.5045 16.8919 12.6745ZM15.266 12.4127C15.3269 12.4127 15.3763 12.458 15.3763 12.5141C15.3763 12.5699 15.3269 12.6155 15.266 12.6155H15.2612L15.2647 12.6185C15.3078 12.658 15.3078 12.722 15.2647 12.7618C15.2424 12.7823 15.213 12.7923 15.1838 12.7914C15.1663 12.7911 15.1489 12.7869 15.1332 12.779L15.1204 12.7718C15.1163 12.7688 15.1123 12.7654 15.1085 12.7618L15.1054 12.7588L15.1055 12.7627C15.1055 12.8188 15.0561 12.8641 14.9951 12.8641C14.9341 12.8641 14.8847 12.8188 14.8847 12.7627L14.8848 12.7585L14.8816 12.7615C14.8385 12.8013 14.7686 12.8013 14.7255 12.7615C14.7081 12.7455 14.6977 12.7256 14.6944 12.7048C14.6894 12.6743 14.6998 12.642 14.7255 12.6182L14.7287 12.6155H14.7243C14.6633 12.6155 14.6139 12.5699 14.6139 12.5141C14.6139 12.458 14.6633 12.4127 14.7243 12.4127H14.7287L14.7255 12.41C14.6824 12.3704 14.6824 12.3062 14.7255 12.2666C14.7686 12.2271 14.8385 12.2271 14.8816 12.2666L14.8848 12.2697L14.8847 12.2654C14.8847 12.2093 14.9341 12.1641 14.9951 12.1641C15.0561 12.1641 15.1055 12.2093 15.1055 12.2654L15.1055 12.2697L15.1086 12.2666C15.1517 12.2271 15.2215 12.2271 15.2647 12.2666C15.3078 12.3062 15.3078 12.3704 15.2647 12.41L15.2615 12.4127H15.266ZM16.0913 10.3002L16.023 10.0874L15.9547 10.3002L15.7425 10.1941L15.8581 10.3889L15.6263 10.4517L15.8581 10.5144L15.7425 10.7092L15.9547 10.6031L16.023 10.8159L16.0913 10.6031L16.3035 10.7092L16.1879 10.5144L16.4197 10.4517L16.1879 10.3889L16.3035 10.1941L16.0913 10.3002Z" fill="#F8D74C"/>
<path fill-rule="evenodd" clip-rule="evenodd" d="M13.9566 14.0387C13.9567 14.0387 13.9563 14.0381 13.9558 14.037L14.0799 13.9891C14.0771 13.983 14.0721 13.975 14.0689 13.97C14.0646 13.9632 14.0587 13.9541 14.0515 13.9432C14.0371 13.9213 14.0169 13.8911 13.9917 13.8537C13.9413 13.7788 13.8706 13.6749 13.7866 13.5518C13.6186 13.3057 13.3969 12.9824 13.176 12.6609C12.9551 12.3394 12.7349 12.0195 12.57 11.78L12.2957 11.3819L12.2385 11.4145L12.1816 11.4476L12.4562 11.8461C12.6211 12.0855 12.8412 12.4054 13.0621 12.7269C13.283 13.0484 13.5047 13.3715 13.6726 13.6175C13.7565 13.7405 13.827 13.8442 13.8772 13.9187C13.9023 13.956 13.9223 13.9858 13.9363 14.0071C13.9433 14.0178 13.9487 14.0261 13.9524 14.032C13.9555 14.0369 13.9566 14.0388 13.9566 14.0387ZM14.4693 14.7884L14.5848 14.7249L14.5762 14.7118L14.5535 14.6772C14.5345 14.6484 14.509 14.6098 14.4826 14.5704C14.4563 14.531 14.4289 14.4906 14.4063 14.4583C14.3951 14.4422 14.3848 14.4278 14.3763 14.4164C14.3693 14.407 14.3598 14.3946 14.3514 14.3868L14.2557 14.4738C14.2547 14.4724 14.255 14.473 14.2557 14.4738C14.2571 14.4754 14.2604 14.4798 14.2653 14.4863C14.2727 14.4962 14.2821 14.5094 14.293 14.5251C14.3149 14.5563 14.3417 14.5959 14.3679 14.6351C14.3941 14.6742 14.4194 14.7125 14.4383 14.7411L14.4609 14.7755L14.4693 14.7884Z" fill="#962122"/>
<path fill-rule="evenodd" clip-rule="evenodd" d="M17.9957 14.0055L18.1301 13.8493L18.1493 13.6636L18.3445 13.5424L18.781 12.9587L19.3574 12.0616L19.2793 11.9856L19.3797 11.8463L19.411 11.5432L19.6773 11.5664L19.9592 11.3345L19.8587 11.6696L20 11.8781L19.7185 12.0389L19.6273 12.1835L19.5184 12.1532L18.9006 13.0267L18.5261 13.6456L18.4949 13.8601L18.3224 13.9587L18.23 14.1387L18.1032 14.0667L18.1056 14.0631L17.9957 14.0055Z" fill="#962122"/>
<path fill-rule="evenodd" clip-rule="evenodd" d="M13.7536 13.0138C13.799 13.115 13.8497 13.3424 13.6898 13.4426C13.6285 13.3509 13.5556 13.1367 13.7536 13.0138ZM13.9404 13.2133C13.9319 13.3048 13.8812 13.4941 13.7465 13.519C13.7418 13.4296 13.774 13.2432 13.9404 13.2133ZM13.1267 13.3551C13.26 13.345 13.543 13.3654 13.6083 13.5274C13.4808 13.5534 13.2061 13.5553 13.1267 13.3551ZM13.1476 13.5487C13.2597 13.5277 13.5023 13.5174 13.5756 13.645C13.4703 13.6787 13.2372 13.7066 13.1476 13.5487Z" fill="#377649"/>
<path fill-rule="evenodd" clip-rule="evenodd" d="M13.2336 12.2782C13.279 12.3793 13.3297 12.6067 13.1698 12.7069C13.1086 12.6152 13.0356 12.401 13.2336 12.2782ZM13.4204 12.4776C13.4119 12.5692 13.3612 12.7585 13.2265 12.7834C13.2218 12.6939 13.254 12.5075 13.4204 12.4776ZM12.6067 12.6194C12.7401 12.6094 13.023 12.6298 13.0883 12.7917C12.9609 12.8177 12.6861 12.8196 12.6067 12.6194ZM12.6277 12.8131C12.7398 12.792 12.9823 12.7818 13.0556 12.9093C12.9503 12.943 12.7172 12.9709 12.6277 12.8131Z" fill="#377649"/>
<path fill-rule="evenodd" clip-rule="evenodd" d="M12.7297 11.64C12.765 11.7189 12.8046 11.8963 12.6799 11.9745C12.6321 11.9029 12.5751 11.7358 12.7297 11.64ZM12.8754 11.7956C12.8687 11.867 12.8292 12.0147 12.7241 12.0341C12.7204 11.9643 12.7455 11.8189 12.8754 11.7956ZM12.2405 11.9062C12.3446 11.8984 12.5653 11.9143 12.6163 12.0406C12.5168 12.0609 12.3025 12.0624 12.2405 11.9062ZM12.2569 12.0573C12.3443 12.0409 12.5335 12.0329 12.5908 12.1324C12.5086 12.1587 12.3267 12.1805 12.2569 12.0573Z" fill="#377649"/>
<path fill-rule="evenodd" clip-rule="evenodd" d="M12.1453 11.1934C12.2029 11.2306 12.3068 11.3293 12.2617 11.4258C12.1994 11.3979 12.089 11.3123 12.1453 11.1934ZM12.3706 11.2115C12.3974 11.2713 12.4274 11.4058 12.3329 11.465C12.2967 11.4108 12.2535 11.2842 12.3706 11.2115ZM12.481 11.3296C12.476 11.3837 12.4461 11.4956 12.3664 11.5103C12.3636 11.4574 12.3827 11.3472 12.481 11.3296ZM12 11.4135C12.0788 11.4076 12.2461 11.4196 12.2847 11.5154C12.2094 11.5307 12.0469 11.5319 12 11.4135ZM12.0124 11.5281C12.0786 11.5156 12.222 11.5096 12.2654 11.585C12.2031 11.6049 12.0653 11.6214 12.0124 11.5281Z" fill="#377649"/>
</g>
<defs>
<clipPath id="clip0_440_1454">
<rect width="32" height="24" rx="2" fill="white"/>
</clipPath>
</defs>
</svg>
