<svg width="24" height="24" viewBox="0 0 24 24" fill="none" xmlns="http://www.w3.org/2000/svg">
<g clip-path="url(#clip0_440_1453)">
<rect width="24" height="24" rx="2" fill="#F8D74C"/>
<path d="M0 24L-1.04907e-06 0L8 -3.49691e-07L8 24L0 24Z" fill="#485CC2"/>
<path d="M16 24L16 0L24 -3.49691e-07L24 24L16 24Z" fill="#D74B4B"/>
<path d="M13.4878 14.7042L13.6221 14.548L13.6413 14.3623L13.8366 14.2411L13.9216 14.0957L13.6734 14.4582L13.5953 14.3822L13.6957 14.2428L13.7849 14.1506L13.9434 14.0957L13.9668 14.2323L13.9528 14.1506L14.0263 14.261L14.0345 14.4355L13.9434 14.5801L13.8344 14.5498L14.0345 14.1776L14.0182 14.3443L13.987 14.5588L13.8145 14.6574L13.7221 14.8375L13.5953 14.7654L13.5977 14.7618L13.4878 14.7042Z" fill="#962122"/>
<path d="M10.2686 13.9652L10.6753 13.3774C10.6898 13.3565 10.7164 13.3455 10.743 13.3495L10.9489 13.3804C10.9994 13.388 11.0226 13.4424 10.9912 13.4794L10.4423 14.1257C10.4364 14.1326 10.4322 14.1406 10.4299 14.1491L10.3787 14.3431C10.3758 14.3541 10.3697 14.3642 10.3609 14.3722L10.1548 14.5614C10.129 14.5851 10.0874 14.5856 10.0609 14.5626L9.84232 14.3725C9.8329 14.3643 9.82626 14.3538 9.8232 14.3422L9.78076 14.1815C9.77368 14.1547 9.78681 14.1268 9.81295 14.1132L10.0266 14.0019C10.0367 13.9966 10.0481 13.9938 10.0598 13.9938H10.2118C10.2348 13.9938 10.2562 13.983 10.2686 13.9652Z" fill="#D74B4B"/>
<path d="M13.7435 13.9652L13.3368 13.3774C13.3223 13.3565 13.2957 13.3455 13.2691 13.3495L13.0632 13.3804C13.0127 13.388 12.9895 13.4424 13.021 13.4794L13.5699 14.1257C13.5757 14.1326 13.5799 14.1406 13.5822 14.1491L13.6334 14.3431C13.6363 14.3541 13.6425 14.3642 13.6512 14.3722L13.8573 14.5614C13.8831 14.5851 13.9247 14.5856 13.9512 14.5626L14.1698 14.3725C14.1792 14.3643 14.1859 14.3538 14.1889 14.3422L14.2314 14.1815C14.2384 14.1547 14.2253 14.1268 14.1992 14.1132L13.9856 14.0019C13.9754 13.9966 13.964 13.9938 13.9523 13.9938H13.8004C13.7773 13.9938 13.7559 13.983 13.7435 13.9652Z" fill="#D74B4B"/>
<path fill-rule="evenodd" clip-rule="evenodd" d="M9.02682 9.4129L9.64853 8.64395C9.67284 8.61389 9.72045 8.61042 9.74962 8.63659L10.2857 9.11756C10.2986 9.12918 10.3059 9.14512 10.3059 9.16176V9.47842C10.3059 9.50281 10.3216 9.52492 10.3458 9.53485L11.1536 9.86574C11.1852 9.87868 11.2223 9.86754 11.2394 9.83997L11.5895 9.27758C11.5953 9.26824 11.5983 9.25768 11.5983 9.24692V8.77922C11.5983 8.76244 11.5909 8.74638 11.5777 8.73474L11.2092 8.40846L11.5632 8.47797L11.5553 8.42293C11.5521 8.40034 11.5356 8.38122 11.5124 8.37317L11.2092 8.26809L11.5149 8.12769L11.6555 8.04156C11.6998 8.01446 11.7518 8 11.805 8H11.9924C12.1623 8 12.3259 8.05901 12.4504 8.16519L12.4851 8.19475C12.5399 8.24152 12.5711 8.30714 12.5711 8.37587V8.90551C12.5711 8.91416 12.5691 8.9227 12.5653 8.9306L12.4174 9.23641C12.4091 9.25344 12.4097 9.27298 12.4189 9.28958L12.7391 9.86583L12.8369 9.87796L13.6751 9.53464C13.6993 9.52471 13.7149 9.5026 13.7149 9.47821V9.16154C13.7149 9.14491 13.7222 9.12897 13.7352 9.11734L14.2713 8.63637C14.3004 8.61021 14.348 8.61367 14.3723 8.64374L14.9941 9.41269C15.0027 9.42334 15.0073 9.43625 15.0073 9.44952V14.6601L13.7423 12.8116C13.7261 12.788 13.6948 12.7773 13.6658 12.7853L13.2065 12.9128C13.1626 12.925 13.1445 12.9731 13.1709 13.0075L13.4787 13.4097H13.298V13.5883L13.1174 13.4097V13.7286L12.8318 13.4306C12.819 13.4173 12.8006 13.4097 12.7812 13.4097H12.4235C12.3697 13.4097 12.3376 13.4648 12.3676 13.5058L13.437 14.973C13.4593 15.0035 13.4478 15.045 13.4124 15.062L12.9802 15.2704C12.9482 15.2858 12.9086 15.2752 12.8905 15.2464L12.1724 14.0987L12.7903 15.3691C12.8029 15.3948 12.7948 15.4251 12.7707 15.4427L12.0152 15.9928V16L12.0103 15.9964L12.0056 15.9998V15.993L11.2502 15.4429C11.2261 15.4253 11.218 15.395 11.2305 15.3693L11.8485 14.0989L11.1303 15.2467C11.1123 15.2755 11.0727 15.286 11.0407 15.2706L10.6085 15.0623C10.5731 15.0452 10.5616 15.0037 10.5838 14.9732L11.6533 13.506C11.6832 13.465 11.6512 13.4099 11.5974 13.4099H11.2396C11.2203 13.4099 11.2019 13.4175 11.1891 13.4308L10.9035 13.7289V13.4099L10.7228 13.5885V13.4099H10.5422L10.85 13.0077C10.8763 12.9733 10.8583 12.9252 10.8144 12.913L10.3551 12.7856C10.3261 12.7775 10.2948 12.7883 10.2786 12.8118L9.01356 14.6603V9.44973C9.01356 9.43647 9.01821 9.42355 9.02682 9.4129Z" fill="#E77D42"/>
<path d="M11.5475 8.47353L11.1978 8.40836L11.4318 8.60389L11.5475 8.47353Z" fill="#D74B4B"/>
<path d="M11.1653 8.19067C11.0389 8.21122 11.0321 8.30726 11.0445 8.35271C11.0891 8.28423 11.1809 8.2731 11.2211 8.27609L11.5373 8.38989V8.1223C11.466 8.13652 11.2918 8.17012 11.1653 8.19067Z" fill="#D74B4B"/>
<path d="M10.1214 9.77539H13.8994L13.7252 9.98771V11.4739V12.8155C13.7252 12.9152 13.66 13.0052 13.5598 13.0436L12.0037 13.6406L10.455 13.0437C10.3551 13.0052 10.29 12.9154 10.29 12.8158V11.4739V9.98771L10.1214 9.77539Z" fill="#485CC2"/>
<path fill-rule="evenodd" clip-rule="evenodd" d="M13.8994 9.77539H10.1214L10.29 9.98771V11.4739V11.7078H13.7252V11.4739V9.98771L13.8994 9.77539Z" fill="#D74B4B"/>
<path d="M11.2389 12.511C11.2389 12.6301 11.1337 12.7267 11.0039 12.7267C10.8742 12.7267 10.769 12.6301 10.769 12.511C10.769 12.3919 10.8742 12.2953 11.0039 12.2953C11.1337 12.2953 11.2389 12.3919 11.2389 12.511Z" fill="#333333"/>
<path fill-rule="evenodd" clip-rule="evenodd" d="M10.9128 10.7787C10.8548 10.4757 11.1749 10.1916 11.3422 10.0874L11.2125 10.3768C11.1906 10.4299 11.1473 10.5757 11.1494 10.7341C11.1515 10.8924 11.2905 11.0318 11.3597 11.0817C11.3773 11.0905 11.4329 11.1116 11.5151 11.1251C11.5973 11.1386 11.6368 11.1597 11.6463 11.1686C11.6726 11.1773 11.7315 11.1894 11.7567 11.1686C11.782 11.1477 11.8181 11.1309 11.8329 11.1251C11.8496 11.1227 11.8866 11.1246 11.9013 11.1517C11.9161 11.1787 11.9934 11.1916 12.0302 11.1946C12.067 11.1916 12.1443 11.1787 12.159 11.1517C12.1737 11.1246 12.2108 11.1227 12.2274 11.1251C12.2423 11.1309 12.2784 11.1477 12.3036 11.1686C12.3289 11.1894 12.3878 11.1773 12.414 11.1686C12.4235 11.1597 12.4631 11.1386 12.5453 11.1251C12.6275 11.1116 12.6831 11.0905 12.7006 11.0817C12.7699 11.0318 12.9089 10.8924 12.911 10.7341C12.9131 10.5757 12.8698 10.4299 12.8479 10.3768L12.7182 10.0874C12.8855 10.1916 13.2056 10.4757 13.1476 10.7787C13.0896 11.0817 12.8148 11.2667 12.6847 11.3213L12.5453 11.3725L12.6847 11.649C12.5602 11.6575 12.3022 11.7278 12.2665 11.9408C12.2308 12.1538 12.2256 12.4597 12.2274 12.586C12.2404 12.6508 12.2943 12.7908 12.4059 12.8317C12.5174 12.8727 12.5081 12.9614 12.4895 13.0007C12.4579 13.0161 12.378 13.0529 12.3111 13.0775C12.2442 13.1021 12.1865 13.1526 12.1661 13.1748C12.1453 13.1812 12.0954 13.1939 12.0617 13.1939H11.9986C11.965 13.1939 11.915 13.1812 11.8943 13.1748C11.8738 13.1526 11.8162 13.1021 11.7493 13.0775C11.6824 13.0529 11.6024 13.0161 11.5708 13.0007C11.5522 12.9614 11.543 12.8727 11.6545 12.8317C11.766 12.7908 11.8199 12.6508 11.8329 12.586C11.8348 12.4597 11.8296 12.1538 11.7939 11.9408C11.7582 11.7278 11.5002 11.6575 11.3757 11.649L11.5151 11.3725L11.3757 11.3213C11.2455 11.2667 10.9708 11.0817 10.9128 10.7787ZM11.5027 12.1484C11.5561 12.1493 11.6658 12.1731 11.6767 12.2609C11.6876 12.3487 11.6812 12.4856 11.6767 12.543C11.6699 12.5743 11.6384 12.6489 11.5675 12.6965C11.5652 12.5911 11.5491 12.3339 11.5027 12.1484ZM12.3643 12.2609C12.3752 12.1731 12.4848 12.1493 12.5383 12.1484C12.4919 12.3339 12.4757 12.5911 12.4735 12.6965C12.4025 12.6489 12.3711 12.5743 12.3643 12.543C12.3597 12.4856 12.3534 12.3487 12.3643 12.2609ZM11.6105 11.9384L11.5391 11.8729L11.4677 11.9384L11.5391 12.004L11.6105 11.9384ZM10.8816 11.2899L11.1921 11.4747L10.8816 11.6689L10.5396 11.4754L10.8816 11.2899ZM13.4812 11.4747L13.1707 11.2899L12.8287 11.4754L13.1707 11.6689L13.4812 11.4747ZM12.5019 11.8729L12.4305 11.9384L12.5019 12.004L12.5733 11.9384L12.5019 11.8729ZM12.8919 12.6745C12.8919 12.7223 12.9037 12.7675 12.9247 12.8079C12.8167 12.7694 12.7401 12.673 12.7401 12.5602C12.7401 12.4134 12.8697 12.2944 13.0296 12.2944C13.1052 12.2944 13.1741 12.3211 13.2257 12.3647C13.041 12.3665 12.8919 12.5045 12.8919 12.6745ZM11.266 12.4127C11.3269 12.4127 11.3763 12.458 11.3763 12.5141C11.3763 12.5699 11.3269 12.6155 11.266 12.6155H11.2612L11.2647 12.6185C11.3078 12.658 11.3078 12.722 11.2647 12.7618C11.2424 12.7823 11.213 12.7923 11.1838 12.7914C11.1663 12.7911 11.1489 12.7869 11.1332 12.779L11.1204 12.7718C11.1163 12.7688 11.1123 12.7654 11.1085 12.7618L11.1054 12.7588L11.1055 12.7627C11.1055 12.8188 11.0561 12.8641 10.9951 12.8641C10.9341 12.8641 10.8847 12.8188 10.8847 12.7627L10.8848 12.7585L10.8816 12.7615C10.8385 12.8013 10.7686 12.8013 10.7255 12.7615C10.7081 12.7455 10.6977 12.7256 10.6944 12.7048C10.6894 12.6743 10.6998 12.642 10.7255 12.6182L10.7287 12.6155H10.7243C10.6633 12.6155 10.6139 12.5699 10.6139 12.5141C10.6139 12.458 10.6633 12.4127 10.7243 12.4127H10.7287L10.7255 12.41C10.6824 12.3704 10.6824 12.3062 10.7255 12.2666C10.7686 12.2271 10.8385 12.2271 10.8816 12.2666L10.8848 12.2697L10.8847 12.2654C10.8847 12.2093 10.9341 12.1641 10.9951 12.1641C11.0561 12.1641 11.1055 12.2093 11.1055 12.2654L11.1054 12.2697L11.1086 12.2666C11.1517 12.2271 11.2215 12.2271 11.2647 12.2666C11.3078 12.3062 11.3078 12.3704 11.2647 12.41L11.2615 12.4127H11.266ZM12.0913 10.3002L12.023 10.0874L11.9547 10.3002L11.7425 10.1941L11.8581 10.3889L11.6263 10.4517L11.8581 10.5144L11.7425 10.7092L11.9547 10.6031L12.023 10.8159L12.0913 10.6031L12.3035 10.7092L12.1879 10.5144L12.4197 10.4517L12.1879 10.3889L12.3035 10.1941L12.0913 10.3002Z" fill="#F8D74C"/>
<path fill-rule="evenodd" clip-rule="evenodd" d="M9.95663 14.0387C9.95665 14.0387 9.95631 14.0381 9.95583 14.037L10.0799 13.9891C10.0771 13.983 10.0721 13.975 10.0689 13.97C10.0646 13.9632 10.0587 13.9541 10.0515 13.9432C10.0371 13.9213 10.0169 13.8911 9.99168 13.8537C9.94125 13.7788 9.87062 13.6749 9.78662 13.5518C9.61861 13.3057 9.3969 12.9824 9.17598 12.6609C8.95506 12.3394 8.73489 12.0195 8.56997 11.78L8.29565 11.3819L8.23846 11.4145L8.18161 11.4476L8.45619 11.8461C8.6211 12.0855 8.84124 12.4054 9.06213 12.7269C9.28303 13.0484 9.50465 13.3715 9.67255 13.6175C9.75651 13.7405 9.82698 13.8442 9.87719 13.9187C9.90232 13.956 9.92227 13.9858 9.93628 14.0071C9.9433 14.0178 9.94869 14.0261 9.95243 14.032C9.95554 14.0369 9.9566 14.0388 9.95663 14.0387ZM10.4693 14.7884L10.5848 14.7249L10.5762 14.7118L10.5535 14.6772C10.5345 14.6484 10.509 14.6098 10.4826 14.5704C10.4563 14.531 10.4289 14.4906 10.4063 14.4583C10.3951 14.4422 10.3848 14.4278 10.3763 14.4164C10.3693 14.407 10.3598 14.3946 10.3514 14.3868L10.2557 14.4738C10.2547 14.4724 10.255 14.473 10.2557 14.4738C10.2571 14.4754 10.2604 14.4798 10.2653 14.4863C10.2727 14.4962 10.2821 14.5094 10.293 14.5251C10.3149 14.5563 10.3417 14.5959 10.3679 14.6351C10.3941 14.6742 10.4194 14.7125 10.4383 14.7411L10.4609 14.7755L10.4693 14.7884Z" fill="#962122"/>
<path fill-rule="evenodd" clip-rule="evenodd" d="M13.9957 14.0055L14.13 13.8493L14.1492 13.6636L14.3445 13.5424L14.781 12.9587L15.3574 12.0616L15.2793 11.9856L15.3797 11.8463L15.411 11.5432L15.6773 11.5664L15.9592 11.3345L15.8587 11.6696L16 11.8781L15.7185 12.0389L15.6273 12.1835L15.5184 12.1532L14.9006 13.0267L14.5261 13.6456L14.4949 13.8601L14.3224 13.9587L14.23 14.1387L14.1032 14.0667L14.1056 14.0631L13.9957 14.0055Z" fill="#962122"/>
<path fill-rule="evenodd" clip-rule="evenodd" d="M9.75361 13.0138C9.79897 13.115 9.8497 13.3424 9.68979 13.4426C9.62854 13.3509 9.55556 13.1367 9.75361 13.0138ZM9.94037 13.2133C9.93187 13.3048 9.88118 13.4941 9.74646 13.519C9.74177 13.4296 9.77397 13.2432 9.94037 13.2133ZM9.1267 13.3551C9.26002 13.345 9.54301 13.3654 9.60829 13.5274C9.48083 13.5534 9.20607 13.5553 9.1267 13.3551ZM9.14764 13.5487C9.25973 13.5277 9.50226 13.5174 9.5756 13.645C9.47026 13.6787 9.23718 13.7066 9.14764 13.5487Z" fill="#377649"/>
<path fill-rule="evenodd" clip-rule="evenodd" d="M9.23365 12.2782C9.279 12.3793 9.32973 12.6067 9.16983 12.7069C9.10858 12.6152 9.0356 12.401 9.23365 12.2782ZM9.42041 12.4776C9.4119 12.5692 9.36121 12.7585 9.2265 12.7834C9.2218 12.6939 9.25401 12.5075 9.42041 12.4776ZM8.60673 12.6194C8.74006 12.6094 9.02304 12.6298 9.08833 12.7917C8.96087 12.8177 8.68611 12.8196 8.60673 12.6194ZM8.62767 12.8131C8.73977 12.792 8.98229 12.7818 9.05564 12.9093C8.95029 12.943 8.71722 12.9709 8.62767 12.8131Z" fill="#377649"/>
<path fill-rule="evenodd" clip-rule="evenodd" d="M8.72966 11.64C8.76504 11.7189 8.80462 11.8963 8.67986 11.9745C8.63208 11.9029 8.57513 11.7358 8.72966 11.64ZM8.87537 11.7956C8.86873 11.867 8.82918 12.0147 8.72408 12.0341C8.72041 11.9643 8.74554 11.8189 8.87537 11.7956ZM8.24053 11.9062C8.34456 11.8984 8.56534 11.9143 8.61627 12.0406C8.51683 12.0609 8.30246 12.0624 8.24053 11.9062ZM8.25687 12.0573C8.34433 12.0409 8.53355 12.0329 8.59077 12.1324C8.50858 12.1587 8.32673 12.1805 8.25687 12.0573Z" fill="#377649"/>
<path fill-rule="evenodd" clip-rule="evenodd" d="M8.14531 11.1934C8.2029 11.2306 8.3068 11.3293 8.26167 11.4258C8.19941 11.3979 8.08898 11.3123 8.14531 11.1934ZM8.37063 11.2115C8.39744 11.2713 8.42743 11.4058 8.3329 11.465C8.29669 11.4108 8.25354 11.2842 8.37063 11.2115ZM8.48105 11.3296C8.47602 11.3837 8.44605 11.4956 8.36641 11.5103C8.36363 11.4574 8.38267 11.3472 8.48105 11.3296ZM8 11.4135C8.07882 11.4076 8.24612 11.4196 8.28472 11.5154C8.20936 11.5307 8.04693 11.5319 8 11.4135ZM8.01237 11.5281C8.07864 11.5156 8.22202 11.5096 8.26538 11.585C8.20311 11.6049 8.06531 11.6214 8.01237 11.5281Z" fill="#377649"/>
</g>
<defs>
<clipPath id="clip0_440_1453">
<rect width="24" height="24" rx="2" fill="white"/>
</clipPath>
</defs>
</svg>
