<svg width="32" height="24" viewBox="0 0 32 24" fill="none" xmlns="http://www.w3.org/2000/svg">
<g clip-path="url(#clip0_440_1482)">
<rect width="32" height="24" rx="2" fill="#D74B4B"/>
<path fill-rule="evenodd" clip-rule="evenodd" d="M30 1H2C1.44771 1 1 1.44772 1 2V22C1 22.5523 1.44772 23 2 23H30C30.5523 23 31 22.5523 31 22V2C31 1.44772 30.5523 1 30 1ZM2 0C0.895431 0 0 0.89543 0 2V22C0 23.1046 0.895431 24 2 24H30C31.1046 24 32 23.1046 32 22V2C32 0.895431 31.1046 0 30 0H2Z" fill="#F8D74C"/>
<path d="M22.1338 16.5416C21.999 17.1366 21.4001 17.5114 20.796 17.3786C20.1919 17.2458 19.8115 16.6558 19.9463 16.0608C20.0811 15.4658 20.68 15.091 21.2841 15.2238C21.8881 15.3566 22.2686 15.9466 22.1338 16.5416Z" fill="#485CC2"/>
<path fill-rule="evenodd" clip-rule="evenodd" d="M15.8104 4.8762C15.5513 4.85435 15.1961 4.86706 14.87 4.97082C14.4996 5.08871 14.1415 5.33458 14.0412 5.80195C13.9437 6.25585 14.1112 6.58778 14.3605 6.80728C14.5078 6.93705 14.6823 7.02696 14.8448 7.08519V7.37592C14.8448 7.43302 14.8918 7.47931 14.9498 7.47931H16.9859C17.0439 7.47931 17.0909 7.43302 17.0909 7.37592V7.05314C17.2284 6.99566 17.3695 6.91534 17.492 6.80751C17.7412 6.58801 17.9087 6.25608 17.8113 5.80219C17.7109 5.33482 17.3528 5.08895 16.9824 4.97106C16.69 4.87802 16.3743 4.85819 16.1253 4.87083V4.53305H16.5373V4.2229H16.1253V4H15.8104V4.2229H15.4814V4.53305H15.8104V4.8762ZM14.9498 6.68506C14.9045 6.68506 14.8659 6.71332 14.8512 6.75291C14.7526 6.70856 14.6544 6.6501 14.5703 6.57605C14.395 6.42165 14.2778 6.19883 14.3492 5.86614C14.4178 5.54694 14.658 5.36423 14.9668 5.26595C15.0867 5.2278 15.2131 5.20395 15.3364 5.19072C15.283 5.23058 15.2301 5.27306 15.1795 5.31781C14.9734 5.50004 14.7673 5.75243 14.7673 6.04211C14.7673 6.29214 14.9019 6.51318 15.0573 6.68506H14.9498ZM15.8104 6.68506H15.5184C15.4576 6.63817 15.3963 6.58552 15.3395 6.52841C15.1815 6.36949 15.0821 6.20047 15.0821 6.04211C15.0821 5.89306 15.196 5.71999 15.3898 5.54863C15.5237 5.43021 15.6784 5.32811 15.8104 5.25374V6.68506ZM16.1253 6.68506H16.3343C16.3951 6.63823 16.4562 6.58566 16.5129 6.52864C16.6709 6.36973 16.7703 6.2007 16.7703 6.04234C16.7703 5.8933 16.6565 5.72022 16.4626 5.54887C16.356 5.45462 16.2363 5.37071 16.1253 5.30289V6.68506ZM16.9859 6.68506H16.7953C16.9506 6.51322 17.0852 6.29226 17.0852 6.04234C17.0852 5.75266 16.8791 5.50028 16.6729 5.31805C16.6223 5.2733 16.5695 5.23081 16.516 5.19096C16.6393 5.20419 16.7657 5.22804 16.8856 5.26619C17.1944 5.36447 17.4347 5.54718 17.5032 5.86638C17.5747 6.19906 17.4574 6.42189 17.2821 6.57629C17.2165 6.63403 17.1424 6.6823 17.0662 6.72178C17.0469 6.69932 17.0181 6.68506 16.9859 6.68506ZM12.5872 8.01501L12.6941 7.80423C12.8008 7.59403 13.0189 7.46123 13.2574 7.46123H13.3739L13.4424 7.39383C13.5605 7.27761 13.7206 7.21232 13.8875 7.21232H14.102C14.3293 7.21232 14.5389 7.33291 14.6505 7.52785L15.7062 9.37125V10.2847L15.9028 15.8758V20L13.6268 18.0071L15.2004 15.433L12.8682 16.8169H12.4467L11.6369 17.5467L11.9498 18.2823L11.5626 18.4421L11.3079 17.8433L11.1261 18.0071L10.4517 16.6508L10.7849 16.6138L8.96013 12.3239L9.34733 12.1641L11.2195 16.5654L12.1938 16.4571V15.8758L13.9078 14.7133L12.8868 14.5635C11.8449 14.4106 10.8994 13.8775 10.2379 13.07L10.2024 13.0265C9.60003 12.2911 9.27153 11.3747 9.27153 10.4298V9.60587C9.27153 8.71664 9.56252 7.85109 10.1013 7.13762L10.9856 5.96672L12.9966 10.2886C13.0893 10.4878 13.0534 10.7222 12.9053 10.8856C12.6688 11.1466 12.7355 11.5557 13.0431 11.7305L13.9078 12.2219L14.6665 10.2847L14.245 8.87278L13.0282 8.54771C12.9206 8.51898 12.9267 8.36673 13.0362 8.34635L13.6268 8.2364L12.5872 8.01501ZM19.1116 7.80423L19.2185 8.01501L18.1789 8.2364L18.7695 8.34635C18.879 8.36673 18.8851 8.51898 18.7775 8.54771L17.5607 8.87278L17.1392 10.2847L17.8979 12.2219L18.7626 11.7305C19.0702 11.5557 19.137 11.1466 18.9004 10.8856C18.7523 10.7222 18.7164 10.4878 18.8091 10.2886L20.8202 5.96672L21.7044 7.13762C22.2432 7.85109 22.5342 8.71664 22.5342 9.60587V10.4298C22.5342 11.3747 22.2057 12.2911 21.6034 13.0265L21.5678 13.07C20.9063 13.8775 19.9608 14.4106 18.9189 14.5635L17.8979 14.7133L19.6119 15.8758V16.4571L21.354 16.6508L20.6797 18.0071L19.359 16.8169H18.9375L16.6053 15.433L18.1789 18.0071L15.9028 20V15.8758L16.0996 10.2847V9.37125L17.1552 7.52785C17.2669 7.33291 17.4765 7.21232 17.7037 7.21232H17.9182C18.0851 7.21232 18.2452 7.27761 18.3633 7.39383L18.4318 7.46123H18.5483C18.7868 7.46123 19.0049 7.59403 19.1116 7.80423Z" fill="#F8D74C"/>
<path d="M13.4697 14.7016C13.3944 14.6496 13.3526 14.5624 13.3598 14.4721L13.5895 11.5815C13.5927 11.5417 13.5863 11.5017 13.5709 11.4647L13.4162 11.092C13.3753 10.9936 13.4004 10.8806 13.4793 10.8081L14.0936 10.2433C14.1417 10.199 14.205 10.1744 14.2708 10.1744H17.7293C17.7951 10.1744 17.8584 10.199 17.9065 10.2433L18.5208 10.8081C18.5997 10.8806 18.6248 10.9936 18.5839 11.092L18.4291 11.4647C18.4138 11.5017 18.4074 11.5417 18.4106 11.5815L18.6403 14.4721C18.6474 14.5624 18.6057 14.6496 18.5304 14.7016L16.3615 16.1993C16.1445 16.3492 15.8555 16.3492 15.6386 16.1993L13.4697 14.7016Z" fill="#485CC2"/>
<path fill-rule="evenodd" clip-rule="evenodd" d="M13.2552 14.464L13.4849 11.5735C13.4868 11.5497 13.483 11.5259 13.4738 11.5038L13.319 11.1312C13.2616 10.993 13.2969 10.8343 13.4077 10.7325L14.0219 10.1677C14.0895 10.1056 14.1784 10.0711 14.2708 10.0711H17.7293C17.8217 10.0711 17.9106 10.1056 17.9782 10.1677L18.5924 10.7325C18.7032 10.8343 18.7385 10.993 18.6811 11.1312L18.5263 11.5038C18.5171 11.5259 18.5133 11.5497 18.5152 11.5735L18.7449 14.464C18.755 14.5908 18.6963 14.7133 18.5906 14.7863L16.4217 16.284C16.1686 16.4588 15.8315 16.4588 15.5783 16.284L13.4094 14.7863C13.3038 14.7133 13.2451 14.5908 13.2552 14.464ZM13.3598 14.4721C13.3526 14.5624 13.3944 14.6496 13.4697 14.7016L15.6386 16.1993C15.8555 16.3492 16.1445 16.3492 16.3615 16.1993L18.5304 14.7016C18.6057 14.6496 18.6474 14.5624 18.6403 14.4721L18.4106 11.5815C18.4074 11.5417 18.4138 11.5017 18.4291 11.4647L18.5839 11.092C18.6248 10.9936 18.5997 10.8806 18.5208 10.8081L17.9065 10.2433C17.8584 10.199 17.7951 10.1744 17.7293 10.1744H14.2708C14.205 10.1744 14.1417 10.199 14.0936 10.2433L13.4793 10.8081C13.4004 10.8806 13.3753 10.9936 13.4162 11.092L13.5709 11.4647C13.5863 11.5017 13.5927 11.5417 13.5895 11.5815L13.3598 14.4721Z" fill="#D74B4B"/>
<path fill-rule="evenodd" clip-rule="evenodd" d="M13.3598 14.4721C13.3526 14.5624 13.3944 14.6496 13.4697 14.7016L15.6386 16.1993C15.8555 16.3492 16.1445 16.3492 16.3615 16.1993L18.5304 14.7016C18.6057 14.6496 18.6474 14.5624 18.6403 14.4721L18.6303 14.3463H13.3699L13.3598 14.4721Z" fill="#3FB47C"/>
<path fill-rule="evenodd" clip-rule="evenodd" d="M15.6676 10.894C15.5439 10.9641 15.4963 11.0845 15.4849 11.15C15.0763 11.1548 14.7466 11.4826 14.7466 11.8862H15.1074V12.3367L15.164 12.4937L14.9992 12.631H14.8572L14.4825 11.6537L14.2519 11.7395L14.6591 12.8015V12.8738H15.6038V13.3646H15.3271V13.6075H15.8501L15.8504 13.1073L16.0949 12.8743H16.8195V13.3646H16.5409V13.6075H17.0639V13.3894H17.066V13.1318L17.3362 12.8743L17.5109 12.2124L17.3364 11.8804H17.3377C17.3377 11.8524 17.3493 11.8085 17.3667 11.7629C17.3748 11.742 17.3828 11.7236 17.3889 11.7106L17.396 11.6957L17.3978 11.6922L17.4871 11.52H16.2189V11.4166H17.502V11.1808H15.9796V11.7557H17.1175C17.1068 11.7946 17.0984 11.8381 17.0983 11.88H15.8527V11.1674H15.8578C15.8578 11.0256 15.731 10.926 15.6676 10.894Z" fill="#F8D74C"/>
<path d="M15.7862 4.90951C15.7862 4.84956 15.8355 4.80097 15.8964 4.80097H16.0643C16.1252 4.80097 16.1745 4.84956 16.1745 4.90951C16.1745 4.96945 16.1252 5.01804 16.0643 5.01804H15.8964C15.8355 5.01804 15.7862 4.96945 15.7862 4.90951Z" fill="#485CC2"/>
<path fill-rule="evenodd" clip-rule="evenodd" d="M21.5119 14.991L21.2441 16.1734L22.171 16.3772L22.0966 16.7058L19.9091 16.225L19.9835 15.8964L20.9105 16.1001L21.1783 14.9177L20.9225 14.8614L20.9969 14.5328L21.2527 14.589L21.3076 14.3466L21.6413 14.42L21.5863 14.6624L21.8422 14.7186L21.7677 15.0472L21.5119 14.991Z" fill="#F8D74C"/>
<path d="M11.3344 9.28723L10.4475 6.38864C10.1787 6.13707 9.72187 5.88807 10.0444 6.90462C10.3669 7.92117 11.0387 8.91659 11.3344 9.28723Z" fill="#D74B4B"/>
<path d="M20.6656 9.28723L21.5525 6.38864C21.8213 6.13707 22.2781 5.88807 21.9556 6.90462C21.6332 7.92117 20.9613 8.91659 20.6656 9.28723Z" fill="#D74B4B"/>
<path d="M10.9171 9.79145L9.49707 7.10659C9.18542 6.90879 8.68944 6.74807 9.19869 7.68756C9.70795 8.62705 10.5565 9.48161 10.9171 9.79145Z" fill="#D74B4B"/>
<path d="M21.0829 9.79145L22.5029 7.10659C22.8146 6.90879 23.3106 6.74807 22.8013 7.68756C22.2921 8.62705 21.4435 9.48161 21.0829 9.79145Z" fill="#D74B4B"/>
<path d="M10.8891 10.7821L8.97278 8.41535C8.62841 8.2801 8.11034 8.21607 8.79306 9.04191C9.47577 9.86775 10.4749 10.5461 10.8891 10.7821Z" fill="#D74B4B"/>
<path d="M21.1109 10.7821L23.0272 8.41535C23.3716 8.2801 23.8897 8.21607 23.2069 9.04191C22.5242 9.86775 21.5251 10.5461 21.1109 10.7821Z" fill="#D74B4B"/>
<path d="M10.8891 11.7689L8.62213 9.72483C8.26059 9.64404 7.73872 9.66022 8.54361 10.3713C9.3485 11.0824 10.4427 11.5993 10.8891 11.7689Z" fill="#D74B4B"/>
<path d="M21.1109 11.7689L23.3779 9.72483C23.7394 9.64404 24.2613 9.66022 23.4564 10.3713C22.6515 11.0824 21.5573 11.5993 21.1109 11.7689Z" fill="#D74B4B"/>
<path d="M11.1397 12.6583L8.47203 11.155C8.1013 11.1545 7.5958 11.2832 8.53966 11.8027C9.48353 12.3222 10.6663 12.5896 11.1397 12.6583Z" fill="#D74B4B"/>
<path d="M20.8603 12.6583L23.528 11.155C23.8987 11.1545 24.4042 11.2832 23.4603 11.8027C22.5165 12.3222 21.3337 12.5896 20.8603 12.6583Z" fill="#D74B4B"/>
<path d="M14.7686 7.01621C14.7474 7.30808 14.0895 7.39864 13.7632 7.40744C13.7014 7.5898 13.6997 7.9389 14.1865 7.87635C14.6733 7.8138 14.7774 7.27686 14.7686 7.01621Z" fill="#F8D74C"/>
<path d="M17.1698 7.01621C17.1909 7.30808 17.8488 7.39864 18.1751 7.40744C18.2369 7.5898 18.2387 7.9389 17.7518 7.87635C17.265 7.8138 17.1609 7.27686 17.1698 7.01621Z" fill="#F8D74C"/>
</g>
<defs>
<clipPath id="clip0_440_1482">
<rect width="32" height="24" rx="2" fill="white"/>
</clipPath>
</defs>
</svg>
