<svg width="24" height="24" viewBox="0 0 24 24" fill="none" xmlns="http://www.w3.org/2000/svg">
<g clip-path="url(#clip0_440_1451)">
<rect width="24" height="24" rx="12" fill="#D74B4B"/>
<path fill-rule="evenodd" clip-rule="evenodd" d="M1 12C1 18.0751 5.92487 23 12 23C18.0751 23 23 18.0751 23 12C23 5.92487 18.0751 1 12 1C5.92487 1 1 5.92487 1 12ZM12 0C5.37258 0 0 5.37258 0 12C0 18.6274 5.37258 24 12 24C18.6274 24 24 18.6274 24 12C24 5.37258 18.6274 0 12 0Z" fill="#F8D74C"/>
<path d="M18.1338 16.5416C17.999 17.1366 17.4001 17.5114 16.796 17.3786C16.1919 17.2458 15.8115 16.6558 15.9463 16.0608C16.0811 15.4658 16.68 15.091 17.2841 15.2238C17.8881 15.3566 18.2686 15.9466 18.1338 16.5416Z" fill="#485CC2"/>
<path fill-rule="evenodd" clip-rule="evenodd" d="M11.8104 4.8762C11.5513 4.85435 11.1961 4.86706 10.87 4.97082C10.4996 5.08871 10.1415 5.33458 10.0412 5.80195C9.94371 6.25585 10.1112 6.58778 10.3605 6.80728C10.5078 6.93705 10.6823 7.02696 10.8448 7.08519V7.37592C10.8448 7.43302 10.8918 7.47931 10.9498 7.47931H12.9859C13.0439 7.47931 13.0909 7.43302 13.0909 7.37592V7.05314C13.2284 6.99566 13.3695 6.91534 13.492 6.80751C13.7412 6.58801 13.9087 6.25608 13.8113 5.80219C13.7109 5.33482 13.3528 5.08895 12.9824 4.97106C12.69 4.87802 12.3743 4.85819 12.1253 4.87083V4.53305H12.5373V4.2229H12.1253V4H11.8104V4.2229H11.4814V4.53305H11.8104V4.8762ZM10.9498 6.68506C10.9045 6.68506 10.8659 6.71332 10.8512 6.75291C10.7526 6.70856 10.6544 6.6501 10.5703 6.57605C10.395 6.42165 10.2778 6.19883 10.3492 5.86614C10.4178 5.54694 10.658 5.36423 10.9668 5.26595C11.0867 5.2278 11.2131 5.20395 11.3364 5.19072C11.283 5.23058 11.2301 5.27306 11.1795 5.31781C10.9734 5.50004 10.7673 5.75243 10.7673 6.04211C10.7673 6.29214 10.9019 6.51318 11.0573 6.68506H10.9498ZM11.8104 6.68506H11.5184C11.4576 6.63817 11.3963 6.58552 11.3395 6.52841C11.1815 6.36949 11.0821 6.20047 11.0821 6.04211C11.0821 5.89306 11.196 5.71999 11.3898 5.54863C11.5237 5.43021 11.6784 5.32811 11.8104 5.25374V6.68506ZM12.1253 6.68506H12.3343C12.3951 6.63823 12.4562 6.58566 12.5129 6.52864C12.6709 6.36973 12.7703 6.2007 12.7703 6.04234C12.7703 5.8933 12.6565 5.72022 12.4626 5.54887C12.356 5.45462 12.2363 5.37071 12.1253 5.30289V6.68506ZM12.9859 6.68506H12.7953C12.9506 6.51322 13.0852 6.29226 13.0852 6.04234C13.0852 5.75266 12.8791 5.50028 12.6729 5.31805C12.6223 5.2733 12.5695 5.23081 12.516 5.19096C12.6393 5.20419 12.7657 5.22804 12.8856 5.26619C13.1944 5.36447 13.4347 5.54718 13.5032 5.86638C13.5747 6.19906 13.4574 6.42189 13.2821 6.57629C13.2165 6.63403 13.1424 6.6823 13.0662 6.72178C13.0469 6.69932 13.0181 6.68506 12.9859 6.68506ZM8.58721 8.01501L8.69415 7.80423C8.8008 7.59403 9.01887 7.46123 9.25743 7.46123H9.37395L9.44243 7.39383C9.56051 7.27761 9.7206 7.21232 9.88753 7.21232H10.102C10.3293 7.21232 10.5389 7.33291 10.6505 7.52785L11.7062 9.37125V10.2847L11.9028 15.8758V20L9.62684 18.0071L11.2004 15.433L8.86817 16.8169H8.44669L7.6369 17.5467L7.9498 18.2823L7.56261 18.4421L7.30787 17.8433L7.12606 18.0071L6.45167 16.6508L6.78489 16.6138L4.96013 12.3239L5.34733 12.1641L7.21951 16.5654L8.19382 16.4571V15.8758L9.90785 14.7133L8.88678 14.5635C7.84489 14.4106 6.8994 13.8775 6.23795 13.07L6.20236 13.0265C5.60003 12.2911 5.27153 11.3747 5.27153 10.4298V9.60587C5.27153 8.71664 5.56252 7.85109 6.10132 7.13762L6.98556 5.96672L8.99659 10.2886C9.08928 10.4878 9.05343 10.7222 8.90527 10.8856C8.66876 11.1466 8.7355 11.5557 9.0431 11.7305L9.90785 12.2219L10.6665 10.2847L10.245 8.87278L9.02819 8.54771C8.92064 8.51898 8.92667 8.36673 9.03617 8.34635L9.62684 8.2364L8.58721 8.01501ZM15.1116 7.80423L15.2185 8.01501L14.1789 8.2364L14.7695 8.34635C14.879 8.36673 14.8851 8.51898 14.7775 8.54771L13.5607 8.87278L13.1392 10.2847L13.8979 12.2219L14.7626 11.7305C15.0702 11.5557 15.137 11.1466 14.9004 10.8856C14.7523 10.7222 14.7164 10.4878 14.8091 10.2886L16.8202 5.96672L17.7044 7.13762C18.2432 7.85109 18.5342 8.71664 18.5342 9.60587V10.4298C18.5342 11.3747 18.2057 12.2911 17.6034 13.0265L17.5678 13.07C16.9063 13.8775 15.9608 14.4106 14.9189 14.5635L13.8979 14.7133L15.6119 15.8758V16.4571L17.354 16.6508L16.6797 18.0071L15.359 16.8169H14.9375L12.6053 15.433L14.1789 18.0071L11.9028 20V15.8758L12.0996 10.2847V9.37125L13.1552 7.52785C13.2669 7.33291 13.4765 7.21232 13.7037 7.21232H13.9182C14.0851 7.21232 14.2452 7.27761 14.3633 7.39383L14.4318 7.46123H14.5483C14.7868 7.46123 15.0049 7.59403 15.1116 7.80423Z" fill="#F8D74C"/>
<path d="M9.46969 14.7016C9.39443 14.6496 9.35265 14.5624 9.35982 14.4721L9.58951 11.5815C9.59267 11.5417 9.58632 11.5017 9.57095 11.4647L9.41615 11.092C9.37528 10.9936 9.40042 10.8806 9.47931 10.8081L10.0936 10.2433C10.1417 10.199 10.205 10.1744 10.2708 10.1744H13.7293C13.7951 10.1744 13.8584 10.199 13.9065 10.2433L14.5208 10.8081C14.5997 10.8806 14.6248 10.9936 14.5839 11.092L14.4291 11.4647C14.4138 11.5017 14.4074 11.5417 14.4106 11.5815L14.6403 14.4721C14.6474 14.5624 14.6057 14.6496 14.5304 14.7016L12.3615 16.1993C12.1445 16.3492 11.8555 16.3492 11.6386 16.1993L9.46969 14.7016Z" fill="#485CC2"/>
<path fill-rule="evenodd" clip-rule="evenodd" d="M9.25519 14.464L9.48487 11.5735C9.48676 11.5497 9.48297 11.5259 9.47381 11.5038L9.31902 11.1312C9.26163 10.993 9.29693 10.8343 9.4077 10.7325L10.0219 10.1677C10.0895 10.1056 10.1784 10.0711 10.2708 10.0711H13.7293C13.8217 10.0711 13.9106 10.1056 13.9782 10.1677L14.5924 10.7325C14.7032 10.8343 14.7385 10.993 14.6811 11.1312L14.5263 11.5038C14.5171 11.5259 14.5133 11.5497 14.5152 11.5735L14.7449 14.464C14.755 14.5908 14.6963 14.7133 14.5906 14.7863L12.4217 16.284C12.1686 16.4588 11.8315 16.4588 11.5783 16.284L9.40944 14.7863C9.30378 14.7133 9.24512 14.5908 9.25519 14.464ZM9.35982 14.4721C9.35265 14.5624 9.39443 14.6496 9.46969 14.7016L11.6386 16.1993C11.8555 16.3492 12.1445 16.3492 12.3615 16.1993L14.5304 14.7016C14.6057 14.6496 14.6474 14.5624 14.6403 14.4721L14.4106 11.5815C14.4074 11.5417 14.4138 11.5017 14.4291 11.4647L14.5839 11.092C14.6248 10.9936 14.5997 10.8806 14.5208 10.8081L13.9065 10.2433C13.8584 10.199 13.7951 10.1744 13.7293 10.1744H10.2708C10.205 10.1744 10.1417 10.199 10.0936 10.2433L9.47931 10.8081C9.40042 10.8806 9.37528 10.9936 9.41615 11.092L9.57095 11.4647C9.58632 11.5017 9.59267 11.5417 9.58951 11.5815L9.35982 14.4721Z" fill="#D74B4B"/>
<path fill-rule="evenodd" clip-rule="evenodd" d="M9.35982 14.4721C9.35265 14.5624 9.39443 14.6496 9.46969 14.7016L11.6386 16.1993C11.8555 16.3492 12.1445 16.3492 12.3615 16.1993L14.5304 14.7016C14.6057 14.6496 14.6474 14.5624 14.6403 14.4721L14.6303 14.3463H9.36987L9.35982 14.4721Z" fill="#3FB47C"/>
<path fill-rule="evenodd" clip-rule="evenodd" d="M11.6676 10.894C11.5439 10.9641 11.4963 11.0845 11.4849 11.15C11.0763 11.1548 10.7466 11.4826 10.7466 11.8862H11.1074V12.3367L11.164 12.4937L10.9992 12.631H10.8572L10.4825 11.6537L10.2519 11.7395L10.6591 12.8015V12.8738H11.6038V13.3646H11.3271V13.6075H11.8501L11.8504 13.1073L12.0949 12.8743H12.8195V13.3646H12.5409V13.6075H13.0639V13.3894H13.066V13.1318L13.3362 12.8743L13.5109 12.2124L13.3364 11.8804H13.3377C13.3377 11.8524 13.3493 11.8085 13.3667 11.7629C13.3748 11.742 13.3828 11.7236 13.3889 11.7106L13.396 11.6957L13.3978 11.6922L13.4871 11.52H12.2189V11.4166H13.502V11.1808H11.9796V11.7557H13.1175C13.1068 11.7946 13.0984 11.8381 13.0983 11.88H11.8527V11.1674H11.8578C11.8578 11.0256 11.731 10.926 11.6676 10.894Z" fill="#F8D74C"/>
<path d="M11.7862 4.90951C11.7862 4.84956 11.8355 4.80097 11.8964 4.80097H12.0643C12.1252 4.80097 12.1745 4.84956 12.1745 4.90951C12.1745 4.96945 12.1252 5.01804 12.0643 5.01804H11.8964C11.8355 5.01804 11.7862 4.96945 11.7862 4.90951Z" fill="#485CC2"/>
<path fill-rule="evenodd" clip-rule="evenodd" d="M17.5119 14.991L17.2441 16.1734L18.171 16.3772L18.0966 16.7058L15.9091 16.225L15.9835 15.8964L16.9105 16.1001L17.1783 14.9177L16.9225 14.8614L16.9969 14.5328L17.2527 14.589L17.3076 14.3466L17.6413 14.42L17.5863 14.6624L17.8422 14.7186L17.7677 15.0472L17.5119 14.991Z" fill="#F8D74C"/>
<path d="M7.33435 9.28723L6.44747 6.38864C6.17873 6.13707 5.72187 5.88807 6.04436 6.90462C6.36685 7.92117 7.03873 8.91659 7.33435 9.28723Z" fill="#D74B4B"/>
<path d="M16.6656 9.28723L17.5525 6.38864C17.8213 6.13707 18.2781 5.88807 17.9556 6.90462C17.6332 7.92117 16.9613 8.91659 16.6656 9.28723Z" fill="#D74B4B"/>
<path d="M6.91706 9.79145L5.49707 7.10659C5.18542 6.90879 4.68944 6.74807 5.19869 7.68756C5.70795 8.62705 6.55646 9.48161 6.91706 9.79145Z" fill="#D74B4B"/>
<path d="M17.0829 9.79145L18.5029 7.10659C18.8146 6.90879 19.3106 6.74807 18.8013 7.68756C18.2921 8.62705 17.4435 9.48161 17.0829 9.79145Z" fill="#D74B4B"/>
<path d="M6.88915 10.7821L4.97278 8.41535C4.62841 8.2801 4.11034 8.21607 4.79306 9.04191C5.47577 9.86775 6.47491 10.5461 6.88915 10.7821Z" fill="#D74B4B"/>
<path d="M17.1109 10.7821L19.0272 8.41535C19.3716 8.2801 19.8897 8.21607 19.2069 9.04191C18.5242 9.86775 17.5251 10.5461 17.1109 10.7821Z" fill="#D74B4B"/>
<path d="M6.88913 11.7689L4.62213 9.72483C4.26059 9.64404 3.73872 9.66022 4.54361 10.3713C5.3485 11.0824 6.44267 11.5993 6.88913 11.7689Z" fill="#D74B4B"/>
<path d="M17.1109 11.7689L19.3779 9.72483C19.7394 9.64404 20.2613 9.66022 19.4564 10.3713C18.6515 11.0824 17.5573 11.5993 17.1109 11.7689Z" fill="#D74B4B"/>
<path d="M7.13965 12.6583L4.47203 11.155C4.1013 11.1545 3.5958 11.2832 4.53966 11.8027C5.48353 12.3222 6.66627 12.5896 7.13965 12.6583Z" fill="#D74B4B"/>
<path d="M16.8603 12.6583L19.528 11.155C19.8987 11.1545 20.4042 11.2832 19.4603 11.8027C18.5165 12.3222 17.3337 12.5896 16.8603 12.6583Z" fill="#D74B4B"/>
<path d="M10.7686 7.01621C10.7474 7.30808 10.0895 7.39864 9.76317 7.40744C9.70143 7.5898 9.69965 7.9389 10.1865 7.87635C10.6733 7.8138 10.7774 7.27686 10.7686 7.01621Z" fill="#F8D74C"/>
<path d="M13.1698 7.01621C13.1909 7.30808 13.8488 7.39864 14.1751 7.40744C14.2369 7.5898 14.2387 7.9389 13.7518 7.87635C13.265 7.8138 13.1609 7.27686 13.1698 7.01621Z" fill="#F8D74C"/>
</g>
<defs>
<clipPath id="clip0_440_1451">
<rect width="24" height="24" rx="12" fill="white"/>
</clipPath>
</defs>
</svg>
