<svg width="32" height="24" viewBox="0 0 32 24" fill="none" xmlns="http://www.w3.org/2000/svg">
<g clip-path="url(#clip0_440_1405)">
<rect width="32" height="24" rx="2" fill="#F9F9F9"/>
<path d="M32 10V14L0 14L1.74846e-07 10L32 10Z" fill="#D74B4B"/>
<path d="M18 24H14L14 0L18 3.49691e-07L18 24Z" fill="#D74B4B"/>
<path d="M14.8407 10.0026L15.8797 8.19184C15.918 8.12519 16.014 8.12478 16.0528 8.1911L17.1128 10.0026H19.3351C19.412 10.0026 19.4601 10.0857 19.4219 10.1523L18.3221 12.0689L19.4197 13.9447C19.4587 14.0114 19.4107 14.0952 19.3334 14.0952H17.1593L16.1203 15.9059C16.0821 15.9726 15.9861 15.973 15.9473 15.9067L14.8872 14.0952H12.6649C12.588 14.0952 12.5399 14.0121 12.5782 13.9454L13.678 12.0288L12.5803 10.1531C12.5413 10.0864 12.5894 10.0026 12.6666 10.0026H14.8407Z" fill="#F9F9F9"/>
<path d="M15.2635 12.9376V13.714C15.2635 13.7693 15.3082 13.814 15.3635 13.814H16.561C16.6163 13.814 16.661 13.7693 16.661 13.714V12.9431C16.661 12.9211 16.6683 12.8997 16.6818 12.8822L17.5999 11.6876C17.6247 11.6554 17.6275 11.6114 17.607 11.5763L17.5485 11.4759C17.5189 11.4251 17.4521 11.4107 17.4042 11.4447L16.7144 11.9336C16.692 11.9495 16.661 11.9335 16.661 11.906L16.5779 10.7695L16.5104 9.92469C16.5062 9.87271 16.4628 9.83266 16.4107 9.83266H16.1342V9.6586C16.1342 9.60337 16.0895 9.5586 16.0342 9.5586H15.8339C15.7786 9.5586 15.7339 9.60337 15.7339 9.6586V9.954C15.7339 9.89878 15.6891 9.854 15.6339 9.854H15.4651C15.4099 9.854 15.3651 9.89878 15.3651 9.954V10.312C15.3651 10.2568 15.3203 10.212 15.2651 10.212H15.1328C15.0775 10.212 15.0328 10.2568 15.0328 10.312V12.5079C15.0328 12.5265 15.038 12.5448 15.0477 12.5606L15.2485 12.885C15.2583 12.9008 15.2635 12.919 15.2635 12.9376Z" fill="#D74B4B"/>
<path fill-rule="evenodd" clip-rule="evenodd" d="M15.7753 4.66065L15.7746 4.93356H15.5669V5.32785H15.7736L15.7719 5.96668L15.6009 5.8396C15.4278 5.71101 15.2179 5.64157 15.0023 5.64157C14.4481 5.64157 13.9988 6.09085 13.9988 6.64507V6.81784C13.9988 6.99199 14.0375 7.16397 14.1121 7.32136L14.586 8.32183L14.5991 8.31562L14.5174 8.65079C14.5021 8.71376 14.5498 8.77446 14.6146 8.77446H17.4721C17.5481 8.77446 17.5963 8.69304 17.5598 8.6264L17.3877 8.31241L17.8571 7.32136C17.9317 7.16397 17.9703 6.99199 17.9703 6.81784V6.64507C17.9703 6.09085 17.521 5.64157 16.9668 5.64157C16.7512 5.64157 16.5414 5.71101 16.3683 5.8396L16.1661 5.98984L16.1679 5.32785H16.3782V4.93356H16.1689L16.1696 4.66169L15.7753 4.66065ZM17.1537 7.88541L17.5008 7.15258C17.5503 7.04794 17.576 6.93361 17.576 6.81784V6.64507C17.576 6.30862 17.3033 6.03587 16.9668 6.03587C16.8359 6.03587 16.7085 6.07802 16.6035 6.15609L16.1648 6.48204L16.1613 7.80653H16.5283V7.71181H16.2629V7.31751H16.5283V7.05231H16.9226V7.31751H17.188V7.71181H16.9226V7.80653H17.0512C17.0877 7.80653 17.1213 7.82644 17.1389 7.85847L17.1537 7.88541ZM15.767 7.80653L15.7706 6.45695L15.3657 6.15609C15.2606 6.07802 15.1332 6.03587 15.0023 6.03587C14.6659 6.03587 14.3931 6.30862 14.3931 6.64507V6.81784C14.3931 6.93361 14.4188 7.04794 14.4684 7.15258L14.7793 7.80904C14.7865 7.8074 14.794 7.80653 14.8016 7.80653H14.9996V7.71181H14.7343V7.31751H14.9996V7.05231H15.3939V7.31751H15.6594V7.71181H15.3939V7.80653H15.767Z" fill="#F8D74C"/>
</g>
<defs>
<clipPath id="clip0_440_1405">
<rect width="32" height="24" rx="2" fill="white"/>
</clipPath>
</defs>
</svg>
