<svg width="24" height="24" viewBox="0 0 24 24" fill="none" xmlns="http://www.w3.org/2000/svg">
<g clip-path="url(#clip0_440_1404)">
<rect width="24" height="24" rx="2" fill="#F9F9F9"/>
<path d="M28 10V14L-4 14L-4 10L28 10Z" fill="#D74B4B"/>
<path d="M14 24H10L10 0L14 3.49691e-07L14 24Z" fill="#D74B4B"/>
<path d="M10.8407 10.0026L11.8797 8.19184C11.918 8.12519 12.014 8.12478 12.0528 8.1911L13.1128 10.0026H15.3351C15.412 10.0026 15.4601 10.0857 15.4219 10.1523L14.3221 12.0689L15.4197 13.9447C15.4587 14.0114 15.4107 14.0952 15.3334 14.0952H13.1593L12.1203 15.9059C12.0821 15.9726 11.9861 15.973 11.9473 15.9067L10.8872 14.0952H8.66491C8.58804 14.0952 8.53992 14.0121 8.57817 13.9454L9.67798 12.0288L8.58031 10.1531C8.5413 10.0864 8.58938 10.0026 8.66662 10.0026H10.8407Z" fill="#F9F9F9"/>
<path d="M11.2635 12.9376V13.714C11.2635 13.7693 11.3082 13.814 11.3635 13.814H12.561C12.6163 13.814 12.661 13.7693 12.661 13.714V12.9431C12.661 12.9211 12.6683 12.8997 12.6818 12.8822L13.5999 11.6876C13.6247 11.6554 13.6275 11.6114 13.607 11.5763L13.5485 11.4759C13.5189 11.4251 13.4521 11.4107 13.4042 11.4447L12.7144 11.9336C12.692 11.9495 12.661 11.9335 12.661 11.906L12.5779 10.7695L12.5104 9.92469C12.5062 9.87271 12.4628 9.83266 12.4107 9.83266H12.1342V9.6586C12.1342 9.60337 12.0895 9.5586 12.0342 9.5586H11.8339C11.7786 9.5586 11.7339 9.60337 11.7339 9.6586V9.954C11.7339 9.89878 11.6891 9.854 11.6339 9.854H11.4651C11.4099 9.854 11.3651 9.89878 11.3651 9.954V10.312C11.3651 10.2568 11.3203 10.212 11.2651 10.212H11.1328C11.0775 10.212 11.0328 10.2568 11.0328 10.312V12.5079C11.0328 12.5265 11.038 12.5448 11.0477 12.5606L11.2485 12.885C11.2583 12.9008 11.2635 12.919 11.2635 12.9376Z" fill="#D74B4B"/>
<path fill-rule="evenodd" clip-rule="evenodd" d="M11.7753 4.66065L11.7746 4.93356H11.5669V5.32785H11.7736L11.7719 5.96668L11.6009 5.8396C11.4278 5.71101 11.2179 5.64157 11.0023 5.64157C10.4481 5.64157 9.99884 6.09085 9.99884 6.64507V6.81784C9.99884 6.99199 10.0375 7.16397 10.1121 7.32136L10.586 8.32183L10.5991 8.31562L10.5174 8.65079C10.5021 8.71376 10.5498 8.77446 10.6146 8.77446H13.4721C13.5481 8.77446 13.5963 8.69304 13.5598 8.6264L13.3877 8.31241L13.8571 7.32136C13.9317 7.16397 13.9703 6.99199 13.9703 6.81784V6.64507C13.9703 6.09085 13.521 5.64157 12.9668 5.64157C12.7512 5.64157 12.5414 5.71101 12.3683 5.8396L12.1661 5.98984L12.1679 5.32785H12.3782V4.93356H12.1689L12.1696 4.66169L11.7753 4.66065ZM13.1537 7.88541L13.5008 7.15258C13.5503 7.04794 13.576 6.93361 13.576 6.81784V6.64507C13.576 6.30862 13.3033 6.03587 12.9668 6.03587C12.8359 6.03587 12.7085 6.07802 12.6035 6.15609L12.1648 6.48204L12.1613 7.80653H12.5283V7.71181H12.2629V7.31751H12.5283V7.05231H12.9226V7.31751H13.188V7.71181H12.9226V7.80653H13.0512C13.0877 7.80653 13.1213 7.82644 13.1389 7.85847L13.1537 7.88541ZM11.767 7.80653L11.7706 6.45695L11.3657 6.15609C11.2606 6.07802 11.1332 6.03587 11.0023 6.03587C10.6659 6.03587 10.3931 6.30862 10.3931 6.64507V6.81784C10.3931 6.93361 10.4188 7.04794 10.4684 7.15258L10.7793 7.80904C10.7865 7.8074 10.794 7.80653 10.8016 7.80653H10.9996V7.71181H10.7343V7.31751H10.9996V7.05231H11.3939V7.31751H11.6594V7.71181H11.3939V7.80653H11.767Z" fill="#F8D74C"/>
</g>
<defs>
<clipPath id="clip0_440_1404">
<rect width="24" height="24" rx="2" fill="white"/>
</clipPath>
</defs>
</svg>
