<svg width="24" height="24" viewBox="0 0 24 24" fill="none" xmlns="http://www.w3.org/2000/svg">
<g clip-path="url(#clip0_440_1444)">
<rect width="24" height="24" rx="2" fill="#D74B4B"/>
<path d="M0 24L-1.04907e-06 0L10 -4.37114e-07L10 24L0 24Z" fill="#377649"/>
<path fill-rule="evenodd" clip-rule="evenodd" d="M9.24706 12.1067L4.82232 11.5247C4.80812 11.6813 4.80087 11.8398 4.80087 12.0001C4.80087 12.0219 4.80101 12.0437 4.80128 12.0655L8.27562 12.924L9.24706 12.1067ZM7.69163 13.4152L4.84934 12.7129C4.9667 13.5689 5.29239 14.3584 5.77362 15.0288L7.69163 13.4152ZM8.4325 13.5983L9.67281 13.9048V15.8368L7.34724 16.4725C6.90602 16.2102 6.50692 15.8845 6.16251 15.5079L8.4325 13.5983ZM9.67281 13.2692L9.01649 13.107L9.67281 12.5549V13.2692ZM10.2898 14.0572V15.6682L11.2215 15.4135L10.6539 14.1472L10.2898 14.0572ZM10.3336 13.4325L10.2898 13.4217V13.3349L10.3336 13.4325ZM11.4143 14.3351L11.8239 15.2488L13.1573 14.8844L12.2954 14.1805L12.2087 14.5314L11.4143 14.3351ZM11.8332 13.803L11.094 13.6203L10.7962 12.9561L11.8332 13.803ZM4.91439 10.9145L7.61057 11.2691L5.10024 10.2571C5.02444 10.4702 4.96215 10.6896 4.91439 10.9145ZM5.34145 9.68909L8.21343 10.8469L6.26985 9.25964L5.4492 9.48395C5.41181 9.55143 5.37588 9.61982 5.34145 9.68909ZM6.41387 8.58061L6.22434 8.42583C6.62514 8.00259 7.09633 7.6467 7.61919 7.37691L7.96829 8.15573L6.41387 8.58061ZM7.00071 9.05986L8.22372 8.72557L8.61135 9.59034L7.89046 9.41222L7.81351 9.72364L7.00071 9.05986ZM9.37175 9.77823L9.67281 9.85262V8.32948L8.82609 8.56092L9.37175 9.77823ZM8.34926 10.1612L8.93173 10.3051L9.16631 10.8284L8.34926 10.1612ZM10.8309 10.7743L10.2898 10.6407V11.2295L10.8309 10.7743ZM10.2898 10.0051L11.4149 10.2831L13.7071 8.35475C13.3896 8.03196 13.0303 7.75044 12.638 7.51898L10.2898 8.16082V10.0051ZM10.7157 11.6776L11.5717 10.9574L15.1971 11.8532C15.1984 11.902 15.1991 11.951 15.1991 12.0001C15.1991 12.0894 15.1969 12.1782 15.1924 12.2664L10.7157 11.6776ZM12.1557 10.4661L15.1384 11.2031C15.0017 10.3144 14.6399 9.49981 14.1131 8.81952L12.1557 10.4661ZM11.7803 7.11377L10.2898 7.52116V6.80892C10.8108 6.83754 11.3113 6.94286 11.7803 7.11377ZM9.67281 7.68982L8.57066 7.99108L8.18342 7.12716C8.65166 6.95253 9.15184 6.84346 9.67281 6.8111V7.68982ZM13.8882 14.6846L14.5591 14.5012C14.6234 14.3843 14.6832 14.2647 14.7385 14.1426L11.7487 12.9373L13.8882 14.6846ZM13.7442 15.3636L12.0793 15.8187L12.4288 16.5982C12.9752 16.309 13.4638 15.9253 13.8729 15.4688L13.7442 15.3636ZM11.477 15.9833L10.2898 16.3078V17.1913C10.8431 17.1609 11.3733 17.044 11.8672 16.8539L11.477 15.9833ZM9.67281 16.4765L8.19976 16.8791C8.6633 17.0502 9.1579 17.1571 9.67281 17.1891V16.4765ZM10 17.9992C8.91229 17.9992 7.89218 17.7098 7.01253 17.2036L6.95543 17.2192L6.93949 17.1609C5.18001 16.1152 4.00087 14.1954 4.00087 12.0001C4.00087 9.66147 5.33905 7.63538 7.29146 6.64578L7.29003 6.64258L7.36898 6.60719C7.48752 6.54925 7.60825 6.4951 7.73102 6.44491L7.85308 6.39019L7.85551 6.39563C8.42469 6.17771 9.03554 6.044 9.67281 6.00975V6.00098H10.2898V6.00786C13.4685 6.15906 15.9991 8.78405 15.9991 12.0001C15.9991 15.3133 13.3132 17.9992 10 17.9992ZM12.3516 12.5151L14.9591 13.5663C15.0293 13.3436 15.085 13.1144 15.125 12.8799L12.3516 12.5151Z" fill="#F8D74C"/>
<path d="M6.43422 7.97998H13.5658V12.4694C13.5658 14.4387 11.9693 16.0351 10 16.0351C8.03068 16.0351 6.43422 14.4387 6.43422 12.4694V7.97998Z" fill="#D74B4B"/>
<path fill-rule="evenodd" clip-rule="evenodd" d="M6.33422 7.87998H13.6658V12.4694C13.6658 14.4939 12.0246 16.1351 10 16.1351C7.97545 16.1351 6.33422 14.4939 6.33422 12.4694V7.87998ZM6.43422 7.97998V12.4694C6.43422 14.4387 8.03068 16.0351 10 16.0351C11.9693 16.0351 13.5658 14.4387 13.5658 12.4694V7.97998H6.43422Z" fill="#F9F9F9"/>
<path d="M8.03981 9.59033H11.9602V12.6765C11.9602 13.7591 11.0826 14.6367 10 14.6367C8.91742 14.6367 8.03981 13.7591 8.03981 12.6765V9.59033Z" fill="#F9F9F9"/>
<path d="M9.63283 11.5273H10.3671V12.1054C10.3671 12.3082 10.2027 12.4725 9.99998 12.4725C9.79721 12.4725 9.63283 12.3082 9.63283 12.1054V11.5273Z" fill="#485CC2"/>
<path d="M9.63283 10.166H10.3671V10.7441C10.3671 10.9468 10.2027 11.1112 9.99998 11.1112C9.79721 11.1112 9.63283 10.9468 9.63283 10.7441V10.166Z" fill="#485CC2"/>
<path d="M9.63283 12.8892H10.3671V13.4672C10.3671 13.67 10.2027 13.8344 9.99998 13.8344C9.79721 13.8344 9.63283 13.67 9.63283 13.4672V12.8892Z" fill="#485CC2"/>
<path d="M8.49312 11.5273H9.22741V12.1054C9.22741 12.3082 9.06304 12.4725 8.86027 12.4725C8.6575 12.4725 8.49312 12.3082 8.49312 12.1054V11.5273Z" fill="#485CC2"/>
<path d="M10.7726 11.5273H11.5069V12.1054C11.5069 12.3082 11.3425 12.4725 11.1397 12.4725C10.9369 12.4725 10.7726 12.3082 10.7726 12.1054V11.5273Z" fill="#485CC2"/>
<path d="M6.77495 8.28857H7.78361V9.29723H6.77495V8.28857Z" fill="#F8D74C"/>
<path d="M9.48241 8.28857H10.4911V9.29723H9.48241V8.28857Z" fill="#F8D74C"/>
<path d="M12.2164 8.28857H13.225V9.29723H12.2164V8.28857Z" fill="#F8D74C"/>
<path d="M12.2164 11.105H13.225V12.1136H12.2164V11.105Z" fill="#F8D74C"/>
<path d="M6.77495 11.105H7.78361V12.1136H6.77495V11.105Z" fill="#F8D74C"/>
<path d="M7.32753 14.5293L8.04172 13.817L8.75399 14.5312L8.0398 15.2435L7.32753 14.5293Z" fill="#F8D74C"/>
<path d="M11.246 14.5283L11.9602 13.816L12.6725 14.5302L11.9583 15.2425L11.246 14.5283Z" fill="#F8D74C"/>
</g>
<defs>
<clipPath id="clip0_440_1444">
<rect width="24" height="24" rx="2" fill="white"/>
</clipPath>
</defs>
</svg>
