<svg width="32" height="24" viewBox="0 0 32 24" fill="none" xmlns="http://www.w3.org/2000/svg">
<g clip-path="url(#clip0_440_1445)">
<rect width="32" height="24" rx="2" fill="#D74B4B"/>
<path d="M0 24L-1.04907e-06 0L12 -5.24537e-07L12 24L0 24Z" fill="#377649"/>
<path fill-rule="evenodd" clip-rule="evenodd" d="M11.2471 12.1067L6.82232 11.5247C6.80812 11.6813 6.80087 11.8398 6.80087 12.0001C6.80087 12.0219 6.80101 12.0437 6.80128 12.0655L10.2756 12.924L11.2471 12.1067ZM9.69163 13.4152L6.84934 12.7129C6.9667 13.5689 7.29239 14.3584 7.77362 15.0288L9.69163 13.4152ZM10.4325 13.5983L11.6728 13.9048V15.8368L9.34724 16.4725C8.90602 16.2102 8.50692 15.8845 8.16251 15.5079L10.4325 13.5983ZM11.6728 13.2692L11.0165 13.107L11.6728 12.5549V13.2692ZM12.2898 14.0572V15.6682L13.2215 15.4135L12.6539 14.1472L12.2898 14.0572ZM12.3336 13.4325L12.2898 13.4217V13.3349L12.3336 13.4325ZM13.4143 14.3351L13.8239 15.2488L15.1573 14.8844L14.2954 14.1805L14.2087 14.5314L13.4143 14.3351ZM13.8332 13.803L13.094 13.6203L12.7962 12.9561L13.8332 13.803ZM6.91439 10.9145L9.61057 11.2691L7.10024 10.2571C7.02444 10.4702 6.96215 10.6896 6.91439 10.9145ZM7.34145 9.68909L10.2134 10.8469L8.26985 9.25964L7.4492 9.48395C7.41181 9.55143 7.37588 9.61982 7.34145 9.68909ZM8.41387 8.58061L8.22434 8.42583C8.62514 8.00259 9.09633 7.6467 9.61919 7.37691L9.96829 8.15573L8.41387 8.58061ZM9.00071 9.05986L10.2237 8.72557L10.6113 9.59034L9.89046 9.41222L9.81351 9.72364L9.00071 9.05986ZM11.3717 9.77823L11.6728 9.85262V8.32948L10.8261 8.56092L11.3717 9.77823ZM10.3493 10.1612L10.9317 10.3051L11.1663 10.8284L10.3493 10.1612ZM12.8309 10.7743L12.2898 10.6407V11.2295L12.8309 10.7743ZM12.2898 10.0051L13.4149 10.2831L15.7071 8.35475C15.3896 8.03196 15.0303 7.75044 14.638 7.51898L12.2898 8.16082V10.0051ZM12.7157 11.6776L13.5717 10.9574L17.1971 11.8532C17.1984 11.902 17.1991 11.951 17.1991 12.0001C17.1991 12.0894 17.1969 12.1782 17.1924 12.2664L12.7157 11.6776ZM14.1557 10.4661L17.1384 11.2031C17.0017 10.3144 16.6399 9.49981 16.1131 8.81952L14.1557 10.4661ZM13.7803 7.11377L12.2898 7.52116V6.80892C12.8108 6.83754 13.3113 6.94286 13.7803 7.11377ZM11.6728 7.68982L10.5707 7.99108L10.1834 7.12716C10.6517 6.95253 11.1518 6.84346 11.6728 6.8111V7.68982ZM15.8882 14.6846L16.5591 14.5012C16.6234 14.3843 16.6832 14.2647 16.7385 14.1426L13.7487 12.9373L15.8882 14.6846ZM15.7442 15.3636L14.0793 15.8187L14.4288 16.5982C14.9752 16.309 15.4638 15.9253 15.8729 15.4688L15.7442 15.3636ZM13.477 15.9833L12.2898 16.3078V17.1913C12.8431 17.1609 13.3733 17.044 13.8672 16.8539L13.477 15.9833ZM11.6728 16.4765L10.1998 16.8791C10.6633 17.0502 11.1579 17.1571 11.6728 17.1891V16.4765ZM12 17.9992C10.9123 17.9992 9.89218 17.7098 9.01253 17.2036L8.95543 17.2192L8.93949 17.1609C7.18001 16.1152 6.00087 14.1954 6.00087 12.0001C6.00087 9.66147 7.33905 7.63538 9.29146 6.64578L9.29003 6.64258L9.36898 6.60719C9.48752 6.54925 9.60825 6.4951 9.73102 6.44491L9.85308 6.39019L9.85551 6.39563C10.4247 6.17771 11.0355 6.044 11.6728 6.00975V6.00098H12.2898V6.00786C15.4685 6.15906 17.9991 8.78405 17.9991 12.0001C17.9991 15.3133 15.3132 17.9992 12 17.9992ZM14.3516 12.5151L16.9591 13.5663C17.0293 13.3436 17.085 13.1144 17.125 12.8799L14.3516 12.5151Z" fill="#F8D74C"/>
<path d="M8.43422 7.97998H15.5658V12.4694C15.5658 14.4387 13.9693 16.0351 12 16.0351C10.0307 16.0351 8.43422 14.4387 8.43422 12.4694V7.97998Z" fill="#D74B4B"/>
<path fill-rule="evenodd" clip-rule="evenodd" d="M8.33422 7.87998H15.6658V12.4694C15.6658 14.4939 14.0246 16.1351 12 16.1351C9.97545 16.1351 8.33422 14.4939 8.33422 12.4694V7.87998ZM8.43422 7.97998V12.4694C8.43422 14.4387 10.0307 16.0351 12 16.0351C13.9693 16.0351 15.5658 14.4387 15.5658 12.4694V7.97998H8.43422Z" fill="#F9F9F9"/>
<path d="M10.0398 9.59033H13.9602V12.6765C13.9602 13.7591 13.0826 14.6367 12 14.6367C10.9174 14.6367 10.0398 13.7591 10.0398 12.6765V9.59033Z" fill="#F9F9F9"/>
<path d="M11.6328 11.5273H12.3671V12.1054C12.3671 12.3082 12.2027 12.4725 12 12.4725C11.7972 12.4725 11.6328 12.3082 11.6328 12.1054V11.5273Z" fill="#485CC2"/>
<path d="M11.6328 10.166H12.3671V10.7441C12.3671 10.9468 12.2027 11.1112 12 11.1112C11.7972 11.1112 11.6328 10.9468 11.6328 10.7441V10.166Z" fill="#485CC2"/>
<path d="M11.6328 12.8892H12.3671V13.4672C12.3671 13.67 12.2027 13.8344 12 13.8344C11.7972 13.8344 11.6328 13.67 11.6328 13.4672V12.8892Z" fill="#485CC2"/>
<path d="M10.4931 11.5273H11.2274V12.1054C11.2274 12.3082 11.063 12.4725 10.8603 12.4725C10.6575 12.4725 10.4931 12.3082 10.4931 12.1054V11.5273Z" fill="#485CC2"/>
<path d="M12.7726 11.5273H13.5069V12.1054C13.5069 12.3082 13.3425 12.4725 13.1397 12.4725C12.9369 12.4725 12.7726 12.3082 12.7726 12.1054V11.5273Z" fill="#485CC2"/>
<path d="M8.77495 8.28857H9.78361V9.29723H8.77495V8.28857Z" fill="#F8D74C"/>
<path d="M11.4824 8.28857H12.4911V9.29723H11.4824V8.28857Z" fill="#F8D74C"/>
<path d="M14.2164 8.28857H15.225V9.29723H14.2164V8.28857Z" fill="#F8D74C"/>
<path d="M14.2164 11.105H15.225V12.1136H14.2164V11.105Z" fill="#F8D74C"/>
<path d="M8.77495 11.105H9.78361V12.1136H8.77495V11.105Z" fill="#F8D74C"/>
<path d="M9.32753 14.5293L10.0417 13.817L10.754 14.5312L10.0398 15.2435L9.32753 14.5293Z" fill="#F8D74C"/>
<path d="M13.246 14.5283L13.9602 13.816L14.6725 14.5302L13.9583 15.2425L13.246 14.5283Z" fill="#F8D74C"/>
</g>
<defs>
<clipPath id="clip0_440_1445">
<rect width="32" height="24" rx="2" fill="white"/>
</clipPath>
</defs>
</svg>
