<svg width="24" height="24" viewBox="0 0 24 24" fill="none" xmlns="http://www.w3.org/2000/svg">
<rect width="24" height="24" rx="12" fill="#F9F9F9"/>
<path d="M0 12H24V24H0V12Z" fill="#64BEDB"/>
<path d="M8.46122 9.83994C8.46122 9.83994 8.7304 9.44954 8.98675 9.42262C9.21747 9.3957 9.43538 9.47647 9.43538 9.47647C9.43538 9.47647 8.96112 9.83994 8.7304 9.90725C8.55095 9.9611 8.46122 9.83994 8.46122 9.83994Z" fill="#377649"/>
<path d="M7.7178 14.3767C7.7178 14.3767 7.60244 14.4575 7.44862 14.3229C7.25636 14.1344 7 13.394 7 13.394C7 13.394 7.2179 13.5286 7.39735 13.7036C7.60244 13.9056 7.7178 14.3767 7.7178 14.3767Z" fill="#377649"/>
<path d="M7.98695 15.1843C7.71778 14.5785 7.57678 13.9323 7.53833 13.2323C7.51269 13.2457 7.39733 13.2727 7.28197 13.1111C7.12816 12.8688 7.0128 12.088 7.0128 12.088C7.0128 12.088 7.20507 12.2765 7.34606 12.4919C7.47424 12.6803 7.52551 13.0303 7.53833 13.165C7.53833 13.0977 7.53833 13.0169 7.53833 12.9496C7.53833 12.6399 7.56396 12.3303 7.60242 12.0207C7.56396 12.0072 7.47424 11.9803 7.41015 11.8188C7.30761 11.5495 7.3717 10.7553 7.3717 10.7553C7.3717 10.7553 7.51269 10.9841 7.60242 11.2399C7.65369 11.3745 7.65369 11.5495 7.65369 11.6976C7.71778 11.4149 7.79468 11.1322 7.88441 10.863C7.84596 10.8495 7.75623 10.7956 7.71778 10.6206C7.66651 10.3379 7.85877 9.5706 7.85877 9.5706C7.85877 9.5706 7.96132 9.82638 7.99977 10.1091C8.02541 10.2976 7.98695 10.5264 7.9485 10.688C8.07668 10.3783 8.21767 10.0822 8.39712 9.79946C8.37149 9.786 8.26894 9.71869 8.26894 9.51675C8.26894 9.22059 8.60221 8.52056 8.60221 8.52056C8.60221 8.52056 8.65348 8.80327 8.64066 9.07251C8.64066 9.30136 8.49966 9.59753 8.43558 9.71869C8.55094 9.54368 8.6663 9.36867 8.80729 9.20713C8.83293 9.09943 8.93547 8.85712 9.21746 8.65518C9.55073 8.42633 10.0891 8.21094 10.0891 8.21094C10.0891 8.21094 9.49945 8.80327 9.20464 9.03212C9.0252 9.1802 8.87138 9.23405 8.82011 9.24751C8.46121 9.6783 8.17922 10.1764 7.97413 10.7014C8.05104 10.5668 8.17922 10.3918 8.32022 10.3379C8.53812 10.2572 8.76884 10.2841 8.76884 10.2841C8.76884 10.2841 8.37149 10.7418 8.1664 10.863C8.03822 10.9303 7.9485 10.9033 7.91005 10.8764C7.79469 11.213 7.69214 11.563 7.64087 11.9265C7.67932 11.7784 7.78187 11.4822 7.9485 11.3745C8.14077 11.2534 8.37149 11.2264 8.37149 11.2264C8.37149 11.2264 8.06386 11.7649 7.88441 11.9399C7.76905 12.0476 7.65369 12.0207 7.62805 12.0072C7.5896 12.3034 7.56396 12.613 7.56396 12.9092C7.56396 13.0034 7.56396 13.0842 7.56396 13.1784C7.56396 13.1111 7.61524 12.6669 7.79468 12.4919C7.96132 12.3303 8.19204 12.2495 8.19204 12.2495C8.19204 12.2495 7.97413 12.8553 7.82032 13.0573C7.70496 13.2054 7.5896 13.1919 7.57678 13.1784C7.5896 13.5688 7.65369 13.9458 7.74341 14.2958C7.7306 14.2015 7.71778 13.7842 7.85877 13.5958C7.99977 13.3938 8.20485 13.2592 8.20485 13.2592C8.20485 13.2592 8.08949 13.9054 7.97413 14.1342C7.88441 14.3092 7.76905 14.3092 7.75623 14.3092C7.84596 14.6458 7.96132 14.9689 8.11513 15.2785C8.08949 15.1304 8.03822 14.8208 8.12795 14.6323C8.23049 14.4035 8.40994 14.2285 8.40994 14.2285C8.40994 14.2285 8.39712 14.8881 8.32022 15.1439C8.28176 15.292 8.19204 15.3458 8.15358 15.3593C8.33303 15.7093 8.55094 16.0324 8.82011 16.342C8.76884 16.2074 8.65348 15.8978 8.71757 15.6824C8.78166 15.4266 8.93547 15.2112 8.93547 15.2112C8.93547 15.2112 9.03801 15.8574 8.99956 16.1266C8.98674 16.2882 8.90983 16.3555 8.87138 16.3824C8.90983 16.4228 8.93547 16.4632 8.97392 16.5036C9.15337 16.692 9.34564 16.867 9.55073 17.0286C9.461 16.8939 9.33282 16.692 9.33282 16.5036C9.33282 16.2343 9.42255 15.992 9.42255 15.992C9.42255 15.992 9.6789 16.5843 9.71736 16.8536C9.74299 17.0016 9.69172 17.0824 9.66609 17.1228C9.89681 17.2978 10.1275 17.4459 10.3839 17.5805C10.2813 17.4997 10.025 17.2843 9.97371 17.042C9.92244 16.7863 9.97371 16.517 9.97371 16.517C9.97371 16.517 10.3454 17.0286 10.4352 17.2843C10.4992 17.4594 10.4352 17.5671 10.4223 17.594C10.6787 17.7286 10.9479 17.8498 11.217 17.9575C11.0889 17.8901 10.8069 17.7151 10.73 17.5132C10.6402 17.2709 10.6402 17.0016 10.6402 17.0016C10.6402 17.0016 11.1017 17.4459 11.2427 17.6882C11.3324 17.8498 11.2939 17.9709 11.2811 17.9978C11.6016 18.119 11.9348 18.2132 12.2809 18.2805C12.9218 18.4017 13.2935 18.6709 13.5114 18.8863C13.4986 18.8863 13.4858 18.8998 13.473 18.8998C13.2679 18.6844 12.8962 18.4421 12.2809 18.3209C11.9348 18.2536 11.6016 18.1594 11.2811 18.0382C11.2811 18.0786 11.2427 18.1998 11.0632 18.2536C10.7941 18.3344 10.0634 18.119 10.0634 18.119C10.0634 18.119 10.2942 17.9978 10.5377 17.9305C10.7171 17.8901 10.9735 17.944 11.1273 17.9844C10.871 17.8901 10.6274 17.769 10.3967 17.6478C10.3967 17.6613 10.3582 17.8094 10.166 17.8228C9.89681 17.8498 9.25592 17.5401 9.25592 17.5401C9.25592 17.5401 9.48664 17.4594 9.73017 17.4324C9.90962 17.419 10.1532 17.5132 10.2942 17.5805C10.0506 17.4459 9.8199 17.2978 9.61481 17.1363C9.602 17.1767 9.53791 17.2709 9.37128 17.2574C9.12774 17.3382 8.53812 16.9074 8.53812 16.9074C8.53812 16.9074 8.78166 16.867 9.01238 16.8805C9.12774 16.894 9.25592 16.9478 9.37128 17.0151C9.21746 16.8805 9.07647 16.7459 8.94829 16.6112C8.90983 16.5709 8.87138 16.5305 8.84575 16.4901C8.82011 16.517 8.7432 16.6112 8.58939 16.5709C8.34585 16.5036 7.83314 15.9651 7.83314 15.9651C7.83314 15.9651 8.07668 15.9651 8.3074 16.0324C8.43558 16.0728 8.56375 16.167 8.6663 16.2612C8.46121 16.0055 8.28176 15.7228 8.14077 15.44C8.11513 15.467 8.01259 15.5208 7.88441 15.44C7.66651 15.3054 7.29479 14.6323 7.29479 14.6323C7.29479 14.6323 7.52551 14.7131 7.7306 14.8343C7.82032 14.9285 7.91005 15.0631 7.98695 15.1843Z" fill="#377649"/>
<path d="M15.5388 9.84006C15.5388 9.84006 15.2696 9.44966 15.0132 9.42274C14.7825 9.39581 14.5646 9.47659 14.5646 9.47659C14.5646 9.47659 15.0389 9.84006 15.2696 9.90737C15.4491 9.96122 15.5388 9.84006 15.5388 9.84006Z" fill="#377649"/>
<path d="M16.2822 14.3769C16.2822 14.3769 16.3976 14.4576 16.5514 14.323C16.7436 14.1345 17 13.3941 17 13.3941C17 13.3941 16.7821 13.5287 16.6026 13.7038C16.3976 13.9057 16.2822 14.3769 16.2822 14.3769Z" fill="#377649"/>
<path d="M16.013 15.1844C16.2822 14.5786 16.4232 13.9324 16.4617 13.2324C16.4873 13.2459 16.6027 13.2728 16.718 13.1112C16.8718 12.8689 16.9872 12.0881 16.9872 12.0881C16.9872 12.0881 16.7949 12.2766 16.6539 12.492C16.5258 12.6805 16.4745 13.0305 16.4617 13.1651C16.4617 13.0978 16.4617 13.017 16.4617 12.9497C16.4617 12.6401 16.436 12.3304 16.3976 12.0208C16.436 12.0073 16.5258 11.9804 16.5898 11.8189C16.6924 11.5496 16.6283 10.7554 16.6283 10.7554C16.6283 10.7554 16.4873 10.9842 16.3976 11.24C16.3463 11.3746 16.3463 11.5496 16.3463 11.6977C16.2822 11.415 16.2053 11.1323 16.1156 10.8631C16.154 10.8496 16.2438 10.7958 16.2822 10.6208C16.3335 10.3381 16.1412 9.57072 16.1412 9.57072C16.1412 9.57072 16.0387 9.8265 16.0002 10.1092C15.9746 10.2977 16.013 10.5265 16.0515 10.6881C15.9233 10.3784 15.7823 10.0823 15.6029 9.79958C15.6285 9.78611 15.7311 9.7188 15.7311 9.51687C15.7311 9.22071 15.3978 8.52068 15.3978 8.52068C15.3978 8.52068 15.3465 8.80339 15.3593 9.07263C15.3593 9.30148 15.5003 9.59765 15.5644 9.7188C15.4491 9.5438 15.3337 9.36879 15.1927 9.20725C15.1671 9.09955 15.0645 8.85723 14.7825 8.6553C14.4493 8.42645 13.9109 8.21106 13.9109 8.21106C13.9109 8.21106 14.5005 8.80339 14.7954 9.03224C14.9748 9.18032 15.1286 9.23417 15.1799 9.24763C15.5388 9.67842 15.8208 10.1765 16.0259 10.7015C15.949 10.5669 15.8208 10.3919 15.6798 10.3381C15.4619 10.2573 15.2312 10.2842 15.2312 10.2842C15.2312 10.2842 15.6285 10.7419 15.8336 10.8631C15.9618 10.9304 16.0515 10.9035 16.09 10.8765C16.2053 11.2131 16.3079 11.5631 16.3591 11.9266C16.3207 11.7785 16.2181 11.4823 16.0515 11.3746C15.8592 11.2535 15.6285 11.2266 15.6285 11.2266C15.6285 11.2266 15.9361 11.765 16.1156 11.94C16.231 12.0477 16.3463 12.0208 16.3719 12.0073C16.4104 12.3035 16.436 12.6131 16.436 12.9093C16.436 13.0035 16.436 13.0843 16.436 13.1785C16.436 13.1112 16.3848 12.667 16.2053 12.492C16.0387 12.3304 15.808 12.2497 15.808 12.2497C15.808 12.2497 16.0259 12.8555 16.1797 13.0574C16.295 13.2055 16.4104 13.192 16.4232 13.1785C16.4104 13.5689 16.3463 13.9459 16.2566 14.2959C16.2694 14.2017 16.2822 13.7843 16.1412 13.5959C16.0002 13.3939 15.7951 13.2593 15.7951 13.2593C15.7951 13.2593 15.9105 13.9055 16.0259 14.1344C16.1156 14.3094 16.231 14.3094 16.2438 14.3094C16.154 14.6459 16.0387 14.969 15.8849 15.2786C15.9105 15.1305 15.9618 14.8209 15.8721 14.6324C15.7695 14.4036 15.5901 14.2286 15.5901 14.2286C15.5901 14.2286 15.6029 14.8882 15.6798 15.144C15.7182 15.2921 15.808 15.3459 15.8464 15.3594C15.667 15.7094 15.4491 16.0325 15.1799 16.3421C15.2312 16.2075 15.3465 15.8979 15.2824 15.6825C15.2183 15.4267 15.0645 15.2113 15.0645 15.2113C15.0645 15.2113 14.962 15.8575 15.0004 16.1267C15.0133 16.2883 15.0902 16.3556 15.1286 16.3825C15.0902 16.4229 15.0645 16.4633 15.0261 16.5037C14.8466 16.6921 14.6544 16.8671 14.4493 17.0287C14.539 16.8941 14.6672 16.6921 14.6672 16.5037C14.6672 16.2344 14.5775 15.9921 14.5775 15.9921C14.5775 15.9921 14.3211 16.5844 14.2826 16.8537C14.257 17.0018 14.3083 17.0825 14.3339 17.1229C14.1032 17.2979 13.8725 17.446 13.6161 17.5806C13.7187 17.4999 13.975 17.2845 14.0263 17.0422C14.0776 16.7864 14.0263 16.5171 14.0263 16.5171C14.0263 16.5171 13.6546 17.0287 13.5648 17.2845C13.5008 17.4595 13.5648 17.5672 13.5777 17.5941C13.3213 17.7287 13.0521 17.8499 12.783 17.9576C12.9111 17.8903 13.1931 17.7153 13.27 17.5133C13.3598 17.271 13.3598 17.0018 13.3598 17.0018C13.3598 17.0018 12.8983 17.446 12.7573 17.6883C12.6676 17.8499 12.7061 17.971 12.7189 17.998C12.3984 18.1191 12.0652 18.2133 11.7191 18.2807C11.0782 18.4018 10.7065 18.6711 10.4886 18.8864C10.5014 18.8864 10.5142 18.8999 10.527 18.8999C10.7321 18.6845 11.1038 18.4422 11.7191 18.321C12.0652 18.2537 12.3984 18.1595 12.7189 18.0383C12.7189 18.0787 12.7573 18.1999 12.9368 18.2537C13.2059 18.3345 13.9366 18.1191 13.9366 18.1191C13.9366 18.1191 13.7058 17.998 13.4623 17.9306C13.2829 17.8903 13.0265 17.9441 12.8727 17.9845C13.129 17.8903 13.3726 17.7691 13.6033 17.6479C13.6033 17.6614 13.6418 17.8095 13.834 17.8229C14.1032 17.8499 14.7441 17.5402 14.7441 17.5402C14.7441 17.5402 14.5134 17.4595 14.2698 17.4325C14.0904 17.4191 13.8468 17.5133 13.7058 17.5806C13.9494 17.446 14.1801 17.2979 14.3852 17.1364C14.398 17.1768 14.4621 17.271 14.6287 17.2575C14.8723 17.3383 15.4619 16.9075 15.4619 16.9075C15.4619 16.9075 15.2183 16.8671 14.9876 16.8806C14.8723 16.8941 14.7441 16.9479 14.6287 17.0152C14.7825 16.8806 14.9235 16.746 15.0517 16.6114C15.0902 16.571 15.1286 16.5306 15.1543 16.4902C15.1799 16.5171 15.2568 16.6114 15.4106 16.571C15.6541 16.5037 16.1669 15.9652 16.1669 15.9652C16.1669 15.9652 15.9233 15.9652 15.6926 16.0325C15.5644 16.0729 15.4362 16.1671 15.3337 16.2614C15.5388 16.0056 15.7182 15.7229 15.8592 15.4402C15.8849 15.4671 15.9874 15.5209 16.1156 15.4402C16.3335 15.3055 16.7052 14.6324 16.7052 14.6324C16.7052 14.6324 16.4745 14.7132 16.2694 14.8344C16.1797 14.9286 16.09 15.0632 16.013 15.1844Z" fill="#377649"/>
<path fill-rule="evenodd" clip-rule="evenodd" d="M12.0103 17.9351C12.4944 17.6874 13.625 16.9743 14.2495 16.1352C14.874 15.2962 15.0301 14.8576 15.0301 14.7432C15.2419 14.1903 15.5783 12.8252 15.2298 11.788C14.8812 10.7509 14.431 10.3136 14.2495 10.2246C14.0765 10.1024 13.6151 9.90596 13.1535 10.0981C12.6919 10.2901 12.366 10.4755 12.2607 10.5442C12.2353 10.5061 12.1497 10.4299 12.0103 10.4299V17.9351ZM12.0103 17.9351C11.5262 17.6874 10.3955 16.9743 9.77107 16.1352C9.1466 15.2962 8.99048 14.8576 8.99048 14.7432C8.77869 14.1903 8.44226 12.8252 8.79081 11.788C9.13936 10.7509 9.58954 10.3136 9.77107 10.2246C9.94408 10.1024 10.4055 9.90596 10.8671 10.0981C11.3287 10.2902 11.6546 10.4755 11.7599 10.5442C11.7853 10.5061 11.8709 10.4299 12.0103 10.4299V17.9351Z" fill="#F8D74C"/>
<path d="M10.6259 11.6472C10.3278 11.7131 10.1646 11.4915 10.1203 11.3725C9.76519 11.8036 9.6463 12.21 9.63125 12.3593C9.56632 12.8715 9.55743 14.186 10.0413 15.3473C10.5252 16.5086 11.562 17.3217 12.0199 17.5831V11.1514C11.905 11.1514 11.8422 11.0454 11.8251 10.9924C11.5495 11.1832 10.9239 11.5813 10.6259 11.6472Z" fill="#64BEDB"/>
<path d="M13.4139 11.6472C13.7119 11.7131 13.8751 11.4915 13.9195 11.3725C14.2745 11.8036 14.3934 12.21 14.4085 12.3593C14.4734 12.8715 14.4823 14.186 13.9984 15.3473C13.5145 16.5086 12.4778 17.3217 12.0199 17.5831V11.1514C12.1347 11.1514 12.1975 11.0454 12.2146 10.9924C12.4902 11.1832 13.1159 11.5813 13.4139 11.6472Z" fill="#64BEDB"/>
<path fill-rule="evenodd" clip-rule="evenodd" d="M11.9726 11.1451C11.9872 11.1492 12.003 11.1514 12.0199 11.1514C12.0367 11.1514 12.0525 11.1492 12.0672 11.1451C12.1088 11.1335 12.1416 11.1075 12.1659 11.0786C12.1911 11.0486 12.2072 11.0155 12.2146 10.9924C12.2392 11.0094 12.2666 11.0281 12.2963 11.0481C12.5992 11.2516 13.1424 11.5872 13.4139 11.6472C13.6435 11.698 13.7931 11.5781 13.87 11.4659C13.8929 11.4325 13.9093 11.3998 13.9195 11.3725C13.9429 11.401 13.9654 11.4294 13.9869 11.4577C14.2898 11.8563 14.3944 12.2199 14.4085 12.3593C14.4734 12.8715 14.4823 14.186 13.9984 15.3473C13.5307 16.4699 12.5463 17.2671 12.0675 17.5551C12.051 17.5651 12.0351 17.5743 12.0199 17.5831C12.0046 17.5743 11.9887 17.5651 11.9722 17.5551C11.4935 17.2671 10.5091 16.4699 10.0413 15.3473C9.55743 14.186 9.56632 12.8715 9.63125 12.3593C9.64531 12.2199 9.74992 11.8563 10.0529 11.4577C10.0743 11.4294 10.0968 11.401 10.1203 11.3725C10.1304 11.3998 10.1469 11.4325 10.1697 11.4659C10.2466 11.5781 10.3962 11.698 10.6259 11.6472C10.8973 11.5872 11.4405 11.2516 11.7435 11.0481C11.7731 11.0281 11.8005 11.0094 11.8251 10.9924C11.8325 11.0155 11.8486 11.0486 11.8739 11.0786C11.8982 11.1075 11.9309 11.1335 11.9726 11.1451ZM9.53658 12.3474C9.55452 12.1742 9.68317 11.7502 10.0482 11.307L10.1515 11.1815L10.2091 11.336C10.2254 11.3797 10.2665 11.4481 10.333 11.4974C10.3964 11.5445 10.4848 11.5761 10.6062 11.5493C10.7394 11.5198 10.9587 11.4112 11.188 11.2789C11.4134 11.1488 11.6365 11.0031 11.7726 10.9088L11.8758 10.8374L11.9154 10.9603C11.9197 10.9738 11.9323 10.9995 11.9525 11.0203C11.9714 11.0397 11.993 11.0513 12.0199 11.0513C12.0467 11.0513 12.0683 11.0397 12.0872 11.0203C12.1074 10.9995 12.12 10.9738 12.1243 10.9603L12.164 10.8374L12.2671 10.9088C12.4032 11.0031 12.6263 11.1488 12.8518 11.2789C13.081 11.4112 13.3003 11.5198 13.4335 11.5493C13.5549 11.5761 13.6434 11.5445 13.7068 11.4974C13.7732 11.4481 13.8144 11.3797 13.8307 11.336L13.8882 11.1815L13.9916 11.307C14.3566 11.7502 14.4852 12.1742 14.5032 12.3474C14.5694 12.8723 14.5783 14.2054 14.0858 15.3875C13.5904 16.5765 12.534 17.4036 12.0654 17.6711L12.0199 17.6971L11.9743 17.6711C11.5058 17.4036 10.4494 16.5765 9.95396 15.3875C9.46143 14.2054 9.4703 12.8723 9.53658 12.3474Z" fill="#F9F9F9"/>
<path d="M11.7046 14.838L11.5379 15.3886L11.5582 15.4353L12.5079 15.4548L12.3478 14.838V13.7244L12.4707 13.4951V13.0922L12.2882 13.0296V13.3269L12.1243 13.2683V13.014L12.0052 12.9788L11.9046 13.014V13.2683C11.8562 13.2852 11.7556 13.3207 11.7407 13.3269C11.7258 13.3332 11.7345 13.16 11.7407 13.0727L11.5379 13.1612V13.5618L11.7046 13.7244V14.838Z" fill="#F9F9F9"/>
<path d="M12.1271 13.9933C12.1271 13.9451 12.1643 13.9061 12.2102 13.9061L-nan -nanL12.2102 13.9061C12.256 13.9061 12.2932 13.9451 12.2932 13.9933V14.5271L12.1271 14.5029V13.9933Z" fill="#64BEDB"/>
<path d="M11.7963 12.2258C11.9153 12.4321 11.9897 12.7283 12.0121 12.8507C12.1311 12.7319 12.1211 12.4783 12.1013 12.3663L12.0121 11.9679C12.1846 11.9679 12.2228 12.1398 12.2203 12.2258C12.3145 12.1554 12.4583 11.9647 12.2798 11.7647C12.1013 11.5647 11.8831 11.6814 11.7963 11.7647C11.7467 11.8324 11.6773 12.0194 11.7963 12.2258Z" fill="#F9F9F9"/>
<path d="M13.1443 14.8952L12.993 15.3947L13.0115 15.4371L13.8732 15.4548L13.7279 14.8952V13.8847L13.8394 13.6767V13.3111L13.6738 13.2543V13.524L13.5251 13.4708V13.2401L13.417 13.2082L13.3258 13.2401V13.4708C13.2818 13.4862 13.1906 13.5184 13.1771 13.524C13.1635 13.5297 13.1714 13.3726 13.1771 13.2933L12.993 13.3736V13.7372L13.1443 13.8847V14.8952Z" fill="#F9F9F9"/>
<path d="M13.5277 14.1287C13.5277 14.085 13.5614 14.0495 13.603 14.0495L-nan -nanL13.603 14.0495C13.6446 14.0495 13.6783 14.085 13.6783 14.1287V14.613L13.5277 14.591V14.1287Z" fill="#64BEDB"/>
<path d="M13.2275 12.5249C13.3355 12.7121 13.403 12.9809 13.4233 13.0919C13.5313 12.9841 13.5222 12.754 13.5042 12.6524L13.4233 12.2909C13.5799 12.2909 13.6145 12.4469 13.6122 12.5249C13.6977 12.4611 13.8282 12.288 13.6662 12.1065C13.5042 11.9251 13.3063 12.0309 13.2275 12.1065C13.1825 12.168 13.1195 12.3377 13.2275 12.5249Z" fill="#F9F9F9"/>
<path d="M10.2862 14.8952L10.1348 15.3947L10.1533 15.4371L11.0151 15.4548L10.8697 14.8952V13.8847L10.9813 13.6767V13.3111L10.8157 13.2543V13.524L10.667 13.4708V13.2401L10.5588 13.2082L10.4676 13.2401V13.4708C10.4237 13.4862 10.3324 13.5184 10.3189 13.524C10.3054 13.5297 10.3133 13.3726 10.3189 13.2933L10.1348 13.3736V13.7372L10.2862 13.8847V14.8952Z" fill="#F9F9F9"/>
<path d="M10.6695 14.1287C10.6695 14.085 10.7033 14.0495 10.7449 14.0495L-nan -nanL10.7449 14.0495C10.7865 14.0495 10.8202 14.085 10.8202 14.1287V14.613L10.6695 14.591V14.1287Z" fill="#64BEDB"/>
<path d="M10.3694 12.5249C10.4773 12.7121 10.5448 12.9809 10.5651 13.0919C10.6731 12.9841 10.6641 12.754 10.6461 12.6524L10.5651 12.2909C10.7217 12.2909 10.7563 12.4469 10.754 12.5249C10.8395 12.4611 10.97 12.288 10.808 12.1065C10.6461 11.9251 10.4481 12.0309 10.3694 12.1065C10.3244 12.168 10.2614 12.3377 10.3694 12.5249Z" fill="#F9F9F9"/>
<mask id="mask0_440_1436" style="mask-type:alpha" maskUnits="userSpaceOnUse" x="9" y="10" width="6" height="8">
<path d="M10.6258 11.6475C10.3278 11.7134 10.1646 11.4918 10.1202 11.3727C9.76514 11.8039 9.64626 12.2103 9.6312 12.3596C9.56627 12.8717 9.55738 14.1863 10.0413 15.3476C10.5251 16.5089 11.5619 17.322 12.0198 17.5833V11.1517C11.905 11.1517 11.8421 11.0457 11.825 10.9927C11.5495 11.1835 10.9238 11.5816 10.6258 11.6475Z" fill="#A0CFEB"/>
<path d="M13.4138 11.6475C13.7118 11.7134 13.8751 11.4918 13.9194 11.3727C14.2745 11.8039 14.3934 12.2103 14.4084 12.3596C14.4734 12.8717 14.4822 14.1863 13.9984 15.3476C13.5145 16.5089 12.4777 17.322 12.0198 17.5833V11.1517C12.1346 11.1517 12.1975 11.0457 12.2146 10.9927C12.4902 11.1835 13.1158 11.5816 13.4138 11.6475Z" fill="#A0CFEB"/>
<path fill-rule="evenodd" clip-rule="evenodd" d="M11.9725 11.1454C11.9872 11.1494 12.0029 11.1517 12.0198 11.1517C12.0367 11.1517 12.0525 11.1494 12.0671 11.1454C12.1088 11.1338 12.1415 11.1077 12.1658 11.0789C12.1911 11.0489 12.2072 11.0157 12.2146 10.9927C12.2392 11.0097 12.2665 11.0284 12.2962 11.0483C12.5992 11.2519 13.1424 11.5875 13.4138 11.6475C13.6435 11.6983 13.7931 11.5783 13.8699 11.4662C13.8928 11.4328 13.9092 11.4 13.9194 11.3727C13.9429 11.4013 13.9654 11.4297 13.9868 11.458C14.2898 11.8566 14.3944 12.2202 14.4084 12.3596C14.4734 12.8717 14.4822 14.1863 13.9984 15.3476C13.5306 16.4702 12.5462 17.2674 12.0675 17.5554C12.051 17.5653 12.0351 17.5746 12.0198 17.5833C12.0046 17.5746 11.9887 17.5653 11.9722 17.5554C11.4934 17.2674 10.509 16.4702 10.0413 15.3476C9.55738 14.1863 9.56627 12.8717 9.6312 12.3596C9.64526 12.2202 9.74988 11.8566 10.0528 11.458C10.0743 11.4297 10.0967 11.4013 10.1202 11.3727C10.1304 11.4 10.1468 11.4328 10.1697 11.4662C10.2465 11.5783 10.3961 11.6983 10.6258 11.6475C10.8972 11.5875 11.4405 11.2519 11.7434 11.0483C11.7731 11.0284 11.8005 11.0097 11.825 10.9927C11.8325 11.0157 11.8486 11.0488 11.8738 11.0789C11.8981 11.1077 11.9309 11.1338 11.9725 11.1454Z" fill="#333333"/>
</mask>
<g mask="url(#mask0_440_1436)">
<path d="M11.0821 15.3861C10.8055 15.1526 10.3295 15.3582 10.1261 15.4903L9.93726 15.9133L11.7612 17.8305H12.0666L13.8665 16.2944L13.9273 15.4903C13.4118 15.2212 12.9906 15.3781 12.8444 15.4903C12.6767 15.3182 12.4135 15.1538 12.0666 15.1538C11.789 15.1538 11.4476 15.4172 11.3116 15.5489L11.0821 15.3861Z" fill="#3FB47C"/>
</g>
<path fill-rule="evenodd" clip-rule="evenodd" d="M11.7537 5.16484C11.7539 5.07356 11.8245 4.99976 11.9115 5L12.0519 5.00039C12.1382 5.00063 12.208 5.07435 12.2078 5.16504L12.2077 5.20296C12.2075 5.2729 12.2615 5.32969 12.3281 5.32969C12.3945 5.32969 12.4484 5.38627 12.4484 5.45608V5.67929C12.4484 5.74963 12.3941 5.80665 12.3271 5.80665C12.2603 5.80665 12.206 5.86346 12.2059 5.93367L12.2042 6.60743L12.437 6.4257C12.6364 6.27014 12.8781 6.18615 13.1264 6.18615C13.7647 6.18615 14.2822 6.72963 14.2822 7.40004V7.60903C14.2822 7.8197 14.2377 8.02774 14.1518 8.21813L13.9252 8.72057H14.3126L13.3607 10.0298C13.1178 10.1263 12.5351 10.2576 11.9993 10.2576C11.4636 10.2576 10.7047 10.0586 10.4125 9.96202L9.71324 8.82374L10.0841 8.76304L9.83835 8.21813C9.75249 8.02774 9.70795 7.8197 9.70795 7.60903V7.40004C9.70795 6.72963 10.2254 6.18615 10.8638 6.18615C11.1121 6.18615 11.3538 6.27014 11.5531 6.4257L11.7501 6.57942L11.7517 5.93183C11.7519 5.86275 11.6986 5.80665 11.6329 5.80665C11.5672 5.80665 11.514 5.75075 11.514 5.6818V5.4555C11.514 5.38602 11.5676 5.32969 11.6338 5.32969C11.6998 5.32969 11.7534 5.27356 11.7536 5.2042L11.7537 5.16484ZM11.7463 8.07846L11.6928 8.24489L11.289 7.88279L11.1019 8.32737L10.6686 8.07928V8.51371C10.6073 8.47616 10.4878 8.40443 10.4043 8.35878L10.2488 8.01395C10.1917 7.88738 10.1621 7.74908 10.1621 7.60903V7.40004C10.1621 6.99305 10.4762 6.66311 10.8638 6.66311C11.0145 6.66311 11.1612 6.7141 11.2823 6.80854L11.7486 7.17248L11.7463 8.07846ZM13.5495 8.43949L13.3572 8.51371L13.2883 8.07928L12.9042 8.32737L12.7171 7.88279L12.3625 8.24489L12.2009 7.91359L12.2027 7.20283L12.7079 6.80854C12.8289 6.7141 12.9756 6.66311 13.1264 6.66311C13.5139 6.66311 13.8281 6.99305 13.8281 7.40004V7.60903C13.8281 7.74908 13.7985 7.88738 13.7414 8.01395L13.5495 8.43949Z" fill="#F8D74C"/>
<path d="M10.077 16.9971C9.94661 16.9971 9.85469 17.1314 9.89625 17.2612L10.0202 17.6483H8.49295C8.32389 17.6483 8.23844 17.8623 8.35691 17.989L8.6703 18.3241L8.35691 18.6592C8.23844 18.7859 8.32389 18.9998 8.49295 18.9998H11.7127C11.818 18.9998 11.9034 18.9101 11.9034 18.7995V18.6096H13.6041C13.6839 18.6096 13.7552 18.5574 13.7829 18.4788L14.21 17.2668C14.256 17.1361 14.1639 16.9971 14.0311 16.9971H10.077Z" fill="#E6E6E6"/>
<path d="M15.794 17.989C15.9124 17.8623 15.827 17.6483 15.6579 17.6483H12.4382C12.3329 17.6483 12.2475 17.738 12.2475 17.8486V18.7995C12.2475 18.9101 12.3329 18.9998 12.4382 18.9998H15.6579C15.827 18.9998 15.9124 18.7859 15.794 18.6592L15.4806 18.3241L15.794 17.989Z" fill="#E6E6E6"/>
<path d="M10.5396 17.8122C10.5396 17.7218 10.613 17.6484 10.7034 17.6484H13.3364C13.4269 17.6484 13.5002 17.7218 13.5002 17.8122C13.5002 17.9027 13.4269 17.9761 13.3364 17.9761H10.7034C10.613 17.9761 10.5396 17.9027 10.5396 17.8122Z" fill="#F9F9F9"/>
</svg>
