<svg width="32" height="24" viewBox="0 0 32 24" fill="none" xmlns="http://www.w3.org/2000/svg">
<rect width="32" height="24" rx="2" fill="#F9F9F9"/>
<path d="M0 12H32V24H0V12Z" fill="#64BEDB"/>
<path d="M12.4612 9.83994C12.4612 9.83994 12.7304 9.44954 12.9868 9.42262C13.2175 9.3957 13.4354 9.47647 13.4354 9.47647C13.4354 9.47647 12.9611 9.83994 12.7304 9.90725C12.5509 9.9611 12.4612 9.83994 12.4612 9.83994Z" fill="#377649"/>
<path d="M11.7178 14.3767C11.7178 14.3767 11.6024 14.4575 11.4486 14.3229C11.2564 14.1344 11 13.394 11 13.394C11 13.394 11.2179 13.5286 11.3974 13.7036C11.6024 13.9056 11.7178 14.3767 11.7178 14.3767Z" fill="#377649"/>
<path d="M11.987 15.1843C11.7178 14.5785 11.5768 13.9323 11.5383 13.2323C11.5127 13.2457 11.3973 13.2727 11.282 13.1111C11.1282 12.8688 11.0128 12.088 11.0128 12.088C11.0128 12.088 11.2051 12.2765 11.3461 12.4919C11.4742 12.6803 11.5255 13.0303 11.5383 13.165C11.5383 13.0977 11.5383 13.0169 11.5383 12.9496C11.5383 12.6399 11.564 12.3303 11.6024 12.0207C11.564 12.0072 11.4742 11.9803 11.4102 11.8188C11.3076 11.5495 11.3717 10.7553 11.3717 10.7553C11.3717 10.7553 11.5127 10.9841 11.6024 11.2399C11.6537 11.3745 11.6537 11.5495 11.6537 11.6976C11.7178 11.4149 11.7947 11.1322 11.8844 10.863C11.846 10.8495 11.7562 10.7956 11.7178 10.6206C11.6665 10.3379 11.8588 9.5706 11.8588 9.5706C11.8588 9.5706 11.9613 9.82638 11.9998 10.1091C12.0254 10.2976 11.987 10.5264 11.9485 10.688C12.0767 10.3783 12.2177 10.0822 12.3971 9.79946C12.3715 9.786 12.2689 9.71869 12.2689 9.51675C12.2689 9.22059 12.6022 8.52056 12.6022 8.52056C12.6022 8.52056 12.6535 8.80327 12.6407 9.07251C12.6407 9.30136 12.4997 9.59753 12.4356 9.71869C12.5509 9.54368 12.6663 9.36867 12.8073 9.20713C12.8329 9.09943 12.9355 8.85712 13.2175 8.65518C13.5507 8.42633 14.0891 8.21094 14.0891 8.21094C14.0891 8.21094 13.4995 8.80327 13.2046 9.03212C13.0252 9.1802 12.8714 9.23405 12.8201 9.24751C12.4612 9.6783 12.1792 10.1764 11.9741 10.7014C12.051 10.5668 12.1792 10.3918 12.3202 10.3379C12.5381 10.2572 12.7688 10.2841 12.7688 10.2841C12.7688 10.2841 12.3715 10.7418 12.1664 10.863C12.0382 10.9303 11.9485 10.9033 11.91 10.8764C11.7947 11.213 11.6921 11.563 11.6409 11.9265C11.6793 11.7784 11.7819 11.4822 11.9485 11.3745C12.1408 11.2534 12.3715 11.2264 12.3715 11.2264C12.3715 11.2264 12.0639 11.7649 11.8844 11.9399C11.769 12.0476 11.6537 12.0207 11.6281 12.0072C11.5896 12.3034 11.564 12.613 11.564 12.9092C11.564 13.0034 11.564 13.0842 11.564 13.1784C11.564 13.1111 11.6152 12.6669 11.7947 12.4919C11.9613 12.3303 12.192 12.2495 12.192 12.2495C12.192 12.2495 11.9741 12.8553 11.8203 13.0573C11.705 13.2054 11.5896 13.1919 11.5768 13.1784C11.5896 13.5688 11.6537 13.9458 11.7434 14.2958C11.7306 14.2015 11.7178 13.7842 11.8588 13.5958C11.9998 13.3938 12.2049 13.2592 12.2049 13.2592C12.2049 13.2592 12.0895 13.9054 11.9741 14.1342C11.8844 14.3092 11.769 14.3092 11.7562 14.3092C11.846 14.6458 11.9613 14.9689 12.1151 15.2785C12.0895 15.1304 12.0382 14.8208 12.1279 14.6323C12.2305 14.4035 12.4099 14.2285 12.4099 14.2285C12.4099 14.2285 12.3971 14.8881 12.3202 15.1439C12.2818 15.292 12.192 15.3458 12.1536 15.3593C12.333 15.7093 12.5509 16.0324 12.8201 16.342C12.7688 16.2074 12.6535 15.8978 12.7176 15.6824C12.7817 15.4266 12.9355 15.2112 12.9355 15.2112C12.9355 15.2112 13.038 15.8574 12.9996 16.1266C12.9867 16.2882 12.9098 16.3555 12.8714 16.3824C12.9098 16.4228 12.9355 16.4632 12.9739 16.5036C13.1534 16.692 13.3456 16.867 13.5507 17.0286C13.461 16.8939 13.3328 16.692 13.3328 16.5036C13.3328 16.2343 13.4225 15.992 13.4225 15.992C13.4225 15.992 13.6789 16.5843 13.7174 16.8536C13.743 17.0016 13.6917 17.0824 13.6661 17.1228C13.8968 17.2978 14.1275 17.4459 14.3839 17.5805C14.2813 17.4997 14.025 17.2843 13.9737 17.042C13.9224 16.7863 13.9737 16.517 13.9737 16.517C13.9737 16.517 14.3454 17.0286 14.4352 17.2843C14.4992 17.4594 14.4352 17.5671 14.4223 17.594C14.6787 17.7286 14.9479 17.8498 15.217 17.9575C15.0889 17.8901 14.8069 17.7151 14.73 17.5132C14.6402 17.2709 14.6402 17.0016 14.6402 17.0016C14.6402 17.0016 15.1017 17.4459 15.2427 17.6882C15.3324 17.8498 15.2939 17.9709 15.2811 17.9978C15.6016 18.119 15.9348 18.2132 16.2809 18.2805C16.9218 18.4017 17.2935 18.6709 17.5114 18.8863C17.4986 18.8863 17.4858 18.8998 17.473 18.8998C17.2679 18.6844 16.8962 18.4421 16.2809 18.3209C15.9348 18.2536 15.6016 18.1594 15.2811 18.0382C15.2811 18.0786 15.2427 18.1998 15.0632 18.2536C14.7941 18.3344 14.0634 18.119 14.0634 18.119C14.0634 18.119 14.2942 17.9978 14.5377 17.9305C14.7171 17.8901 14.9735 17.944 15.1273 17.9844C14.871 17.8901 14.6274 17.769 14.3967 17.6478C14.3967 17.6613 14.3582 17.8094 14.166 17.8228C13.8968 17.8498 13.2559 17.5401 13.2559 17.5401C13.2559 17.5401 13.4866 17.4594 13.7302 17.4324C13.9096 17.419 14.1532 17.5132 14.2942 17.5805C14.0506 17.4459 13.8199 17.2978 13.6148 17.1363C13.602 17.1767 13.5379 17.2709 13.3713 17.2574C13.1277 17.3382 12.5381 16.9074 12.5381 16.9074C12.5381 16.9074 12.7817 16.867 13.0124 16.8805C13.1277 16.894 13.2559 16.9478 13.3713 17.0151C13.2175 16.8805 13.0765 16.7459 12.9483 16.6112C12.9098 16.5709 12.8714 16.5305 12.8457 16.4901C12.8201 16.517 12.7432 16.6112 12.5894 16.5709C12.3459 16.5036 11.8331 15.9651 11.8331 15.9651C11.8331 15.9651 12.0767 15.9651 12.3074 16.0324C12.4356 16.0728 12.5638 16.167 12.6663 16.2612C12.4612 16.0055 12.2818 15.7228 12.1408 15.44C12.1151 15.467 12.0126 15.5208 11.8844 15.44C11.6665 15.3054 11.2948 14.6323 11.2948 14.6323C11.2948 14.6323 11.5255 14.7131 11.7306 14.8343C11.8203 14.9285 11.91 15.0631 11.987 15.1843Z" fill="#377649"/>
<path d="M19.5388 9.84006C19.5388 9.84006 19.2696 9.44966 19.0132 9.42274C18.7825 9.39581 18.5646 9.47659 18.5646 9.47659C18.5646 9.47659 19.0389 9.84006 19.2696 9.90737C19.4491 9.96122 19.5388 9.84006 19.5388 9.84006Z" fill="#377649"/>
<path d="M20.2822 14.3769C20.2822 14.3769 20.3976 14.4576 20.5514 14.323C20.7436 14.1345 21 13.3941 21 13.3941C21 13.3941 20.7821 13.5287 20.6026 13.7038C20.3976 13.9057 20.2822 14.3769 20.2822 14.3769Z" fill="#377649"/>
<path d="M20.013 15.1844C20.2822 14.5786 20.4232 13.9324 20.4617 13.2324C20.4873 13.2459 20.6027 13.2728 20.718 13.1112C20.8718 12.8689 20.9872 12.0881 20.9872 12.0881C20.9872 12.0881 20.7949 12.2766 20.6539 12.492C20.5258 12.6805 20.4745 13.0305 20.4617 13.1651C20.4617 13.0978 20.4617 13.017 20.4617 12.9497C20.4617 12.6401 20.436 12.3304 20.3976 12.0208C20.436 12.0073 20.5258 11.9804 20.5898 11.8189C20.6924 11.5496 20.6283 10.7554 20.6283 10.7554C20.6283 10.7554 20.4873 10.9842 20.3976 11.24C20.3463 11.3746 20.3463 11.5496 20.3463 11.6977C20.2822 11.415 20.2053 11.1323 20.1156 10.8631C20.154 10.8496 20.2438 10.7958 20.2822 10.6208C20.3335 10.3381 20.1412 9.57072 20.1412 9.57072C20.1412 9.57072 20.0387 9.8265 20.0002 10.1092C19.9746 10.2977 20.013 10.5265 20.0515 10.6881C19.9233 10.3784 19.7823 10.0823 19.6029 9.79958C19.6285 9.78611 19.7311 9.7188 19.7311 9.51687C19.7311 9.22071 19.3978 8.52068 19.3978 8.52068C19.3978 8.52068 19.3465 8.80339 19.3593 9.07263C19.3593 9.30148 19.5003 9.59765 19.5644 9.7188C19.4491 9.5438 19.3337 9.36879 19.1927 9.20725C19.1671 9.09955 19.0645 8.85723 18.7825 8.6553C18.4493 8.42645 17.9109 8.21106 17.9109 8.21106C17.9109 8.21106 18.5005 8.80339 18.7954 9.03224C18.9748 9.18032 19.1286 9.23417 19.1799 9.24763C19.5388 9.67842 19.8208 10.1765 20.0259 10.7015C19.949 10.5669 19.8208 10.3919 19.6798 10.3381C19.4619 10.2573 19.2312 10.2842 19.2312 10.2842C19.2312 10.2842 19.6285 10.7419 19.8336 10.8631C19.9618 10.9304 20.0515 10.9035 20.09 10.8765C20.2053 11.2131 20.3079 11.5631 20.3591 11.9266C20.3207 11.7785 20.2181 11.4823 20.0515 11.3746C19.8592 11.2535 19.6285 11.2266 19.6285 11.2266C19.6285 11.2266 19.9361 11.765 20.1156 11.94C20.231 12.0477 20.3463 12.0208 20.3719 12.0073C20.4104 12.3035 20.436 12.6131 20.436 12.9093C20.436 13.0035 20.436 13.0843 20.436 13.1785C20.436 13.1112 20.3848 12.667 20.2053 12.492C20.0387 12.3304 19.808 12.2497 19.808 12.2497C19.808 12.2497 20.0259 12.8555 20.1797 13.0574C20.295 13.2055 20.4104 13.192 20.4232 13.1785C20.4104 13.5689 20.3463 13.9459 20.2566 14.2959C20.2694 14.2017 20.2822 13.7843 20.1412 13.5959C20.0002 13.3939 19.7951 13.2593 19.7951 13.2593C19.7951 13.2593 19.9105 13.9055 20.0259 14.1344C20.1156 14.3094 20.231 14.3094 20.2438 14.3094C20.154 14.6459 20.0387 14.969 19.8849 15.2786C19.9105 15.1305 19.9618 14.8209 19.8721 14.6324C19.7695 14.4036 19.5901 14.2286 19.5901 14.2286C19.5901 14.2286 19.6029 14.8882 19.6798 15.144C19.7182 15.2921 19.808 15.3459 19.8464 15.3594C19.667 15.7094 19.4491 16.0325 19.1799 16.3421C19.2312 16.2075 19.3465 15.8979 19.2824 15.6825C19.2183 15.4267 19.0645 15.2113 19.0645 15.2113C19.0645 15.2113 18.962 15.8575 19.0004 16.1267C19.0133 16.2883 19.0902 16.3556 19.1286 16.3825C19.0902 16.4229 19.0645 16.4633 19.0261 16.5037C18.8466 16.6921 18.6544 16.8671 18.4493 17.0287C18.539 16.8941 18.6672 16.6921 18.6672 16.5037C18.6672 16.2344 18.5775 15.9921 18.5775 15.9921C18.5775 15.9921 18.3211 16.5844 18.2826 16.8537C18.257 17.0018 18.3083 17.0825 18.3339 17.1229C18.1032 17.2979 17.8725 17.446 17.6161 17.5806C17.7187 17.4999 17.975 17.2845 18.0263 17.0422C18.0776 16.7864 18.0263 16.5171 18.0263 16.5171C18.0263 16.5171 17.6546 17.0287 17.5648 17.2845C17.5008 17.4595 17.5648 17.5672 17.5777 17.5941C17.3213 17.7287 17.0521 17.8499 16.783 17.9576C16.9111 17.8903 17.1931 17.7153 17.27 17.5133C17.3598 17.271 17.3598 17.0018 17.3598 17.0018C17.3598 17.0018 16.8983 17.446 16.7573 17.6883C16.6676 17.8499 16.7061 17.971 16.7189 17.998C16.3984 18.1191 16.0652 18.2133 15.7191 18.2807C15.0782 18.4018 14.7065 18.6711 14.4886 18.8864C14.5014 18.8864 14.5142 18.8999 14.527 18.8999C14.7321 18.6845 15.1038 18.4422 15.7191 18.321C16.0652 18.2537 16.3984 18.1595 16.7189 18.0383C16.7189 18.0787 16.7573 18.1999 16.9368 18.2537C17.2059 18.3345 17.9366 18.1191 17.9366 18.1191C17.9366 18.1191 17.7058 17.998 17.4623 17.9306C17.2829 17.8903 17.0265 17.9441 16.8727 17.9845C17.129 17.8903 17.3726 17.7691 17.6033 17.6479C17.6033 17.6614 17.6418 17.8095 17.834 17.8229C18.1032 17.8499 18.7441 17.5402 18.7441 17.5402C18.7441 17.5402 18.5134 17.4595 18.2698 17.4325C18.0904 17.4191 17.8468 17.5133 17.7058 17.5806C17.9494 17.446 18.1801 17.2979 18.3852 17.1364C18.398 17.1768 18.4621 17.271 18.6287 17.2575C18.8723 17.3383 19.4619 16.9075 19.4619 16.9075C19.4619 16.9075 19.2183 16.8671 18.9876 16.8806C18.8723 16.8941 18.7441 16.9479 18.6287 17.0152C18.7825 16.8806 18.9235 16.746 19.0517 16.6114C19.0902 16.571 19.1286 16.5306 19.1543 16.4902C19.1799 16.5171 19.2568 16.6114 19.4106 16.571C19.6541 16.5037 20.1669 15.9652 20.1669 15.9652C20.1669 15.9652 19.9233 15.9652 19.6926 16.0325C19.5644 16.0729 19.4362 16.1671 19.3337 16.2614C19.5388 16.0056 19.7182 15.7229 19.8592 15.4402C19.8849 15.4671 19.9874 15.5209 20.1156 15.4402C20.3335 15.3055 20.7052 14.6324 20.7052 14.6324C20.7052 14.6324 20.4745 14.7132 20.2694 14.8344C20.1797 14.9286 20.09 15.0632 20.013 15.1844Z" fill="#377649"/>
<path fill-rule="evenodd" clip-rule="evenodd" d="M16.0103 17.9351C16.4944 17.6874 17.625 16.9743 18.2495 16.1352C18.874 15.2962 19.0301 14.8576 19.0301 14.7432C19.2419 14.1903 19.5783 12.8252 19.2298 11.788C18.8812 10.7509 18.431 10.3136 18.2495 10.2246C18.0765 10.1024 17.6151 9.90596 17.1535 10.0981C16.6919 10.2901 16.366 10.4755 16.2607 10.5442C16.2353 10.5061 16.1497 10.4299 16.0103 10.4299V17.9351ZM16.0103 17.9351C15.5262 17.6874 14.3955 16.9743 13.7711 16.1352C13.1466 15.2962 12.9905 14.8576 12.9905 14.7432C12.7787 14.1903 12.4423 12.8252 12.7908 11.788C13.1394 10.7509 13.5895 10.3136 13.7711 10.2246C13.9441 10.1024 14.4055 9.90596 14.8671 10.0981C15.3287 10.2902 15.6546 10.4755 15.7599 10.5442C15.7853 10.5061 15.8709 10.4299 16.0103 10.4299V17.9351Z" fill="#F8D74C"/>
<path d="M14.6259 11.6472C14.3278 11.7131 14.1646 11.4915 14.1203 11.3725C13.7652 11.8036 13.6463 12.21 13.6312 12.3593C13.5663 12.8715 13.5574 14.186 14.0413 15.3473C14.5252 16.5086 15.562 17.3217 16.0199 17.5831V11.1514C15.905 11.1514 15.8422 11.0454 15.8251 10.9924C15.5495 11.1832 14.9239 11.5813 14.6259 11.6472Z" fill="#64BEDB"/>
<path d="M17.4139 11.6472C17.7119 11.7131 17.8751 11.4915 17.9195 11.3725C18.2745 11.8036 18.3934 12.21 18.4085 12.3593C18.4734 12.8715 18.4823 14.186 17.9984 15.3473C17.5145 16.5086 16.4778 17.3217 16.0199 17.5831V11.1514C16.1347 11.1514 16.1975 11.0454 16.2146 10.9924C16.4902 11.1832 17.1159 11.5813 17.4139 11.6472Z" fill="#64BEDB"/>
<path fill-rule="evenodd" clip-rule="evenodd" d="M15.9726 11.1451C15.9872 11.1492 16.003 11.1514 16.0199 11.1514C16.0367 11.1514 16.0525 11.1492 16.0672 11.1451C16.1088 11.1335 16.1416 11.1075 16.1659 11.0786C16.1911 11.0486 16.2072 11.0155 16.2146 10.9924C16.2392 11.0094 16.2666 11.0281 16.2963 11.0481C16.5992 11.2516 17.1424 11.5872 17.4139 11.6472C17.6435 11.698 17.7931 11.5781 17.87 11.4659C17.8929 11.4325 17.9093 11.3998 17.9195 11.3725C17.9429 11.401 17.9654 11.4294 17.9869 11.4577C18.2898 11.8563 18.3944 12.2199 18.4085 12.3593C18.4734 12.8715 18.4823 14.186 17.9984 15.3473C17.5307 16.4699 16.5463 17.2671 16.0675 17.5551C16.051 17.5651 16.0351 17.5743 16.0199 17.5831C16.0046 17.5743 15.9887 17.5651 15.9722 17.5551C15.4935 17.2671 14.5091 16.4699 14.0413 15.3473C13.5574 14.186 13.5663 12.8715 13.6312 12.3593C13.6453 12.2199 13.7499 11.8563 14.0529 11.4577C14.0743 11.4294 14.0968 11.401 14.1203 11.3725C14.1304 11.3998 14.1469 11.4325 14.1697 11.4659C14.2466 11.5781 14.3962 11.698 14.6259 11.6472C14.8973 11.5872 15.4405 11.2516 15.7435 11.0481C15.7731 11.0281 15.8005 11.0094 15.8251 10.9924C15.8325 11.0155 15.8486 11.0486 15.8739 11.0786C15.8982 11.1075 15.9309 11.1335 15.9726 11.1451ZM13.5366 12.3474C13.5545 12.1742 13.6832 11.7502 14.0482 11.307L14.1515 11.1815L14.2091 11.336C14.2254 11.3797 14.2665 11.4481 14.333 11.4974C14.3964 11.5445 14.4848 11.5761 14.6062 11.5493C14.7394 11.5198 14.9587 11.4112 15.188 11.2789C15.4134 11.1488 15.6365 11.0031 15.7726 10.9088L15.8758 10.8374L15.9154 10.9603C15.9197 10.9738 15.9323 10.9995 15.9525 11.0203C15.9714 11.0397 15.993 11.0513 16.0199 11.0513C16.0467 11.0513 16.0683 11.0397 16.0872 11.0203C16.1074 10.9995 16.12 10.9738 16.1243 10.9603L16.164 10.8374L16.2671 10.9088C16.4032 11.0031 16.6263 11.1488 16.8518 11.2789C17.081 11.4112 17.3003 11.5198 17.4335 11.5493C17.5549 11.5761 17.6434 11.5445 17.7068 11.4974C17.7732 11.4481 17.8144 11.3797 17.8307 11.336L17.8882 11.1815L17.9916 11.307C18.3566 11.7502 18.4852 12.1742 18.5032 12.3474C18.5694 12.8723 18.5783 14.2054 18.0858 15.3875C17.5904 16.5765 16.534 17.4036 16.0654 17.6711L16.0199 17.6971L15.9743 17.6711C15.5058 17.4036 14.4494 16.5765 13.954 15.3875C13.4614 14.2054 13.4703 12.8723 13.5366 12.3474Z" fill="#F9F9F9"/>
<path d="M15.7046 14.838L15.5379 15.3886L15.5582 15.4353L16.5079 15.4548L16.3478 14.838V13.7244L16.4707 13.4951V13.0922L16.2882 13.0296V13.3269L16.1243 13.2683V13.014L16.0052 12.9788L15.9046 13.014V13.2683C15.8562 13.2852 15.7556 13.3207 15.7407 13.3269C15.7258 13.3332 15.7345 13.16 15.7407 13.0727L15.5379 13.1612V13.5618L15.7046 13.7244V14.838Z" fill="#F9F9F9"/>
<path d="M16.1271 13.9933C16.1271 13.9451 16.1643 13.9061 16.2102 13.9061L-nan -nanL16.2102 13.9061C16.256 13.9061 16.2932 13.9451 16.2932 13.9933V14.5271L16.1271 14.5029V13.9933Z" fill="#64BEDB"/>
<path d="M15.7963 12.2258C15.9153 12.4321 15.9897 12.7283 16.0121 12.8507C16.1311 12.7319 16.1211 12.4783 16.1013 12.3663L16.0121 11.9679C16.1846 11.9679 16.2228 12.1398 16.2203 12.2258C16.3145 12.1554 16.4583 11.9647 16.2798 11.7647C16.1013 11.5647 15.8831 11.6814 15.7963 11.7647C15.7467 11.8324 15.6773 12.0194 15.7963 12.2258Z" fill="#F9F9F9"/>
<path d="M17.1443 14.8952L16.993 15.3947L17.0115 15.4371L17.8732 15.4548L17.7279 14.8952V13.8847L17.8394 13.6767V13.3111L17.6738 13.2543V13.524L17.5251 13.4708V13.2401L17.417 13.2082L17.3258 13.2401V13.4708C17.2818 13.4862 17.1906 13.5184 17.1771 13.524C17.1635 13.5297 17.1714 13.3726 17.1771 13.2933L16.993 13.3736V13.7372L17.1443 13.8847V14.8952Z" fill="#F9F9F9"/>
<path d="M17.5277 14.1287C17.5277 14.085 17.5614 14.0495 17.603 14.0495L-nan -nanL17.603 14.0495C17.6446 14.0495 17.6783 14.085 17.6783 14.1287V14.613L17.5277 14.591V14.1287Z" fill="#64BEDB"/>
<path d="M17.2275 12.5249C17.3355 12.7121 17.403 12.9809 17.4233 13.0919C17.5313 12.9841 17.5222 12.754 17.5042 12.6524L17.4233 12.2909C17.5799 12.2909 17.6145 12.4469 17.6122 12.5249C17.6977 12.4611 17.8282 12.288 17.6662 12.1065C17.5042 11.9251 17.3063 12.0309 17.2275 12.1065C17.1825 12.168 17.1195 12.3377 17.2275 12.5249Z" fill="#F9F9F9"/>
<path d="M14.2862 14.8952L14.1348 15.3947L14.1533 15.4371L15.0151 15.4548L14.8697 14.8952V13.8847L14.9813 13.6767V13.3111L14.8157 13.2543V13.524L14.667 13.4708V13.2401L14.5588 13.2082L14.4676 13.2401V13.4708C14.4237 13.4862 14.3324 13.5184 14.3189 13.524C14.3054 13.5297 14.3133 13.3726 14.3189 13.2933L14.1348 13.3736V13.7372L14.2862 13.8847V14.8952Z" fill="#F9F9F9"/>
<path d="M14.6695 14.1287C14.6695 14.085 14.7033 14.0495 14.7449 14.0495L-nan -nanL14.7449 14.0495C14.7865 14.0495 14.8202 14.085 14.8202 14.1287V14.613L14.6695 14.591V14.1287Z" fill="#64BEDB"/>
<path d="M14.3694 12.5249C14.4773 12.7121 14.5448 12.9809 14.5651 13.0919C14.6731 12.9841 14.6641 12.754 14.6461 12.6524L14.5651 12.2909C14.7217 12.2909 14.7563 12.4469 14.754 12.5249C14.8395 12.4611 14.97 12.288 14.808 12.1065C14.6461 11.9251 14.4481 12.0309 14.3694 12.1065C14.3244 12.168 14.2614 12.3377 14.3694 12.5249Z" fill="#F9F9F9"/>
<mask id="mask0_440_1439" style="mask-type:alpha" maskUnits="userSpaceOnUse" x="13" y="10" width="6" height="8">
<path d="M14.6258 11.6475C14.3278 11.7134 14.1646 11.4918 14.1202 11.3727C13.7651 11.8039 13.6463 12.2103 13.6312 12.3596C13.5663 12.8717 13.5574 14.1863 14.0413 15.3476C14.5251 16.5089 15.5619 17.322 16.0198 17.5833V11.1517C15.905 11.1517 15.8421 11.0457 15.825 10.9927C15.5495 11.1835 14.9238 11.5816 14.6258 11.6475Z" fill="#A0CFEB"/>
<path d="M17.4138 11.6475C17.7118 11.7134 17.8751 11.4918 17.9194 11.3727C18.2745 11.8039 18.3934 12.2103 18.4084 12.3596C18.4734 12.8717 18.4822 14.1863 17.9984 15.3476C17.5145 16.5089 16.4777 17.322 16.0198 17.5833V11.1517C16.1346 11.1517 16.1975 11.0457 16.2146 10.9927C16.4902 11.1835 17.1158 11.5816 17.4138 11.6475Z" fill="#A0CFEB"/>
<path fill-rule="evenodd" clip-rule="evenodd" d="M15.9725 11.1454C15.9872 11.1494 16.0029 11.1517 16.0198 11.1517C16.0367 11.1517 16.0525 11.1494 16.0671 11.1454C16.1088 11.1338 16.1415 11.1077 16.1658 11.0789C16.1911 11.0489 16.2072 11.0157 16.2146 10.9927C16.2392 11.0097 16.2665 11.0284 16.2962 11.0483C16.5992 11.2519 17.1424 11.5875 17.4138 11.6475C17.6435 11.6983 17.7931 11.5783 17.8699 11.4662C17.8928 11.4328 17.9092 11.4 17.9194 11.3727C17.9429 11.4013 17.9654 11.4297 17.9868 11.458C18.2898 11.8566 18.3944 12.2202 18.4084 12.3596C18.4734 12.8717 18.4822 14.1863 17.9984 15.3476C17.5306 16.4702 16.5462 17.2674 16.0675 17.5554C16.051 17.5653 16.0351 17.5746 16.0198 17.5833C16.0046 17.5746 15.9887 17.5653 15.9722 17.5554C15.4934 17.2674 14.509 16.4702 14.0413 15.3476C13.5574 14.1863 13.5663 12.8717 13.6312 12.3596C13.6453 12.2202 13.7499 11.8566 14.0528 11.458C14.0743 11.4297 14.0967 11.4013 14.1202 11.3727C14.1304 11.4 14.1468 11.4328 14.1697 11.4662C14.2465 11.5783 14.3961 11.6983 14.6258 11.6475C14.8972 11.5875 15.4405 11.2519 15.7434 11.0483C15.7731 11.0284 15.8005 11.0097 15.825 10.9927C15.8325 11.0157 15.8486 11.0488 15.8738 11.0789C15.8981 11.1077 15.9309 11.1338 15.9725 11.1454Z" fill="#333333"/>
</mask>
<g mask="url(#mask0_440_1439)">
<path d="M15.0821 15.3861C14.8055 15.1526 14.3295 15.3582 14.1261 15.4903L13.9373 15.9133L15.7612 17.8305H16.0666L17.8665 16.2944L17.9273 15.4903C17.4118 15.2212 16.9906 15.3781 16.8444 15.4903C16.6767 15.3182 16.4135 15.1538 16.0666 15.1538C15.789 15.1538 15.4476 15.4172 15.3116 15.5489L15.0821 15.3861Z" fill="#3FB47C"/>
</g>
<path fill-rule="evenodd" clip-rule="evenodd" d="M15.7537 5.16484C15.7539 5.07356 15.8245 4.99976 15.9115 5L16.0519 5.00039C16.1382 5.00063 16.208 5.07435 16.2078 5.16504L16.2077 5.20296C16.2075 5.2729 16.2615 5.32969 16.3281 5.32969C16.3945 5.32969 16.4484 5.38627 16.4484 5.45608V5.67929C16.4484 5.74963 16.3941 5.80665 16.3271 5.80665C16.2603 5.80665 16.206 5.86346 16.2059 5.93367L16.2042 6.60743L16.437 6.4257C16.6364 6.27014 16.8781 6.18615 17.1264 6.18615C17.7647 6.18615 18.2822 6.72963 18.2822 7.40004V7.60903C18.2822 7.8197 18.2377 8.02774 18.1518 8.21813L17.9252 8.72057H18.3126L17.3607 10.0298C17.1178 10.1263 16.5351 10.2576 15.9993 10.2576C15.4636 10.2576 14.7047 10.0586 14.4125 9.96202L13.7132 8.82374L14.0841 8.76304L13.8384 8.21813C13.7525 8.02774 13.7079 7.8197 13.7079 7.60903V7.40004C13.7079 6.72963 14.2254 6.18615 14.8638 6.18615C15.1121 6.18615 15.3538 6.27014 15.5531 6.4257L15.7501 6.57942L15.7517 5.93183C15.7519 5.86275 15.6986 5.80665 15.6329 5.80665C15.5672 5.80665 15.514 5.75075 15.514 5.6818V5.4555C15.514 5.38602 15.5676 5.32969 15.6338 5.32969C15.6998 5.32969 15.7534 5.27356 15.7536 5.2042L15.7537 5.16484ZM15.7463 8.07846L15.6928 8.24489L15.289 7.88279L15.1019 8.32737L14.6686 8.07928V8.51371C14.6073 8.47616 14.4878 8.40443 14.4043 8.35878L14.2488 8.01395C14.1917 7.88738 14.1621 7.74908 14.1621 7.60903V7.40004C14.1621 6.99305 14.4762 6.66311 14.8638 6.66311C15.0145 6.66311 15.1612 6.7141 15.2823 6.80854L15.7486 7.17248L15.7463 8.07846ZM17.5495 8.43949L17.3572 8.51371L17.2883 8.07928L16.9042 8.32737L16.7171 7.88279L16.3625 8.24489L16.2009 7.91359L16.2027 7.20283L16.7079 6.80854C16.8289 6.7141 16.9756 6.66311 17.1264 6.66311C17.5139 6.66311 17.8281 6.99305 17.8281 7.40004V7.60903C17.8281 7.74908 17.7985 7.88738 17.7414 8.01395L17.5495 8.43949Z" fill="#F8D74C"/>
<path d="M14.077 16.9971C13.9466 16.9971 13.8547 17.1314 13.8963 17.2612L14.0202 17.6483H12.4929C12.3239 17.6483 12.2384 17.8623 12.3569 17.989L12.6703 18.3241L12.3569 18.6592C12.2384 18.7859 12.3239 18.9998 12.4929 18.9998H15.7127C15.818 18.9998 15.9034 18.9101 15.9034 18.7995V18.6096H17.6041C17.6839 18.6096 17.7552 18.5574 17.7829 18.4788L18.21 17.2668C18.256 17.1361 18.1639 16.9971 18.0311 16.9971H14.077Z" fill="#E6E6E6"/>
<path d="M19.794 17.989C19.9124 17.8623 19.827 17.6483 19.6579 17.6483H16.4382C16.3329 17.6483 16.2475 17.738 16.2475 17.8486V18.7995C16.2475 18.9101 16.3329 18.9998 16.4382 18.9998H19.6579C19.827 18.9998 19.9124 18.7859 19.794 18.6592L19.4806 18.3241L19.794 17.989Z" fill="#E6E6E6"/>
<path d="M14.5396 17.8122C14.5396 17.7218 14.613 17.6484 14.7034 17.6484H17.3364C17.4269 17.6484 17.5002 17.7218 17.5002 17.8122C17.5002 17.9027 17.4269 17.9761 17.3364 17.9761H14.7034C14.613 17.9761 14.5396 17.9027 14.5396 17.8122Z" fill="#F9F9F9"/>
</svg>
