<svg width="24" height="24" viewBox="0 0 24 24" fill="none" xmlns="http://www.w3.org/2000/svg">
<g clip-path="url(#clip0_440_1433)">
<rect width="24" height="24" rx="12" fill="#F9F9F9"/>
<path d="M24 8L0 8L5.24537e-07 -2.79753e-06L24 0L24 8Z" fill="#D74B4B"/>
<path d="M24 16L0 16L5.24537e-07 8L24 8L24 16Z" fill="#485CC2"/>
<path d="M4.11041 8.34131H13.8895V15.6221C13.8895 17.9865 11.7004 19.9032 8.99998 19.9032C6.29955 19.9032 4.11041 17.9865 4.11041 15.6221V8.34131Z" fill="#D74B4B"/>
<path fill-rule="evenodd" clip-rule="evenodd" d="M4 8.24463H14V15.6221C14 18.0399 11.7614 19.9999 9 19.9999C6.23858 19.9999 4 18.0399 4 15.6221V8.24463ZM4.11043 8.34132V15.6221C4.11043 17.9865 6.29957 19.9032 9 19.9032C11.7004 19.9032 13.8896 17.9865 13.8896 15.6221V8.34132H4.11043Z" fill="#F9F9F9"/>
<path d="M6.64828 18.9491C6.60548 18.9853 6.53761 18.9853 6.49482 18.9491L6.22996 18.725C6.17519 18.6787 6.18916 18.5989 6.25725 18.5691L6.43547 18.4909L6.3089 18.2305C6.2936 18.1991 6.26045 18.177 6.22172 18.1725L6.09447 18.1578C6.03883 18.1514 5.98655 18.1825 5.97291 18.2302L5.95141 18.3054L5.85183 18.1504C5.79085 18.0554 5.81409 17.9361 5.90754 17.8642C5.96431 17.8206 6.03978 17.8004 6.11472 17.8088L6.35227 17.8355L6.23998 17.7091C6.20983 17.6751 6.19346 17.6334 6.19346 17.5904V17.5348C6.19346 17.4855 6.215 17.438 6.25367 17.4021L6.49122 17.1817C6.53481 17.1413 6.60828 17.1412 6.65187 17.1817L6.88944 17.4021C6.92811 17.438 6.94965 17.4855 6.94965 17.5348V17.5904C6.94965 17.6334 6.93328 17.6751 6.90313 17.7091L6.79084 17.8355L7.02839 17.8088C7.10333 17.8004 7.1788 17.8206 7.23557 17.8642C7.32902 17.9361 7.35226 18.0554 7.29128 18.1504L7.1917 18.3054L7.1702 18.2302C7.15656 18.1825 7.10428 18.1514 7.04864 18.1578L6.92139 18.1725C6.88266 18.177 6.84951 18.1991 6.83421 18.2305L6.70764 18.4909L6.88586 18.5691C6.95395 18.5989 6.96792 18.6787 6.91315 18.725L6.64828 18.9491Z" fill="#F8D74C"/>
<path d="M5.86587 16.7743L6.35373 15.993L6.64492 15.7536L6.98139 16.0218L6.74845 16.2635L6.14883 16.8036C6.34554 16.6797 6.52413 16.6361 6.58884 16.6299C6.83041 16.6268 6.95119 16.757 6.98139 16.8225C6.90202 16.8043 6.76426 16.8451 6.70531 16.8678L6.28687 16.9396L5.94608 17.1246C5.85981 17.355 5.66828 17.8241 5.59236 17.8574C5.51643 17.8906 5.51471 18.06 5.52334 18.1406C5.30937 18.056 5.29327 17.8485 5.31196 17.7554L5.65677 17.2191C5.49151 17.2921 5.142 17.4449 5.06608 17.4721C4.99015 17.4993 4.95679 17.5942 4.9496 17.6383C4.75635 17.4419 4.8432 17.3248 4.91078 17.2908L5.54922 17.0566L4.63901 17.0302C4.63901 16.7945 4.79709 16.7614 4.87613 16.7743L5.65677 16.9085L5.86587 16.7743Z" fill="#F8D74C"/>
<path d="M6.34467 9.11241L6.75839 9.55337L7.06538 9.46316C7.14799 9.43889 7.23919 9.45941 7.29819 9.51556L7.48264 9.69109H6.75839L6.5182 9.55728C6.51362 9.55472 6.5083 9.55337 6.50287 9.55337C6.4812 9.55337 6.46743 9.57368 6.47781 9.59034L6.58644 9.76465C6.62515 9.82676 6.69951 9.8654 6.78032 9.8654H6.95886C6.98717 9.8654 7.0144 9.87492 7.03493 9.892L7.13491 9.97519C7.15544 9.99227 7.18267 10.0018 7.21098 10.0018H7.86197L7.09786 8.81261C7.03259 8.80547 6.78512 8.79547 6.54039 8.81261C6.29566 8.82975 6.30794 9.01962 6.34467 9.11241Z" fill="#F8D74C"/>
<path d="M7.53154 8.67353C7.17909 8.5878 7.05845 8.70925 7.0422 8.7807C7.35624 9.20559 7.98433 10.1239 7.98433 10.3982C7.98433 10.741 7.75184 11.116 7.36027 11.3303C7.04702 11.5017 6.91973 11.4017 6.89525 11.3303C6.3487 10.9053 5.34859 9.91608 5.72058 9.35897C6.09257 8.80186 5.91869 8.7807 5.72058 8.7807C5.55835 8.7807 5.47341 8.76134 4.97416 9.11256C4.47491 9.46378 4.26034 10.7945 4.21545 11.416L4.32555 13.0873L4.59475 15.8086L4.46018 16.7835L5.05983 16.2585L5.23109 16.6549L5.59812 15.9157L5.69606 16.2585L5.96531 15.605L6.07539 15.8086L6.29564 14.8229L6.46696 15.1015L6.66279 14.3408L6.89525 14.6729L5.96531 16.2585L6.66279 16.0014L6.58937 16.5371L6.89525 16.355L6.98095 16.6549L7.27462 16.2585L7.50712 16.4835L7.73961 15.7121L8.13118 16.4835L7.11555 19.2798C7.57564 19.5369 8.56353 19.6012 8.99997 19.6012V10.6339C8.99997 10.2396 8.67366 9.55539 8.51051 9.26255C8.75524 9.29683 8.76747 9.09827 8.743 8.99471C8.55701 9.01185 8.30657 8.93757 8.2046 8.89828C8.1271 8.85909 7.88399 8.75927 7.53154 8.67353Z" fill="#F9F9F9"/>
<path d="M11.3517 18.9491C11.3945 18.9853 11.4623 18.9853 11.5051 18.9491L11.77 18.725C11.8247 18.6787 11.8108 18.5989 11.7427 18.5691L11.5645 18.4909L11.691 18.2305C11.7063 18.1991 11.7395 18.177 11.7782 18.1725L11.9055 18.1578C11.9611 18.1514 12.0134 18.1825 12.027 18.2302L12.0485 18.3054L12.1481 18.1504C12.2091 18.0554 12.1858 17.9361 12.0924 17.8642C12.0356 17.8206 11.9602 17.8004 11.8852 17.8088L11.6477 17.8355L11.7599 17.7091C11.7901 17.6751 11.8065 17.6334 11.8065 17.5904V17.5348C11.8065 17.4855 11.7849 17.438 11.7463 17.4021L11.5087 17.1817C11.4651 17.1413 11.3916 17.1412 11.3481 17.1817L11.1105 17.4021C11.0718 17.438 11.0503 17.4855 11.0503 17.5348V17.5904C11.0503 17.6334 11.0666 17.6751 11.0968 17.7091L11.2091 17.8355L10.9715 17.8088C10.8966 17.8004 10.8211 17.8206 10.7644 17.8642C10.6709 17.9361 10.6477 18.0554 10.7086 18.1504L10.8082 18.3054L10.8297 18.2302C10.8434 18.1825 10.8957 18.1514 10.9513 18.1578L11.0785 18.1725C11.1173 18.177 11.1504 18.1991 11.1657 18.2305L11.2923 18.4909L11.1141 18.5691C11.046 18.5989 11.032 18.6787 11.0868 18.725L11.3517 18.9491Z" fill="#F8D74C"/>
<path d="M12.1341 16.7743L11.6462 15.993L11.355 15.7536L11.0185 16.0218L11.2515 16.2635L11.8511 16.8036C11.6544 16.6797 11.4758 16.6361 11.4111 16.6299C11.1695 16.6268 11.0487 16.757 11.0185 16.8225C11.0979 16.8043 11.2357 16.8451 11.2946 16.8678L11.7131 16.9396L12.0538 17.1246C12.1401 17.355 12.3316 17.8241 12.4076 17.8574C12.4835 17.8906 12.4852 18.06 12.4766 18.1406C12.6906 18.056 12.7067 17.8485 12.688 17.7554L12.3432 17.2191C12.5084 17.2921 12.8579 17.4449 12.9339 17.4721C13.0098 17.4993 13.0431 17.5942 13.0503 17.6383C13.2436 17.4419 13.1567 17.3248 13.0891 17.2908L12.4507 17.0566L13.3609 17.0302C13.3609 16.7945 13.2028 16.7614 13.1238 16.7743L12.3432 16.9085L12.1341 16.7743Z" fill="#F8D74C"/>
<path d="M11.6553 9.11241L11.2415 9.55337L10.9345 9.46316C10.8519 9.43889 10.7607 9.45941 10.7017 9.51556L10.5173 9.69109H11.2415L11.4817 9.55728C11.4863 9.55472 11.4916 9.55337 11.4971 9.55337C11.5187 9.55337 11.5325 9.57368 11.5221 9.59034L11.4135 9.76465C11.3748 9.82676 11.3004 9.8654 11.2196 9.8654H11.0411C11.0128 9.8654 10.9855 9.87492 10.965 9.892L10.865 9.97519C10.8445 9.99227 10.8173 10.0018 10.7889 10.0018H10.138L10.9021 8.81261C10.9673 8.80547 11.2148 8.79547 11.4595 8.81261C11.7043 8.82975 11.692 9.01962 11.6553 9.11241Z" fill="#F8D74C"/>
<path d="M10.4684 8.67353C10.8208 8.5878 10.9415 8.70925 10.9577 8.7807C10.6437 9.20559 10.0156 10.1239 10.0156 10.3982C10.0156 10.741 10.2481 11.116 10.6397 11.3303C10.9529 11.5017 11.0802 11.4017 11.1047 11.3303C11.6512 10.9053 12.6513 9.91608 12.2793 9.35897C11.9074 8.80186 12.1037 8.7807 12.2793 8.7807C12.3358 8.82007 12.5265 8.76134 13.0258 9.11256C13.525 9.46378 13.7396 10.7945 13.7845 11.416L13.6744 13.0873L13.4052 15.8086L13.5397 16.7835L12.9401 16.2585L12.7688 16.6549L12.4018 15.9157L12.3039 16.2585L12.0346 15.605L11.9245 15.8086L11.7043 14.8229L11.533 15.1015L11.3371 14.3408L11.1047 14.6729L12.0346 16.2585L11.3371 16.0014L11.4106 16.5371L11.1047 16.355L11.019 16.6549L10.7253 16.2585L10.4928 16.4835L10.2603 15.7121L9.86875 16.4835L10.8844 19.2798C10.4243 19.5369 9.4364 19.6012 8.99997 19.6012V10.6339C8.99997 10.2396 9.32627 9.55539 9.48942 9.26255C9.24469 9.29683 9.23245 9.09827 9.25693 8.99471C9.44292 9.01185 9.69336 8.93757 9.79533 8.89828C9.87283 8.85909 10.1159 8.75927 10.4684 8.67353Z" fill="#F9F9F9"/>
<path fill-rule="evenodd" clip-rule="evenodd" d="M6.99256 4.07297C7.62822 3.89316 8.32264 3.8742 8.82105 3.91445V3.27822H8.16097V2.79477H8.82105V2.38997H9.37321V2.79477H10.1929V3.27822H9.37321V3.90439C9.85401 3.88024 10.4713 3.91214 11.0413 4.07337C11.7489 4.27354 12.4279 4.68931 12.6183 5.4775C12.8037 6.24469 12.4856 6.80418 12.0123 7.1747C12.0103 7.17622 12.0084 7.17773 12.0064 7.17924V8.24457C12.0064 8.29797 11.957 8.34126 11.896 8.34126H6.40459C6.3436 8.34126 6.29416 8.29797 6.29416 8.24457V7.35892C6.19981 7.30352 6.10821 7.24212 6.02156 7.1743C5.54822 6.80378 5.23011 6.24429 5.41547 5.4771C5.60591 4.6889 6.28491 4.27313 6.99256 4.07297ZM6.64598 6.98269H7.38069C7.07708 6.68856 6.81337 6.31002 6.81337 5.88301C6.81337 5.39818 7.20213 4.9725 7.59776 4.66161C7.71901 4.56633 7.84701 4.47706 7.97559 4.39505C7.70661 4.41541 7.42644 4.45829 7.16231 4.533C6.56274 4.70259 6.09032 5.01991 5.95568 5.57715C5.81597 6.15541 6.04586 6.54484 6.38958 6.81388C6.46959 6.87651 6.55609 6.93268 6.64598 6.98269ZM8.18849 6.98269H8.82105V4.49408C8.55713 4.6234 8.23974 4.80674 7.96657 5.0214C7.59252 5.31533 7.36553 5.6174 7.36553 5.88301C7.36553 6.16315 7.56284 6.45795 7.86858 6.7313C7.97033 6.82227 8.07944 6.90665 8.18849 6.98269ZM9.8459 6.98269H9.37321V4.5765C9.59928 4.69681 9.84756 4.84918 10.0672 5.0218C10.4413 5.31574 10.6683 5.6178 10.6683 5.88342C10.6683 6.16355 10.471 6.45835 10.1652 6.73171C10.0637 6.82252 9.95476 6.90675 9.8459 6.98269ZM10.6535 6.98269H11.3886C11.4782 6.93278 11.5644 6.87675 11.6442 6.81429C11.988 6.54524 12.2178 6.15581 12.0781 5.57756C11.9435 5.02031 11.4711 4.703 10.8715 4.5334C10.6074 4.45869 10.3272 4.41581 10.0582 4.39545C10.1868 4.47747 10.3148 4.56674 10.4361 4.66202C10.8317 4.9729 11.2204 5.39859 11.2204 5.88342C11.2204 6.31023 10.957 6.68862 10.6535 6.98269Z" fill="#F8D74C"/>
<path d="M8.74725 3.86462C8.74725 3.71717 8.88377 3.59763 9.05219 3.59763H9.18959C9.358 3.59763 9.49453 3.71717 9.49453 3.86462C9.49453 4.01208 9.358 4.13161 9.18959 4.13161H9.05219C8.88377 4.13161 8.74725 4.01208 8.74725 3.86462Z" fill="#485CC2"/>
<path d="M6.42307 7.79579C6.42307 7.69325 6.518 7.61013 6.63511 7.61013H6.95831C7.07542 7.61013 7.17035 7.69325 7.17035 7.79579C7.17035 7.89832 7.07542 7.98145 6.95831 7.98145H6.63511C6.518 7.98145 6.42307 7.89832 6.42307 7.79579Z" fill="#485CC2"/>
<path d="M8.74725 7.79579C8.74725 7.69325 8.84218 7.61013 8.95929 7.61013H9.28248C9.39959 7.61013 9.49453 7.69325 9.49453 7.79579C9.49453 7.89832 9.39959 7.98145 9.28248 7.98145H8.95929C8.84218 7.98145 8.74725 7.89832 8.74725 7.79579Z" fill="#485CC2"/>
<path d="M9.96117 7.79579C9.96117 7.69325 10.0561 7.61013 10.1732 7.61013H10.4964C10.6135 7.61013 10.7085 7.69325 10.7085 7.79579C10.7085 7.89832 10.6135 7.98145 10.4964 7.98145H10.1732C10.0561 7.98145 9.96117 7.89832 9.96117 7.79579Z" fill="#D74B4B"/>
<path d="M7.55718 7.79579C7.55718 7.69325 7.65212 7.61013 7.76923 7.61013H8.09242C8.20953 7.61013 8.30447 7.69325 8.30447 7.79579C8.30447 7.89832 8.20953 7.98145 8.09242 7.98145H7.76923C7.65212 7.98145 7.55718 7.89832 7.55718 7.79579Z" fill="#D74B4B"/>
<path d="M11.0714 7.79579C11.0714 7.69325 11.1664 7.61013 11.2835 7.61013H11.6067C11.7238 7.61013 11.8187 7.69325 11.8187 7.79579C11.8187 7.89832 11.7238 7.98145 11.6067 7.98145H11.2835C11.1664 7.98145 11.0714 7.89832 11.0714 7.79579Z" fill="#485CC2"/>
<path fill-rule="evenodd" clip-rule="evenodd" d="M8.53067 2.88172C8.53067 2.95843 8.4795 3.02474 8.40526 3.05616C8.4795 3.08759 8.53067 3.15389 8.53067 3.23061C8.53067 3.33767 8.43102 3.42446 8.30808 3.42446C8.18514 3.42446 8.08549 3.33767 8.08549 3.23061C8.08549 3.22748 8.08557 3.22437 8.08574 3.22128C7.99592 3.19633 7.93086 3.12307 7.93086 3.03657C7.93086 2.94928 7.99712 2.87546 8.08823 2.85118C8.10505 2.75863 8.19708 2.68787 8.30808 2.68787C8.43102 2.68787 8.53067 2.77466 8.53067 2.88172Z" fill="#F8D74C"/>
<path fill-rule="evenodd" clip-rule="evenodd" d="M9.7717 2.88172C9.7717 2.95843 9.82288 3.02474 9.89712 3.05616C9.82288 3.08759 9.7717 3.15389 9.7717 3.23061C9.7717 3.33767 9.87136 3.42446 9.9943 3.42446C10.1172 3.42446 10.2169 3.33767 10.2169 3.23061C10.2169 3.22748 10.2168 3.22437 10.2166 3.22128C10.3065 3.19633 10.3715 3.12307 10.3715 3.03657C10.3715 2.94928 10.3053 2.87546 10.2141 2.85118C10.1973 2.75863 10.1053 2.68787 9.9943 2.68787C9.87136 2.68787 9.7717 2.77466 9.7717 2.88172Z" fill="#F8D74C"/>
<path fill-rule="evenodd" clip-rule="evenodd" d="M8.9189 2.55596C8.99133 2.55596 9.05564 2.52534 9.09604 2.478C9.13643 2.52534 9.20074 2.55596 9.27317 2.55596C9.39545 2.55596 9.49457 2.4687 9.49457 2.36107C9.49457 2.26617 9.41752 2.18712 9.31549 2.16973C9.30147 2.07398 9.20851 2 9.09592 2C8.98331 2 8.89034 2.074 8.87634 2.16977C8.77443 2.18724 8.6975 2.26624 8.6975 2.36107C8.6975 2.4687 8.79663 2.55596 8.9189 2.55596Z" fill="#F8D74C"/>
<path d="M5.92193 6.77948C5.92193 6.87167 5.83657 6.9464 5.73128 6.9464C5.62599 6.9464 5.54063 6.87167 5.54063 6.77948C5.54063 6.68729 5.62599 6.61256 5.73128 6.61256C5.83657 6.61256 5.92193 6.68729 5.92193 6.77948Z" fill="#F9F9F9"/>
<path d="M5.73132 6.44569C5.73132 6.53788 5.64596 6.61262 5.54067 6.61262C5.43537 6.61262 5.35002 6.53788 5.35002 6.44569C5.35002 6.3535 5.43537 6.27877 5.54067 6.27877C5.64596 6.27877 5.73132 6.3535 5.73132 6.44569Z" fill="#F9F9F9"/>
<path d="M5.60622 6.06659C5.60622 6.15878 5.52086 6.23351 5.41557 6.23351C5.31027 6.23351 5.22492 6.15878 5.22492 6.06659C5.22492 5.9744 5.31027 5.89966 5.41557 5.89966C5.52086 5.89966 5.60622 5.9744 5.60622 6.06659Z" fill="#F9F9F9"/>
<path d="M5.55257 5.68748C5.55257 5.77967 5.46721 5.8544 5.36191 5.8544C5.25662 5.8544 5.17126 5.77967 5.17126 5.68748C5.17126 5.59529 5.25662 5.52056 5.36191 5.52056C5.46721 5.52056 5.55257 5.59529 5.55257 5.68748Z" fill="#F9F9F9"/>
<path d="M5.65839 5.30837C5.65839 5.40056 5.57303 5.47529 5.46774 5.47529C5.36244 5.47529 5.27709 5.40056 5.27709 5.30837C5.27709 5.21618 5.36244 5.14145 5.46774 5.14145C5.57303 5.14145 5.65839 5.21618 5.65839 5.30837Z" fill="#F9F9F9"/>
<path d="M5.79683 4.92926C5.79683 5.02145 5.71148 5.09619 5.60618 5.09619C5.50089 5.09619 5.41553 5.02145 5.41553 4.92926C5.41553 4.83707 5.50089 4.76234 5.60618 4.76234C5.71148 4.76234 5.79683 4.83707 5.79683 4.92926Z" fill="#F9F9F9"/>
<path d="M6.11255 4.59548C6.11255 4.68767 6.02719 4.7624 5.9219 4.7624C5.8166 4.7624 5.73125 4.68767 5.73125 4.59548C5.73125 4.50329 5.8166 4.42856 5.9219 4.42856C6.02719 4.42856 6.11255 4.50329 6.11255 4.59548Z" fill="#F9F9F9"/>
<path d="M6.423 4.3429C6.423 4.43509 6.33765 4.50982 6.23235 4.50982C6.12706 4.50982 6.0417 4.43509 6.0417 4.3429C6.0417 4.25071 6.12706 4.17597 6.23235 4.17597C6.33765 4.17597 6.423 4.25071 6.423 4.3429Z" fill="#F9F9F9"/>
<path d="M6.80437 4.13139C6.80437 4.22358 6.71901 4.29831 6.61372 4.29831C6.50842 4.29831 6.42307 4.22358 6.42307 4.13139C6.42307 4.0392 6.50842 3.96447 6.61372 3.96447C6.71901 3.96447 6.80437 4.0392 6.80437 4.13139Z" fill="#F9F9F9"/>
<path d="M7.24693 4.00911C7.24693 4.1013 7.16158 4.17604 7.05628 4.17604C6.95099 4.17604 6.86563 4.1013 6.86563 4.00911C6.86563 3.91692 6.95099 3.84219 7.05628 3.84219C7.16158 3.84219 7.24693 3.91692 7.24693 4.00911Z" fill="#F9F9F9"/>
<path d="M7.68909 3.91658C7.68909 4.00877 7.60374 4.0835 7.49844 4.0835C7.39315 4.0835 7.30779 4.00877 7.30779 3.91658C7.30779 3.82439 7.39315 3.74966 7.49844 3.74966C7.60374 3.74966 7.68909 3.82439 7.68909 3.91658Z" fill="#F9F9F9"/>
<path d="M8.13126 3.86465C8.13126 3.95684 8.0459 4.03157 7.94061 4.03157C7.83531 4.03157 7.74996 3.95684 7.74996 3.86465C7.74996 3.77246 7.83531 3.69772 7.94061 3.69772C8.0459 3.69772 8.13126 3.77246 8.13126 3.86465Z" fill="#F9F9F9"/>
<path d="M8.61211 3.84198C8.61211 3.93417 8.52675 4.00891 8.42146 4.00891C8.31616 4.00891 8.23081 3.93417 8.23081 3.84198C8.23081 3.7498 8.31616 3.67506 8.42146 3.67506C8.52675 3.67506 8.61211 3.7498 8.61211 3.84198Z" fill="#F9F9F9"/>
<path d="M8.68571 4.17577C8.68571 4.26796 8.60035 4.34269 8.49506 4.34269C8.38977 4.34269 8.30441 4.26796 8.30441 4.17577C8.30441 4.08358 8.38977 4.00885 8.49506 4.00885C8.60035 4.00885 8.68571 4.08358 8.68571 4.17577Z" fill="#F9F9F9"/>
<path d="M8.32201 4.34243C8.32201 4.43461 8.23665 4.50935 8.13136 4.50935C8.02606 4.50935 7.94071 4.43461 7.94071 4.34243C7.94071 4.25024 8.02606 4.1755 8.13136 4.1755C8.23665 4.1755 8.32201 4.25024 8.32201 4.34243Z" fill="#F9F9F9"/>
<path d="M7.9308 4.59548C7.9308 4.68767 7.84544 4.7624 7.74015 4.7624C7.63486 4.7624 7.5495 4.68767 7.5495 4.59548C7.5495 4.50329 7.63486 4.42856 7.74015 4.42856C7.84544 4.42856 7.9308 4.50329 7.9308 4.59548Z" fill="#F9F9F9"/>
<path d="M7.55712 4.92926C7.55712 5.02145 7.47176 5.09619 7.36647 5.09619C7.26118 5.09619 7.17582 5.02145 7.17582 4.92926C7.17582 4.83707 7.26118 4.76234 7.36647 4.76234C7.47176 4.76234 7.55712 4.83707 7.55712 4.92926Z" fill="#F9F9F9"/>
<path d="M7.30773 5.30837C7.30773 5.40056 7.22237 5.47529 7.11708 5.47529C7.01179 5.47529 6.92643 5.40056 6.92643 5.30837C6.92643 5.21618 7.01179 5.14145 7.11708 5.14145C7.22237 5.14145 7.30773 5.21618 7.30773 5.30837Z" fill="#F9F9F9"/>
<path d="M7.17023 5.68748C7.17023 5.77967 7.08487 5.8544 6.97958 5.8544C6.87429 5.8544 6.78893 5.77967 6.78893 5.68748C6.78893 5.59529 6.87429 5.52056 6.97958 5.52056C7.08487 5.52056 7.17023 5.59529 7.17023 5.68748Z" fill="#F9F9F9"/>
<path d="M7.17023 6.06659C7.17023 6.15878 7.08487 6.23351 6.97958 6.23351C6.87429 6.23351 6.78893 6.15878 6.78893 6.06659C6.78893 5.9744 6.87429 5.89966 6.97958 5.89966C7.08487 5.89966 7.17023 5.9744 7.17023 6.06659Z" fill="#F9F9F9"/>
<path d="M7.36084 6.44569C7.36084 6.53788 7.27549 6.61262 7.17019 6.61262C7.0649 6.61262 6.97954 6.53788 6.97954 6.44569C6.97954 6.3535 7.0649 6.27877 7.17019 6.27877C7.27549 6.27877 7.36084 6.3535 7.36084 6.44569Z" fill="#F9F9F9"/>
<path d="M7.68909 6.77948C7.68909 6.87167 7.60374 6.9464 7.49844 6.9464C7.39315 6.9464 7.30779 6.87167 7.30779 6.77948C7.30779 6.68729 7.39315 6.61256 7.49844 6.61256C7.60374 6.61256 7.68909 6.68729 7.68909 6.77948Z" fill="#F9F9F9"/>
<path d="M12.0779 6.77948C12.0779 6.87167 12.1633 6.9464 12.2686 6.9464C12.3739 6.9464 12.4592 6.87167 12.4592 6.77948C12.4592 6.68729 12.3739 6.61256 12.2686 6.61256C12.1633 6.61256 12.0779 6.68729 12.0779 6.77948Z" fill="#F9F9F9"/>
<path d="M12.2686 6.44569C12.2686 6.53788 12.3539 6.61262 12.4592 6.61262C12.5645 6.61262 12.6499 6.53788 12.6499 6.44569C12.6499 6.3535 12.5645 6.27877 12.4592 6.27877C12.3539 6.27877 12.2686 6.3535 12.2686 6.44569Z" fill="#F9F9F9"/>
<path d="M12.3937 6.06659C12.3937 6.15878 12.479 6.23351 12.5843 6.23351C12.6896 6.23351 12.775 6.15878 12.775 6.06659C12.775 5.9744 12.6896 5.89966 12.5843 5.89966C12.479 5.89966 12.3937 5.9744 12.3937 6.06659Z" fill="#F9F9F9"/>
<path d="M12.4473 5.68748C12.4473 5.77967 12.5327 5.8544 12.638 5.8544C12.7433 5.8544 12.8286 5.77967 12.8286 5.68748C12.8286 5.59529 12.7433 5.52056 12.638 5.52056C12.5327 5.52056 12.4473 5.59529 12.4473 5.68748Z" fill="#F9F9F9"/>
<path d="M12.3415 5.30837C12.3415 5.40056 12.4268 5.47529 12.5321 5.47529C12.6374 5.47529 12.7228 5.40056 12.7228 5.30837C12.7228 5.21618 12.6374 5.14145 12.5321 5.14145C12.4268 5.14145 12.3415 5.21618 12.3415 5.30837Z" fill="#F9F9F9"/>
<path d="M12.203 4.92926C12.203 5.02145 12.2884 5.09619 12.3937 5.09619C12.499 5.09619 12.5843 5.02145 12.5843 4.92926C12.5843 4.83707 12.499 4.76234 12.3937 4.76234C12.2884 4.76234 12.203 4.83707 12.203 4.92926Z" fill="#F9F9F9"/>
<path d="M11.8873 4.59548C11.8873 4.68767 11.9727 4.7624 12.078 4.7624C12.1833 4.7624 12.2686 4.68767 12.2686 4.59548C12.2686 4.50329 12.1833 4.42856 12.078 4.42856C11.9727 4.42856 11.8873 4.50329 11.8873 4.59548Z" fill="#F9F9F9"/>
<path d="M11.5769 4.3429C11.5769 4.43509 11.6622 4.50982 11.7675 4.50982C11.8728 4.50982 11.9582 4.43509 11.9582 4.3429C11.9582 4.25071 11.8728 4.17597 11.7675 4.17597C11.6622 4.17597 11.5769 4.25071 11.5769 4.3429Z" fill="#F9F9F9"/>
<path d="M11.1955 4.13139C11.1955 4.22358 11.2809 4.29831 11.3862 4.29831C11.4915 4.29831 11.5768 4.22358 11.5768 4.13139C11.5768 4.0392 11.4915 3.96447 11.3862 3.96447C11.2809 3.96447 11.1955 4.0392 11.1955 4.13139Z" fill="#F9F9F9"/>
<path d="M10.8141 4.00911C10.8141 4.1013 10.8995 4.17604 11.0048 4.17604C11.1101 4.17604 11.1954 4.1013 11.1954 4.00911C11.1954 3.91692 11.1101 3.84219 11.0048 3.84219C10.8995 3.84219 10.8141 3.91692 10.8141 4.00911Z" fill="#F9F9F9"/>
<path d="M10.4157 3.91658C10.4157 4.00877 10.5011 4.0835 10.6064 4.0835C10.7117 4.0835 10.797 4.00877 10.797 3.91658C10.797 3.82439 10.7117 3.74966 10.6064 3.74966C10.5011 3.74966 10.4157 3.82439 10.4157 3.91658Z" fill="#F9F9F9"/>
<path d="M9.99021 3.86465C9.99021 3.95684 10.0756 4.03157 10.1809 4.03157C10.2862 4.03157 10.3715 3.95684 10.3715 3.86465C10.3715 3.77246 10.2862 3.69772 10.1809 3.69772C10.0756 3.69772 9.99021 3.77246 9.99021 3.86465Z" fill="#F9F9F9"/>
<path d="M9.57987 3.84198C9.57987 3.93417 9.66522 4.00891 9.77052 4.00891C9.87581 4.00891 9.96117 3.93417 9.96117 3.84198C9.96117 3.7498 9.87581 3.67506 9.77052 3.67506C9.66522 3.67506 9.57987 3.7498 9.57987 3.84198Z" fill="#F9F9F9"/>
<path d="M9.49447 4.26163C9.49447 4.35382 9.57983 4.42856 9.68512 4.42856C9.79041 4.42856 9.87577 4.35382 9.87577 4.26163C9.87577 4.16944 9.79041 4.09471 9.68512 4.09471C9.57983 4.09471 9.49447 4.16944 9.49447 4.26163Z" fill="#F9F9F9"/>
<path d="M9.95348 4.50955C9.95348 4.60174 10.0388 4.67648 10.1441 4.67648C10.2494 4.67648 10.3348 4.60174 10.3348 4.50955C10.3348 4.41736 10.2494 4.34263 10.1441 4.34263C10.0388 4.34263 9.95348 4.41736 9.95348 4.50955Z" fill="#F9F9F9"/>
<path d="M10.3271 4.76261C10.3271 4.8548 10.4124 4.92953 10.5177 4.92953C10.623 4.92953 10.7084 4.8548 10.7084 4.76261C10.7084 4.67042 10.623 4.59568 10.5177 4.59568C10.4124 4.59568 10.3271 4.67042 10.3271 4.76261Z" fill="#F9F9F9"/>
<path d="M10.639 5.09592C10.639 5.18811 10.7243 5.26284 10.8296 5.26284C10.9349 5.26284 11.0203 5.18811 11.0203 5.09592C11.0203 5.00373 10.9349 4.929 10.8296 4.929C10.7243 4.929 10.639 5.00373 10.639 5.09592Z" fill="#F9F9F9"/>
<path d="M10.8808 5.4755C10.8808 5.56769 10.9662 5.64242 11.0715 5.64242C11.1767 5.64242 11.2621 5.56769 11.2621 5.4755C11.2621 5.38331 11.1767 5.30858 11.0715 5.30858C10.9662 5.30858 10.8808 5.38331 10.8808 5.4755Z" fill="#F9F9F9"/>
<path d="M10.9481 5.89966C10.9481 5.99185 11.0334 6.06659 11.1387 6.06659C11.244 6.06659 11.3294 5.99185 11.3294 5.89966C11.3294 5.80747 11.244 5.73274 11.1387 5.73274C11.0334 5.73274 10.9481 5.80747 10.9481 5.89966Z" fill="#F9F9F9"/>
<path d="M10.7971 6.32436C10.7971 6.41655 10.8825 6.49128 10.9877 6.49128C11.093 6.49128 11.1784 6.41655 11.1784 6.32436C11.1784 6.23217 11.093 6.15744 10.9877 6.15744C10.8825 6.15744 10.7971 6.23217 10.7971 6.32436Z" fill="#F9F9F9"/>
<path d="M10.5177 6.77948C10.5177 6.87167 10.6031 6.9464 10.7084 6.9464C10.8137 6.9464 10.899 6.87167 10.899 6.77948C10.899 6.68729 10.8137 6.61256 10.7084 6.61256C10.6031 6.61256 10.5177 6.68729 10.5177 6.77948Z" fill="#F9F9F9"/>
<path d="M8.9053 4.67621C8.9053 4.7684 8.99066 4.84313 9.09595 4.84313C9.20124 4.84313 9.2866 4.7684 9.2866 4.67621C9.2866 4.58402 9.20124 4.50929 9.09595 4.50929C8.99066 4.50929 8.9053 4.58402 8.9053 4.67621Z" fill="#F9F9F9"/>
<path d="M8.9053 5.09639C8.9053 5.18858 8.99066 5.26332 9.09595 5.26332C9.20124 5.26332 9.2866 5.18858 9.2866 5.09639C9.2866 5.0042 9.20124 4.92947 9.09595 4.92947C8.99066 4.92947 8.9053 5.0042 8.9053 5.09639Z" fill="#F9F9F9"/>
<path d="M8.9053 5.52082C8.9053 5.61301 8.99066 5.68775 9.09595 5.68775C9.20124 5.68775 9.2866 5.61301 9.2866 5.52082C9.2866 5.42863 9.20124 5.3539 9.09595 5.3539C8.99066 5.3539 8.9053 5.42863 8.9053 5.52082Z" fill="#F9F9F9"/>
<path d="M8.9053 6.40037C8.9053 6.49256 8.99066 6.56729 9.09595 6.56729C9.20124 6.56729 9.2866 6.49256 9.2866 6.40037C9.2866 6.30818 9.20124 6.23345 9.09595 6.23345C8.99066 6.23345 8.9053 6.30818 8.9053 6.40037Z" fill="#F9F9F9"/>
<path d="M8.9053 5.94478C8.9053 6.03697 8.99066 6.1117 9.09595 6.1117C9.20124 6.1117 9.2866 6.03697 9.2866 5.94478C9.2866 5.85259 9.20124 5.77786 9.09595 5.77786C8.99066 5.77786 8.9053 5.85259 8.9053 5.94478Z" fill="#F9F9F9"/>
<path d="M8.9053 6.82433C8.9053 6.91652 8.99066 6.99125 9.09595 6.99125C9.20124 6.99125 9.2866 6.91652 9.2866 6.82433C9.2866 6.73214 9.20124 6.65741 9.09595 6.65741C8.99066 6.65741 8.9053 6.73214 8.9053 6.82433Z" fill="#F9F9F9"/>
<path d="M7.11607 11.5978L10.884 11.5972V14.4452C10.884 15.3561 10.0408 16.0946 9.00041 16.0947C7.95978 16.0949 7.11607 15.3564 7.11607 14.4452V11.5978Z" fill="#D74B4B"/>
<path d="M7.71211 11.8715C7.59397 11.8479 7.48143 11.9265 7.48143 12.0326V12.2442C7.48143 12.3156 7.5339 12.379 7.61147 12.4012L7.68465 12.4222C7.76793 12.4461 7.85903 12.4166 7.9046 12.3511L7.95672 12.2762C7.98383 12.2372 7.96972 12.1863 7.9252 12.1626C7.88068 12.1389 7.82261 12.1512 7.7955 12.1902L7.74338 12.2651L7.6702 12.2442V12.0326L8.17309 12.1329V12.3258L8.10397 12.3772C8.09928 12.3805 8.09488 12.3842 8.09085 12.3883C8.07577 12.4039 8.0684 12.4229 8.06842 12.4418C8.0684 12.4608 8.07577 12.4798 8.09085 12.4953C8.09488 12.4995 8.09928 12.5032 8.10397 12.5065L8.17309 12.5579V12.7508L7.6702 12.851V12.6395L7.74338 12.6185L7.7955 12.6935C7.82261 12.7324 7.88068 12.7448 7.9252 12.7211C7.96972 12.6973 7.98383 12.6465 7.95672 12.6075L7.9046 12.5326C7.85903 12.467 7.76793 12.4376 7.68465 12.4615L7.61147 12.4824C7.5339 12.5047 7.48143 12.568 7.48143 12.6395V12.851C7.48143 12.9571 7.59397 13.0357 7.71211 13.0122L8.215 12.9119C8.3009 12.8948 8.36185 12.8279 8.36185 12.7508V12.5579C8.36185 12.5142 8.34217 12.4726 8.30751 12.4418C8.34217 12.411 8.36185 12.3694 8.36185 12.3258V12.1329C8.36185 12.0558 8.3009 11.9889 8.215 11.9718L7.71211 11.8715Z" fill="#F9F9F9"/>
<path d="M10.298 11.8715C10.4161 11.8479 10.5287 11.9265 10.5287 12.0326V12.2442C10.5287 12.3156 10.4762 12.379 10.3986 12.4012L10.3254 12.4222C10.2422 12.4461 10.1511 12.4166 10.1055 12.3511L10.0534 12.2762C10.0263 12.2372 10.0404 12.1863 10.0849 12.1626C10.1294 12.1389 10.1875 12.1512 10.2146 12.1902L10.2667 12.2651L10.3399 12.2442V12.0326L9.83701 12.1329V12.3258L9.90613 12.3772C9.91082 12.3805 9.91522 12.3842 9.91924 12.3883C9.93433 12.4039 9.9417 12.4229 9.94168 12.4418C9.9417 12.4608 9.93433 12.4798 9.91924 12.4953C9.91522 12.4995 9.91082 12.5032 9.90613 12.5065L9.83701 12.5579V12.7508L10.3399 12.851V12.6395L10.2667 12.6185L10.2146 12.6935C10.1875 12.7324 10.1294 12.7448 10.0849 12.7211C10.0404 12.6973 10.0263 12.6465 10.0534 12.6075L10.1055 12.5326C10.1511 12.467 10.2422 12.4376 10.3254 12.4615L10.3986 12.4824C10.4762 12.5047 10.5287 12.568 10.5287 12.6395V12.851C10.5287 12.9571 10.4161 13.0357 10.298 13.0122L9.7951 12.9119C9.7092 12.8948 9.64825 12.8279 9.64825 12.7508V12.5579C9.64825 12.5142 9.66793 12.4726 9.70259 12.4418C9.66793 12.411 9.64825 12.3694 9.64825 12.3258V12.1329C9.64825 12.0558 9.7092 11.9889 9.7951 11.9718L10.298 11.8715Z" fill="#F9F9F9"/>
<path d="M7.71211 14.2538C7.59397 14.2302 7.48143 14.3088 7.48143 14.4149V14.6264C7.48143 14.6979 7.5339 14.7613 7.61147 14.7835L7.68465 14.8045C7.76793 14.8284 7.85903 14.7989 7.9046 14.7334L7.95672 14.6585C7.98383 14.6195 7.96972 14.5686 7.9252 14.5449C7.88068 14.5212 7.82261 14.5335 7.7955 14.5725L7.74338 14.6474L7.6702 14.6264V14.4149L8.17309 14.5152V14.7081L8.10397 14.7595C8.09928 14.7627 8.09488 14.7665 8.09085 14.7706C8.07577 14.7862 8.0684 14.8052 8.06842 14.8241C8.0684 14.843 8.07577 14.8621 8.09085 14.8776C8.09488 14.8818 8.09928 14.8855 8.10397 14.8888L8.17309 14.9401V15.1331L7.6702 15.2333V15.0218L7.74338 15.0008L7.7955 15.0757C7.82261 15.1147 7.88068 15.1271 7.9252 15.1033C7.96972 15.0796 7.98383 15.0288 7.95672 14.9898L7.9046 14.9149C7.85903 14.8493 7.76793 14.8199 7.68465 14.8437L7.61147 14.8647C7.5339 14.887 7.48143 14.9503 7.48143 15.0218V15.2333C7.48143 15.3394 7.59397 15.418 7.71211 15.3945L8.215 15.2942C8.3009 15.2771 8.36185 15.2102 8.36185 15.1331V14.9401C8.36185 14.8965 8.34217 14.8549 8.30751 14.8241C8.34217 14.7933 8.36185 14.7517 8.36185 14.7081V14.5152C8.36185 14.438 8.3009 14.3712 8.215 14.354L7.71211 14.2538Z" fill="#F9F9F9"/>
<path d="M10.298 14.2538C10.4161 14.2302 10.5287 14.3088 10.5287 14.4149V14.6264C10.5287 14.6979 10.4762 14.7613 10.3986 14.7835L10.3254 14.8045C10.2422 14.8284 10.1511 14.7989 10.1055 14.7334L10.0534 14.6585C10.0263 14.6195 10.0404 14.5686 10.0849 14.5449C10.1294 14.5212 10.1875 14.5335 10.2146 14.5725L10.2667 14.6474L10.3399 14.6264V14.4149L9.83701 14.5152V14.7081L9.90613 14.7595C9.91082 14.7627 9.91522 14.7665 9.91924 14.7706C9.93433 14.7862 9.9417 14.8052 9.94168 14.8241C9.9417 14.843 9.93433 14.8621 9.91924 14.8776C9.91522 14.8818 9.91082 14.8855 9.90613 14.8888L9.83701 14.9401V15.1331L10.3399 15.2333V15.0218L10.2667 15.0008L10.2146 15.0757C10.1875 15.1147 10.1294 15.1271 10.0849 15.1033C10.0404 15.0796 10.0263 15.0288 10.0534 14.9898L10.1055 14.9149C10.1511 14.8493 10.2422 14.8199 10.3254 14.8437L10.3986 14.8647C10.4762 14.887 10.5287 14.9503 10.5287 15.0218V15.2333C10.5287 15.3394 10.4161 15.418 10.298 15.3945L9.7951 15.2942C9.7092 15.2771 9.64825 15.2102 9.64825 15.1331V14.9401C9.64825 14.8965 9.66793 14.8549 9.70259 14.8241C9.66793 14.7933 9.64825 14.7517 9.64825 14.7081V14.5152C9.64825 14.438 9.7092 14.3712 9.7951 14.354L10.298 14.2538Z" fill="#F9F9F9"/>
<path fill-rule="evenodd" clip-rule="evenodd" d="M9.37976 13.3691V11.5972H8.61596L8.61596 13.3691H7.1149V14.0378H8.61596L8.61596 16.1593H9.37976V14.0378H10.8808V13.3691H9.37976Z" fill="#F9F9F9"/>
</g>
<defs>
<clipPath id="clip0_440_1433">
<rect width="24" height="24" rx="12" fill="white"/>
</clipPath>
</defs>
</svg>
