<svg width="32" height="24" viewBox="0 0 32 24" fill="none" xmlns="http://www.w3.org/2000/svg">
<g clip-path="url(#clip0_440_1435)">
<rect width="32" height="24" rx="2" fill="#F9F9F9"/>
<path d="M32 8L0 8L6.99382e-07 -2.79753e-06L32 0L32 8Z" fill="#D74B4B"/>
<path d="M32 16L0 16L6.99382e-07 8L32 8L32 16Z" fill="#485CC2"/>
<path d="M6.11041 8.34131H15.8895V15.6221C15.8895 17.9865 13.7004 19.9032 11 19.9032C8.29955 19.9032 6.11041 17.9865 6.11041 15.6221V8.34131Z" fill="#D74B4B"/>
<path fill-rule="evenodd" clip-rule="evenodd" d="M6 8.24463H16V15.6221C16 18.0399 13.7614 19.9999 11 19.9999C8.23858 19.9999 6 18.0399 6 15.6221V8.24463ZM6.11043 8.34132V15.6221C6.11043 17.9865 8.29957 19.9032 11 19.9032C13.7004 19.9032 15.8896 17.9865 15.8896 15.6221V8.34132H6.11043Z" fill="#F9F9F9"/>
<path d="M8.64828 18.9491C8.60548 18.9853 8.53761 18.9853 8.49482 18.9491L8.22996 18.725C8.17519 18.6787 8.18916 18.5989 8.25725 18.5691L8.43547 18.4909L8.3089 18.2305C8.2936 18.1991 8.26045 18.177 8.22172 18.1725L8.09447 18.1578C8.03883 18.1514 7.98655 18.1825 7.97291 18.2302L7.95141 18.3054L7.85183 18.1504C7.79085 18.0554 7.81409 17.9361 7.90754 17.8642C7.96431 17.8206 8.03978 17.8004 8.11472 17.8088L8.35227 17.8355L8.23998 17.7091C8.20983 17.6751 8.19346 17.6334 8.19346 17.5904V17.5348C8.19346 17.4855 8.215 17.438 8.25367 17.4021L8.49122 17.1817C8.53481 17.1413 8.60828 17.1412 8.65187 17.1817L8.88944 17.4021C8.92811 17.438 8.94965 17.4855 8.94965 17.5348V17.5904C8.94965 17.6334 8.93328 17.6751 8.90313 17.7091L8.79084 17.8355L9.02839 17.8088C9.10333 17.8004 9.1788 17.8206 9.23557 17.8642C9.32902 17.9361 9.35226 18.0554 9.29128 18.1504L9.1917 18.3054L9.1702 18.2302C9.15656 18.1825 9.10428 18.1514 9.04864 18.1578L8.92139 18.1725C8.88266 18.177 8.84951 18.1991 8.83421 18.2305L8.70764 18.4909L8.88586 18.5691C8.95395 18.5989 8.96792 18.6787 8.91315 18.725L8.64828 18.9491Z" fill="#F8D74C"/>
<path d="M7.86587 16.7743L8.35373 15.993L8.64492 15.7536L8.98139 16.0218L8.74845 16.2635L8.14883 16.8036C8.34554 16.6797 8.52413 16.6361 8.58884 16.6299C8.83041 16.6268 8.95119 16.757 8.98139 16.8225C8.90202 16.8043 8.76426 16.8451 8.70531 16.8678L8.28687 16.9396L7.94608 17.1246C7.85981 17.355 7.66828 17.8241 7.59236 17.8574C7.51643 17.8906 7.51471 18.06 7.52334 18.1406C7.30937 18.056 7.29327 17.8485 7.31196 17.7554L7.65677 17.2191C7.49151 17.2921 7.142 17.4449 7.06608 17.4721C6.99015 17.4993 6.95679 17.5942 6.9496 17.6383C6.75635 17.4419 6.8432 17.3248 6.91078 17.2908L7.54922 17.0566L6.63901 17.0302C6.63901 16.7945 6.79709 16.7614 6.87613 16.7743L7.65677 16.9085L7.86587 16.7743Z" fill="#F8D74C"/>
<path d="M8.34467 9.11241L8.75839 9.55337L9.06538 9.46316C9.14799 9.43889 9.23919 9.45941 9.29819 9.51556L9.48264 9.69109H8.75839L8.5182 9.55728C8.51362 9.55472 8.5083 9.55337 8.50287 9.55337C8.4812 9.55337 8.46743 9.57368 8.47781 9.59034L8.58644 9.76465C8.62515 9.82676 8.69951 9.8654 8.78032 9.8654H8.95886C8.98717 9.8654 9.0144 9.87492 9.03493 9.892L9.13491 9.97519C9.15544 9.99227 9.18267 10.0018 9.21098 10.0018H9.86197L9.09786 8.81261C9.03259 8.80547 8.78512 8.79547 8.54039 8.81261C8.29566 8.82975 8.30794 9.01962 8.34467 9.11241Z" fill="#F8D74C"/>
<path d="M9.53154 8.67353C9.17909 8.5878 9.05845 8.70925 9.0422 8.7807C9.35624 9.20559 9.98433 10.1239 9.98433 10.3982C9.98433 10.741 9.75184 11.116 9.36027 11.3303C9.04702 11.5017 8.91973 11.4017 8.89525 11.3303C8.3487 10.9053 7.34859 9.91608 7.72058 9.35897C8.09257 8.80186 7.91869 8.7807 7.72058 8.7807C7.55835 8.7807 7.47341 8.76134 6.97416 9.11256C6.47491 9.46378 6.26034 10.7945 6.21545 11.416L6.32555 13.0873L6.59475 15.8086L6.46018 16.7835L7.05983 16.2585L7.23109 16.6549L7.59812 15.9157L7.69606 16.2585L7.96531 15.605L8.07539 15.8086L8.29564 14.8229L8.46696 15.1015L8.66279 14.3408L8.89525 14.6729L7.96531 16.2585L8.66279 16.0014L8.58937 16.5371L8.89525 16.355L8.98095 16.6549L9.27462 16.2585L9.50712 16.4835L9.73961 15.7121L10.1312 16.4835L9.11555 19.2798C9.57564 19.5369 10.5635 19.6012 11 19.6012V10.6339C11 10.2396 10.6737 9.55539 10.5105 9.26255C10.7552 9.29683 10.7675 9.09827 10.743 8.99471C10.557 9.01185 10.3066 8.93757 10.2046 8.89828C10.1271 8.85909 9.88399 8.75927 9.53154 8.67353Z" fill="#F9F9F9"/>
<path d="M13.3517 18.9491C13.3945 18.9853 13.4623 18.9853 13.5051 18.9491L13.77 18.725C13.8247 18.6787 13.8108 18.5989 13.7427 18.5691L13.5645 18.4909L13.691 18.2305C13.7063 18.1991 13.7395 18.177 13.7782 18.1725L13.9055 18.1578C13.9611 18.1514 14.0134 18.1825 14.027 18.2302L14.0485 18.3054L14.1481 18.1504C14.2091 18.0554 14.1858 17.9361 14.0924 17.8642C14.0356 17.8206 13.9602 17.8004 13.8852 17.8088L13.6477 17.8355L13.7599 17.7091C13.7901 17.6751 13.8065 17.6334 13.8065 17.5904V17.5348C13.8065 17.4855 13.7849 17.438 13.7463 17.4021L13.5087 17.1817C13.4651 17.1413 13.3916 17.1412 13.3481 17.1817L13.1105 17.4021C13.0718 17.438 13.0503 17.4855 13.0503 17.5348V17.5904C13.0503 17.6334 13.0666 17.6751 13.0968 17.7091L13.2091 17.8355L12.9715 17.8088C12.8966 17.8004 12.8211 17.8206 12.7644 17.8642C12.6709 17.9361 12.6477 18.0554 12.7086 18.1504L12.8082 18.3054L12.8297 18.2302C12.8434 18.1825 12.8957 18.1514 12.9513 18.1578L13.0785 18.1725C13.1173 18.177 13.1504 18.1991 13.1657 18.2305L13.2923 18.4909L13.1141 18.5691C13.046 18.5989 13.032 18.6787 13.0868 18.725L13.3517 18.9491Z" fill="#F8D74C"/>
<path d="M14.1341 16.7743L13.6462 15.993L13.355 15.7536L13.0185 16.0218L13.2515 16.2635L13.8511 16.8036C13.6544 16.6797 13.4758 16.6361 13.4111 16.6299C13.1695 16.6268 13.0487 16.757 13.0185 16.8225C13.0979 16.8043 13.2357 16.8451 13.2946 16.8678L13.7131 16.9396L14.0538 17.1246C14.1401 17.355 14.3316 17.8241 14.4076 17.8574C14.4835 17.8906 14.4852 18.06 14.4766 18.1406C14.6906 18.056 14.7067 17.8485 14.688 17.7554L14.3432 17.2191C14.5084 17.2921 14.8579 17.4449 14.9339 17.4721C15.0098 17.4993 15.0431 17.5942 15.0503 17.6383C15.2436 17.4419 15.1567 17.3248 15.0891 17.2908L14.4507 17.0566L15.3609 17.0302C15.3609 16.7945 15.2028 16.7614 15.1238 16.7743L14.3432 16.9085L14.1341 16.7743Z" fill="#F8D74C"/>
<path d="M13.6553 9.11241L13.2415 9.55337L12.9345 9.46316C12.8519 9.43889 12.7607 9.45941 12.7017 9.51556L12.5173 9.69109H13.2415L13.4817 9.55728C13.4863 9.55472 13.4916 9.55337 13.4971 9.55337C13.5187 9.55337 13.5325 9.57368 13.5221 9.59034L13.4135 9.76465C13.3748 9.82676 13.3004 9.8654 13.2196 9.8654H13.0411C13.0128 9.8654 12.9855 9.87492 12.965 9.892L12.865 9.97519C12.8445 9.99227 12.8173 10.0018 12.7889 10.0018H12.138L12.9021 8.81261C12.9673 8.80547 13.2148 8.79547 13.4595 8.81261C13.7043 8.82975 13.692 9.01962 13.6553 9.11241Z" fill="#F8D74C"/>
<path d="M12.4684 8.67353C12.8208 8.5878 12.9415 8.70925 12.9577 8.7807C12.6437 9.20559 12.0156 10.1239 12.0156 10.3982C12.0156 10.741 12.2481 11.116 12.6397 11.3303C12.9529 11.5017 13.0802 11.4017 13.1047 11.3303C13.6512 10.9053 14.6513 9.91608 14.2793 9.35897C13.9074 8.80186 14.1037 8.7807 14.2793 8.7807C14.3358 8.82007 14.5265 8.76134 15.0258 9.11256C15.525 9.46378 15.7396 10.7945 15.7845 11.416L15.6744 13.0873L15.4052 15.8086L15.5397 16.7835L14.9401 16.2585L14.7688 16.6549L14.4018 15.9157L14.3039 16.2585L14.0346 15.605L13.9245 15.8086L13.7043 14.8229L13.533 15.1015L13.3371 14.3408L13.1047 14.6729L14.0346 16.2585L13.3371 16.0014L13.4106 16.5371L13.1047 16.355L13.019 16.6549L12.7253 16.2585L12.4928 16.4835L12.2603 15.7121L11.8688 16.4835L12.8844 19.2798C12.4243 19.5369 11.4364 19.6012 11 19.6012V10.6339C11 10.2396 11.3263 9.55539 11.4894 9.26255C11.2447 9.29683 11.2325 9.09827 11.2569 8.99471C11.4429 9.01185 11.6934 8.93757 11.7953 8.89828C11.8728 8.85909 12.1159 8.75927 12.4684 8.67353Z" fill="#F9F9F9"/>
<path fill-rule="evenodd" clip-rule="evenodd" d="M8.99256 4.07297C9.62822 3.89316 10.3226 3.8742 10.8211 3.91445V3.27822H10.161V2.79477H10.8211V2.38997H11.3732V2.79477H12.1929V3.27822H11.3732V3.90439C11.854 3.88024 12.4713 3.91214 13.0413 4.07337C13.7489 4.27354 14.4279 4.68931 14.6183 5.4775C14.8037 6.24469 14.4856 6.80418 14.0123 7.1747C14.0103 7.17622 14.0084 7.17773 14.0064 7.17924V8.24457C14.0064 8.29797 13.957 8.34126 13.896 8.34126H8.40459C8.3436 8.34126 8.29416 8.29797 8.29416 8.24457V7.35892C8.19981 7.30352 8.10821 7.24212 8.02156 7.1743C7.54822 6.80378 7.23011 6.24429 7.41547 5.4771C7.60591 4.6889 8.28491 4.27313 8.99256 4.07297ZM8.64598 6.98269H9.38069C9.07708 6.68856 8.81337 6.31002 8.81337 5.88301C8.81337 5.39818 9.20213 4.9725 9.59776 4.66161C9.71901 4.56633 9.84701 4.47706 9.97559 4.39505C9.70661 4.41541 9.42644 4.45829 9.16231 4.533C8.56274 4.70259 8.09032 5.01991 7.95568 5.57715C7.81597 6.15541 8.04586 6.54484 8.38958 6.81388C8.46959 6.87651 8.55609 6.93268 8.64598 6.98269ZM10.1885 6.98269H10.8211V4.49408C10.5571 4.6234 10.2397 4.80674 9.96657 5.0214C9.59252 5.31533 9.36553 5.6174 9.36553 5.88301C9.36553 6.16315 9.56284 6.45795 9.86858 6.7313C9.97033 6.82227 10.0794 6.90665 10.1885 6.98269ZM11.8459 6.98269H11.3732V4.5765C11.5993 4.69681 11.8476 4.84918 12.0672 5.0218C12.4413 5.31574 12.6683 5.6178 12.6683 5.88342C12.6683 6.16355 12.471 6.45835 12.1652 6.73171C12.0637 6.82252 11.9548 6.90675 11.8459 6.98269ZM12.6535 6.98269H13.3886C13.4782 6.93278 13.5644 6.87675 13.6442 6.81429C13.988 6.54524 14.2178 6.15581 14.0781 5.57756C13.9435 5.02031 13.4711 4.703 12.8715 4.5334C12.6074 4.45869 12.3272 4.41581 12.0582 4.39545C12.1868 4.47747 12.3148 4.56674 12.4361 4.66202C12.8317 4.9729 13.2204 5.39859 13.2204 5.88342C13.2204 6.31023 12.957 6.68862 12.6535 6.98269Z" fill="#F8D74C"/>
<path d="M10.7472 3.86462C10.7472 3.71717 10.8838 3.59763 11.0522 3.59763H11.1896C11.358 3.59763 11.4945 3.71717 11.4945 3.86462C11.4945 4.01208 11.358 4.13161 11.1896 4.13161H11.0522C10.8838 4.13161 10.7472 4.01208 10.7472 3.86462Z" fill="#485CC2"/>
<path d="M8.42307 7.79579C8.42307 7.69325 8.518 7.61013 8.63511 7.61013H8.95831C9.07542 7.61013 9.17035 7.69325 9.17035 7.79579C9.17035 7.89832 9.07542 7.98145 8.95831 7.98145H8.63511C8.518 7.98145 8.42307 7.89832 8.42307 7.79579Z" fill="#485CC2"/>
<path d="M10.7472 7.79579C10.7472 7.69325 10.8422 7.61013 10.9593 7.61013H11.2825C11.3996 7.61013 11.4945 7.69325 11.4945 7.79579C11.4945 7.89832 11.3996 7.98145 11.2825 7.98145H10.9593C10.8422 7.98145 10.7472 7.89832 10.7472 7.79579Z" fill="#485CC2"/>
<path d="M11.9612 7.79579C11.9612 7.69325 12.0561 7.61013 12.1732 7.61013H12.4964C12.6135 7.61013 12.7085 7.69325 12.7085 7.79579C12.7085 7.89832 12.6135 7.98145 12.4964 7.98145H12.1732C12.0561 7.98145 11.9612 7.89832 11.9612 7.79579Z" fill="#D74B4B"/>
<path d="M9.55718 7.79579C9.55718 7.69325 9.65212 7.61013 9.76923 7.61013H10.0924C10.2095 7.61013 10.3045 7.69325 10.3045 7.79579C10.3045 7.89832 10.2095 7.98145 10.0924 7.98145H9.76923C9.65212 7.98145 9.55718 7.89832 9.55718 7.79579Z" fill="#D74B4B"/>
<path d="M13.0714 7.79579C13.0714 7.69325 13.1664 7.61013 13.2835 7.61013H13.6067C13.7238 7.61013 13.8187 7.69325 13.8187 7.79579C13.8187 7.89832 13.7238 7.98145 13.6067 7.98145H13.2835C13.1664 7.98145 13.0714 7.89832 13.0714 7.79579Z" fill="#485CC2"/>
<path fill-rule="evenodd" clip-rule="evenodd" d="M10.5307 2.88172C10.5307 2.95843 10.4795 3.02474 10.4053 3.05616C10.4795 3.08759 10.5307 3.15389 10.5307 3.23061C10.5307 3.33767 10.431 3.42446 10.3081 3.42446C10.1851 3.42446 10.0855 3.33767 10.0855 3.23061C10.0855 3.22748 10.0856 3.22437 10.0857 3.22128C9.99592 3.19633 9.93086 3.12307 9.93086 3.03657C9.93086 2.94928 9.99712 2.87546 10.0882 2.85118C10.105 2.75863 10.1971 2.68787 10.3081 2.68787C10.431 2.68787 10.5307 2.77466 10.5307 2.88172Z" fill="#F8D74C"/>
<path fill-rule="evenodd" clip-rule="evenodd" d="M11.7717 2.88172C11.7717 2.95843 11.8229 3.02474 11.8971 3.05616C11.8229 3.08759 11.7717 3.15389 11.7717 3.23061C11.7717 3.33767 11.8714 3.42446 11.9943 3.42446C12.1172 3.42446 12.2169 3.33767 12.2169 3.23061C12.2169 3.22748 12.2168 3.22437 12.2166 3.22128C12.3065 3.19633 12.3715 3.12307 12.3715 3.03657C12.3715 2.94928 12.3053 2.87546 12.2141 2.85118C12.1973 2.75863 12.1053 2.68787 11.9943 2.68787C11.8714 2.68787 11.7717 2.77466 11.7717 2.88172Z" fill="#F8D74C"/>
<path fill-rule="evenodd" clip-rule="evenodd" d="M10.9189 2.55596C10.9913 2.55596 11.0556 2.52534 11.096 2.478C11.1364 2.52534 11.2007 2.55596 11.2732 2.55596C11.3954 2.55596 11.4946 2.4687 11.4946 2.36107C11.4946 2.26617 11.4175 2.18712 11.3155 2.16973C11.3015 2.07398 11.2085 2 11.0959 2C10.9833 2 10.8903 2.074 10.8763 2.16977C10.7744 2.18724 10.6975 2.26624 10.6975 2.36107C10.6975 2.4687 10.7966 2.55596 10.9189 2.55596Z" fill="#F8D74C"/>
<path d="M7.92193 6.77948C7.92193 6.87167 7.83657 6.9464 7.73128 6.9464C7.62599 6.9464 7.54063 6.87167 7.54063 6.77948C7.54063 6.68729 7.62599 6.61256 7.73128 6.61256C7.83657 6.61256 7.92193 6.68729 7.92193 6.77948Z" fill="#F9F9F9"/>
<path d="M7.73132 6.44569C7.73132 6.53788 7.64596 6.61262 7.54067 6.61262C7.43537 6.61262 7.35002 6.53788 7.35002 6.44569C7.35002 6.3535 7.43537 6.27877 7.54067 6.27877C7.64596 6.27877 7.73132 6.3535 7.73132 6.44569Z" fill="#F9F9F9"/>
<path d="M7.60622 6.06659C7.60622 6.15878 7.52086 6.23351 7.41557 6.23351C7.31027 6.23351 7.22492 6.15878 7.22492 6.06659C7.22492 5.9744 7.31027 5.89966 7.41557 5.89966C7.52086 5.89966 7.60622 5.9744 7.60622 6.06659Z" fill="#F9F9F9"/>
<path d="M7.55257 5.68748C7.55257 5.77967 7.46721 5.8544 7.36191 5.8544C7.25662 5.8544 7.17126 5.77967 7.17126 5.68748C7.17126 5.59529 7.25662 5.52056 7.36191 5.52056C7.46721 5.52056 7.55257 5.59529 7.55257 5.68748Z" fill="#F9F9F9"/>
<path d="M7.65839 5.30837C7.65839 5.40056 7.57303 5.47529 7.46774 5.47529C7.36244 5.47529 7.27709 5.40056 7.27709 5.30837C7.27709 5.21618 7.36244 5.14145 7.46774 5.14145C7.57303 5.14145 7.65839 5.21618 7.65839 5.30837Z" fill="#F9F9F9"/>
<path d="M7.79683 4.92926C7.79683 5.02145 7.71148 5.09619 7.60618 5.09619C7.50089 5.09619 7.41553 5.02145 7.41553 4.92926C7.41553 4.83707 7.50089 4.76234 7.60618 4.76234C7.71148 4.76234 7.79683 4.83707 7.79683 4.92926Z" fill="#F9F9F9"/>
<path d="M8.11255 4.59548C8.11255 4.68767 8.02719 4.7624 7.9219 4.7624C7.8166 4.7624 7.73125 4.68767 7.73125 4.59548C7.73125 4.50329 7.8166 4.42856 7.9219 4.42856C8.02719 4.42856 8.11255 4.50329 8.11255 4.59548Z" fill="#F9F9F9"/>
<path d="M8.423 4.3429C8.423 4.43509 8.33765 4.50982 8.23235 4.50982C8.12706 4.50982 8.0417 4.43509 8.0417 4.3429C8.0417 4.25071 8.12706 4.17597 8.23235 4.17597C8.33765 4.17597 8.423 4.25071 8.423 4.3429Z" fill="#F9F9F9"/>
<path d="M8.80437 4.13139C8.80437 4.22358 8.71901 4.29831 8.61372 4.29831C8.50842 4.29831 8.42307 4.22358 8.42307 4.13139C8.42307 4.0392 8.50842 3.96447 8.61372 3.96447C8.71901 3.96447 8.80437 4.0392 8.80437 4.13139Z" fill="#F9F9F9"/>
<path d="M9.24693 4.00911C9.24693 4.1013 9.16158 4.17604 9.05628 4.17604C8.95099 4.17604 8.86563 4.1013 8.86563 4.00911C8.86563 3.91692 8.95099 3.84219 9.05628 3.84219C9.16158 3.84219 9.24693 3.91692 9.24693 4.00911Z" fill="#F9F9F9"/>
<path d="M9.68909 3.91658C9.68909 4.00877 9.60374 4.0835 9.49844 4.0835C9.39315 4.0835 9.30779 4.00877 9.30779 3.91658C9.30779 3.82439 9.39315 3.74966 9.49844 3.74966C9.60374 3.74966 9.68909 3.82439 9.68909 3.91658Z" fill="#F9F9F9"/>
<path d="M10.1313 3.86465C10.1313 3.95684 10.0459 4.03157 9.94061 4.03157C9.83531 4.03157 9.74996 3.95684 9.74996 3.86465C9.74996 3.77246 9.83531 3.69772 9.94061 3.69772C10.0459 3.69772 10.1313 3.77246 10.1313 3.86465Z" fill="#F9F9F9"/>
<path d="M10.6121 3.84198C10.6121 3.93417 10.5267 4.00891 10.4215 4.00891C10.3162 4.00891 10.2308 3.93417 10.2308 3.84198C10.2308 3.7498 10.3162 3.67506 10.4215 3.67506C10.5267 3.67506 10.6121 3.7498 10.6121 3.84198Z" fill="#F9F9F9"/>
<path d="M10.6857 4.17577C10.6857 4.26796 10.6004 4.34269 10.4951 4.34269C10.3898 4.34269 10.3044 4.26796 10.3044 4.17577C10.3044 4.08358 10.3898 4.00885 10.4951 4.00885C10.6004 4.00885 10.6857 4.08358 10.6857 4.17577Z" fill="#F9F9F9"/>
<path d="M10.322 4.34243C10.322 4.43461 10.2366 4.50935 10.1314 4.50935C10.0261 4.50935 9.94071 4.43461 9.94071 4.34243C9.94071 4.25024 10.0261 4.1755 10.1314 4.1755C10.2366 4.1755 10.322 4.25024 10.322 4.34243Z" fill="#F9F9F9"/>
<path d="M9.9308 4.59548C9.9308 4.68767 9.84544 4.7624 9.74015 4.7624C9.63486 4.7624 9.5495 4.68767 9.5495 4.59548C9.5495 4.50329 9.63486 4.42856 9.74015 4.42856C9.84544 4.42856 9.9308 4.50329 9.9308 4.59548Z" fill="#F9F9F9"/>
<path d="M9.55712 4.92926C9.55712 5.02145 9.47176 5.09619 9.36647 5.09619C9.26118 5.09619 9.17582 5.02145 9.17582 4.92926C9.17582 4.83707 9.26118 4.76234 9.36647 4.76234C9.47176 4.76234 9.55712 4.83707 9.55712 4.92926Z" fill="#F9F9F9"/>
<path d="M9.30773 5.30837C9.30773 5.40056 9.22237 5.47529 9.11708 5.47529C9.01179 5.47529 8.92643 5.40056 8.92643 5.30837C8.92643 5.21618 9.01179 5.14145 9.11708 5.14145C9.22237 5.14145 9.30773 5.21618 9.30773 5.30837Z" fill="#F9F9F9"/>
<path d="M9.17023 5.68748C9.17023 5.77967 9.08487 5.8544 8.97958 5.8544C8.87429 5.8544 8.78893 5.77967 8.78893 5.68748C8.78893 5.59529 8.87429 5.52056 8.97958 5.52056C9.08487 5.52056 9.17023 5.59529 9.17023 5.68748Z" fill="#F9F9F9"/>
<path d="M9.17023 6.06659C9.17023 6.15878 9.08487 6.23351 8.97958 6.23351C8.87429 6.23351 8.78893 6.15878 8.78893 6.06659C8.78893 5.9744 8.87429 5.89966 8.97958 5.89966C9.08487 5.89966 9.17023 5.9744 9.17023 6.06659Z" fill="#F9F9F9"/>
<path d="M9.36084 6.44569C9.36084 6.53788 9.27549 6.61262 9.17019 6.61262C9.0649 6.61262 8.97954 6.53788 8.97954 6.44569C8.97954 6.3535 9.0649 6.27877 9.17019 6.27877C9.27549 6.27877 9.36084 6.3535 9.36084 6.44569Z" fill="#F9F9F9"/>
<path d="M9.68909 6.77948C9.68909 6.87167 9.60374 6.9464 9.49844 6.9464C9.39315 6.9464 9.30779 6.87167 9.30779 6.77948C9.30779 6.68729 9.39315 6.61256 9.49844 6.61256C9.60374 6.61256 9.68909 6.68729 9.68909 6.77948Z" fill="#F9F9F9"/>
<path d="M14.0779 6.77948C14.0779 6.87167 14.1633 6.9464 14.2686 6.9464C14.3739 6.9464 14.4592 6.87167 14.4592 6.77948C14.4592 6.68729 14.3739 6.61256 14.2686 6.61256C14.1633 6.61256 14.0779 6.68729 14.0779 6.77948Z" fill="#F9F9F9"/>
<path d="M14.2686 6.44569C14.2686 6.53788 14.3539 6.61262 14.4592 6.61262C14.5645 6.61262 14.6499 6.53788 14.6499 6.44569C14.6499 6.3535 14.5645 6.27877 14.4592 6.27877C14.3539 6.27877 14.2686 6.3535 14.2686 6.44569Z" fill="#F9F9F9"/>
<path d="M14.3937 6.06659C14.3937 6.15878 14.479 6.23351 14.5843 6.23351C14.6896 6.23351 14.775 6.15878 14.775 6.06659C14.775 5.9744 14.6896 5.89966 14.5843 5.89966C14.479 5.89966 14.3937 5.9744 14.3937 6.06659Z" fill="#F9F9F9"/>
<path d="M14.4473 5.68748C14.4473 5.77967 14.5327 5.8544 14.638 5.8544C14.7433 5.8544 14.8286 5.77967 14.8286 5.68748C14.8286 5.59529 14.7433 5.52056 14.638 5.52056C14.5327 5.52056 14.4473 5.59529 14.4473 5.68748Z" fill="#F9F9F9"/>
<path d="M14.3415 5.30837C14.3415 5.40056 14.4268 5.47529 14.5321 5.47529C14.6374 5.47529 14.7228 5.40056 14.7228 5.30837C14.7228 5.21618 14.6374 5.14145 14.5321 5.14145C14.4268 5.14145 14.3415 5.21618 14.3415 5.30837Z" fill="#F9F9F9"/>
<path d="M14.203 4.92926C14.203 5.02145 14.2884 5.09619 14.3937 5.09619C14.499 5.09619 14.5843 5.02145 14.5843 4.92926C14.5843 4.83707 14.499 4.76234 14.3937 4.76234C14.2884 4.76234 14.203 4.83707 14.203 4.92926Z" fill="#F9F9F9"/>
<path d="M13.8873 4.59548C13.8873 4.68767 13.9727 4.7624 14.078 4.7624C14.1833 4.7624 14.2686 4.68767 14.2686 4.59548C14.2686 4.50329 14.1833 4.42856 14.078 4.42856C13.9727 4.42856 13.8873 4.50329 13.8873 4.59548Z" fill="#F9F9F9"/>
<path d="M13.5769 4.3429C13.5769 4.43509 13.6622 4.50982 13.7675 4.50982C13.8728 4.50982 13.9582 4.43509 13.9582 4.3429C13.9582 4.25071 13.8728 4.17597 13.7675 4.17597C13.6622 4.17597 13.5769 4.25071 13.5769 4.3429Z" fill="#F9F9F9"/>
<path d="M13.1955 4.13139C13.1955 4.22358 13.2809 4.29831 13.3862 4.29831C13.4915 4.29831 13.5768 4.22358 13.5768 4.13139C13.5768 4.0392 13.4915 3.96447 13.3862 3.96447C13.2809 3.96447 13.1955 4.0392 13.1955 4.13139Z" fill="#F9F9F9"/>
<path d="M12.8141 4.00911C12.8141 4.1013 12.8995 4.17604 13.0048 4.17604C13.1101 4.17604 13.1954 4.1013 13.1954 4.00911C13.1954 3.91692 13.1101 3.84219 13.0048 3.84219C12.8995 3.84219 12.8141 3.91692 12.8141 4.00911Z" fill="#F9F9F9"/>
<path d="M12.4157 3.91658C12.4157 4.00877 12.5011 4.0835 12.6064 4.0835C12.7117 4.0835 12.797 4.00877 12.797 3.91658C12.797 3.82439 12.7117 3.74966 12.6064 3.74966C12.5011 3.74966 12.4157 3.82439 12.4157 3.91658Z" fill="#F9F9F9"/>
<path d="M11.9902 3.86465C11.9902 3.95684 12.0756 4.03157 12.1809 4.03157C12.2862 4.03157 12.3715 3.95684 12.3715 3.86465C12.3715 3.77246 12.2862 3.69772 12.1809 3.69772C12.0756 3.69772 11.9902 3.77246 11.9902 3.86465Z" fill="#F9F9F9"/>
<path d="M11.5799 3.84198C11.5799 3.93417 11.6652 4.00891 11.7705 4.00891C11.8758 4.00891 11.9612 3.93417 11.9612 3.84198C11.9612 3.7498 11.8758 3.67506 11.7705 3.67506C11.6652 3.67506 11.5799 3.7498 11.5799 3.84198Z" fill="#F9F9F9"/>
<path d="M11.4945 4.26163C11.4945 4.35382 11.5798 4.42856 11.6851 4.42856C11.7904 4.42856 11.8758 4.35382 11.8758 4.26163C11.8758 4.16944 11.7904 4.09471 11.6851 4.09471C11.5798 4.09471 11.4945 4.16944 11.4945 4.26163Z" fill="#F9F9F9"/>
<path d="M11.9535 4.50955C11.9535 4.60174 12.0388 4.67648 12.1441 4.67648C12.2494 4.67648 12.3348 4.60174 12.3348 4.50955C12.3348 4.41736 12.2494 4.34263 12.1441 4.34263C12.0388 4.34263 11.9535 4.41736 11.9535 4.50955Z" fill="#F9F9F9"/>
<path d="M12.3271 4.76261C12.3271 4.8548 12.4124 4.92953 12.5177 4.92953C12.623 4.92953 12.7084 4.8548 12.7084 4.76261C12.7084 4.67042 12.623 4.59568 12.5177 4.59568C12.4124 4.59568 12.3271 4.67042 12.3271 4.76261Z" fill="#F9F9F9"/>
<path d="M12.639 5.09592C12.639 5.18811 12.7243 5.26284 12.8296 5.26284C12.9349 5.26284 13.0203 5.18811 13.0203 5.09592C13.0203 5.00373 12.9349 4.929 12.8296 4.929C12.7243 4.929 12.639 5.00373 12.639 5.09592Z" fill="#F9F9F9"/>
<path d="M12.8808 5.4755C12.8808 5.56769 12.9662 5.64242 13.0715 5.64242C13.1767 5.64242 13.2621 5.56769 13.2621 5.4755C13.2621 5.38331 13.1767 5.30858 13.0715 5.30858C12.9662 5.30858 12.8808 5.38331 12.8808 5.4755Z" fill="#F9F9F9"/>
<path d="M12.9481 5.89966C12.9481 5.99185 13.0334 6.06659 13.1387 6.06659C13.244 6.06659 13.3294 5.99185 13.3294 5.89966C13.3294 5.80747 13.244 5.73274 13.1387 5.73274C13.0334 5.73274 12.9481 5.80747 12.9481 5.89966Z" fill="#F9F9F9"/>
<path d="M12.7971 6.32436C12.7971 6.41655 12.8825 6.49128 12.9877 6.49128C13.093 6.49128 13.1784 6.41655 13.1784 6.32436C13.1784 6.23217 13.093 6.15744 12.9877 6.15744C12.8825 6.15744 12.7971 6.23217 12.7971 6.32436Z" fill="#F9F9F9"/>
<path d="M12.5177 6.77948C12.5177 6.87167 12.6031 6.9464 12.7084 6.9464C12.8137 6.9464 12.899 6.87167 12.899 6.77948C12.899 6.68729 12.8137 6.61256 12.7084 6.61256C12.6031 6.61256 12.5177 6.68729 12.5177 6.77948Z" fill="#F9F9F9"/>
<path d="M10.9053 4.67621C10.9053 4.7684 10.9907 4.84313 11.096 4.84313C11.2012 4.84313 11.2866 4.7684 11.2866 4.67621C11.2866 4.58402 11.2012 4.50929 11.096 4.50929C10.9907 4.50929 10.9053 4.58402 10.9053 4.67621Z" fill="#F9F9F9"/>
<path d="M10.9053 5.09639C10.9053 5.18858 10.9907 5.26332 11.096 5.26332C11.2012 5.26332 11.2866 5.18858 11.2866 5.09639C11.2866 5.0042 11.2012 4.92947 11.096 4.92947C10.9907 4.92947 10.9053 5.0042 10.9053 5.09639Z" fill="#F9F9F9"/>
<path d="M10.9053 5.52082C10.9053 5.61301 10.9907 5.68775 11.096 5.68775C11.2012 5.68775 11.2866 5.61301 11.2866 5.52082C11.2866 5.42863 11.2012 5.3539 11.096 5.3539C10.9907 5.3539 10.9053 5.42863 10.9053 5.52082Z" fill="#F9F9F9"/>
<path d="M10.9053 6.40037C10.9053 6.49256 10.9907 6.56729 11.096 6.56729C11.2012 6.56729 11.2866 6.49256 11.2866 6.40037C11.2866 6.30818 11.2012 6.23345 11.096 6.23345C10.9907 6.23345 10.9053 6.30818 10.9053 6.40037Z" fill="#F9F9F9"/>
<path d="M10.9053 5.94478C10.9053 6.03697 10.9907 6.1117 11.096 6.1117C11.2012 6.1117 11.2866 6.03697 11.2866 5.94478C11.2866 5.85259 11.2012 5.77786 11.096 5.77786C10.9907 5.77786 10.9053 5.85259 10.9053 5.94478Z" fill="#F9F9F9"/>
<path d="M10.9053 6.82433C10.9053 6.91652 10.9907 6.99125 11.096 6.99125C11.2012 6.99125 11.2866 6.91652 11.2866 6.82433C11.2866 6.73214 11.2012 6.65741 11.096 6.65741C10.9907 6.65741 10.9053 6.73214 10.9053 6.82433Z" fill="#F9F9F9"/>
<path d="M9.11604 11.5978L12.884 11.5972V14.4452C12.884 15.3561 12.0407 16.0946 11.0004 16.0947C9.95975 16.0949 9.11604 15.3564 9.11604 14.4452V11.5978Z" fill="#D74B4B"/>
<path d="M9.71208 11.8715C9.59394 11.8479 9.4814 11.9265 9.4814 12.0326V12.2442C9.4814 12.3156 9.53387 12.379 9.61144 12.4012L9.68462 12.4222C9.7679 12.4461 9.859 12.4166 9.90457 12.3511L9.95669 12.2762C9.9838 12.2372 9.96969 12.1863 9.92517 12.1626C9.88065 12.1389 9.82258 12.1512 9.79547 12.1902L9.74335 12.2651L9.67017 12.2442V12.0326L10.1731 12.1329V12.3258L10.1039 12.3772C10.0993 12.3805 10.0949 12.3842 10.0908 12.3883C10.0757 12.4039 10.0684 12.4229 10.0684 12.4418C10.0684 12.4608 10.0757 12.4798 10.0908 12.4953C10.0949 12.4995 10.0993 12.5032 10.1039 12.5065L10.1731 12.5579V12.7508L9.67017 12.851V12.6395L9.74335 12.6185L9.79547 12.6935C9.82258 12.7324 9.88065 12.7448 9.92517 12.7211C9.96969 12.6973 9.9838 12.6465 9.95669 12.6075L9.90457 12.5326C9.859 12.467 9.7679 12.4376 9.68462 12.4615L9.61144 12.4824C9.53387 12.5047 9.4814 12.568 9.4814 12.6395V12.851C9.4814 12.9571 9.59394 13.0357 9.71208 13.0122L10.215 12.9119C10.3009 12.8948 10.3618 12.8279 10.3618 12.7508V12.5579C10.3618 12.5142 10.3421 12.4726 10.3075 12.4418C10.3421 12.411 10.3618 12.3694 10.3618 12.3258V12.1329C10.3618 12.0558 10.3009 11.9889 10.215 11.9718L9.71208 11.8715Z" fill="#F9F9F9"/>
<path d="M12.298 11.8715C12.4161 11.8479 12.5286 11.9265 12.5286 12.0326V12.2442C12.5286 12.3156 12.4762 12.379 12.3986 12.4012L12.3254 12.4222C12.2421 12.4461 12.151 12.4166 12.1055 12.3511L12.0533 12.2762C12.0262 12.2372 12.0404 12.1863 12.0849 12.1626C12.1294 12.1389 12.1875 12.1512 12.2146 12.1902L12.2667 12.2651L12.3399 12.2442V12.0326L11.837 12.1329V12.3258L11.9061 12.3772C11.9108 12.3805 11.9152 12.3842 11.9192 12.3883C11.9343 12.4039 11.9417 12.4229 11.9417 12.4418C11.9417 12.4608 11.9343 12.4798 11.9192 12.4953C11.9152 12.4995 11.9108 12.5032 11.9061 12.5065L11.837 12.5579V12.7508L12.3399 12.851V12.6395L12.2667 12.6185L12.2146 12.6935C12.1875 12.7324 12.1294 12.7448 12.0849 12.7211C12.0404 12.6973 12.0262 12.6465 12.0533 12.6075L12.1055 12.5326C12.151 12.467 12.2421 12.4376 12.3254 12.4615L12.3986 12.4824C12.4762 12.5047 12.5286 12.568 12.5286 12.6395V12.851C12.5286 12.9571 12.4161 13.0357 12.298 13.0122L11.7951 12.9119C11.7092 12.8948 11.6482 12.8279 11.6482 12.7508V12.5579C11.6482 12.5142 11.6679 12.4726 11.7026 12.4418C11.6679 12.411 11.6482 12.3694 11.6482 12.3258V12.1329C11.6482 12.0558 11.7092 11.9889 11.7951 11.9718L12.298 11.8715Z" fill="#F9F9F9"/>
<path d="M9.71208 14.2538C9.59394 14.2302 9.4814 14.3088 9.4814 14.4149V14.6264C9.4814 14.6979 9.53387 14.7613 9.61144 14.7835L9.68462 14.8045C9.7679 14.8284 9.859 14.7989 9.90457 14.7334L9.95669 14.6585C9.9838 14.6195 9.96969 14.5686 9.92517 14.5449C9.88065 14.5212 9.82258 14.5335 9.79547 14.5725L9.74335 14.6474L9.67017 14.6264V14.4149L10.1731 14.5152V14.7081L10.1039 14.7595C10.0993 14.7627 10.0949 14.7665 10.0908 14.7706C10.0757 14.7862 10.0684 14.8052 10.0684 14.8241C10.0684 14.843 10.0757 14.8621 10.0908 14.8776C10.0949 14.8818 10.0993 14.8855 10.1039 14.8888L10.1731 14.9401V15.1331L9.67017 15.2333V15.0218L9.74335 15.0008L9.79547 15.0757C9.82258 15.1147 9.88065 15.1271 9.92517 15.1033C9.96969 15.0796 9.9838 15.0288 9.95669 14.9898L9.90457 14.9149C9.859 14.8493 9.7679 14.8199 9.68462 14.8437L9.61144 14.8647C9.53387 14.887 9.4814 14.9503 9.4814 15.0218V15.2333C9.4814 15.3394 9.59394 15.418 9.71208 15.3945L10.215 15.2942C10.3009 15.2771 10.3618 15.2102 10.3618 15.1331V14.9401C10.3618 14.8965 10.3421 14.8549 10.3075 14.8241C10.3421 14.7933 10.3618 14.7517 10.3618 14.7081V14.5152C10.3618 14.438 10.3009 14.3712 10.215 14.354L9.71208 14.2538Z" fill="#F9F9F9"/>
<path d="M12.298 14.2538C12.4161 14.2302 12.5286 14.3088 12.5286 14.4149V14.6264C12.5286 14.6979 12.4762 14.7613 12.3986 14.7835L12.3254 14.8045C12.2421 14.8284 12.151 14.7989 12.1055 14.7334L12.0533 14.6585C12.0262 14.6195 12.0404 14.5686 12.0849 14.5449C12.1294 14.5212 12.1875 14.5335 12.2146 14.5725L12.2667 14.6474L12.3399 14.6264V14.4149L11.837 14.5152V14.7081L11.9061 14.7595C11.9108 14.7627 11.9152 14.7665 11.9192 14.7706C11.9343 14.7862 11.9417 14.8052 11.9417 14.8241C11.9417 14.843 11.9343 14.8621 11.9192 14.8776C11.9152 14.8818 11.9108 14.8855 11.9061 14.8888L11.837 14.9401V15.1331L12.3399 15.2333V15.0218L12.2667 15.0008L12.2146 15.0757C12.1875 15.1147 12.1294 15.1271 12.0849 15.1033C12.0404 15.0796 12.0262 15.0288 12.0533 14.9898L12.1055 14.9149C12.151 14.8493 12.2421 14.8199 12.3254 14.8437L12.3986 14.8647C12.4762 14.887 12.5286 14.9503 12.5286 15.0218V15.2333C12.5286 15.3394 12.4161 15.418 12.298 15.3945L11.7951 15.2942C11.7092 15.2771 11.6482 15.2102 11.6482 15.1331V14.9401C11.6482 14.8965 11.6679 14.8549 11.7026 14.8241C11.6679 14.7933 11.6482 14.7517 11.6482 14.7081V14.5152C11.6482 14.438 11.7092 14.3712 11.7951 14.354L12.298 14.2538Z" fill="#F9F9F9"/>
<path fill-rule="evenodd" clip-rule="evenodd" d="M11.3797 13.3691V11.5972H10.6159L10.6159 13.3691H9.11487V14.0378H10.6159L10.6159 16.1593H11.3797V14.0378H12.8808V13.3691H11.3797Z" fill="#F9F9F9"/>
</g>
<defs>
<clipPath id="clip0_440_1435">
<rect width="32" height="24" rx="2" fill="white"/>
</clipPath>
</defs>
</svg>
