<svg width="32" height="24" viewBox="0 0 32 24" fill="none" xmlns="http://www.w3.org/2000/svg">
<rect width="32" height="24" rx="2" fill="#F9F9F9"/>
<path d="M0 16H32V24H0V16Z" fill="#D74B4B"/>
<path d="M0 8H32V16H0V8Z" fill="#485CC2"/>
<path fill-rule="evenodd" clip-rule="evenodd" d="M7.19698 5.4872V8.1277C7.19698 9.82575 8.02006 11.409 9.38528 12.3371L10 12.755L10.6147 12.3371C11.9799 11.409 12.803 9.82574 12.803 8.12769V5.4872H13V8.12769C13 9.89505 12.1433 11.5429 10.7224 12.5089L10 13L9.27762 12.5089C7.85667 11.5429 7 9.89505 7 8.1277V5.4872H7.19698Z" fill="#D74B4B"/>
<path d="M7.09849 5.48752L8.56831 5.15943C9.52909 4.94497 10.5228 4.94689 11.4828 5.16508L12.9015 5.48752V8.12802C12.9015 9.86072 12.0616 11.4763 10.6686 12.4233L10 12.8778L9.33145 12.4233C7.93837 11.4763 7.09849 9.86072 7.09849 8.12802V5.48752Z" fill="#485CC2"/>
<mask id="mask0_440_1429" style="mask-type:alpha" maskUnits="userSpaceOnUse" x="7" y="5" width="6" height="8">
<path d="M7.22179 5.63064L8.56718 5.33033C9.52795 5.11587 10.5216 5.11779 11.4816 5.33598L12.7782 5.63064V8.04087C12.7782 9.77358 11.9383 11.3892 10.5452 12.3362L9.99998 12.7068L9.45475 12.3362C8.06166 11.3892 7.22179 9.77358 7.22179 8.04087V5.63064Z" fill="#3FB47C"/>
</mask>
<g mask="url(#mask0_440_1429)">
<path fill-rule="evenodd" clip-rule="evenodd" d="M8.77895 8.43208L7.53906 10.0489L7.28839 10.2629L7.32002 10.2494C7.46666 10.1866 7.63369 10.2038 7.76566 10.2953C7.85038 10.3541 7.95906 10.3603 8.04945 10.3116L8.07733 10.2965C8.24998 10.2034 8.45772 10.2162 8.61863 10.3298L8.63014 10.338C8.74697 10.4205 8.90277 10.4222 9.02322 10.3428C9.20618 10.2222 9.44256 10.2199 9.62664 10.3413L9.64492 10.3533C9.75654 10.4269 9.89943 10.4246 10.0088 10.3473C10.1854 10.2225 10.4168 10.2206 10.5954 10.3424L10.6014 10.3465C10.7154 10.4243 10.8628 10.4243 10.9769 10.3465L10.9988 10.3316C11.1666 10.2171 11.3793 10.2011 11.5612 10.2894L11.6291 10.3224C11.7221 10.3676 11.8303 10.3634 11.9198 10.3112C12.0959 10.2087 12.3132 10.2223 12.4762 10.3463L12.697 10.5143L12.5808 10.68L12.36 10.512C12.2592 10.4353 12.1248 10.4269 12.0159 10.4903C11.8712 10.5747 11.6963 10.5814 11.5459 10.5084L11.478 10.4754C11.3579 10.4171 11.2175 10.4276 11.1067 10.5032L11.0848 10.5181C10.9052 10.6406 10.673 10.6406 10.4935 10.5181L10.4875 10.514C10.3754 10.4376 10.2302 10.4388 10.1193 10.5171C9.94511 10.6402 9.71743 10.644 9.53957 10.5267L9.52129 10.5146C9.40265 10.4364 9.24832 10.4372 9.12857 10.5162C8.94306 10.6385 8.70243 10.6369 8.51958 10.5078L8.50807 10.4996C8.40696 10.4282 8.27641 10.4202 8.16793 10.4787L8.14004 10.4937C7.98602 10.5768 7.80084 10.5662 7.65647 10.4661C7.57902 10.4124 7.481 10.4023 7.39494 10.4391L7.00924 10.6044L6.9788 10.5273L6.5309 10.9097C6.80973 11.3998 7.3883 12.4017 7.47195 12.4888C7.55559 12.576 8.91835 13.2149 9.58927 13.5234L12.0464 12.8428L12.6953 11.0332L12.5808 11.1964L12.36 11.0284C12.2592 10.9518 12.1248 10.9433 12.0159 11.0067C11.8712 11.0911 11.6963 11.0978 11.5459 11.0248L11.478 10.9918C11.3579 10.9335 11.2175 10.9441 11.1067 11.0196L11.0848 11.0346C10.9052 11.157 10.673 11.157 10.4935 11.0346L10.4875 11.0305C10.3754 10.954 10.2302 10.9553 10.1193 11.0336C9.94511 11.1566 9.71743 11.1604 9.53957 11.0431L9.52129 11.0311C9.40265 10.9529 9.24832 10.9537 9.12857 11.0326C8.94306 11.1549 8.70243 11.1534 8.51958 11.0242L8.50807 11.0161C8.40696 10.9446 8.27641 10.9366 8.16793 10.9951L8.14004 11.0102C7.98602 11.0933 7.80084 11.0827 7.65647 10.9825C7.57902 10.9288 7.481 10.9187 7.39494 10.9556L7.00924 11.1208L6.93432 10.931L7.32002 10.7658C7.46666 10.703 7.63369 10.7202 7.76566 10.8118C7.85038 10.8705 7.95906 10.8767 8.04945 10.828L8.07733 10.8129C8.24998 10.7198 8.45772 10.7326 8.61863 10.8463L8.63014 10.8544C8.74697 10.9369 8.90277 10.9387 9.02322 10.8593C9.20618 10.7386 9.44256 10.7363 9.62664 10.8577L9.64492 10.8698C9.75654 10.9434 9.89943 10.941 10.0088 10.8638C10.1854 10.739 10.4168 10.737 10.5954 10.8588L10.6014 10.8629C10.7154 10.9407 10.8628 10.9407 10.9769 10.8629L10.9988 10.848C11.1666 10.7335 11.3793 10.7176 11.5612 10.8059L11.6291 10.8389C11.7221 10.884 11.8303 10.8798 11.9198 10.8277C12.0959 10.7251 12.3132 10.7388 12.4762 10.8627L12.6964 11.0302L12.8567 10.583L11.2231 8.43208L10.6871 8.94945L10.0075 7.64258L9.27559 8.94945L8.77895 8.43208Z" fill="#F9F9F9"/>
</g>
<path d="M10 6.6171L10.1158 6.96404L10.4683 6.97152L10.1873 7.19342L10.2895 7.54499L10 7.33519L9.71055 7.54499L9.81266 7.19342L9.53165 6.97152L9.88422 6.96404L10 6.6171Z" fill="#F8D74C"/>
<path d="M9.0151 5.55469L9.13088 5.90163L9.48345 5.90911L9.20244 6.13101L9.30456 6.48257L9.0151 6.27278L8.72565 6.48257L8.82776 6.13101L8.54675 5.90911L8.89932 5.90163L9.0151 5.55469Z" fill="#F8D74C"/>
<path d="M10.9849 5.55469L11.1007 5.90163L11.4532 5.90911L11.1722 6.13101L11.2744 6.48257L10.9849 6.27278L10.6954 6.48257L10.7976 6.13101L10.5166 5.90911L10.8691 5.90163L10.9849 5.55469Z" fill="#F8D74C"/>
</svg>
