<svg width="24" height="24" viewBox="0 0 24 24" fill="none" xmlns="http://www.w3.org/2000/svg">
<rect width="24" height="24" rx="2" fill="#F9F9F9"/>
<path d="M0 16H24V24H0V16Z" fill="#D74B4B"/>
<path d="M0 8H24V16H0V8Z" fill="#485CC2"/>
<path d="M3.99704 6.19531H13.9996L14.7561 12.3721C14.9508 13.9619 14.0547 15.4984 12.4946 16.2501L9.50539 17.6902C9.18839 17.8429 8.8082 17.8429 8.4912 17.6902L5.50203 16.2501C3.94184 15.4984 3.04578 13.9619 3.24049 12.3721L3.99704 6.19531Z" fill="#D74B4B"/>
<path fill-rule="evenodd" clip-rule="evenodd" d="M3.80383 6H14.1928L14.9706 12.3506C15.175 14.0198 14.2342 15.6332 12.596 16.4224L9.6068 17.8625C9.2264 18.0458 8.77018 18.0458 8.38978 17.8625L5.40061 16.4224C3.76241 15.6332 2.82154 14.0198 3.02599 12.3506L3.80383 6ZM13.9995 6.19529H3.99704L3.24049 12.3721C3.04577 13.9619 3.94184 15.4984 5.50203 16.25L8.4912 17.6902C8.8082 17.8429 9.18839 17.8429 9.50538 17.6902L12.4946 16.25C14.0547 15.4984 14.9508 13.9619 14.7561 12.3721L13.9995 6.19529Z" fill="#F9F9F9"/>
<mask id="mask0_440_1431" style="mask-type:alpha" maskUnits="userSpaceOnUse" x="3" y="6" width="12" height="12">
<path d="M3.99704 6.19531H13.9996L14.7561 12.3721C14.9508 13.9619 14.0547 15.4984 12.4946 16.2501L9.50539 17.6902C9.18839 17.8429 8.8082 17.8429 8.4912 17.6902L5.50203 16.2501C3.94184 15.4984 3.04578 13.9619 3.24049 12.3721L3.99704 6.19531Z" fill="#D9D9D9"/>
</mask>
<g mask="url(#mask0_440_1431)">
<path fill-rule="evenodd" clip-rule="evenodd" d="M8.24473 6.67383H9.71846L9.53533 7.68308V8.41301H9.71847H10.4753L11.5906 8.26105V9.59467L10.4753 9.42895H9.71847H9.53533V10.4899H9.91301H11.0283L12.1436 10.3379V11.6715L11.0283 11.5058H9.91301H9.53533V14.7479H8.41265V11.5058H8.08358H6.96829L5.853 11.6715V10.3379L6.96829 10.4899H8.08358H8.41265V9.42895H8.24473H7.48789L6.3726 9.59467L6.3726 8.26105L7.48789 8.41301H8.24473H8.41265V7.68308L8.24473 6.67383Z" fill="#F9F9F9"/>
<path fill-rule="evenodd" clip-rule="evenodd" d="M10.5486 17.5359C10.1708 18.0538 9.62478 18.3791 9.01745 18.3791C8.40007 18.3791 7.84601 18.0429 7.46774 17.51C7.15623 17.9252 6.71182 18.1849 6.21851 18.1849C5.2762 18.1849 4.5123 17.2373 4.5123 16.0685C4.5123 14.8996 5.2762 13.952 6.21851 13.952C6.62362 13.952 6.99576 14.1272 7.2884 14.4197C7.65689 13.7204 8.29366 13.2583 9.01745 13.2583C9.73268 13.2583 10.363 13.7095 10.7333 14.395C11.022 14.1173 11.3845 13.952 11.7781 13.952C12.7204 13.952 13.4843 14.8996 13.4843 16.0685C13.4843 17.2373 12.7204 18.1849 11.7781 18.1849C11.2951 18.1849 10.859 17.936 10.5486 17.5359Z" fill="#485CC2"/>
</g>
</svg>
