<svg width="32" height="24" viewBox="0 0 32 24" fill="none" xmlns="http://www.w3.org/2000/svg">
<rect width="32" height="24" rx="2" fill="#F9F9F9"/>
<path d="M0 16H32V24H0V16Z" fill="#D74B4B"/>
<path d="M0 8H32V16H0V8Z" fill="#485CC2"/>
<path d="M5.99704 6.19531H15.9996L16.7561 12.3721C16.9508 13.9619 16.0547 15.4984 14.4946 16.2501L11.5054 17.6902C11.1884 17.8429 10.8082 17.8429 10.4912 17.6902L7.50203 16.2501C5.94184 15.4984 5.04578 13.9619 5.24049 12.3721L5.99704 6.19531Z" fill="#D74B4B"/>
<path fill-rule="evenodd" clip-rule="evenodd" d="M5.80383 6H16.1928L16.9706 12.3506C17.175 14.0198 16.2342 15.6332 14.596 16.4224L11.6068 17.8625C11.2264 18.0458 10.7702 18.0458 10.3898 17.8625L7.40061 16.4224C5.76241 15.6332 4.82154 14.0198 5.02599 12.3506L5.80383 6ZM15.9995 6.19529H5.99704L5.24049 12.3721C5.04577 13.9619 5.94184 15.4984 7.50203 16.25L10.4912 17.6902C10.8082 17.8429 11.1884 17.8429 11.5054 17.6902L14.4946 16.25C16.0547 15.4984 16.9508 13.9619 16.7561 12.3721L15.9995 6.19529Z" fill="#F9F9F9"/>
<mask id="mask0_440_1432" style="mask-type:alpha" maskUnits="userSpaceOnUse" x="5" y="6" width="12" height="12">
<path d="M5.99704 6.19531H15.9996L16.7561 12.3721C16.9508 13.9619 16.0547 15.4984 14.4946 16.2501L11.5054 17.6902C11.1884 17.8429 10.8082 17.8429 10.4912 17.6902L7.50203 16.2501C5.94184 15.4984 5.04578 13.9619 5.24049 12.3721L5.99704 6.19531Z" fill="#D9D9D9"/>
</mask>
<g mask="url(#mask0_440_1432)">
<path fill-rule="evenodd" clip-rule="evenodd" d="M10.2447 6.67383H11.7185L11.5353 7.68308V8.41301H11.7185H12.4753L13.5906 8.26105V9.59467L12.4753 9.42895H11.7185H11.5353V10.4899H11.913H13.0283L14.1436 10.3379V11.6715L13.0283 11.5058H11.913H11.5353V14.7479H10.4127V11.5058H10.0836H8.96829L7.853 11.6715V10.3379L8.96829 10.4899H10.0836H10.4127V9.42895H10.2447H9.48789L8.3726 9.59467L8.3726 8.26105L9.48789 8.41301H10.2447H10.4127V7.68308L10.2447 6.67383Z" fill="#F9F9F9"/>
<path fill-rule="evenodd" clip-rule="evenodd" d="M12.5486 17.5359C12.1708 18.0538 11.6248 18.3791 11.0174 18.3791C10.4001 18.3791 9.84601 18.0429 9.46774 17.51C9.15623 17.9252 8.71182 18.1849 8.21851 18.1849C7.2762 18.1849 6.5123 17.2373 6.5123 16.0685C6.5123 14.8996 7.2762 13.952 8.21851 13.952C8.62362 13.952 8.99576 14.1272 9.2884 14.4197C9.65689 13.7204 10.2937 13.2583 11.0174 13.2583C11.7327 13.2583 12.363 13.7095 12.7333 14.395C13.022 14.1173 13.3845 13.952 13.7781 13.952C14.7204 13.952 15.4843 14.8996 15.4843 16.0685C15.4843 17.2373 14.7204 18.1849 13.7781 18.1849C13.2951 18.1849 12.859 17.936 12.5486 17.5359Z" fill="#485CC2"/>
</g>
</svg>
