<svg width="32" height="24" viewBox="0 0 32 24" fill="none" xmlns="http://www.w3.org/2000/svg">
<g clip-path="url(#clip0_440_1426)">
<rect width="32" height="24" rx="2" fill="#F8D74C"/>
<path d="M0 18H32V24H0V18Z" fill="#D74B4B"/>
<path d="M0 0H32V6H0V0Z" fill="#D74B4B"/>
<path d="M9.0946 12.9663L8.41284 12.9242L8.26091 12.9969L8.13624 13.1039C8.17364 13.2141 8.39336 13.2747 8.49855 13.2913L9.28549 13.4252C9.30887 13.4124 9.45691 13.3754 9.56209 13.2187C9.67371 13.0523 9.53093 13.0236 9.41795 12.9969L9.0946 12.9663Z" fill="#D74B4B"/>
<path d="M15.8991 12.9663L16.5809 12.9242L16.7328 12.9969L16.8575 13.1039C16.8201 13.2141 16.6004 13.2747 16.4952 13.2913L15.7083 13.4252C15.6849 13.4124 15.5368 13.3754 15.4317 13.2187C15.32 13.0523 15.4628 13.0236 15.5758 12.9969L15.8991 12.9663Z" fill="#D74B4B"/>
<path d="M8.48126 11.3923H9.28562V15.1269H8.48126V11.3923Z" fill="#F9F9F9"/>
<path d="M8.51495 10.4236C8.48579 10.2051 8.65907 10.0113 8.88356 10.0113C9.10796 10.0113 9.28121 10.205 9.25219 10.4234L9.19902 10.8235H8.56832L8.51495 10.4236Z" fill="#D74B4B"/>
<path d="M8.30297 10.8239H9.46388V11.3922H8.30297V10.8239Z" fill="#E77D42"/>
<path d="M8.30297 15.1269H9.46388V15.6952H8.30297V15.1269Z" fill="#E77D42"/>
<path d="M8.06733 15.6953H9.69953V16.4998H8.06733V15.6953Z" fill="#485CC2"/>
<path d="M15.6761 11.3922H16.4805V15.1269H15.6761V11.3922Z" fill="#F9F9F9"/>
<path d="M15.7098 10.4235C15.6806 10.205 15.8539 10.0112 16.0784 10.0112C16.3028 10.0112 16.4761 10.2049 16.447 10.4233L16.3939 10.8234H15.7632L15.7098 10.4235Z" fill="#D74B4B"/>
<path d="M15.4978 10.8238H16.6587V11.3921H15.4978V10.8238Z" fill="#E77D42"/>
<path d="M15.4978 15.1269H16.6587V15.6951H15.4978V15.1269Z" fill="#E77D42"/>
<path d="M15.2622 15.6952H16.8944V16.4997H15.2622V15.6952Z" fill="#485CC2"/>
<path d="M10.1029 10.8237H14.8902V14.9097C14.8902 15.7207 14.2204 16.3782 13.3942 16.3782H11.5989C10.7727 16.3782 10.1029 15.7207 10.1029 14.9097V10.8237Z" fill="#E6E6E6"/>
<path d="M10.1029 13.4233H12.4966V14.9154C12.4966 15.5642 11.9607 16.0901 11.2997 16.0901C10.6388 16.0901 10.1029 15.5642 10.1029 14.9154V13.4233Z" fill="#D74B4B"/>
<mask id="mask0_440_1426" style="mask-type:alpha" maskUnits="userSpaceOnUse" x="10" y="13" width="3" height="4">
<path d="M10.1029 13.4233H12.4966V14.9154C12.4966 15.5642 11.9607 16.0901 11.2997 16.0901C10.6388 16.0901 10.1029 15.5642 10.1029 14.9154V13.4233Z" fill="#D74B4B"/>
</mask>
<g mask="url(#mask0_440_1426)">
<path d="M10.1029 13.4229H10.3605V16.5414H10.1029V13.4229Z" fill="#F8D74C"/>
<path d="M10.6289 13.4229H10.8865V16.5414H10.6289V13.4229Z" fill="#F8D74C"/>
<path d="M11.1665 13.4229H11.4241V16.5414H11.1665V13.4229Z" fill="#F8D74C"/>
<path d="M11.6924 13.4229H11.95V16.5414H11.6924V13.4229Z" fill="#F8D74C"/>
<path d="M12.2389 13.4229H12.4965V16.5414H12.2389V13.4229Z" fill="#F8D74C"/>
</g>
<path d="M12.4965 13.4238H14.8902V14.9158C14.8902 15.5647 14.3543 16.0906 13.6934 16.0906C13.0324 16.0906 12.4965 15.5647 12.4965 14.9158V13.4238Z" fill="#D74B4B"/>
<path fill-rule="evenodd" clip-rule="evenodd" d="M12.7175 13.591H14.6692V14.9608C14.6692 15.4899 14.2323 15.9187 13.6933 15.9187C13.1544 15.9187 12.7175 15.4899 12.7175 14.9608V13.591ZM12.917 13.7868V14.9608C12.917 15.3817 13.2646 15.7229 13.6933 15.7229C14.1221 15.7229 14.4697 15.3817 14.4697 14.9608V13.7868H12.917Z" fill="#F8D74C"/>
<path fill-rule="evenodd" clip-rule="evenodd" d="M14.5857 13.758L12.956 15.4835L12.8122 15.3505L14.4419 13.625L14.5857 13.758Z" fill="#F8D74C"/>
<path fill-rule="evenodd" clip-rule="evenodd" d="M14.5025 15.4411L12.7352 13.8196L12.8714 13.6766L14.6043 15.2311L14.5025 15.4411Z" fill="#F8D74C"/>
<path fill-rule="evenodd" clip-rule="evenodd" d="M12.7759 14.461L14.5952 14.4607L14.5952 14.6565L12.7759 14.6568L12.7759 14.461Z" fill="#F8D74C"/>
<path fill-rule="evenodd" clip-rule="evenodd" d="M13.7562 13.6635L13.7933 15.8047L13.5939 15.808L13.5567 13.6668L13.7562 13.6635Z" fill="#F8D74C"/>
<path d="M14.0851 14.5589C14.0851 14.7812 13.9015 14.9614 13.675 14.9614C13.4486 14.9614 13.265 14.7812 13.265 14.5589C13.265 14.3366 13.4486 14.1563 13.675 14.1563C13.9015 14.1563 14.0851 14.3366 14.0851 14.5589Z" fill="#3FB47C"/>
<path d="M10.1029 10.8237H12.4966V13.4243H10.1029V10.8237Z" fill="#D74B4B"/>
<path fill-rule="evenodd" clip-rule="evenodd" d="M11.4614 11.1081V11.268H11.3761V11.6555H11.5536V11.539H11.4573V11.3792H11.8128V11.539H11.7164V11.6555H11.8793V12.0041H11.7979V12.6779H11.9861V13.0501H10.5991V12.6779H10.7915V12.0041H10.6879V11.6555H10.8729V11.539H10.7765V11.3792H11.1321V11.539H11.0357V11.6555H11.2133V11.268H11.1058V11.1081H11.4614Z" fill="#F8D74C"/>
<path d="M10.9098 12.2133C10.9098 12.1626 10.9517 12.1215 11.0033 12.1215C11.055 12.1215 11.0968 12.1626 11.0968 12.2133V12.4313H10.9098V12.2133Z" fill="#485CC2"/>
<path d="M11.4942 12.2133C11.4942 12.1626 11.5361 12.1215 11.5877 12.1215C11.6393 12.1215 11.6812 12.1626 11.6812 12.2133V12.4313H11.4942V12.2133Z" fill="#485CC2"/>
<path d="M11.1514 12.882C11.1514 12.8039 11.2159 12.7405 11.2955 12.7405C11.3751 12.7405 11.4397 12.8039 11.4397 12.882V13.0503H11.1514V12.882Z" fill="#485CC2"/>
<path d="M12.4965 10.8237H14.8902V13.4243H12.4965V10.8237Z" fill="#E6E6E6"/>
<path d="M13.0759 11.1961L13.0564 11.2917L13.1304 11.3185L13.0759 11.1961Z" fill="#D74B4B"/>
<path d="M12.8148 11.3413L12.8881 11.4071L12.9497 11.3588L12.8148 11.3413Z" fill="#D74B4B"/>
<path d="M12.8401 11.6137L12.9268 11.5662L12.8996 11.4935L12.8401 11.6137Z" fill="#D74B4B"/>
<path d="M12.8852 11.9794L12.9775 12.0153L13.0176 11.9486L12.8852 11.9794Z" fill="#D74B4B"/>
<path d="M12.8711 12.1822L12.9697 12.1703L12.9723 12.0929L12.8711 12.1822Z" fill="#D74B4B"/>
<path d="M13.1107 12.3239L13.1194 12.2268L13.0429 12.2081L13.1107 12.3239Z" fill="#D74B4B"/>
<path d="M13.2666 12.5613L13.3491 12.6156L13.4027 12.5587L13.2666 12.5613Z" fill="#D74B4B"/>
<path d="M13.1896 12.7781L13.2877 12.7627L13.2875 12.6852L13.1896 12.7781Z" fill="#D74B4B"/>
<path d="M13.4258 12.9196L13.4363 12.8227L13.3601 12.8027L13.4258 12.9196Z" fill="#D74B4B"/>
<path d="M13.8806 12.9594L13.9793 12.9484L13.9827 12.8711L13.8806 12.9594Z" fill="#D74B4B"/>
<path d="M14.0057 13.1528L14.0502 13.0656L13.986 13.0206L14.0057 13.1528Z" fill="#D74B4B"/>
<path d="M14.2461 13.1621L14.2227 13.0673L14.1441 13.0737L14.2461 13.1621Z" fill="#D74B4B"/>
<path d="M13.5824 11.3299L13.559 11.2267H13.7187L13.7421 11.1464H13.8278L13.9563 11.2267L14.0654 11.3299V11.4867L14.1239 11.5709L14.0343 11.5211L14.1395 11.7621L14.0343 11.6818L14.0654 11.8424L13.9563 11.7123L13.9797 11.9533L13.8823 11.8959L14.0888 12.2668L14.2446 12.2936L14.3498 12.2401V12.0947L14.2836 11.8615V11.6626L14.3109 11.4102L14.3732 11.1464L14.4316 11.2726L14.5953 11.1464L14.4784 11.3491H14.5953L14.3498 11.6206L14.3732 11.8615L14.4589 12.1368L14.4083 12.3127L14.1823 12.4045L14.1395 12.5842L14.2641 12.6416L14.3109 12.7372L14.2018 12.9437L14.2446 13.0737H14.1239L14.0888 13.0049L14.0654 13.0737L13.9797 13.024L14.0654 12.9666H13.9797V12.8596L14.0888 12.8787V12.7831L14.0343 12.676V12.7831L13.9797 12.6951V12.8175L13.8473 12.676L13.8823 12.5077H13.7421L13.7732 12.7563L13.7187 12.8175L13.4772 12.7831L13.4499 12.8404L13.3408 12.8175L13.3993 12.7563L13.2863 12.7831V12.676H13.372L13.3213 12.6225L13.3993 12.546L13.4499 12.6416H13.6018V12.546L13.559 12.5842V12.458L13.5083 12.546V12.3471L13.6174 12.3127L13.8473 12.2936L13.5824 12.1559L13.5395 12.0374H13.4772L13.3993 12.1177V12.0374L13.2863 12.1865V12.0947L13.1265 12.1559L13.1499 12.2133L13.111 12.2401L13.0253 12.2133L13.0525 12.1559L12.9707 12.1865V12.0947H13.0253V12.0603H13.0058L12.9707 12.0106L13.0058 11.9533L13.072 12.0106H13.1733L13.3408 11.8959L13.2434 11.8118L13.072 11.7621L13.111 11.7123L13.0058 11.6626H13.111L13.0058 11.5709L12.9201 11.59L12.8772 11.4867H12.9707L12.8772 11.4102L12.9473 11.3299L13.0253 11.3911V11.2993H13.1499L13.072 11.4102L13.3408 11.6206H13.559L13.6174 11.5709L13.559 11.5211V11.4867H13.6174L13.7187 11.4523V11.372L13.5824 11.3299Z" fill="#F995F5"/>
<path d="M13.8278 10.959V11.1464L14.0849 11.3491L14.2953 11.3032H14.1239V11.2802L14.1862 11.1693L14.0849 11.242L14.0382 11.2076L14.0849 11.0967L13.9836 11.1693L13.9486 11.1464L13.9836 11.0202L13.9057 11.0967H13.8784L13.8278 10.959Z" fill="#F8D74C"/>
<path d="M13.8356 11.219H13.7577L13.7966 11.2764H13.8823L13.8356 11.219Z" fill="#333333"/>
<path d="M13.3915 11.2688L13.2941 11.2955L13.4966 11.4485H13.7226V11.4064L13.5629 11.3873L13.4694 11.2955L13.3915 11.2688Z" fill="#D74B4B"/>
<path d="M13.2875 13.4238C13.2875 13.9129 12.9334 14.3094 12.4965 14.3094C12.0597 14.3094 11.7056 13.9129 11.7056 13.4238C11.7056 12.9346 12.0597 12.5381 12.4965 12.5381C12.9334 12.5381 13.2875 12.9346 13.2875 13.4238Z" fill="#D74B4B"/>
<path d="M13.007 13.4237C13.007 13.7394 12.7785 13.9952 12.4966 13.9952C12.2147 13.9952 11.9861 13.7394 11.9861 13.4237C11.9861 13.108 12.2147 12.8521 12.4966 12.8521C12.7785 12.8521 13.007 13.108 13.007 13.4237Z" fill="#485CC2"/>
<path fill-rule="evenodd" clip-rule="evenodd" d="M12.4654 13.4138C12.4394 13.3641 12.4093 13.2432 12.4966 13.1576C12.5838 13.2432 12.5537 13.3641 12.5277 13.4138L12.5645 13.3751C12.5758 13.3632 12.5917 13.3564 12.6082 13.3564C12.6412 13.3564 12.668 13.3827 12.668 13.4151V13.4788H12.6651C12.6124 13.4788 12.5624 13.5011 12.5277 13.54H12.5978V13.6088H12.5472L12.5823 13.6662L12.4966 13.6891L12.4108 13.6662L12.4459 13.6088H12.3953V13.54H12.4654C12.4307 13.5011 12.3807 13.4788 12.328 13.4788H12.3251V13.4151C12.3251 13.3827 12.3519 13.3564 12.3849 13.3564C12.4014 13.3564 12.4173 13.3632 12.4286 13.3751L12.4654 13.4138Z" fill="#F8D74C"/>
<path d="M8.03547 12.5675C7.97825 12.6464 7.98958 12.8112 8.03547 12.8854L8.13265 13.1077C8.22982 13.0362 8.61858 12.742 9.08831 12.7023C9.4641 12.6705 9.9198 12.7791 10.1007 12.8374V12.3605C10.1007 12.3605 10.1622 12.3257 9.50135 12.2494C8.67527 12.154 8.10099 12.4771 8.03547 12.5675Z" fill="#962122"/>
<path d="M8.03547 13.9735C7.93751 14.1214 8.18125 14.4883 8.30272 14.6579C8.43878 14.4481 8.35941 14.2843 8.30272 14.2286C8.65367 14.0723 9.38473 13.7405 9.50135 13.6642C9.61798 13.5879 9.64713 13.484 9.64713 13.4416L9.60664 13.1077C9.54185 13.324 9.11253 13.4845 8.8996 13.5591L8.89231 13.5617C8.59211 13.6668 8.13186 13.828 8.03547 13.9735Z" fill="#962122"/>
<path d="M8.03547 12.5675C7.97825 12.6464 7.98958 12.8112 8.03547 12.8854L8.13265 13.1077C8.22982 13.0362 8.61858 12.742 9.08831 12.7023C9.4641 12.6705 9.9198 12.7791 10.1007 12.8374V12.3605C10.1007 12.3605 10.1622 12.3257 9.50135 12.2494C8.67527 12.154 8.10099 12.4771 8.03547 12.5675Z" fill="#962122"/>
<path d="M8.03547 13.9735C7.93751 14.1214 8.18125 14.4883 8.30272 14.6579C8.43878 14.4481 8.35941 14.2843 8.30272 14.2286C8.65367 14.0723 9.38473 13.7405 9.50135 13.6642C9.61798 13.5879 9.64713 13.484 9.64713 13.4416L9.60664 13.1077C9.54185 13.324 9.11253 13.4845 8.8996 13.5591L8.89231 13.5617C8.59211 13.6668 8.13186 13.828 8.03547 13.9735Z" fill="#962122"/>
<path d="M16.9579 12.5675C17.0151 12.6464 17.0038 12.8112 16.9579 12.8854L16.8607 13.1077C16.7635 13.0362 16.3748 12.742 15.9051 12.7023C15.5293 12.6705 15.0736 12.7791 14.8927 12.8374V12.3605C14.8927 12.3605 14.8312 12.3257 15.492 12.2494C16.3181 12.154 16.8924 12.4771 16.9579 12.5675Z" fill="#962122"/>
<path d="M16.9579 13.9735C17.0559 14.1214 16.8121 14.4883 16.6906 14.6579C16.5546 14.4481 16.634 14.2843 16.6906 14.2286C16.3397 14.0723 15.6086 13.7405 15.492 13.6642C15.3754 13.5879 15.3462 13.484 15.3462 13.4416L15.3867 13.1077C15.4515 13.324 15.8808 13.4845 16.0938 13.5591L16.1011 13.5617C16.4013 13.6668 16.8615 13.828 16.9579 13.9735Z" fill="#962122"/>
<path d="M12.2473 9.05643L12.4709 9.26771L12.7376 9.05643L12.6515 8.25439H12.3161L12.2473 9.05643Z" fill="#E77D42"/>
<path d="M11.13 8.65187C11.0462 8.8255 11.2264 9.14136 11.327 9.27758L11.4669 9.10047C11.3486 8.87395 11.2209 8.56325 11.5877 8.43126C11.9111 8.31491 12.2198 8.44052 12.3051 8.50892V8.40631C12.3051 8.40631 12.0608 8.26754 11.6128 8.31491C11.4499 8.33213 11.2137 8.47824 11.13 8.65187Z" fill="#E77D42"/>
<path d="M13.7984 8.65187C13.8822 8.8255 13.702 9.14136 13.6014 9.27758L13.4614 9.10047C13.5797 8.87395 13.7075 8.56325 13.3407 8.43126C13.0173 8.31491 12.7086 8.44052 12.6232 8.50892V8.40631C12.6232 8.40631 12.8676 8.26754 13.3155 8.31491C13.4784 8.33213 13.7146 8.47824 13.7984 8.65187Z" fill="#E77D42"/>
<path d="M10.0035 9.10806C9.98072 9.34101 10.1233 9.50722 10.1974 9.56121L10.3286 9.35985L10.1974 9.24791C10.139 9.17088 10.0836 8.96789 10.3286 8.77215C10.5735 8.57641 10.978 8.59731 11.1497 8.63222L11.2124 8.57078C10.852 8.49033 10.473 8.6043 10.3286 8.67135C10.2297 8.71985 10.0263 8.87511 10.0035 9.10806Z" fill="#E77D42"/>
<path d="M15.0484 9.15726C15.0732 9.41049 14.9182 9.59118 14.8376 9.64987L14.6951 9.43098L14.8376 9.30929C14.9011 9.22556 14.9614 9.00489 14.6951 8.7921C14.4288 8.57931 13.989 8.60203 13.8025 8.63998L13.7343 8.57319C14.126 8.48573 14.538 8.60963 14.6951 8.68251C14.8025 8.73525 15.0236 8.90402 15.0484 9.15726Z" fill="#E77D42"/>
<path d="M11.0088 10.4997L10.1959 9.56134L10.9399 9.90037L11.3184 9.22496L11.9463 9.72321L12.5053 9.09845L13.0214 9.72321L13.6148 9.22496L14.0019 9.90037L14.9534 9.53344L14.0019 10.4997V10.6264C13.7955 10.6855 13.2072 10.8037 12.5053 10.8037C11.8035 10.8037 11.1693 10.6855 10.9399 10.6264L11.0088 10.4997Z" fill="#E77D42"/>
<path fill-rule="evenodd" clip-rule="evenodd" d="M12.5461 7.5H12.43V7.61472L12.3083 7.61472V7.72867H12.43V8.11829H12.5461V7.72867H12.659V7.61472L12.5461 7.61472V7.5Z" fill="#E77D42"/>
<path d="M12.7019 8.0645C12.7019 8.18513 12.6023 8.28291 12.4794 8.28291C12.3565 8.28291 12.2569 8.18513 12.2569 8.0645C12.2569 7.94387 12.3565 7.84608 12.4794 7.84608C12.6023 7.84608 12.7019 7.94387 12.7019 8.0645Z" fill="#485CC2"/>
<path d="M12.7019 8.03154V8.14549H12.2569V8.03154H12.7019Z" fill="#E77D42"/>
<path d="M13.8278 10.5977C13.8278 10.6804 13.2286 10.7475 12.4896 10.7475C11.7505 10.7475 11.1514 10.6804 11.1514 10.5977C11.1514 10.5149 11.7505 10.4479 12.4896 10.4479C13.2286 10.4479 13.8278 10.5149 13.8278 10.5977Z" fill="#E6E6E6"/>
<path fill-rule="evenodd" clip-rule="evenodd" d="M12.8414 10.7423C12.7293 10.7457 12.6113 10.7475 12.4896 10.7475C12.3678 10.7475 12.2499 10.7457 12.1378 10.7423C11.5694 10.725 11.1514 10.6668 11.1514 10.5977C11.1514 10.5286 11.5694 10.4704 12.1378 10.4531C12.2499 10.4497 12.3678 10.4479 12.4896 10.4479C12.6113 10.4479 12.7293 10.4497 12.8414 10.4531C13.4098 10.4704 13.8278 10.5286 13.8278 10.5977C13.8278 10.6668 13.4098 10.725 12.8414 10.7423Z" fill="#D74B4B"/>
<path d="M11.3576 10.3075C11.3576 10.3427 11.3285 10.3713 11.2926 10.3713C11.2567 10.3713 11.2277 10.3427 11.2277 10.3075C11.2277 10.2723 11.2567 10.2438 11.2926 10.2438C11.3285 10.2438 11.3576 10.2723 11.3576 10.3075Z" fill="#F9F9F9"/>
<path d="M10.1029 9.56134C10.1029 9.59655 10.0739 9.6251 10.038 9.6251C10.0021 9.6251 9.97303 9.59655 9.97303 9.56134C9.97303 9.52613 10.0021 9.49759 10.038 9.49759C10.0739 9.49759 10.1029 9.52613 10.1029 9.56134Z" fill="#F9F9F9"/>
<path d="M10.0011 9.40647C10.0011 9.44168 9.97201 9.47022 9.93614 9.47022C9.90027 9.47022 9.87119 9.44168 9.87119 9.40647C9.87119 9.37126 9.90027 9.34271 9.93614 9.34271C9.97201 9.34271 10.0011 9.37126 10.0011 9.40647Z" fill="#F9F9F9"/>
<path d="M9.93614 9.23486C9.93614 9.27007 9.90706 9.29862 9.87119 9.29862C9.83532 9.29862 9.80624 9.27007 9.80624 9.23486C9.80624 9.19965 9.83532 9.17111 9.87119 9.17111C9.90706 9.17111 9.93614 9.19965 9.93614 9.23486Z" fill="#F9F9F9"/>
<path d="M9.93614 9.06326C9.93614 9.09847 9.90706 9.12701 9.87119 9.12701C9.83532 9.12701 9.80624 9.09847 9.80624 9.06326C9.80624 9.02805 9.83532 8.99951 9.87119 8.99951C9.90706 8.99951 9.93614 9.02805 9.93614 9.06326Z" fill="#F9F9F9"/>
<path d="M10.0011 8.90839C10.0011 8.9436 9.97201 8.97214 9.93614 8.97214C9.90027 8.97214 9.87119 8.9436 9.87119 8.90839C9.87119 8.87318 9.90027 8.84463 9.93614 8.84463C9.97201 8.84463 10.0011 8.87318 10.0011 8.90839Z" fill="#F9F9F9"/>
<path d="M10.131 8.78076C10.131 8.81597 10.1019 8.84451 10.066 8.84451C10.0302 8.84451 10.0011 8.81597 10.0011 8.78076C10.0011 8.74555 10.0302 8.717 10.066 8.717C10.1019 8.717 10.131 8.74555 10.131 8.78076Z" fill="#F9F9F9"/>
<path d="M10.2609 8.65313C10.2609 8.68834 10.2318 8.71688 10.1959 8.71688C10.1601 8.71688 10.131 8.68834 10.131 8.65313C10.131 8.61792 10.1601 8.58938 10.1959 8.58938C10.2318 8.58938 10.2609 8.61792 10.2609 8.65313Z" fill="#F9F9F9"/>
<path d="M10.4128 8.56518C10.4128 8.60039 10.3837 8.62893 10.3479 8.62893C10.312 8.62893 10.2829 8.60039 10.2829 8.56518C10.2829 8.52997 10.312 8.50142 10.3479 8.50142C10.3837 8.50142 10.4128 8.52997 10.4128 8.56518Z" fill="#F9F9F9"/>
<path d="M10.5687 8.5016C10.5687 8.53681 10.5396 8.56536 10.5037 8.56536C10.4678 8.56536 10.4388 8.53681 10.4388 8.5016C10.4388 8.46639 10.4678 8.43785 10.5037 8.43785C10.5396 8.43785 10.5687 8.46639 10.5687 8.5016Z" fill="#F9F9F9"/>
<path d="M10.7366 8.47914C10.7366 8.51435 10.7076 8.54289 10.6717 8.54289C10.6358 8.54289 10.6067 8.51435 10.6067 8.47914C10.6067 8.44393 10.6358 8.41538 10.6717 8.41538C10.7076 8.41538 10.7366 8.44393 10.7366 8.47914Z" fill="#F9F9F9"/>
<path d="M10.9003 8.43803C10.9003 8.47324 10.8712 8.50178 10.8353 8.50178C10.7994 8.50178 10.7704 8.47324 10.7704 8.43803C10.7704 8.40282 10.7994 8.37427 10.8353 8.37427C10.8712 8.37427 10.9003 8.40282 10.9003 8.43803Z" fill="#F9F9F9"/>
<path d="M11.0756 8.43803C11.0756 8.47324 11.0465 8.50178 11.0106 8.50178C10.9747 8.50178 10.9457 8.47324 10.9457 8.43803C10.9457 8.40282 10.9747 8.37427 11.0106 8.37427C11.0465 8.37427 11.0756 8.40282 11.0756 8.43803Z" fill="#F9F9F9"/>
<path d="M11.2314 8.43803C11.2314 8.47324 11.2023 8.50178 11.1664 8.50178C11.1306 8.50178 11.1015 8.47324 11.1015 8.43803C11.1015 8.40282 11.1306 8.37427 11.1664 8.37427C11.2023 8.37427 11.2314 8.40282 11.2314 8.43803Z" fill="#F9F9F9"/>
<path d="M11.0756 8.71671C11.0756 8.75192 11.0465 8.78046 11.0106 8.78046C10.9747 8.78046 10.9457 8.75192 10.9457 8.71671C10.9457 8.6815 10.9747 8.65295 11.0106 8.65295C11.0465 8.65295 11.0756 8.6815 11.0756 8.71671Z" fill="#F9F9F9"/>
<path d="M11.1084 8.90839C11.1084 8.9436 11.0793 8.97214 11.0434 8.97214C11.0076 8.97214 10.9785 8.9436 10.9785 8.90839C10.9785 8.87318 11.0076 8.84463 11.0434 8.84463C11.0793 8.84463 11.1084 8.87318 11.1084 8.90839Z" fill="#F9F9F9"/>
<path d="M11.1514 9.05227C11.1514 9.08748 11.1223 9.11602 11.0864 9.11602C11.0506 9.11602 11.0215 9.08748 11.0215 9.05227C11.0215 9.01706 11.0506 8.98851 11.0864 8.98851C11.1223 8.98851 11.1514 9.01706 11.1514 9.05227Z" fill="#F9F9F9"/>
<path d="M11.2124 9.19089C11.2124 9.2261 11.1833 9.25464 11.1474 9.25464C11.1116 9.25464 11.0825 9.2261 11.0825 9.19089C11.0825 9.15568 11.1116 9.12713 11.1474 9.12713C11.1833 9.12713 11.2124 9.15568 11.2124 9.19089Z" fill="#F9F9F9"/>
<path d="M11.3613 8.34673C11.3613 8.38194 11.3322 8.41048 11.2963 8.41048C11.2605 8.41048 11.2314 8.38194 11.2314 8.34673C11.2314 8.31152 11.2605 8.28297 11.2963 8.28297C11.3322 8.28297 11.3613 8.31152 11.3613 8.34673Z" fill="#F9F9F9"/>
<path d="M11.5101 8.25447C11.5101 8.28968 11.481 8.31823 11.4451 8.31823C11.4092 8.31823 11.3802 8.28968 11.3802 8.25447C11.3802 8.21926 11.4092 8.19072 11.4451 8.19072C11.481 8.19072 11.5101 8.21926 11.5101 8.25447Z" fill="#F9F9F9"/>
<path d="M11.6861 8.2191C11.6861 8.25431 11.657 8.28285 11.6212 8.28285C11.5853 8.28285 11.5562 8.25431 11.5562 8.2191C11.5562 8.18389 11.5853 8.15535 11.6212 8.15535C11.657 8.15535 11.6861 8.18389 11.6861 8.2191Z" fill="#F9F9F9"/>
<path d="M11.8619 8.20906C11.8619 8.24427 11.8328 8.27282 11.7969 8.27282C11.7611 8.27282 11.732 8.24427 11.732 8.20906C11.732 8.17385 11.7611 8.14531 11.7969 8.14531C11.8328 8.14531 11.8619 8.17385 11.8619 8.20906Z" fill="#F9F9F9"/>
<path d="M12.0376 8.2191C12.0376 8.25431 12.0086 8.28285 11.9727 8.28285C11.9368 8.28285 11.9077 8.25431 11.9077 8.2191C11.9077 8.18389 11.9368 8.15535 11.9727 8.15535C12.0086 8.15535 12.0376 8.18389 12.0376 8.2191Z" fill="#F9F9F9"/>
<path d="M12.2056 8.25447C12.2056 8.28968 12.1765 8.31823 12.1406 8.31823C12.1047 8.31823 12.0757 8.28968 12.0757 8.25447C12.0757 8.21926 12.1047 8.19072 12.1406 8.19072C12.1765 8.19072 12.2056 8.21926 12.2056 8.25447Z" fill="#F9F9F9"/>
<path d="M15.0184 9.49633C15.0184 9.53154 15.0475 9.56009 15.0833 9.56009C15.1192 9.56009 15.1483 9.53154 15.1483 9.49633C15.1483 9.46112 15.1192 9.43258 15.0833 9.43258C15.0475 9.43258 15.0184 9.46112 15.0184 9.49633Z" fill="#F9F9F9"/>
<path d="M15.0833 9.27788C15.0833 9.3131 15.1124 9.34164 15.1483 9.34164C15.1842 9.34164 15.2132 9.3131 15.2132 9.27788C15.2132 9.24267 15.1842 9.21413 15.1483 9.21413C15.1124 9.21413 15.0833 9.24267 15.0833 9.27788Z" fill="#F9F9F9"/>
<path d="M15.0693 9.05944C15.0693 9.09465 15.0984 9.12319 15.1343 9.12319C15.1701 9.12319 15.1992 9.09465 15.1992 9.05944C15.1992 9.02423 15.1701 8.99568 15.1343 8.99568C15.0984 8.99568 15.0693 9.02423 15.0693 9.05944Z" fill="#F9F9F9"/>
<path d="M14.9861 8.87779C14.9861 8.913 15.0152 8.94155 15.0511 8.94155C15.0869 8.94155 15.116 8.913 15.116 8.87779C15.116 8.84258 15.0869 8.81404 15.0511 8.81404C15.0152 8.81404 14.9861 8.84258 14.9861 8.87779Z" fill="#F9F9F9"/>
<path d="M14.8885 8.7277C14.8885 8.76291 14.9176 8.79145 14.9534 8.79145C14.9893 8.79145 15.0184 8.76291 15.0184 8.7277C15.0184 8.69249 14.9893 8.66395 14.9534 8.66395C14.9176 8.66395 14.8885 8.69249 14.8885 8.7277Z" fill="#F9F9F9"/>
<path d="M14.7586 8.60676C14.7586 8.64197 14.7877 8.67052 14.8235 8.67052C14.8594 8.67052 14.8885 8.64197 14.8885 8.60676C14.8885 8.57155 14.8594 8.54301 14.8235 8.54301C14.7877 8.54301 14.7586 8.57155 14.7586 8.60676Z" fill="#F9F9F9"/>
<path d="M14.5845 8.53793C14.5845 8.57314 14.6136 8.60169 14.6494 8.60169C14.6853 8.60169 14.7144 8.57314 14.7144 8.53793C14.7144 8.50272 14.6853 8.47418 14.6494 8.47418C14.6136 8.47418 14.5845 8.50272 14.5845 8.53793Z" fill="#F9F9F9"/>
<path d="M14.4233 8.47914C14.4233 8.51435 14.4524 8.54289 14.4883 8.54289C14.5241 8.54289 14.5532 8.51435 14.5532 8.47914C14.5532 8.44393 14.5241 8.41538 14.4883 8.41538C14.4524 8.41538 14.4233 8.44393 14.4233 8.47914Z" fill="#F9F9F9"/>
<path d="M14.2625 8.43803C14.2625 8.47324 14.2916 8.50178 14.3274 8.50178C14.3633 8.50178 14.3924 8.47324 14.3924 8.43803C14.3924 8.40282 14.3633 8.37427 14.3274 8.37427C14.2916 8.37427 14.2625 8.40282 14.2625 8.43803Z" fill="#F9F9F9"/>
<path d="M14.1017 8.43803C14.1017 8.47324 14.1307 8.50178 14.1666 8.50178C14.2025 8.50178 14.2316 8.47324 14.2316 8.43803C14.2316 8.40282 14.2025 8.37427 14.1666 8.37427C14.1307 8.37427 14.1017 8.40282 14.1017 8.43803Z" fill="#F9F9F9"/>
<path d="M13.9299 8.43803C13.9299 8.47324 13.9589 8.50178 13.9948 8.50178C14.0307 8.50178 14.0598 8.47324 14.0598 8.43803C14.0598 8.40282 14.0307 8.37427 13.9948 8.37427C13.9589 8.37427 13.9299 8.40282 13.9299 8.43803Z" fill="#F9F9F9"/>
<path d="M13.7091 8.43803C13.7091 8.47324 13.7382 8.50178 13.774 8.50178C13.8099 8.50178 13.839 8.47324 13.839 8.43803C13.839 8.40282 13.8099 8.37427 13.774 8.37427C13.7382 8.37427 13.7091 8.40282 13.7091 8.43803Z" fill="#F9F9F9"/>
<path d="M13.8649 8.71671C13.8649 8.75192 13.894 8.78046 13.9299 8.78046C13.9657 8.78046 13.9948 8.75192 13.9948 8.71671C13.9948 8.6815 13.9657 8.65295 13.9299 8.65295C13.894 8.65295 13.8649 8.6815 13.8649 8.71671Z" fill="#F9F9F9"/>
<path d="M13.8321 8.90839C13.8321 8.9436 13.8612 8.97214 13.897 8.97214C13.9329 8.97214 13.962 8.9436 13.962 8.90839C13.962 8.87318 13.9329 8.84463 13.897 8.84463C13.8612 8.84463 13.8321 8.87318 13.8321 8.90839Z" fill="#F9F9F9"/>
<path d="M13.7091 9.25494C13.7091 9.29015 13.7382 9.31869 13.774 9.31869C13.8099 9.31869 13.839 9.29015 13.839 9.25494C13.839 9.21973 13.8099 9.19119 13.774 9.19119C13.7382 9.19119 13.7091 9.21973 13.7091 9.25494Z" fill="#F9F9F9"/>
<path d="M13.8 9.06326C13.8 9.09847 13.829 9.12701 13.8649 9.12701C13.9008 9.12701 13.9299 9.09847 13.9299 9.06326C13.9299 9.02805 13.9008 8.99951 13.8649 8.99951C13.829 8.99951 13.8 9.02805 13.8 9.06326Z" fill="#F9F9F9"/>
<path d="M12.4144 8.92464C12.4144 8.95985 12.4435 8.98839 12.4794 8.98839C12.5153 8.98839 12.5443 8.95985 12.5443 8.92464C12.5443 8.88943 12.5153 8.86088 12.4794 8.86088C12.4435 8.86088 12.4144 8.88943 12.4144 8.92464Z" fill="#F9F9F9"/>
<path d="M12.4187 8.71718C12.4187 8.75239 12.4478 8.78094 12.4837 8.78094C12.5195 8.78094 12.5486 8.75239 12.5486 8.71718C12.5486 8.68197 12.5195 8.65343 12.4837 8.65343C12.4478 8.65343 12.4187 8.68197 12.4187 8.71718Z" fill="#F9F9F9"/>
<path d="M12.4136 8.50208C12.4136 8.53729 12.4426 8.56583 12.4785 8.56583C12.5144 8.56583 12.5435 8.53729 12.5435 8.50208C12.5435 8.46687 12.5144 8.43833 12.4785 8.43833C12.4426 8.43833 12.4136 8.46687 12.4136 8.50208Z" fill="#F9F9F9"/>
<path d="M13.5792 8.34673C13.5792 8.38194 13.6083 8.41048 13.6441 8.41048C13.68 8.41048 13.7091 8.38194 13.7091 8.34673C13.7091 8.31152 13.68 8.28297 13.6441 8.28297C13.6083 8.28297 13.5792 8.31152 13.5792 8.34673Z" fill="#F9F9F9"/>
<path d="M13.4304 8.25447C13.4304 8.28968 13.4595 8.31823 13.4954 8.31823C13.5312 8.31823 13.5603 8.28968 13.5603 8.25447C13.5603 8.21926 13.5312 8.19072 13.4954 8.19072C13.4595 8.19072 13.4304 8.21926 13.4304 8.25447Z" fill="#F9F9F9"/>
<path d="M13.2544 8.2191C13.2544 8.25431 13.2834 8.28285 13.3193 8.28285C13.3552 8.28285 13.3843 8.25431 13.3843 8.2191C13.3843 8.18389 13.3552 8.15535 13.3193 8.15535C13.2834 8.15535 13.2544 8.18389 13.2544 8.2191Z" fill="#F9F9F9"/>
<path d="M13.0786 8.20906C13.0786 8.24427 13.1077 8.27282 13.1436 8.27282C13.1795 8.27282 13.2085 8.24427 13.2085 8.20906C13.2085 8.17385 13.1795 8.14531 13.1436 8.14531C13.1077 8.14531 13.0786 8.17385 13.0786 8.20906Z" fill="#F9F9F9"/>
<path d="M12.9028 8.2191C12.9028 8.25431 12.9319 8.28285 12.9678 8.28285C13.0037 8.28285 13.0327 8.25431 13.0327 8.2191C13.0327 8.18389 13.0037 8.15535 12.9678 8.15535C12.9319 8.15535 12.9028 8.18389 12.9028 8.2191Z" fill="#F9F9F9"/>
<path d="M12.735 8.25447C12.735 8.28968 12.764 8.31823 12.7999 8.31823C12.8358 8.31823 12.8649 8.28968 12.8649 8.25447C12.8649 8.21926 12.8358 8.19072 12.7999 8.19072C12.764 8.19072 12.735 8.21926 12.735 8.25447Z" fill="#F9F9F9"/>
<path d="M13.7583 10.3075C13.7583 10.3427 13.7292 10.3713 13.6934 10.3713C13.6575 10.3713 13.6284 10.3427 13.6284 10.3075C13.6284 10.2723 13.6575 10.2438 13.6934 10.2438C13.7292 10.2438 13.7583 10.2723 13.7583 10.3075Z" fill="#F9F9F9"/>
<path d="M12.1406 10.2234C12.1406 10.2586 12.1115 10.2871 12.0757 10.2871C12.0398 10.2871 12.0107 10.2586 12.0107 10.2234C12.0107 10.1882 12.0398 10.1596 12.0757 10.1596C12.1115 10.1596 12.1406 10.1882 12.1406 10.2234Z" fill="#F9F9F9"/>
<path d="M12.9497 10.2234C12.9497 10.2586 12.9206 10.2871 12.8847 10.2871C12.8489 10.2871 12.8198 10.2586 12.8198 10.2234C12.8198 10.1882 12.8489 10.1596 12.8847 10.1596C12.9206 10.1596 12.9497 10.1882 12.9497 10.2234Z" fill="#F9F9F9"/>
<path d="M12.2473 10.2234C12.2473 10.1882 12.2764 10.1596 12.3123 10.1596H12.6447C12.6806 10.1596 12.7097 10.1882 12.7097 10.2234C12.7097 10.2587 12.6806 10.2873 12.6447 10.2873H12.3123C12.2764 10.2873 12.2473 10.2587 12.2473 10.2234Z" fill="#D74B4B"/>
<path d="M11.5147 10.2682C11.5121 10.2331 11.5391 10.2025 11.5749 10.2L11.788 10.185C11.8238 10.1825 11.8549 10.209 11.8575 10.2441C11.8601 10.2793 11.8331 10.3098 11.7973 10.3123L11.5842 10.3273C11.5484 10.3298 11.5173 10.3034 11.5147 10.2682Z" fill="#3FB47C"/>
<path d="M13.4655 10.2682C13.468 10.2331 13.4411 10.2025 13.4053 10.2L13.1922 10.185C13.1563 10.1825 13.1252 10.209 13.1227 10.2441C13.1201 10.2793 13.1471 10.3098 13.1829 10.3123L13.396 10.3273C13.4318 10.3298 13.4629 10.3034 13.4655 10.2682Z" fill="#3FB47C"/>
</g>
<defs>
<clipPath id="clip0_440_1426">
<rect width="32" height="24" rx="2" fill="white"/>
</clipPath>
</defs>
</svg>
