<svg width="24" height="24" viewBox="0 0 24 24" fill="none" xmlns="http://www.w3.org/2000/svg">
<g clip-path="url(#clip0_440_1424)">
<rect width="24" height="24" rx="12" fill="#F8D74C"/>
<path d="M0 18H24V24H0V18Z" fill="#D74B4B"/>
<path d="M0 0H24V6H0V0Z" fill="#D74B4B"/>
<path d="M6.0946 12.9663L5.41284 12.9242L5.26091 12.9969L5.13624 13.1039C5.17364 13.2141 5.39336 13.2747 5.49855 13.2913L6.2855 13.4252C6.30887 13.4124 6.45691 13.3754 6.5621 13.2187C6.67371 13.0523 6.53093 13.0236 6.41795 12.9969L6.0946 12.9663Z" fill="#D74B4B"/>
<path d="M12.8992 12.9663L13.5809 12.9242L13.7328 12.9969L13.8575 13.1039C13.8201 13.2141 13.6004 13.2747 13.4952 13.2913L12.7083 13.4252C12.6849 13.4124 12.5368 13.3754 12.4317 13.2187C12.32 13.0523 12.4628 13.0236 12.5758 12.9969L12.8992 12.9663Z" fill="#D74B4B"/>
<path d="M5.48126 11.3923H6.28563V15.1269H5.48126V11.3923Z" fill="#F9F9F9"/>
<path d="M5.51496 10.4236C5.48579 10.2051 5.65907 10.0113 5.88356 10.0113C6.10797 10.0113 6.28122 10.205 6.25219 10.4234L6.19902 10.8235H5.56833L5.51496 10.4236Z" fill="#D74B4B"/>
<path d="M5.30297 10.8239H6.46389V11.3922H5.30297V10.8239Z" fill="#E77D42"/>
<path d="M5.30297 15.1269H6.46389V15.6952H5.30297V15.1269Z" fill="#E77D42"/>
<path d="M5.06734 15.6953H6.69953V16.4998H5.06734V15.6953Z" fill="#485CC2"/>
<path d="M12.6761 11.3922H13.4805V15.1269H12.6761V11.3922Z" fill="#F9F9F9"/>
<path d="M12.7098 10.4235C12.6806 10.205 12.8539 10.0112 13.0784 10.0112C13.3028 10.0112 13.4761 10.2049 13.447 10.4233L13.3939 10.8234H12.7632L12.7098 10.4235Z" fill="#D74B4B"/>
<path d="M12.4978 10.8238H13.6587V11.3921H12.4978V10.8238Z" fill="#E77D42"/>
<path d="M12.4978 15.1269H13.6587V15.6951H12.4978V15.1269Z" fill="#E77D42"/>
<path d="M12.2622 15.6952H13.8944V16.4997H12.2622V15.6952Z" fill="#485CC2"/>
<path d="M7.10294 10.8237H11.8902V14.9097C11.8902 15.7207 11.2204 16.3782 10.3942 16.3782H8.59891C7.77271 16.3782 7.10294 15.7207 7.10294 14.9097V10.8237Z" fill="#E6E6E6"/>
<path d="M7.10294 13.4233H9.49657V14.9154C9.49657 15.5642 8.96074 16.0901 8.29975 16.0901C7.63877 16.0901 7.10294 15.5642 7.10294 14.9154V13.4233Z" fill="#D74B4B"/>
<mask id="mask0_440_1424" style="mask-type:alpha" maskUnits="userSpaceOnUse" x="7" y="13" width="3" height="4">
<path d="M7.10294 13.4233H9.49657V14.9154C9.49657 15.5642 8.96074 16.0901 8.29975 16.0901C7.63877 16.0901 7.10294 15.5642 7.10294 14.9154V13.4233Z" fill="#D74B4B"/>
</mask>
<g mask="url(#mask0_440_1424)">
<path d="M7.10294 13.4229H7.36054V16.5414H7.10294V13.4229Z" fill="#F8D74C"/>
<path d="M7.62887 13.4229H7.88647V16.5414H7.62887V13.4229Z" fill="#F8D74C"/>
<path d="M8.16648 13.4229H8.42409V16.5414H8.16648V13.4229Z" fill="#F8D74C"/>
<path d="M8.69238 13.4229H8.94999V16.5414H8.69238V13.4229Z" fill="#F8D74C"/>
<path d="M9.23895 13.4229H9.49655V16.5414H9.23895V13.4229Z" fill="#F8D74C"/>
</g>
<path d="M9.49655 13.4238H11.8902V14.9158C11.8902 15.5647 11.3544 16.0906 10.6934 16.0906C10.0324 16.0906 9.49655 15.5647 9.49655 14.9158V13.4238Z" fill="#D74B4B"/>
<path fill-rule="evenodd" clip-rule="evenodd" d="M9.71749 13.591H11.6692V14.9608C11.6692 15.4899 11.2323 15.9187 10.6934 15.9187C10.1544 15.9187 9.71749 15.4899 9.71749 14.9608V13.591ZM9.91695 13.7868V14.9608C9.91695 15.3817 10.2646 15.7229 10.6934 15.7229C11.1221 15.7229 11.4697 15.3817 11.4697 14.9608V13.7868H9.91695Z" fill="#F8D74C"/>
<path fill-rule="evenodd" clip-rule="evenodd" d="M11.5857 13.758L9.95601 15.4835L9.81224 15.3505L11.4419 13.625L11.5857 13.758Z" fill="#F8D74C"/>
<path fill-rule="evenodd" clip-rule="evenodd" d="M11.5025 15.4411L9.73524 13.8196L9.87144 13.6766L11.6043 15.2311L11.5025 15.4411Z" fill="#F8D74C"/>
<path fill-rule="evenodd" clip-rule="evenodd" d="M9.77589 14.461L11.5952 14.4607L11.5952 14.6565L9.77592 14.6568L9.77589 14.461Z" fill="#F8D74C"/>
<path fill-rule="evenodd" clip-rule="evenodd" d="M10.7562 13.6635L10.7933 15.8047L10.5939 15.808L10.5567 13.6668L10.7562 13.6635Z" fill="#F8D74C"/>
<path d="M11.0851 14.5589C11.0851 14.7812 10.9015 14.9614 10.675 14.9614C10.4486 14.9614 10.265 14.7812 10.265 14.5589C10.265 14.3366 10.4486 14.1563 10.675 14.1563C10.9015 14.1563 11.0851 14.3366 11.0851 14.5589Z" fill="#3FB47C"/>
<path d="M7.10294 10.8237H9.49657V13.4243H7.10294V10.8237Z" fill="#D74B4B"/>
<path fill-rule="evenodd" clip-rule="evenodd" d="M8.46137 11.1081V11.268H8.37611V11.6555H8.55362V11.539H8.45726V11.3792H8.81282V11.539H8.71644V11.6555H8.8793V12.0041H8.7979V12.6779H8.98615V13.0501H7.59907V12.6779H7.79148V12.0041H7.68788V11.6555H7.87287V11.539H7.7765V11.3792H8.13206V11.539H8.03568V11.6555H8.21329V11.268H8.10582V11.1081H8.46137Z" fill="#F8D74C"/>
<path d="M7.90985 12.2133C7.90985 12.1626 7.95171 12.1215 8.00335 12.1215C8.05498 12.1215 8.09685 12.1626 8.09685 12.2133V12.4313H7.90985V12.2133Z" fill="#485CC2"/>
<path d="M8.49421 12.2133C8.49421 12.1626 8.53607 12.1215 8.58771 12.1215C8.63935 12.1215 8.68121 12.1626 8.68121 12.2133V12.4313H8.49421V12.2133Z" fill="#485CC2"/>
<path d="M8.15139 12.882C8.15139 12.8039 8.21592 12.7405 8.29553 12.7405C8.37514 12.7405 8.43967 12.8039 8.43967 12.882V13.0503H8.15139V12.882Z" fill="#485CC2"/>
<path d="M9.49655 10.8237H11.8902V13.4243H9.49655V10.8237Z" fill="#E6E6E6"/>
<path d="M10.0759 11.1961L10.0564 11.2917L10.1304 11.3185L10.0759 11.1961Z" fill="#D74B4B"/>
<path d="M9.8148 11.3413L9.88808 11.4071L9.9497 11.3588L9.8148 11.3413Z" fill="#D74B4B"/>
<path d="M9.84011 11.6137L9.92685 11.5662L9.89956 11.4935L9.84011 11.6137Z" fill="#D74B4B"/>
<path d="M9.88522 11.9794L9.97754 12.0153L10.0176 11.9486L9.88522 11.9794Z" fill="#D74B4B"/>
<path d="M9.87109 12.1822L9.96967 12.1703L9.97226 12.0929L9.87109 12.1822Z" fill="#D74B4B"/>
<path d="M10.1107 12.3239L10.1194 12.2268L10.0429 12.2081L10.1107 12.3239Z" fill="#D74B4B"/>
<path d="M10.2666 12.5613L10.3491 12.6156L10.4027 12.5587L10.2666 12.5613Z" fill="#D74B4B"/>
<path d="M10.1896 12.7781L10.2877 12.7627L10.2875 12.6852L10.1896 12.7781Z" fill="#D74B4B"/>
<path d="M10.4258 12.9196L10.4363 12.8227L10.3601 12.8027L10.4258 12.9196Z" fill="#D74B4B"/>
<path d="M10.8806 12.9594L10.9793 12.9484L10.9827 12.8711L10.8806 12.9594Z" fill="#D74B4B"/>
<path d="M11.0057 13.1528L11.0502 13.0656L10.986 13.0206L11.0057 13.1528Z" fill="#D74B4B"/>
<path d="M11.2461 13.1621L11.2227 13.0673L11.1441 13.0737L11.2461 13.1621Z" fill="#D74B4B"/>
<path d="M10.5824 11.3299L10.559 11.2267H10.7187L10.7421 11.1464H10.8278L10.9564 11.2267L11.0654 11.3299V11.4867L11.1239 11.5709L11.0343 11.5211L11.1395 11.7621L11.0343 11.6818L11.0654 11.8424L10.9564 11.7123L10.9797 11.9533L10.8823 11.8959L11.0888 12.2668L11.2446 12.2936L11.3498 12.2401V12.0947L11.2836 11.8615V11.6626L11.3109 11.4102L11.3732 11.1464L11.4316 11.2726L11.5953 11.1464L11.4784 11.3491H11.5953L11.3498 11.6206L11.3732 11.8615L11.4589 12.1368L11.4083 12.3127L11.1823 12.4045L11.1395 12.5842L11.2641 12.6416L11.3109 12.7372L11.2018 12.9437L11.2446 13.0737H11.1239L11.0888 13.0049L11.0654 13.0737L10.9797 13.024L11.0654 12.9666H10.9797V12.8596L11.0888 12.8787V12.7831L11.0343 12.676V12.7831L10.9797 12.6951V12.8175L10.8473 12.676L10.8823 12.5077H10.7421L10.7732 12.7563L10.7187 12.8175L10.4772 12.7831L10.4499 12.8404L10.3408 12.8175L10.3993 12.7563L10.2863 12.7831V12.676H10.372L10.3213 12.6225L10.3993 12.546L10.4499 12.6416H10.6018V12.546L10.559 12.5842V12.458L10.5083 12.546V12.3471L10.6174 12.3127L10.8473 12.2936L10.5824 12.1559L10.5395 12.0374H10.4772L10.3993 12.1177V12.0374L10.2863 12.1865V12.0947L10.1266 12.1559L10.1499 12.2133L10.111 12.2401L10.0253 12.2133L10.0525 12.1559L9.97072 12.1865V12.0947H10.0253V12.0603H10.0058L9.97072 12.0106L10.0058 11.9533L10.072 12.0106H10.1733L10.3408 11.8959L10.2434 11.8118L10.072 11.7621L10.111 11.7123L10.0058 11.6626H10.111L10.0058 11.5709L9.92007 11.59L9.87722 11.4867H9.97072L9.87722 11.4102L9.94735 11.3299L10.0253 11.3911V11.2993H10.1499L10.072 11.4102L10.3408 11.6206H10.559L10.6174 11.5709L10.559 11.5211V11.4867H10.6174L10.7187 11.4523V11.372L10.5824 11.3299Z" fill="#F995F5"/>
<path d="M10.8278 10.959V11.1464L11.0849 11.3491L11.2953 11.3032H11.1239V11.2802L11.1862 11.1693L11.0849 11.242L11.0382 11.2076L11.0849 11.0967L10.9836 11.1693L10.9486 11.1464L10.9836 11.0202L10.9057 11.0967H10.8784L10.8278 10.959Z" fill="#F8D74C"/>
<path d="M10.8356 11.219H10.7577L10.7966 11.2764H10.8823L10.8356 11.219Z" fill="#333333"/>
<path d="M10.3915 11.2688L10.2941 11.2955L10.4966 11.4485H10.7226V11.4064L10.5629 11.3873L10.4694 11.2955L10.3915 11.2688Z" fill="#D74B4B"/>
<path d="M10.2875 13.4238C10.2875 13.9129 9.93336 14.3094 9.49655 14.3094C9.05973 14.3094 8.70562 13.9129 8.70562 13.4238C8.70562 12.9346 9.05973 12.5381 9.49655 12.5381C9.93336 12.5381 10.2875 12.9346 10.2875 13.4238Z" fill="#D74B4B"/>
<path d="M10.007 13.4237C10.007 13.7394 9.77845 13.9952 9.49656 13.9952C9.21467 13.9952 8.98615 13.7394 8.98615 13.4237C8.98615 13.108 9.21467 12.8521 9.49656 12.8521C9.77845 12.8521 10.007 13.108 10.007 13.4237Z" fill="#485CC2"/>
<path fill-rule="evenodd" clip-rule="evenodd" d="M9.46539 13.4138C9.43942 13.3641 9.40929 13.2432 9.49655 13.1576C9.58382 13.2432 9.55369 13.3641 9.52772 13.4138L9.56455 13.3751C9.57585 13.3632 9.59166 13.3564 9.60822 13.3564C9.64122 13.3564 9.66797 13.3827 9.66797 13.4151V13.4788H9.66509C9.61245 13.4788 9.56238 13.5011 9.52772 13.54H9.59784V13.6088H9.5472L9.58226 13.6662L9.49655 13.6891L9.41085 13.6662L9.44591 13.6088H9.39526V13.54H9.46539C9.43073 13.5011 9.38066 13.4788 9.32802 13.4788H9.32514V13.4151C9.32514 13.3827 9.35189 13.3564 9.38488 13.3564C9.40144 13.3564 9.41726 13.3632 9.42856 13.3751L9.46539 13.4138Z" fill="#F8D74C"/>
<path d="M5.03547 12.5675C4.97825 12.6464 4.98958 12.8112 5.03547 12.8854L5.13265 13.1077C5.22983 13.0362 5.61858 12.742 6.08832 12.7023C6.4641 12.6705 6.9198 12.7791 7.10067 12.8374V12.3605C7.10067 12.3605 7.16222 12.3257 6.50136 12.2494C5.67527 12.154 5.10099 12.4771 5.03547 12.5675Z" fill="#962122"/>
<path d="M5.03547 13.9735C4.93751 14.1214 5.18125 14.4883 5.30273 14.6579C5.43879 14.4481 5.35942 14.2843 5.30273 14.2286C5.65368 14.0723 6.38473 13.7405 6.50136 13.6642C6.61798 13.5879 6.64714 13.484 6.64714 13.4416L6.60664 13.1077C6.54185 13.324 6.11254 13.4845 5.8996 13.5591L5.89231 13.5617C5.59212 13.6668 5.13187 13.828 5.03547 13.9735Z" fill="#962122"/>
<path d="M5.03547 12.5675C4.97825 12.6464 4.98958 12.8112 5.03547 12.8854L5.13265 13.1077C5.22983 13.0362 5.61858 12.742 6.08832 12.7023C6.4641 12.6705 6.9198 12.7791 7.10067 12.8374V12.3605C7.10067 12.3605 7.16222 12.3257 6.50136 12.2494C5.67527 12.154 5.10099 12.4771 5.03547 12.5675Z" fill="#962122"/>
<path d="M5.03547 13.9735C4.93751 14.1214 5.18125 14.4883 5.30273 14.6579C5.43879 14.4481 5.35942 14.2843 5.30273 14.2286C5.65368 14.0723 6.38473 13.7405 6.50136 13.6642C6.61798 13.5879 6.64714 13.484 6.64714 13.4416L6.60664 13.1077C6.54185 13.324 6.11254 13.4845 5.8996 13.5591L5.89231 13.5617C5.59212 13.6668 5.13187 13.828 5.03547 13.9735Z" fill="#962122"/>
<path d="M13.9579 12.5675C14.0151 12.6464 14.0038 12.8112 13.9579 12.8854L13.8607 13.1077C13.7636 13.0362 13.3748 12.742 12.9051 12.7023C12.5293 12.6705 12.0736 12.7791 11.8927 12.8374V12.3605C11.8927 12.3605 11.8312 12.3257 12.492 12.2494C13.3181 12.154 13.8924 12.4771 13.9579 12.5675Z" fill="#962122"/>
<path d="M13.9579 13.9735C14.0559 14.1214 13.8121 14.4883 13.6907 14.6579C13.5546 14.4481 13.634 14.2843 13.6907 14.2286C13.3397 14.0723 12.6086 13.7405 12.492 13.6642C12.3754 13.5879 12.3462 13.484 12.3462 13.4416L12.3867 13.1077C12.4515 13.324 12.8808 13.4845 13.0938 13.5591L13.1011 13.5617C13.4013 13.6668 13.8615 13.828 13.9579 13.9735Z" fill="#962122"/>
<path d="M9.24732 9.05643L9.47093 9.26771L9.73756 9.05643L9.65155 8.25439H9.31611L9.24732 9.05643Z" fill="#E77D42"/>
<path d="M8.12997 8.65187C8.04618 8.8255 8.22642 9.14136 8.32701 9.27758L8.46694 9.10047C8.34865 8.87395 8.22089 8.56325 8.58771 8.43126C8.91106 8.31491 9.21981 8.44052 9.30514 8.50892V8.40631C9.30514 8.40631 9.0608 8.26754 8.61284 8.31491C8.44994 8.33213 8.21375 8.47824 8.12997 8.65187Z" fill="#E77D42"/>
<path d="M10.7984 8.65187C10.8822 8.8255 10.702 9.14136 10.6014 9.27758L10.4614 9.10047C10.5797 8.87395 10.7075 8.56325 10.3407 8.43126C10.0173 8.31491 9.70856 8.44052 9.62324 8.50892V8.40631C9.62324 8.40631 9.86758 8.26754 10.3155 8.31491C10.4784 8.33213 10.7146 8.47824 10.7984 8.65187Z" fill="#E77D42"/>
<path d="M7.00354 9.10806C6.98073 9.34101 7.12329 9.50722 7.19742 9.56121L7.32856 9.35985L7.19742 9.24791C7.13906 9.17088 7.08358 8.96789 7.32856 8.77215C7.57354 8.57641 7.97804 8.59731 8.14967 8.63222L8.2124 8.57078C7.85202 8.49033 7.47301 8.6043 7.32856 8.67135C7.22972 8.71985 7.02635 8.87511 7.00354 9.10806Z" fill="#E77D42"/>
<path d="M12.0484 9.15726C12.0732 9.41049 11.9182 9.59118 11.8376 9.64987L11.6951 9.43098L11.8376 9.30929C11.9011 9.22556 11.9614 9.00489 11.6951 8.7921C11.4288 8.57931 10.989 8.60203 10.8025 8.63998L10.7343 8.57319C11.126 8.48573 11.538 8.60963 11.6951 8.68251C11.8025 8.73525 12.0236 8.90402 12.0484 9.15726Z" fill="#E77D42"/>
<path d="M8.00876 10.4997L7.19594 9.56134L7.93995 9.90037L8.31839 9.22496L8.94626 9.72321L9.50533 9.09845L10.0214 9.72321L10.6149 9.22496L11.0019 9.90037L11.9534 9.53344L11.0019 10.4997V10.6264C10.7955 10.6855 10.2072 10.8037 9.50533 10.8037C8.80349 10.8037 8.16931 10.6855 7.93995 10.6264L8.00876 10.4997Z" fill="#E77D42"/>
<path fill-rule="evenodd" clip-rule="evenodd" d="M9.54607 7.5H9.42999V7.61472L9.30829 7.61472V7.72867H9.42999V8.11829H9.54607V7.72867H9.65905V7.61472L9.54607 7.61472V7.5Z" fill="#E77D42"/>
<path d="M9.7019 8.0645C9.7019 8.18513 9.60228 8.28291 9.47938 8.28291C9.35649 8.28291 9.25687 8.18513 9.25687 8.0645C9.25687 7.94387 9.35649 7.84608 9.47938 7.84608C9.60228 7.84608 9.7019 7.94387 9.7019 8.0645Z" fill="#485CC2"/>
<path d="M9.7019 8.03154V8.14549H9.25687V8.03154H9.7019Z" fill="#E77D42"/>
<path d="M10.8278 10.5977C10.8278 10.6804 10.2286 10.7475 9.48958 10.7475C8.75051 10.7475 8.15138 10.6804 8.15138 10.5977C8.15138 10.5149 8.75051 10.4479 9.48958 10.4479C10.2286 10.4479 10.8278 10.5149 10.8278 10.5977Z" fill="#E6E6E6"/>
<path fill-rule="evenodd" clip-rule="evenodd" d="M9.8414 10.7423C9.72929 10.7457 9.61134 10.7475 9.48958 10.7475C9.36782 10.7475 9.24987 10.7457 9.13776 10.7423C8.56937 10.725 8.15138 10.6668 8.15138 10.5977C8.15138 10.5286 8.56937 10.4704 9.13776 10.4531C9.24987 10.4497 9.36782 10.4479 9.48958 10.4479C9.61134 10.4479 9.72929 10.4497 9.8414 10.4531C10.4098 10.4704 10.8278 10.5286 10.8278 10.5977C10.8278 10.6668 10.4098 10.725 9.8414 10.7423Z" fill="#D74B4B"/>
<path d="M8.35755 10.3075C8.35755 10.3427 8.32847 10.3713 8.2926 10.3713C8.25673 10.3713 8.22765 10.3427 8.22765 10.3075C8.22765 10.2723 8.25673 10.2438 8.2926 10.2438C8.32847 10.2438 8.35755 10.2723 8.35755 10.3075Z" fill="#F9F9F9"/>
<path d="M7.10293 9.56134C7.10293 9.59655 7.07385 9.6251 7.03798 9.6251C7.00211 9.6251 6.97303 9.59655 6.97303 9.56134C6.97303 9.52613 7.00211 9.49759 7.03798 9.49759C7.07385 9.49759 7.10293 9.52613 7.10293 9.56134Z" fill="#F9F9F9"/>
<path d="M7.00109 9.40647C7.00109 9.44168 6.97201 9.47022 6.93614 9.47022C6.90027 9.47022 6.87119 9.44168 6.87119 9.40647C6.87119 9.37126 6.90027 9.34271 6.93614 9.34271C6.97201 9.34271 7.00109 9.37126 7.00109 9.40647Z" fill="#F9F9F9"/>
<path d="M6.93614 9.23486C6.93614 9.27007 6.90706 9.29862 6.87119 9.29862C6.83532 9.29862 6.80624 9.27007 6.80624 9.23486C6.80624 9.19965 6.83532 9.17111 6.87119 9.17111C6.90706 9.17111 6.93614 9.19965 6.93614 9.23486Z" fill="#F9F9F9"/>
<path d="M6.93614 9.06326C6.93614 9.09847 6.90706 9.12701 6.87119 9.12701C6.83532 9.12701 6.80624 9.09847 6.80624 9.06326C6.80624 9.02805 6.83532 8.99951 6.87119 8.99951C6.90706 8.99951 6.93614 9.02805 6.93614 9.06326Z" fill="#F9F9F9"/>
<path d="M7.00109 8.90839C7.00109 8.9436 6.97201 8.97214 6.93614 8.97214C6.90027 8.97214 6.87119 8.9436 6.87119 8.90839C6.87119 8.87318 6.90027 8.84463 6.93614 8.84463C6.97201 8.84463 7.00109 8.87318 7.00109 8.90839Z" fill="#F9F9F9"/>
<path d="M7.13099 8.78076C7.13099 8.81597 7.10191 8.84451 7.06604 8.84451C7.03017 8.84451 7.00109 8.81597 7.00109 8.78076C7.00109 8.74555 7.03017 8.717 7.06604 8.717C7.10191 8.717 7.13099 8.74555 7.13099 8.78076Z" fill="#F9F9F9"/>
<path d="M7.26089 8.65313C7.26089 8.68834 7.23181 8.71688 7.19594 8.71688C7.16007 8.71688 7.13099 8.68834 7.13099 8.65313C7.13099 8.61792 7.16007 8.58938 7.19594 8.58938C7.23181 8.58938 7.26089 8.61792 7.26089 8.65313Z" fill="#F9F9F9"/>
<path d="M7.41283 8.56518C7.41283 8.60039 7.38375 8.62893 7.34788 8.62893C7.31201 8.62893 7.28293 8.60039 7.28293 8.56518C7.28293 8.52997 7.31201 8.50142 7.34788 8.50142C7.38375 8.50142 7.41283 8.52997 7.41283 8.56518Z" fill="#F9F9F9"/>
<path d="M7.56866 8.5016C7.56866 8.53681 7.53958 8.56536 7.50371 8.56536C7.46784 8.56536 7.43876 8.53681 7.43876 8.5016C7.43876 8.46639 7.46784 8.43785 7.50371 8.43785C7.53958 8.43785 7.56866 8.46639 7.56866 8.5016Z" fill="#F9F9F9"/>
<path d="M7.73663 8.47914C7.73663 8.51435 7.70755 8.54289 7.67168 8.54289C7.63581 8.54289 7.60673 8.51435 7.60673 8.47914C7.60673 8.44393 7.63581 8.41538 7.67168 8.41538C7.70755 8.41538 7.73663 8.44393 7.73663 8.47914Z" fill="#F9F9F9"/>
<path d="M7.90026 8.43803C7.90026 8.47324 7.87118 8.50178 7.83531 8.50178C7.79944 8.50178 7.77036 8.47324 7.77036 8.43803C7.77036 8.40282 7.79944 8.37427 7.83531 8.37427C7.87118 8.37427 7.90026 8.40282 7.90026 8.43803Z" fill="#F9F9F9"/>
<path d="M8.07557 8.43803C8.07557 8.47324 8.04649 8.50178 8.01062 8.50178C7.97475 8.50178 7.94567 8.47324 7.94567 8.43803C7.94567 8.40282 7.97475 8.37427 8.01062 8.37427C8.04649 8.37427 8.07557 8.40282 8.07557 8.43803Z" fill="#F9F9F9"/>
<path d="M8.2314 8.43803C8.2314 8.47324 8.20232 8.50178 8.16645 8.50178C8.13058 8.50178 8.1015 8.47324 8.1015 8.43803C8.1015 8.40282 8.13058 8.37427 8.16645 8.37427C8.20232 8.37427 8.2314 8.40282 8.2314 8.43803Z" fill="#F9F9F9"/>
<path d="M8.07557 8.71671C8.07557 8.75192 8.04649 8.78046 8.01062 8.78046C7.97475 8.78046 7.94567 8.75192 7.94567 8.71671C7.94567 8.6815 7.97475 8.65295 8.01062 8.65295C8.04649 8.65295 8.07557 8.6815 8.07557 8.71671Z" fill="#F9F9F9"/>
<path d="M8.10838 8.90839C8.10838 8.9436 8.0793 8.97214 8.04343 8.97214C8.00756 8.97214 7.97848 8.9436 7.97848 8.90839C7.97848 8.87318 8.00756 8.84463 8.04343 8.84463C8.0793 8.84463 8.10838 8.87318 8.10838 8.90839Z" fill="#F9F9F9"/>
<path d="M8.15138 9.05227C8.15138 9.08748 8.1223 9.11602 8.08643 9.11602C8.05056 9.11602 8.02148 9.08748 8.02148 9.05227C8.02148 9.01706 8.05056 8.98851 8.08643 8.98851C8.1223 8.98851 8.15138 9.01706 8.15138 9.05227Z" fill="#F9F9F9"/>
<path d="M8.21238 9.19089C8.21238 9.2261 8.1833 9.25464 8.14743 9.25464C8.11155 9.25464 8.08248 9.2261 8.08248 9.19089C8.08248 9.15568 8.11155 9.12713 8.14743 9.12713C8.1833 9.12713 8.21238 9.15568 8.21238 9.19089Z" fill="#F9F9F9"/>
<path d="M8.3613 8.34673C8.3613 8.38194 8.33222 8.41048 8.29635 8.41048C8.26048 8.41048 8.2314 8.38194 8.2314 8.34673C8.2314 8.31152 8.26048 8.28297 8.29635 8.28297C8.33222 8.28297 8.3613 8.31152 8.3613 8.34673Z" fill="#F9F9F9"/>
<path d="M8.51007 8.25447C8.51007 8.28968 8.48099 8.31823 8.44512 8.31823C8.40925 8.31823 8.38017 8.28968 8.38017 8.25447C8.38017 8.21926 8.40925 8.19072 8.44512 8.19072C8.48099 8.19072 8.51007 8.21926 8.51007 8.25447Z" fill="#F9F9F9"/>
<path d="M8.68611 8.2191C8.68611 8.25431 8.65703 8.28285 8.62116 8.28285C8.58529 8.28285 8.55621 8.25431 8.55621 8.2191C8.55621 8.18389 8.58529 8.15535 8.62116 8.15535C8.65703 8.15535 8.68611 8.18389 8.68611 8.2191Z" fill="#F9F9F9"/>
<path d="M8.86187 8.20906C8.86187 8.24427 8.83279 8.27282 8.79692 8.27282C8.76105 8.27282 8.73197 8.24427 8.73197 8.20906C8.73197 8.17385 8.76105 8.14531 8.79692 8.14531C8.83279 8.14531 8.86187 8.17385 8.86187 8.20906Z" fill="#F9F9F9"/>
<path d="M9.03764 8.2191C9.03764 8.25431 9.00856 8.28285 8.97269 8.28285C8.93682 8.28285 8.90774 8.25431 8.90774 8.2191C8.90774 8.18389 8.93682 8.15535 8.97269 8.15535C9.00856 8.15535 9.03764 8.18389 9.03764 8.2191Z" fill="#F9F9F9"/>
<path d="M9.20555 8.25447C9.20555 8.28968 9.17648 8.31823 9.1406 8.31823C9.10473 8.31823 9.07565 8.28968 9.07565 8.25447C9.07565 8.21926 9.10473 8.19072 9.1406 8.19072C9.17648 8.19072 9.20555 8.21926 9.20555 8.25447Z" fill="#F9F9F9"/>
<path d="M12.0184 9.49633C12.0184 9.53154 12.0475 9.56009 12.0833 9.56009C12.1192 9.56009 12.1483 9.53154 12.1483 9.49633C12.1483 9.46112 12.1192 9.43258 12.0833 9.43258C12.0475 9.43258 12.0184 9.46112 12.0184 9.49633Z" fill="#F9F9F9"/>
<path d="M12.0833 9.27788C12.0833 9.3131 12.1124 9.34164 12.1483 9.34164C12.1842 9.34164 12.2132 9.3131 12.2132 9.27788C12.2132 9.24267 12.1842 9.21413 12.1483 9.21413C12.1124 9.21413 12.0833 9.24267 12.0833 9.27788Z" fill="#F9F9F9"/>
<path d="M12.0693 9.05944C12.0693 9.09465 12.0984 9.12319 12.1343 9.12319C12.1701 9.12319 12.1992 9.09465 12.1992 9.05944C12.1992 9.02423 12.1701 8.99568 12.1343 8.99568C12.0984 8.99568 12.0693 9.02423 12.0693 9.05944Z" fill="#F9F9F9"/>
<path d="M11.9861 8.87779C11.9861 8.913 12.0152 8.94155 12.0511 8.94155C12.0869 8.94155 12.116 8.913 12.116 8.87779C12.116 8.84258 12.0869 8.81404 12.0511 8.81404C12.0152 8.81404 11.9861 8.84258 11.9861 8.87779Z" fill="#F9F9F9"/>
<path d="M11.8885 8.7277C11.8885 8.76291 11.9176 8.79145 11.9534 8.79145C11.9893 8.79145 12.0184 8.76291 12.0184 8.7277C12.0184 8.69249 11.9893 8.66395 11.9534 8.66395C11.9176 8.66395 11.8885 8.69249 11.8885 8.7277Z" fill="#F9F9F9"/>
<path d="M11.7586 8.60676C11.7586 8.64197 11.7877 8.67052 11.8235 8.67052C11.8594 8.67052 11.8885 8.64197 11.8885 8.60676C11.8885 8.57155 11.8594 8.54301 11.8235 8.54301C11.7877 8.54301 11.7586 8.57155 11.7586 8.60676Z" fill="#F9F9F9"/>
<path d="M11.5845 8.53793C11.5845 8.57314 11.6136 8.60169 11.6494 8.60169C11.6853 8.60169 11.7144 8.57314 11.7144 8.53793C11.7144 8.50272 11.6853 8.47418 11.6494 8.47418C11.6136 8.47418 11.5845 8.50272 11.5845 8.53793Z" fill="#F9F9F9"/>
<path d="M11.4233 8.47914C11.4233 8.51435 11.4524 8.54289 11.4883 8.54289C11.5241 8.54289 11.5532 8.51435 11.5532 8.47914C11.5532 8.44393 11.5241 8.41538 11.4883 8.41538C11.4524 8.41538 11.4233 8.44393 11.4233 8.47914Z" fill="#F9F9F9"/>
<path d="M11.2625 8.43803C11.2625 8.47324 11.2916 8.50178 11.3274 8.50178C11.3633 8.50178 11.3924 8.47324 11.3924 8.43803C11.3924 8.40282 11.3633 8.37427 11.3274 8.37427C11.2916 8.37427 11.2625 8.40282 11.2625 8.43803Z" fill="#F9F9F9"/>
<path d="M11.1017 8.43803C11.1017 8.47324 11.1307 8.50178 11.1666 8.50178C11.2025 8.50178 11.2316 8.47324 11.2316 8.43803C11.2316 8.40282 11.2025 8.37427 11.1666 8.37427C11.1307 8.37427 11.1017 8.40282 11.1017 8.43803Z" fill="#F9F9F9"/>
<path d="M10.9299 8.43803C10.9299 8.47324 10.9589 8.50178 10.9948 8.50178C11.0307 8.50178 11.0598 8.47324 11.0598 8.43803C11.0598 8.40282 11.0307 8.37427 10.9948 8.37427C10.9589 8.37427 10.9299 8.40282 10.9299 8.43803Z" fill="#F9F9F9"/>
<path d="M10.7091 8.43803C10.7091 8.47324 10.7382 8.50178 10.774 8.50178C10.8099 8.50178 10.839 8.47324 10.839 8.43803C10.839 8.40282 10.8099 8.37427 10.774 8.37427C10.7382 8.37427 10.7091 8.40282 10.7091 8.43803Z" fill="#F9F9F9"/>
<path d="M10.8649 8.71671C10.8649 8.75192 10.894 8.78046 10.9299 8.78046C10.9657 8.78046 10.9948 8.75192 10.9948 8.71671C10.9948 8.6815 10.9657 8.65295 10.9299 8.65295C10.894 8.65295 10.8649 8.6815 10.8649 8.71671Z" fill="#F9F9F9"/>
<path d="M10.8321 8.90839C10.8321 8.9436 10.8612 8.97214 10.8971 8.97214C10.9329 8.97214 10.962 8.9436 10.962 8.90839C10.962 8.87318 10.9329 8.84463 10.8971 8.84463C10.8612 8.84463 10.8321 8.87318 10.8321 8.90839Z" fill="#F9F9F9"/>
<path d="M10.7091 9.25494C10.7091 9.29015 10.7382 9.31869 10.774 9.31869C10.8099 9.31869 10.839 9.29015 10.839 9.25494C10.839 9.21973 10.8099 9.19119 10.774 9.19119C10.7382 9.19119 10.7091 9.21973 10.7091 9.25494Z" fill="#F9F9F9"/>
<path d="M10.8 9.06326C10.8 9.09847 10.829 9.12701 10.8649 9.12701C10.9008 9.12701 10.9299 9.09847 10.9299 9.06326C10.9299 9.02805 10.9008 8.99951 10.8649 8.99951C10.829 8.99951 10.8 9.02805 10.8 9.06326Z" fill="#F9F9F9"/>
<path d="M9.41443 8.92464C9.41443 8.95985 9.44351 8.98839 9.47938 8.98839C9.51526 8.98839 9.54433 8.95985 9.54433 8.92464C9.54433 8.88943 9.51526 8.86088 9.47938 8.86088C9.44351 8.86088 9.41443 8.88943 9.41443 8.92464Z" fill="#F9F9F9"/>
<path d="M9.41873 8.71718C9.41873 8.75239 9.4478 8.78094 9.48368 8.78094C9.51955 8.78094 9.54863 8.75239 9.54863 8.71718C9.54863 8.68197 9.51955 8.65343 9.48368 8.65343C9.4478 8.65343 9.41873 8.68197 9.41873 8.71718Z" fill="#F9F9F9"/>
<path d="M9.41355 8.50208C9.41355 8.53729 9.44263 8.56583 9.4785 8.56583C9.51437 8.56583 9.54345 8.53729 9.54345 8.50208C9.54345 8.46687 9.51437 8.43833 9.4785 8.43833C9.44263 8.43833 9.41355 8.46687 9.41355 8.50208Z" fill="#F9F9F9"/>
<path d="M10.5792 8.34673C10.5792 8.38194 10.6083 8.41048 10.6441 8.41048C10.68 8.41048 10.7091 8.38194 10.7091 8.34673C10.7091 8.31152 10.68 8.28297 10.6441 8.28297C10.6083 8.28297 10.5792 8.31152 10.5792 8.34673Z" fill="#F9F9F9"/>
<path d="M10.4304 8.25447C10.4304 8.28968 10.4595 8.31823 10.4954 8.31823C10.5312 8.31823 10.5603 8.28968 10.5603 8.25447C10.5603 8.21926 10.5312 8.19072 10.4954 8.19072C10.4595 8.19072 10.4304 8.21926 10.4304 8.25447Z" fill="#F9F9F9"/>
<path d="M10.2544 8.2191C10.2544 8.25431 10.2834 8.28285 10.3193 8.28285C10.3552 8.28285 10.3843 8.25431 10.3843 8.2191C10.3843 8.18389 10.3552 8.15535 10.3193 8.15535C10.2834 8.15535 10.2544 8.18389 10.2544 8.2191Z" fill="#F9F9F9"/>
<path d="M10.0786 8.20906C10.0786 8.24427 10.1077 8.27282 10.1436 8.27282C10.1795 8.27282 10.2085 8.24427 10.2085 8.20906C10.2085 8.17385 10.1795 8.14531 10.1436 8.14531C10.1077 8.14531 10.0786 8.17385 10.0786 8.20906Z" fill="#F9F9F9"/>
<path d="M9.90284 8.2191C9.90284 8.25431 9.93192 8.28285 9.96779 8.28285C10.0037 8.28285 10.0327 8.25431 10.0327 8.2191C10.0327 8.18389 10.0037 8.15535 9.96779 8.15535C9.93192 8.15535 9.90284 8.18389 9.90284 8.2191Z" fill="#F9F9F9"/>
<path d="M9.73495 8.25447C9.73495 8.28968 9.76403 8.31823 9.7999 8.31823C9.83577 8.31823 9.86485 8.28968 9.86485 8.25447C9.86485 8.21926 9.83577 8.19072 9.7999 8.19072C9.76403 8.19072 9.73495 8.21926 9.73495 8.25447Z" fill="#F9F9F9"/>
<path d="M10.7583 10.3075C10.7583 10.3427 10.7292 10.3713 10.6934 10.3713C10.6575 10.3713 10.6284 10.3427 10.6284 10.3075C10.6284 10.2723 10.6575 10.2438 10.6934 10.2438C10.7292 10.2438 10.7583 10.2723 10.7583 10.3075Z" fill="#F9F9F9"/>
<path d="M9.1406 10.2234C9.1406 10.2586 9.11153 10.2871 9.07565 10.2871C9.03978 10.2871 9.0107 10.2586 9.0107 10.2234C9.0107 10.1882 9.03978 10.1596 9.07565 10.1596C9.11153 10.1596 9.1406 10.1882 9.1406 10.2234Z" fill="#F9F9F9"/>
<path d="M9.94968 10.2234C9.94968 10.2586 9.9206 10.2871 9.88473 10.2871C9.84886 10.2871 9.81978 10.2586 9.81978 10.2234C9.81978 10.1882 9.84886 10.1596 9.88473 10.1596C9.9206 10.1596 9.94968 10.1882 9.94968 10.2234Z" fill="#F9F9F9"/>
<path d="M9.24731 10.2234C9.24731 10.1882 9.27642 10.1596 9.31232 10.1596H9.64468C9.68059 10.1596 9.70969 10.1882 9.70969 10.2234C9.70969 10.2587 9.68059 10.2873 9.64468 10.2873H9.31232C9.27642 10.2873 9.24731 10.2587 9.24731 10.2234Z" fill="#D74B4B"/>
<path d="M8.51471 10.2682C8.51215 10.2331 8.5391 10.2025 8.57491 10.2L8.78801 10.185C8.82382 10.1825 8.85493 10.209 8.85749 10.2441C8.86006 10.2793 8.83311 10.3098 8.79729 10.3123L8.5842 10.3273C8.54839 10.3298 8.51728 10.3034 8.51471 10.2682Z" fill="#3FB47C"/>
<path d="M10.4655 10.2682C10.468 10.2331 10.4411 10.2025 10.4053 10.2L10.1922 10.185C10.1563 10.1825 10.1252 10.209 10.1227 10.2441C10.1201 10.2793 10.1471 10.3098 10.1829 10.3123L10.396 10.3273C10.4318 10.3298 10.4629 10.3034 10.4655 10.2682Z" fill="#3FB47C"/>
</g>
<defs>
<clipPath id="clip0_440_1424">
<rect width="24" height="24" rx="12" fill="white"/>
</clipPath>
</defs>
</svg>
