<svg width="24" height="24" viewBox="0 0 24 24" fill="none" xmlns="http://www.w3.org/2000/svg">
<g clip-path="url(#clip0_440_1412)">
<rect width="24" height="24" rx="12" fill="#485CC2"/>
<path d="M15 0L15 24L9 24L9 -2.62268e-07L15 0Z" fill="#F9F9F9"/>
<path fill-rule="evenodd" clip-rule="evenodd" d="M29.5 2L-2.5 26L-5.5 22L26.5 -2L29.5 2Z" fill="#F9F9F9"/>
<path fill-rule="evenodd" clip-rule="evenodd" d="M-5.5 2L26.5 26L29.5 22L-2.5 -2L-5.5 2Z" fill="#F9F9F9"/>
<path fill-rule="evenodd" clip-rule="evenodd" d="M26.5531 24.6023L-4.44689 1.60232L-3.55311 0.397676L27.4469 23.3977L26.5531 24.6023Z" fill="#D74B4B"/>
<path fill-rule="evenodd" clip-rule="evenodd" d="M-2.55312 24.6023L28.4469 1.60232L27.5531 0.397676L-3.44689 23.3977L-2.55312 24.6023Z" fill="#D74B4B"/>
<path d="M-4 9H28V15H-4V9Z" fill="#F9F9F9"/>
<path d="M-4 10H28V14H-4V10Z" fill="#D74B4B"/>
<path d="M14 1.74846e-07L14 24H10L10 0L14 1.74846e-07Z" fill="#D74B4B"/>
</g>
<defs>
<clipPath id="clip0_440_1412">
<rect width="24" height="24" rx="12" fill="white"/>
</clipPath>
</defs>
</svg>
