<svg width="32" height="24" viewBox="0 0 32 24" fill="none" xmlns="http://www.w3.org/2000/svg">
<g clip-path="url(#clip0_440_1411)">
<rect width="32" height="24" rx="2" fill="#F9F9F9"/>
<path d="M16 0L16 24L-1.04907e-06 24L0 -6.99382e-07L16 0Z" fill="#F8D74C"/>
<path fill-rule="evenodd" clip-rule="evenodd" d="M22.4658 9.44158C22.258 9.4399 21.9513 9.51585 21.7224 9.59492L21.5558 9.19436C21.7992 9.11027 22.1725 9.01083 22.47 9.01323C22.6102 9.01436 22.8017 9.03793 22.93 9.16429C23.0775 9.30963 23.0623 9.50322 22.9928 9.67333C22.7683 10.2225 22.5837 10.6662 22.517 10.8255C22.4518 11.0095 22.3813 11.2837 22.3736 11.5158C22.3696 11.6343 22.3829 11.7234 22.4069 11.7804C22.4282 11.8307 22.4473 11.8356 22.4582 11.8382C22.7715 11.9116 23.0443 11.7637 23.1318 11.6872L23.1387 11.6811L23.1462 11.6756C23.1642 11.6622 23.2454 11.5774 23.3203 11.3724C23.3925 11.175 23.453 10.8809 23.4473 10.4715L23.9173 10.466C23.9235 10.9159 23.8573 11.2585 23.7662 11.5078C23.6798 11.7441 23.5644 11.9138 23.4508 12.0019C23.2847 12.1434 22.8562 12.3738 22.3412 12.253C22.1433 12.2067 22.0276 12.0744 21.9684 11.9343C21.9119 11.8008 21.8991 11.6463 21.9038 11.5029C21.9134 11.2133 21.9984 10.8937 22.0719 10.6879L22.0737 10.6828L22.0758 10.6777C22.1402 10.5243 22.3259 10.078 22.5523 9.52381C22.5664 9.48929 22.5717 9.46682 22.5734 9.4532C22.5569 9.44853 22.5241 9.44205 22.4658 9.44158ZM22.573 9.43562C22.573 9.43562 22.5738 9.43685 22.574 9.44012C22.5729 9.4374 22.573 9.43562 22.573 9.43562Z" fill="#E6E6E6"/>
<path fill-rule="evenodd" clip-rule="evenodd" d="M25.4518 9.44158C25.6597 9.4399 25.9664 9.51585 26.1953 9.59492L26.3619 9.19436C26.1185 9.11027 25.7452 9.01083 25.4477 9.01323C25.3075 9.01436 25.116 9.03793 24.9877 9.16429C24.8402 9.30963 24.8554 9.50322 24.9249 9.67333C25.1494 10.2225 25.3339 10.6662 25.4007 10.8255C25.4659 11.0095 25.5364 11.2837 25.5441 11.5158C25.548 11.6343 25.5348 11.7234 25.5108 11.7804C25.4895 11.8307 25.4704 11.8356 25.4595 11.8382C25.1462 11.9116 24.8734 11.7637 24.7859 11.6872L24.779 11.6811L24.7715 11.6756C24.7535 11.6622 24.6723 11.5774 24.5974 11.3724C24.5252 11.175 24.4647 10.8809 24.4703 10.4715L24.0004 10.466C23.9942 10.9159 24.0604 11.2585 24.1515 11.5078C24.2379 11.7441 24.3532 11.9138 24.4669 12.0019C24.633 12.1434 25.0615 12.3738 25.5765 12.253C25.7744 12.2067 25.8901 12.0744 25.9493 11.9343C26.0058 11.8008 26.0186 11.6463 26.0139 11.5029C26.0042 11.2133 25.9193 10.8937 25.8458 10.6879L25.844 10.6828L25.8419 10.6777C25.7775 10.5243 25.5918 10.078 25.3653 9.52381C25.3512 9.48929 25.3459 9.46682 25.3442 9.4532C25.3608 9.44853 25.3936 9.44205 25.4518 9.44158ZM25.3447 9.43562C25.3447 9.43562 25.3439 9.43685 25.3436 9.44012C25.3448 9.4374 25.3447 9.43562 25.3447 9.43562Z" fill="#E6E6E6"/>
<path fill-rule="evenodd" clip-rule="evenodd" d="M20.2587 9.86624C20.2587 9.98694 20.3471 10.0888 20.4682 10.1209L20.4048 10.194L20.7894 10.4708L20.6525 10.5856L20.8155 10.7064L20.6525 10.9015L20.52 10.7993L20.3061 11.0315V11.2079L20.8155 11.5662L21.0019 11.341V11.152L20.9413 11.0963L21.0019 11.0315L21.1722 11.152L21.2333 11.0315L21.3352 11.0963L21.4575 11.2079L21.3352 11.3749L21.1722 11.3006L20.9684 11.5142V11.7L21.4575 12.0436L21.7937 11.7L21.949 11.3054L25.7077 14.0106L26.1931 13.4503L20.8903 9.6337L20.8025 9.73506C20.7524 9.65503 20.6579 9.60107 20.5496 9.60107C20.3889 9.60107 20.2587 9.71979 20.2587 9.86624Z" fill="#E6E6E6"/>
<path fill-rule="evenodd" clip-rule="evenodd" d="M26.7719 15.4565C27.4501 15.4565 28 14.9554 28 14.3371C28 13.7189 27.4501 13.2177 26.7719 13.2177C26.0936 13.2177 25.5437 13.7189 25.5437 14.3371C25.5437 14.9554 26.0936 15.4565 26.7719 15.4565ZM26.9416 13.7908C27.0603 13.6826 27.2528 13.6826 27.3715 13.7908C27.4902 13.899 27.4902 14.0744 27.3715 14.1826L27.3294 14.221C27.3008 14.1995 27.2642 14.1865 27.2242 14.1865C27.133 14.1865 27.0591 14.2539 27.0591 14.3371C27.0591 14.4202 27.133 14.4876 27.2242 14.4876C27.2641 14.4876 27.3007 14.4747 27.3292 14.4532L27.3716 14.4918C27.4903 14.6 27.4903 14.7755 27.3716 14.8837C27.2529 14.9918 27.0604 14.9918 26.9417 14.8837L26.8754 14.8232C26.9129 14.7956 26.937 14.7533 26.937 14.7059C26.937 14.6228 26.8631 14.5554 26.7719 14.5554C26.6807 14.5554 26.6067 14.6228 26.6067 14.7059C26.6067 14.7534 26.6308 14.7957 26.6685 14.8233L26.6022 14.8838C26.4835 14.9919 26.291 14.9919 26.1723 14.8838C26.0536 14.7756 26.0536 14.6001 26.1723 14.492L26.2338 14.436C26.264 14.4676 26.3086 14.4876 26.3583 14.4876C26.4495 14.4876 26.5234 14.4202 26.5234 14.3371C26.5234 14.2539 26.4495 14.1865 26.3583 14.1865C26.3085 14.1865 26.2639 14.2066 26.2337 14.2383L26.1724 14.1825C26.0537 14.0743 26.0537 13.8989 26.1724 13.7907C26.2911 13.6825 26.4836 13.6825 26.6023 13.7907L26.6964 13.8765C26.6432 13.9015 26.6067 13.9521 26.6067 14.0104C26.6067 14.0935 26.6807 14.1609 26.7719 14.1609C26.8631 14.1609 26.937 14.0935 26.937 14.0104C26.937 13.9521 26.9006 13.9016 26.8475 13.8766L26.9416 13.7908Z" fill="#F8D74C"/>
<path fill-rule="evenodd" clip-rule="evenodd" d="M23.3564 12.3146L22.5761 11.7543L23.0615 11.194L23.8418 11.7543L23.3564 12.3146Z" fill="#E6E6E6"/>
<path fill-rule="evenodd" clip-rule="evenodd" d="M27.7447 9.86624C27.7447 9.98694 27.6562 10.0888 27.5352 10.1209L27.5985 10.194L27.2139 10.4708L27.3508 10.5856L27.1878 10.7064L27.3508 10.9015L27.4833 10.7993L27.6973 11.0315V11.2079L27.1878 11.5662L27.0015 11.341V11.152L27.0621 11.0963L27.0015 11.0315L26.8312 11.152L26.77 11.0315L26.6682 11.0963L26.5459 11.2079L26.6682 11.3749L26.8312 11.3006L27.035 11.5142V11.7L26.5459 12.0436L26.2096 11.7L26.0544 11.3054L22.2957 14.0106L21.8103 13.4503L27.1131 9.6337L27.2009 9.73507C27.251 9.65503 27.3455 9.60107 27.4538 9.60107C27.6145 9.60107 27.7447 9.71979 27.7447 9.86624Z" fill="#F8D74C"/>
<path fill-rule="evenodd" clip-rule="evenodd" d="M21.2281 15.4567C21.9064 15.4567 22.4563 14.9555 22.4563 14.3373C22.4563 13.7191 21.9064 13.2179 21.2281 13.2179C20.5499 13.2179 20 13.7191 20 14.3373C20 14.9555 20.5499 15.4567 21.2281 15.4567ZM21.3979 13.7909C21.5166 13.6827 21.7091 13.6827 21.8278 13.7909C21.9465 13.8991 21.9465 14.0745 21.8278 14.1827L21.7856 14.2211C21.7571 14.1996 21.7204 14.1867 21.6805 14.1867C21.5893 14.1867 21.5153 14.2541 21.5153 14.3372C21.5153 14.4203 21.5893 14.4877 21.6805 14.4877C21.7204 14.4877 21.7569 14.4748 21.7855 14.4534L21.8278 14.492C21.9465 14.6002 21.9465 14.7756 21.8278 14.8838C21.7091 14.992 21.5167 14.992 21.398 14.8838L21.3316 14.8233C21.3692 14.7957 21.3933 14.7534 21.3933 14.706C21.3933 14.6229 21.3193 14.5555 21.2281 14.5555C21.1369 14.5555 21.063 14.6229 21.063 14.706C21.063 14.7535 21.0871 14.7959 21.1248 14.8234L21.0585 14.8839C20.9398 14.9921 20.7473 14.9921 20.6286 14.8839C20.5099 14.7757 20.5099 14.6003 20.6286 14.4921L20.69 14.4361C20.7203 14.4677 20.7648 14.4877 20.8145 14.4877C20.9057 14.4877 20.9797 14.4203 20.9797 14.3372C20.9797 14.2541 20.9057 14.1867 20.8145 14.1867C20.7648 14.1867 20.7202 14.2067 20.6899 14.2384L20.6287 14.1826C20.51 14.0744 20.51 13.899 20.6287 13.7908C20.7474 13.6826 20.9398 13.6826 21.0585 13.7908L21.1527 13.8766C21.0994 13.9016 21.063 13.9522 21.063 14.0106C21.063 14.0937 21.1369 14.1611 21.2281 14.1611C21.3193 14.1611 21.3933 14.0937 21.3933 14.0106C21.3933 13.9523 21.3569 13.9017 21.3037 13.8767L21.3979 13.7909Z" fill="#E6E6E6"/>
<path fill-rule="evenodd" clip-rule="evenodd" d="M24.6514 12.3148L25.4317 11.7545L24.9463 11.1941L24.166 11.7545L24.6514 12.3148Z" fill="#F8D74C"/>
<path d="M23.9371 7.00751L23.8587 7.09126V7.19619C23.8382 7.16761 23.8028 7.14843 23.7624 7.14843C23.6992 7.14843 23.6479 7.19515 23.6479 7.25267C23.6479 7.31054 23.6992 7.35725 23.7624 7.35725L23.7775 7.3562C23.7696 7.37503 23.7654 7.3956 23.7654 7.41721C23.7654 7.42512 23.7642 7.46504 23.7654 7.47266H24.1446C24.1446 7.51937 24.1446 7.47266 24.1446 7.41721C24.1446 7.39595 24.1404 7.37573 24.1328 7.35725C24.1957 7.3569 24.2465 7.31019 24.2465 7.25267C24.2465 7.19515 24.1952 7.14843 24.132 7.14843C24.1005 7.14843 24.0719 7.15994 24.0512 7.17876V7.09126L23.9728 7.00751C23.9634 6.9975 23.9465 6.9975 23.9371 7.00751Z" fill="#F8D74C"/>
<path d="M22.9922 8.28444C-nan -nan -nan -nan 23.9177 7.44092L-nan -nanL23.9177 7.44092C-nan -nan -nan -nan 24.8432 8.28444V10.3064H22.9922V8.28444Z" fill="#F9F9F9"/>
<path fill-rule="evenodd" clip-rule="evenodd" d="M23.9177 7.44092C23.4066 7.44092 22.9922 7.81858 22.9922 8.28444V10.3064H24.8432V8.28444C24.8432 7.81858 24.4288 7.44092 23.9177 7.44092Z" fill="#E6E6E6"/>
<path d="M23.8588 9.56183L23.9344 9.47808C23.9435 9.46806 23.9599 9.46806 23.9689 9.47808L24.0446 9.56183V9.64933C24.0645 9.63051 24.0921 9.619 24.1225 9.619C24.1835 9.619 24.233 9.66572 24.233 9.72324C24.233 9.78076 24.184 9.82747 24.1233 9.82782C24.1306 9.84629 24.1346 9.86651 24.1346 9.88778C24.1346 9.89615 24.134 9.90451 24.1327 9.91253H24.3755L24.4764 9.70051C24.4857 9.68085 24.5165 9.68509 24.5195 9.70646L24.5486 9.91253H24.5604C24.5717 9.91253 24.5829 9.91009 24.5932 9.90521L24.9963 9.72211C25.0181 9.7122 25.039 9.73714 25.0237 9.7549L24.8099 10.0039V10.4062C24.7519 10.4874 24.5015 10.6498 23.9646 10.6498C23.4277 10.6498 23.1128 10.4874 23.0225 10.4062V10.0039L22.8675 9.76125C22.855 9.74174 22.8791 9.71978 22.8993 9.73227L23.1714 9.90068C23.1837 9.90835 23.1981 9.91253 23.2128 9.91253H23.3593L23.3884 9.70646C23.3914 9.68509 23.4222 9.68085 23.4316 9.70051L23.5324 9.91253H23.7706C23.7694 9.90451 23.7688 9.89615 23.7688 9.88778C23.7688 9.86617 23.7729 9.8456 23.7804 9.82677L23.7659 9.82782C23.7049 9.82782 23.6554 9.7811 23.6554 9.72324C23.6554 9.66572 23.7049 9.619 23.7659 9.619C23.8048 9.619 23.8391 9.63818 23.8588 9.66676V9.56183Z" fill="#F8D74C"/>
<path fill-rule="evenodd" clip-rule="evenodd" d="M23.8588 9.66676C23.8506 9.6549 23.8399 9.64465 23.8274 9.63673C23.8098 9.62556 23.7887 9.619 23.7659 9.619C23.7049 9.619 23.6554 9.66572 23.6554 9.72324C23.6554 9.77516 23.6952 9.81811 23.7475 9.82638C23.7535 9.82733 23.7596 9.82782 23.7659 9.82782L23.7804 9.82677C23.7767 9.83613 23.7738 9.84591 23.7718 9.85604C23.77 9.8651 23.769 9.87443 23.7688 9.88397L23.7688 9.88778C23.7688 9.89615 23.7694 9.90451 23.7706 9.91253H23.5324L23.4316 9.70051C23.4222 9.68085 23.3914 9.68509 23.3884 9.70646L23.3593 9.91253H23.2128C23.1981 9.91253 23.1837 9.90835 23.1714 9.90068L22.8993 9.73227C22.8791 9.71978 22.855 9.74174 22.8675 9.76125L23.0225 10.0039V10.4062C23.1128 10.4874 23.4277 10.6498 23.9646 10.6498C24.5015 10.6498 24.7519 10.4874 24.8099 10.4062V10.0039L25.0237 9.7549C25.039 9.73714 25.0181 9.7122 24.9963 9.72211L24.5932 9.90521C24.5829 9.91009 24.5717 9.91253 24.5604 9.91253H24.5486L24.5195 9.70646C24.5165 9.68509 24.4857 9.68085 24.4764 9.70051L24.3755 9.91253H24.1327C24.134 9.90451 24.1346 9.89615 24.1346 9.88778L24.1346 9.88397C24.1344 9.87445 24.1333 9.86514 24.1316 9.85612C24.1297 9.84632 24.1269 9.83686 24.1233 9.82782C24.1342 9.82776 24.1448 9.82619 24.1547 9.82332C24.2 9.81028 24.233 9.77039 24.233 9.72324C24.233 9.66572 24.1835 9.619 24.1225 9.619C24.1058 9.619 24.0901 9.62245 24.0759 9.62866C24.0642 9.63379 24.0536 9.64081 24.0446 9.64933V9.56183L23.9689 9.47808C23.9599 9.46806 23.9435 9.46806 23.9344 9.47808L23.8588 9.56183V9.66676Z" fill="#F8D74C"/>
<path fill-rule="evenodd" clip-rule="evenodd" d="M23.9344 7.56318L23.8588 7.64693V7.75186C23.8391 7.72327 23.8048 7.7041 23.7659 7.7041C23.7049 7.7041 23.6554 7.75081 23.6554 7.80833C23.6554 7.8662 23.7049 7.91291 23.7659 7.91291L23.7804 7.91187C23.7729 7.93069 23.7688 7.95126 23.7688 7.97288C23.7688 7.98124 23.7694 7.98961 23.7706 7.99763H23.5324L23.4316 7.78561C23.4222 7.76594 23.3914 7.77018 23.3884 7.79156L23.3593 7.99763H23.2128C23.1981 7.99763 23.1837 7.99344 23.1714 7.98577L22.8993 7.81736C22.8791 7.80487 22.855 7.82684 22.8675 7.84635L23.0225 8.08896V8.46632C23.2165 8.3644 23.5592 8.29671 23.9496 8.29671C24.2985 8.29671 24.6093 8.35079 24.8099 8.43504V8.08896L25.0237 7.84C25.039 7.82224 25.0181 7.79729 24.9963 7.8072L24.5932 7.99031C24.5829 7.99519 24.5717 7.99763 24.5604 7.99763H24.5486L24.5195 7.79156C24.5165 7.77018 24.4857 7.76594 24.4764 7.78561L24.3755 7.99763H24.1327C24.134 7.98961 24.1346 7.98124 24.1346 7.97288C24.1346 7.95161 24.1306 7.93139 24.1233 7.91291C24.184 7.91257 24.233 7.86585 24.233 7.80833C24.233 7.75081 24.1835 7.7041 24.1225 7.7041C24.0921 7.7041 24.0645 7.7156 24.0446 7.73443V7.64693L23.9689 7.56318C23.9599 7.55316 23.9435 7.55316 23.9344 7.56318Z" fill="#F8D74C"/>
<path fill-rule="evenodd" clip-rule="evenodd" d="M23.8588 7.75186C23.8506 7.73999 23.8399 7.72975 23.8274 7.72183C23.8098 7.71066 23.7887 7.7041 23.7659 7.7041C23.7049 7.7041 23.6554 7.75081 23.6554 7.80833C23.6554 7.86026 23.6952 7.90321 23.7475 7.91148C23.7535 7.91242 23.7596 7.91291 23.7659 7.91291L23.7804 7.91187C23.7767 7.92122 23.7738 7.93101 23.7718 7.94114C23.77 7.95019 23.769 7.95952 23.7688 7.96907L23.7688 7.97288C23.7688 7.98124 23.7694 7.98961 23.7706 7.99763H23.5324L23.4316 7.78561C23.4222 7.76594 23.3914 7.77018 23.3884 7.79156L23.3593 7.99763H23.2128C23.1981 7.99763 23.1837 7.99344 23.1714 7.98577L22.8993 7.81736C22.8791 7.80487 22.855 7.82684 22.8675 7.84635L23.0225 8.08896V8.46632C23.0325 8.46104 23.043 8.45585 23.0538 8.45076C23.2521 8.35757 23.5794 8.29671 23.9496 8.29671C24.2808 8.29671 24.5777 8.34545 24.7786 8.42247C24.7893 8.42658 24.7998 8.43078 24.8099 8.43504V8.08896L25.0237 7.84C25.039 7.82224 25.0181 7.79729 24.9963 7.8072L24.5932 7.99031C24.5829 7.99519 24.5717 7.99763 24.5604 7.99763H24.5486L24.5195 7.79156C24.5165 7.77018 24.4857 7.76594 24.4764 7.78561L24.3755 7.99763H24.1327C24.134 7.98961 24.1346 7.98124 24.1346 7.97288L24.1346 7.96907C24.1344 7.95954 24.1333 7.95024 24.1316 7.94122C24.1297 7.93142 24.1269 7.92196 24.1233 7.91291C24.1342 7.91285 24.1448 7.91128 24.1547 7.90842C24.2 7.89538 24.233 7.85549 24.233 7.80833C24.233 7.75081 24.1835 7.7041 24.1225 7.7041C24.1058 7.7041 24.0901 7.70755 24.0759 7.71375C24.0642 7.71889 24.0536 7.72591 24.0446 7.73443V7.64693L23.9689 7.56318C23.9599 7.55316 23.9435 7.55316 23.9344 7.56318L23.8588 7.64693V7.75186Z" fill="#F8D74C"/>
<path fill-rule="evenodd" clip-rule="evenodd" d="M23.9344 8.52041L23.8588 8.60416V8.70909C23.8391 8.68051 23.8048 8.66133 23.7659 8.66133C23.7049 8.66133 23.6554 8.70805 23.6554 8.76557C23.6554 8.82343 23.7049 8.87015 23.7659 8.87015L23.7804 8.8691C23.7729 8.88793 23.7688 8.90849 23.7688 8.93011C23.7688 8.93848 23.7694 8.94684 23.7706 8.95486H23.5324L23.4316 8.74284C23.4222 8.72318 23.3914 8.72742 23.3884 8.74879L23.3593 8.95486H23.2128C23.1981 8.95486 23.1837 8.95068 23.1714 8.94301L22.8993 8.7746C22.8791 8.76211 22.855 8.78407 22.8675 8.80358L23.0225 9.04619V9.42355C23.2165 9.32164 23.5592 9.25394 23.9496 9.25394C24.2985 9.25394 24.6093 9.30802 24.8099 9.39228V9.04619L25.0237 8.79723C25.039 8.77947 25.0181 8.75453 24.9963 8.76444L24.5932 8.94754C24.5829 8.95242 24.5717 8.95486 24.5604 8.95486H24.5486L24.5195 8.74879C24.5165 8.72742 24.4857 8.72318 24.4764 8.74284L24.3755 8.95486H24.1327C24.134 8.94684 24.1346 8.93848 24.1346 8.93011C24.1346 8.90884 24.1306 8.88862 24.1233 8.87015C24.184 8.8698 24.233 8.82309 24.233 8.76557C24.233 8.70805 24.1835 8.66133 24.1225 8.66133C24.0921 8.66133 24.0645 8.67284 24.0446 8.69166V8.60416L23.9689 8.52041C23.9599 8.51039 23.9435 8.51039 23.9344 8.52041Z" fill="#F8D74C"/>
<path fill-rule="evenodd" clip-rule="evenodd" d="M23.8588 8.70909C23.8506 8.69723 23.8399 8.68698 23.8274 8.67906C23.8098 8.66789 23.7887 8.66133 23.7659 8.66133C23.7049 8.66133 23.6554 8.70805 23.6554 8.76557C23.6554 8.81749 23.6952 8.86044 23.7475 8.86871C23.7535 8.86966 23.7596 8.87015 23.7659 8.87015L23.7804 8.8691C23.7767 8.87846 23.7738 8.88824 23.7718 8.89837C23.77 8.90743 23.769 8.91676 23.7688 8.9263L23.7688 8.93011C23.7688 8.93848 23.7694 8.94684 23.7706 8.95486H23.5324L23.4316 8.74284C23.4222 8.72318 23.3914 8.72742 23.3884 8.74879L23.3593 8.95486H23.2128C23.1981 8.95486 23.1837 8.95068 23.1714 8.94301L22.8993 8.7746C22.8791 8.76211 22.855 8.78407 22.8675 8.80358L23.0225 9.04619V9.42355C23.0325 9.41827 23.043 9.41308 23.0538 9.40799C23.2521 9.3148 23.5794 9.25394 23.9496 9.25394C24.2808 9.25394 24.5777 9.30268 24.7786 9.37971C24.7893 9.38382 24.7998 9.38801 24.8099 9.39228V9.04619L25.0237 8.79723C25.039 8.77947 25.0181 8.75453 24.9963 8.76444L24.5932 8.94754C24.5829 8.95242 24.5717 8.95486 24.5604 8.95486H24.5486L24.5195 8.74879C24.5165 8.72742 24.4857 8.72318 24.4764 8.74284L24.3755 8.95486H24.1327C24.134 8.94684 24.1346 8.93848 24.1346 8.93011L24.1346 8.9263C24.1344 8.91678 24.1333 8.90747 24.1316 8.89845C24.1297 8.88865 24.1269 8.87919 24.1233 8.87015C24.1342 8.87009 24.1448 8.86852 24.1547 8.86565C24.2 8.85261 24.233 8.81272 24.233 8.76557C24.233 8.70805 24.1835 8.66133 24.1225 8.66133C24.1058 8.66133 24.0901 8.66478 24.0759 8.67099C24.0642 8.67612 24.0536 8.68314 24.0446 8.69166V8.60416L23.9689 8.52041C23.9599 8.51039 23.9435 8.51039 23.9344 8.52041L23.8588 8.60416V8.70909Z" fill="#F8D74C"/>
<path d="M24.7035 10.3642C24.7035 10.4378 24.3592 10.5733 23.9344 10.5733C23.5096 10.5733 23.1652 10.4378 23.1652 10.3642C23.1652 10.2906 23.5096 10.231 23.9344 10.231C24.3592 10.231 24.7035 10.2906 24.7035 10.3642Z" fill="#962122"/>
<path fill-rule="evenodd" clip-rule="evenodd" d="M23.7813 11.7247C23.7708 11.7294 23.7122 11.6726 23.6556 11.63V11.7043C23.6805 11.7247 23.6705 11.7903 23.6905 11.9164C23.7098 12.0387 23.7223 12.2074 23.7223 12.4343V12.6374C23.4074 12.6561 23.3644 12.5668 23.3623 12.5625C23.3544 12.5463 23.3494 12.5165 23.3603 12.4731C23.3712 12.4298 23.3941 12.3898 23.416 12.365L23.0498 12.0965C22.9827 12.1726 22.9288 12.2718 22.9022 12.3774C22.8757 12.483 22.8725 12.612 22.9324 12.7356C23.0503 12.9788 23.3361 13.0815 23.7223 13.066V15.5001H24.0999V15.9224H24.5699V12.8758C24.6847 12.8216 24.7773 12.7587 24.8493 12.6901C24.9401 12.6035 25.0002 12.5051 25.0229 12.4042C25.0446 12.3072 25.0339 12.1901 24.9526 12.0972L24.5852 12.3643C24.5606 12.3362 24.563 12.3149 24.563 12.3149C24.563 12.3149 24.5629 12.316 24.5624 12.3183C24.5604 12.3271 24.5503 12.3552 24.5095 12.3941C24.4962 12.4068 24.4799 12.4203 24.4601 12.4343H24.1923C24.1923 12.1949 24.1793 12.0044 24.1556 11.8552C24.1326 11.7097 24.0973 11.588 24.0421 11.497C23.987 11.4061 23.8802 11.3012 23.7122 11.3074C23.5698 11.3127 23.4724 11.3984 23.422 11.4539L23.7813 11.7247Z" fill="#962122"/>
<path fill-rule="evenodd" clip-rule="evenodd" d="M24.3347 16.0747C24.4322 16.0747 24.5113 16.0027 24.5113 15.9138C24.5113 15.825 24.4322 15.7529 24.3347 15.7529C24.2373 15.7529 24.1582 15.825 24.1582 15.9138C24.1582 16.0027 24.2373 16.0747 24.3347 16.0747ZM24.3347 16.0747C24.1269 16.0747 23.9584 16.2283 23.9584 16.4177V17.0001H24.7111V16.4177C24.7111 16.2283 24.5426 16.0747 24.3347 16.0747Z" fill="#962122"/>
<path fill-rule="evenodd" clip-rule="evenodd" d="M23.9584 15.6647C24.0559 15.6647 24.1349 15.5927 24.1349 15.5038C24.1349 15.415 24.0559 15.343 23.9584 15.343C23.8609 15.343 23.7819 15.415 23.7819 15.5038C23.7819 15.5927 23.8609 15.6647 23.9584 15.6647ZM23.9584 15.6647C23.7506 15.6647 23.5821 15.8183 23.5821 16.0077V16.5902H24.3347V16.0077C24.3347 15.8183 24.1662 15.6647 23.9584 15.6647Z" fill="#962122"/>
</g>
<defs>
<clipPath id="clip0_440_1411">
<rect width="32" height="24" rx="2" fill="white"/>
</clipPath>
</defs>
</svg>
