<svg width="24" height="24" viewBox="0 0 24 24" fill="none" xmlns="http://www.w3.org/2000/svg">
<g clip-path="url(#clip0_440_1410)">
<rect width="24" height="24" rx="2" fill="#F9F9F9"/>
<path d="M12 0L12 24L-1.04907e-06 24L0 -5.24537e-07L12 0Z" fill="#F8D74C"/>
<path fill-rule="evenodd" clip-rule="evenodd" d="M16.4658 9.44158C16.258 9.4399 15.9513 9.51585 15.7224 9.59492L15.5558 9.19436C15.7992 9.11027 16.1725 9.01083 16.47 9.01323C16.6102 9.01436 16.8017 9.03793 16.93 9.16429C17.0775 9.30963 17.0623 9.50322 16.9928 9.67333C16.7683 10.2225 16.5837 10.6662 16.517 10.8255C16.4518 11.0095 16.3813 11.2837 16.3736 11.5158C16.3696 11.6343 16.3829 11.7234 16.4069 11.7804C16.4282 11.8307 16.4473 11.8356 16.4582 11.8382C16.7715 11.9116 17.0443 11.7637 17.1318 11.6872L17.1387 11.6811L17.1462 11.6756C17.1642 11.6622 17.2454 11.5774 17.3203 11.3724C17.3925 11.175 17.453 10.8809 17.4473 10.4715L17.9173 10.466C17.9235 10.9159 17.8573 11.2585 17.7662 11.5078C17.6798 11.7441 17.5644 11.9138 17.4508 12.0019C17.2847 12.1434 16.8562 12.3738 16.3412 12.253C16.1433 12.2067 16.0276 12.0744 15.9684 11.9343C15.9119 11.8008 15.8991 11.6463 15.9038 11.5029C15.9134 11.2133 15.9984 10.8937 16.0719 10.6879L16.0737 10.6828L16.0758 10.6777C16.1402 10.5243 16.3259 10.078 16.5523 9.52381C16.5664 9.48929 16.5717 9.46682 16.5734 9.4532C16.5569 9.44853 16.5241 9.44205 16.4658 9.44158ZM16.573 9.43562C16.573 9.43562 16.5738 9.43685 16.574 9.44012C16.5729 9.4374 16.573 9.43562 16.573 9.43562Z" fill="#E6E6E6"/>
<path fill-rule="evenodd" clip-rule="evenodd" d="M19.4518 9.44158C19.6597 9.4399 19.9664 9.51585 20.1953 9.59492L20.3619 9.19436C20.1185 9.11027 19.7452 9.01083 19.4477 9.01323C19.3075 9.01436 19.116 9.03793 18.9877 9.16429C18.8402 9.30963 18.8554 9.50322 18.9249 9.67333C19.1494 10.2225 19.3339 10.6662 19.4007 10.8255C19.4659 11.0095 19.5364 11.2837 19.5441 11.5158C19.548 11.6343 19.5348 11.7234 19.5108 11.7804C19.4895 11.8307 19.4704 11.8356 19.4595 11.8382C19.1462 11.9116 18.8734 11.7637 18.7859 11.6872L18.779 11.6811L18.7715 11.6756C18.7535 11.6622 18.6723 11.5774 18.5974 11.3724C18.5252 11.175 18.4647 10.8809 18.4703 10.4715L18.0004 10.466C17.9942 10.9159 18.0604 11.2585 18.1515 11.5078C18.2379 11.7441 18.3532 11.9138 18.4669 12.0019C18.633 12.1434 19.0615 12.3738 19.5765 12.253C19.7744 12.2067 19.8901 12.0744 19.9493 11.9343C20.0058 11.8008 20.0186 11.6463 20.0139 11.5029C20.0042 11.2133 19.9193 10.8937 19.8458 10.6879L19.844 10.6828L19.8419 10.6777C19.7775 10.5243 19.5918 10.078 19.3653 9.52381C19.3512 9.48929 19.3459 9.46682 19.3442 9.4532C19.3608 9.44853 19.3936 9.44205 19.4518 9.44158ZM19.3447 9.43562C19.3447 9.43562 19.3439 9.43685 19.3436 9.44012C19.3448 9.4374 19.3447 9.43562 19.3447 9.43562Z" fill="#E6E6E6"/>
<path fill-rule="evenodd" clip-rule="evenodd" d="M14.2587 9.86624C14.2587 9.98694 14.3471 10.0888 14.4682 10.1209L14.4048 10.194L14.7894 10.4708L14.6525 10.5856L14.8155 10.7064L14.6525 10.9015L14.52 10.7993L14.3061 11.0315V11.2079L14.8155 11.5662L15.0019 11.341V11.152L14.9413 11.0963L15.0019 11.0315L15.1722 11.152L15.2333 11.0315L15.3352 11.0963L15.4575 11.2079L15.3352 11.3749L15.1722 11.3006L14.9684 11.5142V11.7L15.4575 12.0436L15.7937 11.7L15.949 11.3054L19.7077 14.0106L20.1931 13.4503L14.8903 9.6337L14.8025 9.73506C14.7524 9.65503 14.6579 9.60107 14.5496 9.60107C14.3889 9.60107 14.2587 9.71979 14.2587 9.86624Z" fill="#E6E6E6"/>
<path fill-rule="evenodd" clip-rule="evenodd" d="M20.7719 15.4565C21.4501 15.4565 22 14.9554 22 14.3371C22 13.7189 21.4501 13.2177 20.7719 13.2177C20.0936 13.2177 19.5437 13.7189 19.5437 14.3371C19.5437 14.9554 20.0936 15.4565 20.7719 15.4565ZM20.9416 13.7908C21.0603 13.6826 21.2528 13.6826 21.3715 13.7908C21.4902 13.899 21.4902 14.0744 21.3715 14.1826L21.3294 14.221C21.3008 14.1995 21.2642 14.1865 21.2242 14.1865C21.133 14.1865 21.0591 14.2539 21.0591 14.3371C21.0591 14.4202 21.133 14.4876 21.2242 14.4876C21.2641 14.4876 21.3007 14.4747 21.3292 14.4532L21.3716 14.4918C21.4903 14.6 21.4903 14.7755 21.3716 14.8837C21.2529 14.9918 21.0604 14.9918 20.9417 14.8837L20.8754 14.8232C20.9129 14.7956 20.937 14.7533 20.937 14.7059C20.937 14.6228 20.8631 14.5554 20.7719 14.5554C20.6807 14.5554 20.6067 14.6228 20.6067 14.7059C20.6067 14.7534 20.6308 14.7957 20.6685 14.8233L20.6022 14.8838C20.4835 14.9919 20.291 14.9919 20.1723 14.8838C20.0536 14.7756 20.0536 14.6001 20.1723 14.492L20.2338 14.436C20.264 14.4676 20.3086 14.4876 20.3583 14.4876C20.4495 14.4876 20.5234 14.4202 20.5234 14.3371C20.5234 14.2539 20.4495 14.1865 20.3583 14.1865C20.3085 14.1865 20.2639 14.2066 20.2337 14.2383L20.1724 14.1825C20.0537 14.0743 20.0537 13.8989 20.1724 13.7907C20.2911 13.6825 20.4836 13.6825 20.6023 13.7907L20.6964 13.8765C20.6432 13.9015 20.6067 13.9521 20.6067 14.0104C20.6067 14.0935 20.6807 14.1609 20.7719 14.1609C20.8631 14.1609 20.937 14.0935 20.937 14.0104C20.937 13.9521 20.9006 13.9016 20.8475 13.8766L20.9416 13.7908Z" fill="#F8D74C"/>
<path fill-rule="evenodd" clip-rule="evenodd" d="M17.3564 12.3146L16.5761 11.7543L17.0615 11.194L17.8418 11.7543L17.3564 12.3146Z" fill="#E6E6E6"/>
<path fill-rule="evenodd" clip-rule="evenodd" d="M21.7447 9.86624C21.7447 9.98694 21.6562 10.0888 21.5352 10.1209L21.5985 10.194L21.2139 10.4708L21.3508 10.5856L21.1878 10.7064L21.3508 10.9015L21.4833 10.7993L21.6973 11.0315V11.2079L21.1878 11.5662L21.0015 11.341V11.152L21.0621 11.0963L21.0015 11.0315L20.8312 11.152L20.77 11.0315L20.6682 11.0963L20.5459 11.2079L20.6682 11.3749L20.8312 11.3006L21.035 11.5142V11.7L20.5459 12.0436L20.2096 11.7L20.0544 11.3054L16.2957 14.0106L15.8103 13.4503L21.1131 9.6337L21.2009 9.73507C21.251 9.65503 21.3455 9.60107 21.4538 9.60107C21.6145 9.60107 21.7447 9.71979 21.7447 9.86624Z" fill="#F8D74C"/>
<path fill-rule="evenodd" clip-rule="evenodd" d="M15.2281 15.4567C15.9064 15.4567 16.4563 14.9555 16.4563 14.3373C16.4563 13.7191 15.9064 13.2179 15.2281 13.2179C14.5499 13.2179 14 13.7191 14 14.3373C14 14.9555 14.5499 15.4567 15.2281 15.4567ZM15.3979 13.7909C15.5166 13.6827 15.7091 13.6827 15.8278 13.7909C15.9465 13.8991 15.9465 14.0745 15.8278 14.1827L15.7856 14.2211C15.7571 14.1996 15.7204 14.1867 15.6805 14.1867C15.5893 14.1867 15.5153 14.2541 15.5153 14.3372C15.5153 14.4203 15.5893 14.4877 15.6805 14.4877C15.7204 14.4877 15.7569 14.4748 15.7855 14.4534L15.8278 14.492C15.9465 14.6002 15.9465 14.7756 15.8278 14.8838C15.7091 14.992 15.5167 14.992 15.398 14.8838L15.3316 14.8233C15.3692 14.7957 15.3933 14.7534 15.3933 14.706C15.3933 14.6229 15.3193 14.5555 15.2281 14.5555C15.1369 14.5555 15.063 14.6229 15.063 14.706C15.063 14.7535 15.0871 14.7959 15.1248 14.8234L15.0585 14.8839C14.9398 14.9921 14.7473 14.9921 14.6286 14.8839C14.5099 14.7757 14.5099 14.6003 14.6286 14.4921L14.69 14.4361C14.7203 14.4677 14.7648 14.4877 14.8145 14.4877C14.9057 14.4877 14.9797 14.4203 14.9797 14.3372C14.9797 14.2541 14.9057 14.1867 14.8145 14.1867C14.7648 14.1867 14.7202 14.2067 14.6899 14.2384L14.6287 14.1826C14.51 14.0744 14.51 13.899 14.6287 13.7908C14.7474 13.6826 14.9398 13.6826 15.0585 13.7908L15.1527 13.8766C15.0994 13.9016 15.063 13.9522 15.063 14.0106C15.063 14.0937 15.1369 14.1611 15.2281 14.1611C15.3193 14.1611 15.3933 14.0937 15.3933 14.0106C15.3933 13.9523 15.3569 13.9017 15.3037 13.8767L15.3979 13.7909Z" fill="#E6E6E6"/>
<path fill-rule="evenodd" clip-rule="evenodd" d="M18.6514 12.3148L19.4317 11.7545L18.9463 11.1941L18.166 11.7545L18.6514 12.3148Z" fill="#F8D74C"/>
<path d="M17.9371 7.00751L17.8587 7.09126V7.19619C17.8382 7.16761 17.8028 7.14843 17.7624 7.14843C17.6992 7.14843 17.6479 7.19515 17.6479 7.25267C17.6479 7.31054 17.6992 7.35725 17.7624 7.35725L17.7775 7.3562C17.7696 7.37503 17.7654 7.3956 17.7654 7.41721C17.7654 7.42512 17.7642 7.46504 17.7654 7.47266H18.1446C18.1446 7.51937 18.1446 7.47266 18.1446 7.41721C18.1446 7.39595 18.1404 7.37573 18.1328 7.35725C18.1957 7.3569 18.2465 7.31019 18.2465 7.25267C18.2465 7.19515 18.1952 7.14843 18.132 7.14843C18.1005 7.14843 18.0719 7.15994 18.0512 7.17876V7.09126L17.9728 7.00751C17.9634 6.9975 17.9465 6.9975 17.9371 7.00751Z" fill="#F8D74C"/>
<path d="M16.9922 8.28444C-nan -nan -nan -nan 17.9177 7.44092L-nan -nanL17.9177 7.44092C-nan -nan -nan -nan 18.8432 8.28444V10.3064H16.9922V8.28444Z" fill="#F9F9F9"/>
<path fill-rule="evenodd" clip-rule="evenodd" d="M17.9177 7.44092C17.4066 7.44092 16.9922 7.81858 16.9922 8.28444V10.3064H18.8432V8.28444C18.8432 7.81858 18.4288 7.44092 17.9177 7.44092Z" fill="#E6E6E6"/>
<path d="M17.8588 9.56183L17.9344 9.47808C17.9435 9.46806 17.9599 9.46806 17.9689 9.47808L18.0446 9.56183V9.64933C18.0645 9.63051 18.0921 9.619 18.1225 9.619C18.1835 9.619 18.233 9.66572 18.233 9.72324C18.233 9.78076 18.184 9.82747 18.1233 9.82782C18.1306 9.84629 18.1346 9.86651 18.1346 9.88778C18.1346 9.89615 18.134 9.90451 18.1327 9.91253H18.3755L18.4764 9.70051C18.4857 9.68085 18.5165 9.68509 18.5195 9.70646L18.5486 9.91253H18.5604C18.5717 9.91253 18.5829 9.91009 18.5932 9.90521L18.9963 9.72211C19.0181 9.7122 19.039 9.73714 19.0237 9.7549L18.8099 10.0039V10.4062C18.7519 10.4874 18.5015 10.6498 17.9646 10.6498C17.4277 10.6498 17.1128 10.4874 17.0225 10.4062V10.0039L16.8675 9.76125C16.855 9.74174 16.8791 9.71978 16.8993 9.73227L17.1714 9.90068C17.1837 9.90835 17.1981 9.91253 17.2128 9.91253H17.3593L17.3884 9.70646C17.3914 9.68509 17.4222 9.68085 17.4316 9.70051L17.5324 9.91253H17.7706C17.7694 9.90451 17.7688 9.89615 17.7688 9.88778C17.7688 9.86617 17.7729 9.8456 17.7804 9.82677L17.7659 9.82782C17.7049 9.82782 17.6554 9.7811 17.6554 9.72324C17.6554 9.66572 17.7049 9.619 17.7659 9.619C17.8048 9.619 17.8391 9.63818 17.8588 9.66676V9.56183Z" fill="#F8D74C"/>
<path fill-rule="evenodd" clip-rule="evenodd" d="M17.8588 9.66676C17.8506 9.6549 17.8399 9.64465 17.8274 9.63673C17.8098 9.62556 17.7887 9.619 17.7659 9.619C17.7049 9.619 17.6554 9.66572 17.6554 9.72324C17.6554 9.77516 17.6952 9.81811 17.7475 9.82638C17.7535 9.82733 17.7596 9.82782 17.7659 9.82782L17.7804 9.82677C17.7767 9.83613 17.7738 9.84591 17.7718 9.85604C17.77 9.8651 17.769 9.87443 17.7688 9.88397L17.7688 9.88778C17.7688 9.89615 17.7694 9.90451 17.7706 9.91253H17.5324L17.4316 9.70051C17.4222 9.68085 17.3914 9.68509 17.3884 9.70646L17.3593 9.91253H17.2128C17.1981 9.91253 17.1837 9.90835 17.1714 9.90068L16.8993 9.73227C16.8791 9.71978 16.855 9.74174 16.8675 9.76125L17.0225 10.0039V10.4062C17.1128 10.4874 17.4277 10.6498 17.9646 10.6498C18.5015 10.6498 18.7519 10.4874 18.8099 10.4062V10.0039L19.0237 9.7549C19.039 9.73714 19.0181 9.7122 18.9963 9.72211L18.5932 9.90521C18.5829 9.91009 18.5717 9.91253 18.5604 9.91253H18.5486L18.5195 9.70646C18.5165 9.68509 18.4857 9.68085 18.4764 9.70051L18.3755 9.91253H18.1327C18.134 9.90451 18.1346 9.89615 18.1346 9.88778L18.1346 9.88397C18.1344 9.87445 18.1333 9.86514 18.1316 9.85612C18.1297 9.84632 18.1269 9.83686 18.1233 9.82782C18.1342 9.82776 18.1448 9.82619 18.1547 9.82332C18.2 9.81028 18.233 9.77039 18.233 9.72324C18.233 9.66572 18.1835 9.619 18.1225 9.619C18.1058 9.619 18.0901 9.62245 18.0759 9.62866C18.0642 9.63379 18.0536 9.64081 18.0446 9.64933V9.56183L17.9689 9.47808C17.9599 9.46806 17.9435 9.46806 17.9344 9.47808L17.8588 9.56183V9.66676Z" fill="#F8D74C"/>
<path fill-rule="evenodd" clip-rule="evenodd" d="M17.9344 7.56318L17.8588 7.64693V7.75186C17.8391 7.72327 17.8048 7.7041 17.7659 7.7041C17.7049 7.7041 17.6554 7.75081 17.6554 7.80833C17.6554 7.8662 17.7049 7.91291 17.7659 7.91291L17.7804 7.91187C17.7729 7.93069 17.7688 7.95126 17.7688 7.97288C17.7688 7.98124 17.7694 7.98961 17.7706 7.99763H17.5324L17.4316 7.78561C17.4222 7.76594 17.3914 7.77018 17.3884 7.79156L17.3593 7.99763H17.2128C17.1981 7.99763 17.1837 7.99344 17.1714 7.98577L16.8993 7.81736C16.8791 7.80487 16.855 7.82684 16.8675 7.84635L17.0225 8.08896V8.46632C17.2165 8.3644 17.5592 8.29671 17.9496 8.29671C18.2985 8.29671 18.6093 8.35079 18.8099 8.43504V8.08896L19.0237 7.84C19.039 7.82224 19.0181 7.79729 18.9963 7.8072L18.5932 7.99031C18.5829 7.99519 18.5717 7.99763 18.5604 7.99763H18.5486L18.5195 7.79156C18.5165 7.77018 18.4857 7.76594 18.4764 7.78561L18.3755 7.99763H18.1327C18.134 7.98961 18.1346 7.98124 18.1346 7.97288C18.1346 7.95161 18.1306 7.93139 18.1233 7.91291C18.184 7.91257 18.233 7.86585 18.233 7.80833C18.233 7.75081 18.1835 7.7041 18.1225 7.7041C18.0921 7.7041 18.0645 7.7156 18.0446 7.73443V7.64693L17.9689 7.56318C17.9599 7.55316 17.9435 7.55316 17.9344 7.56318Z" fill="#F8D74C"/>
<path fill-rule="evenodd" clip-rule="evenodd" d="M17.8588 7.75186C17.8506 7.73999 17.8399 7.72975 17.8274 7.72183C17.8098 7.71066 17.7887 7.7041 17.7659 7.7041C17.7049 7.7041 17.6554 7.75081 17.6554 7.80833C17.6554 7.86026 17.6952 7.90321 17.7475 7.91148C17.7535 7.91242 17.7596 7.91291 17.7659 7.91291L17.7804 7.91187C17.7767 7.92122 17.7738 7.93101 17.7718 7.94114C17.77 7.95019 17.769 7.95952 17.7688 7.96907L17.7688 7.97288C17.7688 7.98124 17.7694 7.98961 17.7706 7.99763H17.5324L17.4316 7.78561C17.4222 7.76594 17.3914 7.77018 17.3884 7.79156L17.3593 7.99763H17.2128C17.1981 7.99763 17.1837 7.99344 17.1714 7.98577L16.8993 7.81736C16.8791 7.80487 16.855 7.82684 16.8675 7.84635L17.0225 8.08896V8.46632C17.0325 8.46104 17.043 8.45585 17.0538 8.45076C17.2521 8.35757 17.5794 8.29671 17.9496 8.29671C18.2808 8.29671 18.5777 8.34545 18.7786 8.42247C18.7893 8.42658 18.7998 8.43078 18.8099 8.43504V8.08896L19.0237 7.84C19.039 7.82224 19.0181 7.79729 18.9963 7.8072L18.5932 7.99031C18.5829 7.99519 18.5717 7.99763 18.5604 7.99763H18.5486L18.5195 7.79156C18.5165 7.77018 18.4857 7.76594 18.4764 7.78561L18.3755 7.99763H18.1327C18.134 7.98961 18.1346 7.98124 18.1346 7.97288L18.1346 7.96907C18.1344 7.95954 18.1333 7.95024 18.1316 7.94122C18.1297 7.93142 18.1269 7.92196 18.1233 7.91291C18.1342 7.91285 18.1448 7.91128 18.1547 7.90842C18.2 7.89538 18.233 7.85549 18.233 7.80833C18.233 7.75081 18.1835 7.7041 18.1225 7.7041C18.1058 7.7041 18.0901 7.70755 18.0759 7.71375C18.0642 7.71889 18.0536 7.72591 18.0446 7.73443V7.64693L17.9689 7.56318C17.9599 7.55316 17.9435 7.55316 17.9344 7.56318L17.8588 7.64693V7.75186Z" fill="#F8D74C"/>
<path fill-rule="evenodd" clip-rule="evenodd" d="M17.9344 8.52041L17.8588 8.60416V8.70909C17.8391 8.68051 17.8048 8.66133 17.7659 8.66133C17.7049 8.66133 17.6554 8.70805 17.6554 8.76557C17.6554 8.82343 17.7049 8.87015 17.7659 8.87015L17.7804 8.8691C17.7729 8.88793 17.7688 8.90849 17.7688 8.93011C17.7688 8.93848 17.7694 8.94684 17.7706 8.95486H17.5324L17.4316 8.74284C17.4222 8.72318 17.3914 8.72742 17.3884 8.74879L17.3593 8.95486H17.2128C17.1981 8.95486 17.1837 8.95068 17.1714 8.94301L16.8993 8.7746C16.8791 8.76211 16.855 8.78407 16.8675 8.80358L17.0225 9.04619V9.42355C17.2165 9.32164 17.5592 9.25394 17.9496 9.25394C18.2985 9.25394 18.6093 9.30802 18.8099 9.39228V9.04619L19.0237 8.79723C19.039 8.77947 19.0181 8.75453 18.9963 8.76444L18.5932 8.94754C18.5829 8.95242 18.5717 8.95486 18.5604 8.95486H18.5486L18.5195 8.74879C18.5165 8.72742 18.4857 8.72318 18.4764 8.74284L18.3755 8.95486H18.1327C18.134 8.94684 18.1346 8.93848 18.1346 8.93011C18.1346 8.90884 18.1306 8.88862 18.1233 8.87015C18.184 8.8698 18.233 8.82309 18.233 8.76557C18.233 8.70805 18.1835 8.66133 18.1225 8.66133C18.0921 8.66133 18.0645 8.67284 18.0446 8.69166V8.60416L17.9689 8.52041C17.9599 8.51039 17.9435 8.51039 17.9344 8.52041Z" fill="#F8D74C"/>
<path fill-rule="evenodd" clip-rule="evenodd" d="M17.8588 8.70909C17.8506 8.69723 17.8399 8.68698 17.8274 8.67906C17.8098 8.66789 17.7887 8.66133 17.7659 8.66133C17.7049 8.66133 17.6554 8.70805 17.6554 8.76557C17.6554 8.81749 17.6952 8.86044 17.7475 8.86871C17.7535 8.86966 17.7596 8.87015 17.7659 8.87015L17.7804 8.8691C17.7767 8.87846 17.7738 8.88824 17.7718 8.89837C17.77 8.90743 17.769 8.91676 17.7688 8.9263L17.7688 8.93011C17.7688 8.93848 17.7694 8.94684 17.7706 8.95486H17.5324L17.4316 8.74284C17.4222 8.72318 17.3914 8.72742 17.3884 8.74879L17.3593 8.95486H17.2128C17.1981 8.95486 17.1837 8.95068 17.1714 8.94301L16.8993 8.7746C16.8791 8.76211 16.855 8.78407 16.8675 8.80358L17.0225 9.04619V9.42355C17.0325 9.41827 17.043 9.41308 17.0538 9.40799C17.2521 9.3148 17.5794 9.25394 17.9496 9.25394C18.2808 9.25394 18.5777 9.30268 18.7786 9.37971C18.7893 9.38382 18.7998 9.38801 18.8099 9.39228V9.04619L19.0237 8.79723C19.039 8.77947 19.0181 8.75453 18.9963 8.76444L18.5932 8.94754C18.5829 8.95242 18.5717 8.95486 18.5604 8.95486H18.5486L18.5195 8.74879C18.5165 8.72742 18.4857 8.72318 18.4764 8.74284L18.3755 8.95486H18.1327C18.134 8.94684 18.1346 8.93848 18.1346 8.93011L18.1346 8.9263C18.1344 8.91678 18.1333 8.90747 18.1316 8.89845C18.1297 8.88865 18.1269 8.87919 18.1233 8.87015C18.1342 8.87009 18.1448 8.86852 18.1547 8.86565C18.2 8.85261 18.233 8.81272 18.233 8.76557C18.233 8.70805 18.1835 8.66133 18.1225 8.66133C18.1058 8.66133 18.0901 8.66478 18.0759 8.67099C18.0642 8.67612 18.0536 8.68314 18.0446 8.69166V8.60416L17.9689 8.52041C17.9599 8.51039 17.9435 8.51039 17.9344 8.52041L17.8588 8.60416V8.70909Z" fill="#F8D74C"/>
<path d="M18.7035 10.3642C18.7035 10.4378 18.3592 10.5733 17.9344 10.5733C17.5096 10.5733 17.1652 10.4378 17.1652 10.3642C17.1652 10.2906 17.5096 10.231 17.9344 10.231C18.3592 10.231 18.7035 10.2906 18.7035 10.3642Z" fill="#962122"/>
<path fill-rule="evenodd" clip-rule="evenodd" d="M17.7813 11.7247C17.7708 11.7294 17.7122 11.6726 17.6556 11.63V11.7043C17.6805 11.7247 17.6705 11.7903 17.6905 11.9164C17.7098 12.0387 17.7223 12.2074 17.7223 12.4343V12.6374C17.4074 12.6561 17.3644 12.5668 17.3623 12.5625C17.3544 12.5463 17.3494 12.5165 17.3603 12.4731C17.3712 12.4298 17.3941 12.3898 17.416 12.365L17.0498 12.0965C16.9827 12.1726 16.9288 12.2718 16.9022 12.3774C16.8757 12.483 16.8725 12.612 16.9324 12.7356C17.0503 12.9788 17.3361 13.0815 17.7223 13.066V15.5001H18.0999V15.9224H18.5699V12.8758C18.6847 12.8216 18.7773 12.7587 18.8493 12.6901C18.9401 12.6035 19.0002 12.5051 19.0229 12.4042C19.0446 12.3072 19.0339 12.1901 18.9526 12.0972L18.5852 12.3643C18.5606 12.3362 18.563 12.3149 18.563 12.3149C18.563 12.3149 18.5629 12.316 18.5624 12.3183C18.5604 12.3271 18.5503 12.3552 18.5095 12.3941C18.4962 12.4068 18.4799 12.4203 18.4601 12.4343H18.1923C18.1923 12.1949 18.1793 12.0044 18.1556 11.8552C18.1326 11.7097 18.0973 11.588 18.0421 11.497C17.987 11.4061 17.8802 11.3012 17.7122 11.3074C17.5698 11.3127 17.4724 11.3984 17.422 11.4539L17.7813 11.7247Z" fill="#962122"/>
<path fill-rule="evenodd" clip-rule="evenodd" d="M18.3347 16.0747C18.4322 16.0747 18.5113 16.0027 18.5113 15.9138C18.5113 15.825 18.4322 15.7529 18.3347 15.7529C18.2373 15.7529 18.1582 15.825 18.1582 15.9138C18.1582 16.0027 18.2373 16.0747 18.3347 16.0747ZM18.3347 16.0747C18.1269 16.0747 17.9584 16.2283 17.9584 16.4177V17.0001H18.7111V16.4177C18.7111 16.2283 18.5426 16.0747 18.3347 16.0747Z" fill="#962122"/>
<path fill-rule="evenodd" clip-rule="evenodd" d="M17.9584 15.6647C18.0559 15.6647 18.1349 15.5927 18.1349 15.5038C18.1349 15.415 18.0559 15.343 17.9584 15.343C17.8609 15.343 17.7819 15.415 17.7819 15.5038C17.7819 15.5927 17.8609 15.6647 17.9584 15.6647ZM17.9584 15.6647C17.7506 15.6647 17.5821 15.8183 17.5821 16.0077V16.5902H18.3347V16.0077C18.3347 15.8183 18.1662 15.6647 17.9584 15.6647Z" fill="#962122"/>
</g>
<defs>
<clipPath id="clip0_440_1410">
<rect width="24" height="24" rx="2" fill="white"/>
</clipPath>
</defs>
</svg>
