<svg width="32" height="24" viewBox="0 0 32 24" fill="none" xmlns="http://www.w3.org/2000/svg">
<rect width="32" height="24" rx="2" fill="#F9F9F9"/>
<rect y="12" width="32" height="12" fill="#3FB47C"/>
<path d="M5.83196 8.21012C5.72075 8.11847 5.47087 7.95091 5.36102 8.01383C5.2237 8.09249 5.73385 7.69999 6.08703 7.85691C6.36958 7.98245 6.42712 8.14469 6.42057 8.21012L6.59716 9.30901L7.16618 10.5255L8.32292 13.2439C8.1207 12.7414 7.93746 11.4598 8.69664 9.95651C9.4815 8.40237 9.84776 8.01383 9.93279 8.01383C9.99819 7.90924 10.0898 7.62943 9.93279 7.34688C9.77582 7.06433 9.60576 7.07221 9.54036 7.11146L7.16618 7.34688L7.97066 6.18929C8.20611 6.26784 8.76336 6.40137 9.10869 6.30711C8.97788 6.18942 8.6417 5.97755 8.34346 6.07166C7.97066 6.18929 7.36239 6.30693 6.77376 6.18929C6.30284 6.09519 6.11973 5.86239 6.08703 5.75776L6.2636 6.54267C5.88426 6.15679 5.12557 5.13779 5.12557 4.14887C5.49837 4.51516 6.38132 5.29874 6.93071 5.50275C6.83148 5.56736 6.59053 5.68883 6.42057 5.65788C6.57545 5.74171 6.95871 5.90163 7.25276 5.87067C7.54681 5.83972 7.57303 5.82339 7.54939 5.81909C7.55869 5.53538 7.59551 4.95471 7.66842 4.90169C7.75956 4.83541 7.12989 4.562 6.82334 4.68627C7.05256 4.49019 7.65516 4.12289 8.23181 4.22231C8.80845 4.32173 9.34444 4.50124 9.54036 4.57857C9.41917 4.48266 9.21316 4.26246 9.35858 4.14887C9.54036 4.0069 10.1622 3.77491 10.7091 3.88262C11.1465 3.96878 11.6922 3.83017 11.9104 3.7501L12.8963 3.21167C12.888 3.44647 12.84 3.92434 12.714 3.95748C12.9543 3.94096 13.4696 3.8383 13.6088 3.5598C13.6337 3.87874 13.5409 4.61524 12.9709 5.00969C13.2581 5.11241 13.8011 5.5157 13.6751 6.30711C13.5867 6.15014 13.3404 5.88329 13.062 6.07166C13.3548 6.27829 13.9137 6.81419 13.8077 7.30466C13.7016 7.79514 13.6309 7.98181 13.6088 8.01383C13.5895 7.80782 13.4928 7.3958 13.2609 7.3958C13.0289 7.3958 13.0316 7.57255 13.062 7.66092C13.2443 7.84596 13.6088 8.30882 13.6088 8.67999C13.6088 9.05116 13.3769 9.31518 13.2609 9.4008C13.2747 9.22405 13.2542 8.87055 13.062 8.87055C12.8218 8.87055 12.714 8.79598 12.714 9.00311V10.0636C12.7251 10.1755 12.7919 10.4245 12.9709 10.5255C13.225 10.5262 13.7331 10.3022 13.7331 9.4008C13.7331 8.49938 13.9485 7.2301 14.0562 6.70814C14.1833 6.07295 14.9162 4.80256 16.8317 4.80256C18.7473 4.80256 19.9387 4.62581 20.2949 4.53744C20.8417 4.39383 22.1939 3.90114 23.2278 3.07926C23.3963 3.02682 23.8045 2.9534 24.0895 3.07926C23.2803 3.80827 21.8558 5.61757 22.6313 7.02272L23.0456 7.76838L22.0596 7.80981C21.6813 7.84019 20.9329 8.09647 20.966 8.87859C20.9577 9.06362 21.0207 9.51323 21.3388 9.83137H20.0464C19.6183 9.83294 18.7058 9.97397 18.4805 10.5255C18.7843 10.3648 19.7299 10.1397 21.082 10.5255L22.0596 10.8173C22.3966 11.0244 23.203 11.4171 23.7332 11.331C24.2635 11.2448 24.5507 11.1018 24.628 11.041C24.8241 10.914 25.2063 10.5157 25.1666 9.93908C25.1605 9.85142 25.1446 9.77184 25.1211 9.69976L25.0671 9.83137C24.9484 10.16 24.5154 10.8173 23.7332 10.8173C22.9511 10.8173 22.6727 10.0882 22.6313 9.72367C22.5871 9.31494 22.7009 8.42456 23.5095 8.13293C24.3182 7.84129 24.9843 8.11636 25.2163 8.29035C25.2374 8.30205 25.2592 8.31481 25.2815 8.32858C25.3468 8.13862 25.4137 7.92761 25.4814 7.69382C25.7001 7.24311 25.8597 6.98682 25.9122 6.91502C25.7134 7.13595 25.1152 7.58943 24.3132 7.63582C24.8434 7.0531 26.3149 5.70871 27.9586 4.99287C27.4891 5.48998 26.5402 6.93987 26.5005 8.7626C26.3044 8.51128 25.9122 7.9606 25.9122 7.76838L25.5886 8.55835C26.0875 8.99899 26.6251 9.82344 26.3265 10.9499C25.9487 12.3749 25.2687 12.9079 24.976 12.9963C24.744 13.1509 24.2022 13.4768 23.8907 13.5431C24.0383 13.9105 24.5101 14.7336 25.2163 15.0872C26.099 15.5292 26.1464 16.0344 25.9122 16.7711C25.8763 16.5536 25.6869 16.1438 25.2163 16.2449C25.3331 16.9857 25.5448 18.2935 25.636 18.8548C25.6607 19.0069 26.1718 19.0653 26.3265 19.0653C26.5843 19.0653 26.8643 19.1635 27.0462 19.2547C27.2777 19.388 27.6439 19.7725 27.2567 20.2439C27.246 20.1077 27.1634 19.8262 26.9185 19.7897H25.8699L24.5672 20.1544L23.6512 19.9671L22.5481 20.3043C22.5481 20.0001 22.1195 19.8874 22.0986 20.4085C21.9119 20.2478 21.6297 19.8796 21.9944 19.692L22.2615 19.5682C22.1269 19.5552 21.9447 19.4106 21.8381 19.3663C21.6866 19.3034 21.3756 19.3403 21.4994 19.6334C21.3735 19.4443 21.1972 19.0239 21.4994 18.8548C21.5602 18.8321 21.713 18.7866 21.8381 18.7866C21.9944 18.7866 22.1898 18.7052 22.1898 18.5912V18.4154C22.1898 18.2649 21.8772 18.3059 21.7469 18.5196C21.723 18.3025 21.7782 17.8682 22.1898 17.8682C22.6015 17.8682 22.9389 18.0637 23.0561 18.1614C23.2211 18.3925 23.6189 18.8548 23.8898 18.8548C24.1608 18.8548 24.159 18.1233 24.1243 17.7575C24.0896 17.3971 23.9237 16.5604 23.5381 16.0966C22.9601 15.4188 21.441 14.0265 19.9886 13.8804C19.8363 14.1313 19.5775 14.7794 19.7602 15.3648C19.8296 15.498 20.0798 15.8193 20.5252 16.0385C20.765 16.2356 21.0345 16.7535 20.1941 17.2489C20.2136 17.1207 20.2114 16.8455 20.0464 16.7711C19.8814 16.6966 19.4443 17.0205 19.2463 17.1918L17.8076 18.7866C17.7657 18.8988 17.7505 19.1115 18.0245 19.0653C18.2986 19.019 18.7553 19.046 18.9495 19.0653C19.1778 19.1107 19.4976 19.3317 18.9495 19.8524C18.9799 19.7708 18.9791 19.5836 18.7325 19.487L17.8076 19.7671C17.5195 19.8524 16.4195 19.6795 15.8916 19.7671L15.3636 19.8524L14.2462 20.1983C14.0878 20.2483 13.9646 20.1261 13.7887 20.4085C13.6831 20.1957 13.5493 19.7298 13.8591 19.5682L14.3439 19.3596L14.035 19.1512C13.8591 19.0653 13.6567 18.8826 13.4455 19.1512C13.3957 18.9646 13.3593 18.5912 13.6127 18.5912C13.8661 18.5912 14.035 18.5435 14.0878 18.5196C14.1172 18.4808 14.1723 18.3752 14.1582 18.2625C14.1406 18.1218 13.9295 18.1097 13.8591 18.2625C13.8004 18.11 13.7696 17.8613 14.035 17.761C14.3439 17.6443 14.4844 17.7109 14.563 17.761L15.8916 18.6321C15.9766 18.646 16.2013 18.6221 16.4195 18.4154C16.6377 18.2086 17.3551 16.9838 17.6865 16.3972C17.1938 16.2095 16.1327 15.6792 15.83 15.0598C15.4868 15.1933 14.563 15.5913 13.6127 16.1156C13.8561 16.4617 14.0825 17.2296 13.0408 17.5322C13.0672 17.4296 13.1041 17.1733 13.0408 16.9691C12.9774 16.765 12.5803 16.8841 12.3897 16.9691C12.0641 17.2126 11.3145 17.9423 10.9203 18.9136C10.8147 19.1318 10.695 19.5682 11.0611 19.5682H11.9321C12.3163 19.6609 12.8982 19.9941 12.1521 20.5854C12.1668 20.4564 12.1327 20.1983 11.8793 20.1983C11.6259 20.1983 11.0112 20.1061 10.6563 20.1983L8.86137 20.471C8.64711 20.5327 8.60269 20.2106 8.37744 20.4085C8.15219 20.6063 7.77033 20.6612 7.56795 20.6646C7.36558 20.668 7.24592 20.7086 7.36558 20.9902C7.15441 20.9051 6.79542 20.6523 7.04883 20.3214C7.08989 20.2276 7.2512 20.0329 7.56795 20.0047C7.41544 19.9636 7.52396 19.4837 7.04883 19.5682C6.8971 19.5952 6.67224 19.5757 6.74967 19.8524C6.63529 19.6685 6.47515 19.2709 6.74967 19.1512C7.02419 19.0316 7.27466 18.943 7.36558 18.9136H7.56795C7.5005 18.868 7.43526 18.7408 7.36558 18.5196C7.33919 18.4358 7.22832 18.3005 6.99604 18.4297C7.0107 18.2273 7.13682 17.842 7.52396 17.9194C7.91111 17.9968 8.33051 18.5676 8.49182 18.8433C8.65313 19.0427 9.01271 19.4257 9.16053 19.3624C9.3453 19.2832 9.82043 18.9576 10.1812 17.4707C10.4698 16.2811 10.4657 16.0247 10.4275 16.0453L9.66206 15.5789L8.43023 16.1156C8.24253 16.4705 7.64362 17.0307 6.74967 16.4324C7.02243 16.4911 7.56795 16.4746 7.56795 15.9397C7.30106 15.3502 6.71096 13.8227 6.48571 12.429C6.38688 12.619 6.0424 12.9811 5.45514 12.9089C5.19757 12.8368 5.17611 12.5589 5.19757 12.429C5.27802 12.518 5.47823 12.6426 5.63544 12.429C5.65171 12.3664 5.67448 12.18 5.63544 11.9348C5.59641 11.6897 5.87339 11.3142 6.01677 11.1571C6.05808 10.9352 6.04639 10.4583 5.66914 10.3263C5.29189 10.1943 5.15842 10.1849 5.13885 10.1967H4.44359C4.3454 10.1751 4.15844 10.192 4.19615 10.4324C4.05866 10.2242 3.8874 9.77481 4.3022 9.64283C4.717 9.51085 4.99746 9.58784 5.08584 9.64283L5.57489 9.68997C5.58471 9.61141 5.536 9.41186 5.26261 9.24217C4.98921 9.07248 4.82659 8.87294 4.77946 8.79438C4.62037 8.75246 4.3022 8.73266 4.3022 8.98881C4.23739 8.7551 4.22325 8.28766 4.68518 8.28766C5.26261 8.28766 5.29207 8.34069 5.57489 8.62351L5.83196 8.96525C5.77036 8.7525 5.68412 8.30364 5.83196 8.21012Z" fill="#D74B4B"/>
</svg>
