<svg width="24" height="24" viewBox="0 0 24 24" fill="none" xmlns="http://www.w3.org/2000/svg">
<rect width="24" height="24" rx="12" fill="#F9F9F9"/>
<rect y="12" width="24" height="12" fill="#3FB47C"/>
<path d="M4.4239 9.17649C4.34104 9.1082 4.15485 8.98335 4.073 9.03024C3.97068 9.08884 4.35079 8.79639 4.61395 8.91332C4.82447 9.00685 4.86734 9.12774 4.86246 9.17649L4.99404 9.99526L5.41801 10.9017L6.27988 12.9271C6.12921 12.5527 5.99269 11.5978 6.55834 10.4777C7.14313 9.31973 7.41603 9.03024 7.47938 9.03024C7.52811 8.95231 7.59634 8.74382 7.47938 8.5333C7.36242 8.32278 7.23572 8.32864 7.18699 8.35789L5.41801 8.5333L6.01742 7.67079C6.19285 7.72932 6.60805 7.82881 6.86535 7.75858C6.76789 7.67088 6.51741 7.51302 6.29519 7.58314C6.01742 7.67079 5.56421 7.75844 5.12562 7.67079C4.77475 7.60067 4.63831 7.42722 4.61395 7.34926L4.74551 7.93409C4.46286 7.64657 3.89757 6.88733 3.89757 6.1505C4.17534 6.42341 4.83321 7.00725 5.24256 7.15925C5.16863 7.20739 4.9891 7.2979 4.86246 7.27484C4.97786 7.3373 5.26343 7.45645 5.48252 7.43339C5.70161 7.41033 5.72115 7.39816 5.70353 7.39495C5.71046 7.18357 5.7379 6.75092 5.79222 6.71141C5.86013 6.66202 5.39097 6.45831 5.16256 6.55091C5.33335 6.40481 5.78235 6.13113 6.212 6.20521C6.64165 6.27929 7.04101 6.41304 7.18699 6.47066C7.09669 6.3992 6.94319 6.23513 7.05154 6.1505C7.18699 6.04471 7.65034 5.87186 8.05777 5.95211C8.38371 6.01631 8.79031 5.91303 8.95287 5.85337L9.68748 5.4522C9.68131 5.62714 9.6455 5.9832 9.55167 6.00789C9.73069 5.99558 10.1147 5.91909 10.2184 5.71158C10.2369 5.94922 10.1677 6.49798 9.74304 6.79188C9.95704 6.86842 10.3616 7.16891 10.2678 7.75858C10.2019 7.64162 10.0184 7.44279 9.81094 7.58314C10.0291 7.73711 10.4455 8.13639 10.3665 8.50184C10.2875 8.86729 10.2348 9.00638 10.2184 9.03024C10.204 8.87674 10.1319 8.56975 9.9591 8.56975C9.78625 8.56975 9.78831 8.70144 9.81094 8.76729C9.94675 8.90516 10.2184 9.25003 10.2184 9.52659C10.2184 9.80314 10.0455 9.99986 9.9591 10.0636C9.96939 9.93196 9.95416 9.66857 9.81094 9.66857C9.63192 9.66857 9.55167 9.61301 9.55167 9.76734V10.5575C9.5599 10.6409 9.6097 10.8264 9.74304 10.9017C9.93235 10.9022 10.311 10.7353 10.311 10.0636C10.311 9.39201 10.4715 8.44629 10.5517 8.05738C10.6464 7.5841 11.1925 6.63755 12.6197 6.63755C14.047 6.63755 14.9347 6.50586 15.2001 6.44001C15.6075 6.33301 16.615 5.96591 17.3854 5.35354C17.5109 5.31446 17.815 5.25976 18.0274 5.35354C17.4245 5.89671 16.3631 7.24481 16.9409 8.29177L17.2496 8.84736L16.515 8.87822C16.2331 8.90086 15.6754 9.09181 15.7001 9.67456C15.6939 9.81242 15.7409 10.1474 15.9779 10.3845H15.0149C14.696 10.3856 14.0161 10.4907 13.8482 10.9017C14.0745 10.7819 14.7791 10.6142 15.7865 10.9017L16.515 11.1191C16.766 11.2734 17.3669 11.566 17.762 11.5018C18.157 11.4376 18.371 11.331 18.4287 11.2857C18.5748 11.1911 18.8595 10.8944 18.8299 10.4647C18.8254 10.3994 18.8135 10.3401 18.796 10.2864L18.7558 10.3845C18.6673 10.6293 18.3447 11.1191 17.762 11.1191C17.1792 11.1191 16.9718 10.5758 16.9409 10.3042C16.908 9.99968 16.9928 9.33627 17.5953 9.11897C18.1978 8.90168 18.6941 9.10663 18.8669 9.23626C18.8827 9.24499 18.8989 9.25449 18.9156 9.26475C18.9642 9.12321 19.014 8.96599 19.0645 8.7918C19.2275 8.45598 19.3464 8.26502 19.3855 8.21152C19.2373 8.37614 18.7916 8.71402 18.1941 8.74859C18.5892 8.31441 19.6855 7.31271 20.9103 6.77935C20.5604 7.14974 19.8534 8.23004 19.8238 9.58813C19.6777 9.40088 19.3855 8.99057 19.3855 8.84736L19.1444 9.43595C19.5161 9.76427 19.9167 10.3786 19.6941 11.2178C19.4127 12.2796 18.906 12.6768 18.6879 12.7426C18.5151 12.8578 18.1114 13.1007 17.8792 13.15C17.9892 13.4238 18.3408 14.0371 18.8669 14.3006C19.5247 14.6299 19.56 15.0063 19.3855 15.5552C19.3587 15.3931 19.2176 15.0878 18.8669 15.1631C18.954 15.7151 19.1117 16.6895 19.1797 17.1077C19.1981 17.2211 19.5789 17.2645 19.6941 17.2645C19.8863 17.2645 20.0949 17.3377 20.2304 17.4057C20.4029 17.505 20.6758 17.7915 20.3872 18.1428C20.3793 18.0413 20.3178 17.8315 20.1353 17.8043H19.3539L18.3833 18.0761L17.7008 17.9365L16.8789 18.1877C16.8789 17.961 16.5596 17.8771 16.544 18.2654C16.4049 18.1456 16.1946 17.8713 16.4664 17.7315L16.6654 17.6393C16.5651 17.6296 16.4294 17.5219 16.3499 17.4889C16.237 17.442 16.0053 17.4695 16.0975 17.6878C16.0037 17.547 15.8724 17.2337 16.0975 17.1077C16.1428 17.0908 16.2567 17.0569 16.3499 17.0569C16.4664 17.0569 16.612 16.9963 16.612 16.9114V16.7803C16.612 16.6682 16.379 16.6988 16.282 16.858C16.2642 16.6962 16.3053 16.3727 16.612 16.3727C16.9187 16.3727 17.1701 16.5183 17.2574 16.5911C17.3804 16.7633 17.6767 17.1077 17.8786 17.1077C18.0805 17.1077 18.0792 16.5627 18.0533 16.2902C18.0274 16.0216 17.9039 15.3982 17.6165 15.0526C17.1859 14.5476 16.0541 13.5102 14.9718 13.4013C14.8584 13.5883 14.6655 14.0712 14.8017 14.5074C14.8534 14.6066 15.0399 14.846 15.3717 15.0094C15.5504 15.1562 15.7512 15.542 15.125 15.9112C15.1395 15.8156 15.1378 15.6106 15.0149 15.5552C14.892 15.4997 14.5663 15.741 14.4188 15.8687L13.3468 17.0569C13.3156 17.1405 13.3043 17.299 13.5085 17.2645C13.7126 17.2301 14.053 17.2502 14.1976 17.2645C14.3678 17.2984 14.606 17.4631 14.1976 17.851C14.2203 17.7903 14.2197 17.6507 14.036 17.5788L13.3468 17.7875C13.1322 17.851 12.3126 17.7222 11.9192 17.7875L11.5259 17.851L10.6933 18.1087C10.5753 18.146 10.4835 18.055 10.3524 18.2654C10.2737 18.1068 10.174 17.7597 10.4048 17.6393L10.7661 17.4838L10.5359 17.3286C10.4048 17.2645 10.254 17.1284 10.0967 17.3286C10.0595 17.1895 10.0324 16.9114 10.2212 16.9114C10.4101 16.9114 10.5359 16.8758 10.5753 16.858C10.5971 16.8291 10.6382 16.7504 10.6277 16.6664C10.6146 16.5616 10.4573 16.5526 10.4048 16.6664C10.3611 16.5528 10.3381 16.3675 10.5359 16.2928C10.7661 16.2058 10.8707 16.2555 10.9293 16.2928L11.9192 16.9418C11.9826 16.9521 12.15 16.9344 12.3126 16.7803C12.4751 16.6263 13.0097 15.7137 13.2566 15.2766C12.8895 15.1367 12.0988 14.7416 11.8733 14.2801C11.6176 14.3796 10.9293 14.6761 10.2212 15.0668C10.4026 15.3247 10.5713 15.8968 9.79511 16.1223C9.81478 16.0458 9.84231 15.8548 9.79511 15.7027C9.74791 15.5506 9.45202 15.6394 9.30998 15.7027C9.06741 15.8841 8.50885 16.4278 8.21515 17.1516C8.13648 17.3142 8.04732 17.6393 8.32004 17.6393H8.96907C9.25535 17.7084 9.68891 17.9566 9.13297 18.3972C9.1439 18.301 9.11855 18.1087 8.92974 18.1087C8.74093 18.1087 8.28286 18.0401 8.01847 18.1087L6.68108 18.312C6.52143 18.3579 6.48834 18.1179 6.32051 18.2654C6.15268 18.4128 5.86815 18.4537 5.71737 18.4562C5.56658 18.4587 5.47742 18.489 5.56658 18.6988C5.40924 18.6354 5.14176 18.447 5.33057 18.2005C5.36117 18.1306 5.48136 17.9855 5.71737 17.9645C5.60373 17.9339 5.68459 17.5763 5.33057 17.6393C5.21752 17.6594 5.04998 17.6449 5.10767 17.851C5.02245 17.714 4.90313 17.4177 5.10767 17.3286C5.31222 17.2394 5.49884 17.1734 5.56658 17.1516H5.71737C5.66711 17.1175 5.6185 17.0228 5.56658 16.858C5.54692 16.7955 5.46431 16.6947 5.29124 16.791C5.30216 16.6402 5.39613 16.3531 5.68459 16.4108C5.97305 16.4685 6.28554 16.8937 6.40573 17.0991C6.52592 17.2477 6.79384 17.5331 6.90398 17.4859C7.04165 17.4269 7.39567 17.1844 7.66446 16.0764C7.87949 15.1901 7.87643 14.9991 7.84802 15.0144L7.27766 14.6669L6.35984 15.0668C6.21998 15.3312 5.77375 15.7486 5.10767 15.3028C5.3109 15.3465 5.71737 15.3343 5.71737 14.9357C5.51851 14.4965 5.07883 13.3584 4.911 12.3199C4.83736 12.4615 4.5807 12.7313 4.14313 12.6775C3.95122 12.6238 3.93523 12.4167 3.95122 12.3199C4.01116 12.3862 4.16033 12.4791 4.27747 12.3199C4.28959 12.2733 4.30656 12.1344 4.27747 11.9517C4.24839 11.7691 4.45477 11.4893 4.56159 11.3722C4.59237 11.2069 4.58366 10.8516 4.30258 10.7532C4.02149 10.6549 3.92205 10.6479 3.90747 10.6567H3.38943C3.31627 10.6406 3.17697 10.6531 3.20507 10.8323C3.10263 10.6771 2.97502 10.3423 3.28408 10.244C3.59315 10.1456 3.80212 10.203 3.86797 10.244L4.23235 10.2791C4.23967 10.2206 4.20338 10.0719 3.99968 9.94546C3.79597 9.81903 3.67481 9.67035 3.63969 9.61181C3.52115 9.58058 3.28408 9.56582 3.28408 9.75669C3.23579 9.58254 3.22526 9.23426 3.56944 9.23426C3.99968 9.23426 4.02163 9.27377 4.23235 9.4845L4.4239 9.73913C4.378 9.58061 4.31374 9.24617 4.4239 9.17649Z" fill="#D74B4B"/>
</svg>
